<?xml version="1.0" encoding="utf-8"?>
<!-- Generator: Adobe Illustrator 25.1.0, SVG Export Plug-In . SVG Version: 6.00 Build 0)  -->
<svg version="1.1" id="Layer_1" xmlns="http://www.w3.org/2000/svg" xmlns:xlink="http://www.w3.org/1999/xlink" x="0px" y="0px"
	 viewBox="0 0 1439 896" style="enable-background:new 0 0 1439 896;" xml:space="preserve">
<style type="text/css">
	.st0{fill:url(#SVGID_1_);}
	.st1{fill:#071520;}
	.st2{fill:none;stroke:#143F63;stroke-width:2;}
	.st3{fill-rule:evenodd;clip-rule:evenodd;fill:url(#SVGID_2_);}
	.st4{fill:#676E73;}
	.st5{fill-rule:evenodd;clip-rule:evenodd;fill:url(#SVGID_3_);}
	.st6{opacity:0.4;}
	.st7{fill:#FFFFFF;}
	.st8{fill:#143F63;}
	.st9{fill-rule:evenodd;clip-rule:evenodd;fill:#DCBD3F;}
	.st10{fill-rule:evenodd;clip-rule:evenodd;fill:#71A4CF;}
</style>
<linearGradient id="SVGID_1_" gradientUnits="userSpaceOnUse" x1="719.5" y1="-762" x2="719.5" y2="134" gradientTransform="matrix(1 0 0 1 0 762)">
	<stop  offset="0" style="stop-color:#071520"/>
	<stop  offset="1" style="stop-color:#071520"/>
</linearGradient>
<rect y="0" class="st0" width="1439" height="896"/>
<path class="st1" d="M162,142h1115v612H162V142z"/>
<path class="st2" d="M219,142v612"/>
<path class="st2" d="M277.9,142v612"/>
<path class="st2" d="M336.9,142v612"/>
<path class="st2" d="M395.8,142v612"/>
<path class="st2" d="M454.8,142v612"/>
<path class="st2" d="M513.7,142v612"/>
<path class="st2" d="M572.6,142v612"/>
<path class="st2" d="M631.6,142v612"/>
<path class="st2" d="M690.5,142v612"/>
<path class="st2" d="M749.5,142v612"/>
<path class="st2" d="M808.4,142v612"/>
<path class="st2" d="M867.4,142v612"/>
<path class="st2" d="M926.3,142v612"/>
<path class="st2" d="M985.2,142v612"/>
<path class="st2" d="M1044.2,142v612"/>
<path class="st2" d="M1103.1,142v612"/>
<path class="st2" d="M1162.1,142v612"/>
<path class="st2" d="M1221,142v612"/>
<path class="st2" d="M1277,195H163"/>
<path class="st2" d="M1277,531H163"/>
<path class="st2" d="M1277,251H163"/>
<path class="st2" d="M1277,587H163"/>
<path class="st2" d="M1277,307H163"/>
<path class="st2" d="M1277,643H163"/>
<path class="st2" d="M1277,363H163"/>
<path class="st2" d="M1277,699H163"/>
<path class="st2" d="M1277,419H163"/>
<path class="st2" d="M1277,475H163"/>
<linearGradient id="SVGID_2_" gradientUnits="userSpaceOnUse" x1="1281.1998" y1="-7.9" x2="159" y2="-7.9" gradientTransform="matrix(1 0 0 1 0 762)">
	<stop  offset="0" style="stop-color:#D3AD0F"/>
	<stop  offset="1" style="stop-color:#D3AD0F;stop-opacity:0"/>
</linearGradient>
<path class="st3" d="M1269.7,751l-10.8-10.8l4.2-4.2l16,16l2.1,2.1l-2.1,2.1l-16,16l-4.2-4.2l11-11H159v-6L1269.7,751L1269.7,751z"
	/>
<path class="st4" d="M580,811h3.1v-6.5h2.2c3.1,0,5.9-1.7,5.9-5.1c0-3.5-2.7-5-5.9-5H580V811z M585,802h-1.8v-5.1h1.8
	c1.6,0,3.1,0.7,3.1,2.5C588,801.2,586.6,802,585,802z M603.7,804.6c0-3.1-2.2-5.4-5.7-5.4c-3.3,0-6,2.5-6,6.2s2.6,5.9,6.1,5.9
	c2.8,0,4.6-1.2,5.2-1.9l-1.2-1.7c-0.6,0.5-1.9,1.2-3.5,1.2c-1.7,0-3.2-0.9-3.5-2.7h8.5C603.7,806.2,603.7,805.2,603.7,804.6z
	 M598,801.4c2.2,0,2.6,1.5,2.7,2.7h-5.6C595.2,802.7,596.2,801.4,598,801.4z M606,811h3v-5.7c0-0.9,0.1-1.7,0.4-2.3
	c0.4-0.7,1.1-1.1,2-1.1c0.4,0,0.9,0,1.3,0.1h0.1l0.2-2.7c0,0-0.4-0.2-1.2-0.2c-1.2,0-2.4,0.8-2.9,2.1h0.1v-1.9h-3V811z M621.3,802.5
	l1.3-2c-1-0.7-2.1-1.2-4.2-1.2c-2.2,0-4.2,1.4-4.2,3.5c0,1.7,0.9,2.7,2.6,3.3l1.3,0.5c1.5,0.5,1.9,0.8,1.9,1.4
	c0,0.7-0.5,1.1-1.7,1.1c-1,0-2.2-0.5-3.5-1.6l-1.2,2.1c0.9,1.1,2.9,1.8,4.7,1.8c2.9,0,4.6-1.6,4.6-3.8c0-1.7-0.9-2.6-3.5-3.4
	l-0.8-0.3c-1.3-0.4-1.7-0.8-1.7-1.3c0-0.6,0.5-0.9,1.5-0.9C619.6,801.5,620.6,802,621.3,802.5z M630.8,811.3c3.6,0,6.3-2.4,6.3-6
	s-2.7-6.1-6.3-6.1s-6.3,2.4-6.3,6.1S627.2,811.3,630.8,811.3z M633.9,805.2c0,2-1.2,3.6-3.1,3.6c-2,0-3.1-1.6-3.1-3.6
	s1.1-3.5,3.1-3.5C632.8,801.6,633.9,803.2,633.9,805.2z M647.2,811h3.1v-6.9c0-2.8-0.8-4.9-4.2-4.9c-1.7,0-2.9,0.7-3.5,2h-0.1v-1.8
	h-3.1V811h3.1v-5.8c0-1.9,0.6-3.5,2.5-3.5c1.8,0,2.1,1.4,2.1,3.1v6.2H647.2z M660,811h3v-6.6c0-3.6-1.8-5.2-5.4-5.2
	c-2,0-3.6,0.7-4.5,1.2l0.9,2c0.5-0.4,1.8-1,3.3-1c1.6,0,2.6,0.7,2.6,2.2v0.3l-2.8,0.2c-2.4,0.2-4.8,1.1-4.8,3.5s1.8,3.6,4.1,3.6
	c1.7,0,3.1-0.8,3.6-1.6L660,811z M659.9,805.8v2.1c-0.4,0.6-1.3,1.3-2.5,1.3c-1.3,0-2-0.7-2-1.7s0.8-1.5,2.4-1.6L659.9,805.8z
	 M666,811h3v-16.6h-3V811z M673.9,797.5c1.1,0,1.8-0.7,1.8-1.7s-0.8-1.7-1.8-1.7c-1.1,0-1.8,0.7-1.8,1.7
	C672,796.8,672.8,797.5,673.9,797.5z M672.3,811h3.1v-11.6h-3.1V811z M677.6,811H688v-2.4h-6.5l6.2-7.4v-1.8H678v2.4h6l-6.3,7.4v1.8
	H677.6z M701.2,804.6c0-3.1-2.2-5.4-5.7-5.4c-3.3,0-6,2.5-6,6.2s2.6,5.9,6.1,5.9c2.8,0,4.6-1.2,5.2-1.9l-1.2-1.7
	c-0.6,0.5-1.9,1.2-3.5,1.2c-1.7,0-3.2-0.9-3.5-2.7h8.5C701.2,806.2,701.2,805.2,701.2,804.6z M695.5,801.4c2.2,0,2.6,1.5,2.7,2.7
	h-5.6C692.7,802.7,693.7,801.4,695.5,801.4z M712.5,811h2.9v-16.6h-3v4.6c0,0.8,0,1.4,0,2l0,0c-0.8-1.2-2.1-1.8-3.7-1.8
	c-3.5,0-5.7,2.7-5.7,6c0,3.5,2.1,6.1,5.5,6.1c1.6,0,3-0.6,4-2.1h0.1L712.5,811z M709.3,808.8c-2,0-3.2-1.6-3.2-3.6
	c0-1.9,1.2-3.6,3.1-3.6c2,0,3.2,1.7,3.2,3.6C712.4,807.4,711.1,808.8,709.3,808.8z M734.6,804.6c0-3.1-2.2-5.4-5.7-5.4
	c-3.3,0-6,2.5-6,6.2s2.6,5.9,6.1,5.9c2.8,0,4.6-1.2,5.2-1.9l-1.2-1.7c-0.6,0.5-1.9,1.2-3.5,1.2c-1.7,0-3.2-0.9-3.5-2.7h8.5
	C734.6,806.2,734.6,805.2,734.6,804.6z M728.9,801.4c2.2,0,2.6,1.5,2.7,2.7H726C726.1,802.7,727,801.4,728.9,801.4z M744.6,811h3.1
	v-6.9c0-2.8-0.8-4.9-4.2-4.9c-1.7,0-2.9,0.7-3.5,2h-0.1v-1.8h-3.1V811h3.1v-5.8c0-1.9,0.6-3.5,2.5-3.5c1.8,0,2.1,1.4,2.1,3.1v6.2
	H744.6z M759.4,808.8v0.6c0,2.6-1.1,3.8-3.7,3.8c-1.5,0-3.4-0.8-4.1-1.4l-1.3,2.1c0.6,0.4,2.6,1.7,5.4,1.7c2.8,0,4.3-1,5.3-2
	s1.5-2.5,1.5-5v-9.2h-3v1.6l0,0c-0.8-1.2-2.1-1.8-3.7-1.8c-3.5,0-5.7,2.7-5.7,5.9c0,3.7,2.5,5.6,5.4,5.6
	C757.2,810.6,758.6,810,759.4,808.8L759.4,808.8z M759.6,805c0,1.8-1.1,3.2-3.3,3.2c-2,0-3.2-1.5-3.2-3.2c0-1.9,1.2-3.4,3.2-3.4
	S759.6,803.3,759.6,805z M772.4,811h3v-6.6c0-3.6-1.8-5.2-5.4-5.2c-2,0-3.6,0.7-4.5,1.2l0.9,2c0.5-0.4,1.8-1,3.3-1
	c1.6,0,2.6,0.7,2.6,2.2v0.3l-2.8,0.2c-2.4,0.2-4.8,1.1-4.8,3.5s1.8,3.6,4.1,3.6c1.7,0,3.1-0.8,3.6-1.6L772.4,811z M772.3,805.8v2.1
	c-0.4,0.6-1.3,1.3-2.5,1.3c-1.3,0-2-0.7-2-1.7s0.8-1.5,2.4-1.6L772.3,805.8z M786.9,808.8v0.6c0,2.6-1.1,3.8-3.7,3.8
	c-1.5,0-3.4-0.8-4.1-1.4l-1.3,2.1c0.6,0.4,2.6,1.7,5.4,1.7c2.8,0,4.3-1,5.3-2s1.5-2.5,1.5-5v-9.2h-3v1.6l0,0
	c-0.8-1.2-2.1-1.8-3.7-1.8c-3.5,0-5.7,2.7-5.7,5.9c0,3.7,2.5,5.6,5.4,5.6C784.7,810.6,786.1,810,786.9,808.8L786.9,808.8z
	 M787.1,805c0,1.8-1.1,3.2-3.3,3.2c-2,0-3.2-1.5-3.2-3.2c0-1.9,1.2-3.4,3.2-3.4C785.9,801.6,787.1,803.3,787.1,805z M804.1,804.6
	c0-3.1-2.2-5.4-5.7-5.4c-3.3,0-6,2.5-6,6.2s2.6,5.9,6.1,5.9c2.8,0,4.6-1.2,5.2-1.9l-1.2-1.7c-0.6,0.5-1.9,1.2-3.5,1.2
	c-1.7,0-3.2-0.9-3.5-2.7h8.5C804.1,806.2,804.1,805.2,804.1,804.6z M798.4,801.4c2.2,0,2.6,1.5,2.7,2.7h-5.6
	C795.6,802.7,796.5,801.4,798.4,801.4z M820,799.2c-1.7,0-3,0.8-3.8,2.2c-0.6-1.5-1.6-2.2-3.3-2.2c-1.5,0-2.9,0.9-3.5,2h-0.1v-1.8
	h-3.1V811h3.1v-6c0-1.8,0.7-3.3,2.3-3.3c1.5,0,1.9,1.2,1.9,2.8v6.5h3.1v-6c0-2,0.8-3.3,2.3-3.3s1.8,1.4,1.8,2.8v6.5h3.1v-7
	C823.9,801.3,823.1,799.2,820,799.2z M837.9,804.6c0-3.1-2.2-5.4-5.7-5.4c-3.3,0-6,2.5-6,6.2s2.6,5.9,6.1,5.9c2.8,0,4.6-1.2,5.2-1.9
	l-1.2-1.7c-0.6,0.5-1.9,1.2-3.5,1.2c-1.7,0-3.2-0.9-3.5-2.7h8.5C837.9,806.2,837.9,805.2,837.9,804.6z M832.2,801.4
	c2.2,0,2.6,1.5,2.7,2.7h-5.6C829.4,802.7,830.3,801.4,832.2,801.4z M847.9,811h3.1v-6.9c0-2.8-0.8-4.9-4.2-4.9c-1.7,0-2.9,0.7-3.5,2
	h-0.1v-1.8h-3.1V811h3.1v-5.8c0-1.9,0.6-3.5,2.5-3.5c1.8,0,2.1,1.4,2.1,3.1v6.2H847.9z M857.6,801.8h2.7v-2.4h-2.7v-3.3h-3v3.3h-1.7
	v2.4h1.7v5.4c0,3,1,4.1,3.4,4.1c1.3,0,2.2-0.3,2.4-0.4l-0.2-2.4c0,0-0.5,0.2-1.1,0.2c-1.1,0-1.4-0.4-1.4-2.2v-4.7H857.6z"/>
<linearGradient id="SVGID_3_" gradientUnits="userSpaceOnUse" x1="162" y1="-623.2" x2="162" y2="-7.958" gradientTransform="matrix(1 0 0 1 0 762)">
	<stop  offset="0" style="stop-color:#4186BF"/>
	<stop  offset="1" style="stop-color:#4186BF;stop-opacity:0"/>
</linearGradient>
<path class="st5" d="M159,150.2l-10.9,10.9l-4.2-4.2l16-16l2.1-2.1l2.1,2.1l16,16l-4.2,4.2L165,150.3V751h-6V150.2z"/>
<path class="st4" d="M119,545.3V540c0-5.1-3-8.9-8.3-8.9s-8.3,3.9-8.3,8.9v5.3H119z M116.4,539.9v2.3h-11.3v-2.3
	c0-3.5,2.2-5.6,5.7-5.6C114.2,534.3,116.4,536.5,116.4,539.9z M105.5,526.8c0-1.1-0.7-1.8-1.7-1.8s-1.7,0.8-1.7,1.8
	c0,1.1,0.7,1.8,1.7,1.8S105.5,527.9,105.5,526.8z M119,528.3v-3.1h-11.6v3.1H119z M116.8,513.4h0.6c2.6,0,3.8,1.1,3.8,3.7
	c0,1.5-0.8,3.4-1.4,4.1l2.1,1.3c0.4-0.6,1.7-2.6,1.7-5.4c0-2.8-1-4.3-2-5.3s-2.5-1.5-5-1.5h-9.2v3h1.6l0,0c-1.2,0.8-1.8,2.1-1.8,3.7
	c0,3.5,2.7,5.7,5.9,5.7c3.7,0,5.6-2.5,5.6-5.4C118.6,515.6,118,514.2,116.8,513.4L116.8,513.4z M113,513.2c1.8,0,3.2,1.1,3.2,3.3
	c0,2-1.5,3.2-3.2,3.2c-1.9,0-3.4-1.2-3.4-3.2S111.3,513.2,113,513.2z M105.5,505.6c0-1.1-0.7-1.8-1.7-1.8s-1.7,0.8-1.7,1.8
	c0,1.1,0.7,1.8,1.7,1.8S105.5,506.6,105.5,505.6z M119,507.1V504h-11.6v3.1H119z M109.8,497.3v-2.7h-2.4v2.7h-3.3v3h3.3v1.7h2.4
	v-1.7h5.4c3,0,4.1-1,4.1-3.4c0-1.3-0.3-2.2-0.4-2.4l-2.4,0.2c0,0,0.2,0.5,0.2,1.1c0,1.1-0.4,1.4-2.2,1.4L109.8,497.3L109.8,497.3z
	 M119,485.8v-3h-6.6c-3.6,0-5.2,1.8-5.2,5.4c0,2,0.7,3.6,1.2,4.5l2-0.9c-0.4-0.5-1-1.8-1-3.3c0-1.6,0.7-2.6,2.2-2.6h0.3l0.2,2.8
	c0.2,2.4,1.1,4.8,3.5,4.8s3.6-1.8,3.6-4.1c0-1.7-0.8-3.1-1.6-3.6L119,485.8z M113.8,485.9h2.1c0.6,0.4,1.3,1.3,1.3,2.5
	c0,1.3-0.7,2-1.7,2s-1.5-0.8-1.6-2.4L113.8,485.9z M119,479.8v-3h-16.6v3H119z M107.4,465.4v3.1h16v-3h-4c-0.8,0-1.3,0-1.9,0l0,0
	c1.2-1,1.8-1.9,1.8-3.7c0-3.5-2.7-5.7-6-5.7c-3.5,0-6.1,2.1-6.1,5.5c0,1.5,0.5,2.9,1.9,3.9l0,0L107.4,465.4z M109.6,462.4
	c0-2,1.6-3.2,3.6-3.2c1.9,0,3.6,1.2,3.6,3.1c0,2-1.7,3.2-3.6,3.2C111,465.5,109.6,464.2,109.6,462.4z M107.4,450.8v3.1h6.9
	c2.8,0,4.9-0.8,4.9-4.2c0-1.7-0.7-2.9-1.8-3.6h1.6v-3h-11.6v3.1h5.9c1.9,0,3.4,0.7,3.4,2.5s-1.4,2.1-3.1,2.1H107.4z M119,440v-3
	h-5.7c-0.9,0-1.7-0.1-2.3-0.4c-0.7-0.4-1.1-1.1-1.1-2c0-0.4,0-0.9,0.1-1.3v-0.1l-2.7-0.2c0,0-0.2,0.4-0.2,1.2c0,1.2,0.8,2.4,2.1,2.9
	v0.1h-1.9v3H119V440z M115.4,422.3c0,0,1.2,1.1,1.2,3.1s-1.4,3.5-3.5,3.5s-3.4-1.5-3.4-3.3s0.9-2.8,1.2-3.2l-2.3-0.8
	c-0.3,0.3-1.5,1.5-1.5,4.4c0,3.1,2.3,6.1,6.1,6.1c3.8,0,6-2.9,6-6.1c0-3.1-1.3-4.3-1.6-4.5L115.4,422.3z M107.2,412.8
	c0,1.7,0.7,2.9,2,3.5l0,0h-6.7v3H119v-3h-5.8c-1.9,0-3.5-0.6-3.5-2.5c0-1.8,1.4-2.1,3.1-2.1h6.2v-3.1h-6.9
	C109.3,408.6,107.2,409.5,107.2,412.8z M119,398.8v-3h-6.6c-3.6,0-5.2,1.8-5.2,5.4c0,2,0.7,3.6,1.2,4.5l2-0.9c-0.4-0.5-1-1.8-1-3.3
	c0-1.6,0.7-2.6,2.2-2.6h0.3l0.2,2.8c0.2,2.4,1.1,4.8,3.5,4.8s3.6-1.8,3.6-4.1c0-1.7-0.8-3.1-1.6-3.6L119,398.8z M113.8,398.9h2.1
	c0.6,0.4,1.3,1.3,1.3,2.5c0,1.3-0.7,2-1.7,2s-1.5-0.8-1.6-2.4L113.8,398.9z M110.5,386.3l-2-1.3c-0.7,1-1.2,2.1-1.2,4.2
	c0,2.2,1.4,4.2,3.5,4.2c1.7,0,2.7-0.9,3.3-2.6l0.5-1.3c0.5-1.5,0.8-1.9,1.4-1.9c0.7,0,1.1,0.5,1.1,1.7c0,1-0.5,2.2-1.6,3.5l2.1,1.2
	c1.1-0.9,1.8-2.9,1.8-4.7c0-2.9-1.6-4.6-3.8-4.6c-1.7,0-2.6,0.9-3.4,3.5l-0.3,0.8c-0.4,1.3-0.8,1.7-1.3,1.7c-0.6,0-0.9-0.5-0.9-1.5
	C109.5,388,110,387,110.5,386.3z M105.5,380.7c0-1.1-0.7-1.8-1.7-1.8s-1.7,0.8-1.7,1.8c0,1.1,0.7,1.8,1.7,1.8
	C104.8,382.6,105.5,381.8,105.5,380.7z M119,382.3v-3.1h-11.6v3.1H119z M119,368.3v-3.1h-6.9c-2.8,0-4.9,0.8-4.9,4.2
	c0,1.7,0.7,2.9,2,3.5v0.1h-1.8v3.1H119V373h-5.8c-1.9,0-3.5-0.6-3.5-2.5c0-1.8,1.4-2.1,3.1-2.1h6.2V368.3z M116.8,353.5h0.6
	c2.6,0,3.8,1.1,3.8,3.7c0,1.5-0.8,3.4-1.4,4.1l2.1,1.3c0.4-0.6,1.7-2.6,1.7-5.4s-1-4.3-2-5.3s-2.5-1.5-5-1.5h-9.2v3h1.6l0,0
	c-1.2,0.8-1.8,2.1-1.8,3.7c0,3.5,2.7,5.7,5.9,5.7c3.7,0,5.6-2.5,5.6-5.4C118.6,355.8,118,354.4,116.8,353.5L116.8,353.5z M113,353.4
	c1.8,0,3.2,1.1,3.2,3.3c0,2-1.5,3.2-3.2,3.2c-1.9,0-3.4-1.2-3.4-3.2C109.6,354.6,111.3,353.4,113,353.4z"/>
<g class="st6">
	<path class="st7" d="M1149.2,194h6.2c6,0,10.4-3.4,10.4-9.7c0-6.2-4.5-9.6-10.4-9.6h-6.2V194z M1155.6,190.9h-2.7v-13.2h2.7
		c4.1,0,6.5,2.5,6.5,6.6C1162.1,188.4,1159.6,190.9,1155.6,190.9z M1170.8,178.3c1.3,0,2.2-0.8,2.2-2c0-1.1-0.9-2-2.2-2
		s-2.2,0.8-2.2,2C1168.7,177.5,1169.6,178.3,1170.8,178.3z M1169,194h3.6v-13.6h-3.6V194z M1186.4,191.4v0.7c0,3-1.3,4.4-4.4,4.4
		c-1.7,0-3.9-1-4.8-1.6l-1.5,2.5c0.7,0.5,3.1,2,6.3,2c3.2,0,5-1.1,6.2-2.4c1.2-1.2,1.8-2.9,1.8-5.9v-10.8h-3.6v1.9l0,0
		c-1-1.5-2.5-2.1-4.3-2.1c-4,0-6.7,3.1-6.7,6.9c0,4.3,2.9,6.5,6.3,6.5C1183.8,193.6,1185.5,192.8,1186.4,191.4L1186.4,191.4z
		 M1186.6,187c0,2.1-1.3,3.8-3.9,3.8c-2.3,0-3.7-1.7-3.7-3.8c0-2.2,1.4-3.9,3.8-3.9C1185.2,183,1186.6,185,1186.6,187z
		 M1195.5,178.3c1.3,0,2.2-0.8,2.2-2c0-1.1-0.9-2-2.2-2s-2.2,0.8-2.2,2C1193.4,177.5,1194.3,178.3,1195.5,178.3z M1193.7,194h3.6
		v-13.6h-3.6V194z M1205.2,183.2h3.1v-2.8h-3.1v-3.9h-3.6v3.9h-2v2.8h2v6.3c0,3.5,1.2,4.8,3.9,4.8c1.5,0,2.6-0.4,2.7-0.4l-0.2-2.8
		c0,0-0.6,0.2-1.3,0.2c-1.3,0-1.6-0.5-1.6-2.6L1205.2,183.2L1205.2,183.2z M1218.5,194h3.4v-7.8c0-4.2-2.1-6-6.3-6
		c-2.4,0-4.3,0.8-5.3,1.4l1.1,2.3c0.6-0.4,2.1-1.1,3.9-1.1c1.9,0,3,0.8,3,2.5v0.4l-3.2,0.2c-2.8,0.2-5.6,1.3-5.6,4.1
		s2.1,4.3,4.8,4.3c2,0,3.6-0.9,4.1-1.9L1218.5,194z M1218.4,187.9v2.5c-0.5,0.7-1.5,1.5-2.9,1.5c-1.5,0-2.3-0.8-2.3-1.9
		s0.9-1.8,2.8-1.9L1218.4,187.9z M1225.4,194h3.6v-19.3h-3.6V194z M1232.8,194h3.5v-19.3h-3.5V194z M1243.9,194.1l-0.6,1.4
		c-0.3,0.7-0.9,0.9-1.6,0.9s-1.6-0.3-1.6-0.3l-0.7,2.7c0,0,1.3,0.6,3.2,0.6c1.9,0,3-1.1,4-3.5l6.3-15.4h-3.7l-3.5,9.6l-3.6-9.6h-3.8
		L1243.9,194.1z M1174,216l1.5-2.4c-1.1-0.8-2.5-1.5-4.9-1.5c-2.6,0-4.8,1.6-4.8,4.1c0,2,1,3.2,3.1,3.9l1.6,0.5
		c1.7,0.6,2.3,1,2.3,1.7c0,0.8-0.6,1.3-2,1.3c-1.1,0-2.5-0.6-4.1-1.8l-1.5,2.4c1.1,1.3,3.4,2.1,5.5,2.1c3.3,0,5.4-1.9,5.4-4.5
		c0-2-1.1-3-4.1-4l-1-0.3c-1.5-0.5-2-1-2-1.5c0-0.6,0.6-1.1,1.8-1.1C1172.1,214.9,1173.2,215.4,1174,216z M1186.6,226h3.4v-7.8
		c0-4.2-2.1-6-6.3-6c-2.4,0-4.3,0.8-5.3,1.4l1.1,2.3c0.6-0.4,2.1-1.1,3.9-1.1c1.9,0,3,0.8,3,2.5v0.4l-3.2,0.2
		c-2.8,0.2-5.6,1.3-5.6,4.1s2.1,4.3,4.8,4.3c2,0,3.6-0.9,4.1-1.9L1186.6,226z M1186.5,219.9v2.5c-0.5,0.7-1.5,1.5-2.9,1.5
		c-1.5,0-2.3-0.8-2.3-1.9s0.9-1.8,2.8-1.9L1186.5,219.9z M1196.9,226h3.5l5.6-13.6h-3.6l-3.7,9.8l-3.7-9.8h-3.7L1196.9,226z
		 M1211.8,226h3.5l5.6-13.6h-3.6l-3.7,9.8l-3.7-9.8h-3.7L1211.8,226z M1226.6,226.1l-0.6,1.4c-0.3,0.7-0.9,0.9-1.6,0.9
		s-1.6-0.3-1.6-0.3l-0.7,2.7c0,0,1.3,0.6,3.2,0.6c1.9,0,3-1.1,4-3.5l6.3-15.4h-3.7l-3.5,9.6l-3.6-9.6h-3.8L1226.6,226.1z"/>
	<path class="st7" d="M198.2,687h6.2c6,0,10.4-3.4,10.4-9.7c0-6.2-4.5-9.6-10.4-9.6h-6.2V687z M204.6,683.9h-2.7v-13.2h2.7
		c4.1,0,6.5,2.5,6.5,6.6C211.1,681.4,208.6,683.9,204.6,683.9z M219.8,671.3c1.3,0,2.2-0.8,2.2-2c0-1.1-0.9-2-2.2-2s-2.2,0.8-2.2,2
		C217.7,670.5,218.6,671.3,219.8,671.3z M218,687h3.6v-13.6H218V687z M235.4,684.4v0.7c0,3-1.3,4.4-4.4,4.4c-1.7,0-3.9-1-4.8-1.6
		l-1.5,2.5c0.7,0.5,3.1,2,6.3,2s5-1.1,6.2-2.4c1.1-1.2,1.8-2.9,1.8-5.9v-10.8h-3.6v1.9h-0.1c-1-1.5-2.5-2.1-4.3-2.1
		c-4,0-6.7,3.1-6.7,6.9c0,4.3,2.9,6.5,6.3,6.5C232.8,686.6,234.5,685.8,235.4,684.4L235.4,684.4z M235.6,680c0,2.1-1.3,3.8-3.9,3.8
		c-2.4,0-3.7-1.7-3.7-3.8c0-2.2,1.4-3.9,3.8-3.9C234.2,676,235.6,678,235.6,680z M244.5,671.3c1.3,0,2.2-0.8,2.2-2
		c0-1.1-0.9-2-2.2-2s-2.2,0.8-2.2,2C242.4,670.5,243.3,671.3,244.5,671.3z M242.7,687h3.6v-13.6h-3.6V687z M254.2,676.2h3.1v-2.8
		h-3.1v-3.9h-3.6v3.9h-2v2.8h2v6.3c0,3.5,1.1,4.8,3.9,4.8c1.5,0,2.6-0.4,2.7-0.4l-0.2-2.8c0,0-0.6,0.2-1.3,0.2
		c-1.3,0-1.6-0.5-1.6-2.6v-5.5H254.2z M267.5,687h3.4v-7.8c0-4.2-2.1-6-6.3-6c-2.4,0-4.3,0.8-5.3,1.4l1.1,2.3
		c0.6-0.4,2.1-1.1,3.9-1.1c1.9,0,3,0.8,3,2.5v0.4l-3.2,0.2c-2.8,0.2-5.6,1.3-5.6,4.1s2.1,4.3,4.8,4.3c2,0,3.6-0.9,4.1-1.9L267.5,687
		z M267.4,680.9v2.5c-0.5,0.7-1.5,1.5-2.9,1.5c-1.5,0-2.4-0.8-2.4-1.9s0.9-1.8,2.8-1.9L267.4,680.9z M274.4,687h3.6v-19.3h-3.6V687z
		 M281.8,687h3.6v-19.3h-3.6V687z M292.9,687.1l-0.6,1.4c-0.3,0.7-0.9,0.9-1.6,0.9s-1.6-0.3-1.6-0.3l-0.7,2.7c0,0,1.3,0.6,3.2,0.6
		c1.9,0,3-1.1,4-3.5l6.3-15.4h-3.7l-3.5,9.6l-3.6-9.6h-3.8L292.9,687.1z M225.6,719h3.6v-8c0-3.2-1-5.8-4.9-5.8
		c-2,0-3.3,0.9-4.1,2.3h-0.1v-2h-3.6V719h3.6v-6.7c0-2.3,0.8-4.1,3-4.1c2.1,0,2.4,1.6,2.4,3.6v7.2H225.6z M240.6,719h3.4v-7.8
		c0-4.2-2.1-6-6.3-6c-2.4,0-4.3,0.8-5.3,1.4l1.1,2.3c0.6-0.4,2.1-1.1,3.9-1.1c1.9,0,3,0.8,3,2.5v0.4l-3.2,0.2
		c-2.8,0.2-5.6,1.3-5.6,4.1s2.1,4.3,4.8,4.3c2,0,3.6-0.9,4.1-1.9L240.6,719z M240.5,712.9v2.5c-0.5,0.7-1.5,1.5-2.9,1.5
		c-1.5,0-2.4-0.8-2.4-1.9s0.9-1.8,2.8-1.9L240.5,712.9z M249.2,703.3c1.3,0,2.2-0.8,2.2-2c0-1.1-0.9-2-2.2-2s-2.2,0.8-2.2,2
		C247.1,702.5,248,703.3,249.2,703.3z M247.4,719h3.6v-13.6h-3.6V719z M258.6,719h3.5l5.6-13.6h-3.6l-3.7,9.8l-3.7-9.8H253
		L258.6,719z M282.3,711.6c0-3.6-2.5-6.4-6.7-6.4c-3.9,0-7,2.9-7,7.3c0,4.4,3,6.9,7.1,6.9c3.3,0,5.3-1.4,6.1-2.2l-1.4-1.9
		c-0.6,0.6-2.3,1.4-4.1,1.4c-2,0-3.7-1.1-4-3.2h10C282.3,713.4,282.3,712.3,282.3,711.6z M275.6,707.9c2.5,0,3.1,1.7,3.1,3.2h-6.5
		C272.4,709.3,273.5,707.9,275.6,707.9z"/>
</g>
<path class="st8" d="M162,142v-2h-2v2H162z M1277,142h2v-2h-2V142z M1277,754v2h2v-2H1277z M162,754h-2v2h2V754z M162,144h1115v-4
	H162V144z M1275,142v612h4V142H1275z M1277,752H162v4h1115V752z M164,754V142h-4v612H164z"/>
<path class="st9" d="M1269.7,751l-10.8-10.8l4.2-4.2l16,16l2.1,2.1l-2.1,2.1l-16,16l-4.2-4.2l11-11H159v-6L1269.7,751L1269.7,751z"
	/>
<path class="st10" d="M159,150.2l-10.9,10.9l-4.2-4.2l16-16l2.1-2.1l2.1,2.1l16,16l-4.2,4.2L165,150.3V751h-6V150.2z"/>
<path class="st7" d="M1020.5,339.8L1020.5,339.8c0-17.1-13.9-30.9-30.9-30.9c-17.1,0-30.9,13.9-30.9,30.9
	c0,17.1,13.9,30.9,30.9,30.9C1006.6,370.7,1020.5,356.8,1020.5,339.8z M989.6,368.4c-15.8,0-28.6-12.8-28.6-28.6
	c0-15.8,12.8-28.6,28.6-28.6s28.6,12.8,28.6,28.6C1018.2,355.5,1005.3,368.4,989.6,368.4z"/>
<path class="st7" d="M949.9,329.7c0.8,0.4,1.5,0.5,2.3,0.6c0.8,0,1.6-0.1,2.3-0.3c0.7-0.2,1.4-0.6,2-1.2c0.6-0.5,1.1-1.2,1.4-2l0,0
	c0.3-0.5,0.4-1,0.5-1.4c0.1-0.4,0.1-0.9,0.1-1.3s-0.1-0.8-0.1-1.2l-0.4-1.2l-2.3,0.8c0.2,0.5,0.3,1.1,0.3,1.6c0,0.5-0.1,1.1-0.4,1.7
	c-0.3,0.4-0.5,0.8-0.9,1.1c-0.3,0.3-0.8,0.5-1.2,0.6c-0.4,0.1-0.9,0.2-1.4,0.1c-0.5,0-1-0.1-1.4-0.3c-0.4-0.2-0.8-0.5-1.2-0.8
	c-0.3-0.3-0.5-0.7-0.8-1.1c-0.2-0.4-0.3-0.8-0.3-1.3s0.1-1,0.3-1.4c0.3-0.5,0.6-1,1-1.3c0.4-0.3,1-0.6,1.5-0.8l-1-2.3
	c-0.3,0.1-0.7,0.3-1,0.5c-0.3,0.2-0.7,0.4-1,0.7c-0.3,0.3-0.6,0.6-0.9,1c-0.3,0.4-0.5,0.8-0.8,1.3c-0.4,0.8-0.6,1.6-0.6,2.5
	c-0.1,0.8,0.1,1.6,0.3,2.3c0.3,0.7,0.7,1.4,1.2,1.9S949.2,329.4,949.9,329.7z"/>
<polygon class="st7" points="963.1,317.8 959.9,314.8 963.8,311.1 967,314 968.3,312.3 959.9,304.1 958.3,305.6 962.2,309.6 
	958.4,313.5 954.5,309.6 952.8,311.4 961.3,319.7 "/>
<polygon class="st7" points="974.5,308.7 968.9,298.2 966.9,299.3 972.5,309.8 "/>
<path class="st7" d="M980.5,306.6l-0.7-3.6l2.4-0.5c0.7-0.1,1.3-0.3,1.8-0.6c0.5-0.3,1.1-0.6,1.4-1s0.6-0.9,0.8-1.4
	c0.1-0.5,0.1-1.1,0-1.8c-0.1-0.5-0.3-1.1-0.7-1.5c-0.3-0.5-0.7-0.8-1.2-1.1c-0.4-0.3-1-0.5-1.6-0.5s-1.2-0.1-2,0.1l-4.9,1l2.4,11.5
	L980.5,306.6z M981,296.9c0.6-0.1,1.2-0.1,1.7,0.1c0.4,0.2,0.7,0.6,0.8,1.2c0.1,0.5,0,0.9-0.3,1.3s-0.8,0.7-1.5,0.8l0,0l-2.1,0.4
	l-0.7-3.4L981,296.9z"/>
<path class="st7" d="M991.8,303.3c0.5,0.7,1,1.2,1.7,1.8s1.5,0.9,2.4,1.2c1,0.3,1.8,0.3,2.7,0.2c0.8-0.1,1.6-0.3,2.3-0.8
	c0.7-0.4,1.2-1,1.7-1.6c0.5-0.6,0.8-1.4,1-2.3c0.2-0.8,0.2-1.6,0.1-2.5c-0.1-0.8-0.5-1.6-0.9-2.3c-0.5-0.7-1-1.2-1.7-1.8
	c-0.7-0.5-1.5-0.9-2.4-1.2l0,0c-1-0.3-1.8-0.3-2.7-0.2c-0.8,0.1-1.6,0.3-2.3,0.8s-1.2,1-1.7,1.6c-0.5,0.7-0.8,1.4-1,2.3
	c-0.2,0.8-0.2,1.6-0.1,2.5S991.3,302.6,991.8,303.3z M993.7,299.3c0.1-0.5,0.3-1,0.5-1.4c0.3-0.4,0.5-0.7,1-1
	c0.4-0.3,0.8-0.4,1.3-0.5c0.5-0.1,1-0.1,1.5,0.1l0,0c0.5,0.1,1,0.4,1.4,0.7c0.4,0.3,0.7,0.7,1,1.1c0.3,0.4,0.4,0.9,0.5,1.4
	c0.1,0.5,0.1,1-0.1,1.5c-0.1,0.5-0.3,1-0.5,1.4c-0.3,0.4-0.5,0.7-1,1c-0.4,0.2-0.8,0.4-1.3,0.5c-0.5,0.1-1,0.1-1.5-0.1
	c-0.5-0.1-1-0.3-1.4-0.7c-0.4-0.3-0.7-0.7-1-1.1c-0.3-0.4-0.4-0.9-0.5-1.4C993.5,300.3,993.5,299.7,993.7,299.3z"/>
<polygon class="st7" points="1008.8,310.8 1013.9,302.5 1016.8,304.4 1018,302.6 1009.4,297.5 1008.2,299.2 1011.8,301.3 
	1011.8,301.3 1006.7,309.6 "/>
<polygon class="st7" points="1022.8,307 1022.8,307 1022.8,307 "/>
<polygon class="st7" points="1019.3,321.1 1021.1,319.8 1016.9,315.1 1024.4,308.8 1022.8,307 1013.9,314.8 "/>
<polygon class="st7" points="1031.8,319.3 1020.6,323.4 1023.8,331.8 1025.9,331.1 1023.4,325 1025.5,324.2 1027.3,328.9 
	1029.4,328.2 1027.5,323.5 1030.7,322.3 1033.1,328.1 1035,327.5 "/>
<path class="st7" d="M948.3,341.4c0.4,0.2,0.8,0.2,1.2,0c0.4-0.2,0.6-0.6,0.6-1s-0.2-0.8-0.6-1c-0.4-0.2-0.8-0.2-1.2,0
	c-0.4,0.2-0.6,0.6-0.6,1S947.9,341.2,948.3,341.4z"/>
<path class="st7" d="M1031.2,341.4c0.4-0.2,0.6-0.6,0.6-1s-0.2-0.8-0.6-1c-0.4-0.2-0.8-0.2-1.2,0c-0.4,0.2-0.6,0.6-0.6,1
	s0.2,0.8,0.6,1C1030.4,341.6,1030.8,341.6,1031.2,341.4z"/>
<polygon class="st7" points="955.8,354.5 952.6,353.9 954.5,351.3 954,349.9 948,352.1 948.5,353.4 952.4,351.9 950.5,354.6 
	950.5,354.6 953.7,355.4 949.7,356.9 950.2,358.3 956.3,355.9 "/>
<polygon class="st7" points="957.3,364.9 958.4,364.2 956.6,361.6 957.7,360.9 959.7,363.8 960.8,363 958,358.9 958,358.9 
	952.4,362.6 955.2,366.8 956.3,366 954.3,363.1 955.5,362.4 "/>
<polygon class="st7" points="965.9,368.3 963.4,368.9 963.8,366.4 962.6,365.2 962.1,369.1 962.1,369.1 958.2,370.1 959.4,371.2 
	962,370.5 961.6,373.1 962.8,374.3 963.4,370.3 967.1,369.4 "/>
<polygon class="st7" points="966.4,377 967.6,377.7 971.1,372.1 969.8,371.4 "/>
<path class="st7" d="M978.6,375.5l-0.6-0.4c-0.2-0.1-0.5-0.3-0.8-0.3c-0.5-0.1-1-0.2-1.4-0.2c-0.4,0.1-0.8,0.1-1.2,0.3
	c-0.4,0.2-0.8,0.5-1,0.8c-0.3,0.3-0.5,0.8-0.7,1.2c-0.1,0.5-0.2,0.9-0.2,1.4c0.1,0.4,0.1,0.8,0.3,1.2c0.1,0.4,0.4,0.8,0.8,1
	c0.3,0.3,0.7,0.5,1.2,0.7c0.3,0.1,0.6,0.2,0.8,0.1h0.8c0.2,0,0.5-0.1,0.7-0.1c0.3-0.1,0.5-0.1,0.7-0.3l-0.5-1.2
	c-0.3,0.1-0.6,0.2-0.9,0.3c-0.3,0-0.6,0-1-0.1c-0.3-0.1-0.5-0.2-0.7-0.4c-0.2-0.2-0.3-0.4-0.4-0.6c-0.1-0.2-0.1-0.5-0.1-0.8
	s0.1-0.5,0.1-0.8c0.1-0.3,0.2-0.5,0.4-0.7c0.2-0.2,0.4-0.3,0.6-0.5c0.3-0.1,0.5-0.2,0.8-0.2c0.2-0.1,0.5,0,0.8,0.1
	c0.3,0.1,0.5,0.3,0.8,0.5c0.2,0.2,0.4,0.5,0.5,0.8l1.2-0.7c-0.1-0.2-0.2-0.3-0.3-0.5C978.9,375.9,978.7,375.7,978.6,375.5z"/>
<path class="st7" d="M984.9,376.7L984.9,376.7l-3.6,6.1l1.4,0.2l0.8-1.4l2.7,0.3l0.4,1.5l1.5,0.2l-2-6.9L984.9,376.7z M986,380.7
	l-1.7-0.2l1.1-2L986,380.7L986,380.7z"/>
<polygon class="st7" points="996.3,376.7 996.7,380.7 993.3,377 992,377.1 992,377.1 992.6,383.7 994.1,383.6 993.7,379.4 
	997.2,383.2 998.4,383.1 997.8,376.6 "/>
<path class="st7" d="M1007.1,376.3l0.4,1l1.3-0.6l0.4,0.9c-0.3,0.3-0.6,0.7-1.1,0.9c-0.3,0.1-0.5,0.2-0.8,0.2
	c-0.3,0-0.5-0.1-0.8-0.1c-0.2-0.1-0.4-0.2-0.6-0.4c-0.2-0.2-0.3-0.4-0.5-0.7c-0.1-0.2-0.2-0.5-0.2-0.8s0.1-0.5,0.1-0.8
	c0.1-0.2,0.2-0.4,0.3-0.6c0.2-0.2,0.3-0.3,0.6-0.5c0.1-0.1,0.3-0.1,0.5-0.1c0.2-0.1,0.3-0.1,0.5-0.1h0.4c0.1,0.1,0.3,0.1,0.5,0.1
	l0.4-1.4c-0.2-0.1-0.4-0.1-0.6-0.1h-0.6c-0.2,0.1-0.5,0.1-0.7,0.1s-0.5,0.1-0.8,0.3c-0.5,0.2-0.8,0.5-1.2,0.8
	c-0.3,0.3-0.5,0.7-0.7,1.1s-0.2,0.8-0.2,1.3c0,0.4,0.1,0.9,0.3,1.3c0.1,0.5,0.4,0.8,0.8,1.2c0.3,0.3,0.7,0.5,1.1,0.7
	c0.4,0.1,0.8,0.2,1.3,0.2c0.4,0,0.9-0.1,1.4-0.3l0,0c0.6-0.3,1-0.5,1.4-1c0.3-0.3,0.6-0.8,0.8-1.2l-1.2-2.6L1007.1,376.3z"/>
<path class="st7" d="M1017.4,370.3c0-0.5-0.1-0.9-0.5-1.3c-0.4-0.5-0.8-0.8-1.4-0.8c-0.6-0.1-1.2,0.2-1.9,0.7l-2.4,1.8v0l4,5.2
	l1.2-1l-1.3-1.6l0.9-0.7l2.4,0.8l1.4-1l-2.7-0.9C1017.2,371.2,1017.4,370.8,1017.4,370.3z M1015.5,371.5l-1.2,0.9l-1.2-1.5l1.1-0.8
	c0.3-0.2,0.5-0.3,0.8-0.3c0.3,0,0.5,0.1,0.7,0.3c0.2,0.2,0.2,0.5,0.2,0.7C1016,371,1015.8,371.3,1015.5,371.5z"/>
<polygon class="st7" points="1018,364.9 1018,364.9 1023,369.2 1023.9,368.2 1018.9,363.9 "/>
<polygon class="st7" points="1026.4,362.3 1021.9,359.6 1021.2,360.9 1021.2,360.9 1026.8,364.3 1029.2,360.2 1028.1,359.5 "/>
<polygon class="st7" points="1030.2,354.2 1025.2,352.6 1024.7,354 1030.9,356 1032.4,351.5 1031.2,351.1 "/>
<path class="st7" d="M992.2,334.4c-0.3-0.3-0.3-0.6-0.6-0.9c-0.3-0.3-0.8-0.6-1.1-0.5c-0.4,0.2-0.5,0.6-1,0.6h-1.2
	c-0.6,0-1.3-0.2-2-0.3c-0.4-0.1-1.4-0.3-1.8-0.5c-0.3-0.2-0.9,0-1.4,0.1c-2.3,0.5-4.6-0.3-4.7,2.3c-0.2,1.2-0.5,2.1-0.6,3.3
	c-0.1,1.5,0,3.1,0,4.7c0,0.6,0.1,1.2,0.3,1.7c0.3,0.8,0.8,1.4,1.1,2.1c1.2,1.8,2.3,3.1,3.3,4.2c0.6,0.4,0.3-0.2,1,0.5
	c0-0.3-0.3-1-0.6-1.3c-0.2-0.2-0.4-0.6-0.6-1c-0.3-0.5-0.7-1-0.9-1.5c-0.3-1-0.8-2.1-1.2-3.2c-0.1-0.6-0.3-1.3-0.4-1.9
	c-0.1-0.4-0.1-0.8-0.1-1.3c0-0.4,0.1-0.9,0.1-1.4v-1.8c0-0.5,0.3-1,0.3-1.6c0-0.4,0.7-1,0.8-1.2c1.6-0.3,2.9-0.8,4.6-1
	c2.3,0.1,2.4,0.3,3.5,0.4c1,0.2,1.5,0.8,2.3,1.4c0.4,0.2-0.2,0.8-0.3,1.2c-0.1,0.3-0.3,0.6-0.4,0.9c-0.4,1-1.1,1.8-1.4,2.8
	c-0.4,0.9-0.6,1.1-1,2.2c-0.1,0.3-0.3,0.8-0.5,1.1c-0.1,0.3-0.1,1.6,0,2c0.1,0.5,0.1,1,0.3,1.4c0.1,0.1,0.1,0.3,0.1,0.4
	c0.1,0.3,0.2,0.7,0.3,1c0.3,1.2,0.8,2.3,1.2,3.2c0.3,0.7,0.7,1-0.1,0.8c-0.3-0.1-0.3-0.2-0.5-0.4c-0.2-0.2-0.5-0.3-0.8-0.5
	c-0.3-0.2-0.4-0.5-0.6-0.7c-0.4-0.4-0.5-0.8-1-1.3c-0.3-1.3-1.3-2.7-2-4c-0.3-0.5-0.6-1-0.9-1.5c-0.2-0.4-0.4-0.6-0.5-1
	c-0.1-0.5-0.1-1.4-0.1-2c-0.1-1-0.2-1.8,0.1-2.7c0.1-1.4,1.1-1.1,2-1c0.6,0,0.9,0,1.3,0.3c0.9,0.7,0.5,0.6,0.5,1.6
	c0,0.5-0.1,1-0.3,1.4c-0.3,0.5-0.5,1-0.8,1.6c-0.1,0.1-0.1-0.8-0.1-1c0-0.5-0.4-0.8-0.8-0.8c-0.6,0.1-0.6,0.4-0.9,1
	c-0.1,0.3,0.1,1,0.2,1.4c0.2,1,1,1.6,1.8,1.3c0.3-0.3,0.5-0.7,0.5-1c0-0.5,0.3-1,0.5-1.4c0.2-0.5,0.5-1.2,0.8-1.6
	c0.3-0.9,0.9-1.7,0.3-2.7c-0.3-0.8-0.7-1.4-1.6-1.7c-0.3-0.1-1.4-0.1-1.8,0c-1.1,0-1.9,0.3-2.9,0.6c-0.3,0.1-0.3,0.5-0.4,0.9
	c-0.1,0.5-0.1,1-0.3,1.5c-0.1,0.6,0.1,1.4-0.1,2c-0.1,0.4-0.1,1.4,0.1,1.9c0.3,0.5,0.3,1.2,0.8,1.7c0.7,0.9,0.8,1.8,1.5,2.7
	c0.5,0.5,0.5,1.1,0.9,1.7c0.1,0.1,0.1,0.2,0.1,0.3c0.3,0.7,1.1,1.6,1.5,2.3c0.3,0.5,0.8,1.1,1.2,1.4c0.4,0.3,0.8,0.8,1.1,1.2
	c2.1,1.4,3.6,1.6,4.4,1c0.3-0.3-0.4-0.9-0.5-1c-0.6-0.6-1.1-1.5-1.4-2.5c-0.2-0.8-0.5-1.4-0.9-2c-0.3-1-0.7-2.1-0.8-3.2
	c0-0.6-0.1-1,0.1-1.6c0.1-1.4,1.4-2.5,1.6-3.6c0.3-0.4,0.5-0.8,0.7-1.3c1-0.8,1.7-2.3,2.2-3.6c0.1-0.3-0.5-0.8-0.6-1.1
	C993,335.1,992.4,334.7,992.2,334.4z"/>
<path class="st7" d="M1000,318.7c-1-0.1-4.8,0.5-5.3,0.7c-2.8,2.1-5.7,4.4-8.1,6.7c-0.7,0-1.6-0.3-2.3-0.4c-0.8-0.3-1.8-0.6-2.5-0.7
	c-0.5,0.2-1,0.3-1.4,0.8c-0.2,0.2-1.2,0.6-0.9,0.7c0.8-0.1,1.8-0.3,2.6,0.1h0c0.6,0.2,0.9,0.5,1.3,0.9l-0.1-0.1
	c-0.1,0-0.2,0.1-0.3,0.1c-1.2,0.3-3.3,0.1-4.2,0.7c-1.6,0.9-2.6,2.5-3.7,3.6c-0.3,0.2-0.2,1-0.3,1.4c-0.3,0.7-0.2,1.4-0.5,2.1
	c-0.3,0.8-0.3,1.8-0.3,2.7c0,1.2,0.1,2.5,0.1,3.7c0,0.9,0.2,2.5,0.4,3.3c0,2.3,5.3,7.7,8.3,12.9c0.4,0.8,0.8,0.9,1.5,1
	c0.1,0,0.3,0.1,0.5,0.1c1.1,0.1,1.6,0.8,2.8,0.8c0.5,0,1.2,0.3,1.7,0.4c0.5,0.1,1.4,0.1,2,0.1c1,0,2-0.1,2.9-0.1c0.5,0,1,0.1,1.5,0
	s1.1,0,1.6,0s1.1-0.2,1.6-0.2c0.3,0,1-0.9,1.3-1c0.8-0.3,1.2-1.2,1.6-1.8c0.3-0.5,0.5-1,0.7-1.6c0.1-0.5,0-1.1-0.5-1.2
	c-0.5-0.1-0.6-0.4-1.1-0.5c-0.5-0.1-0.8-0.1-1.2-0.4c-0.6-0.5-1.4-1-2-1.5c-0.6-0.5-1.4-1-2.1-1.4c-0.5-0.3-0.5-0.5-1-0.4
	c-0.5,0.1-0.7-1.1-0.5-2c0.1-0.7-0.1-0.8-0.3-1.3c-0.5-1.2-1-0.5,0.1-1.6c0.8-0.5,1.4-2.1,1.8-2.9c0.8-1.2,1.8-2.5,1.8-3.6
	c0.4-0.6,0.8-2,0.6-2.8c-0.1-0.8-1-2.4-1.7-3.8c-0.8-0.5-1.2-1.7-1.7-2.5c0.4-0.1,0.7-0.2,0.9-0.3c0.5-0.3,0.5-0.9,0.6-1
	c0.1-0.1,0.1-0.1,0-0.2c-0.2-0.1-0.8,0-1.1-0.1c-1.9-0.2-1.7,0.1-2.3-1.1c-0.1-1.1,0.5-2.1,0.4-3.2c1.1-1.2,1.3-1.2,2-1.9
	c0.3-0.3,0.8-0.5,1.2-0.7c1.2-0.3,2.8-0.3,4-0.3c0.3,0.8,0.8,1.5,1.1,2.3c0.1,0.2,0.3,0.8,0.1,1c-0.6,0.8-1,1.1-1.7,1.6
	c0.1,0.1,0.3,0.1,0.7,0.1h1c0.1,0,1.6-0.1,1.6-0.1c0.3-1,0.6-2,0.6-3.1c0.3-0.8-1.4-2.3-2.1-3.3C1001.5,318.7,1000.7,319,1000,318.7
	z M995.9,337.2c-0.2,2-1.6,3.8-2,4.7c-0.1,0.1-0.8,1.1-0.8,1.2c-0.3,0.5-0.3,0.5-0.5,1c-0.2,0.4-0.5,0.8-0.7,1.2
	c-0.2,0.4,0,1.6,0.1,2c0.1,0.6,0.6,0.5,0.8,1.2c0.1,0.5,0,1.2,0,1.8c0,0.5,0.1,1.3,0.1,1.8s0.7,0.1,1.1,0.2c0.6,0.1,0.8,1,1.6,1.2
	c0.7,0.3,2,1.5,2.6,1.9c0.1,0,0.1,0.1,0.2,0.1c-0.1,0-0.2,0.1-0.3,0.4c-2,1.4-4.6,1.6-7,1.4c-4.8-0.4-5.2,0.1-7-2.1
	c-2.6-3.3-5-6.5-7.4-10.2c-0.1-2.4,0-5.3,0.1-7.6c0-1.4,0.3-1.6,0.3-3c0.3-1.9,2-3.1,3.5-3.6c1.9-0.6,3.8-0.7,5.7-0.7c0,0,0,0,0,0.1
	c0.1,0.1,0.6,0.5,0.7,0.8s0.1,0.6,0.3,0.8c0.3,0.1,0.4,0.2,0.8,0.2c0.8,0,1.6,0.1,2.1-0.2c0.6-0.4,1-1.1,2-1.3
	c1,1.1,1.8,2.3,2.6,3.4C995.2,334.9,995.9,335.7,995.9,337.2z"/>
<g>
	<path class="st7" d="M1034.6,214.4c-0.3-3.4-1.7-6.5-4.6-8.7c-0.3-0.1-0.7-0.4-1-0.5c-0.2,0-0.4,0.1-0.6,0.3
		c1.3,8-3.9,13.6-7.6,19.7c1.2,1,3.2,0.9,4.7,0.6c3.9-1.6,7.7-4.3,12.3-3.4c1.4-2.4,3.7-4.6,5.6-6.5c1.2-1,2.8-1.6,3.6-2.8
		C1043.2,210.6,1038.3,213,1034.6,214.4z"/>
	<path class="st7" d="M1059.7,219.2c1.2-1.6,3.2-0.3,4.5-0.2v-0.5c-0.7-1.1-2.1-1.6-3.6-1.6c-0.3,0-0.7,0.1-1,0.1
		c-0.5,0.1-0.8,0.6-0.7,1.1C1058.9,218.7,1059,219.6,1059.7,219.2z"/>
	<path class="st7" d="M1071.6,209.6c-1.1-0.1-2.2-0.2-3.3-0.2c-0.2,0-0.4,0-0.6,0c-3.1,0.1-6,0.8-7.8,3.4c-0.3,0.7-1.4,1.7-0.3,2.3
		c2.4-0.2,5-0.4,6.6,1.6c0,1.8,1.2,4.2-0.8,5c-1.6-1.5-3.5,0.6-5.3-0.6c-0.8-0.5-1.3,0.1-1.7,0.8c-0.5,4.6,1.9,9.7,6.3,12.3
		c1.8,0.6,4.1,1.2,6,0.3c4.4-2.1,6.2-6.8,7.1-11.1c-0.1-0.8-0.1-2.4-1.2-2.5c-1.3,0.8-3.2,0.3-4.6,0c-0.8,0.3-0.9,1.5-1.8,1.7
		l-0.6-0.5c-0.5-2.1-0.8-5,1.1-6.4c2.1-0.9,4.6-1.2,6.8-0.6c0.4-0.7-0.2-1.3-0.3-1.9C1076.2,211.1,1073.8,210.1,1071.6,209.6z
		 M1072.2,228.3c-0.9,1.3-2.2,3-4,2.9c-2,0.1-2.5-1.5-3.9-2.5l-0.1-0.7C1066.8,228.5,1069.8,228,1072.2,228.3z M1070.2,225.1
		c0.1,0.1,0.1,0.2,0,0.3c0,0.1-0.1,0.1-0.1,0.1c0,0,0,0,0,0c-0.5,0.2-0.9,0.3-1.1,0.4c-0.5,0.2-0.6,0.3-1.2,0.3
		c-0.5-0.1-0.8-0.2-1.1-0.4c-0.2-0.1-0.3-0.1-0.5-0.2c-0.1-0.1-0.3-0.1-0.5-0.1c-0.2-0.1-0.2-0.3,0-0.5c0.4-0.5,0.9-0.5,1.3-0.4
		c0.3,0.1,0.7,0.2,1,0.2C1068.6,224.8,1069.2,224.2,1070.2,225.1z"/>
	<path class="st7" d="M1089.6,213.6c3.8,2,6.9,5.4,9.2,9c1.6-0.3,3.6,0,5.3,0.2c3.8,1,7.6,5.2,11.7,2.5c-3.5-5.8-8.7-11.2-7.3-18.8
		c0.2-0.5-0.2-1-0.7-1.1c-2.3,0.9-4,3.2-4.9,5.4c-0.4,1.3-0.6,2.7-1.1,3.9c-2.7-1.4-5.6-2.8-9-2.5
		C1091.5,212.3,1089.8,212.4,1089.6,213.6z"/>
	<path class="st7" d="M1118.3,231.5c0-27.7-22.4-50.2-50-50.2s-50,22.5-50,50.2c0,27.7,22.4,50.2,50,50.2
		C1096,281.7,1118.3,259.3,1118.3,231.5z M1101.5,267.8l-3.1-1.1c-0.5,0.7-1.6,1.5-1.2,2.4c0.7,0.3,1.5,0.7,2,1.2
		c-1.4,1.5-3.1,2.5-4.8,3.5c-1.5-4.7-6.2-8.1-5.8-13.6l-0.2-0.2c-1.1,1.3-0.7,3.3-0.7,4.9c1.3,3.4,4.6,6.1,5,9.9
		c-0.6,1-1.8,1.2-2.8,1.6c0.1-6.8-10.2-12-3.6-18.8c2.2-3.4,5.9-6.6,4.6-11.2c-1.3-4.5-6.1-7.3-6.1-12.3l0-0.4
		c1.1-5.2,4.4-10.8,1.7-16.4c-0.8-2.2-2.4-4.8-4.7-5.7c3.4,3.9,4.7,10.2,2.8,15.5c-1,2.1-2.3,4.6-2.5,7h0c-0.1,1.3,0.2,2.5,1,3.8
		c2.6,4.2,7.1,8.8,4.5,14.2c-2.9,4.4-8,8.8-5.2,14.6c2.1,3.4,5.2,6.9,4.4,11.1l-3.4,1.1c2.2-7.9-8.7-12.5-4.1-20.4
		c2.8-4.2,7.9-8.2,5-13.8c-1.7-3.5-5.3-5.5-5.2-9.9l0.1-0.7c1.2-6.2,5.8-12,2.6-18.6c-0.9-1.9-2.6-3.9-4.5-5l-0.1,0.1
		c3.8,3.7,5,9.8,2.9,14.7c-1,2.9-3.1,5.7-3.5,8.8c-0.2,1.5,0,3,0.8,4.5c2.4,3.8,6.7,7.9,4,12.9c-2.8,4.1-7.5,8.1-5.6,13.4
		c2.1,4.7,6.3,9.1,4,14.9l-3.5,0.8c2.8-5.6-1.4-11.3-3.8-16.1c-3-7,6.3-10.4,6.5-16.8c0-4.1-4.4-6.5-5.4-10.3
		c-1.9-1.6-3.9,0.6-6.2,0.2c-1.7,0.3-4.3-2.3-5.3,0.6c-1.2,4.2-6.7,7.3-4.3,12.3c2.3,4.4,7.8,7.7,5.9,13.5
		c-1.6,5.4-7.1,10.5-3.7,16.7c-1.4-0.4-4,0.4-3.9-1.8c-2.1-7.5,7-11.9,4.1-19.4c-1.3-4.6-7.3-7.1-5.9-12.7c1-4.6,6.1-7.7,5.4-12.7
		c-0.1-0.4-0.2-0.8-0.3-1.3c-1.9-5.4-5.8-10.8-3.5-17c0.6-1.8,1.9-3.3,3-4.9c-3.7,2-5.6,6.2-5.5,10.4c-0.2,4.6,3.3,8.6,3.7,12.8
		c0.2,1.7-0.1,3.5-1.3,5.3c-2.4,3.3-5.6,6.8-4.1,11.1c1.4,4.4,6.8,7,6.5,12.1c0,6-7,9.8-5,16.5l-3.5-1.1c-1.4-6,5-9,5-14.6
		c0.9-6.4-7.2-8.7-6.7-14.9c0-4.7,4.1-7.7,5.9-11.7c0.3-1,0.4-1.9,0.4-2.7c-0.2-4.4-4.2-7.8-3.5-12.7c0.2-3.6,1.5-6.8,3.8-9.5
		c-3.2,1.3-4.6,5-5.5,8.2c-1.6,5,2.2,9.6,2.5,14.1c0.2,2-0.3,4-2.2,6c-2.7,3.2-5.4,7.2-3.5,11.4c2.1,4.7,8.5,8.4,5.7,14.2
		c-1.5,3.7-5.2,6.5-5,10.9c-1-0.4-2-0.8-2.8-1.6c0-5.6,7.9-9,4.1-14.9c-0.3,1.2-0.4,2.7-0.7,4c-1.3,3.4-4.1,6.1-5.2,9.6
		c-1.8-0.7-3.6-2.1-5-3.6l2-1.2c-0.2-0.7-0.8-1.4-1.3-2c-1.3-0.2-2.2,0.7-3.3,1c-0.9-0.8-1.8-1.6-2.6-2.6c0.7-1.9,5.9-0.3,3.3-3.5
		c-1.8-1.1-3.6,0.5-5.2,1.2l-2.1-2.7c1.8-1.1,3.7-2.7,5.9-2.2c0.6,1,0.6,2.5,1.7,3c3.9-0.1,6.6-3,9.5-5.3c-2.1-3.1-3.7-7.3-1.9-11
		c1.5-3.7,5.3-6.8,5.5-10.9c0-0.9-0.1-1.9-0.5-3c-2-5.2-2.7-12.2,1.1-16.8c-2.1,0.6-3.3,3.2-4,5.2c-2.3,5.1,0.6,9.8,0.7,14.6
		c0,0.9-0.1,1.8-0.3,2.6c-2,4-5.2,7.5-5.7,12.1c-2.3,1.5-4.2,4-7.4,3.1c-0.1,0.9,0.1,2.2,0.4,3.1c-2.6-0.1-4.3,1.8-6.5,2.7
		c-1.2-0.4-1.5-1.9-1.9-2.9c2.5-0.9,4.4-3.4,7.3-3.4c0.3-0.9-0.2-1.8-0.3-2.7c-3.6-1.6-9.4,8-9.9-0.3c3.6-0.2,5.9-3.6,9.5-3.9
		l0.1-2.7c-4.1-0.4-6.7,3.8-10.8,3.4l-0.9-3.6c4.7,0.3,7.5-3.9,12-4.2c0.6-0.8,0.7-1.9,0.8-3c-4.9-0.6-8.3,4.8-13.5,3.1
		c0,0-0.2-2.3-0.3-3.5h0c0-0.5-0.1-0.8-0.1-0.8c4.6,1.8,8.7-1.5,12.7-3.2c1-0.3,2.6,0.2,3-0.9c0-0.9,1.5-1.9,0.2-2.5
		c-5.8-0.8-9.6,6.2-15.6,3l-0.4-0.9c1.2-16.9,10.8-33.2,26.6-41.3c6.4-3.7,14.4-5.5,22.4-5.6c9.7-0.1,19.5,2.5,26.7,7.6
		c7.1,4.3,13.8,11.5,17.5,18.7c3.5,6.4,5.1,13.5,5.6,21.1c-6.1,4.6-10.2-4.4-16.5-2.4c0.3,1,0.5,2,1.2,2.8c5.5,0,9.3,5.8,15.1,3.5
		l0,0.8c0,1.3,0.2,2.4-0.3,3.6c-5.1,1.5-8.5-4-13.5-3.1l0.6,2.8c4.6,0.2,7.5,4.6,12.2,4.4c-0.7,1.3,0.3,4.9-2.7,3.5
		c-3.1-0.7-5.3-3.5-8.7-3.5c-0.4,0.8-0.2,1.8-0.2,2.7c3.6,0.6,6.2,3.6,9.8,4.2c-0.3,1.2-0.7,2.6-1.7,3.4c-2.9-0.7-5.2-3.3-8.3-3.3
		l-0.6,2.6c3,0.1,4.9,2.7,7.5,3.5c0.1,1.1-0.9,2.1-1.5,3c-2.4-0.7-4.2-2.7-6.8-2.6c0-1,0.6-2.2,0.3-3.2c-3,0.9-5-1.9-7.3-3.6
		c-0.1-5.5-5.9-9.1-6.2-14.3c-0.1-1,0.1-2.1,0.6-3.3c1.9-4.4,1.3-10.1-0.8-14.2c-0.6-1.1-1.8-1.9-2.8-2.6c1.5,3.3,3.4,7.1,2.5,11.1
		c-0.1,3.1-1.9,6.1-2,9c0,1.1,0.2,2.1,0.8,3.2c2.4,4.4,6.8,8.5,5.2,14c-0.5,1.7-1.8,3-2.1,4.7c2.8,2.4,5.5,5,9.3,5.2
		c1.3-0.9,0.6-4.7,3.4-2.9l4,2c-0.3,1.1-1.2,2.1-2,2.8c-1.5-0.7-3-1.6-4.9-1.6c-0.6,0.6-1,1.3-1,2.1c1.3,0.2,2.6,0.8,3.7,1.6
		C1103.4,266.2,1102.4,266.9,1101.5,267.8z"/>
	<path class="st7" d="M1075,217.1c-0.1,0-0.3,0-0.4,0c-0.8,0.5-3.1,0.1-2.2,1.9c1.4-1.1,3.4-0.3,4.8,0.2c0.5-0.3,0.4-0.8,0.4-1.2
		C1077.1,217.1,1076,217.1,1075,217.1z"/>
	<path class="st7" d="M1083.6,203.4c-0.2-2.2,1.4-4.4,1.8-6.6c-4.1,0.3-7.4,2.7-10.8,4.7c-0.8-1.9-1.6-3.8-2.4-5.7l4.5-4.3l0.1-0.6
		l-6.1-0.3c-1-1.8-1.5-4-2.7-5.7c-1,1.9-1.7,3.9-2.7,5.8l-6.1,0.3v0.4l4.6,4.1c-0.6,2.1-1.1,4.4-2.5,6.1c-2.7-1.6-5.3-3.4-8.3-4.5
		c-0.7-0.2-1.7-0.6-2.4-0.1c0.9,2.1,2.2,4.3,2,6.5c-1.2-0.2-2.2-1-3.4-1.4c-1.4-0.4-3-1.1-4.4-0.7c2.2,3.1,4.1,6.4,4.7,10.2
		c7.4-3.6,16.1-5.6,25.1-4c4.2,0.7,8.1,2.4,11.9,3.8c0.1-4,2.7-7.1,4.4-10.3C1088.5,201.1,1086.2,202.7,1083.6,203.4z M1072.4,203.4
		c-2.8-0.3-5.8,0.1-8.4,0.1c-0.3-0.3-0.9-0.7-0.3-1.1l4.3-3.3c1.8,1,3.6,2.3,5,3.7L1072.4,203.4z"/>
</g>
<path class="st7" d="M1196,298l-26.4-26.4c-1.4-1.4-3.8-1.4-5.2,0l-60,60c-1.4,1.4-1.4,3.8,0,5.2l26.4,26.4c1.4,1.4,3.8,1.4,5.2,0
	l30-30l-31.6-31.6l2-2l31.6,31.6l28-28C1197.4,301.8,1197.4,299.4,1196,298z M1127.2,339.4c-2.9,2.9-7.5,2.9-10.4,0
	c-2.9-2.9-2.9-7.5,0-10.4c2.9-2.9,7.5-2.9,10.4,0C1130.1,331.8,1130.1,336.5,1127.2,339.4z M1139.8,329.1c2.9-2.9,7.5-2.9,10.4,0
	c2.9,2.9,2.9,7.5,0,10.4c-2.9,2.9-7.5,2.9-10.4,0C1136.9,336.7,1136.9,332,1139.8,329.1z M1172.4,305.7c-2.9,2.9-7.5,2.9-10.4,0
	c-2.9-2.9-2.9-7.5,0-10.4c2.9-2.9,7.5-2.9,10.4,0C1175.2,298.1,1175.2,302.8,1172.4,305.7z"/>
</svg>
