<?xml version="1.0" encoding="utf-8"?>
<!-- Generator: Adobe Illustrator 25.1.0, SVG Export Plug-In . SVG Version: 6.00 Build 0)  -->
<svg version="1.1" id="Layer_1" xmlns="http://www.w3.org/2000/svg" xmlns:xlink="http://www.w3.org/1999/xlink" x="0px" y="0px"
	 viewBox="0 0 1439 896" style="enable-background:new 0 0 1439 896;" xml:space="preserve">
<style type="text/css">
	.st0{fill:url(#SVGID_1_);}
	.st1{fill:#071520;}
	.st2{fill:none;stroke:#143F63;stroke-width:2;}
	.st3{fill-rule:evenodd;clip-rule:evenodd;fill:url(#SVGID_2_);}
	.st4{fill:#676E73;}
	.st5{fill:#143F63;}
	.st6{fill-rule:evenodd;clip-rule:evenodd;fill:#71A4CF;}
	.st7{fill-rule:evenodd;clip-rule:evenodd;fill:url(#SVGID_3_);}
</style>
<linearGradient id="SVGID_1_" gradientUnits="userSpaceOnUse" x1="719.5" y1="896" x2="719.5" y2="0" gradientTransform="matrix(1 0 0 -1 0 896)">
	<stop  offset="0" style="stop-color:#071520"/>
	<stop  offset="1" style="stop-color:#071520"/>
</linearGradient>
<rect class="st0" width="1439" height="896"/>
<path class="st1" d="M162,142h1115v612H162V142z"/>
<path class="st2" d="M219,142v612"/>
<path class="st2" d="M277.9,142v612"/>
<path class="st2" d="M336.9,142v612"/>
<path class="st2" d="M395.8,142v612"/>
<path class="st2" d="M454.8,142v612"/>
<path class="st2" d="M513.7,142v612"/>
<path class="st2" d="M572.6,142v612"/>
<path class="st2" d="M631.6,142v612"/>
<path class="st2" d="M690.5,142v612"/>
<path class="st2" d="M749.5,142v612"/>
<path class="st2" d="M808.4,142v612"/>
<path class="st2" d="M867.4,142v612"/>
<path class="st2" d="M926.3,142v612"/>
<path class="st2" d="M985.2,142v612"/>
<path class="st2" d="M1044.2,142v612"/>
<path class="st2" d="M1103.1,142v612"/>
<path class="st2" d="M1162.1,142v612"/>
<path class="st2" d="M1221,142v612"/>
<path class="st2" d="M1277,195H163"/>
<path class="st2" d="M1277,531H163"/>
<path class="st2" d="M1277,251H163"/>
<path class="st2" d="M1277,587H163"/>
<path class="st2" d="M1277,307H163"/>
<path class="st2" d="M1277,643H163"/>
<path class="st2" d="M1277,363H163"/>
<path class="st2" d="M1277,699H163"/>
<path class="st2" d="M1277,419H163"/>
<path class="st2" d="M1277,475H163"/>
<linearGradient id="SVGID_2_" gradientUnits="userSpaceOnUse" x1="161.9855" y1="757.242" x2="161.9855" y2="142" gradientTransform="matrix(1 0 0 -1 0 896)">
	<stop  offset="0" style="stop-color:#4186BF"/>
	<stop  offset="1" style="stop-color:#4186BF;stop-opacity:0"/>
</linearGradient>
<path class="st3" d="M159,150.2l-10.9,10.9l-4.2-4.2l16-16l2.1-2.1l2.1,2.1l16,16l-4.2,4.2L165,150.3V751h-6V150.2z"/>
<path class="st4" d="M119,545.3V540c0-5.1-3-8.9-8.3-8.9c-5.3,0-8.3,3.9-8.3,8.9v5.3H119z M116.4,539.9v2.3h-11.3v-2.3
	c0-3.5,2.2-5.6,5.7-5.6C114.2,534.3,116.4,536.5,116.4,539.9z M105.5,526.8c0-1.1-0.7-1.8-1.7-1.8c-1,0-1.7,0.8-1.7,1.8
	c0,1.1,0.7,1.8,1.7,1.8C104.8,528.6,105.5,527.9,105.5,526.8z M119,528.3v-3.1h-11.6v3.1H119z M116.8,513.4h0.6
	c2.6,0,3.8,1.1,3.8,3.7c0,1.5-0.8,3.4-1.4,4.1l2.1,1.3c0.4-0.6,1.7-2.6,1.7-5.4c0-2.8-1-4.3-2-5.3c-1-1-2.5-1.5-5-1.5h-9.2v3l1.6,0
	v0c-1.2,0.8-1.8,2.1-1.8,3.7c0,3.5,2.7,5.7,5.9,5.7c3.7,0,5.6-2.5,5.6-5.4C118.6,515.6,118,514.2,116.8,513.4L116.8,513.4z
	 M113,513.2c1.8,0,3.2,1.1,3.2,3.3c0,2-1.5,3.2-3.2,3.2c-1.9,0-3.4-1.2-3.4-3.2S111.3,513.2,113,513.2z M105.5,505.6
	c0-1.1-0.7-1.8-1.7-1.8c-1,0-1.7,0.8-1.7,1.8c0,1.1,0.7,1.8,1.7,1.8C104.8,507.4,105.5,506.6,105.5,505.6z M119,507.1V504h-11.6v3.1
	H119z M109.8,497.3v-2.7h-2.4v2.7h-3.3v3h3.3v1.7h2.4v-1.7h5.4c3,0,4.1-1,4.1-3.4c0-1.3-0.3-2.2-0.4-2.4l-2.4,0.2
	c0,0,0.2,0.5,0.2,1.1c0,1.1-0.4,1.4-2.2,1.4H109.8z M119,485.8v-3h-6.6c-3.6,0-5.2,1.8-5.2,5.4c0,2,0.7,3.6,1.2,4.5l2-0.9
	c-0.4-0.5-1-1.8-1-3.3c0-1.6,0.7-2.6,2.2-2.6h0.3l0.2,2.8c0.2,2.4,1.1,4.8,3.5,4.8c2.4,0,3.6-1.8,3.6-4.1c0-1.7-0.8-3.1-1.6-3.6
	L119,485.8z M113.8,485.9h2.1c0.6,0.4,1.3,1.3,1.3,2.5c0,1.3-0.7,2-1.7,2c-1,0-1.5-0.8-1.6-2.4L113.8,485.9z M119,479.8v-3h-16.6v3
	H119z M107.4,465.4v3.1h16v-3h-4c-0.8,0-1.3,0-1.9,0l0,0c1.2-1,1.8-1.9,1.8-3.7c0-3.5-2.7-5.7-6-5.7c-3.5,0-6.1,2.1-6.1,5.5
	c0,1.5,0.5,2.9,1.9,3.9l0,0L107.4,465.4z M109.6,462.4c0-2,1.6-3.2,3.6-3.2c1.9,0,3.6,1.2,3.6,3.1c0,2-1.7,3.2-3.6,3.2
	C111,465.5,109.6,464.2,109.6,462.4z M107.4,450.8v3.1h6.9c2.8,0,4.9-0.8,4.9-4.2c0-1.7-0.7-2.9-1.8-3.6l1.6,0v-3h-11.6v3.1h5.9
	c1.9,0,3.4,0.7,3.4,2.5c0,1.8-1.4,2.1-3.1,2.1H107.4z M119,440v-3h-5.7c-0.9,0-1.7-0.1-2.3-0.4c-0.7-0.4-1.1-1.1-1.1-2
	c0-0.4,0-0.9,0.1-1.3v-0.1l-2.7-0.2c0,0-0.2,0.4-0.2,1.2c0,1.2,0.8,2.4,2.1,2.9v0.1l-1.9,0v3H119z M115.4,422.3c0,0,1.2,1.1,1.2,3.1
	s-1.4,3.5-3.5,3.5c-2.1,0-3.4-1.5-3.4-3.3c0-1.8,0.9-2.8,1.2-3.2l-2.3-0.8c-0.3,0.3-1.5,1.5-1.5,4.4c0,3.1,2.3,6.1,6.1,6.1
	c3.8,0,6-2.9,6-6.1c0-3.1-1.3-4.3-1.6-4.5L115.4,422.3z M107.2,412.8c0,1.7,0.7,2.9,2,3.5v0h-6.7v3H119v-3h-5.8
	c-1.9,0-3.5-0.6-3.5-2.5c0-1.8,1.4-2.1,3.1-2.1h6.2v-3.1h-6.9C109.3,408.6,107.2,409.5,107.2,412.8z M119,398.8v-3h-6.6
	c-3.6,0-5.2,1.8-5.2,5.4c0,2,0.7,3.6,1.2,4.5l2-0.9c-0.4-0.5-1-1.8-1-3.3c0-1.6,0.7-2.6,2.2-2.6h0.3l0.2,2.8
	c0.2,2.4,1.1,4.8,3.5,4.8c2.4,0,3.6-1.8,3.6-4.1c0-1.7-0.8-3.1-1.6-3.6L119,398.8z M113.8,398.9h2.1c0.6,0.4,1.3,1.3,1.3,2.5
	c0,1.3-0.7,2-1.7,2c-1,0-1.5-0.8-1.6-2.4L113.8,398.9z M110.5,386.3l-2-1.3c-0.7,1-1.2,2.1-1.2,4.2c0,2.2,1.4,4.2,3.5,4.2
	c1.7,0,2.7-0.9,3.3-2.6l0.5-1.3c0.5-1.5,0.8-1.9,1.4-1.9c0.7,0,1.1,0.5,1.1,1.7c0,1-0.5,2.2-1.6,3.5l2.1,1.2
	c1.1-0.9,1.8-2.9,1.8-4.7c0-2.9-1.6-4.6-3.8-4.6c-1.7,0-2.6,0.9-3.4,3.5l-0.3,0.8c-0.4,1.3-0.8,1.7-1.3,1.7c-0.6,0-0.9-0.5-0.9-1.5
	C109.5,388,110,387,110.5,386.3z M105.5,380.7c0-1.1-0.7-1.8-1.7-1.8c-1,0-1.7,0.8-1.7,1.8c0,1.1,0.7,1.8,1.7,1.8
	C104.8,382.6,105.5,381.8,105.5,380.7z M119,382.3v-3.1h-11.6v3.1H119z M119,368.3v-3.1h-6.9c-2.8,0-4.9,0.8-4.9,4.2
	c0,1.7,0.7,2.9,2,3.5v0.1l-1.8,0v3.1H119V373h-5.8c-1.9,0-3.5-0.6-3.5-2.5c0-1.8,1.4-2.1,3.1-2.1H119z M116.8,353.5h0.6
	c2.6,0,3.8,1.1,3.8,3.7c0,1.5-0.8,3.4-1.4,4.1l2.1,1.3c0.4-0.6,1.7-2.6,1.7-5.4c0-2.8-1-4.3-2-5.3c-1-1-2.5-1.5-5-1.5h-9.2v3l1.6,0
	v0c-1.2,0.8-1.8,2.1-1.8,3.7c0,3.5,2.7,5.7,5.9,5.7c3.7,0,5.6-2.5,5.6-5.4C118.6,355.8,118,354.4,116.8,353.5L116.8,353.5z
	 M113,353.4c1.8,0,3.2,1.1,3.2,3.3c0,2-1.5,3.2-3.2,3.2c-1.9,0-3.4-1.2-3.4-3.2C109.6,354.6,111.3,353.4,113,353.4z"/>
<path class="st5" d="M162,142v-2h-2v2H162z M1277,142h2v-2h-2V142z M1277,754v2h2v-2H1277z M162,754h-2v2h2V754z M162,144h1115v-4
	H162V144z M1275,142v612h4V142H1275z M1277,752H162v4h1115V752z M164,754V142h-4v612H164z"/>
<path class="st6" d="M159,150.2l-10.9,10.9l-4.2-4.2l16-16l2.1-2.1l2.1,2.1l16,16l-4.2,4.2L165,150.3V751h-6V150.2z"/>
<linearGradient id="SVGID_3_" gradientUnits="userSpaceOnUse" x1="1281.24" y1="141.8935" x2="159" y2="141.8935" gradientTransform="matrix(1 0 0 -1 0 896)">
	<stop  offset="0" style="stop-color:#D3AD0F"/>
	<stop  offset="1" style="stop-color:#D3AD0F;stop-opacity:0"/>
</linearGradient>
<path class="st7" d="M1269.7,751l-10.8-10.8l4.2-4.2l16,16l2.1,2.1l-2.1,2.1l-16,16l-4.2-4.2l11-11H159v-6H1269.7z"/>
</svg>
