<?xml version="1.0" encoding="utf-8"?>
<!-- Generator: Adobe Illustrator 25.1.0, SVG Export Plug-In . SVG Version: 6.00 Build 0)  -->
<svg version="1.1" id="Layer_1" xmlns="http://www.w3.org/2000/svg" xmlns:xlink="http://www.w3.org/1999/xlink" x="0px" y="0px"
	 viewBox="0 0 1439 896" style="enable-background:new 0 0 1439 896;" xml:space="preserve">
<style type="text/css">
	.st0{fill:url(#SVGID_1_);}
	.st1{fill:#071520;}
	.st2{fill:none;stroke:#143F63;stroke-width:2;}
	.st3{fill-rule:evenodd;clip-rule:evenodd;fill:url(#SVGID_2_);}
	.st4{fill:#676E73;}
	.st5{fill-rule:evenodd;clip-rule:evenodd;fill:url(#SVGID_3_);}
	.st6{opacity:0.4;}
	.st7{fill:#FFFFFF;}
	.st8{fill:#143F63;}
	.st9{fill-rule:evenodd;clip-rule:evenodd;fill:#DCBD3F;}
	.st10{fill-rule:evenodd;clip-rule:evenodd;fill:#71A4CF;}
</style>
<linearGradient id="SVGID_1_" gradientUnits="userSpaceOnUse" x1="719.5" y1="896" x2="719.5" y2="0" gradientTransform="matrix(1 0 0 -1 0 896)">
	<stop  offset="0" style="stop-color:#071520"/>
	<stop  offset="1" style="stop-color:#071520"/>
</linearGradient>
<rect class="st0" width="1439" height="896"/>
<path class="st1" d="M162,142h1115v612H162V142z"/>
<path class="st2" d="M219,142v612"/>
<path class="st2" d="M277.9,142v612"/>
<path class="st2" d="M336.9,142v612"/>
<path class="st2" d="M395.8,142v612"/>
<path class="st2" d="M454.8,142v612"/>
<path class="st2" d="M513.7,142v612"/>
<path class="st2" d="M572.6,142v612"/>
<path class="st2" d="M631.6,142v612"/>
<path class="st2" d="M690.5,142v612"/>
<path class="st2" d="M749.5,142v612"/>
<path class="st2" d="M808.4,142v612"/>
<path class="st2" d="M867.4,142v612"/>
<path class="st2" d="M926.3,142v612"/>
<path class="st2" d="M985.2,142v612"/>
<path class="st2" d="M1044.2,142v612"/>
<path class="st2" d="M1103.1,142v612"/>
<path class="st2" d="M1162.1,142v612"/>
<path class="st2" d="M1221,142v612"/>
<path class="st2" d="M1277,195H163"/>
<path class="st2" d="M1277,531H163"/>
<path class="st2" d="M1277,251H163"/>
<path class="st2" d="M1277,587H163"/>
<path class="st2" d="M1277,307H163"/>
<path class="st2" d="M1277,643H163"/>
<path class="st2" d="M1277,363H163"/>
<path class="st2" d="M1277,699H163"/>
<path class="st2" d="M1277,419H163"/>
<path class="st2" d="M1277,475H163"/>
<linearGradient id="SVGID_2_" gradientUnits="userSpaceOnUse" x1="1281.24" y1="141.8935" x2="159" y2="141.8935" gradientTransform="matrix(1 0 0 -1 0 896)">
	<stop  offset="0" style="stop-color:#D3AD0F"/>
	<stop  offset="1" style="stop-color:#D3AD0F;stop-opacity:0"/>
</linearGradient>
<path class="st3" d="M1269.7,751l-10.8-10.8l4.2-4.2l16,16l2.1,2.1l-2.1,2.1l-16,16l-4.2-4.2l11-11H159v-6H1269.7z"/>
<path class="st4" d="M580,811h3.1v-6.5h2.2c3.1,0,5.9-1.7,5.9-5.1c0-3.5-2.7-5-5.9-5H580V811z M585,802h-1.8v-5.1h1.8
	c1.6,0,3.1,0.7,3.1,2.5C588,801.2,586.6,802,585,802z M603.7,804.6c0-3.1-2.2-5.4-5.7-5.4c-3.3,0-6,2.5-6,6.2c0,3.7,2.6,5.9,6.1,5.9
	c2.8,0,4.6-1.2,5.2-1.9l-1.2-1.7c-0.6,0.5-1.9,1.2-3.5,1.2c-1.7,0-3.2-0.9-3.5-2.7h8.5C603.7,806.2,603.7,805.2,603.7,804.6z
	 M598,801.4c2.2,0,2.6,1.5,2.7,2.7h-5.6C595.2,802.7,596.2,801.4,598,801.4z M606,811h3v-5.7c0-0.9,0.1-1.7,0.4-2.3
	c0.4-0.7,1.1-1.1,2-1.1c0.4,0,0.9,0,1.3,0.1h0.1l0.2-2.7c0,0-0.4-0.2-1.2-0.2c-1.2,0-2.4,0.8-2.9,2.1H609l0-1.9h-3V811z
	 M621.3,802.5l1.3-2c-1-0.7-2.1-1.2-4.2-1.2c-2.2,0-4.2,1.4-4.2,3.5c0,1.7,0.9,2.7,2.6,3.3l1.3,0.5c1.5,0.5,1.9,0.8,1.9,1.4
	c0,0.7-0.5,1.1-1.7,1.1c-1,0-2.2-0.5-3.5-1.6l-1.2,2.1c0.9,1.1,2.9,1.8,4.7,1.8c2.9,0,4.6-1.6,4.6-3.8c0-1.7-0.9-2.6-3.5-3.4
	l-0.8-0.3c-1.3-0.4-1.7-0.8-1.7-1.3c0-0.6,0.5-0.9,1.5-0.9C619.6,801.5,620.6,802,621.3,802.5z M630.8,811.3c3.6,0,6.3-2.4,6.3-6
	s-2.7-6.1-6.3-6.1c-3.6,0-6.3,2.4-6.3,6.1S627.2,811.3,630.8,811.3z M633.9,805.2c0,2-1.2,3.6-3.1,3.6c-2,0-3.1-1.6-3.1-3.6
	c0-2,1.1-3.5,3.1-3.5C632.8,801.6,633.9,803.2,633.9,805.2z M647.2,811h3.1v-6.9c0-2.8-0.8-4.9-4.2-4.9c-1.7,0-2.9,0.7-3.5,2h-0.1
	l0-1.8h-3.1V811h3.1v-5.8c0-1.9,0.6-3.5,2.5-3.5c1.8,0,2.1,1.4,2.1,3.1V811z M660,811h3v-6.6c0-3.6-1.8-5.2-5.4-5.2
	c-2,0-3.6,0.7-4.5,1.2l0.9,2c0.5-0.4,1.8-1,3.3-1c1.6,0,2.6,0.7,2.6,2.2v0.3l-2.8,0.2c-2.4,0.2-4.8,1.1-4.8,3.5
	c0,2.4,1.8,3.6,4.1,3.6c1.7,0,3.1-0.8,3.6-1.6L660,811z M659.9,805.8v2.1c-0.4,0.6-1.3,1.3-2.5,1.3c-1.3,0-2-0.7-2-1.7
	s0.8-1.5,2.4-1.6L659.9,805.8z M666,811h3v-16.6h-3V811z M673.9,797.5c1.1,0,1.8-0.7,1.8-1.7c0-1-0.8-1.7-1.8-1.7
	c-1.1,0-1.8,0.7-1.8,1.7C672,796.8,672.8,797.5,673.9,797.5z M672.3,811h3.1v-11.6h-3.1V811z M677.6,811h10.4v-2.4h-6.5l6.2-7.4
	v-1.8H678v2.4h6l-6.3,7.4V811z M701.2,804.6c0-3.1-2.2-5.4-5.7-5.4c-3.3,0-6,2.5-6,6.2c0,3.7,2.6,5.9,6.1,5.9c2.8,0,4.6-1.2,5.2-1.9
	l-1.2-1.7c-0.6,0.5-1.9,1.2-3.5,1.2c-1.7,0-3.2-0.9-3.5-2.7h8.5C701.2,806.2,701.2,805.2,701.2,804.6z M695.5,801.4
	c2.2,0,2.6,1.5,2.7,2.7h-5.6C692.7,802.7,693.7,801.4,695.5,801.4z M712.5,811h2.9v-16.6h-3v4.6c0,0.8,0,1.4,0,2h0
	c-0.8-1.2-2.1-1.8-3.7-1.8c-3.5,0-5.7,2.7-5.7,6c0,3.5,2.1,6.1,5.5,6.1c1.6,0,3-0.6,4-2.1h0.1L712.5,811z M709.3,808.8
	c-2,0-3.2-1.6-3.2-3.6c0-1.9,1.2-3.6,3.1-3.6c2,0,3.2,1.7,3.2,3.6C712.4,807.4,711.1,808.8,709.3,808.8z M734.6,804.6
	c0-3.1-2.2-5.4-5.7-5.4c-3.3,0-6,2.5-6,6.2c0,3.7,2.6,5.9,6.1,5.9c2.8,0,4.6-1.2,5.2-1.9l-1.2-1.7c-0.6,0.5-1.9,1.2-3.5,1.2
	c-1.7,0-3.2-0.9-3.5-2.7h8.5C734.6,806.2,734.6,805.2,734.6,804.6z M728.9,801.4c2.2,0,2.6,1.5,2.7,2.7H726
	C726.1,802.7,727,801.4,728.9,801.4z M744.6,811h3.1v-6.9c0-2.8-0.8-4.9-4.2-4.9c-1.7,0-2.9,0.7-3.5,2h-0.1l0-1.8h-3.1V811h3.1v-5.8
	c0-1.9,0.6-3.5,2.5-3.5c1.8,0,2.1,1.4,2.1,3.1V811z M759.4,808.8v0.6c0,2.6-1.1,3.8-3.7,3.8c-1.5,0-3.4-0.8-4.1-1.4l-1.3,2.1
	c0.6,0.4,2.6,1.7,5.4,1.7c2.8,0,4.3-1,5.3-2c1-1,1.5-2.5,1.5-5v-9.2h-3l0,1.6h0c-0.8-1.2-2.1-1.8-3.7-1.8c-3.5,0-5.7,2.7-5.7,5.9
	c0,3.7,2.5,5.6,5.4,5.6C757.2,810.6,758.6,810,759.4,808.8L759.4,808.8z M759.6,805c0,1.8-1.1,3.2-3.3,3.2c-2,0-3.2-1.5-3.2-3.2
	c0-1.9,1.2-3.4,3.2-3.4S759.6,803.3,759.6,805z M772.4,811h3v-6.6c0-3.6-1.8-5.2-5.4-5.2c-2,0-3.6,0.7-4.5,1.2l0.9,2
	c0.5-0.4,1.8-1,3.3-1c1.6,0,2.6,0.7,2.6,2.2v0.3l-2.8,0.2c-2.4,0.2-4.8,1.1-4.8,3.5c0,2.4,1.8,3.6,4.1,3.6c1.7,0,3.1-0.8,3.6-1.6
	L772.4,811z M772.3,805.8v2.1c-0.4,0.6-1.3,1.3-2.5,1.3c-1.3,0-2-0.7-2-1.7s0.8-1.5,2.4-1.6L772.3,805.8z M786.9,808.8v0.6
	c0,2.6-1.1,3.8-3.7,3.8c-1.5,0-3.4-0.8-4.1-1.4l-1.3,2.1c0.6,0.4,2.6,1.7,5.4,1.7c2.8,0,4.3-1,5.3-2c1-1,1.5-2.5,1.5-5v-9.2h-3
	l0,1.6h0c-0.8-1.2-2.1-1.8-3.7-1.8c-3.5,0-5.7,2.7-5.7,5.9c0,3.7,2.5,5.6,5.4,5.6C784.7,810.6,786.1,810,786.9,808.8L786.9,808.8z
	 M787.1,805c0,1.8-1.1,3.2-3.3,3.2c-2,0-3.2-1.5-3.2-3.2c0-1.9,1.2-3.4,3.2-3.4C785.9,801.6,787.1,803.3,787.1,805z M804.1,804.6
	c0-3.1-2.2-5.4-5.7-5.4c-3.3,0-6,2.5-6,6.2c0,3.7,2.6,5.9,6.1,5.9c2.8,0,4.6-1.2,5.2-1.9l-1.2-1.7c-0.6,0.5-1.9,1.2-3.5,1.2
	c-1.7,0-3.2-0.9-3.5-2.7h8.5C804.1,806.2,804.1,805.2,804.1,804.6z M798.4,801.4c2.2,0,2.6,1.5,2.7,2.7h-5.6
	C795.6,802.7,796.5,801.4,798.4,801.4z M820,799.2c-1.7,0-3,0.8-3.8,2.2c-0.6-1.5-1.6-2.2-3.3-2.2c-1.5,0-2.9,0.9-3.5,2h-0.1l0-1.8
	h-3.1V811h3.1v-6c0-1.8,0.7-3.3,2.3-3.3c1.5,0,1.9,1.2,1.9,2.8v6.5h3.1v-6c0-2,0.8-3.3,2.3-3.3c1.5,0,1.8,1.4,1.8,2.8v6.5h3.1v-7
	C823.9,801.3,823.1,799.2,820,799.2z M837.9,804.6c0-3.1-2.2-5.4-5.7-5.4c-3.3,0-6,2.5-6,6.2c0,3.7,2.6,5.9,6.1,5.9
	c2.8,0,4.6-1.2,5.2-1.9l-1.2-1.7c-0.6,0.5-1.9,1.2-3.5,1.2c-1.7,0-3.2-0.9-3.5-2.7h8.5C837.9,806.2,837.9,805.2,837.9,804.6z
	 M832.2,801.4c2.2,0,2.6,1.5,2.7,2.7h-5.6C829.4,802.7,830.3,801.4,832.2,801.4z M847.9,811h3.1v-6.9c0-2.8-0.8-4.9-4.2-4.9
	c-1.7,0-2.9,0.7-3.5,2h-0.1l0-1.8h-3.1V811h3.1v-5.8c0-1.9,0.6-3.5,2.5-3.5c1.8,0,2.1,1.4,2.1,3.1V811z M857.6,801.8h2.7v-2.4h-2.7
	v-3.3h-3v3.3h-1.7v2.4h1.7v5.4c0,3,1,4.1,3.4,4.1c1.3,0,2.2-0.3,2.4-0.4l-0.2-2.4c0,0-0.5,0.2-1.1,0.2c-1.1,0-1.4-0.4-1.4-2.2V801.8
	z"/>
<linearGradient id="SVGID_3_" gradientUnits="userSpaceOnUse" x1="161.9855" y1="757.242" x2="161.9855" y2="142" gradientTransform="matrix(1 0 0 -1 0 896)">
	<stop  offset="0" style="stop-color:#4186BF"/>
	<stop  offset="1" style="stop-color:#4186BF;stop-opacity:0"/>
</linearGradient>
<path class="st5" d="M159,150.2l-10.9,10.9l-4.2-4.2l16-16l2.1-2.1l2.1,2.1l16,16l-4.2,4.2L165,150.3V751h-6V150.2z"/>
<path class="st4" d="M119,545.3V540c0-5.1-3-8.9-8.3-8.9c-5.3,0-8.3,3.9-8.3,8.9v5.3H119z M116.4,539.9v2.3h-11.3v-2.3
	c0-3.5,2.2-5.6,5.7-5.6C114.2,534.3,116.4,536.5,116.4,539.9z M105.5,526.8c0-1.1-0.7-1.8-1.7-1.8c-1,0-1.7,0.8-1.7,1.8
	c0,1.1,0.7,1.8,1.7,1.8C104.8,528.6,105.5,527.9,105.5,526.8z M119,528.3v-3.1h-11.6v3.1H119z M116.8,513.4h0.6
	c2.6,0,3.8,1.1,3.8,3.7c0,1.5-0.8,3.4-1.4,4.1l2.1,1.3c0.4-0.6,1.7-2.6,1.7-5.4c0-2.8-1-4.3-2-5.3c-1-1-2.5-1.5-5-1.5h-9.2v3l1.6,0
	v0c-1.2,0.8-1.8,2.1-1.8,3.7c0,3.5,2.7,5.7,5.9,5.7c3.7,0,5.6-2.5,5.6-5.4C118.6,515.6,118,514.2,116.8,513.4L116.8,513.4z
	 M113,513.2c1.8,0,3.2,1.1,3.2,3.3c0,2-1.5,3.2-3.2,3.2c-1.9,0-3.4-1.2-3.4-3.2S111.3,513.2,113,513.2z M105.5,505.6
	c0-1.1-0.7-1.8-1.7-1.8c-1,0-1.7,0.8-1.7,1.8c0,1.1,0.7,1.8,1.7,1.8C104.8,507.4,105.5,506.6,105.5,505.6z M119,507.1V504h-11.6v3.1
	H119z M109.8,497.3v-2.7h-2.4v2.7h-3.3v3h3.3v1.7h2.4v-1.7h5.4c3,0,4.1-1,4.1-3.4c0-1.3-0.3-2.2-0.4-2.4l-2.4,0.2
	c0,0,0.2,0.5,0.2,1.1c0,1.1-0.4,1.4-2.2,1.4H109.8z M119,485.8v-3h-6.6c-3.6,0-5.2,1.8-5.2,5.4c0,2,0.7,3.6,1.2,4.5l2-0.9
	c-0.4-0.5-1-1.8-1-3.3c0-1.6,0.7-2.6,2.2-2.6h0.3l0.2,2.8c0.2,2.4,1.1,4.8,3.5,4.8c2.4,0,3.6-1.8,3.6-4.1c0-1.7-0.8-3.1-1.6-3.6
	L119,485.8z M113.8,485.9h2.1c0.6,0.4,1.3,1.3,1.3,2.5c0,1.3-0.7,2-1.7,2c-1,0-1.5-0.8-1.6-2.4L113.8,485.9z M119,479.8v-3h-16.6v3
	H119z M107.4,465.4v3.1h16v-3h-4c-0.8,0-1.3,0-1.9,0l0,0c1.2-1,1.8-1.9,1.8-3.7c0-3.5-2.7-5.7-6-5.7c-3.5,0-6.1,2.1-6.1,5.5
	c0,1.5,0.5,2.9,1.9,3.9l0,0L107.4,465.4z M109.6,462.4c0-2,1.6-3.2,3.6-3.2c1.9,0,3.6,1.2,3.6,3.1c0,2-1.7,3.2-3.6,3.2
	C111,465.5,109.6,464.2,109.6,462.4z M107.4,450.8v3.1h6.9c2.8,0,4.9-0.8,4.9-4.2c0-1.7-0.7-2.9-1.8-3.6l1.6,0v-3h-11.6v3.1h5.9
	c1.9,0,3.4,0.7,3.4,2.5c0,1.8-1.4,2.1-3.1,2.1H107.4z M119,440v-3h-5.7c-0.9,0-1.7-0.1-2.3-0.4c-0.7-0.4-1.1-1.1-1.1-2
	c0-0.4,0-0.9,0.1-1.3v-0.1l-2.7-0.2c0,0-0.2,0.4-0.2,1.2c0,1.2,0.8,2.4,2.1,2.9v0.1l-1.9,0v3H119z M115.4,422.3c0,0,1.2,1.1,1.2,3.1
	s-1.4,3.5-3.5,3.5c-2.1,0-3.4-1.5-3.4-3.3c0-1.8,0.9-2.8,1.2-3.2l-2.3-0.8c-0.3,0.3-1.5,1.5-1.5,4.4c0,3.1,2.3,6.1,6.1,6.1
	c3.8,0,6-2.9,6-6.1c0-3.1-1.3-4.3-1.6-4.5L115.4,422.3z M107.2,412.8c0,1.7,0.7,2.9,2,3.5v0h-6.7v3H119v-3h-5.8
	c-1.9,0-3.5-0.6-3.5-2.5c0-1.8,1.4-2.1,3.1-2.1h6.2v-3.1h-6.9C109.3,408.6,107.2,409.5,107.2,412.8z M119,398.8v-3h-6.6
	c-3.6,0-5.2,1.8-5.2,5.4c0,2,0.7,3.6,1.2,4.5l2-0.9c-0.4-0.5-1-1.8-1-3.3c0-1.6,0.7-2.6,2.2-2.6h0.3l0.2,2.8
	c0.2,2.4,1.1,4.8,3.5,4.8c2.4,0,3.6-1.8,3.6-4.1c0-1.7-0.8-3.1-1.6-3.6L119,398.8z M113.8,398.9h2.1c0.6,0.4,1.3,1.3,1.3,2.5
	c0,1.3-0.7,2-1.7,2c-1,0-1.5-0.8-1.6-2.4L113.8,398.9z M110.5,386.3l-2-1.3c-0.7,1-1.2,2.1-1.2,4.2c0,2.2,1.4,4.2,3.5,4.2
	c1.7,0,2.7-0.9,3.3-2.6l0.5-1.3c0.5-1.5,0.8-1.9,1.4-1.9c0.7,0,1.1,0.5,1.1,1.7c0,1-0.5,2.2-1.6,3.5l2.1,1.2
	c1.1-0.9,1.8-2.9,1.8-4.7c0-2.9-1.6-4.6-3.8-4.6c-1.7,0-2.6,0.9-3.4,3.5l-0.3,0.8c-0.4,1.3-0.8,1.7-1.3,1.7c-0.6,0-0.9-0.5-0.9-1.5
	C109.5,388,110,387,110.5,386.3z M105.5,380.7c0-1.1-0.7-1.8-1.7-1.8c-1,0-1.7,0.8-1.7,1.8c0,1.1,0.7,1.8,1.7,1.8
	C104.8,382.6,105.5,381.8,105.5,380.7z M119,382.3v-3.1h-11.6v3.1H119z M119,368.3v-3.1h-6.9c-2.8,0-4.9,0.8-4.9,4.2
	c0,1.7,0.7,2.9,2,3.5v0.1l-1.8,0v3.1H119V373h-5.8c-1.9,0-3.5-0.6-3.5-2.5c0-1.8,1.4-2.1,3.1-2.1H119z M116.8,353.5h0.6
	c2.6,0,3.8,1.1,3.8,3.7c0,1.5-0.8,3.4-1.4,4.1l2.1,1.3c0.4-0.6,1.7-2.6,1.7-5.4c0-2.8-1-4.3-2-5.3c-1-1-2.5-1.5-5-1.5h-9.2v3l1.6,0
	v0c-1.2,0.8-1.8,2.1-1.8,3.7c0,3.5,2.7,5.7,5.9,5.7c3.7,0,5.6-2.5,5.6-5.4C118.6,355.8,118,354.4,116.8,353.5L116.8,353.5z
	 M113,353.4c1.8,0,3.2,1.1,3.2,3.3c0,2-1.5,3.2-3.2,3.2c-1.9,0-3.4-1.2-3.4-3.2C109.6,354.6,111.3,353.4,113,353.4z"/>
<g class="st6">
	<path class="st7" d="M1149.2,194h6.2c6,0,10.4-3.4,10.4-9.7c0-6.2-4.5-9.6-10.4-9.6h-6.2V194z M1155.6,190.9h-2.7v-13.2h2.7
		c4.1,0,6.5,2.5,6.5,6.6C1162.1,188.4,1159.6,190.9,1155.6,190.9z M1170.8,178.3c1.3,0,2.2-0.8,2.2-2c0-1.1-0.9-2-2.2-2
		s-2.2,0.8-2.2,2C1168.7,177.5,1169.6,178.3,1170.8,178.3z M1169,194h3.6v-13.6h-3.6V194z M1186.4,191.4v0.7c0,3-1.3,4.4-4.4,4.4
		c-1.7,0-3.9-1-4.8-1.6l-1.5,2.5c0.7,0.5,3.1,2,6.3,2c3.2,0,5-1.1,6.2-2.4c1.2-1.2,1.8-2.9,1.8-5.9v-10.8h-3.6l0,1.9h0
		c-1-1.5-2.5-2.1-4.3-2.1c-4,0-6.7,3.1-6.7,6.9c0,4.3,2.9,6.5,6.3,6.5C1183.8,193.6,1185.5,192.8,1186.4,191.4L1186.4,191.4z
		 M1186.6,187c0,2.1-1.3,3.8-3.9,3.8c-2.3,0-3.7-1.7-3.7-3.8c0-2.2,1.4-3.9,3.8-3.9C1185.2,183,1186.6,185,1186.6,187z
		 M1195.5,178.3c1.3,0,2.2-0.8,2.2-2c0-1.1-0.9-2-2.2-2s-2.2,0.8-2.2,2C1193.4,177.5,1194.3,178.3,1195.5,178.3z M1193.7,194h3.6
		v-13.6h-3.6V194z M1205.2,183.2h3.1v-2.8h-3.1v-3.9h-3.6v3.9h-2v2.8h2v6.3c0,3.5,1.2,4.8,3.9,4.8c1.5,0,2.6-0.4,2.7-0.4l-0.2-2.8
		c0,0-0.6,0.2-1.3,0.2c-1.3,0-1.6-0.5-1.6-2.6V183.2z M1218.5,194h3.4v-7.8c0-4.2-2.1-6-6.3-6c-2.4,0-4.3,0.8-5.3,1.4l1.1,2.3
		c0.6-0.4,2.1-1.1,3.9-1.1c1.9,0,3,0.8,3,2.5v0.4l-3.2,0.2c-2.8,0.2-5.6,1.3-5.6,4.1s2.1,4.3,4.8,4.3c2,0,3.6-0.9,4.1-1.9
		L1218.5,194z M1218.4,187.9v2.5c-0.5,0.7-1.5,1.5-2.9,1.5c-1.5,0-2.3-0.8-2.3-1.9s0.9-1.8,2.8-1.9L1218.4,187.9z M1225.4,194h3.6
		v-19.3h-3.6V194z M1232.8,194h3.5v-19.3h-3.5V194z M1243.9,194.1l-0.6,1.4c-0.3,0.7-0.9,0.9-1.6,0.9c-0.7,0-1.6-0.3-1.6-0.3
		l-0.7,2.7c0,0,1.3,0.6,3.2,0.6c1.9,0,3-1.1,4-3.5l6.3-15.4h-3.7l-3.5,9.6l-3.6-9.6h-3.8L1243.9,194.1z M1174,216l1.5-2.4
		c-1.1-0.8-2.5-1.5-4.9-1.5c-2.6,0-4.8,1.6-4.8,4.1c0,2,1,3.2,3.1,3.9l1.6,0.5c1.7,0.6,2.3,1,2.3,1.7c0,0.8-0.6,1.3-2,1.3
		c-1.1,0-2.5-0.6-4.1-1.8l-1.5,2.4c1.1,1.3,3.4,2.1,5.5,2.1c3.3,0,5.4-1.9,5.4-4.5c0-2-1.1-3-4.1-4l-1-0.3c-1.5-0.5-2-1-2-1.5
		c0-0.6,0.6-1.1,1.8-1.1C1172.1,214.9,1173.2,215.4,1174,216z M1186.6,226h3.4v-7.8c0-4.2-2.1-6-6.3-6c-2.4,0-4.3,0.8-5.3,1.4
		l1.1,2.3c0.6-0.4,2.1-1.1,3.9-1.1c1.9,0,3,0.8,3,2.5v0.4l-3.2,0.2c-2.8,0.2-5.6,1.3-5.6,4.1s2.1,4.3,4.8,4.3c2,0,3.6-0.9,4.1-1.9
		L1186.6,226z M1186.5,219.9v2.5c-0.5,0.7-1.5,1.5-2.9,1.5c-1.5,0-2.3-0.8-2.3-1.9s0.9-1.8,2.8-1.9L1186.5,219.9z M1196.9,226h3.5
		l5.6-13.6h-3.6l-3.7,9.8l-3.7-9.8h-3.7L1196.9,226z M1211.8,226h3.5l5.6-13.6h-3.6l-3.7,9.8l-3.7-9.8h-3.7L1211.8,226z
		 M1226.6,226.1l-0.6,1.4c-0.3,0.7-0.9,0.9-1.6,0.9c-0.7,0-1.6-0.3-1.6-0.3l-0.7,2.7c0,0,1.3,0.6,3.2,0.6c1.9,0,3-1.1,4-3.5
		l6.3-15.4h-3.7l-3.5,9.6l-3.6-9.6h-3.8L1226.6,226.1z"/>
	<path class="st7" d="M198.2,687h6.2c6,0,10.4-3.4,10.4-9.7c0-6.2-4.5-9.6-10.4-9.6h-6.2V687z M204.6,683.9h-2.7v-13.2h2.7
		c4.1,0,6.5,2.5,6.5,6.6C211.1,681.4,208.6,683.9,204.6,683.9z M219.8,671.3c1.3,0,2.2-0.8,2.2-2c0-1.1-0.9-2-2.2-2
		c-1.3,0-2.2,0.8-2.2,2C217.7,670.5,218.6,671.3,219.8,671.3z M218,687h3.6v-13.6H218V687z M235.4,684.4v0.7c0,3-1.3,4.4-4.4,4.4
		c-1.7,0-3.9-1-4.8-1.6l-1.5,2.5c0.7,0.5,3.1,2,6.3,2c3.2,0,5-1.1,6.2-2.4c1.1-1.2,1.8-2.9,1.8-5.9v-10.8h-3.6l0,1.9h-0.1
		c-1-1.5-2.5-2.1-4.3-2.1c-4,0-6.7,3.1-6.7,6.9c0,4.3,2.9,6.5,6.3,6.5C232.8,686.6,234.5,685.8,235.4,684.4L235.4,684.4z M235.6,680
		c0,2.1-1.3,3.8-3.9,3.8c-2.4,0-3.7-1.7-3.7-3.8c0-2.2,1.4-3.9,3.8-3.9C234.2,676,235.6,678,235.6,680z M244.5,671.3
		c1.3,0,2.2-0.8,2.2-2c0-1.1-0.9-2-2.2-2c-1.3,0-2.2,0.8-2.2,2C242.4,670.5,243.3,671.3,244.5,671.3z M242.7,687h3.6v-13.6h-3.6V687
		z M254.2,676.2h3.1v-2.8h-3.1v-3.9h-3.6v3.9h-2v2.8h2v6.3c0,3.5,1.1,4.8,3.9,4.8c1.5,0,2.6-0.4,2.7-0.4l-0.2-2.8
		c0,0-0.6,0.2-1.3,0.2c-1.3,0-1.6-0.5-1.6-2.6V676.2z M267.5,687h3.4v-7.8c0-4.2-2.1-6-6.3-6c-2.4,0-4.3,0.8-5.3,1.4l1.1,2.3
		c0.6-0.4,2.1-1.1,3.9-1.1c1.9,0,3,0.8,3,2.5v0.4l-3.2,0.2c-2.8,0.2-5.6,1.3-5.6,4.1s2.1,4.3,4.8,4.3c2,0,3.6-0.9,4.1-1.9L267.5,687
		z M267.4,680.9v2.5c-0.5,0.7-1.5,1.5-2.9,1.5c-1.5,0-2.4-0.8-2.4-1.9s0.9-1.8,2.8-1.9L267.4,680.9z M274.4,687h3.6v-19.3h-3.6V687z
		 M281.8,687h3.6v-19.3h-3.6V687z M292.9,687.1l-0.6,1.4c-0.3,0.7-0.9,0.9-1.6,0.9c-0.7,0-1.6-0.3-1.6-0.3l-0.7,2.7
		c0,0,1.3,0.6,3.2,0.6c1.9,0,3-1.1,4-3.5l6.3-15.4h-3.7l-3.5,9.6l-3.6-9.6h-3.8L292.9,687.1z M225.6,719h3.6v-8c0-3.2-1-5.8-4.9-5.8
		c-2,0-3.3,0.9-4.1,2.3h-0.1l0-2h-3.6V719h3.6v-6.7c0-2.3,0.8-4.1,3-4.1c2.1,0,2.4,1.6,2.4,3.6V719z M240.6,719h3.4v-7.8
		c0-4.2-2.1-6-6.3-6c-2.4,0-4.3,0.8-5.3,1.4l1.1,2.3c0.6-0.4,2.1-1.1,3.9-1.1c1.9,0,3,0.8,3,2.5v0.4l-3.2,0.2
		c-2.8,0.2-5.6,1.3-5.6,4.1s2.1,4.3,4.8,4.3c2,0,3.6-0.9,4.1-1.9L240.6,719z M240.5,712.9v2.5c-0.5,0.7-1.5,1.5-2.9,1.5
		c-1.5,0-2.4-0.8-2.4-1.9s0.9-1.8,2.8-1.9L240.5,712.9z M249.2,703.3c1.3,0,2.2-0.8,2.2-2c0-1.1-0.9-2-2.2-2c-1.3,0-2.2,0.8-2.2,2
		C247.1,702.5,248,703.3,249.2,703.3z M247.4,719h3.6v-13.6h-3.6V719z M258.6,719h3.5l5.6-13.6h-3.6l-3.7,9.8l-3.7-9.8H253
		L258.6,719z M282.3,711.6c0-3.6-2.5-6.4-6.7-6.4c-3.9,0-7,2.9-7,7.3c0,4.4,3,6.9,7.1,6.9c3.3,0,5.3-1.4,6.1-2.2l-1.4-1.9
		c-0.6,0.6-2.3,1.4-4.1,1.4c-2,0-3.7-1.1-4-3.2h10C282.3,713.4,282.3,712.3,282.3,711.6z M275.6,707.9c2.5,0,3.1,1.7,3.1,3.2h-6.5
		C272.4,709.3,273.5,707.9,275.6,707.9z"/>
</g>
<path class="st8" d="M162,142v-2h-2v2H162z M1277,142h2v-2h-2V142z M1277,754v2h2v-2H1277z M162,754h-2v2h2V754z M162,144h1115v-4
	H162V144z M1275,142v612h4V142H1275z M1277,752H162v4h1115V752z M164,754V142h-4v612H164z"/>
<path class="st9" d="M1269.7,751l-10.8-10.8l4.2-4.2l16,16l2.1,2.1l-2.1,2.1l-16,16l-4.2-4.2l11-11H159v-6H1269.7z"/>
<path class="st10" d="M159,150.2l-10.9,10.9l-4.2-4.2l16-16l2.1-2.1l2.1,2.1l16,16l-4.2,4.2L165,150.3V751h-6V150.2z"/>
</svg>
