<?xml version="1.0" encoding="utf-8"?>
<!-- Generator: Adobe Illustrator 25.1.0, SVG Export Plug-In . SVG Version: 6.00 Build 0)  -->
<svg version="1.1" id="Layer_1" xmlns="http://www.w3.org/2000/svg" xmlns:xlink="http://www.w3.org/1999/xlink" x="0px" y="0px"
	 viewBox="0 0 1439 896" style="enable-background:new 0 0 1439 896;" xml:space="preserve">
<style type="text/css">
	.st0{fill:url(#SVGID_1_);}
	.st1{fill:#071520;}
	.st2{fill:none;stroke:#143F63;stroke-width:2;}
	.st3{fill:#143F63;}
	.st4{fill-rule:evenodd;clip-rule:evenodd;fill:url(#SVGID_2_);}
</style>
<linearGradient id="SVGID_1_" gradientUnits="userSpaceOnUse" x1="719.5" y1="896" x2="719.5" y2="0" gradientTransform="matrix(1 0 0 -1 0 896)">
	<stop  offset="0" style="stop-color:#071520"/>
	<stop  offset="1" style="stop-color:#071520"/>
</linearGradient>
<rect class="st0" width="1439" height="896"/>
<path class="st1" d="M162,142h1115v612H162V142z"/>
<path class="st2" d="M219,142v612"/>
<path class="st2" d="M277.9,142v612"/>
<path class="st2" d="M336.9,142v612"/>
<path class="st2" d="M395.8,142v612"/>
<path class="st2" d="M454.8,142v612"/>
<path class="st2" d="M513.7,142v612"/>
<path class="st2" d="M572.6,142v612"/>
<path class="st2" d="M631.6,142v612"/>
<path class="st2" d="M690.5,142v612"/>
<path class="st2" d="M749.5,142v612"/>
<path class="st2" d="M808.4,142v612"/>
<path class="st2" d="M867.4,142v612"/>
<path class="st2" d="M926.3,142v612"/>
<path class="st2" d="M985.2,142v612"/>
<path class="st2" d="M1044.2,142v612"/>
<path class="st2" d="M1103.1,142v612"/>
<path class="st2" d="M1162.1,142v612"/>
<path class="st2" d="M1221,142v612"/>
<path class="st2" d="M1277,195H163"/>
<path class="st2" d="M1277,531H163"/>
<path class="st2" d="M1277,251H163"/>
<path class="st2" d="M1277,587H163"/>
<path class="st2" d="M1277,307H163"/>
<path class="st2" d="M1277,643H163"/>
<path class="st2" d="M1277,363H163"/>
<path class="st2" d="M1277,699H163"/>
<path class="st2" d="M1277,419H163"/>
<path class="st2" d="M1277,475H163"/>
<path class="st3" d="M162,142v-2h-2v2H162z M1277,142h2v-2h-2V142z M1277,754v2h2v-2H1277z M162,754h-2v2h2V754z M162,144h1115v-4
	H162V144z M1275,142v612h4V142H1275z M1277,752H162v4h1115V752z M164,754V142h-4v612H164z"/>
<linearGradient id="SVGID_2_" gradientUnits="userSpaceOnUse" x1="161.9855" y1="757.242" x2="161.9855" y2="142" gradientTransform="matrix(1 0 0 -1 0 896)">
	<stop  offset="0" style="stop-color:#4186BF"/>
	<stop  offset="1" style="stop-color:#4186BF;stop-opacity:0"/>
</linearGradient>
<path class="st4" d="M159,150.2l-10.9,10.9l-4.2-4.2l16-16l2.1-2.1l2.1,2.1l16,16l-4.2,4.2L165,150.3V751h-6V150.2z"/>
</svg>
