<?xml version="1.0" encoding="utf-8"?>
<!-- Generator: Adobe Illustrator 25.1.0, SVG Export Plug-In . SVG Version: 6.00 Build 0)  -->
<svg version="1.1" id="Layer_1" xmlns="http://www.w3.org/2000/svg" xmlns:xlink="http://www.w3.org/1999/xlink" x="0px" y="0px"
	 viewBox="0 0 339 338" style="enable-background:new 0 0 339 338;" xml:space="preserve">
<style type="text/css">
	.st0{fill:none;stroke:#143F63;stroke-width:2;}
	.st1{fill:url(#SVGID_1_);fill-opacity:0.5;}
	.st2{fill:#FFFFFF;}
	.st3{fill:url(#SVGID_2_);fill-opacity:0.65;}
	.st4{fill-rule:evenodd;clip-rule:evenodd;fill:url(#SVGID_3_);}
	.st5{fill-rule:evenodd;clip-rule:evenodd;fill:url(#SVGID_4_);}
	.st6{fill:#676E73;}
	.st7{fill:url(#SVGID_5_);}
	.st8{fill-rule:evenodd;clip-rule:evenodd;fill:#71A4CF;}
	.st9{fill-rule:evenodd;clip-rule:evenodd;fill:#D3AD0F;}
</style>
<path class="st0" d="M66.6,1v309"/>
<path class="st0" d="M105.8,1v309"/>
<path class="st0" d="M145.1,1v309"/>
<path class="st0" d="M184.3,1v309"/>
<path class="st0" d="M223.5,1v309"/>
<path class="st0" d="M262.7,1v309"/>
<path class="st0" d="M301.9,1v309"/>
<path class="st0" d="M339,45L30,45"/>
<path class="st0" d="M339,89.4H30"/>
<path class="st0" d="M339,133.7H30"/>
<path class="st0" d="M339,178.1l-309,0"/>
<path class="st0" d="M339,222.4H30"/>
<path class="st0" d="M339,266.8H30"/>
<radialGradient id="SVGID_1_" cx="-100.562" cy="235.021" r="1" gradientTransform="matrix(-212.6967 119.8191 109.1052 193.6779 -46692.207 -33468.3359)" gradientUnits="userSpaceOnUse">
	<stop  offset="0" style="stop-color:#13C1BF"/>
	<stop  offset="1" style="stop-color:#13C1BF;stop-opacity:0"/>
</radialGradient>
<path class="st1" d="M339,180.5C125.6,180.5,44.7,60.8,31,1h308V180.5z"/>
<path class="st2" d="M258.6,32.8h4c3.8,0,6.7-2.2,6.7-6.2c0-4-2.9-6.2-6.7-6.2h-4V32.8z M262.7,30.8H261v-8.5h1.7
	c2.6,0,4.2,1.6,4.2,4.2C266.9,29.2,265.3,30.8,262.7,30.8z M272.3,22.7c0.8,0,1.4-0.5,1.4-1.3c0-0.7-0.6-1.3-1.4-1.3
	s-1.4,0.5-1.4,1.3C270.9,22.2,271.5,22.7,272.3,22.7z M271.2,32.8h2.3v-8.7h-2.3V32.8z M282.2,31.2v0.4c0,1.9-0.8,2.8-2.8,2.8
	c-1.1,0-2.5-0.6-3.1-1l-1,1.6c0.4,0.3,2,1.3,4,1.3c2.1,0,3.2-0.7,4-1.5c0.7-0.8,1.1-1.9,1.1-3.8v-6.9h-2.3l0,1.2h0
	c-0.6-0.9-1.6-1.4-2.8-1.4c-2.6,0-4.3,2-4.3,4.4c0,2.8,1.9,4.2,4.1,4.2C280.5,32.5,281.6,32.1,282.2,31.2L282.2,31.2z M282.3,28.3
	c0,1.3-0.8,2.4-2.5,2.4c-1.5,0-2.4-1.1-2.4-2.4c0-1.4,0.9-2.5,2.4-2.5C281.4,25.8,282.3,27,282.3,28.3z M287.9,22.7
	c0.8,0,1.4-0.5,1.4-1.3c0-0.7-0.6-1.3-1.4-1.3s-1.4,0.5-1.4,1.3C286.5,22.2,287.1,22.7,287.9,22.7z M286.7,32.8h2.3v-8.7h-2.3V32.8z
	 M293.9,25.9h2v-1.8h-2v-2.5h-2.3v2.5h-1.3v1.8h1.3v4c0,2.3,0.7,3.1,2.5,3.1c1,0,1.7-0.3,1.8-0.3l-0.1-1.8c0,0-0.4,0.1-0.8,0.1
	c-0.8,0-1-0.3-1-1.7V25.9z M302.3,32.8h2.2v-5c0-2.7-1.4-3.9-4-3.9c-1.5,0-2.7,0.5-3.4,0.9l0.7,1.5c0.4-0.3,1.3-0.7,2.5-0.7
	c1.2,0,1.9,0.5,1.9,1.6v0.2l-2.1,0.1c-1.8,0.1-3.6,0.8-3.6,2.6s1.4,2.7,3.1,2.7c1.3,0,2.3-0.6,2.7-1.2L302.3,32.8z M302.3,28.9v1.6
	c-0.3,0.4-1,1-1.9,1c-1,0-1.5-0.5-1.5-1.2c0-0.7,0.6-1.2,1.8-1.2L302.3,28.9z M306.6,32.8h2.3V20.4h-2.3V32.8z M311.2,32.8h2.3V20.4
	h-2.3V32.8z M318.2,32.9l-0.4,0.9c-0.2,0.5-0.6,0.6-1,0.6c-0.4,0-1-0.2-1-0.2l-0.5,1.8c0,0,0.8,0.4,2.1,0.4c1.2,0,1.9-0.7,2.6-2.3
	l4-9.9h-2.4l-2.3,6.2l-2.3-6.2h-2.4L318.2,32.9z M285,44.4l1-1.5c-0.7-0.5-1.6-0.9-3.1-0.9c-1.7,0-3.1,1-3.1,2.6
	c0,1.3,0.7,2.1,2,2.5l1,0.3c1.1,0.4,1.5,0.6,1.5,1.1c0,0.5-0.4,0.8-1.3,0.8c-0.7,0-1.6-0.4-2.6-1.2l-0.9,1.6
	c0.7,0.8,2.2,1.4,3.5,1.4c2.1,0,3.5-1.2,3.5-2.9c0-1.3-0.7-1.9-2.6-2.6l-0.6-0.2c-1-0.3-1.3-0.6-1.3-1c0-0.4,0.4-0.7,1.1-0.7
	C283.8,43.7,284.5,44,285,44.4z M292.9,50.8h2.2v-5c0-2.7-1.4-3.9-4-3.9c-1.5,0-2.7,0.5-3.4,0.9l0.7,1.5c0.4-0.3,1.3-0.7,2.5-0.7
	c1.2,0,1.9,0.5,1.9,1.6v0.2l-2.1,0.1c-1.8,0.1-3.6,0.8-3.6,2.6c0,1.8,1.4,2.7,3.1,2.7c1.3,0,2.3-0.6,2.7-1.2L292.9,50.8z
	 M292.9,46.9v1.6c-0.3,0.4-1,1-1.9,1c-1,0-1.5-0.5-1.5-1.2s0.6-1.2,1.8-1.2L292.9,46.9z M299.4,50.8h2.2l3.6-8.7h-2.3l-2.4,6.3
	l-2.4-6.3h-2.4L299.4,50.8z M308.8,50.8h2.2l3.6-8.7h-2.3l-2.4,6.3l-2.4-6.3h-2.4L308.8,50.8z M318.2,50.9l-0.4,0.9
	c-0.2,0.5-0.6,0.6-1,0.6c-0.4,0-1-0.2-1-0.2l-0.5,1.8c0,0,0.8,0.4,2.1,0.4c1.2,0,1.9-0.7,2.6-2.3l4-9.9h-2.4l-2.3,6.2l-2.3-6.2h-2.4
	L318.2,50.9z"/>
<radialGradient id="SVGID_2_" cx="-99.4308" cy="235.3774" r="1" gradientTransform="matrix(209.7303 -119.4098 -109.2283 -191.8475 46589.9062 33595.9375)" gradientUnits="userSpaceOnUse">
	<stop  offset="0" style="stop-color:#5F3A9B"/>
	<stop  offset="1" style="stop-color:#5F3A9B;stop-opacity:0"/>
</radialGradient>
<path class="st3" d="M31,130c213.4,0,294.3,119.7,308,179.5H31V130z"/>
<path class="st2" d="M49.3,271.8h4c3.8,0,6.7-2.2,6.7-6.2c0-4-2.9-6.2-6.7-6.2h-4V271.8z M53.4,269.8h-1.7v-8.5h1.7
	c2.6,0,4.2,1.6,4.2,4.2C57.6,268.2,56,269.8,53.4,269.8z M63.1,261.7c0.8,0,1.4-0.5,1.4-1.3c0-0.7-0.6-1.3-1.4-1.3s-1.4,0.5-1.4,1.3
	C61.7,261.2,62.3,261.7,63.1,261.7z M61.9,271.8h2.3v-8.7h-2.3V271.8z M72.9,270.2v0.4c0,1.9-0.8,2.8-2.8,2.8c-1.1,0-2.5-0.6-3.1-1
	l-1,1.6c0.4,0.3,2,1.3,4.1,1.3c2.1,0,3.2-0.7,4-1.5c0.7-0.8,1.1-1.9,1.1-3.8v-6.9h-2.3l0,1.2h0c-0.6-0.9-1.6-1.4-2.8-1.4
	c-2.6,0-4.3,2-4.3,4.4c0,2.8,1.9,4.2,4.1,4.2C71.3,271.5,72.3,271.1,72.9,270.2L72.9,270.2z M73.1,267.3c0,1.3-0.8,2.4-2.5,2.4
	c-1.5,0-2.4-1.1-2.4-2.4c0-1.4,0.9-2.5,2.4-2.5C72.1,264.8,73.1,266,73.1,267.3z M78.6,261.7c0.8,0,1.4-0.5,1.4-1.3
	c0-0.7-0.6-1.3-1.4-1.3c-0.8,0-1.4,0.5-1.4,1.3C77.2,261.2,77.8,261.7,78.6,261.7z M77.5,271.8h2.3v-8.7h-2.3V271.8z M84.7,264.9h2
	v-1.8h-2v-2.5h-2.3v2.5h-1.3v1.8h1.3v4c0,2.3,0.7,3.1,2.5,3.1c1,0,1.7-0.3,1.8-0.3l-0.1-1.8c0,0-0.4,0.1-0.8,0.1c-0.8,0-1-0.3-1-1.7
	V264.9z M93.1,271.8h2.2v-5c0-2.7-1.4-3.9-4-3.9c-1.5,0-2.7,0.5-3.4,0.9l0.7,1.5c0.4-0.3,1.3-0.7,2.5-0.7c1.2,0,1.9,0.5,1.9,1.6v0.2
	l-2.1,0.1c-1.8,0.1-3.6,0.8-3.6,2.6c0,1.8,1.4,2.7,3.1,2.7c1.3,0,2.3-0.6,2.7-1.2L93.1,271.8z M93,267.9v1.6c-0.3,0.4-1,1-1.9,1
	c-1,0-1.5-0.5-1.5-1.2c0-0.7,0.6-1.2,1.8-1.2L93,267.9z M97.4,271.8h2.3v-12.4h-2.3V271.8z M101.9,271.8h2.3v-12.4h-2.3V271.8z
	 M108.9,271.9l-0.4,0.9c-0.2,0.4-0.6,0.6-1,0.6c-0.4,0-1-0.2-1-0.2l-0.5,1.8c0,0,0.8,0.4,2.1,0.4c1.2,0,1.9-0.7,2.6-2.3l4.1-9.9
	h-2.4l-2.3,6.2l-2.3-6.2h-2.4L108.9,271.9z M54.9,289.8h2.3v-5.2c0-2.1-0.6-3.7-3.1-3.7c-1.3,0-2.1,0.6-2.6,1.5h-0.1l0-1.3h-2.3v8.7
	h2.3v-4.3c0-1.5,0.5-2.6,1.9-2.6c1.3,0,1.6,1,1.6,2.3V289.8z M64.4,289.8h2.2v-5c0-2.7-1.4-3.9-4-3.9c-1.5,0-2.7,0.5-3.4,0.9
	l0.7,1.5c0.4-0.3,1.3-0.7,2.5-0.7c1.2,0,1.9,0.5,1.9,1.6v0.2l-2.1,0.1c-1.8,0.1-3.6,0.8-3.6,2.6c0,1.8,1.4,2.7,3.1,2.7
	c1.3,0,2.3-0.6,2.7-1.2L64.4,289.8z M64.3,285.9v1.6c-0.3,0.4-1,1-1.9,1c-1,0-1.5-0.5-1.5-1.2c0-0.7,0.6-1.2,1.8-1.2L64.3,285.9z
	 M69.8,279.7c0.8,0,1.4-0.5,1.4-1.3c0-0.7-0.6-1.3-1.4-1.3s-1.4,0.5-1.4,1.3C68.4,279.2,69,279.7,69.8,279.7z M68.7,289.8H71v-8.7
	h-2.3V289.8z M75.7,289.8h2.2l3.6-8.7h-2.3l-2.4,6.3l-2.4-6.3h-2.4L75.7,289.8z M90.8,285c0-2.3-1.6-4.1-4.3-4.1
	c-2.5,0-4.5,1.9-4.5,4.7c0,2.8,1.9,4.4,4.6,4.4c2.1,0,3.4-0.9,3.9-1.4l-0.9-1.2c-0.4,0.4-1.5,0.9-2.6,0.9c-1.3,0-2.4-0.7-2.6-2.1
	h6.4C90.8,286.2,90.8,285.5,90.8,285z M86.5,282.7c1.6,0,2,1.1,2,2.1h-4.2C84.4,283.6,85.1,282.7,86.5,282.7z"/>
<linearGradient id="SVGID_3_" gradientUnits="userSpaceOnUse" x1="28.9848" y1="336.6514" x2="28.9848" y2="82.694" gradientTransform="matrix(1 0 0 -1 0 337.2)">
	<stop  offset="0" style="stop-color:#4186BF"/>
	<stop  offset="1" style="stop-color:#4186BF;stop-opacity:0"/>
</linearGradient>
<path class="st4" d="M27,8.2l-5.6,5.6l-2.8-2.8l9-9L29,0.5L30.4,2l9,9l-2.8,2.8L31,8.2V310h-4V8.2z"/>
<linearGradient id="SVGID_4_" gradientUnits="userSpaceOnUse" x1="339" y1="27.426" x2="27" y2="27.426" gradientTransform="matrix(1 0 0 -1 0 337.2)">
	<stop  offset="0" style="stop-color:#D3AD0F"/>
	<stop  offset="1" style="stop-color:#D3AD0F;stop-opacity:0"/>
</linearGradient>
<path class="st5" d="M331.6,308l-5.8-5.8l2.8-2.8l9,9l1.4,1.4l-1.4,1.4l-9,9l-2.8-2.8l5.3-5.3H27v-4H331.6z"/>
<path class="st6" d="M78.7,334h2.4v-4.9h1.6c2.3,0,4.4-1.2,4.4-3.8c0-2.6-2.1-3.7-4.4-3.7h-4V334z M82.4,327.3h-1.4v-3.9h1.3
	c1.2,0,2.3,0.5,2.3,1.9C84.7,326.7,83.7,327.3,82.4,327.3z M96.6,329.2c0-2.3-1.6-4.1-4.3-4.1c-2.5,0-4.5,1.9-4.5,4.7
	c0,2.8,1.9,4.4,4.6,4.4c2.1,0,3.4-0.9,3.9-1.4l-0.9-1.2c-0.4,0.4-1.5,0.9-2.6,0.9c-1.3,0-2.4-0.7-2.6-2.1h6.4
	C96.5,330.4,96.6,329.7,96.6,329.2z M92.2,326.8c1.6,0,2,1.1,2,2.1h-4.2C90.1,327.8,90.9,326.8,92.2,326.8z M98.3,334h2.3v-4.3
	c0-0.7,0.1-1.3,0.3-1.7c0.3-0.6,0.8-0.8,1.5-0.8c0.3,0,0.7,0,1,0.1h0.1l0.2-2c0,0-0.3-0.2-0.9-0.2c-0.9,0-1.8,0.6-2.1,1.6h-0.1
	l0-1.4h-2.3V334z M109.8,327.6l1-1.5c-0.7-0.5-1.6-0.9-3.1-0.9c-1.7,0-3.1,1-3.1,2.6c0,1.3,0.7,2.1,2,2.5l1,0.3
	c1.1,0.4,1.5,0.6,1.5,1.1c0,0.5-0.4,0.8-1.3,0.8c-0.7,0-1.6-0.4-2.6-1.2l-0.9,1.6c0.7,0.8,2.2,1.4,3.5,1.4c2.1,0,3.5-1.2,3.5-2.9
	c0-1.3-0.7-1.9-2.6-2.6l-0.6-0.2c-1-0.3-1.3-0.6-1.3-1c0-0.4,0.4-0.7,1.1-0.7C108.6,326.9,109.3,327.2,109.8,327.6z M117,334.2
	c2.7,0,4.7-1.8,4.7-4.5s-2.1-4.6-4.7-4.6c-2.7,0-4.7,1.8-4.7,4.6S114.4,334.2,117,334.2z M119.4,329.6c0,1.5-0.9,2.7-2.3,2.7
	c-1.5,0-2.3-1.2-2.3-2.7c0-1.5,0.8-2.6,2.3-2.6C118.5,327,119.4,328.1,119.4,329.6z M129.4,334h2.3v-5.2c0-2.1-0.6-3.7-3.1-3.7
	c-1.3,0-2.1,0.6-2.6,1.5h-0.1l0-1.3h-2.3v8.7h2.3v-4.3c0-1.5,0.5-2.6,1.9-2.6c1.3,0,1.6,1,1.6,2.3V334z M139.1,334h2.2v-5
	c0-2.7-1.4-3.9-4-3.9c-1.5,0-2.7,0.5-3.4,0.9l0.7,1.5c0.4-0.3,1.3-0.7,2.5-0.7c1.2,0,1.9,0.5,1.9,1.6v0.2l-2.1,0.1
	c-1.8,0.1-3.6,0.8-3.6,2.6s1.4,2.7,3.1,2.7c1.3,0,2.3-0.6,2.7-1.2L139.1,334z M139,330.1v1.6c-0.3,0.4-1,1-1.9,1
	c-1,0-1.5-0.5-1.5-1.2c0-0.7,0.6-1.2,1.8-1.2L139,330.1z M143.6,334h2.3v-12.4h-2.3V334z M149.6,323.9c0.8,0,1.4-0.5,1.4-1.3
	c0-0.7-0.6-1.3-1.4-1.3s-1.4,0.5-1.4,1.3C148.2,323.4,148.8,323.9,149.6,323.9z M148.4,334h2.3v-8.7h-2.3V334z M152.5,334h7.8v-1.8
	h-4.9l4.7-5.5v-1.3h-7.4v1.8h4.5l-4.7,5.5V334z M170.2,329.2c0-2.3-1.6-4.1-4.3-4.1c-2.5,0-4.5,1.9-4.5,4.7c0,2.8,1.9,4.4,4.6,4.4
	c2.1,0,3.4-0.9,3.9-1.4l-0.9-1.2c-0.4,0.4-1.5,0.9-2.6,0.9c-1.3,0-2.4-0.7-2.6-2.1h6.4C170.2,330.4,170.2,329.7,170.2,329.2z
	 M165.9,326.8c1.6,0,2,1.1,2,2.1h-4.2C163.8,327.8,164.6,326.8,165.9,326.8z M178.7,334h2.2v-12.4h-2.3v3.4c0,0.6,0,1.1,0,1.5h0
	c-0.6-0.9-1.6-1.4-2.8-1.4c-2.6,0-4.3,2-4.3,4.5c0,2.6,1.6,4.6,4.1,4.6c1.2,0,2.3-0.5,3-1.6h0.1L178.7,334z M176.3,332.3
	c-1.5,0-2.4-1.2-2.4-2.7c0-1.5,0.9-2.7,2.4-2.7c1.5,0,2.4,1.3,2.4,2.7C178.7,331.3,177.7,332.3,176.3,332.3z M195.5,329.2
	c0-2.3-1.6-4.1-4.3-4.1c-2.5,0-4.5,1.9-4.5,4.7c0,2.8,1.9,4.4,4.6,4.4c2.1,0,3.4-0.9,3.9-1.4l-0.9-1.2c-0.4,0.4-1.5,0.9-2.6,0.9
	c-1.3,0-2.4-0.7-2.6-2.1h6.4C195.4,330.4,195.5,329.7,195.5,329.2z M191.1,326.8c1.6,0,2,1.1,2,2.1H189
	C189.1,327.8,189.8,326.8,191.1,326.8z M203,334h2.3v-5.2c0-2.1-0.6-3.7-3.1-3.7c-1.3,0-2.1,0.6-2.6,1.5h-0.1l0-1.3h-2.3v8.7h2.3
	v-4.3c0-1.5,0.5-2.6,1.9-2.6c1.3,0,1.6,1,1.6,2.3V334z M214.2,332.3v0.4c0,1.9-0.8,2.8-2.8,2.8c-1.1,0-2.5-0.6-3.1-1l-1,1.6
	c0.4,0.3,2,1.3,4,1.3c2.1,0,3.2-0.7,4-1.5c0.7-0.8,1.1-1.9,1.1-3.8v-6.9h-2.3l0,1.2h0c-0.6-0.9-1.6-1.4-2.8-1.4
	c-2.6,0-4.3,2-4.3,4.4c0,2.8,1.9,4.2,4.1,4.2C212.5,333.7,213.6,333.2,214.2,332.3L214.2,332.3z M214.3,329.5c0,1.3-0.8,2.4-2.5,2.4
	c-1.5,0-2.4-1.1-2.4-2.4c0-1.4,0.9-2.5,2.4-2.5S214.3,328.2,214.3,329.5z M224,334h2.2v-5c0-2.7-1.4-3.9-4-3.9
	c-1.5,0-2.7,0.5-3.4,0.9l0.7,1.5c0.4-0.3,1.3-0.7,2.5-0.7c1.2,0,1.9,0.5,1.9,1.6v0.2l-2.1,0.1c-1.8,0.1-3.6,0.8-3.6,2.6
	s1.4,2.7,3.1,2.7c1.3,0,2.3-0.6,2.7-1.2L224,334z M223.9,330.1v1.6c-0.3,0.4-1,1-1.9,1c-1,0-1.5-0.5-1.5-1.2c0-0.7,0.6-1.2,1.8-1.2
	L223.9,330.1z M234.9,332.3v0.4c0,1.9-0.8,2.8-2.8,2.8c-1.1,0-2.5-0.6-3.1-1l-1,1.6c0.4,0.3,2,1.3,4.1,1.3c2.1,0,3.2-0.7,4-1.5
	c0.7-0.8,1.1-1.9,1.1-3.8v-6.9h-2.3l0,1.2h0c-0.6-0.9-1.6-1.4-2.8-1.4c-2.6,0-4.3,2-4.3,4.4c0,2.8,1.9,4.2,4.1,4.2
	C233.3,333.7,234.3,333.2,234.9,332.3L234.9,332.3z M235.1,329.5c0,1.3-0.8,2.4-2.5,2.4c-1.5,0-2.4-1.1-2.4-2.4
	c0-1.4,0.9-2.5,2.4-2.5C234.1,326.9,235.1,328.2,235.1,329.5z M247.9,329.2c0-2.3-1.6-4.1-4.3-4.1c-2.5,0-4.5,1.9-4.5,4.7
	c0,2.8,1.9,4.4,4.6,4.4c2.1,0,3.4-0.9,3.9-1.4l-0.9-1.2c-0.4,0.4-1.5,0.9-2.6,0.9c-1.3,0-2.4-0.7-2.6-2.1h6.4
	C247.9,330.4,247.9,329.7,247.9,329.2z M243.6,326.8c1.6,0,2,1.1,2,2.1h-4.2C241.5,327.8,242.2,326.8,243.6,326.8z M259.9,325.1
	c-1.3,0-2.2,0.6-2.8,1.7c-0.4-1.2-1.2-1.7-2.4-1.7c-1.1,0-2.2,0.7-2.6,1.5H252l0-1.3h-2.3v8.7h2.3v-4.5c0-1.4,0.5-2.5,1.7-2.5
	c1.1,0,1.4,0.9,1.4,2.1v4.9h2.3v-4.5c0-1.5,0.6-2.5,1.7-2.5c1.1,0,1.4,1,1.4,2.1v4.9h2.3v-5.3C262.8,326.7,262.2,325.1,259.9,325.1z
	 M273.4,329.2c0-2.3-1.6-4.1-4.3-4.1c-2.5,0-4.5,1.9-4.5,4.7c0,2.8,1.9,4.4,4.6,4.4c2.1,0,3.4-0.9,3.9-1.4l-0.9-1.2
	c-0.4,0.4-1.5,0.9-2.6,0.9c-1.3,0-2.4-0.7-2.6-2.1h6.4C273.3,330.4,273.4,329.7,273.4,329.2z M269.1,326.8c1.6,0,2,1.1,2,2.1h-4.2
	C267,327.8,267.7,326.8,269.1,326.8z M280.9,334h2.3v-5.2c0-2.1-0.6-3.7-3.1-3.7c-1.3,0-2.1,0.6-2.6,1.5h-0.1l0-1.3h-2.3v8.7h2.3
	v-4.3c0-1.5,0.5-2.6,1.9-2.6c1.3,0,1.6,1,1.6,2.3V334z M288.2,327.1h2v-1.8h-2v-2.5H286v2.5h-1.3v1.8h1.3v4c0,2.3,0.7,3.1,2.5,3.1
	c1,0,1.7-0.3,1.8-0.3l-0.1-1.8c0,0-0.4,0.1-0.8,0.1c-0.8,0-1-0.3-1-1.7V327.1z"/>
<path class="st6" d="M13,229.5v-4c0-3.8-2.2-6.7-6.2-6.7c-4,0-6.2,2.9-6.2,6.7v4H13z M11,225.5v1.7H2.5v-1.7c0-2.6,1.6-4.2,4.2-4.2
	C9.4,221.3,11,222.9,11,225.5z M2.9,215.6c0-0.8-0.5-1.4-1.3-1.4c-0.7,0-1.3,0.6-1.3,1.4c0,0.8,0.5,1.4,1.3,1.4
	C2.4,217,2.9,216.4,2.9,215.6z M13,216.7v-2.3H4.3v2.3H13z M11.3,205.4h0.4c1.9,0,2.8,0.8,2.8,2.8c0,1.1-0.6,2.5-1,3.1l1.6,1
	c0.3-0.4,1.3-2,1.3-4.1c0-2.1-0.7-3.2-1.5-4c-0.8-0.7-1.9-1.1-3.8-1.1H4.3v2.3l1.2,0v0c-0.9,0.6-1.4,1.6-1.4,2.8
	c0,2.6,2,4.3,4.4,4.3c2.8,0,4.2-1.9,4.2-4.1C12.7,207.1,12.2,206.1,11.3,205.4L11.3,205.4z M8.5,205.3c1.3,0,2.4,0.8,2.4,2.5
	c0,1.5-1.1,2.4-2.4,2.4c-1.4,0-2.5-0.9-2.5-2.4C5.9,206.2,7.2,205.3,8.5,205.3z M2.9,199.5c0-0.8-0.5-1.4-1.3-1.4
	c-0.7,0-1.3,0.6-1.3,1.4s0.5,1.4,1.3,1.4C2.4,200.9,2.9,200.3,2.9,199.5z M13,200.7v-2.3H4.3v2.3H13z M6.1,193.2v-2H4.3v2H1.8v2.3
	h2.5v1.3h1.8v-1.3h4c2.3,0,3.1-0.7,3.1-2.5c0-1-0.3-1.7-0.3-1.8l-1.8,0.1c0,0,0.1,0.4,0.1,0.8c0,0.8-0.3,1-1.7,1H6.1z M13,184.6
	v-2.2H8c-2.7,0-3.9,1.4-3.9,4c0,1.5,0.5,2.7,0.9,3.4l1.5-0.7c-0.3-0.4-0.7-1.3-0.7-2.5c0-1.2,0.5-1.9,1.6-1.9h0.2l0.1,2.1
	c0.1,1.8,0.8,3.6,2.6,3.6s2.7-1.4,2.7-3.1c0-1.3-0.6-2.3-1.2-2.7L13,184.6z M9.1,184.6h1.6c0.4,0.3,1,1,1,1.9c0,1-0.5,1.5-1.2,1.5
	s-1.2-0.6-1.2-1.8L9.1,184.6z M13,180v-2.3H0.6v2.3H13z M4.3,169.1v2.3h12v-2.3h-3c-0.6,0-1,0-1.4,0l0,0c0.9-0.7,1.3-1.5,1.3-2.8
	c0-2.6-2-4.3-4.5-4.3c-2.6,0-4.6,1.6-4.6,4.1c0,1.2,0.4,2.2,1.4,2.9l0,0L4.3,169.1z M6,166.8c0-1.5,1.2-2.4,2.7-2.4
	c1.5,0,2.7,0.9,2.7,2.4c0,1.5-1.3,2.4-2.7,2.4C7,169.2,6,168.2,6,166.8z M4.3,158.1v2.3h5.2c2.1,0,3.7-0.6,3.7-3.1
	c0-1.3-0.5-2.2-1.4-2.7l1.2,0v-2.2H4.3v2.3h4.4c1.5,0,2.6,0.5,2.6,1.9c0,1.3-1,1.5-2.3,1.5H4.3z M13,149.9v-2.3H8.7
	c-0.7,0-1.3-0.1-1.7-0.3c-0.6-0.3-0.8-0.8-0.8-1.5c0-0.3,0-0.7,0.1-1v-0.1l-2-0.2c0,0-0.2,0.3-0.2,0.9c0,0.9,0.6,1.8,1.6,2.1v0.1
	l-1.4,0v2.3H13z M10.3,136.5c0,0,0.9,0.8,0.9,2.3s-1,2.6-2.6,2.6s-2.6-1.1-2.6-2.5c0-1.4,0.7-2.1,0.9-2.4L5.2,136
	c-0.2,0.2-1.1,1.1-1.1,3.3c0,2.3,1.7,4.6,4.6,4.6c2.8,0,4.5-2.2,4.5-4.6c0-2.3-1-3.2-1.2-3.4L10.3,136.5z M4.1,129.4
	c0,1.3,0.6,2.1,1.5,2.6v0h-5v2.3H13V132H8.7c-1.5,0-2.6-0.5-2.6-1.9c0-1.3,1-1.6,2.3-1.6H13v-2.3H7.8C5.7,126.3,4.1,126.9,4.1,129.4
	z M13,118.8v-2.2H8c-2.7,0-3.9,1.4-3.9,4c0,1.5,0.5,2.7,0.9,3.4l1.5-0.7c-0.3-0.4-0.7-1.3-0.7-2.5c0-1.2,0.5-1.9,1.6-1.9h0.2
	l0.1,2.1c0.1,1.8,0.8,3.6,2.6,3.6s2.7-1.4,2.7-3.1c0-1.3-0.6-2.3-1.2-2.7L13,118.8z M9.1,118.9h1.6c0.4,0.3,1,1,1,1.9
	c0,1-0.5,1.5-1.2,1.5s-1.2-0.6-1.2-1.8L9.1,118.9z M6.6,109.4l-1.5-1c-0.5,0.7-0.9,1.6-0.9,3.1c0,1.7,1,3.1,2.6,3.1
	c1.3,0,2.1-0.7,2.5-2l0.3-1c0.4-1.1,0.6-1.5,1.1-1.5c0.5,0,0.8,0.4,0.8,1.3c0,0.7-0.4,1.6-1.2,2.6l1.6,0.9c0.8-0.7,1.4-2.2,1.4-3.5
	c0-2.1-1.2-3.5-2.9-3.5c-1.3,0-1.9,0.7-2.6,2.6l-0.2,0.6c-0.3,1-0.6,1.3-1,1.3c-0.4,0-0.7-0.4-0.7-1.1
	C5.9,110.6,6.2,109.9,6.6,109.4z M2.9,105.2c0-0.8-0.5-1.4-1.3-1.4c-0.7,0-1.3,0.6-1.3,1.4s0.5,1.4,1.3,1.4
	C2.4,106.5,2.9,106,2.9,105.2z M13,106.3V104H4.3v2.3H13z M13,95.8v-2.3H7.8c-2.1,0-3.7,0.6-3.7,3.1c0,1.3,0.6,2.1,1.5,2.6v0.1
	l-1.3,0v2.3H13v-2.3H8.7c-1.5,0-2.6-0.5-2.6-1.9c0-1.3,1-1.6,2.3-1.6H13z M11.3,84.6h0.4c1.9,0,2.8,0.8,2.8,2.8c0,1.1-0.6,2.5-1,3.1
	l1.6,1c0.3-0.4,1.3-2,1.3-4.1c0-2.1-0.7-3.2-1.5-4c-0.8-0.7-1.9-1.1-3.8-1.1H4.3v2.3l1.2,0v0c-0.9,0.6-1.4,1.6-1.4,2.8
	c0,2.6,2,4.3,4.4,4.3c2.8,0,4.2-1.9,4.2-4.1C12.7,86.3,12.2,85.2,11.3,84.6L11.3,84.6z M8.5,84.5c1.3,0,2.4,0.8,2.4,2.5
	c0,1.5-1.1,2.4-2.4,2.4c-1.4,0-2.5-0.9-2.5-2.4S7.2,84.5,8.5,84.5z"/>
<linearGradient id="SVGID_5_" gradientUnits="userSpaceOnUse" x1="261.1244" y1="228.2154" x2="50.7787" y2="181.1183" gradientTransform="matrix(1 0 0 -1 0 337.2)">
	<stop  offset="0" style="stop-color:#13C1BF"/>
	<stop  offset="1" style="stop-color:#7E5CBF"/>
</linearGradient>
<path class="st7" d="M246.1,34c0.5-0.6,0.5-1.6-0.2-2.1l-10.3-8.7c-0.6-0.5-1.6-0.5-2.1,0.2c-0.5,0.6-0.5,1.6,0.2,2.1l9.1,7.8
	l-7.8,9.1c-0.5,0.6-0.5,1.6,0.2,2.1c0.6,0.5,1.6,0.5,2.1-0.2L246.1,34z M68.5,246.1c0-1,0.1-1.9,0.2-2.9l-3-0.2
	c-0.1,1-0.1,2-0.2,2.9L68.5,246.1z M69,237.2c0.1-1.9,0.2-3.9,0.3-5.9l-3-0.2c-0.1,2-0.2,4-0.3,5.9L69,237.2z M69.7,225.4
	c0.1-1.9,0.2-3.9,0.4-5.9l-3-0.2c-0.1,2-0.2,4-0.4,5.9L69.7,225.4z M70.4,213.6c0.1-2,0.3-3.9,0.4-5.9l-3-0.2c-0.1,2-0.3,4-0.4,5.9
	L70.4,213.6z M71.2,201.7c0.1-2,0.3-3.9,0.4-5.9l-3-0.2c-0.1,2-0.3,4-0.4,5.9L71.2,201.7z M72,189.9c0.1-2,0.3-3.9,0.4-5.9l-3-0.2
	c-0.1,2-0.3,4-0.4,5.9L72,189.9z M72.9,178.1c0.2-2,0.3-3.9,0.5-5.9l-3-0.2c-0.2,2-0.3,3.9-0.5,5.9L72.9,178.1z M73.9,166.3
	c0.2-2,0.3-3.9,0.5-5.9l-3-0.3c-0.2,2-0.3,3.9-0.5,5.9L73.9,166.3z M74.9,154.5c0.2-2,0.3-3.9,0.5-5.9l-3-0.3
	c-0.2,2-0.4,3.9-0.5,5.9L74.9,154.5z M75.9,142.7c0.2-2,0.4-3.9,0.6-5.9l-3-0.3c-0.2,2-0.4,3.9-0.6,5.9L75.9,142.7z M77.1,130.9
	c0.2-2,0.4-3.9,0.6-5.9l-3-0.3c-0.2,1.9-0.4,3.9-0.6,5.9L77.1,130.9z M78.3,119.1c0.2-2,0.4-3.9,0.7-5.9l-3-0.3
	c-0.2,1.9-0.4,3.9-0.7,5.9L78.3,119.1z M79.7,107.3c0.2-2,0.5-4,0.7-5.9l-3-0.4c-0.3,1.9-0.5,3.9-0.8,5.9L79.7,107.3z M81.2,95.6
	c0.3-2,0.6-4,0.9-5.8l-3-0.5c-0.3,1.9-0.6,3.9-0.9,5.9L81.2,95.6z M83,83.9c0.3-2,0.7-4,1-5.8l-2.9-0.6c-0.4,1.9-0.7,3.8-1.1,5.9
	L83,83.9z M85.3,72.3c0.5-2.1,0.9-4,1.4-5.7l-2.9-0.8c-0.5,1.7-1,3.7-1.5,5.8L85.3,72.3z M88.6,61.3c0.5-1,0.9-1.7,1.3-2.1l-2.2-2
	c-0.7,0.7-1.3,1.7-1.8,2.8L88.6,61.3z M89.9,59.2c0.4-0.4,1.1-0.9,2.1-1.5l-1.5-2.6c-1.1,0.6-2.1,1.3-2.8,2.1L89.9,59.2z M97.3,55.4
	c1.7-0.6,3.6-1.2,5.8-1.8l-0.8-2.9c-2.2,0.6-4.2,1.2-6,1.8L97.3,55.4z M108.9,52.2c1.9-0.4,3.9-0.9,6-1.3l-0.6-2.9
	c-2.1,0.4-4.1,0.9-6,1.3L108.9,52.2z M120.9,49.7c1.9-0.4,3.9-0.7,6-1.1l-0.5-3c-2.1,0.4-4.1,0.7-6,1.1L120.9,49.7z M132.9,47.5
	c2-0.3,4-0.7,6-1l-0.5-3c-2.1,0.3-4.1,0.6-6.1,1L132.9,47.5z M144.9,45.6c2-0.3,4-0.6,6-0.9l-0.4-3c-2,0.3-4.1,0.6-6.1,0.9
	L144.9,45.6z M157,43.9c2-0.3,4-0.5,6.1-0.8l-0.4-3c-2,0.3-4.1,0.5-6.1,0.8L157,43.9z M169.1,42.3c2-0.3,4-0.5,6.1-0.8l-0.4-3
	c-2,0.2-4.1,0.5-6.1,0.8L169.1,42.3z M181.3,40.8c2-0.2,4.1-0.5,6.1-0.7l-0.3-3c-2,0.2-4.1,0.5-6.1,0.7L181.3,40.8z M193.4,39.5
	c2-0.2,4.1-0.4,6.1-0.7l-0.3-3c-2,0.2-4,0.4-6.1,0.7L193.4,39.5z M205.6,38.2c2-0.2,4.1-0.4,6.1-0.6l-0.3-3c-2,0.2-4,0.4-6.1,0.6
	L205.6,38.2z M217.8,36.9c2.1-0.2,4.1-0.4,6.1-0.6l-0.3-3c-2,0.2-4,0.4-6.1,0.6L217.8,36.9z M229.9,35.8c2.1-0.2,4.1-0.4,6.1-0.5
	l-0.3-3c-2,0.2-4,0.4-6.1,0.5L229.9,35.8z M242.1,34.7c1-0.1,2-0.2,3-0.2l-0.2-3c-1,0.1-2,0.2-3,0.2L242.1,34.7z"/>
<rect x="30" y="2" class="st0" width="308" height="307"/>
<path class="st8" d="M27,8.2l-5.6,5.6l-2.8-2.8l9-9L29,0.5L30.4,2l9,9l-2.8,2.8L31,8.2V310h-4V8.2z"/>
<path class="st9" d="M331.6,308l-5.8-5.8l2.8-2.8l9,9l1.4,1.4l-1.4,1.4l-9,9l-2.8-2.8l5.3-5.3H27v-4H331.6z"/>
</svg>
