<?xml version="1.0" encoding="utf-8"?>
<!-- Generator: Adobe Illustrator 25.1.0, SVG Export Plug-In . SVG Version: 6.00 Build 0)  -->
<svg version="1.1" id="Layer_1" xmlns="http://www.w3.org/2000/svg" xmlns:xlink="http://www.w3.org/1999/xlink" x="0px" y="0px"
	 viewBox="0 0 1180 746" style="enable-background:new 0 0 1180 746;" xml:space="preserve">
<style type="text/css">
	.st0{fill:none;stroke:#143F63;stroke-width:2;}
	.st1{fill-rule:evenodd;clip-rule:evenodd;fill:url(#SVGID_1_);}
	.st2{fill-rule:evenodd;clip-rule:evenodd;fill:url(#SVGID_2_);}
	.st3{fill:#676E73;}
	.st4{fill:url(#SVGID_3_);fill-opacity:0.5;}
	.st5{fill:url(#SVGID_4_);fill-opacity:0.65;}
	.st6{fill:#FFFFFF;}
	.st7{fill-rule:evenodd;clip-rule:evenodd;fill:#71A4CF;}
	.st8{fill-rule:evenodd;clip-rule:evenodd;fill:#DCBD3F;}
</style>
<path class="st0" d="M117,1v694"/>
<path class="st0" d="M175.9,1v694"/>
<path class="st0" d="M234.9,1v694"/>
<path class="st0" d="M293.8,1v694"/>
<path class="st0" d="M352.8,1v694"/>
<path class="st0" d="M411.7,1v694"/>
<path class="st0" d="M470.6,1v694"/>
<path class="st0" d="M529.6,1v694"/>
<path class="st0" d="M588.5,1v694"/>
<path class="st0" d="M647.5,1v694"/>
<path class="st0" d="M706.4,1v694"/>
<path class="st0" d="M765.4,1v694"/>
<path class="st0" d="M824.3,1v694"/>
<path class="st0" d="M883.2,1v694"/>
<path class="st0" d="M942.2,1v694"/>
<path class="st0" d="M1001.1,1v694"/>
<path class="st0" d="M1060.1,1v694"/>
<path class="st0" d="M1119,1v694"/>
<path class="st0" d="M1175,376H61"/>
<path class="st0" d="M1175,429H61"/>
<path class="st0" d="M1175,482H61"/>
<path class="st0" d="M1175,535H61"/>
<path class="st0" d="M1175,588H61"/>
<path class="st0" d="M1175,641H61"/>
<path class="st0" d="M1175,58H61"/>
<path class="st0" d="M1175,111H61"/>
<path class="st0" d="M1175,164H61"/>
<path class="st0" d="M1175,217H61"/>
<path class="st0" d="M1175,270H61"/>
<path class="st0" d="M1175,323H61"/>
<linearGradient id="SVGID_1_" gradientUnits="userSpaceOnUse" x1="59.9805" y1="650.4427" x2="59.9805" y2="35.2" gradientTransform="matrix(1 0 0 -1 0 745.2)">
	<stop  offset="0" style="stop-color:#4186BF"/>
	<stop  offset="1" style="stop-color:#4186BF;stop-opacity:0"/>
</linearGradient>
<path class="st1" d="M57,12.2L46.1,23.1l-4.2-4.2l16-16L60,0.8l2.1,2.1l16,16l-4.2,4.2L63,12.3V695h-6V12.2z"/>
<linearGradient id="SVGID_2_" gradientUnits="userSpaceOnUse" x1="1179.24" y1="51.0935" x2="57" y2="51.0935" gradientTransform="matrix(1 0 0 -1 0 745.2)">
	<stop  offset="0" style="stop-color:#D3AD0F"/>
	<stop  offset="1" style="stop-color:#D3AD0F;stop-opacity:0"/>
</linearGradient>
<path class="st2" d="M1167.7,691l-10.8-10.8l4.2-4.2l16,16l2.1,2.1l-2.1,2.1l-16,16l-4.2-4.2l11-11H57v-6H1167.7z"/>
<path class="st3" d="M17,441.3V436c0-5.1-3-8.9-8.3-8.9c-5.3,0-8.3,3.9-8.3,8.9l0,5.3H17z M14.4,435.9v2.3H3.1v-2.3
	c0-3.5,2.2-5.6,5.7-5.6C12.2,430.3,14.4,432.5,14.4,435.9z M3.5,422.8c0-1.1-0.7-1.8-1.7-1.8c-1,0-1.7,0.8-1.7,1.8
	c0,1.1,0.7,1.8,1.7,1.8C2.8,424.6,3.5,423.9,3.5,422.8z M17,424.3v-3.1H5.4v3.1H17z M14.8,409.4h0.6c2.6,0,3.8,1.1,3.8,3.7
	c0,1.5-0.8,3.4-1.4,4.1l2.1,1.3c0.4-0.6,1.7-2.6,1.7-5.4c0-2.8-1-4.3-2-5.3c-1-1-2.5-1.5-5-1.5H5.4v3l1.6,0v0
	c-1.2,0.8-1.8,2.1-1.8,3.7c0,3.5,2.7,5.7,5.9,5.7c3.7,0,5.6-2.5,5.6-5.4C16.6,411.6,16,410.2,14.8,409.4L14.8,409.4z M11,409.2
	c1.8,0,3.2,1.1,3.2,3.3c0,2-1.5,3.2-3.2,3.2c-1.9,0-3.4-1.2-3.4-3.2C7.6,410.5,9.3,409.2,11,409.2z M3.5,401.6
	c0-1.1-0.7-1.8-1.7-1.8c-1,0-1.7,0.8-1.7,1.8c0,1.1,0.7,1.8,1.7,1.8C2.8,403.4,3.5,402.6,3.5,401.6z M17,403.1V400H5.4v3.1H17z
	 M7.8,393.3v-2.7H5.4v2.7H2.1v3h3.3v1.7h2.4v-1.7h5.4c3,0,4.1-1,4.1-3.4c0-1.3-0.3-2.2-0.4-2.4l-2.4,0.2c0,0,0.2,0.5,0.2,1.1
	c0,1.1-0.4,1.4-2.2,1.4H7.8z M17,381.8v-3h-6.6c-3.6,0-5.2,1.8-5.2,5.4c0,2,0.7,3.6,1.2,4.5l2-0.9c-0.4-0.5-1-1.8-1-3.3
	c0-1.6,0.7-2.6,2.2-2.6h0.3l0.2,2.8c0.2,2.4,1.1,4.8,3.5,4.8s3.6-1.8,3.6-4.1c0-1.7-0.8-3.1-1.6-3.6L17,381.8z M11.8,381.9h2.1
	c0.6,0.4,1.3,1.3,1.3,2.5c0,1.3-0.7,2-1.7,2s-1.5-0.8-1.6-2.4L11.8,381.9z M17,375.8v-3H0.4v3H17z M5.4,361.4v3.1h16v-3h-4
	c-0.8,0-1.3,0-1.9,0l0,0c1.2-1,1.8-1.9,1.8-3.7c0-3.5-2.7-5.7-6-5.7c-3.5,0-6.1,2.1-6.1,5.5c0,1.5,0.5,2.9,1.9,3.9l0,0L5.4,361.4z
	 M7.6,358.4c0-2,1.6-3.2,3.6-3.2c1.9,0,3.6,1.2,3.6,3.1c0,2-1.7,3.2-3.6,3.2C9,361.5,7.6,360.2,7.6,358.4z M5.4,346.8v3.1h6.9
	c2.8,0,4.9-0.8,4.9-4.2c0-1.7-0.7-2.9-1.8-3.6l1.6,0v-3H5.4v3.1h5.9c1.9,0,3.4,0.7,3.4,2.5c0,1.8-1.4,2.1-3.1,2.1H5.4z M17,336v-3
	h-5.7c-0.9,0-1.7-0.1-2.3-0.4c-0.7-0.4-1.1-1.1-1.1-2c0-0.4,0-0.9,0.1-1.3v-0.1l-2.7-0.2c0,0-0.2,0.4-0.2,1.2c0,1.2,0.8,2.4,2.1,2.9
	v0.1l-1.9,0v3H17z M13.4,318.3c0,0,1.2,1.1,1.2,3.1s-1.4,3.5-3.5,3.5c-2.1,0-3.4-1.5-3.4-3.3c0-1.8,0.9-2.8,1.2-3.2l-2.3-0.8
	c-0.3,0.3-1.5,1.5-1.5,4.4c0,3.1,2.3,6.1,6.1,6.1c3.8,0,6-2.9,6-6.1c0-3.1-1.3-4.3-1.6-4.5L13.4,318.3z M5.2,308.8
	c0,1.7,0.7,2.9,2,3.5v0H0.4v3H17v-3h-5.8c-1.9,0-3.5-0.6-3.5-2.5c0-1.8,1.4-2.1,3.1-2.1H17v-3.1h-6.9C7.3,304.6,5.2,305.5,5.2,308.8
	z M17,294.8v-3h-6.6c-3.6,0-5.2,1.8-5.2,5.4c0,2,0.7,3.6,1.2,4.5l2-0.9c-0.4-0.5-1-1.8-1-3.3c0-1.6,0.7-2.6,2.2-2.6h0.3l0.2,2.8
	c0.2,2.4,1.1,4.8,3.5,4.8s3.6-1.8,3.6-4.1c0-1.7-0.8-3.1-1.6-3.6L17,294.8z M11.8,294.9h2.1c0.6,0.4,1.3,1.3,1.3,2.5
	c0,1.3-0.7,2-1.7,2s-1.5-0.8-1.6-2.4L11.8,294.9z M8.5,282.3l-2-1.3c-0.7,1-1.2,2.1-1.2,4.2c0,2.2,1.4,4.2,3.5,4.2
	c1.7,0,2.7-0.9,3.3-2.6l0.5-1.3c0.5-1.5,0.8-1.9,1.4-1.9c0.7,0,1.1,0.5,1.1,1.7c0,1-0.5,2.2-1.6,3.5l2.1,1.2
	c1.1-0.9,1.8-2.9,1.8-4.7c0-2.9-1.6-4.6-3.8-4.6c-1.7,0-2.6,0.9-3.4,3.5l-0.3,0.8c-0.4,1.3-0.8,1.7-1.3,1.7c-0.6,0-0.9-0.5-0.9-1.5
	C7.5,284,8,283,8.5,282.3z M3.5,276.7c0-1.1-0.7-1.8-1.7-1.8c-1,0-1.7,0.8-1.7,1.8c0,1.1,0.7,1.8,1.7,1.8
	C2.8,278.6,3.5,277.8,3.5,276.7z M17,278.3v-3.1H5.4v3.1H17z M17,264.3v-3.1h-6.9c-2.8,0-4.9,0.8-4.9,4.2c0,1.7,0.7,2.9,2,3.5v0.1
	l-1.8,0v3.1H17V269h-5.8c-1.9,0-3.5-0.6-3.5-2.5c0-1.8,1.4-2.1,3.1-2.1H17z M14.8,249.5h0.6c2.6,0,3.8,1.1,3.8,3.7
	c0,1.5-0.8,3.4-1.4,4.1l2.1,1.3c0.4-0.6,1.7-2.6,1.7-5.4c0-2.8-1-4.3-2-5.3c-1-1-2.5-1.5-5-1.5H5.4v3l1.6,0v0
	c-1.2,0.8-1.8,2.1-1.8,3.7c0,3.5,2.7,5.7,5.9,5.7c3.7,0,5.6-2.5,5.6-5.4C16.6,251.8,16,250.4,14.8,249.5L14.8,249.5z M11,249.4
	c1.8,0,3.2,1.1,3.2,3.3c0,2-1.5,3.2-3.2,3.2c-1.9,0-3.4-1.2-3.4-3.2C7.6,250.6,9.3,249.4,11,249.4z"/>
<path class="st3" d="M478,741h3.1v-6.5h2.2c3.1,0,5.9-1.7,5.9-5.1c0-3.5-2.7-5-5.9-5H478V741z M483,732h-1.8v-5.1h1.8
	c1.6,0,3.1,0.7,3.1,2.5C486,731.2,484.6,732,483,732z M501.7,734.6c0-3.1-2.2-5.4-5.7-5.4c-3.3,0-6,2.5-6,6.2c0,3.7,2.6,5.9,6.1,5.9
	c2.8,0,4.6-1.2,5.2-1.9l-1.2-1.7c-0.6,0.5-1.9,1.2-3.5,1.2c-1.7,0-3.2-0.9-3.5-2.7h8.5C501.7,736.2,501.7,735.2,501.7,734.6z
	 M496,731.4c2.2,0,2.6,1.5,2.7,2.7h-5.6C493.2,732.7,494.2,731.4,496,731.4z M504,741h3v-5.7c0-0.9,0.1-1.7,0.4-2.3
	c0.4-0.7,1.1-1.1,2-1.1c0.4,0,0.9,0,1.3,0.1h0.1l0.2-2.7c0,0-0.4-0.2-1.2-0.2c-1.2,0-2.4,0.8-2.9,2.1H507l0-1.9h-3V741z
	 M519.3,732.5l1.3-2c-1-0.7-2.1-1.2-4.2-1.2c-2.2,0-4.2,1.4-4.2,3.5c0,1.7,0.9,2.7,2.6,3.3l1.3,0.5c1.5,0.5,1.9,0.8,1.9,1.4
	c0,0.7-0.5,1.1-1.7,1.1c-1,0-2.2-0.5-3.5-1.6l-1.2,2.1c0.9,1.1,2.9,1.8,4.7,1.8c2.9,0,4.6-1.6,4.6-3.8c0-1.7-0.9-2.6-3.5-3.4
	l-0.8-0.3c-1.3-0.4-1.7-0.8-1.7-1.3c0-0.6,0.5-0.9,1.5-0.9C517.6,731.5,518.6,732,519.3,732.5z M528.8,741.3c3.6,0,6.3-2.4,6.3-6
	s-2.7-6.1-6.3-6.1c-3.6,0-6.3,2.4-6.3,6.1S525.2,741.3,528.8,741.3z M531.9,735.2c0,2-1.2,3.6-3.1,3.6c-2,0-3.1-1.6-3.1-3.6
	c0-2,1.1-3.5,3.1-3.5C530.8,731.6,531.9,733.2,531.9,735.2z M545.2,741h3.1v-6.9c0-2.8-0.8-4.9-4.2-4.9c-1.7,0-2.9,0.7-3.5,2h-0.1
	l0-1.8h-3.1V741h3.1v-5.8c0-1.9,0.6-3.5,2.5-3.5c1.8,0,2.1,1.4,2.1,3.1V741z M558,741h3v-6.6c0-3.6-1.8-5.2-5.4-5.2
	c-2,0-3.6,0.7-4.5,1.2l0.9,2c0.5-0.4,1.8-1,3.3-1c1.6,0,2.6,0.7,2.6,2.2v0.3l-2.8,0.2c-2.4,0.2-4.8,1.1-4.8,3.5
	c0,2.4,1.8,3.6,4.1,3.6c1.7,0,3.1-0.8,3.6-1.6L558,741z M557.9,735.8v2.1c-0.4,0.6-1.3,1.3-2.5,1.3c-1.3,0-2-0.7-2-1.7
	s0.8-1.5,2.4-1.6L557.9,735.8z M564,741h3v-16.6h-3V741z M571.9,727.5c1.1,0,1.8-0.7,1.8-1.7c0-1-0.8-1.7-1.8-1.7
	c-1.1,0-1.8,0.7-1.8,1.7C570,726.8,570.8,727.5,571.9,727.5z M570.3,741h3.1v-11.6h-3.1V741z M575.6,741h10.4v-2.4h-6.5l6.2-7.4
	v-1.8H576v2.4h6l-6.3,7.4V741z M599.2,734.6c0-3.1-2.2-5.4-5.7-5.4c-3.3,0-6,2.5-6,6.2c0,3.7,2.6,5.9,6.1,5.9c2.8,0,4.6-1.2,5.2-1.9
	l-1.2-1.7c-0.6,0.5-1.9,1.2-3.5,1.2c-1.7,0-3.2-0.9-3.5-2.7h8.5C599.2,736.2,599.2,735.2,599.2,734.6z M593.5,731.4
	c2.2,0,2.6,1.5,2.7,2.7h-5.6C590.7,732.7,591.7,731.4,593.5,731.4z M610.5,741h2.9v-16.6h-3v4.6c0,0.8,0,1.4,0,2h0
	c-0.8-1.2-2.1-1.8-3.7-1.8c-3.5,0-5.7,2.7-5.7,6c0,3.5,2.1,6.1,5.5,6.1c1.6,0,3-0.6,4-2.1h0.1L610.5,741z M607.3,738.8
	c-2,0-3.2-1.6-3.2-3.6c0-1.9,1.2-3.6,3.1-3.6c2,0,3.2,1.7,3.2,3.6C610.4,737.4,609.1,738.8,607.3,738.8z M632.6,734.6
	c0-3.1-2.2-5.4-5.7-5.4c-3.3,0-6,2.5-6,6.2c0,3.7,2.6,5.9,6.1,5.9c2.8,0,4.6-1.2,5.2-1.9l-1.2-1.7c-0.6,0.5-1.9,1.2-3.5,1.2
	c-1.7,0-3.2-0.9-3.5-2.7h8.5C632.6,736.2,632.6,735.2,632.6,734.6z M626.9,731.4c2.2,0,2.6,1.5,2.7,2.7H624
	C624.1,732.7,625,731.4,626.9,731.4z M642.6,741h3.1v-6.9c0-2.8-0.8-4.9-4.2-4.9c-1.7,0-2.9,0.7-3.5,2h-0.1l0-1.8h-3.1V741h3.1v-5.8
	c0-1.9,0.6-3.5,2.5-3.5c1.8,0,2.1,1.4,2.1,3.1V741z M657.4,738.8v0.6c0,2.6-1.1,3.8-3.7,3.8c-1.5,0-3.4-0.8-4.1-1.4l-1.3,2.1
	c0.6,0.4,2.6,1.7,5.4,1.7c2.8,0,4.3-1,5.3-2c1-1,1.5-2.5,1.5-5v-9.2h-3l0,1.6h0c-0.8-1.2-2.1-1.8-3.7-1.8c-3.5,0-5.7,2.7-5.7,5.9
	c0,3.7,2.5,5.6,5.4,5.6C655.2,740.6,656.6,740,657.4,738.8L657.4,738.8z M657.6,735c0,1.8-1.1,3.2-3.3,3.2c-2,0-3.2-1.5-3.2-3.2
	c0-1.9,1.2-3.4,3.2-3.4S657.6,733.3,657.6,735z M670.4,741h3v-6.6c0-3.6-1.8-5.2-5.4-5.2c-2,0-3.6,0.7-4.5,1.2l0.9,2
	c0.5-0.4,1.8-1,3.3-1c1.6,0,2.6,0.7,2.6,2.2v0.3l-2.8,0.2c-2.4,0.2-4.8,1.1-4.8,3.5c0,2.4,1.8,3.6,4.1,3.6c1.7,0,3.1-0.8,3.6-1.6
	L670.4,741z M670.3,735.8v2.1c-0.4,0.6-1.3,1.3-2.5,1.3c-1.3,0-2-0.7-2-1.7s0.8-1.5,2.4-1.6L670.3,735.8z M684.9,738.8v0.6
	c0,2.6-1.1,3.8-3.7,3.8c-1.5,0-3.4-0.8-4.1-1.4l-1.3,2.1c0.6,0.4,2.6,1.7,5.4,1.7c2.8,0,4.3-1,5.3-2c1-1,1.5-2.5,1.5-5v-9.2h-3
	l0,1.6h0c-0.8-1.2-2.1-1.8-3.7-1.8c-3.5,0-5.7,2.7-5.7,5.9c0,3.7,2.5,5.6,5.4,5.6C682.7,740.6,684.1,740,684.9,738.8L684.9,738.8z
	 M685.1,735c0,1.8-1.1,3.2-3.3,3.2c-2,0-3.2-1.5-3.2-3.2c0-1.9,1.2-3.4,3.2-3.4C683.9,731.6,685.1,733.3,685.1,735z M702.1,734.6
	c0-3.1-2.2-5.4-5.7-5.4c-3.3,0-6,2.5-6,6.2c0,3.7,2.6,5.9,6.1,5.9c2.8,0,4.6-1.2,5.2-1.9l-1.2-1.7c-0.6,0.5-1.9,1.2-3.5,1.2
	c-1.7,0-3.2-0.9-3.5-2.7h8.5C702.1,736.2,702.1,735.2,702.1,734.6z M696.4,731.4c2.2,0,2.6,1.5,2.7,2.7h-5.6
	C693.6,732.7,694.5,731.4,696.4,731.4z M718,729.2c-1.7,0-3,0.8-3.8,2.2c-0.6-1.5-1.6-2.2-3.3-2.2c-1.5,0-2.9,0.9-3.5,2h-0.1l0-1.8
	h-3.1V741h3.1v-6c0-1.8,0.7-3.3,2.3-3.3c1.5,0,1.9,1.2,1.9,2.8v6.5h3.1v-6c0-2,0.8-3.3,2.3-3.3c1.5,0,1.8,1.4,1.8,2.8v6.5h3.1v-7
	C721.9,731.3,721.1,729.2,718,729.2z M735.9,734.6c0-3.1-2.2-5.4-5.7-5.4c-3.3,0-6,2.5-6,6.2c0,3.7,2.6,5.9,6.1,5.9
	c2.8,0,4.6-1.2,5.2-1.9l-1.2-1.7c-0.6,0.5-1.9,1.2-3.5,1.2c-1.7,0-3.2-0.9-3.5-2.7h8.5C735.9,736.2,735.9,735.2,735.9,734.6z
	 M730.2,731.4c2.2,0,2.6,1.5,2.7,2.7h-5.6C727.4,732.7,728.3,731.4,730.2,731.4z M745.9,741h3.1v-6.9c0-2.8-0.8-4.9-4.2-4.9
	c-1.7,0-2.9,0.7-3.5,2h-0.1l0-1.8h-3.1V741h3.1v-5.8c0-1.9,0.6-3.5,2.5-3.5c1.8,0,2.1,1.4,2.1,3.1V741z M755.6,731.8h2.7v-2.4h-2.7
	v-3.3h-3v3.3h-1.7v2.4h1.7v5.4c0,3,1,4.1,3.4,4.1c1.3,0,2.2-0.3,2.4-0.4l-0.2-2.4c0,0-0.5,0.2-1.1,0.2c-1.1,0-1.4-0.4-1.4-2.2V731.8
	z"/>
<radialGradient id="SVGID_3_" cx="320.0695" cy="438.2452" r="1" gradientTransform="matrix(-322.501 293.9991 311.6856 341.9022 -32198.0059 -243934.625)" gradientUnits="userSpaceOnUse">
	<stop  offset="0" style="stop-color:#13C1BF"/>
	<stop  offset="1" style="stop-color:#13C1BF;stop-opacity:0"/>
</radialGradient>
<path class="st4" d="M1174,443.5C850.4,443.5,727.8,149.8,707,3h467V443.5z"/>
<radialGradient id="SVGID_4_" cx="319.9353" cy="440.1639" r="1" gradientTransform="matrix(318 -293.0004 -310.627 -337.1306 35042.3945 242834.8594)" gradientUnits="userSpaceOnUse">
	<stop  offset="0" style="stop-color:#5F3A9B"/>
	<stop  offset="1" style="stop-color:#5F3A9B;stop-opacity:0"/>
</radialGradient>
<path class="st5" d="M62,253.5c323.6,0,446.2,293.7,467,440.5H62V253.5z"/>
<path class="st6" d="M1047.2,54h6.2c6,0,10.4-3.4,10.4-9.7c0-6.2-4.5-9.6-10.4-9.6h-6.2V54z M1053.6,50.9h-2.7V37.7h2.7
	c4.1,0,6.5,2.5,6.5,6.6C1060.1,48.4,1057.6,50.9,1053.6,50.9z M1068.8,38.3c1.3,0,2.2-0.8,2.2-2c0-1.1-0.9-2-2.2-2s-2.2,0.8-2.2,2
	C1066.7,37.5,1067.6,38.3,1068.8,38.3z M1067,54h3.6V40.4h-3.6V54z M1084.4,51.4v0.7c0,3-1.3,4.4-4.4,4.4c-1.7,0-3.9-1-4.8-1.6
	l-1.5,2.5c0.7,0.5,3.1,2,6.3,2c3.2,0,5-1.1,6.2-2.4c1.2-1.2,1.8-2.9,1.8-5.9V40.4h-3.6l0,1.9h0c-1-1.5-2.5-2.1-4.3-2.1
	c-4,0-6.7,3.1-6.7,6.9c0,4.3,2.9,6.5,6.3,6.5C1081.8,53.6,1083.5,52.8,1084.4,51.4L1084.4,51.4z M1084.6,47c0,2.1-1.3,3.8-3.9,3.8
	c-2.3,0-3.7-1.7-3.7-3.8c0-2.2,1.4-3.9,3.8-3.9C1083.2,43,1084.6,45,1084.6,47z M1093.5,38.3c1.3,0,2.2-0.8,2.2-2c0-1.1-0.9-2-2.2-2
	s-2.2,0.8-2.2,2C1091.4,37.5,1092.3,38.3,1093.5,38.3z M1091.7,54h3.6V40.4h-3.6V54z M1103.2,43.2h3.1v-2.8h-3.1v-3.9h-3.6v3.9h-2
	v2.8h2v6.3c0,3.5,1.2,4.8,3.9,4.8c1.5,0,2.6-0.4,2.7-0.4l-0.2-2.8c0,0-0.6,0.2-1.3,0.2c-1.3,0-1.6-0.5-1.6-2.6V43.2z M1116.5,54h3.4
	v-7.8c0-4.2-2.1-6-6.3-6c-2.4,0-4.3,0.8-5.3,1.4l1.1,2.3c0.6-0.4,2.1-1.1,3.9-1.1c1.9,0,3,0.8,3,2.5v0.4l-3.2,0.2
	c-2.8,0.2-5.6,1.3-5.6,4.1c0,2.8,2.1,4.3,4.8,4.3c2,0,3.6-0.9,4.1-1.9L1116.5,54z M1116.4,47.9v2.5c-0.5,0.7-1.5,1.5-2.9,1.5
	c-1.5,0-2.3-0.8-2.3-1.9c0-1.1,0.9-1.8,2.8-1.9L1116.4,47.9z M1123.4,54h3.6V34.7h-3.6V54z M1130.8,54h3.5V34.7h-3.5V54z
	 M1141.9,54.1l-0.6,1.4c-0.3,0.7-0.9,0.9-1.6,0.9c-0.7,0-1.6-0.3-1.6-0.3l-0.7,2.7c0,0,1.3,0.6,3.2,0.6c1.9,0,3-1.1,4-3.5l6.3-15.4
	h-3.7l-3.5,9.6l-3.6-9.6h-3.8L1141.9,54.1z M1072,76l1.5-2.4c-1.1-0.8-2.5-1.5-4.9-1.5c-2.6,0-4.8,1.6-4.8,4.1c0,2,1,3.2,3.1,3.9
	l1.6,0.5c1.7,0.6,2.3,1,2.3,1.7c0,0.8-0.6,1.3-2,1.3c-1.1,0-2.5-0.6-4.1-1.8l-1.5,2.4c1.1,1.3,3.4,2.1,5.5,2.1
	c3.3,0,5.4-1.9,5.4-4.5c0-2-1.1-3-4.1-4l-1-0.3c-1.5-0.5-2-1-2-1.5c0-0.6,0.6-1.1,1.8-1.1C1070.1,74.9,1071.2,75.4,1072,76z
	 M1084.6,86h3.4v-7.8c0-4.2-2.1-6-6.3-6c-2.4,0-4.3,0.8-5.3,1.4l1.1,2.3c0.6-0.4,2.1-1.1,3.9-1.1c1.9,0,3,0.8,3,2.5v0.4l-3.2,0.2
	c-2.8,0.2-5.6,1.3-5.6,4.1c0,2.8,2.1,4.3,4.8,4.3c2,0,3.6-0.9,4.1-1.9L1084.6,86z M1084.5,79.9v2.5c-0.5,0.7-1.5,1.5-2.9,1.5
	c-1.5,0-2.3-0.8-2.3-1.9c0-1.1,0.9-1.8,2.8-1.9L1084.5,79.9z M1094.9,86h3.5l5.6-13.6h-3.6l-3.7,9.8l-3.7-9.8h-3.7L1094.9,86z
	 M1109.8,86h3.5l5.6-13.6h-3.6l-3.7,9.8l-3.7-9.8h-3.7L1109.8,86z M1124.6,86.1l-0.6,1.4c-0.3,0.7-0.9,0.9-1.6,0.9
	c-0.7,0-1.6-0.3-1.6-0.3l-0.7,2.7c0,0,1.3,0.6,3.2,0.6c1.9,0,3-1.1,4-3.5l6.3-15.4h-3.7l-3.5,9.6l-3.6-9.6h-3.8L1124.6,86.1z"/>
<path class="st6" d="M96.2,629h6.2c6,0,10.4-3.4,10.4-9.7c0-6.2-4.5-9.6-10.4-9.6h-6.2V629z M102.6,625.9h-2.7v-13.2h2.7
	c4.1,0,6.5,2.5,6.5,6.6C109.1,623.4,106.6,625.9,102.6,625.9z M117.8,613.3c1.3,0,2.2-0.8,2.2-2c0-1.1-0.9-2-2.2-2
	c-1.3,0-2.2,0.8-2.2,2C115.7,612.5,116.6,613.3,117.8,613.3z M116,629h3.6v-13.6H116V629z M133.4,626.4v0.7c0,3-1.3,4.4-4.4,4.4
	c-1.7,0-3.9-1-4.8-1.6l-1.5,2.5c0.7,0.5,3.1,2,6.3,2c3.2,0,5-1.1,6.2-2.4c1.1-1.2,1.8-2.9,1.8-5.9v-10.8h-3.6l0,1.9h-0.1
	c-1-1.5-2.5-2.1-4.3-2.1c-4,0-6.7,3.1-6.7,6.9c0,4.3,2.9,6.5,6.3,6.5C130.8,628.6,132.5,627.8,133.4,626.4L133.4,626.4z M133.6,622
	c0,2.1-1.3,3.8-3.9,3.8c-2.4,0-3.7-1.7-3.7-3.8c0-2.2,1.4-3.9,3.8-3.9C132.2,618,133.6,620,133.6,622z M142.5,613.3
	c1.3,0,2.2-0.8,2.2-2c0-1.1-0.9-2-2.2-2c-1.3,0-2.2,0.8-2.2,2C140.4,612.5,141.3,613.3,142.5,613.3z M140.7,629h3.6v-13.6h-3.6V629z
	 M152.2,618.2h3.1v-2.8h-3.1v-3.9h-3.6v3.9h-2v2.8h2v6.3c0,3.5,1.1,4.8,3.9,4.8c1.5,0,2.6-0.4,2.7-0.4l-0.2-2.8c0,0-0.6,0.2-1.3,0.2
	c-1.3,0-1.6-0.5-1.6-2.6V618.2z M165.5,629h3.4v-7.8c0-4.2-2.1-6-6.3-6c-2.4,0-4.3,0.8-5.3,1.4l1.1,2.3c0.6-0.4,2.1-1.1,3.9-1.1
	c1.9,0,3,0.8,3,2.5v0.4l-3.2,0.2c-2.8,0.2-5.6,1.3-5.6,4.1s2.1,4.3,4.8,4.3c2,0,3.6-0.9,4.1-1.9L165.5,629z M165.4,622.9v2.5
	c-0.5,0.7-1.5,1.5-2.9,1.5c-1.5,0-2.4-0.8-2.4-1.9s0.9-1.8,2.8-1.9L165.4,622.9z M172.4,629h3.6v-19.3h-3.6V629z M179.8,629h3.6
	v-19.3h-3.6V629z M190.9,629.1l-0.6,1.4c-0.3,0.7-0.9,0.9-1.6,0.9c-0.7,0-1.6-0.3-1.6-0.3l-0.7,2.7c0,0,1.3,0.6,3.2,0.6
	c1.9,0,3-1.1,4-3.5l6.3-15.4h-3.7l-3.5,9.6l-3.6-9.6h-3.8L190.9,629.1z M123.6,661h3.6v-8c0-3.2-1-5.8-4.9-5.8c-2,0-3.3,0.9-4.1,2.3
	h-0.1l0-2h-3.6V661h3.6v-6.7c0-2.3,0.8-4.1,3-4.1c2.1,0,2.4,1.6,2.4,3.6V661z M138.6,661h3.4v-7.8c0-4.2-2.1-6-6.3-6
	c-2.4,0-4.3,0.8-5.3,1.4l1.1,2.3c0.6-0.4,2.1-1.1,3.9-1.1c1.9,0,3,0.8,3,2.5v0.4l-3.2,0.2c-2.8,0.2-5.6,1.3-5.6,4.1s2.1,4.3,4.8,4.3
	c2,0,3.6-0.9,4.1-1.9L138.6,661z M138.5,654.9v2.5c-0.5,0.7-1.5,1.5-2.9,1.5c-1.5,0-2.4-0.8-2.4-1.9s0.9-1.8,2.8-1.9L138.5,654.9z
	 M147.2,645.3c1.3,0,2.2-0.8,2.2-2c0-1.1-0.9-2-2.2-2c-1.3,0-2.2,0.8-2.2,2C145.1,644.5,146,645.3,147.2,645.3z M145.4,661h3.6
	v-13.6h-3.6V661z M156.6,661h3.5l5.6-13.6h-3.6l-3.7,9.8l-3.7-9.8H151L156.6,661z M180.3,653.6c0-3.6-2.5-6.4-6.7-6.4
	c-3.9,0-7,2.9-7,7.3c0,4.4,3,6.9,7.1,6.9c3.3,0,5.3-1.4,6.1-2.2l-1.4-1.9c-0.6,0.6-2.3,1.4-4.1,1.4c-2,0-3.7-1.1-4-3.2h10
	C180.3,655.4,180.3,654.3,180.3,653.6z M173.6,649.9c2.5,0,3.1,1.7,3.1,3.2h-6.5C170.4,651.3,171.5,649.9,173.6,649.9z"/>
<rect x="61" y="2" class="st0" width="1113" height="692"/>
<path class="st7" d="M57,12.2L46.1,23.1l-4.2-4.2l16-16L60,0.8l2.1,2.1l16,16l-4.2,4.2L63,12.3V695h-6V12.2z"/>
<path class="st8" d="M1167.7,691l-10.8-10.8l4.2-4.2l16,16l2.1,2.1l-2.1,2.1l-16,16l-4.2-4.2l11-11H57v-6H1167.7z"/>
</svg>
