<svg width="645" height="645" viewBox="0 0 645 645" fill="none" xmlns="http://www.w3.org/2000/svg">
<g clip-path="url(#clip0)">
<path d="M97.4968 0V587" stroke="#143F63" stroke-width="2"/>
<path d="M127.998 0V587" stroke="#143F63" stroke-width="2"/>
<path d="M158.5 0V587" stroke="#143F63" stroke-width="2"/>
<path d="M189.001 0V587" stroke="#143F63" stroke-width="2"/>
<path d="M219.502 0V587" stroke="#143F63" stroke-width="2"/>
<path d="M250.004 0V587" stroke="#143F63" stroke-width="2"/>
<path d="M280.506 0V587" stroke="#143F63" stroke-width="2"/>
<path d="M311.007 0V587" stroke="#143F63" stroke-width="2"/>
<path d="M341.509 0V587" stroke="#143F63" stroke-width="2"/>
<path d="M372.009 0V587" stroke="#143F63" stroke-width="2"/>
<path d="M402.51 0V587" stroke="#143F63" stroke-width="2"/>
<path d="M433.011 0V587" stroke="#143F63" stroke-width="2"/>
<path d="M463.513 0V587" stroke="#143F63" stroke-width="2"/>
<path d="M494.015 0V587" stroke="#143F63" stroke-width="2"/>
<path d="M524.516 0V587" stroke="#143F63" stroke-width="2"/>
<path d="M555.018 0V587" stroke="#143F63" stroke-width="2"/>
<path d="M585.519 0V587" stroke="#143F63" stroke-width="2"/>
<path d="M616.021 0V587" stroke="#143F63" stroke-width="2"/>
<path d="M645 48.2118L69 48.2118" stroke="#143F63" stroke-width="2"/>
<path d="M645 93.0403L69 93.0403" stroke="#143F63" stroke-width="2"/>
<path d="M645 137.869L69 137.869" stroke="#143F63" stroke-width="2"/>
<path d="M645 182.697L69 182.697" stroke="#143F63" stroke-width="2"/>
<path d="M645 227.526L69 227.526" stroke="#143F63" stroke-width="2"/>
<path d="M645 272.354L69 272.354" stroke="#143F63" stroke-width="2"/>
<path d="M645 317.183L69 317.183" stroke="#143F63" stroke-width="2"/>
<path d="M645 362.011L69 362.011" stroke="#143F63" stroke-width="2"/>
<path d="M645 406.84L69 406.84" stroke="#143F63" stroke-width="2"/>
<path d="M645 451.669L69 451.669" stroke="#143F63" stroke-width="2"/>
<path d="M645 496.497L69 496.497" stroke="#143F63" stroke-width="2"/>
<path d="M645 541.326L69 541.326" stroke="#143F63" stroke-width="2"/>
<path fill-rule="evenodd" clip-rule="evenodd" d="M64.9989 11.2242L54.1165 22.1066L49.8739 17.8639L65.8592 1.87865L67.9805 -0.242676L70.1018 1.87865L86.0871 17.8639L81.8445 22.1066L70.9989 11.261L70.9989 587H64.9989L64.9989 11.2242Z" fill="url(#paint0_linear)"/>
<path fill-rule="evenodd" clip-rule="evenodd" d="M64.9989 11.2242L54.1165 22.1066L49.8739 17.8639L65.8592 1.87865L67.9805 -0.242676L70.1018 1.87865L86.0871 17.8639L81.8445 22.1066L70.9989 11.261L70.9989 587H64.9989L64.9989 11.2242Z" fill="#71A4CF"/>
<path fill-rule="evenodd" clip-rule="evenodd" d="M632.651 583L621.894 572.243L626.137 568L642.122 583.985L644.243 586.107L642.122 588.228L626.137 604.213L621.894 599.971L632.864 589L65 589L65 583L632.651 583Z" fill="url(#paint1_linear)"/>
<path fill-rule="evenodd" clip-rule="evenodd" d="M632.651 583L621.894 572.243L626.137 568L642.122 583.985L644.243 586.107L642.122 588.228L626.137 604.213L621.894 599.971L632.864 589L65 589L65 583L632.651 583Z" fill="#DCBD3F"/>
<path d="M25 387.336L25 382.032C25 376.92 22.048 373.104 16.696 373.104C11.392 373.104 8.44 376.992 8.44 382.032L8.44 387.336L25 387.336ZM22.36 381.912L22.36 384.216L11.056 384.216L11.056 381.912C11.056 378.432 13.24 376.32 16.72 376.32C20.176 376.32 22.36 378.456 22.36 381.912ZM11.536 368.796C11.536 367.716 10.84 366.948 9.832 366.948C8.848 366.948 8.128 367.716 8.128 368.796C8.128 369.876 8.848 370.644 9.832 370.644C10.84 370.644 11.536 369.876 11.536 368.796ZM25 370.332L25 367.26L13.384 367.26L13.384 370.332L25 370.332ZM22.792 355.372L23.368 355.372C25.936 355.372 27.16 356.5 27.16 359.116C27.16 360.604 26.32 362.5 25.792 363.244L27.928 364.516C28.336 363.94 29.656 361.876 29.656 359.116C29.656 356.332 28.672 354.844 27.616 353.836C26.584 352.852 25.144 352.324 22.6 352.324L13.384 352.324L13.384 355.372L14.992 355.348L14.992 355.396C13.744 356.212 13.168 357.532 13.168 359.092C13.168 362.548 15.832 364.804 19.048 364.804C22.744 364.804 24.616 362.308 24.616 359.38C24.616 357.604 23.992 356.212 22.792 355.42L22.792 355.372ZM18.976 355.204C20.752 355.204 22.216 356.308 22.216 358.516C22.216 360.532 20.752 361.684 18.976 361.684C17.08 361.684 15.592 360.484 15.592 358.468C15.592 356.452 17.296 355.204 18.976 355.204ZM11.536 347.554C11.536 346.474 10.84 345.706 9.832 345.706C8.848 345.706 8.128 346.474 8.128 347.554C8.128 348.634 8.848 349.402 9.832 349.402C10.84 349.402 11.536 348.634 11.536 347.554ZM25 349.09L25 346.018L13.384 346.018L13.384 349.09L25 349.09ZM15.784 339.266L15.784 336.578L13.408 336.578L13.408 339.266L10.096 339.266L10.096 342.314L13.408 342.314L13.408 344.042L15.784 344.042L15.784 342.314L21.16 342.314C24.184 342.314 25.264 341.33 25.264 338.954C25.264 337.658 24.928 336.746 24.88 336.602L22.504 336.77C22.504 336.77 22.696 337.25 22.696 337.874C22.696 338.954 22.264 339.266 20.488 339.266L15.784 339.266ZM25 327.784L25 324.832L18.352 324.832C14.776 324.832 13.168 326.656 13.168 330.208C13.168 332.224 13.864 333.856 14.392 334.744L16.36 333.808C15.976 333.304 15.4 332.032 15.4 330.496C15.4 328.888 16.096 327.904 17.584 327.904L17.896 327.904L18.088 330.688C18.256 333.088 19.192 335.464 21.616 335.464C24.04 335.464 25.264 333.64 25.264 331.384C25.264 329.656 24.496 328.312 23.656 327.832L25 327.784ZM19.768 327.88L21.904 327.88C22.48 328.288 23.176 329.176 23.176 330.376C23.176 331.648 22.504 332.392 21.52 332.392C20.536 332.392 19.984 331.6 19.888 329.968L19.768 327.88ZM25 321.831L25 318.783L8.44 318.783L8.44 321.831L25 321.831ZM13.384 307.384L13.384 310.504L29.392 310.504L29.392 307.456L25.36 307.456C24.544 307.456 24.016 307.48 23.464 307.504L23.44 307.456C24.592 306.496 25.216 305.512 25.216 303.736C25.216 300.208 22.504 298.024 19.216 298.024C15.76 298.024 13.12 300.112 13.12 303.52C13.12 305.056 13.648 306.448 15.04 307.384L15.016 307.432L13.384 307.384ZM15.616 304.384C15.616 302.392 17.2 301.144 19.216 301.144C21.16 301.144 22.864 302.296 22.864 304.288C22.864 306.256 21.16 307.528 19.216 307.528C17.032 307.528 15.616 306.232 15.616 304.384ZM13.384 292.775L13.384 295.847L20.272 295.847C23.056 295.847 25.216 295.031 25.216 291.695C25.216 290.015 24.52 288.767 23.368 288.095L25 288.071L25 285.095L13.384 285.095L13.384 288.167L19.288 288.167C21.232 288.167 22.696 288.863 22.696 290.711C22.696 292.487 21.328 292.775 19.6 292.775L13.384 292.775ZM25 282.021L25 278.973L19.288 278.973C18.4 278.973 17.608 278.829 17.032 278.541C16.288 278.109 15.904 277.413 15.904 276.501C15.904 276.093 15.952 275.565 16.048 275.229L16.048 275.085L13.384 274.869C13.384 274.869 13.168 275.301 13.168 276.093C13.168 277.341 14.008 278.493 15.256 278.949L15.256 279.021L13.384 278.973L13.384 282.021L25 282.021ZM21.448 264.265C21.448 264.265 22.672 265.369 22.672 267.361C22.672 269.353 21.28 270.817 19.144 270.817C17.008 270.817 15.736 269.353 15.736 267.529C15.736 265.729 16.624 264.697 16.96 264.337L14.656 263.497C14.344 263.809 13.168 264.961 13.168 267.889C13.168 271.009 15.472 274.033 19.288 274.033C23.08 274.033 25.264 271.105 25.264 267.937C25.264 264.841 23.92 263.641 23.704 263.401L21.448 264.265ZM13.168 254.81C13.168 256.49 13.912 257.666 15.136 258.29L15.136 258.338L8.43999 258.338L8.43999 261.386L25 261.386L25 258.338L19.216 258.338C17.272 258.338 15.688 257.69 15.688 255.794C15.688 254.018 17.056 253.706 18.784 253.706L25 253.706L25 250.634L18.112 250.634C15.328 250.634 13.168 251.474 13.168 254.81ZM25 240.823L25 237.871L18.352 237.871C14.776 237.871 13.168 239.695 13.168 243.247C13.168 245.263 13.864 246.895 14.392 247.783L16.36 246.847C15.976 246.343 15.4 245.071 15.4 243.535C15.4 241.927 16.096 240.943 17.584 240.943L17.896 240.943L18.088 243.727C18.256 246.127 19.192 248.503 21.616 248.503C24.04 248.503 25.264 246.679 25.264 244.423C25.264 242.695 24.496 241.351 23.656 240.871L25 240.823ZM19.768 240.919L21.904 240.919C22.48 241.327 23.176 242.215 23.176 243.415C23.176 244.687 22.504 245.431 21.52 245.431C20.536 245.431 19.984 244.639 19.888 243.007L19.768 240.919ZM16.456 228.294L14.416 226.974C13.72 227.934 13.168 229.086 13.168 231.15C13.168 233.382 14.536 235.302 16.648 235.302C18.352 235.302 19.384 234.414 19.96 232.686L20.416 231.342C20.92 229.854 21.256 229.398 21.856 229.398C22.528 229.398 22.96 229.926 22.96 231.078C22.96 232.062 22.432 233.238 21.376 234.606L23.464 235.854C24.544 234.918 25.264 232.926 25.264 231.15C25.264 228.294 23.632 226.542 21.424 226.542C19.744 226.542 18.832 227.454 17.992 230.022L17.728 230.838C17.32 232.134 16.912 232.518 16.408 232.518C15.856 232.518 15.472 232.014 15.472 231.006C15.472 229.95 15.952 228.966 16.456 228.294ZM11.536 222.749C11.536 221.669 10.84 220.901 9.83199 220.901C8.84799 220.901 8.12799 221.669 8.12799 222.749C8.12799 223.829 8.84799 224.597 9.83199 224.597C10.84 224.597 11.536 223.829 11.536 222.749ZM25 224.285L25 221.213L13.384 221.213L13.384 224.285L25 224.285ZM25 210.333L25 207.261L18.112 207.261C15.328 207.261 13.168 208.101 13.168 211.437C13.168 213.117 13.912 214.293 15.136 214.917L15.136 214.989L13.384 214.965L13.384 218.037L25 218.037L25 214.965L19.216 214.965C17.272 214.965 15.688 214.317 15.688 212.421C15.688 210.645 17.056 210.333 18.784 210.333L25 210.333ZM22.792 195.528L23.368 195.528C25.936 195.528 27.16 196.656 27.16 199.272C27.16 200.76 26.32 202.656 25.792 203.4L27.928 204.672C28.336 204.096 29.656 202.032 29.656 199.272C29.656 196.488 28.672 195 27.616 193.992C26.584 193.008 25.144 192.48 22.6 192.48L13.384 192.48L13.384 195.528L14.992 195.504L14.992 195.552C13.744 196.368 13.168 197.688 13.168 199.248C13.168 202.704 15.832 204.96 19.048 204.96C22.744 204.96 24.616 202.464 24.616 199.536C24.616 197.76 23.992 196.368 22.792 195.576L22.792 195.528ZM18.976 195.36C20.752 195.36 22.216 196.464 22.216 198.672C22.216 200.688 20.752 201.84 18.976 201.84C17.08 201.84 15.592 200.64 15.592 198.624C15.592 196.608 17.296 195.36 18.976 195.36Z" fill="#676E73"/>
<path d="M217.03 633H220.174V626.472H222.358C225.478 626.472 228.238 624.816 228.238 621.408C228.238 617.952 225.502 616.44 222.358 616.44H217.03V633ZM221.974 624.024H220.15V618.888H221.902C223.51 618.888 225.022 619.584 225.022 621.408C225.022 623.208 223.63 624.024 221.974 624.024ZM240.736 626.616C240.736 623.52 238.576 621.168 235 621.168C231.688 621.168 228.976 623.664 228.976 627.384C228.976 631.128 231.568 633.264 235.072 633.264C237.904 633.264 239.656 632.064 240.304 631.392L239.104 629.736C238.552 630.216 237.16 630.912 235.6 630.912C233.872 630.912 232.432 630 232.144 628.176H240.688C240.688 628.176 240.736 627.216 240.736 626.616ZM234.976 623.448C237.136 623.448 237.616 624.912 237.664 626.184H232.096C232.192 624.696 233.152 623.448 234.976 623.448ZM243.025 633H246.073V627.288C246.073 626.4 246.217 625.608 246.505 625.032C246.937 624.288 247.633 623.904 248.545 623.904C248.953 623.904 249.481 623.952 249.817 624.048H249.961L250.177 621.384C250.177 621.384 249.745 621.168 248.953 621.168C247.705 621.168 246.553 622.008 246.097 623.256H246.025L246.073 621.384H243.025V633ZM258.292 624.456L259.612 622.416C258.652 621.72 257.5 621.168 255.436 621.168C253.204 621.168 251.284 622.536 251.284 624.648C251.284 626.352 252.172 627.384 253.9 627.96L255.244 628.416C256.732 628.92 257.188 629.256 257.188 629.856C257.188 630.528 256.66 630.96 255.508 630.96C254.524 630.96 253.348 630.432 251.98 629.376L250.732 631.464C251.668 632.544 253.66 633.264 255.436 633.264C258.292 633.264 260.044 631.632 260.044 629.424C260.044 627.744 259.132 626.832 256.564 625.992L255.748 625.728C254.452 625.32 254.068 624.912 254.068 624.408C254.068 623.856 254.572 623.472 255.58 623.472C256.636 623.472 257.62 623.952 258.292 624.456ZM267.797 633.264C271.349 633.264 274.085 630.912 274.085 627.24C274.085 623.568 271.349 621.168 267.797 621.168C264.221 621.168 261.485 623.568 261.485 627.24C261.485 630.912 264.221 633.264 267.797 633.264ZM270.917 627.168C270.917 629.16 269.765 630.72 267.797 630.72C265.781 630.72 264.677 629.16 264.677 627.168C264.677 625.176 265.781 623.64 267.797 623.64C269.765 623.64 270.917 625.176 270.917 627.168ZM284.151 633H287.223V626.112C287.223 623.328 286.383 621.168 283.047 621.168C281.367 621.168 280.191 621.912 279.567 623.136H279.495L279.519 621.384H276.447V633H279.519V627.216C279.519 625.272 280.167 623.688 282.063 623.688C283.839 623.688 284.151 625.056 284.151 626.784V633ZM297.036 633H299.988V626.352C299.988 622.776 298.164 621.168 294.612 621.168C292.596 621.168 290.964 621.864 290.076 622.392L291.012 624.36C291.516 623.976 292.788 623.4 294.324 623.4C295.932 623.4 296.916 624.096 296.916 625.584V625.896L294.132 626.088C291.732 626.256 289.356 627.192 289.356 629.616C289.356 632.04 291.18 633.264 293.436 633.264C295.164 633.264 296.508 632.496 296.988 631.656L297.036 633ZM296.94 627.768V629.904C296.532 630.48 295.644 631.176 294.444 631.176C293.172 631.176 292.428 630.504 292.428 629.52C292.428 628.536 293.22 627.984 294.852 627.888L296.94 627.768ZM302.989 633H306.037V616.44H302.989V633ZM310.868 619.536C311.948 619.536 312.716 618.84 312.716 617.832C312.716 616.848 311.948 616.128 310.868 616.128C309.788 616.128 309.02 616.848 309.02 617.832C309.02 618.84 309.788 619.536 310.868 619.536ZM309.332 633H312.404V621.384H309.332V633ZM314.644 633H325.084V630.552H318.556L324.772 623.184V621.408H314.956V623.808H320.932L314.644 631.2V633ZM338.236 626.616C338.236 623.52 336.076 621.168 332.5 621.168C329.188 621.168 326.476 623.664 326.476 627.384C326.476 631.128 329.068 633.264 332.572 633.264C335.404 633.264 337.156 632.064 337.804 631.392L336.604 629.736C336.052 630.216 334.66 630.912 333.1 630.912C331.372 630.912 329.932 630 329.644 628.176H338.188C338.188 628.176 338.236 627.216 338.236 626.616ZM332.476 623.448C334.636 623.448 335.116 624.912 335.164 626.184H329.596C329.692 624.696 330.652 623.448 332.476 623.448ZM349.499 633H352.403V616.44H349.355V621.024C349.355 621.84 349.355 622.464 349.379 622.992H349.331C348.515 621.744 347.195 621.168 345.635 621.168C342.107 621.168 339.923 623.88 339.923 627.168C339.923 630.624 342.011 633.264 345.419 633.264C347.027 633.264 348.467 632.664 349.403 631.176H349.475L349.499 633ZM346.283 630.768C344.291 630.768 343.043 629.184 343.043 627.168C343.043 625.224 344.195 623.52 346.187 623.52C348.155 623.52 349.427 625.224 349.427 627.168C349.427 629.352 348.131 630.768 346.283 630.768ZM371.611 626.616C371.611 623.52 369.451 621.168 365.875 621.168C362.563 621.168 359.851 623.664 359.851 627.384C359.851 631.128 362.443 633.264 365.947 633.264C368.779 633.264 370.531 632.064 371.179 631.392L369.979 629.736C369.427 630.216 368.035 630.912 366.475 630.912C364.747 630.912 363.307 630 363.019 628.176H371.563C371.563 628.176 371.611 627.216 371.611 626.616ZM365.851 623.448C368.011 623.448 368.491 624.912 368.539 626.184H362.971C363.067 624.696 364.027 623.448 365.851 623.448ZM381.604 633H384.676V626.112C384.676 623.328 383.836 621.168 380.5 621.168C378.82 621.168 377.644 621.912 377.02 623.136H376.948L376.972 621.384H373.9V633H376.972V627.216C376.972 625.272 377.62 623.688 379.516 623.688C381.292 623.688 381.604 625.056 381.604 626.784V633ZM396.409 630.792V631.368C396.409 633.936 395.281 635.16 392.665 635.16C391.177 635.16 389.281 634.32 388.537 633.792L387.265 635.928C387.841 636.336 389.905 637.656 392.665 637.656C395.449 637.656 396.937 636.672 397.945 635.616C398.929 634.584 399.457 633.144 399.457 630.6V621.384H396.409L396.433 622.992H396.385C395.569 621.744 394.249 621.168 392.689 621.168C389.233 621.168 386.977 623.832 386.977 627.048C386.977 630.744 389.473 632.616 392.401 632.616C394.177 632.616 395.569 631.992 396.361 630.792H396.409ZM396.577 626.976C396.577 628.752 395.473 630.216 393.265 630.216C391.249 630.216 390.097 628.752 390.097 626.976C390.097 625.08 391.297 623.592 393.313 623.592C395.329 623.592 396.577 625.296 396.577 626.976ZM409.388 633H412.34V626.352C412.34 622.776 410.516 621.168 406.964 621.168C404.948 621.168 403.316 621.864 402.428 622.392L403.364 624.36C403.868 623.976 405.14 623.4 406.676 623.4C408.284 623.4 409.268 624.096 409.268 625.584V625.896L406.484 626.088C404.084 626.256 401.708 627.192 401.708 629.616C401.708 632.04 403.532 633.264 405.788 633.264C407.516 633.264 408.86 632.496 409.34 631.656L409.388 633ZM409.292 627.768V629.904C408.884 630.48 407.996 631.176 406.796 631.176C405.524 631.176 404.78 630.504 404.78 629.52C404.78 628.536 405.572 627.984 407.204 627.888L409.292 627.768ZM423.933 630.792V631.368C423.933 633.936 422.805 635.16 420.189 635.16C418.701 635.16 416.805 634.32 416.061 633.792L414.789 635.928C415.365 636.336 417.429 637.656 420.189 637.656C422.973 637.656 424.461 636.672 425.469 635.616C426.453 634.584 426.981 633.144 426.981 630.6V621.384H423.933L423.957 622.992H423.909C423.093 621.744 421.773 621.168 420.213 621.168C416.757 621.168 414.501 623.832 414.501 627.048C414.501 630.744 416.997 632.616 419.925 632.616C421.701 632.616 423.093 631.992 423.885 630.792H423.933ZM424.101 626.976C424.101 628.752 422.997 630.216 420.789 630.216C418.773 630.216 417.621 628.752 417.621 626.976C417.621 625.08 418.821 623.592 420.837 623.592C422.853 623.592 424.101 625.296 424.101 626.976ZM441.111 626.616C441.111 623.52 438.951 621.168 435.375 621.168C432.063 621.168 429.351 623.664 429.351 627.384C429.351 631.128 431.943 633.264 435.447 633.264C438.279 633.264 440.031 632.064 440.679 631.392L439.479 629.736C438.927 630.216 437.535 630.912 435.975 630.912C434.247 630.912 432.807 630 432.519 628.176H441.063C441.063 628.176 441.111 627.216 441.111 626.616ZM435.351 623.448C437.511 623.448 437.991 624.912 438.039 626.184H432.471C432.567 624.696 433.527 623.448 435.351 623.448ZM457.032 621.168C455.352 621.168 454.032 621.96 453.24 623.376C452.688 621.84 451.656 621.168 449.976 621.168C448.464 621.168 447.048 622.056 446.52 623.136H446.448L446.472 621.384H443.4V633H446.472V627C446.472 625.176 447.168 623.688 448.752 623.688C450.216 623.688 450.624 624.888 450.624 626.472V633H453.696V627C453.696 625.008 454.488 623.688 456.024 623.688C457.536 623.688 457.848 625.08 457.848 626.496V633H460.92V625.992C460.92 623.328 460.08 621.168 457.032 621.168ZM474.916 626.616C474.916 623.52 472.756 621.168 469.18 621.168C465.868 621.168 463.156 623.664 463.156 627.384C463.156 631.128 465.748 633.264 469.252 633.264C472.084 633.264 473.836 632.064 474.484 631.392L473.284 629.736C472.732 630.216 471.34 630.912 469.78 630.912C468.052 630.912 466.612 630 466.324 628.176H474.868C474.868 628.176 474.916 627.216 474.916 626.616ZM469.156 623.448C471.316 623.448 471.796 624.912 471.844 626.184H466.276C466.372 624.696 467.332 623.448 469.156 623.448ZM484.909 633H487.981V626.112C487.981 623.328 487.141 621.168 483.805 621.168C482.125 621.168 480.949 621.912 480.325 623.136H480.253L480.277 621.384H477.205V633H480.277V627.216C480.277 625.272 480.925 623.688 482.821 623.688C484.597 623.688 484.909 625.056 484.909 626.784V633ZM494.578 623.784H497.266V621.408H494.578V618.096H491.53V621.408H489.802V623.784H491.53V629.16C491.53 632.184 492.514 633.264 494.89 633.264C496.186 633.264 497.098 632.928 497.242 632.88L497.074 630.504C497.074 630.504 496.594 630.696 495.97 630.696C494.89 630.696 494.578 630.264 494.578 628.488V623.784Z" fill="#676E73"/>
<path d="M644 374C381.378 374 281.908 124.667 265 0H644V374Z" fill="url(#paint2_radial)" fill-opacity="0.5"/>
<path d="M71 214C321.842 214 416.851 460 433 583H71V214Z" fill="url(#paint3_radial)" fill-opacity="0.65"/>
<path d="M517.239 53H523.427C529.391 53 533.843 49.556 533.843 43.312C533.843 37.124 529.307 33.68 523.427 33.68H517.239V53ZM523.567 49.92H520.879V36.732H523.567C527.627 36.732 530.091 39.28 530.091 43.34C530.091 47.372 527.599 49.92 523.567 49.92ZM538.827 37.292C540.087 37.292 540.983 36.48 540.983 35.304C540.983 34.156 540.087 33.316 538.827 33.316C537.567 33.316 536.671 34.156 536.671 35.304C536.671 36.48 537.567 37.292 538.827 37.292ZM537.035 53H540.619V39.448H537.035V53ZM554.447 50.424V51.096C554.447 54.092 553.131 55.52 550.079 55.52C548.343 55.52 546.131 54.54 545.263 53.924L543.779 56.416C544.451 56.892 546.859 58.432 550.079 58.432C553.327 58.432 555.063 57.284 556.239 56.052C557.387 54.848 558.003 53.168 558.003 50.2V39.448H554.447L554.475 41.324H554.419C553.467 39.868 551.927 39.196 550.107 39.196C546.075 39.196 543.443 42.304 543.443 46.056C543.443 50.368 546.355 52.552 549.771 52.552C551.843 52.552 553.467 51.824 554.391 50.424H554.447ZM554.643 45.972C554.643 48.044 553.355 49.752 550.779 49.752C548.427 49.752 547.083 48.044 547.083 45.972C547.083 43.76 548.483 42.024 550.835 42.024C553.187 42.024 554.643 44.012 554.643 45.972ZM563.527 37.292C564.787 37.292 565.683 36.48 565.683 35.304C565.683 34.156 564.787 33.316 563.527 33.316C562.267 33.316 561.371 34.156 561.371 35.304C561.371 36.48 562.267 37.292 563.527 37.292ZM561.735 53H565.319V39.448H561.735V53ZM573.154 42.248L576.29 42.248V39.476L573.154 39.476V35.612H569.598V39.476H567.582V42.248H569.598V48.52C569.598 52.048 570.746 53.308 573.518 53.308C575.03 53.308 576.094 52.916 576.262 52.86L576.066 50.088C576.066 50.088 575.506 50.312 574.778 50.312C573.518 50.312 573.154 49.808 573.154 47.736V42.248ZM586.508 53H589.952V45.244C589.952 41.072 587.824 39.196 583.68 39.196C581.328 39.196 579.424 40.008 578.388 40.624L579.48 42.92C580.068 42.472 581.552 41.8 583.344 41.8C585.22 41.8 586.368 42.612 586.368 44.348V44.712L583.12 44.936C580.32 45.132 577.548 46.224 577.548 49.052C577.548 51.88 579.676 53.308 582.308 53.308C584.324 53.308 585.892 52.412 586.452 51.432L586.508 53ZM586.396 46.896V49.388C585.92 50.06 584.884 50.872 583.484 50.872C582 50.872 581.132 50.088 581.132 48.94C581.132 47.792 582.056 47.148 583.96 47.036L586.396 46.896ZM593.411 53H596.967V33.68H593.411V53ZM600.798 53H604.354V33.68H600.798V53ZM611.881 53.084L611.293 54.484C611.013 55.184 610.425 55.38 609.725 55.38C609.053 55.38 608.101 55.044 608.101 55.044L607.373 57.788C607.373 57.788 608.633 58.348 610.565 58.348C612.469 58.348 613.589 57.2 614.569 54.82L620.869 39.448H617.145L613.617 49.052L610.033 39.448H606.281L611.881 53.084ZM542.032 75.032L543.572 72.652C542.452 71.84 541.108 71.196 538.7 71.196C536.096 71.196 533.856 72.792 533.856 75.256C533.856 77.244 534.892 78.448 536.908 79.12L538.476 79.652C540.212 80.24 540.744 80.632 540.744 81.332C540.744 82.116 540.128 82.62 538.784 82.62C537.636 82.62 536.264 82.004 534.668 80.772L533.212 83.208C534.304 84.468 536.628 85.308 538.7 85.308C542.032 85.308 544.076 83.404 544.076 80.828C544.076 78.868 543.012 77.804 540.016 76.824L539.064 76.516C537.552 76.04 537.104 75.564 537.104 74.976C537.104 74.332 537.692 73.884 538.868 73.884C540.1 73.884 541.248 74.444 542.032 75.032ZM554.617 85H558.061V77.244C558.061 73.072 555.933 71.196 551.789 71.196C549.437 71.196 547.533 72.008 546.497 72.624L547.589 74.92C548.177 74.472 549.661 73.8 551.453 73.8C553.329 73.8 554.477 74.612 554.477 76.348V76.712L551.229 76.936C548.429 77.132 545.657 78.224 545.657 81.052C545.657 83.88 547.785 85.308 550.417 85.308C552.433 85.308 554.001 84.412 554.561 83.432L554.617 85ZM554.505 78.896V81.388C554.029 82.06 552.993 82.872 551.593 82.872C550.109 82.872 549.241 82.088 549.241 80.94C549.241 79.792 550.165 79.148 552.069 79.036L554.505 78.896ZM564.89 85H568.39L573.962 71.448H570.378L566.71 81.22L563.042 71.448H559.318L564.89 85ZM579.797 85L583.297 85L588.869 71.448H585.285L581.617 81.22L577.949 71.448H574.225L579.797 85ZM594.619 85.084L594.031 86.484C593.751 87.184 593.163 87.38 592.463 87.38C591.791 87.38 590.839 87.044 590.839 87.044L590.111 89.788C590.111 89.788 591.371 90.348 593.303 90.348C595.207 90.348 596.327 89.2 597.307 86.82L603.607 71.448H599.883L596.355 81.052L592.771 71.448H589.019L594.619 85.084Z" fill="white"/>
<path d="M104.239 521H110.427C116.391 521 120.843 517.556 120.843 511.312C120.843 505.124 116.307 501.68 110.427 501.68H104.239V521ZM110.567 517.92H107.879V504.732H110.567C114.627 504.732 117.091 507.28 117.091 511.34C117.091 515.372 114.599 517.92 110.567 517.92ZM125.827 505.292C127.087 505.292 127.983 504.48 127.983 503.304C127.983 502.156 127.087 501.316 125.827 501.316C124.567 501.316 123.671 502.156 123.671 503.304C123.671 504.48 124.567 505.292 125.827 505.292ZM124.035 521H127.619V507.448H124.035V521ZM141.447 518.424V519.096C141.447 522.092 140.131 523.52 137.079 523.52C135.343 523.52 133.131 522.54 132.263 521.924L130.779 524.416C131.451 524.892 133.859 526.432 137.079 526.432C140.327 526.432 142.063 525.284 143.239 524.052C144.387 522.848 145.003 521.168 145.003 518.2V507.448H141.447L141.475 509.324H141.419C140.467 507.868 138.927 507.196 137.107 507.196C133.075 507.196 130.443 510.304 130.443 514.056C130.443 518.368 133.355 520.552 136.771 520.552C138.843 520.552 140.467 519.824 141.391 518.424H141.447ZM141.643 513.972C141.643 516.044 140.355 517.752 137.779 517.752C135.427 517.752 134.083 516.044 134.083 513.972C134.083 511.76 135.483 510.024 137.835 510.024C140.187 510.024 141.643 512.012 141.643 513.972ZM150.527 505.292C151.787 505.292 152.683 504.48 152.683 503.304C152.683 502.156 151.787 501.316 150.527 501.316C149.267 501.316 148.371 502.156 148.371 503.304C148.371 504.48 149.267 505.292 150.527 505.292ZM148.735 521H152.319V507.448H148.735V521ZM160.154 510.248H163.29V507.476H160.154V503.612H156.598V507.476H154.582V510.248H156.598V516.52C156.598 520.048 157.746 521.308 160.518 521.308C162.03 521.308 163.094 520.916 163.262 520.86L163.066 518.088C163.066 518.088 162.506 518.312 161.778 518.312C160.518 518.312 160.154 517.808 160.154 515.736V510.248ZM173.508 521H176.952V513.244C176.952 509.072 174.824 507.196 170.68 507.196C168.328 507.196 166.424 508.008 165.388 508.624L166.48 510.92C167.068 510.472 168.552 509.8 170.344 509.8C172.22 509.8 173.368 510.612 173.368 512.348V512.712L170.12 512.936C167.32 513.132 164.548 514.224 164.548 517.052C164.548 519.88 166.676 521.308 169.308 521.308C171.324 521.308 172.892 520.412 173.452 519.432L173.508 521ZM173.396 514.896V517.388C172.92 518.06 171.884 518.872 170.484 518.872C169 518.872 168.132 518.088 168.132 516.94C168.132 515.792 169.056 515.148 170.96 515.036L173.396 514.896ZM180.411 521H183.967V501.68H180.411V521ZM187.798 521H191.354V501.68H187.798V521ZM198.881 521.084L198.293 522.484C198.013 523.184 197.425 523.38 196.725 523.38C196.053 523.38 195.101 523.044 195.101 523.044L194.373 525.788C194.373 525.788 195.633 526.348 197.565 526.348C199.469 526.348 200.589 525.2 201.569 522.82L207.869 507.448H204.145L200.617 517.052L197.033 507.448H193.281L198.881 521.084ZM131.576 553H135.16V544.964C135.16 541.716 134.18 539.196 130.288 539.196C128.328 539.196 126.956 540.064 126.228 541.492H126.144L126.172 539.448H122.588L122.588 553H126.172L126.172 546.252C126.172 543.984 126.928 542.136 129.14 542.136C131.212 542.136 131.576 543.732 131.576 545.748V553ZM146.566 553H150.01V545.244C150.01 541.072 147.882 539.196 143.738 539.196C141.386 539.196 139.482 540.008 138.446 540.624L139.538 542.92C140.126 542.472 141.61 541.8 143.402 541.8C145.278 541.8 146.426 542.612 146.426 544.348V544.712L143.178 544.936C140.378 545.132 137.606 546.224 137.606 549.052C137.606 551.88 139.734 553.308 142.366 553.308C144.382 553.308 145.95 552.412 146.51 551.432L146.566 553ZM146.454 546.896V549.388C145.978 550.06 144.942 550.872 143.542 550.872C142.058 550.872 141.19 550.088 141.19 548.94C141.19 547.792 142.114 547.148 144.018 547.036L146.454 546.896ZM155.234 537.292C156.494 537.292 157.39 536.48 157.39 535.304C157.39 534.156 156.494 533.316 155.234 533.316C153.974 533.316 153.078 534.156 153.078 535.304C153.078 536.48 153.974 537.292 155.234 537.292ZM153.442 553H157.026V539.448H153.442V553ZM164.609 553H168.109L173.681 539.448H170.097L166.429 549.22L162.761 539.448H159.037L164.609 553ZM188.337 545.552C188.337 541.94 185.817 539.196 181.645 539.196C177.781 539.196 174.617 542.108 174.617 546.448C174.617 550.816 177.641 553.308 181.729 553.308C185.033 553.308 187.077 551.908 187.833 551.124L186.433 549.192C185.789 549.752 184.165 550.564 182.345 550.564C180.329 550.564 178.649 549.5 178.313 547.372H188.281C188.281 547.372 188.337 546.252 188.337 545.552ZM181.617 541.856C184.137 541.856 184.697 543.564 184.753 545.048H178.257C178.369 543.312 179.489 541.856 181.617 541.856Z" fill="white"/>
<rect x="69" y="1" width="575" height="585" stroke="#143F63" stroke-width="2"/>
<circle cx="344" cy="274" r="34" fill="white" fill-opacity="0.8" stroke="white" stroke-width="2" stroke-dasharray="5 5"/>
<path d="M344.625 258C339.625 258 336.375 260.062 333.812 263.75C333.375 264.375 333.5 265.312 334.188 265.75L336.875 267.812C337.5 268.312 338.438 268.188 338.938 267.562C340.5 265.625 341.688 264.5 344.125 264.5C346.062 264.5 348.438 265.688 348.438 267.562C348.438 269 347.25 269.688 345.375 270.75C343.125 272 340.188 273.562 340.188 277.438V278C340.188 278.875 340.875 279.5 341.688 279.5H346.25C347.062 279.5 347.75 278.875 347.75 278V277.688C347.75 275 355.562 274.875 355.562 267.625C355.562 262.188 349.875 258 344.625 258ZM344 281.375C341.562 281.375 339.625 283.312 339.625 285.688C339.625 288.062 341.562 290 344 290C346.375 290 348.312 288.062 348.312 285.688C348.312 283.312 346.375 281.375 344 281.375Z" fill="#071520"/>
<circle cx="424" cy="354" r="34" fill="white" fill-opacity="0.8" stroke="white" stroke-width="2" stroke-dasharray="5 5"/>
<path d="M424.625 338C419.625 338 416.375 340.062 413.812 343.75C413.375 344.375 413.5 345.312 414.188 345.75L416.875 347.812C417.5 348.312 418.438 348.188 418.938 347.562C420.5 345.625 421.688 344.5 424.125 344.5C426.062 344.5 428.438 345.688 428.438 347.562C428.438 349 427.25 349.688 425.375 350.75C423.125 352 420.188 353.562 420.188 357.438V358C420.188 358.875 420.875 359.5 421.688 359.5H426.25C427.062 359.5 427.75 358.875 427.75 358V357.688C427.75 355 435.562 354.875 435.562 347.625C435.562 342.188 429.875 338 424.625 338ZM424 361.375C421.562 361.375 419.625 363.312 419.625 365.688C419.625 368.062 421.562 370 424 370C426.375 370 428.312 368.062 428.312 365.688C428.312 363.312 426.375 361.375 424 361.375Z" fill="#071520"/>
<circle cx="254" cy="414" r="34" fill="white" fill-opacity="0.8" stroke="white" stroke-width="2" stroke-dasharray="5 5"/>
<path d="M254.625 398C249.625 398 246.375 400.062 243.812 403.75C243.375 404.375 243.5 405.312 244.188 405.75L246.875 407.812C247.5 408.312 248.438 408.188 248.938 407.562C250.5 405.625 251.688 404.5 254.125 404.5C256.062 404.5 258.438 405.688 258.438 407.562C258.438 409 257.25 409.688 255.375 410.75C253.125 412 250.188 413.562 250.188 417.438V418C250.188 418.875 250.875 419.5 251.688 419.5H256.25C257.062 419.5 257.75 418.875 257.75 418V417.688C257.75 415 265.562 414.875 265.562 407.625C265.562 402.188 259.875 398 254.625 398ZM254 421.375C251.562 421.375 249.625 423.312 249.625 425.688C249.625 428.062 251.562 430 254 430C256.375 430 258.312 428.062 258.312 425.688C258.312 423.312 256.375 421.375 254 421.375Z" fill="#071520"/>
<circle cx="254" cy="124" r="34" fill="white" fill-opacity="0.8" stroke="white" stroke-width="2" stroke-dasharray="5 5"/>
<path d="M254.625 108C249.625 108 246.375 110.062 243.812 113.75C243.375 114.375 243.5 115.312 244.188 115.75L246.875 117.812C247.5 118.312 248.438 118.188 248.938 117.562C250.5 115.625 251.688 114.5 254.125 114.5C256.062 114.5 258.438 115.688 258.438 117.562C258.438 119 257.25 119.688 255.375 120.75C253.125 122 250.188 123.562 250.188 127.438V128C250.188 128.875 250.875 129.5 251.688 129.5H256.25C257.062 129.5 257.75 128.875 257.75 128V127.688C257.75 125 265.562 124.875 265.562 117.625C265.562 112.188 259.875 108 254.625 108ZM254 131.375C251.562 131.375 249.625 133.312 249.625 135.688C249.625 138.062 251.562 140 254 140C256.375 140 258.312 138.062 258.312 135.688C258.312 133.312 256.375 131.375 254 131.375Z" fill="#071520"/>
<circle cx="394" cy="94" r="34" fill="white" fill-opacity="0.8" stroke="white" stroke-width="2" stroke-dasharray="5 5"/>
<path d="M394.625 78C389.625 78 386.375 80.0625 383.812 83.75C383.375 84.375 383.5 85.3125 384.188 85.75L386.875 87.8125C387.5 88.3125 388.438 88.1875 388.938 87.5625C390.5 85.625 391.688 84.5 394.125 84.5C396.062 84.5 398.438 85.6875 398.438 87.5625C398.438 89 397.25 89.6875 395.375 90.75C393.125 92 390.188 93.5625 390.188 97.4375V98C390.188 98.875 390.875 99.5 391.688 99.5H396.25C397.062 99.5 397.75 98.875 397.75 98V97.6875C397.75 95 405.562 94.875 405.562 87.625C405.562 82.1875 399.875 78 394.625 78ZM394 101.375C391.562 101.375 389.625 103.312 389.625 105.688C389.625 108.062 391.562 110 394 110C396.375 110 398.312 108.062 398.312 105.688C398.312 103.312 396.375 101.375 394 101.375Z" fill="#071520"/>
<circle cx="524" cy="154" r="34" fill="white" fill-opacity="0.8" stroke="white" stroke-width="2" stroke-dasharray="5 5"/>
<path d="M524.625 138C519.625 138 516.375 140.062 513.812 143.75C513.375 144.375 513.5 145.312 514.188 145.75L516.875 147.812C517.5 148.312 518.438 148.188 518.938 147.562C520.5 145.625 521.688 144.5 524.125 144.5C526.062 144.5 528.438 145.688 528.438 147.562C528.438 149 527.25 149.688 525.375 150.75C523.125 152 520.188 153.562 520.188 157.438V158C520.188 158.875 520.875 159.5 521.688 159.5H526.25C527.062 159.5 527.75 158.875 527.75 158V157.688C527.75 155 535.562 154.875 535.562 147.625C535.562 142.188 529.875 138 524.625 138ZM524 161.375C521.562 161.375 519.625 163.312 519.625 165.688C519.625 168.062 521.562 170 524 170C526.375 170 528.312 168.062 528.312 165.688C528.312 163.312 526.375 161.375 524 161.375Z" fill="#071520"/>
</g>
<defs>
<linearGradient id="paint0_linear" x1="67.9805" y1="79.2696" x2="67.9805" y2="599.688" gradientUnits="userSpaceOnUse">
<stop stop-color="#4186BF"/>
<stop offset="1" stop-color="#4186BF" stop-opacity="0"/>
</linearGradient>
<linearGradient id="paint1_linear" x1="649.242" y1="586.107" x2="65.5204" y2="586.107" gradientUnits="userSpaceOnUse">
<stop stop-color="#D3AD0F"/>
<stop offset="1" stop-color="#D3AD0F" stop-opacity="0"/>
</linearGradient>
<radialGradient id="paint2_radial" cx="0" cy="0" r="1" gradientUnits="userSpaceOnUse" gradientTransform="translate(644 -0.424509) rotate(136.357) scale(361.677 384.646)">
<stop stop-color="#13C1BF"/>
<stop offset="1" stop-color="#13C1BF" stop-opacity="0"/>
</radialGradient>
<radialGradient id="paint3_radial" cx="0" cy="0" r="1" gradientUnits="userSpaceOnUse" gradientTransform="translate(65.5739 588.864) rotate(-44.8766) scale(347.857 370.017)">
<stop stop-color="#5F3A9B"/>
<stop offset="1" stop-color="#5F3A9B" stop-opacity="0"/>
</radialGradient>
<clipPath id="clip0">
<rect width="644" height="645" fill="white" transform="translate(0.5)"/>
</clipPath>
</defs>
</svg>
