<svg width="1440" height="904" viewBox="0 0 1440 904" fill="none" xmlns="http://www.w3.org/2000/svg">
<rect width="1440" height="904" fill="url(#paint0_linear)"/>
<path d="M219 105V799" stroke="#143F63" stroke-width="2"/>
<path d="M277.941 105V799" stroke="#143F63" stroke-width="2"/>
<path d="M336.883 105V799" stroke="#143F63" stroke-width="2"/>
<path d="M395.824 105V799" stroke="#143F63" stroke-width="2"/>
<path d="M454.766 105V799" stroke="#143F63" stroke-width="2"/>
<path d="M513.707 105V799" stroke="#143F63" stroke-width="2"/>
<path d="M572.648 105V799" stroke="#143F63" stroke-width="2"/>
<path d="M631.59 105V799" stroke="#143F63" stroke-width="2"/>
<path d="M690.531 105V799" stroke="#143F63" stroke-width="2"/>
<path d="M749.469 105V799" stroke="#143F63" stroke-width="2"/>
<path d="M808.41 105V799" stroke="#143F63" stroke-width="2"/>
<path d="M867.352 105V799" stroke="#143F63" stroke-width="2"/>
<path d="M926.293 105V799" stroke="#143F63" stroke-width="2"/>
<path d="M985.234 105V799" stroke="#143F63" stroke-width="2"/>
<path d="M1044.18 105V799" stroke="#143F63" stroke-width="2"/>
<path d="M1103.12 105V799" stroke="#143F63" stroke-width="2"/>
<path d="M1162.06 105V799" stroke="#143F63" stroke-width="2"/>
<path d="M1221 105V799" stroke="#143F63" stroke-width="2"/>
<path d="M1277 480L163 480" stroke="#143F63" stroke-width="2"/>
<path d="M1277 533L163 533" stroke="#143F63" stroke-width="2"/>
<path d="M1277 586L163 586" stroke="#143F63" stroke-width="2"/>
<path d="M1277 639L163 639" stroke="#143F63" stroke-width="2"/>
<path d="M1277 692L163 692" stroke="#143F63" stroke-width="2"/>
<path d="M1277 745L163 745" stroke="#143F63" stroke-width="2"/>
<path d="M1277 162L163 162" stroke="#143F63" stroke-width="2"/>
<path d="M1277 215L163 215" stroke="#143F63" stroke-width="2"/>
<path d="M1277 268L163 268" stroke="#143F63" stroke-width="2"/>
<path d="M1277 321L163 321" stroke="#143F63" stroke-width="2"/>
<path d="M1277 374L163 374" stroke="#143F63" stroke-width="2"/>
<path d="M1277 427L163 427" stroke="#143F63" stroke-width="2"/>
<rect x="163" y="106" width="1113" height="692" stroke="#143F63" stroke-width="2"/>
<path d="M437.899 186.064L435.307 180.016C433.483 181.888 430.507 183.52 426.379 183.52C420.955 183.52 416.443 179.824 416.443 173.344C416.443 166.864 420.763 163.12 426.379 163.12C430.747 163.12 434.299 165.76 434.923 166.576L437.323 160.144C436.459 159.232 432.763 156.4 425.947 156.4C416.299 156.4 408.571 162.784 408.571 173.488C408.571 184.144 416.203 190.576 425.947 190.576C432.715 190.576 436.219 187.792 437.899 186.064ZM465.869 178.24C465.869 170.608 460.253 165.904 452.765 165.904C445.277 165.904 439.613 170.608 439.613 178.24C439.613 185.872 445.277 190.528 452.765 190.528C460.253 190.528 465.869 185.872 465.869 178.24ZM458.141 178.096C458.141 181.6 456.125 184.24 452.765 184.24C449.357 184.24 447.389 181.6 447.389 178.096C447.389 174.592 449.357 171.952 452.765 171.952C456.125 171.952 458.141 174.592 458.141 178.096ZM506.905 190V175.744C506.905 170.032 504.745 165.904 498.697 165.904C495.193 165.904 492.841 167.344 491.161 170.224C489.961 167.008 487.369 165.904 484.105 165.904C481.081 165.904 478.777 167.728 477.577 169.696L477.481 169.744L477.529 166.336H469.849V190H477.529V177.856C477.529 174.592 478.681 172.192 481.369 172.192C483.865 172.192 484.537 174.208 484.537 177.136V190H492.217V177.856C492.217 174.592 493.369 172.192 496.057 172.192C498.697 172.192 499.177 174.592 499.177 177.136V190H506.905ZM538.5 178.192C538.5 171.232 534.18 165.904 527.364 165.904C523.764 165.904 521.22 167.296 519.492 169.36H519.396L519.444 166.336H512.148V198.688H519.828V187.024C521.316 189.232 523.812 190.528 527.316 190.528C534.18 190.528 538.5 185.152 538.5 178.192ZM530.676 178.096C530.676 181.744 528.42 184.24 525.108 184.24C521.844 184.24 519.588 181.744 519.588 178.096C519.588 174.448 521.844 171.952 525.108 171.952C528.42 171.952 530.676 174.448 530.676 178.096ZM565.674 177.472C565.674 170.56 560.826 165.904 553.818 165.904C546.81 165.904 541.05 170.368 541.05 178.192C541.05 186.016 546.378 190.528 553.674 190.528C561.018 190.528 564.138 187.264 564.906 186.688L561.882 182.704C560.538 183.616 557.85 184.96 554.778 184.96C551.658 184.96 549.066 183.424 548.73 180.016H565.578C565.578 180.016 565.674 178.624 565.674 177.472ZM558.522 175.648H548.778C548.874 173.392 550.506 170.896 553.674 170.896C556.89 170.896 558.474 173.488 558.522 175.648ZM583.57 172.192V166.384H578.338V159.952H570.61V166.384H567.25V172.192H570.61V181.36C570.61 186.784 571.906 190.528 578.05 190.528C580.834 190.528 582.946 189.904 583.522 189.76L583.138 183.76C583.138 183.76 582.034 184.192 580.834 184.192C578.482 184.192 578.338 182.752 578.338 180.688V172.192H583.57ZM595.215 159.616C595.215 157.264 593.439 155.632 590.847 155.632C588.255 155.632 586.479 157.264 586.479 159.616C586.479 162.016 588.255 163.6 590.847 163.6C593.439 163.6 595.215 162.016 595.215 159.616ZM594.687 190V166.336H587.007V190H594.687ZM623.331 190V176.032C623.331 170.32 621.555 165.904 614.691 165.904C611.283 165.904 609.123 167.632 607.827 169.744H607.731L607.779 166.336H600.099V190H607.779V178.288C607.779 174.88 608.691 172.192 612.003 172.192C615.171 172.192 615.651 174.544 615.651 177.664V190H623.331ZM653.481 185.2V166.336H645.801L645.897 169.36H645.801C644.553 167.728 642.297 165.904 638.313 165.904C632.505 165.904 627.129 169.936 627.129 177.568C627.129 185.2 632.505 189.232 638.313 189.232C642.009 189.232 644.313 187.744 645.753 185.872H645.849V186.64C645.849 191.296 643.401 193.216 638.841 193.216C635.673 193.216 632.073 191.584 630.681 190.528L627.513 195.664C629.145 196.864 633.513 199.168 638.985 199.168C644.409 199.168 647.577 197.584 649.881 195.424C652.185 193.264 653.481 190.288 653.481 185.2ZM646.041 177.616C646.041 180.88 643.929 183.376 640.521 183.376C637.113 183.376 634.953 180.88 634.953 177.616C634.953 174.4 637.113 171.904 640.521 171.904C643.929 171.904 646.041 174.4 646.041 177.616ZM691.862 177.472C691.862 170.56 687.014 165.904 680.006 165.904C672.998 165.904 667.238 170.368 667.238 178.192C667.238 186.016 672.566 190.528 679.862 190.528C687.206 190.528 690.326 187.264 691.094 186.688L688.07 182.704C686.726 183.616 684.038 184.96 680.966 184.96C677.846 184.96 675.254 183.424 674.918 180.016H691.766C691.766 180.016 691.862 178.624 691.862 177.472ZM684.71 175.648H674.966C675.062 173.392 676.694 170.896 679.862 170.896C683.078 170.896 684.662 173.488 684.71 175.648ZM725.982 156.88C725.982 156.88 723.774 156.256 720.75 156.256C714.894 156.256 712.206 159.424 712.206 165.088V166.384H704.382V164.848C704.382 163.072 704.958 161.776 707.214 161.776C708.558 161.776 710.046 162.208 710.046 162.208L710.43 156.88C710.43 156.88 708.222 156.256 705.198 156.256C699.342 156.256 696.654 159.424 696.654 165.088V166.384H693.63V172.192H696.654V190H704.382V172.192H712.206V190H719.934V172.192H725.022V166.384H719.934V164.848C719.934 163.072 720.51 161.776 722.766 161.776C724.11 161.776 725.598 162.208 725.598 162.208L725.982 156.88ZM750.159 177.472C750.159 170.56 745.311 165.904 738.303 165.904C731.295 165.904 725.535 170.368 725.535 178.192C725.535 186.016 730.863 190.528 738.159 190.528C745.503 190.528 748.623 187.264 749.391 186.688L746.367 182.704C745.023 183.616 742.335 184.96 739.263 184.96C736.143 184.96 733.551 183.424 733.215 180.016H750.063C750.063 180.016 750.159 178.624 750.159 177.472ZM743.007 175.648H733.263C733.359 173.392 734.991 170.896 738.159 170.896C741.375 170.896 742.959 173.488 743.007 175.648ZM774.289 187.696L772.465 181.888C772.465 181.888 770.065 184.192 766.465 184.192C762.865 184.192 760.513 181.84 760.513 178.096C760.513 174.352 763.105 172.096 766.369 172.096C769.681 172.096 771.793 173.68 772.465 174.208L774.145 168.4C774.145 168.4 771.409 165.904 765.361 165.904C758.881 165.904 752.785 170.32 752.785 178.24C752.785 186.112 758.785 190.528 765.265 190.528C771.553 190.528 774.049 187.888 774.289 187.696ZM791.695 172.192V166.384H786.463V159.952H778.735V166.384H775.375V172.192H778.735V181.36C778.735 186.784 780.031 190.528 786.175 190.528C788.959 190.528 791.071 189.904 791.647 189.76L791.263 183.76C791.263 183.76 790.159 184.192 788.959 184.192C786.607 184.192 786.463 182.752 786.463 180.688V172.192H791.695ZM803.34 159.616C803.34 157.264 801.564 155.632 798.972 155.632C796.38 155.632 794.604 157.264 794.604 159.616C794.604 162.016 796.38 163.6 798.972 163.6C801.564 163.6 803.34 162.016 803.34 159.616ZM802.812 190V166.336H795.132V190H802.812ZM832.128 166.336H824.208L818.88 181.312L813.504 166.336H805.488L815.184 190H822.384L832.128 166.336ZM857.768 177.472C857.768 170.56 852.92 165.904 845.912 165.904C838.904 165.904 833.144 170.368 833.144 178.192C833.144 186.016 838.472 190.528 845.768 190.528C853.112 190.528 856.232 187.264 857 186.688L853.976 182.704C852.632 183.616 849.944 184.96 846.872 184.96C843.752 184.96 841.16 183.424 840.824 180.016H857.672C857.672 180.016 857.768 178.624 857.768 177.472ZM850.616 175.648H840.872C840.968 173.392 842.6 170.896 845.768 170.896C848.984 170.896 850.568 173.488 850.616 175.648ZM869.424 190V156.88H861.744V190H869.424ZM898.831 166.336H890.911L885.583 181.552L880.207 166.336H872.191L881.551 189.28L880.687 191.344C880.063 192.88 879.247 192.88 878.383 192.88C877.231 192.88 875.551 192.256 875.551 192.256L874.015 197.92C874.015 197.92 876.559 199.072 880.591 199.072C884.623 199.072 886.543 196.48 888.271 192.256L898.831 166.336ZM919.309 159.616C919.309 157.264 917.533 155.632 914.941 155.632C912.349 155.632 910.573 157.264 910.573 159.616C910.573 162.016 912.349 163.6 914.941 163.6C917.533 163.6 919.309 162.016 919.309 159.616ZM918.781 190V166.336H911.101V190H918.781ZM947.424 190V176.032C947.424 170.32 945.648 165.904 938.784 165.904C935.376 165.904 933.216 167.632 931.92 169.744H931.824L931.872 166.336H924.192V190H931.872V178.288C931.872 174.88 932.784 172.192 936.096 172.192C939.264 172.192 939.744 174.544 939.744 177.664V190H947.424ZM976.445 172.192V166.384H971.213V159.952H963.485V166.384H960.125V172.192H963.485V181.36C963.485 186.784 964.781 190.528 970.925 190.528C973.709 190.528 975.821 189.904 976.397 189.76L976.013 183.76C976.013 183.76 974.909 184.192 973.709 184.192C971.357 184.192 971.213 182.752 971.213 180.688V172.192H976.445ZM1003.21 190V176.032C1003.21 170.272 1001.43 165.904 994.57 165.904C991.066 165.904 988.81 167.632 987.61 169.744C987.61 169.744 987.658 167.152 987.658 164.752V156.88H979.978V190H987.658V178.384C987.658 174.88 988.666 172.192 991.882 172.192C995.098 172.192 995.482 174.688 995.482 177.568V190H1003.21ZM1031.53 177.472C1031.53 170.56 1026.69 165.904 1019.68 165.904C1012.67 165.904 1006.91 170.368 1006.91 178.192C1006.91 186.016 1012.24 190.528 1019.53 190.528C1026.88 190.528 1030 187.264 1030.77 186.688L1027.74 182.704C1026.4 183.616 1023.71 184.96 1020.64 184.96C1017.52 184.96 1014.93 183.424 1014.59 180.016H1031.44C1031.44 180.016 1031.53 178.624 1031.53 177.472ZM1024.38 175.648H1014.64C1014.73 173.392 1016.37 170.896 1019.53 170.896C1022.75 170.896 1024.33 173.488 1024.38 175.648ZM453.612 246V232.032C453.612 226.32 451.836 221.904 444.972 221.904C441.564 221.904 439.404 223.632 438.108 225.744H438.012L438.06 222.336H430.38V246H438.06V234.288C438.06 230.88 438.972 228.192 442.284 228.192C445.452 228.192 445.932 230.544 445.932 233.664V246H453.612ZM482.034 233.472C482.034 226.56 477.186 221.904 470.178 221.904C463.17 221.904 457.41 226.368 457.41 234.192C457.41 242.016 462.738 246.528 470.034 246.528C477.378 246.528 480.498 243.264 481.266 242.688L478.242 238.704C476.898 239.616 474.21 240.96 471.138 240.96C468.018 240.96 465.426 239.424 465.09 236.016H481.938C481.938 236.016 482.034 234.624 482.034 233.472ZM474.882 231.648H465.138C465.234 229.392 466.866 226.896 470.034 226.896C473.25 226.896 474.834 229.488 474.882 231.648ZM522.213 222.336H514.437L510.261 237.456L505.701 222.336H499.413L494.853 237.456L490.677 222.336H482.901L490.677 246H497.925L502.581 231.504L507.189 246H514.437L522.213 222.336ZM559.793 246V212.88H552.113V225.216C551.345 224.064 548.945 221.904 544.625 221.904C537.761 221.904 533.441 227.232 533.441 234.192C533.441 241.152 537.761 246.528 544.625 246.528C547.793 246.528 550.625 245.328 552.401 242.928L552.545 242.88L552.497 246H559.793ZM552.353 234.096C552.353 237.744 550.145 240.24 546.833 240.24C543.521 240.24 541.265 237.744 541.265 234.096C541.265 230.448 543.521 227.952 546.833 227.952C550.145 227.952 552.353 230.448 552.353 234.096ZM573.621 215.616C573.621 213.264 571.845 211.632 569.253 211.632C566.661 211.632 564.885 213.264 564.885 215.616C564.885 218.016 566.661 219.6 569.253 219.6C571.845 219.6 573.621 218.016 573.621 215.616ZM573.093 246V222.336H565.413V246H573.093ZM603.465 241.2V222.336H595.785L595.881 225.36H595.785C594.537 223.728 592.281 221.904 588.297 221.904C582.489 221.904 577.113 225.936 577.113 233.568C577.113 241.2 582.489 245.232 588.297 245.232C591.993 245.232 594.297 243.744 595.737 241.872H595.833V242.64C595.833 247.296 593.385 249.216 588.825 249.216C585.657 249.216 582.057 247.584 580.665 246.528L577.497 251.664C579.129 252.864 583.497 255.168 588.969 255.168C594.393 255.168 597.561 253.584 599.865 251.424C602.169 249.264 603.465 246.288 603.465 241.2ZM596.025 233.616C596.025 236.88 593.913 239.376 590.505 239.376C587.097 239.376 584.937 236.88 584.937 233.616C584.937 230.4 587.097 227.904 590.505 227.904C593.913 227.904 596.025 230.4 596.025 233.616ZM617.2 215.616C617.2 213.264 615.424 211.632 612.832 211.632C610.24 211.632 608.464 213.264 608.464 215.616C608.464 218.016 610.24 219.6 612.832 219.6C615.424 219.6 617.2 218.016 617.2 215.616ZM616.672 246V222.336H608.992V246H616.672ZM636.195 228.192V222.384H630.963V215.952H623.235V222.384H619.875V228.192H623.235V237.36C623.235 242.784 624.531 246.528 630.675 246.528C633.459 246.528 635.571 245.904 636.147 245.76L635.763 239.76C635.763 239.76 634.659 240.192 633.459 240.192C631.107 240.192 630.963 238.752 630.963 236.688V228.192H636.195ZM660.752 246V232.656C660.752 224.976 656.48 221.904 649.088 221.904C644.672 221.904 640.976 223.296 638.96 224.304L640.976 229.296C642.176 228.528 645.2 227.184 648.224 227.184C651.296 227.184 653.072 228.48 653.072 230.976V231.504L647.12 231.744C642.752 231.936 637.904 233.712 637.904 238.992C637.904 244.272 642.32 246.528 646.496 246.528C650.336 246.528 652.256 244.512 653.264 243.504L653.408 246H660.752ZM653.12 235.584V239.472C652.64 240.288 651.248 241.632 649.184 241.632C647.072 241.632 645.584 240.528 645.584 238.704C645.584 236.928 646.976 235.92 649.328 235.824L653.12 235.584ZM673.627 246V212.88H665.947V246H673.627ZM725.713 222.336H717.937L713.761 237.456L709.201 222.336H702.913L698.353 237.456L694.177 222.336H686.401L694.177 246H701.425L706.081 231.504L710.689 246H717.937L725.713 222.336ZM753.478 234.24C753.478 226.608 747.862 221.904 740.374 221.904C732.886 221.904 727.222 226.608 727.222 234.24C727.222 241.872 732.886 246.528 740.374 246.528C747.862 246.528 753.478 241.872 753.478 234.24ZM745.75 234.096C745.75 237.6 743.734 240.24 740.374 240.24C736.966 240.24 734.998 237.6 734.998 234.096C734.998 230.592 736.966 227.952 740.374 227.952C743.734 227.952 745.75 230.592 745.75 234.096ZM773.442 222.336C773.442 222.336 772.626 221.904 771.042 221.904C768.498 221.904 766.53 223.104 765.186 225.696H765.09L765.138 222.336H757.458V246H765.138V235.488C765.138 232.368 766.098 228.816 769.89 228.816C771.234 228.816 772.242 229.152 772.674 229.392H773.01L773.442 222.336ZM784.143 246V212.88H776.463V246H784.143ZM814.606 246V212.88H806.926V225.216C806.158 224.064 803.758 221.904 799.438 221.904C792.574 221.904 788.254 227.232 788.254 234.192C788.254 241.152 792.574 246.528 799.438 246.528C802.606 246.528 805.438 245.328 807.214 242.928L807.358 242.88L807.31 246H814.606ZM807.166 234.096C807.166 237.744 804.958 240.24 801.646 240.24C798.334 240.24 796.078 237.744 796.078 234.096C796.078 230.448 798.334 227.952 801.646 227.952C804.958 227.952 807.166 230.448 807.166 234.096ZM845.833 222.336C845.833 222.336 845.017 221.904 843.433 221.904C840.889 221.904 838.921 223.104 837.577 225.696H837.481L837.529 222.336H829.849V246H837.529V235.488C837.529 232.368 838.489 228.816 842.281 228.816C843.625 228.816 844.633 229.152 845.065 229.392H845.401L845.833 222.336ZM871.659 233.472C871.659 226.56 866.811 221.904 859.803 221.904C852.795 221.904 847.035 226.368 847.035 234.192C847.035 242.016 852.363 246.528 859.659 246.528C867.003 246.528 870.123 243.264 870.891 242.688L867.867 238.704C866.523 239.616 863.835 240.96 860.763 240.96C857.643 240.96 855.051 239.424 854.715 236.016H871.563C871.563 236.016 871.659 234.624 871.659 233.472ZM864.507 231.648H854.763C854.859 229.392 856.491 226.896 859.659 226.896C862.875 226.896 864.459 229.488 864.507 231.648ZM900.637 254.688V222.336H893.341L893.437 225.36H893.341C891.613 223.296 889.069 221.904 885.469 221.904C878.605 221.904 874.285 227.232 874.285 234.192C874.285 241.152 878.605 246.528 885.469 246.528C889.405 246.528 891.661 244.896 892.909 243.024H893.005C893.005 243.024 892.957 244.56 892.957 246.336V254.688H900.637ZM893.197 234.096C893.197 237.744 890.989 240.24 887.677 240.24C884.365 240.24 882.109 237.744 882.109 234.096C882.109 230.448 884.365 227.952 887.677 227.952C890.989 227.952 893.197 230.448 893.197 234.096ZM928.678 246V222.336H920.998V234.912C920.998 238.032 919.75 240.192 917.014 240.192C914.278 240.192 913.51 238.32 913.51 235.584V222.336H905.83V236.64C905.83 242.544 907.798 246.528 914.326 246.528C917.734 246.528 920.23 244.752 921.238 243.312L921.286 246H928.678ZM942.325 215.616C942.325 213.264 940.549 211.632 937.957 211.632C935.365 211.632 933.589 213.264 933.589 215.616C933.589 218.016 935.365 219.6 937.957 219.6C940.549 219.6 942.325 218.016 942.325 215.616ZM941.797 246V222.336H934.117V246H941.797ZM963.192 222.336C963.192 222.336 962.376 221.904 960.792 221.904C958.248 221.904 956.28 223.104 954.936 225.696H954.84L954.888 222.336H947.208V246H954.888V235.488C954.888 232.368 955.848 228.816 959.64 228.816C960.984 228.816 961.992 229.152 962.424 229.392H962.76L963.192 222.336ZM989.018 233.472C989.018 226.56 984.17 221.904 977.162 221.904C970.154 221.904 964.394 226.368 964.394 234.192C964.394 242.016 969.722 246.528 977.018 246.528C984.362 246.528 987.482 243.264 988.25 242.688L985.226 238.704C983.882 239.616 981.194 240.96 978.122 240.96C975.002 240.96 972.41 239.424 972.074 236.016H988.922C988.922 236.016 989.018 234.624 989.018 233.472ZM981.866 231.648H972.122C972.218 229.392 973.85 226.896 977.018 226.896C980.234 226.896 981.818 229.488 981.866 231.648ZM1010.85 238.704C1010.85 233.472 1006.58 232.224 1002.5 231.024C1000.87 230.544 999.042 229.968 999.042 228.72C999.042 227.472 1000.05 226.992 1001.87 226.992C1003.79 226.992 1006.48 228.24 1007.83 229.296L1010.32 224.784C1008.98 223.68 1006.19 221.856 1001.25 221.856C996.306 221.856 992.274 224.688 992.274 229.296C992.274 234.192 995.73 235.584 999.666 236.592C1000.53 236.88 1003.99 237.648 1003.99 239.184C1003.99 240.72 1002.64 241.2 1000.72 241.2C998.802 241.2 995.634 239.952 993.714 238.32L990.834 242.88C993.522 245.424 997.266 246.528 1000.82 246.528C1005.71 246.528 1010.85 244.368 1010.85 238.704ZM552.453 284.192V278.384H547.221V271.952H539.493V278.384H536.133V284.192H539.493V293.36C539.493 298.784 540.789 302.528 546.933 302.528C549.717 302.528 551.829 301.904 552.405 301.76L552.021 295.76C552.021 295.76 550.917 296.192 549.717 296.192C547.365 296.192 547.221 294.752 547.221 292.688V284.192H552.453ZM592.658 278.336H584.882L580.706 293.456L576.146 278.336H569.858L565.298 293.456L561.122 278.336H553.346L561.122 302H568.37L573.026 287.504L577.634 302H584.882L592.658 278.336ZM620.424 290.24C620.424 282.608 614.808 277.904 607.32 277.904C599.832 277.904 594.168 282.608 594.168 290.24C594.168 297.872 599.832 302.528 607.32 302.528C614.808 302.528 620.424 297.872 620.424 290.24ZM612.696 290.096C612.696 293.6 610.68 296.24 607.32 296.24C603.912 296.24 601.944 293.6 601.944 290.096C601.944 286.592 603.912 283.952 607.32 283.952C610.68 283.952 612.696 286.592 612.696 290.096ZM654.234 299.696L652.41 293.888C652.41 293.888 650.01 296.192 646.41 296.192C642.81 296.192 640.458 293.84 640.458 290.096C640.458 286.352 643.05 284.096 646.314 284.096C649.626 284.096 651.738 285.68 652.41 286.208L654.09 280.4C654.09 280.4 651.354 277.904 645.306 277.904C638.826 277.904 632.73 282.32 632.73 290.24C632.73 298.112 638.73 302.528 645.21 302.528C651.498 302.528 653.994 299.888 654.234 299.696ZM679.682 302V288.656C679.682 280.976 675.41 277.904 668.018 277.904C663.602 277.904 659.906 279.296 657.89 280.304L659.906 285.296C661.106 284.528 664.13 283.184 667.154 283.184C670.226 283.184 672.002 284.48 672.002 286.976V287.504L666.05 287.744C661.682 287.936 656.834 289.712 656.834 294.992C656.834 300.272 661.25 302.528 665.426 302.528C669.266 302.528 671.186 300.512 672.194 299.504L672.338 302H679.682ZM672.05 291.584V295.472C671.57 296.288 670.178 297.632 668.114 297.632C666.002 297.632 664.514 296.528 664.514 294.704C664.514 292.928 665.906 291.92 668.258 291.824L672.05 291.584ZM711.133 290.192C711.133 283.232 706.813 277.904 699.997 277.904C696.397 277.904 693.853 279.296 692.125 281.36H692.029L692.077 278.336H684.781V310.688H692.461V299.024C693.949 301.232 696.445 302.528 699.949 302.528C706.813 302.528 711.133 297.152 711.133 290.192ZM703.309 290.096C703.309 293.744 701.053 296.24 697.741 296.24C694.477 296.24 692.221 293.744 692.221 290.096C692.221 286.448 694.477 283.952 697.741 283.952C701.053 283.952 703.309 286.448 703.309 290.096ZM736.291 302V288.656C736.291 280.976 732.019 277.904 724.627 277.904C720.211 277.904 716.515 279.296 714.499 280.304L716.515 285.296C717.715 284.528 720.739 283.184 723.763 283.184C726.835 283.184 728.611 284.48 728.611 286.976V287.504L722.659 287.744C718.291 287.936 713.443 289.712 713.443 294.992C713.443 300.272 717.859 302.528 722.035 302.528C725.875 302.528 727.795 300.512 728.803 299.504L728.947 302H736.291ZM728.659 291.584V295.472C728.179 296.288 726.787 297.632 724.723 297.632C722.611 297.632 721.123 296.528 721.123 294.704C721.123 292.928 722.515 291.92 724.867 291.824L728.659 291.584ZM767.79 290.192C767.79 283.232 763.47 277.904 756.654 277.904C752.622 277.904 750.222 279.776 749.214 281.216H749.07C749.07 281.216 749.166 279.008 749.166 276.848V268.88H741.486V302H748.782L748.734 298.88H748.782C750.558 301.376 753.39 302.528 756.606 302.528C763.47 302.528 767.79 297.152 767.79 290.192ZM759.966 290.096C759.966 293.744 757.758 296.24 754.446 296.24C751.134 296.24 748.878 293.744 748.878 290.096C748.878 286.448 751.134 283.952 754.446 283.952C757.758 283.952 759.966 286.448 759.966 290.096ZM780.082 271.616C780.082 269.264 778.306 267.632 775.714 267.632C773.122 267.632 771.346 269.264 771.346 271.616C771.346 274.016 773.122 275.6 775.714 275.6C778.306 275.6 780.082 274.016 780.082 271.616ZM779.554 302V278.336H771.874V302H779.554ZM792.838 302V268.88H785.158V302H792.838ZM806.645 271.616C806.645 269.264 804.869 267.632 802.277 267.632C799.685 267.632 797.909 269.264 797.909 271.616C797.909 274.016 799.685 275.6 802.277 275.6C804.869 275.6 806.645 274.016 806.645 271.616ZM806.117 302V278.336H798.437V302H806.117ZM825.64 284.192V278.384H820.408V271.952H812.68V278.384H809.32V284.192H812.68V293.36C812.68 298.784 813.976 302.528 820.12 302.528C822.904 302.528 825.016 301.904 825.592 301.76L825.208 295.76C825.208 295.76 824.104 296.192 822.904 296.192C820.552 296.192 820.408 294.752 820.408 292.688V284.192H825.64ZM837.286 271.616C837.286 269.264 835.51 267.632 832.918 267.632C830.326 267.632 828.55 269.264 828.55 271.616C828.55 274.016 830.326 275.6 832.918 275.6C835.51 275.6 837.286 274.016 837.286 271.616ZM836.758 302V278.336H829.078V302H836.758ZM865.401 289.472C865.401 282.56 860.553 277.904 853.545 277.904C846.537 277.904 840.777 282.368 840.777 290.192C840.777 298.016 846.105 302.528 853.401 302.528C860.745 302.528 863.865 299.264 864.633 298.688L861.609 294.704C860.265 295.616 857.577 296.96 854.505 296.96C851.385 296.96 848.793 295.424 848.457 292.016H865.305C865.305 292.016 865.401 290.624 865.401 289.472ZM858.249 287.648H848.505C848.601 285.392 850.233 282.896 853.401 282.896C856.617 282.896 858.201 285.488 858.249 287.648ZM887.233 294.704C887.233 289.472 882.961 288.224 878.881 287.024C877.249 286.544 875.425 285.968 875.425 284.72C875.425 283.472 876.433 282.992 878.257 282.992C880.177 282.992 882.865 284.24 884.209 285.296L886.705 280.784C885.361 279.68 882.577 277.856 877.633 277.856C872.689 277.856 868.657 280.688 868.657 285.296C868.657 290.192 872.113 291.584 876.049 292.592C876.913 292.88 880.369 293.648 880.369 295.184C880.369 296.72 879.025 297.2 877.105 297.2C875.185 297.2 872.017 295.952 870.097 294.32L867.217 298.88C869.905 301.424 873.649 302.528 877.201 302.528C882.097 302.528 887.233 300.368 887.233 294.704ZM900.883 282.032C900.883 279.44 899.011 277.904 896.371 277.904C893.683 277.904 891.811 279.44 891.811 282.032C891.811 284.624 893.683 286.112 896.371 286.112C899.011 286.112 900.883 284.624 900.883 282.032ZM900.883 298.4C900.883 295.808 899.011 294.272 896.371 294.272C893.683 294.272 891.811 295.808 891.811 298.4C891.811 300.992 893.683 302.528 896.371 302.528C899.011 302.528 900.883 300.992 900.883 298.4Z" fill="#8C9195"/>
<path fill-rule="evenodd" clip-rule="evenodd" d="M159 116.224L148.118 127.106L143.875 122.864L159.86 106.879L161.982 104.757L164.103 106.879L180.088 122.864L175.846 127.106L165 116.261L165 799H159L159 116.224Z" fill="url(#paint1_linear)"/>
<path fill-rule="evenodd" clip-rule="evenodd" d="M159 116.224L148.118 127.106L143.875 122.864L159.86 106.879L161.982 104.757L164.103 106.879L180.088 122.864L175.846 127.106L165 116.261L165 799H159L159 116.224Z" fill="#71A4CF"/>
<path fill-rule="evenodd" clip-rule="evenodd" d="M1269.65 795L1258.89 784.243L1263.14 780L1279.12 795.985L1281.24 798.107L1279.12 800.228L1263.14 816.213L1258.89 811.971L1269.86 801L159 801L159 795L1269.65 795Z" fill="url(#paint2_linear)"/>
<path d="M119 545.336L119 540.032C119 534.92 116.048 531.104 110.696 531.104C105.392 531.104 102.44 534.992 102.44 540.032L102.44 545.336L119 545.336ZM116.36 539.912L116.36 542.216L105.056 542.216L105.056 539.912C105.056 536.432 107.24 534.32 110.72 534.32C114.176 534.32 116.36 536.456 116.36 539.912ZM105.536 526.796C105.536 525.716 104.84 524.948 103.832 524.948C102.848 524.948 102.128 525.716 102.128 526.796C102.128 527.876 102.848 528.644 103.832 528.644C104.84 528.644 105.536 527.876 105.536 526.796ZM119 528.332L119 525.26L107.384 525.26L107.384 528.332L119 528.332ZM116.792 513.372L117.368 513.372C119.936 513.372 121.16 514.5 121.16 517.116C121.16 518.604 120.32 520.5 119.792 521.244L121.928 522.516C122.336 521.94 123.656 519.876 123.656 517.116C123.656 514.332 122.672 512.844 121.616 511.836C120.584 510.852 119.144 510.324 116.6 510.324L107.384 510.324L107.384 513.372L108.992 513.348L108.992 513.396C107.744 514.212 107.168 515.532 107.168 517.092C107.168 520.548 109.832 522.804 113.048 522.804C116.744 522.804 118.616 520.308 118.616 517.38C118.616 515.604 117.992 514.212 116.792 513.42L116.792 513.372ZM112.976 513.204C114.752 513.204 116.216 514.308 116.216 516.516C116.216 518.532 114.752 519.684 112.976 519.684C111.08 519.684 109.592 518.484 109.592 516.468C109.592 514.452 111.296 513.204 112.976 513.204ZM105.536 505.554C105.536 504.474 104.84 503.706 103.832 503.706C102.848 503.706 102.128 504.474 102.128 505.554C102.128 506.634 102.848 507.402 103.832 507.402C104.84 507.402 105.536 506.634 105.536 505.554ZM119 507.09L119 504.018L107.384 504.018L107.384 507.09L119 507.09ZM109.784 497.266L109.784 494.578L107.408 494.578L107.408 497.266L104.096 497.266L104.096 500.314L107.408 500.314L107.408 502.042L109.784 502.042L109.784 500.314L115.16 500.314C118.184 500.314 119.264 499.33 119.264 496.954C119.264 495.658 118.928 494.746 118.88 494.602L116.504 494.77C116.504 494.77 116.696 495.25 116.696 495.874C116.696 496.954 116.264 497.266 114.488 497.266L109.784 497.266ZM119 485.784L119 482.832L112.352 482.832C108.776 482.832 107.168 484.656 107.168 488.208C107.168 490.224 107.864 491.856 108.392 492.744L110.36 491.808C109.976 491.304 109.4 490.032 109.4 488.496C109.4 486.888 110.096 485.904 111.584 485.904L111.896 485.904L112.088 488.688C112.256 491.088 113.192 493.464 115.616 493.464C118.04 493.464 119.264 491.64 119.264 489.384C119.264 487.656 118.496 486.312 117.656 485.832L119 485.784ZM113.768 485.88L115.904 485.88C116.48 486.288 117.176 487.176 117.176 488.376C117.176 489.648 116.504 490.392 115.52 490.392C114.536 490.392 113.984 489.6 113.888 487.968L113.768 485.88ZM119 479.831L119 476.783L102.44 476.783L102.44 479.831L119 479.831ZM107.384 465.384L107.384 468.504L123.392 468.504L123.392 465.456L119.36 465.456C118.544 465.456 118.016 465.48 117.464 465.504L117.44 465.456C118.592 464.496 119.216 463.512 119.216 461.736C119.216 458.208 116.504 456.024 113.216 456.024C109.76 456.024 107.12 458.112 107.12 461.52C107.12 463.056 107.648 464.448 109.04 465.384L109.016 465.432L107.384 465.384ZM109.616 462.384C109.616 460.392 111.2 459.144 113.216 459.144C115.16 459.144 116.864 460.296 116.864 462.288C116.864 464.256 115.16 465.528 113.216 465.528C111.032 465.528 109.616 464.232 109.616 462.384ZM107.384 450.775L107.384 453.847L114.272 453.847C117.056 453.847 119.216 453.031 119.216 449.695C119.216 448.015 118.52 446.767 117.368 446.095L119 446.071L119 443.095L107.384 443.095L107.384 446.167L113.288 446.167C115.232 446.167 116.696 446.863 116.696 448.711C116.696 450.487 115.328 450.775 113.6 450.775L107.384 450.775ZM119 440.021L119 436.973L113.288 436.973C112.4 436.973 111.608 436.829 111.032 436.541C110.288 436.109 109.904 435.413 109.904 434.501C109.904 434.093 109.952 433.565 110.048 433.229L110.048 433.085L107.384 432.869C107.384 432.869 107.168 433.301 107.168 434.093C107.168 435.341 108.008 436.493 109.256 436.949L109.256 437.021L107.384 436.973L107.384 440.021L119 440.021ZM115.448 422.265C115.448 422.265 116.672 423.369 116.672 425.361C116.672 427.353 115.28 428.817 113.144 428.817C111.008 428.817 109.736 427.353 109.736 425.529C109.736 423.729 110.624 422.697 110.96 422.337L108.656 421.497C108.344 421.809 107.168 422.961 107.168 425.889C107.168 429.009 109.472 432.033 113.288 432.033C117.08 432.033 119.264 429.105 119.264 425.937C119.264 422.841 117.92 421.641 117.704 421.401L115.448 422.265ZM107.168 412.81C107.168 414.49 107.912 415.666 109.136 416.29L109.136 416.338L102.44 416.338L102.44 419.386L119 419.386L119 416.338L113.216 416.338C111.272 416.338 109.688 415.69 109.688 413.794C109.688 412.018 111.056 411.706 112.784 411.706L119 411.706L119 408.634L112.112 408.634C109.328 408.634 107.168 409.474 107.168 412.81ZM119 398.823L119 395.871L112.352 395.871C108.776 395.871 107.168 397.695 107.168 401.247C107.168 403.263 107.864 404.895 108.392 405.783L110.36 404.847C109.976 404.343 109.4 403.071 109.4 401.535C109.4 399.927 110.096 398.943 111.584 398.943L111.896 398.943L112.088 401.727C112.256 404.127 113.192 406.503 115.616 406.503C118.04 406.503 119.264 404.679 119.264 402.423C119.264 400.695 118.496 399.351 117.656 398.871L119 398.823ZM113.768 398.919L115.904 398.919C116.48 399.327 117.176 400.215 117.176 401.415C117.176 402.687 116.504 403.431 115.52 403.431C114.536 403.431 113.984 402.639 113.888 401.007L113.768 398.919ZM110.456 386.294L108.416 384.974C107.72 385.934 107.168 387.086 107.168 389.15C107.168 391.382 108.536 393.302 110.648 393.302C112.352 393.302 113.384 392.414 113.96 390.686L114.416 389.342C114.92 387.854 115.256 387.398 115.856 387.398C116.528 387.398 116.96 387.926 116.96 389.078C116.96 390.062 116.432 391.238 115.376 392.606L117.464 393.854C118.544 392.918 119.264 390.926 119.264 389.15C119.264 386.294 117.632 384.542 115.424 384.542C113.744 384.542 112.832 385.454 111.992 388.022L111.728 388.838C111.32 390.134 110.912 390.518 110.408 390.518C109.856 390.518 109.472 390.014 109.472 389.006C109.472 387.95 109.952 386.966 110.456 386.294ZM105.536 380.749C105.536 379.669 104.84 378.901 103.832 378.901C102.848 378.901 102.128 379.669 102.128 380.749C102.128 381.829 102.848 382.597 103.832 382.597C104.84 382.597 105.536 381.829 105.536 380.749ZM119 382.285L119 379.213L107.384 379.213L107.384 382.285L119 382.285ZM119 368.333L119 365.261L112.112 365.261C109.328 365.261 107.168 366.101 107.168 369.437C107.168 371.117 107.912 372.293 109.136 372.917L109.136 372.989L107.384 372.965L107.384 376.037L119 376.037L119 372.965L113.216 372.965C111.272 372.965 109.688 372.317 109.688 370.421C109.688 368.645 111.056 368.333 112.784 368.333L119 368.333ZM116.792 353.528L117.368 353.528C119.936 353.528 121.16 354.656 121.16 357.272C121.16 358.76 120.32 360.656 119.792 361.4L121.928 362.672C122.336 362.096 123.656 360.032 123.656 357.272C123.656 354.488 122.672 353 121.616 351.992C120.584 351.008 119.144 350.48 116.6 350.48L107.384 350.48L107.384 353.528L108.992 353.504L108.992 353.552C107.744 354.368 107.168 355.688 107.168 357.248C107.168 360.704 109.832 362.96 113.048 362.96C116.744 362.96 118.616 360.464 118.616 357.536C118.616 355.76 117.992 354.368 116.792 353.576L116.792 353.528ZM112.976 353.36C114.752 353.36 116.216 354.464 116.216 356.672C116.216 358.688 114.752 359.84 112.976 359.84C111.08 359.84 109.592 358.64 109.592 356.624C109.592 354.608 111.296 353.36 112.976 353.36Z" fill="#676E73"/>
<defs>
<linearGradient id="paint0_linear" x1="720" y1="0" x2="720" y2="904" gradientUnits="userSpaceOnUse">
<stop stop-color="#071520"/>
<stop offset="1" stop-color="#071520"/>
</linearGradient>
<linearGradient id="paint1_linear" x1="161.982" y1="198.757" x2="161.982" y2="814" gradientUnits="userSpaceOnUse">
<stop stop-color="#4186BF"/>
<stop offset="1" stop-color="#4186BF" stop-opacity="0"/>
</linearGradient>
<linearGradient id="paint2_linear" x1="1281.24" y1="798.107" x2="160" y2="798.107" gradientUnits="userSpaceOnUse">
<stop stop-color="#D3AD0F"/>
<stop offset="1" stop-color="#D3AD0F" stop-opacity="0"/>
</linearGradient>
</defs>
</svg>
