<svg width="1440" height="904" viewBox="0 0 1440 904" fill="none" xmlns="http://www.w3.org/2000/svg">
<rect width="1440" height="904" fill="url(#paint0_linear)"/>
<path d="M219 105V799" stroke="#143F63" stroke-width="2"/>
<path d="M277.941 105V799" stroke="#143F63" stroke-width="2"/>
<path d="M336.883 105V799" stroke="#143F63" stroke-width="2"/>
<path d="M395.824 105V799" stroke="#143F63" stroke-width="2"/>
<path d="M454.766 105V799" stroke="#143F63" stroke-width="2"/>
<path d="M513.707 105V799" stroke="#143F63" stroke-width="2"/>
<path d="M572.648 105V799" stroke="#143F63" stroke-width="2"/>
<path d="M631.59 105V799" stroke="#143F63" stroke-width="2"/>
<path d="M690.531 105V799" stroke="#143F63" stroke-width="2"/>
<path d="M749.469 105V799" stroke="#143F63" stroke-width="2"/>
<path d="M808.41 105V799" stroke="#143F63" stroke-width="2"/>
<path d="M867.352 105V799" stroke="#143F63" stroke-width="2"/>
<path d="M926.293 105V799" stroke="#143F63" stroke-width="2"/>
<path d="M985.234 105V799" stroke="#143F63" stroke-width="2"/>
<path d="M1044.18 105V799" stroke="#143F63" stroke-width="2"/>
<path d="M1103.12 105V799" stroke="#143F63" stroke-width="2"/>
<path d="M1162.06 105V799" stroke="#143F63" stroke-width="2"/>
<path d="M1221 105V799" stroke="#143F63" stroke-width="2"/>
<path d="M1277 480L163 480" stroke="#143F63" stroke-width="2"/>
<path d="M1277 533L163 533" stroke="#143F63" stroke-width="2"/>
<path d="M1277 586L163 586" stroke="#143F63" stroke-width="2"/>
<path d="M1277 639L163 639" stroke="#143F63" stroke-width="2"/>
<path d="M1277 692L163 692" stroke="#143F63" stroke-width="2"/>
<path d="M1277 745L163 745" stroke="#143F63" stroke-width="2"/>
<path d="M1277 162L163 162" stroke="#143F63" stroke-width="2"/>
<path d="M1277 215L163 215" stroke="#143F63" stroke-width="2"/>
<path d="M1277 268L163 268" stroke="#143F63" stroke-width="2"/>
<path d="M1277 321L163 321" stroke="#143F63" stroke-width="2"/>
<path d="M1277 374L163 374" stroke="#143F63" stroke-width="2"/>
<path d="M1277 427L163 427" stroke="#143F63" stroke-width="2"/>
<rect x="163" y="106" width="1113" height="692" stroke="#143F63" stroke-width="2"/>
<path fill-rule="evenodd" clip-rule="evenodd" d="M159 116.224L148.118 127.106L143.875 122.864L159.86 106.879L161.982 104.757L164.103 106.879L180.088 122.864L175.846 127.106L165 116.261L165 799H159L159 116.224Z" fill="url(#paint1_linear)"/>
<path fill-rule="evenodd" clip-rule="evenodd" d="M159 116.224L148.118 127.106L143.875 122.864L159.86 106.879L161.982 104.757L164.103 106.879L180.088 122.864L175.846 127.106L165 116.261L165 799H159L159 116.224Z" fill="#71A4CF"/>
<path fill-rule="evenodd" clip-rule="evenodd" d="M1269.65 795L1258.89 784.243L1263.14 780L1279.12 795.985L1281.24 798.107L1279.12 800.228L1263.14 816.213L1258.89 811.971L1269.86 801L159 801L159 795L1269.65 795Z" fill="url(#paint2_linear)"/>
<path fill-rule="evenodd" clip-rule="evenodd" d="M1269.65 795L1258.89 784.243L1263.14 780L1279.12 795.985L1281.24 798.107L1279.12 800.228L1263.14 816.213L1258.89 811.971L1269.86 801L159 801L159 795L1269.65 795Z" fill="#DCBD3F"/>
<path d="M119 545.336L119 540.032C119 534.92 116.048 531.104 110.696 531.104C105.392 531.104 102.44 534.992 102.44 540.032L102.44 545.336L119 545.336ZM116.36 539.912L116.36 542.216L105.056 542.216L105.056 539.912C105.056 536.432 107.24 534.32 110.72 534.32C114.176 534.32 116.36 536.456 116.36 539.912ZM105.536 526.796C105.536 525.716 104.84 524.948 103.832 524.948C102.848 524.948 102.128 525.716 102.128 526.796C102.128 527.876 102.848 528.644 103.832 528.644C104.84 528.644 105.536 527.876 105.536 526.796ZM119 528.332L119 525.26L107.384 525.26L107.384 528.332L119 528.332ZM116.792 513.372L117.368 513.372C119.936 513.372 121.16 514.5 121.16 517.116C121.16 518.604 120.32 520.5 119.792 521.244L121.928 522.516C122.336 521.94 123.656 519.876 123.656 517.116C123.656 514.332 122.672 512.844 121.616 511.836C120.584 510.852 119.144 510.324 116.6 510.324L107.384 510.324L107.384 513.372L108.992 513.348L108.992 513.396C107.744 514.212 107.168 515.532 107.168 517.092C107.168 520.548 109.832 522.804 113.048 522.804C116.744 522.804 118.616 520.308 118.616 517.38C118.616 515.604 117.992 514.212 116.792 513.42L116.792 513.372ZM112.976 513.204C114.752 513.204 116.216 514.308 116.216 516.516C116.216 518.532 114.752 519.684 112.976 519.684C111.08 519.684 109.592 518.484 109.592 516.468C109.592 514.452 111.296 513.204 112.976 513.204ZM105.536 505.554C105.536 504.474 104.84 503.706 103.832 503.706C102.848 503.706 102.128 504.474 102.128 505.554C102.128 506.634 102.848 507.402 103.832 507.402C104.84 507.402 105.536 506.634 105.536 505.554ZM119 507.09L119 504.018L107.384 504.018L107.384 507.09L119 507.09ZM109.784 497.266L109.784 494.578L107.408 494.578L107.408 497.266L104.096 497.266L104.096 500.314L107.408 500.314L107.408 502.042L109.784 502.042L109.784 500.314L115.16 500.314C118.184 500.314 119.264 499.33 119.264 496.954C119.264 495.658 118.928 494.746 118.88 494.602L116.504 494.77C116.504 494.77 116.696 495.25 116.696 495.874C116.696 496.954 116.264 497.266 114.488 497.266L109.784 497.266ZM119 485.784L119 482.832L112.352 482.832C108.776 482.832 107.168 484.656 107.168 488.208C107.168 490.224 107.864 491.856 108.392 492.744L110.36 491.808C109.976 491.304 109.4 490.032 109.4 488.496C109.4 486.888 110.096 485.904 111.584 485.904L111.896 485.904L112.088 488.688C112.256 491.088 113.192 493.464 115.616 493.464C118.04 493.464 119.264 491.64 119.264 489.384C119.264 487.656 118.496 486.312 117.656 485.832L119 485.784ZM113.768 485.88L115.904 485.88C116.48 486.288 117.176 487.176 117.176 488.376C117.176 489.648 116.504 490.392 115.52 490.392C114.536 490.392 113.984 489.6 113.888 487.968L113.768 485.88ZM119 479.831L119 476.783L102.44 476.783L102.44 479.831L119 479.831ZM107.384 465.384L107.384 468.504L123.392 468.504L123.392 465.456L119.36 465.456C118.544 465.456 118.016 465.48 117.464 465.504L117.44 465.456C118.592 464.496 119.216 463.512 119.216 461.736C119.216 458.208 116.504 456.024 113.216 456.024C109.76 456.024 107.12 458.112 107.12 461.52C107.12 463.056 107.648 464.448 109.04 465.384L109.016 465.432L107.384 465.384ZM109.616 462.384C109.616 460.392 111.2 459.144 113.216 459.144C115.16 459.144 116.864 460.296 116.864 462.288C116.864 464.256 115.16 465.528 113.216 465.528C111.032 465.528 109.616 464.232 109.616 462.384ZM107.384 450.775L107.384 453.847L114.272 453.847C117.056 453.847 119.216 453.031 119.216 449.695C119.216 448.015 118.52 446.767 117.368 446.095L119 446.071L119 443.095L107.384 443.095L107.384 446.167L113.288 446.167C115.232 446.167 116.696 446.863 116.696 448.711C116.696 450.487 115.328 450.775 113.6 450.775L107.384 450.775ZM119 440.021L119 436.973L113.288 436.973C112.4 436.973 111.608 436.829 111.032 436.541C110.288 436.109 109.904 435.413 109.904 434.501C109.904 434.093 109.952 433.565 110.048 433.229L110.048 433.085L107.384 432.869C107.384 432.869 107.168 433.301 107.168 434.093C107.168 435.341 108.008 436.493 109.256 436.949L109.256 437.021L107.384 436.973L107.384 440.021L119 440.021ZM115.448 422.265C115.448 422.265 116.672 423.369 116.672 425.361C116.672 427.353 115.28 428.817 113.144 428.817C111.008 428.817 109.736 427.353 109.736 425.529C109.736 423.729 110.624 422.697 110.96 422.337L108.656 421.497C108.344 421.809 107.168 422.961 107.168 425.889C107.168 429.009 109.472 432.033 113.288 432.033C117.08 432.033 119.264 429.105 119.264 425.937C119.264 422.841 117.92 421.641 117.704 421.401L115.448 422.265ZM107.168 412.81C107.168 414.49 107.912 415.666 109.136 416.29L109.136 416.338L102.44 416.338L102.44 419.386L119 419.386L119 416.338L113.216 416.338C111.272 416.338 109.688 415.69 109.688 413.794C109.688 412.018 111.056 411.706 112.784 411.706L119 411.706L119 408.634L112.112 408.634C109.328 408.634 107.168 409.474 107.168 412.81ZM119 398.823L119 395.871L112.352 395.871C108.776 395.871 107.168 397.695 107.168 401.247C107.168 403.263 107.864 404.895 108.392 405.783L110.36 404.847C109.976 404.343 109.4 403.071 109.4 401.535C109.4 399.927 110.096 398.943 111.584 398.943L111.896 398.943L112.088 401.727C112.256 404.127 113.192 406.503 115.616 406.503C118.04 406.503 119.264 404.679 119.264 402.423C119.264 400.695 118.496 399.351 117.656 398.871L119 398.823ZM113.768 398.919L115.904 398.919C116.48 399.327 117.176 400.215 117.176 401.415C117.176 402.687 116.504 403.431 115.52 403.431C114.536 403.431 113.984 402.639 113.888 401.007L113.768 398.919ZM110.456 386.294L108.416 384.974C107.72 385.934 107.168 387.086 107.168 389.15C107.168 391.382 108.536 393.302 110.648 393.302C112.352 393.302 113.384 392.414 113.96 390.686L114.416 389.342C114.92 387.854 115.256 387.398 115.856 387.398C116.528 387.398 116.96 387.926 116.96 389.078C116.96 390.062 116.432 391.238 115.376 392.606L117.464 393.854C118.544 392.918 119.264 390.926 119.264 389.15C119.264 386.294 117.632 384.542 115.424 384.542C113.744 384.542 112.832 385.454 111.992 388.022L111.728 388.838C111.32 390.134 110.912 390.518 110.408 390.518C109.856 390.518 109.472 390.014 109.472 389.006C109.472 387.95 109.952 386.966 110.456 386.294ZM105.536 380.749C105.536 379.669 104.84 378.901 103.832 378.901C102.848 378.901 102.128 379.669 102.128 380.749C102.128 381.829 102.848 382.597 103.832 382.597C104.84 382.597 105.536 381.829 105.536 380.749ZM119 382.285L119 379.213L107.384 379.213L107.384 382.285L119 382.285ZM119 368.333L119 365.261L112.112 365.261C109.328 365.261 107.168 366.101 107.168 369.437C107.168 371.117 107.912 372.293 109.136 372.917L109.136 372.989L107.384 372.965L107.384 376.037L119 376.037L119 372.965L113.216 372.965C111.272 372.965 109.688 372.317 109.688 370.421C109.688 368.645 111.056 368.333 112.784 368.333L119 368.333ZM116.792 353.528L117.368 353.528C119.936 353.528 121.16 354.656 121.16 357.272C121.16 358.76 120.32 360.656 119.792 361.4L121.928 362.672C122.336 362.096 123.656 360.032 123.656 357.272C123.656 354.488 122.672 353 121.616 351.992C120.584 351.008 119.144 350.48 116.6 350.48L107.384 350.48L107.384 353.528L108.992 353.504L108.992 353.552C107.744 354.368 107.168 355.688 107.168 357.248C107.168 360.704 109.832 362.96 113.048 362.96C116.744 362.96 118.616 360.464 118.616 357.536C118.616 355.76 117.992 354.368 116.792 353.576L116.792 353.528ZM112.976 353.36C114.752 353.36 116.216 354.464 116.216 356.672C116.216 358.688 114.752 359.84 112.976 359.84C111.08 359.84 109.592 358.64 109.592 356.624C109.592 354.608 111.296 353.36 112.976 353.36Z" fill="#676E73"/>
<path d="M580.03 845H583.174V838.472H585.358C588.478 838.472 591.238 836.816 591.238 833.408C591.238 829.952 588.502 828.44 585.358 828.44H580.03V845ZM584.974 836.024H583.15V830.888H584.902C586.51 830.888 588.022 831.584 588.022 833.408C588.022 835.208 586.63 836.024 584.974 836.024ZM603.736 838.616C603.736 835.52 601.576 833.168 598 833.168C594.688 833.168 591.976 835.664 591.976 839.384C591.976 843.128 594.568 845.264 598.072 845.264C600.904 845.264 602.656 844.064 603.304 843.392L602.104 841.736C601.552 842.216 600.16 842.912 598.6 842.912C596.872 842.912 595.432 842 595.144 840.176H603.688C603.688 840.176 603.736 839.216 603.736 838.616ZM597.976 835.448C600.136 835.448 600.616 836.912 600.664 838.184H595.096C595.192 836.696 596.152 835.448 597.976 835.448ZM606.025 845H609.073V839.288C609.073 838.4 609.217 837.608 609.505 837.032C609.937 836.288 610.633 835.904 611.545 835.904C611.953 835.904 612.481 835.952 612.817 836.048H612.961L613.177 833.384C613.177 833.384 612.745 833.168 611.953 833.168C610.705 833.168 609.553 834.008 609.097 835.256H609.025L609.073 833.384H606.025V845ZM621.292 836.456L622.612 834.416C621.652 833.72 620.5 833.168 618.436 833.168C616.204 833.168 614.284 834.536 614.284 836.648C614.284 838.352 615.172 839.384 616.9 839.96L618.244 840.416C619.732 840.92 620.188 841.256 620.188 841.856C620.188 842.528 619.66 842.96 618.508 842.96C617.524 842.96 616.348 842.432 614.98 841.376L613.732 843.464C614.668 844.544 616.66 845.264 618.436 845.264C621.292 845.264 623.044 843.632 623.044 841.424C623.044 839.744 622.132 838.832 619.564 837.992L618.748 837.728C617.452 837.32 617.068 836.912 617.068 836.408C617.068 835.856 617.572 835.472 618.58 835.472C619.636 835.472 620.62 835.952 621.292 836.456ZM630.797 845.264C634.349 845.264 637.085 842.912 637.085 839.24C637.085 835.568 634.349 833.168 630.797 833.168C627.221 833.168 624.485 835.568 624.485 839.24C624.485 842.912 627.221 845.264 630.797 845.264ZM633.917 839.168C633.917 841.16 632.765 842.72 630.797 842.72C628.781 842.72 627.677 841.16 627.677 839.168C627.677 837.176 628.781 835.64 630.797 835.64C632.765 835.64 633.917 837.176 633.917 839.168ZM647.151 845H650.223V838.112C650.223 835.328 649.383 833.168 646.047 833.168C644.367 833.168 643.191 833.912 642.567 835.136H642.495L642.519 833.384H639.447V845H642.519V839.216C642.519 837.272 643.167 835.688 645.063 835.688C646.839 835.688 647.151 837.056 647.151 838.784V845ZM660.036 845H662.988V838.352C662.988 834.776 661.164 833.168 657.612 833.168C655.596 833.168 653.964 833.864 653.076 834.392L654.012 836.36C654.516 835.976 655.788 835.4 657.324 835.4C658.932 835.4 659.916 836.096 659.916 837.584V837.896L657.132 838.088C654.732 838.256 652.356 839.192 652.356 841.616C652.356 844.04 654.18 845.264 656.436 845.264C658.164 845.264 659.508 844.496 659.988 843.656L660.036 845ZM659.94 839.768V841.904C659.532 842.48 658.644 843.176 657.444 843.176C656.172 843.176 655.428 842.504 655.428 841.52C655.428 840.536 656.22 839.984 657.852 839.888L659.94 839.768ZM665.989 845H669.037V828.44H665.989V845ZM673.868 831.536C674.948 831.536 675.716 830.84 675.716 829.832C675.716 828.848 674.948 828.128 673.868 828.128C672.788 828.128 672.02 828.848 672.02 829.832C672.02 830.84 672.788 831.536 673.868 831.536ZM672.332 845H675.404V833.384H672.332V845ZM677.644 845H688.084V842.552H681.556L687.772 835.184V833.408H677.956V835.808H683.932L677.644 843.2V845ZM701.236 838.616C701.236 835.52 699.076 833.168 695.5 833.168C692.188 833.168 689.476 835.664 689.476 839.384C689.476 843.128 692.068 845.264 695.572 845.264C698.404 845.264 700.156 844.064 700.804 843.392L699.604 841.736C699.052 842.216 697.66 842.912 696.1 842.912C694.372 842.912 692.932 842 692.644 840.176H701.188C701.188 840.176 701.236 839.216 701.236 838.616ZM695.476 835.448C697.636 835.448 698.116 836.912 698.164 838.184H692.596C692.692 836.696 693.652 835.448 695.476 835.448ZM712.499 845H715.403V828.44H712.355V833.024C712.355 833.84 712.355 834.464 712.379 834.992H712.331C711.515 833.744 710.195 833.168 708.635 833.168C705.107 833.168 702.923 835.88 702.923 839.168C702.923 842.624 705.011 845.264 708.419 845.264C710.027 845.264 711.467 844.664 712.403 843.176H712.475L712.499 845ZM709.283 842.768C707.291 842.768 706.043 841.184 706.043 839.168C706.043 837.224 707.195 835.52 709.187 835.52C711.155 835.52 712.427 837.224 712.427 839.168C712.427 841.352 711.131 842.768 709.283 842.768ZM734.611 838.616C734.611 835.52 732.451 833.168 728.875 833.168C725.563 833.168 722.851 835.664 722.851 839.384C722.851 843.128 725.443 845.264 728.947 845.264C731.779 845.264 733.531 844.064 734.179 843.392L732.979 841.736C732.427 842.216 731.035 842.912 729.475 842.912C727.747 842.912 726.307 842 726.019 840.176H734.563C734.563 840.176 734.611 839.216 734.611 838.616ZM728.851 835.448C731.011 835.448 731.491 836.912 731.539 838.184H725.971C726.067 836.696 727.027 835.448 728.851 835.448ZM744.604 845H747.676V838.112C747.676 835.328 746.836 833.168 743.5 833.168C741.82 833.168 740.644 833.912 740.02 835.136H739.948L739.972 833.384H736.9V845H739.972V839.216C739.972 837.272 740.62 835.688 742.516 835.688C744.292 835.688 744.604 837.056 744.604 838.784V845ZM759.409 842.792V843.368C759.409 845.936 758.281 847.16 755.665 847.16C754.177 847.16 752.281 846.32 751.537 845.792L750.265 847.928C750.841 848.336 752.905 849.656 755.665 849.656C758.449 849.656 759.937 848.672 760.945 847.616C761.929 846.584 762.457 845.144 762.457 842.6V833.384H759.409L759.433 834.992H759.385C758.569 833.744 757.249 833.168 755.689 833.168C752.233 833.168 749.977 835.832 749.977 839.048C749.977 842.744 752.473 844.616 755.401 844.616C757.177 844.616 758.569 843.992 759.361 842.792H759.409ZM759.577 838.976C759.577 840.752 758.473 842.216 756.265 842.216C754.249 842.216 753.097 840.752 753.097 838.976C753.097 837.08 754.297 835.592 756.313 835.592C758.329 835.592 759.577 837.296 759.577 838.976ZM772.388 845H775.34V838.352C775.34 834.776 773.516 833.168 769.964 833.168C767.948 833.168 766.316 833.864 765.428 834.392L766.364 836.36C766.868 835.976 768.14 835.4 769.676 835.4C771.284 835.4 772.268 836.096 772.268 837.584V837.896L769.484 838.088C767.084 838.256 764.708 839.192 764.708 841.616C764.708 844.04 766.532 845.264 768.788 845.264C770.516 845.264 771.86 844.496 772.34 843.656L772.388 845ZM772.292 839.768V841.904C771.884 842.48 770.996 843.176 769.796 843.176C768.524 843.176 767.78 842.504 767.78 841.52C767.78 840.536 768.572 839.984 770.204 839.888L772.292 839.768ZM786.933 842.792V843.368C786.933 845.936 785.805 847.16 783.189 847.16C781.701 847.16 779.805 846.32 779.061 845.792L777.789 847.928C778.365 848.336 780.429 849.656 783.189 849.656C785.973 849.656 787.461 848.672 788.469 847.616C789.453 846.584 789.981 845.144 789.981 842.6V833.384H786.933L786.957 834.992H786.909C786.093 833.744 784.773 833.168 783.213 833.168C779.757 833.168 777.501 835.832 777.501 839.048C777.501 842.744 779.997 844.616 782.925 844.616C784.701 844.616 786.093 843.992 786.885 842.792H786.933ZM787.101 838.976C787.101 840.752 785.997 842.216 783.789 842.216C781.773 842.216 780.621 840.752 780.621 838.976C780.621 837.08 781.821 835.592 783.837 835.592C785.853 835.592 787.101 837.296 787.101 838.976ZM804.111 838.616C804.111 835.52 801.951 833.168 798.375 833.168C795.063 833.168 792.351 835.664 792.351 839.384C792.351 843.128 794.943 845.264 798.447 845.264C801.279 845.264 803.031 844.064 803.679 843.392L802.479 841.736C801.927 842.216 800.535 842.912 798.975 842.912C797.247 842.912 795.807 842 795.519 840.176H804.063C804.063 840.176 804.111 839.216 804.111 838.616ZM798.351 835.448C800.511 835.448 800.991 836.912 801.039 838.184H795.471C795.567 836.696 796.527 835.448 798.351 835.448ZM820.032 833.168C818.352 833.168 817.032 833.96 816.24 835.376C815.688 833.84 814.656 833.168 812.976 833.168C811.464 833.168 810.048 834.056 809.52 835.136H809.448L809.472 833.384H806.4V845H809.472V839C809.472 837.176 810.168 835.688 811.752 835.688C813.216 835.688 813.624 836.888 813.624 838.472V845H816.696V839C816.696 837.008 817.488 835.688 819.024 835.688C820.536 835.688 820.848 837.08 820.848 838.496V845H823.92V837.992C823.92 835.328 823.08 833.168 820.032 833.168ZM837.916 838.616C837.916 835.52 835.756 833.168 832.18 833.168C828.868 833.168 826.156 835.664 826.156 839.384C826.156 843.128 828.748 845.264 832.252 845.264C835.084 845.264 836.836 844.064 837.484 843.392L836.284 841.736C835.732 842.216 834.34 842.912 832.78 842.912C831.052 842.912 829.612 842 829.324 840.176H837.868C837.868 840.176 837.916 839.216 837.916 838.616ZM832.156 835.448C834.316 835.448 834.796 836.912 834.844 838.184H829.276C829.372 836.696 830.332 835.448 832.156 835.448ZM847.909 845H850.981V838.112C850.981 835.328 850.141 833.168 846.805 833.168C845.125 833.168 843.949 833.912 843.325 835.136H843.253L843.277 833.384H840.205V845H843.277V839.216C843.277 837.272 843.925 835.688 845.821 835.688C847.597 835.688 847.909 837.056 847.909 838.784V845ZM857.578 835.784H860.266V833.408H857.578V830.096H854.53V833.408H852.802V835.784H854.53V841.16C854.53 844.184 855.514 845.264 857.89 845.264C859.186 845.264 860.098 844.928 860.242 844.88L860.074 842.504C860.074 842.504 859.594 842.696 858.97 842.696C857.89 842.696 857.578 842.264 857.578 840.488V835.784Z" fill="#676E73"/>
<path d="M1276 547.5C952.4 547.5 829.833 253.833 809 107H1276V547.5Z" fill="url(#paint3_radial)" fill-opacity="0.5"/>
<path d="M1149.24 158H1155.43C1161.39 158 1165.84 154.556 1165.84 148.312C1165.84 142.124 1161.31 138.68 1155.43 138.68H1149.24V158ZM1155.57 154.92H1152.88V141.732H1155.57C1159.63 141.732 1162.09 144.28 1162.09 148.34C1162.09 152.372 1159.6 154.92 1155.57 154.92ZM1170.83 142.292C1172.09 142.292 1172.98 141.48 1172.98 140.304C1172.98 139.156 1172.09 138.316 1170.83 138.316C1169.57 138.316 1168.67 139.156 1168.67 140.304C1168.67 141.48 1169.57 142.292 1170.83 142.292ZM1169.04 158H1172.62V144.448H1169.04V158ZM1186.45 155.424V156.096C1186.45 159.092 1185.13 160.52 1182.08 160.52C1180.34 160.52 1178.13 159.54 1177.26 158.924L1175.78 161.416C1176.45 161.892 1178.86 163.432 1182.08 163.432C1185.33 163.432 1187.06 162.284 1188.24 161.052C1189.39 159.848 1190 158.168 1190 155.2V144.448H1186.45L1186.47 146.324H1186.42C1185.47 144.868 1183.93 144.196 1182.11 144.196C1178.07 144.196 1175.44 147.304 1175.44 151.056C1175.44 155.368 1178.35 157.552 1181.77 157.552C1183.84 157.552 1185.47 156.824 1186.39 155.424H1186.45ZM1186.64 150.972C1186.64 153.044 1185.35 154.752 1182.78 154.752C1180.43 154.752 1179.08 153.044 1179.08 150.972C1179.08 148.76 1180.48 147.024 1182.83 147.024C1185.19 147.024 1186.64 149.012 1186.64 150.972ZM1195.53 142.292C1196.79 142.292 1197.68 141.48 1197.68 140.304C1197.68 139.156 1196.79 138.316 1195.53 138.316C1194.27 138.316 1193.37 139.156 1193.37 140.304C1193.37 141.48 1194.27 142.292 1195.53 142.292ZM1193.73 158H1197.32V144.448H1193.73V158ZM1205.15 147.248H1208.29V144.476H1205.15V140.612H1201.6V144.476H1199.58V147.248H1201.6V153.52C1201.6 157.048 1202.75 158.308 1205.52 158.308C1207.03 158.308 1208.09 157.916 1208.26 157.86L1208.07 155.088C1208.07 155.088 1207.51 155.312 1206.78 155.312C1205.52 155.312 1205.15 154.808 1205.15 152.736V147.248ZM1218.51 158H1221.95V150.244C1221.95 146.072 1219.82 144.196 1215.68 144.196C1213.33 144.196 1211.42 145.008 1210.39 145.624L1211.48 147.92C1212.07 147.472 1213.55 146.8 1215.34 146.8C1217.22 146.8 1218.37 147.612 1218.37 149.348V149.712L1215.12 149.936C1212.32 150.132 1209.55 151.224 1209.55 154.052C1209.55 156.88 1211.68 158.308 1214.31 158.308C1216.32 158.308 1217.89 157.412 1218.45 156.432L1218.51 158ZM1218.4 151.896V154.388C1217.92 155.06 1216.88 155.872 1215.48 155.872C1214 155.872 1213.13 155.088 1213.13 153.94C1213.13 152.792 1214.06 152.148 1215.96 152.036L1218.4 151.896ZM1225.41 158H1228.97V138.68H1225.41V158ZM1232.8 158H1236.35V138.68H1232.8V158ZM1243.88 158.084L1243.29 159.484C1243.01 160.184 1242.42 160.38 1241.72 160.38C1241.05 160.38 1240.1 160.044 1240.1 160.044L1239.37 162.788C1239.37 162.788 1240.63 163.348 1242.56 163.348C1244.47 163.348 1245.59 162.2 1246.57 159.82L1252.87 144.448H1249.14L1245.62 154.052L1242.03 144.448L1238.28 144.448L1243.88 158.084ZM1174.03 180.032L1175.57 177.652C1174.45 176.84 1173.11 176.196 1170.7 176.196C1168.1 176.196 1165.86 177.792 1165.86 180.256C1165.86 182.244 1166.89 183.448 1168.91 184.12L1170.48 184.652C1172.21 185.24 1172.74 185.632 1172.74 186.332C1172.74 187.116 1172.13 187.62 1170.78 187.62C1169.64 187.62 1168.26 187.004 1166.67 185.772L1165.21 188.208C1166.3 189.468 1168.63 190.308 1170.7 190.308C1174.03 190.308 1176.08 188.404 1176.08 185.828C1176.08 183.868 1175.01 182.804 1172.02 181.824L1171.06 181.516C1169.55 181.04 1169.1 180.564 1169.1 179.976C1169.1 179.332 1169.69 178.884 1170.87 178.884C1172.1 178.884 1173.25 179.444 1174.03 180.032ZM1186.62 190H1190.06V182.244C1190.06 178.072 1187.93 176.196 1183.79 176.196C1181.44 176.196 1179.53 177.008 1178.5 177.624L1179.59 179.92C1180.18 179.472 1181.66 178.8 1183.45 178.8C1185.33 178.8 1186.48 179.612 1186.48 181.348V181.712L1183.23 181.936C1180.43 182.132 1177.66 183.224 1177.66 186.052C1177.66 188.88 1179.79 190.308 1182.42 190.308C1184.43 190.308 1186 189.412 1186.56 188.432L1186.62 190ZM1186.51 183.896V186.388C1186.03 187.06 1184.99 187.872 1183.59 187.872C1182.11 187.872 1181.24 187.088 1181.24 185.94C1181.24 184.792 1182.17 184.148 1184.07 184.036L1186.51 183.896ZM1196.89 190H1200.39L1205.96 176.448H1202.38L1198.71 186.22L1195.04 176.448H1191.32L1196.89 190ZM1211.8 190H1215.3L1220.87 176.448H1217.28L1213.62 186.22L1209.95 176.448H1206.22L1211.8 190ZM1226.62 190.084L1226.03 191.484C1225.75 192.184 1225.16 192.38 1224.46 192.38C1223.79 192.38 1222.84 192.044 1222.84 192.044L1222.11 194.788C1222.11 194.788 1223.37 195.348 1225.3 195.348C1227.21 195.348 1228.33 194.2 1229.31 191.82L1235.61 176.448H1231.88L1228.35 186.052L1224.77 176.448H1221.02L1226.62 190.084Z" fill="white"/>
<path d="M198.239 733H204.427C210.391 733 214.843 729.556 214.843 723.312C214.843 717.124 210.307 713.68 204.427 713.68H198.239V733ZM204.567 729.92H201.879V716.732H204.567C208.627 716.732 211.091 719.28 211.091 723.34C211.091 727.372 208.599 729.92 204.567 729.92ZM219.827 717.292C221.087 717.292 221.983 716.48 221.983 715.304C221.983 714.156 221.087 713.316 219.827 713.316C218.567 713.316 217.671 714.156 217.671 715.304C217.671 716.48 218.567 717.292 219.827 717.292ZM218.035 733H221.619V719.448H218.035V733ZM235.447 730.424V731.096C235.447 734.092 234.131 735.52 231.079 735.52C229.343 735.52 227.131 734.54 226.263 733.924L224.779 736.416C225.451 736.892 227.859 738.432 231.079 738.432C234.327 738.432 236.063 737.284 237.239 736.052C238.387 734.848 239.003 733.168 239.003 730.2V719.448H235.447L235.475 721.324H235.419C234.467 719.868 232.927 719.196 231.107 719.196C227.075 719.196 224.443 722.304 224.443 726.056C224.443 730.368 227.355 732.552 230.771 732.552C232.843 732.552 234.467 731.824 235.391 730.424H235.447ZM235.643 725.972C235.643 728.044 234.355 729.752 231.779 729.752C229.427 729.752 228.083 728.044 228.083 725.972C228.083 723.76 229.483 722.024 231.835 722.024C234.187 722.024 235.643 724.012 235.643 725.972ZM244.527 717.292C245.787 717.292 246.683 716.48 246.683 715.304C246.683 714.156 245.787 713.316 244.527 713.316C243.267 713.316 242.371 714.156 242.371 715.304C242.371 716.48 243.267 717.292 244.527 717.292ZM242.735 733H246.319V719.448H242.735V733ZM254.154 722.248H257.29V719.476H254.154V715.612H250.598V719.476H248.582V722.248H250.598V728.52C250.598 732.048 251.746 733.308 254.518 733.308C256.03 733.308 257.094 732.916 257.262 732.86L257.066 730.088C257.066 730.088 256.506 730.312 255.778 730.312C254.518 730.312 254.154 729.808 254.154 727.736V722.248ZM267.508 733H270.952V725.244C270.952 721.072 268.824 719.196 264.68 719.196C262.328 719.196 260.424 720.008 259.388 720.624L260.48 722.92C261.068 722.472 262.552 721.8 264.344 721.8C266.22 721.8 267.368 722.612 267.368 724.348V724.712L264.12 724.936C261.32 725.132 258.548 726.224 258.548 729.052C258.548 731.88 260.676 733.308 263.308 733.308C265.324 733.308 266.892 732.412 267.452 731.432L267.508 733ZM267.396 726.896V729.388C266.92 730.06 265.884 730.872 264.484 730.872C263 730.872 262.132 730.088 262.132 728.94C262.132 727.792 263.056 727.148 264.96 727.036L267.396 726.896ZM274.411 733H277.967V713.68H274.411V733ZM281.798 733H285.354V713.68H281.798V733ZM292.881 733.084L292.293 734.484C292.013 735.184 291.425 735.38 290.725 735.38C290.053 735.38 289.101 735.044 289.101 735.044L288.373 737.788C288.373 737.788 289.633 738.348 291.565 738.348C293.469 738.348 294.589 737.2 295.569 734.82L301.869 719.448H298.145L294.617 729.052L291.033 719.448H287.281L292.881 733.084ZM225.576 765H229.16V756.964C229.16 753.716 228.18 751.196 224.288 751.196C222.328 751.196 220.956 752.064 220.228 753.492H220.144L220.172 751.448H216.588V765H220.172V758.252C220.172 755.984 220.928 754.136 223.14 754.136C225.212 754.136 225.576 755.732 225.576 757.748V765ZM240.566 765H244.01V757.244C244.01 753.072 241.882 751.196 237.738 751.196C235.386 751.196 233.482 752.008 232.446 752.624L233.538 754.92C234.126 754.472 235.61 753.8 237.402 753.8C239.278 753.8 240.426 754.612 240.426 756.348V756.712L237.178 756.936C234.378 757.132 231.606 758.224 231.606 761.052C231.606 763.88 233.734 765.308 236.366 765.308C238.382 765.308 239.95 764.412 240.51 763.432L240.566 765ZM240.454 758.896V761.388C239.978 762.06 238.942 762.872 237.542 762.872C236.058 762.872 235.19 762.088 235.19 760.94C235.19 759.792 236.114 759.148 238.018 759.036L240.454 758.896ZM249.234 749.292C250.494 749.292 251.39 748.48 251.39 747.304C251.39 746.156 250.494 745.316 249.234 745.316C247.974 745.316 247.078 746.156 247.078 747.304C247.078 748.48 247.974 749.292 249.234 749.292ZM247.442 765H251.026V751.448H247.442V765ZM258.609 765H262.109L267.681 751.448H264.097L260.429 761.22L256.761 751.448H253.037L258.609 765ZM282.337 757.552C282.337 753.94 279.817 751.196 275.645 751.196C271.781 751.196 268.617 754.108 268.617 758.448C268.617 762.816 271.641 765.308 275.729 765.308C279.033 765.308 281.077 763.908 281.833 763.124L280.433 761.192C279.789 761.752 278.165 762.564 276.345 762.564C274.329 762.564 272.649 761.5 272.313 759.372H282.281C282.281 759.372 282.337 758.252 282.337 757.552ZM275.617 753.856C278.137 753.856 278.697 755.564 278.753 757.048H272.257C272.369 755.312 273.489 753.856 275.617 753.856Z" fill="#676E73"/>
<defs>
<linearGradient id="paint0_linear" x1="720" y1="0" x2="720" y2="904" gradientUnits="userSpaceOnUse">
<stop stop-color="#071520"/>
<stop offset="1" stop-color="#071520"/>
</linearGradient>
<linearGradient id="paint1_linear" x1="161.982" y1="198.757" x2="161.982" y2="814" gradientUnits="userSpaceOnUse">
<stop stop-color="#4186BF"/>
<stop offset="1" stop-color="#4186BF" stop-opacity="0"/>
</linearGradient>
<linearGradient id="paint2_linear" x1="1281.24" y1="798.107" x2="160" y2="798.107" gradientUnits="userSpaceOnUse">
<stop stop-color="#D3AD0F"/>
<stop offset="1" stop-color="#D3AD0F" stop-opacity="0"/>
</linearGradient>
<radialGradient id="paint3_radial" cx="0" cy="0" r="1" gradientUnits="userSpaceOnUse" gradientTransform="translate(1276 106.5) rotate(137.647) scale(436.397 462.65)">
<stop stop-color="#13C1BF"/>
<stop offset="1" stop-color="#13C1BF" stop-opacity="0"/>
</radialGradient>
</defs>
</svg>
