<svg width="1440" height="904" viewBox="0 0 1440 904" fill="none" xmlns="http://www.w3.org/2000/svg">
<rect width="1440" height="904" fill="url(#paint0_linear)"/>
<path d="M219 105V799" stroke="#143F63" stroke-width="2"/>
<path d="M277.941 105V799" stroke="#143F63" stroke-width="2"/>
<path d="M336.883 105V799" stroke="#143F63" stroke-width="2"/>
<path d="M395.824 105V799" stroke="#143F63" stroke-width="2"/>
<path d="M454.766 105V799" stroke="#143F63" stroke-width="2"/>
<path d="M513.707 105V799" stroke="#143F63" stroke-width="2"/>
<path d="M572.648 105V799" stroke="#143F63" stroke-width="2"/>
<path d="M631.59 105V799" stroke="#143F63" stroke-width="2"/>
<path d="M690.531 105V799" stroke="#143F63" stroke-width="2"/>
<path d="M749.469 105V799" stroke="#143F63" stroke-width="2"/>
<path d="M808.41 105V799" stroke="#143F63" stroke-width="2"/>
<path d="M867.352 105V799" stroke="#143F63" stroke-width="2"/>
<path d="M926.293 105V799" stroke="#143F63" stroke-width="2"/>
<path d="M985.234 105V799" stroke="#143F63" stroke-width="2"/>
<path d="M1044.18 105V799" stroke="#143F63" stroke-width="2"/>
<path d="M1103.12 105V799" stroke="#143F63" stroke-width="2"/>
<path d="M1162.06 105V799" stroke="#143F63" stroke-width="2"/>
<path d="M1221 105V799" stroke="#143F63" stroke-width="2"/>
<path d="M1277 480L163 480" stroke="#143F63" stroke-width="2"/>
<path d="M1277 533L163 533" stroke="#143F63" stroke-width="2"/>
<path d="M1277 586L163 586" stroke="#143F63" stroke-width="2"/>
<path d="M1277 639L163 639" stroke="#143F63" stroke-width="2"/>
<path d="M1277 692L163 692" stroke="#143F63" stroke-width="2"/>
<path d="M1277 745L163 745" stroke="#143F63" stroke-width="2"/>
<path d="M1277 162L163 162" stroke="#143F63" stroke-width="2"/>
<path d="M1277 215L163 215" stroke="#143F63" stroke-width="2"/>
<path d="M1277 268L163 268" stroke="#143F63" stroke-width="2"/>
<path d="M1277 321L163 321" stroke="#143F63" stroke-width="2"/>
<path d="M1277 374L163 374" stroke="#143F63" stroke-width="2"/>
<path d="M1277 427L163 427" stroke="#143F63" stroke-width="2"/>
<rect x="163" y="106" width="1113" height="692" stroke="#143F63" stroke-width="2"/>
<path fill-rule="evenodd" clip-rule="evenodd" d="M159 116.224L148.118 127.106L143.875 122.864L159.86 106.879L161.982 104.757L164.103 106.879L180.088 122.864L175.846 127.106L165 116.261L165 799H159L159 116.224Z" fill="url(#paint1_linear)"/>
<path fill-rule="evenodd" clip-rule="evenodd" d="M159 116.224L148.118 127.106L143.875 122.864L159.86 106.879L161.982 104.757L164.103 106.879L180.088 122.864L175.846 127.106L165 116.261L165 799H159L159 116.224Z" fill="#71A4CF"/>
<path fill-rule="evenodd" clip-rule="evenodd" d="M1269.65 795L1258.89 784.243L1263.14 780L1279.12 795.985L1281.24 798.107L1279.12 800.228L1263.14 816.213L1258.89 811.971L1269.86 801L159 801L159 795L1269.65 795Z" fill="url(#paint2_linear)"/>
<path d="M119 545.336L119 540.032C119 534.92 116.048 531.104 110.696 531.104C105.392 531.104 102.44 534.992 102.44 540.032L102.44 545.336L119 545.336ZM116.36 539.912L116.36 542.216L105.056 542.216L105.056 539.912C105.056 536.432 107.24 534.32 110.72 534.32C114.176 534.32 116.36 536.456 116.36 539.912ZM105.536 526.796C105.536 525.716 104.84 524.948 103.832 524.948C102.848 524.948 102.128 525.716 102.128 526.796C102.128 527.876 102.848 528.644 103.832 528.644C104.84 528.644 105.536 527.876 105.536 526.796ZM119 528.332L119 525.26L107.384 525.26L107.384 528.332L119 528.332ZM116.792 513.372L117.368 513.372C119.936 513.372 121.16 514.5 121.16 517.116C121.16 518.604 120.32 520.5 119.792 521.244L121.928 522.516C122.336 521.94 123.656 519.876 123.656 517.116C123.656 514.332 122.672 512.844 121.616 511.836C120.584 510.852 119.144 510.324 116.6 510.324L107.384 510.324L107.384 513.372L108.992 513.348L108.992 513.396C107.744 514.212 107.168 515.532 107.168 517.092C107.168 520.548 109.832 522.804 113.048 522.804C116.744 522.804 118.616 520.308 118.616 517.38C118.616 515.604 117.992 514.212 116.792 513.42L116.792 513.372ZM112.976 513.204C114.752 513.204 116.216 514.308 116.216 516.516C116.216 518.532 114.752 519.684 112.976 519.684C111.08 519.684 109.592 518.484 109.592 516.468C109.592 514.452 111.296 513.204 112.976 513.204ZM105.536 505.554C105.536 504.474 104.84 503.706 103.832 503.706C102.848 503.706 102.128 504.474 102.128 505.554C102.128 506.634 102.848 507.402 103.832 507.402C104.84 507.402 105.536 506.634 105.536 505.554ZM119 507.09L119 504.018L107.384 504.018L107.384 507.09L119 507.09ZM109.784 497.266L109.784 494.578L107.408 494.578L107.408 497.266L104.096 497.266L104.096 500.314L107.408 500.314L107.408 502.042L109.784 502.042L109.784 500.314L115.16 500.314C118.184 500.314 119.264 499.33 119.264 496.954C119.264 495.658 118.928 494.746 118.88 494.602L116.504 494.77C116.504 494.77 116.696 495.25 116.696 495.874C116.696 496.954 116.264 497.266 114.488 497.266L109.784 497.266ZM119 485.784L119 482.832L112.352 482.832C108.776 482.832 107.168 484.656 107.168 488.208C107.168 490.224 107.864 491.856 108.392 492.744L110.36 491.808C109.976 491.304 109.4 490.032 109.4 488.496C109.4 486.888 110.096 485.904 111.584 485.904L111.896 485.904L112.088 488.688C112.256 491.088 113.192 493.464 115.616 493.464C118.04 493.464 119.264 491.64 119.264 489.384C119.264 487.656 118.496 486.312 117.656 485.832L119 485.784ZM113.768 485.88L115.904 485.88C116.48 486.288 117.176 487.176 117.176 488.376C117.176 489.648 116.504 490.392 115.52 490.392C114.536 490.392 113.984 489.6 113.888 487.968L113.768 485.88ZM119 479.831L119 476.783L102.44 476.783L102.44 479.831L119 479.831ZM107.384 465.384L107.384 468.504L123.392 468.504L123.392 465.456L119.36 465.456C118.544 465.456 118.016 465.48 117.464 465.504L117.44 465.456C118.592 464.496 119.216 463.512 119.216 461.736C119.216 458.208 116.504 456.024 113.216 456.024C109.76 456.024 107.12 458.112 107.12 461.52C107.12 463.056 107.648 464.448 109.04 465.384L109.016 465.432L107.384 465.384ZM109.616 462.384C109.616 460.392 111.2 459.144 113.216 459.144C115.16 459.144 116.864 460.296 116.864 462.288C116.864 464.256 115.16 465.528 113.216 465.528C111.032 465.528 109.616 464.232 109.616 462.384ZM107.384 450.775L107.384 453.847L114.272 453.847C117.056 453.847 119.216 453.031 119.216 449.695C119.216 448.015 118.52 446.767 117.368 446.095L119 446.071L119 443.095L107.384 443.095L107.384 446.167L113.288 446.167C115.232 446.167 116.696 446.863 116.696 448.711C116.696 450.487 115.328 450.775 113.6 450.775L107.384 450.775ZM119 440.021L119 436.973L113.288 436.973C112.4 436.973 111.608 436.829 111.032 436.541C110.288 436.109 109.904 435.413 109.904 434.501C109.904 434.093 109.952 433.565 110.048 433.229L110.048 433.085L107.384 432.869C107.384 432.869 107.168 433.301 107.168 434.093C107.168 435.341 108.008 436.493 109.256 436.949L109.256 437.021L107.384 436.973L107.384 440.021L119 440.021ZM115.448 422.265C115.448 422.265 116.672 423.369 116.672 425.361C116.672 427.353 115.28 428.817 113.144 428.817C111.008 428.817 109.736 427.353 109.736 425.529C109.736 423.729 110.624 422.697 110.96 422.337L108.656 421.497C108.344 421.809 107.168 422.961 107.168 425.889C107.168 429.009 109.472 432.033 113.288 432.033C117.08 432.033 119.264 429.105 119.264 425.937C119.264 422.841 117.92 421.641 117.704 421.401L115.448 422.265ZM107.168 412.81C107.168 414.49 107.912 415.666 109.136 416.29L109.136 416.338L102.44 416.338L102.44 419.386L119 419.386L119 416.338L113.216 416.338C111.272 416.338 109.688 415.69 109.688 413.794C109.688 412.018 111.056 411.706 112.784 411.706L119 411.706L119 408.634L112.112 408.634C109.328 408.634 107.168 409.474 107.168 412.81ZM119 398.823L119 395.871L112.352 395.871C108.776 395.871 107.168 397.695 107.168 401.247C107.168 403.263 107.864 404.895 108.392 405.783L110.36 404.847C109.976 404.343 109.4 403.071 109.4 401.535C109.4 399.927 110.096 398.943 111.584 398.943L111.896 398.943L112.088 401.727C112.256 404.127 113.192 406.503 115.616 406.503C118.04 406.503 119.264 404.679 119.264 402.423C119.264 400.695 118.496 399.351 117.656 398.871L119 398.823ZM113.768 398.919L115.904 398.919C116.48 399.327 117.176 400.215 117.176 401.415C117.176 402.687 116.504 403.431 115.52 403.431C114.536 403.431 113.984 402.639 113.888 401.007L113.768 398.919ZM110.456 386.294L108.416 384.974C107.72 385.934 107.168 387.086 107.168 389.15C107.168 391.382 108.536 393.302 110.648 393.302C112.352 393.302 113.384 392.414 113.96 390.686L114.416 389.342C114.92 387.854 115.256 387.398 115.856 387.398C116.528 387.398 116.96 387.926 116.96 389.078C116.96 390.062 116.432 391.238 115.376 392.606L117.464 393.854C118.544 392.918 119.264 390.926 119.264 389.15C119.264 386.294 117.632 384.542 115.424 384.542C113.744 384.542 112.832 385.454 111.992 388.022L111.728 388.838C111.32 390.134 110.912 390.518 110.408 390.518C109.856 390.518 109.472 390.014 109.472 389.006C109.472 387.95 109.952 386.966 110.456 386.294ZM105.536 380.749C105.536 379.669 104.84 378.901 103.832 378.901C102.848 378.901 102.128 379.669 102.128 380.749C102.128 381.829 102.848 382.597 103.832 382.597C104.84 382.597 105.536 381.829 105.536 380.749ZM119 382.285L119 379.213L107.384 379.213L107.384 382.285L119 382.285ZM119 368.333L119 365.261L112.112 365.261C109.328 365.261 107.168 366.101 107.168 369.437C107.168 371.117 107.912 372.293 109.136 372.917L109.136 372.989L107.384 372.965L107.384 376.037L119 376.037L119 372.965L113.216 372.965C111.272 372.965 109.688 372.317 109.688 370.421C109.688 368.645 111.056 368.333 112.784 368.333L119 368.333ZM116.792 353.528L117.368 353.528C119.936 353.528 121.16 354.656 121.16 357.272C121.16 358.76 120.32 360.656 119.792 361.4L121.928 362.672C122.336 362.096 123.656 360.032 123.656 357.272C123.656 354.488 122.672 353 121.616 351.992C120.584 351.008 119.144 350.48 116.6 350.48L107.384 350.48L107.384 353.528L108.992 353.504L108.992 353.552C107.744 354.368 107.168 355.688 107.168 357.248C107.168 360.704 109.832 362.96 113.048 362.96C116.744 362.96 118.616 360.464 118.616 357.536C118.616 355.76 117.992 354.368 116.792 353.576L116.792 353.528ZM112.976 353.36C114.752 353.36 116.216 354.464 116.216 356.672C116.216 358.688 114.752 359.84 112.976 359.84C111.08 359.84 109.592 358.64 109.592 356.624C109.592 354.608 111.296 353.36 112.976 353.36Z" fill="#676E73"/>
<defs>
<linearGradient id="paint0_linear" x1="720" y1="0" x2="720" y2="904" gradientUnits="userSpaceOnUse">
<stop stop-color="#071520"/>
<stop offset="1" stop-color="#071520"/>
</linearGradient>
<linearGradient id="paint1_linear" x1="161.982" y1="198.757" x2="161.982" y2="814" gradientUnits="userSpaceOnUse">
<stop stop-color="#4186BF"/>
<stop offset="1" stop-color="#4186BF" stop-opacity="0"/>
</linearGradient>
<linearGradient id="paint2_linear" x1="1281.24" y1="798.107" x2="160" y2="798.107" gradientUnits="userSpaceOnUse">
<stop stop-color="#D3AD0F"/>
<stop offset="1" stop-color="#D3AD0F" stop-opacity="0"/>
</linearGradient>
</defs>
</svg>
