<?xml version="1.0" encoding="utf-8"?>
<!-- Generator: Adobe Illustrator 25.1.0, SVG Export Plug-In . SVG Version: 6.00 Build 0)  -->
<svg version="1.1" id="Layer_1" xmlns="http://www.w3.org/2000/svg" xmlns:xlink="http://www.w3.org/1999/xlink" x="0px" y="0px"
	 viewBox="0 0 768 1024" style="enable-background:new 0 0 768 1024;" xml:space="preserve">
<style type="text/css">
	.st0{fill:#071520;}
	.st1{fill:none;stroke:#143F63;stroke-width:2;}
	.st2{opacity:0.4;fill:#FFFFFF;enable-background:new    ;}
	.st3{clip-path:url(#SVGID_2_);}
	.st4{fill:#FFFFFF;}
	.st5{fill-rule:evenodd;clip-rule:evenodd;fill:url(#SVGID_3_);}
	.st6{fill-rule:evenodd;clip-rule:evenodd;fill:url(#SVGID_4_);}
	.st7{fill:#676E73;}
	.st8{fill-rule:evenodd;clip-rule:evenodd;fill:#71A4CF;}
	.st9{fill-rule:evenodd;clip-rule:evenodd;fill:#D3AD0F;}
</style>
<rect y="0" class="st0" width="768" height="1024"/>
<path class="st1" d="M134.3,208v779"/>
<path class="st1" d="M223.3,208v779"/>
<path class="st1" d="M312.2,208v779"/>
<path class="st1" d="M401.1,208v779"/>
<path class="st1" d="M490.1,208v779"/>
<path class="st1" d="M579,208v779"/>
<path class="st1" d="M668,208v779"/>
<path class="st1" d="M752,319H50"/>
<path class="st1" d="M752,430.8l-702,0"/>
<path class="st1" d="M752,542.6H50"/>
<path class="st1" d="M752,654.5H50"/>
<path class="st1" d="M752,766.3H50"/>
<path class="st1" d="M752,878.1H50"/>
<path class="st2" d="M671.6,239.8h4c3.8,0,6.7-2.2,6.7-6.2c0-4-2.9-6.2-6.7-6.2h-4V239.8z M675.7,237.8H674v-8.5h1.7
	c2.6,0,4.2,1.6,4.2,4.2C679.9,236.2,678.3,237.8,675.7,237.8z M685.3,229.7c0.8,0,1.4-0.5,1.4-1.3c0-0.7-0.6-1.3-1.4-1.3
	s-1.4,0.5-1.4,1.3C683.9,229.2,684.5,229.7,685.3,229.7z M684.2,239.8h2.3v-8.7h-2.3V239.8z M695.2,238.2v0.4c0,1.9-0.8,2.8-2.8,2.8
	c-1.1,0-2.5-0.6-3.1-1l-1,1.6c0.4,0.3,2,1.3,4.1,1.3c2.1,0,3.2-0.7,4-1.5c0.7-0.8,1.1-1.9,1.1-3.8v-6.9h-2.3l0,1.2h0
	c-0.6-0.9-1.6-1.4-2.8-1.4c-2.6,0-4.3,2-4.3,4.4c0,2.8,1.9,4.2,4.1,4.2C693.5,239.5,694.6,239.1,695.2,238.2L695.2,238.2z
	 M695.3,235.3c0,1.3-0.8,2.4-2.5,2.4c-1.5,0-2.4-1.1-2.4-2.4c0-1.4,0.9-2.5,2.4-2.5C694.4,232.8,695.3,234,695.3,235.3z
	 M700.9,229.7c0.8,0,1.4-0.5,1.4-1.3c0-0.7-0.6-1.3-1.4-1.3s-1.4,0.5-1.4,1.3C699.5,229.2,700.1,229.7,700.9,229.7z M699.7,239.8
	h2.3v-8.7h-2.3V239.8z M706.9,232.9h2v-1.8h-2v-2.5h-2.3v2.5h-1.3v1.8h1.3v4c0,2.3,0.7,3.1,2.5,3.1c1,0,1.7-0.3,1.8-0.3l-0.1-1.8
	c0,0-0.4,0.1-0.8,0.1c-0.8,0-1-0.3-1-1.7V232.9z M715.3,239.8h2.2v-5c0-2.7-1.4-3.9-4-3.9c-1.5,0-2.7,0.5-3.4,0.9l0.7,1.5
	c0.4-0.3,1.3-0.7,2.5-0.7c1.2,0,1.9,0.5,1.9,1.6v0.2l-2.1,0.1c-1.8,0.1-3.6,0.8-3.6,2.6c0,1.8,1.4,2.7,3.1,2.7
	c1.3,0,2.3-0.6,2.7-1.2L715.3,239.8z M715.3,235.9v1.6c-0.3,0.4-1,1-1.9,1c-1,0-1.5-0.5-1.5-1.2c0-0.7,0.6-1.2,1.8-1.2L715.3,235.9z
	 M719.6,239.8h2.3v-12.4h-2.3V239.8z M724.2,239.8h2.3v-12.4h-2.3V239.8z M731.2,239.9l-0.4,0.9c-0.2,0.4-0.6,0.6-1,0.6
	c-0.4,0-1-0.2-1-0.2l-0.5,1.8c0,0,0.8,0.4,2.1,0.4c1.2,0,1.9-0.7,2.6-2.3l4-9.9h-2.4l-2.3,6.2l-2.3-6.2h-2.4L731.2,239.9z
	 M698,251.4l1-1.5c-0.7-0.5-1.6-0.9-3.1-0.9c-1.7,0-3.1,1-3.1,2.6c0,1.3,0.7,2.1,2,2.5l1,0.3c1.1,0.4,1.5,0.6,1.5,1.1
	c0,0.5-0.4,0.8-1.3,0.8c-0.7,0-1.6-0.4-2.6-1.2l-0.9,1.6c0.7,0.8,2.2,1.4,3.5,1.4c2.1,0,3.5-1.2,3.5-2.9c0-1.3-0.7-1.9-2.6-2.6
	l-0.6-0.2c-1-0.3-1.3-0.6-1.3-1c0-0.4,0.4-0.7,1.1-0.7C696.8,250.7,697.5,251,698,251.4z M705.9,257.8h2.2v-5c0-2.7-1.4-3.9-4-3.9
	c-1.5,0-2.7,0.5-3.4,0.9l0.7,1.5c0.4-0.3,1.3-0.7,2.5-0.7c1.2,0,1.9,0.5,1.9,1.6v0.2l-2.1,0.1c-1.8,0.1-3.6,0.8-3.6,2.6
	c0,1.8,1.4,2.7,3.1,2.7c1.3,0,2.3-0.6,2.7-1.2L705.9,257.8z M705.9,253.9v1.6c-0.3,0.4-1,1-1.9,1c-1,0-1.5-0.5-1.5-1.2
	c0-0.7,0.6-1.2,1.8-1.2L705.9,253.9z M712.4,257.8h2.2l3.6-8.7h-2.3l-2.4,6.3l-2.4-6.3h-2.4L712.4,257.8z M721.8,257.8h2.2l3.6-8.7
	h-2.3l-2.4,6.3l-2.4-6.3h-2.4L721.8,257.8z M731.2,257.9l-0.4,0.9c-0.2,0.5-0.6,0.6-1,0.6c-0.4,0-1-0.2-1-0.2l-0.5,1.8
	c0,0,0.8,0.4,2.1,0.4c1.2,0,1.9-0.7,2.6-2.3l4-9.9h-2.4l-2.3,6.2l-2.3-6.2h-2.4L731.2,257.9z"/>
<path class="st2" d="M69.3,948.8h4c3.8,0,6.7-2.2,6.7-6.2c0-4-2.9-6.2-6.7-6.2h-4V948.8z M73.4,946.8h-1.7v-8.5h1.7
	c2.6,0,4.2,1.6,4.2,4.2C77.6,945.2,76,946.8,73.4,946.8z M83.1,938.7c0.8,0,1.4-0.5,1.4-1.3c0-0.7-0.6-1.3-1.4-1.3s-1.4,0.5-1.4,1.3
	C81.7,938.2,82.3,938.7,83.1,938.7z M81.9,948.8h2.3v-8.7h-2.3V948.8z M92.9,947.2v0.4c0,1.9-0.8,2.8-2.8,2.8c-1.1,0-2.5-0.6-3.1-1
	l-1,1.6c0.4,0.3,2,1.3,4.1,1.3c2.1,0,3.2-0.7,4-1.5c0.7-0.8,1.1-1.9,1.1-3.8v-6.9h-2.3l0,1.2h0c-0.6-0.9-1.6-1.4-2.8-1.4
	c-2.6,0-4.3,2-4.3,4.4c0,2.8,1.9,4.2,4.1,4.2C91.3,948.5,92.3,948.1,92.9,947.2L92.9,947.2z M93.1,944.3c0,1.3-0.8,2.4-2.5,2.4
	c-1.5,0-2.4-1.1-2.4-2.4c0-1.4,0.9-2.5,2.4-2.5C92.1,941.8,93.1,943,93.1,944.3z M98.6,938.7c0.8,0,1.4-0.5,1.4-1.3
	c0-0.7-0.6-1.3-1.4-1.3c-0.8,0-1.4,0.5-1.4,1.3C97.2,938.2,97.8,938.7,98.6,938.7z M97.5,948.8h2.3v-8.7h-2.3V948.8z M104.7,941.9h2
	v-1.8h-2v-2.5h-2.3v2.5h-1.3v1.8h1.3v4c0,2.3,0.7,3.1,2.5,3.1c1,0,1.7-0.3,1.8-0.3l-0.1-1.8c0,0-0.4,0.1-0.8,0.1c-0.8,0-1-0.3-1-1.7
	V941.9z M113.1,948.8h2.2v-5c0-2.7-1.4-3.9-4-3.9c-1.5,0-2.7,0.5-3.4,0.9l0.7,1.5c0.4-0.3,1.3-0.7,2.5-0.7c1.2,0,1.9,0.5,1.9,1.6
	v0.2l-2.1,0.1c-1.8,0.1-3.6,0.8-3.6,2.6s1.4,2.7,3.1,2.7c1.3,0,2.3-0.6,2.7-1.2L113.1,948.8z M113,944.9v1.6c-0.3,0.4-1,1-1.9,1
	c-1,0-1.5-0.5-1.5-1.2c0-0.7,0.6-1.2,1.8-1.2L113,944.9z M117.4,948.8h2.3v-12.4h-2.3V948.8z M121.9,948.8h2.3v-12.4h-2.3V948.8z
	 M128.9,948.9l-0.4,0.9c-0.2,0.5-0.6,0.6-1,0.6c-0.4,0-1-0.2-1-0.2l-0.5,1.8c0,0,0.8,0.4,2.1,0.4c1.2,0,1.9-0.7,2.6-2.3l4.1-9.9
	h-2.4l-2.3,6.2l-2.3-6.2h-2.4L128.9,948.9z M74.9,966.8h2.3v-5.2c0-2.1-0.6-3.7-3.1-3.7c-1.3,0-2.1,0.6-2.6,1.5h-0.1l0-1.3h-2.3v8.7
	h2.3v-4.3c0-1.5,0.5-2.6,1.9-2.6c1.3,0,1.6,1,1.6,2.3V966.8z M84.4,966.8h2.2v-5c0-2.7-1.4-3.9-4-3.9c-1.5,0-2.7,0.5-3.4,0.9
	l0.7,1.5c0.4-0.3,1.3-0.7,2.5-0.7c1.2,0,1.9,0.5,1.9,1.6v0.2l-2.1,0.1c-1.8,0.1-3.6,0.8-3.6,2.6s1.4,2.7,3.1,2.7
	c1.3,0,2.3-0.6,2.7-1.2L84.4,966.8z M84.3,962.9v1.6c-0.3,0.4-1,1-1.9,1c-1,0-1.5-0.5-1.5-1.2c0-0.7,0.6-1.2,1.8-1.2L84.3,962.9z
	 M89.8,956.7c0.8,0,1.4-0.5,1.4-1.3c0-0.7-0.6-1.3-1.4-1.3s-1.4,0.5-1.4,1.3C88.4,956.2,89,956.7,89.8,956.7z M88.7,966.8H91v-8.7
	h-2.3V966.8z M95.7,966.8h2.2l3.6-8.7h-2.3l-2.4,6.3l-2.4-6.3h-2.4L95.7,966.8z M110.8,962c0-2.3-1.6-4.1-4.3-4.1
	c-2.5,0-4.5,1.9-4.5,4.7c0,2.8,1.9,4.4,4.6,4.4c2.1,0,3.4-0.9,3.9-1.4l-0.9-1.2c-0.4,0.4-1.5,0.9-2.6,0.9c-1.3,0-2.4-0.7-2.6-2.1
	h6.4C110.8,963.2,110.8,962.5,110.8,962z M106.5,959.7c1.6,0,2,1.1,2,2.1h-4.2C104.4,960.6,105.1,959.7,106.5,959.7z"/>
<g>
	<defs>
		<rect id="SVGID_1_" x="562" y="235" width="153.1" height="156.2"/>
	</defs>
	<clipPath id="SVGID_2_">
		<use xlink:href="#SVGID_1_"  style="overflow:visible;"/>
	</clipPath>
	<g class="st3">
		<path class="st4" d="M620.8,354c0-12-9.7-21.7-21.7-21.7s-21.7,9.7-21.7,21.7s9.7,21.7,21.7,21.7S620.8,366,620.8,354z
			 M599.1,374.1c-11.1,0-20.1-9-20.1-20.1s9-20.1,20.1-20.1c11.1,0,20.1,9,20.1,20.1S610.2,374.1,599.1,374.1z"/>
		<path class="st4" d="M571.3,347c0.5,0.3,1.1,0.4,1.6,0.4c0.6,0,1.1,0,1.6-0.2c0.5-0.1,1-0.4,1.4-0.8c0.4-0.4,0.8-0.9,1-1.4
			c0.2-0.4,0.3-0.7,0.4-1c0-0.3,0.1-0.6,0.1-0.9c0-0.3,0-0.6-0.1-0.9l-0.3-0.9l-1.6,0.5c0.1,0.4,0.2,0.8,0.2,1.2s-0.1,0.8-0.3,1.2
			c-0.2,0.3-0.4,0.6-0.6,0.8s-0.5,0.3-0.8,0.4c-0.3,0.1-0.6,0.1-1,0.1c-0.3,0-0.7-0.1-1-0.2c-0.3-0.1-0.6-0.3-0.8-0.6
			c-0.2-0.2-0.4-0.5-0.5-0.8c-0.1-0.3-0.2-0.6-0.2-0.9s0.1-0.7,0.2-1c0.2-0.4,0.4-0.7,0.7-0.9c0.3-0.2,0.7-0.4,1.1-0.6l-0.7-1.6
			c-0.2,0.1-0.5,0.2-0.7,0.3c-0.2,0.1-0.5,0.3-0.7,0.5c-0.2,0.2-0.4,0.4-0.6,0.7c-0.2,0.3-0.4,0.6-0.5,0.9c-0.3,0.6-0.4,1.2-0.4,1.7
			s0,1.1,0.2,1.6s0.5,1,0.9,1.3C570.3,346.4,570.8,346.7,571.3,347z"/>
		<path class="st4" d="M580.5,338.6l-2.2-2.1l2.7-2.6l2.3,2.1l0.9-1.2l-5.8-5.7l-1.1,1.1l2.7,2.8l-2.6,2.7l-2.7-2.7l-1.2,1.3l6,5.8
			L580.5,338.6z"/>
		<path class="st4" d="M588.5,332.2l-3.9-7.3l-1.4,0.8l3.9,7.3L588.5,332.2z"/>
		<path class="st4" d="M592.7,330.7l-0.5-2.5l1.7-0.3c0.5-0.1,0.9-0.2,1.3-0.4c0.4-0.2,0.8-0.4,1-0.7c0.2-0.3,0.4-0.6,0.5-1
			c0.1-0.4,0.1-0.8,0-1.2c-0.1-0.4-0.2-0.8-0.5-1.1c-0.2-0.3-0.5-0.6-0.8-0.8c-0.3-0.2-0.7-0.3-1.2-0.4c-0.4,0-0.9,0-1.4,0l-3.4,0.7
			l1.7,8L592.7,330.7z M593.1,323.9c0.4-0.1,0.9,0,1.2,0.1s0.5,0.4,0.6,0.8c0.1,0.3,0,0.6-0.2,0.9c-0.2,0.3-0.6,0.5-1.1,0.6
			l-1.5,0.3l-0.5-2.4L593.1,323.9z"/>
		<path class="st4" d="M600.6,328.4c0.3,0.5,0.7,0.9,1.2,1.2c0.5,0.4,1.1,0.6,1.7,0.8c0.7,0.2,1.3,0.2,1.9,0.1
			c0.6,0,1.1-0.2,1.6-0.5s0.9-0.7,1.2-1.1s0.6-1,0.7-1.6c0.1-0.6,0.1-1.1,0-1.7c-0.1-0.6-0.3-1.1-0.6-1.6s-0.7-0.9-1.2-1.2
			c-0.5-0.4-1.1-0.6-1.7-0.8c-0.7-0.2-1.3-0.2-1.9-0.1c-0.6,0-1.1,0.2-1.6,0.5c-0.5,0.3-0.9,0.7-1.2,1.1c-0.3,0.5-0.6,1-0.7,1.6
			s-0.1,1.1,0,1.7C600.1,327.4,600.3,328,600.6,328.4z M602,325.6c0-0.4,0.2-0.7,0.4-1c0.2-0.3,0.4-0.5,0.7-0.7
			c0.3-0.2,0.6-0.3,0.9-0.3s0.7,0,1.1,0c0.4,0.1,0.7,0.3,1,0.5c0.3,0.2,0.5,0.5,0.7,0.8c0.2,0.3,0.3,0.6,0.3,1c0,0.3,0,0.7,0,1.1
			s-0.2,0.7-0.4,1s-0.4,0.5-0.7,0.7c-0.3,0.1-0.6,0.3-0.9,0.3c-0.3,0-0.7,0-1.1,0c-0.4-0.1-0.7-0.2-1-0.5c-0.3-0.2-0.5-0.5-0.7-0.8
			c-0.2-0.3-0.3-0.6-0.3-1C601.9,326.3,601.9,325.9,602,325.6z"/>
		<path class="st4" d="M612.6,333.7l3.6-5.8l2.1,1.3l0.8-1.2l-6-3.6l-0.8,1.2l2.5,1.5l-3.5,5.8L612.6,333.7z"/>
		<path class="st4" d="M619.9,340.9l1.3-1l-2.9-3.3l5.2-4.4l-1.1-1.3l-6.2,5.5L619.9,340.9z"/>
		<path class="st4" d="M628.7,339.7l-7.8,2.9l2.3,5.8l1.4-0.5l-1.8-4.3l1.5-0.6l1.3,3.3l1.4-0.5l-1.3-3.3l2.2-0.9l1.7,4.1l1.3-0.5
			L628.7,339.7z"/>
		<path class="st4" d="M570.2,355.1c0.3,0.1,0.6,0.1,0.9,0c0.3-0.1,0.4-0.4,0.4-0.7c0-0.3-0.1-0.6-0.4-0.7c-0.3-0.1-0.6-0.1-0.9,0
			c-0.3,0.1-0.4,0.4-0.4,0.7C569.7,354.7,569.9,355,570.2,355.1z"/>
		<path class="st4" d="M628.3,355.1c0.3-0.1,0.4-0.4,0.4-0.7c0-0.3-0.1-0.6-0.4-0.7c-0.3-0.1-0.6-0.1-0.9,0
			c-0.3,0.1-0.4,0.4-0.4,0.7c0,0.3,0.1,0.6,0.4,0.7C627.7,355.3,628,355.3,628.3,355.1z"/>
		<path class="st4" d="M575.4,364.3l-2.3-0.4l1.4-1.8l-0.4-1l-4.2,1.6l0.3,0.9l2.8-1.1l-1.4,1.9l2.3,0.5l-2.8,1.1l0.3,1l4.3-1.6
			L575.4,364.3z"/>
		<path class="st4" d="M576.5,371.7l0.8-0.5l-1.2-1.8l0.8-0.5l1.4,2.1l0.8-0.5l-2-2.9l-4,2.4l2,2.9l0.8-0.5l-1.4-2.1l0.8-0.5
			L576.5,371.7z"/>
		<path class="st4" d="M582.5,374l-1.7,0.4l0.3-1.8l-0.9-0.8l-0.4,2.7l-2.7,0.7l0.9,0.8l1.8-0.5l-0.3,1.9l0.9,0.8l0.4-2.8l2.6-0.6
			L582.5,374z"/>
		<path class="st4" d="M582.8,380.1l0.9,0.5l2.4-3.9l-0.9-0.5L582.8,380.1z"/>
		<path class="st4" d="M591.4,379.1l-0.4-0.3c-0.1-0.1-0.3-0.2-0.5-0.2c-0.4-0.1-0.7-0.1-1-0.1s-0.6,0.1-0.9,0.2
			c-0.3,0.1-0.5,0.3-0.7,0.6c-0.2,0.2-0.4,0.5-0.5,0.8c-0.1,0.3-0.1,0.6-0.1,1c0,0.3,0.1,0.6,0.2,0.9s0.3,0.5,0.5,0.7
			c0.2,0.2,0.5,0.4,0.8,0.5c0.2,0.1,0.4,0.1,0.5,0.1h0.5c0.1,0,0.3,0,0.5-0.1c0.2,0,0.3-0.1,0.5-0.2l-0.4-0.8
			c-0.2,0.1-0.4,0.1-0.6,0.2c-0.2,0-0.4,0-0.7-0.1c-0.2,0-0.3-0.1-0.5-0.3c-0.1-0.1-0.2-0.3-0.3-0.4c0-0.1-0.1-0.3-0.1-0.5
			c0-0.2,0-0.4,0.1-0.6c0.1-0.2,0.1-0.3,0.3-0.5c0.1-0.1,0.3-0.2,0.4-0.3c0.2-0.1,0.3-0.1,0.5-0.1c0.1,0,0.3,0,0.5,0
			c0.2,0.1,0.4,0.2,0.5,0.3s0.3,0.3,0.4,0.5l0.9-0.5c-0.1-0.1-0.1-0.2-0.2-0.4C591.6,379.3,591.5,379.2,591.4,379.1z"/>
		<path class="st4" d="M595.8,379.9l-2.5,4.3l1,0.1l0.5-1l1.9,0.2l0.3,1.1l1.1,0.1l-1.4-4.8H595.8z M596.6,382.7l-1.2-0.1l0.8-1.4
			L596.6,382.7z"/>
		<path class="st4" d="M603.8,379.9l0.3,2.8l-2.4-2.6l-0.9,0.1l0.5,4.6l1-0.1l-0.3-2.9l2.5,2.7l0.9-0.1l-0.5-4.6L603.8,379.9z"/>
		<path class="st4" d="M611.4,379.6l0.3,0.7l0.9-0.4l0.3,0.6c-0.2,0.2-0.4,0.5-0.8,0.6c-0.2,0.1-0.4,0.1-0.6,0.1s-0.3,0-0.5-0.1
			c-0.1,0-0.3-0.1-0.4-0.3c-0.1-0.1-0.2-0.3-0.3-0.5c-0.1-0.1-0.1-0.3-0.1-0.5c0-0.2,0-0.4,0.1-0.5c0-0.1,0.1-0.3,0.2-0.4
			s0.2-0.2,0.4-0.3c0.1,0,0.2,0,0.3-0.1c0.1,0,0.2,0,0.3,0h0.3c0.1,0,0.2,0,0.3,0.1l0.3-1c-0.1,0-0.3-0.1-0.4-0.1h-0.4
			c-0.1,0-0.3,0-0.5,0.1c-0.1,0-0.3,0.1-0.5,0.2c-0.3,0.1-0.6,0.3-0.8,0.6c-0.2,0.2-0.4,0.5-0.5,0.8c-0.1,0.3-0.1,0.6-0.1,0.9
			c0,0.3,0,0.6,0.2,0.9c0.1,0.3,0.3,0.6,0.5,0.8c0.2,0.2,0.5,0.4,0.8,0.5c0.3,0.1,0.6,0.1,0.9,0.1c0.3,0,0.6-0.1,1-0.2
			c0.4-0.2,0.7-0.4,1-0.7c0.2-0.2,0.4-0.5,0.6-0.8l-0.8-1.8L611.4,379.6z"/>
		<path class="st4" d="M618.6,375.5c0-0.3-0.1-0.6-0.3-0.9c-0.3-0.3-0.6-0.5-1-0.6c-0.4,0-0.9,0.1-1.3,0.5l-1.7,1.3l2.8,3.6l0.8-0.7
			l-0.9-1.2l0.6-0.5l1.7,0.6l1-0.7l-1.9-0.6C618.5,376,618.6,375.7,618.6,375.5z M617.3,376.3l-0.8,0.6l-0.8-1.1l0.8-0.5
			c0.2-0.1,0.4-0.2,0.6-0.2c0.2,0,0.3,0,0.5,0.2c0.1,0.1,0.1,0.3,0.1,0.5C617.7,376,617.5,376.1,617.3,376.3z"/>
		<path class="st4" d="M619,371.7l3.5,3l0.7-0.8l-3.5-3L619,371.7z"/>
		<path class="st4" d="M625,369.8l-3.2-1.9l-0.5,0.9l4,2.4l1.7-2.9l-0.8-0.5L625,369.8z"/>
		<path class="st4" d="M627.6,364.2l-3.5-1.2l-0.3,1l4.4,1.4l1.1-3.2l-0.9-0.3L627.6,364.2z"/>
		<path class="st4" d="M600.9,350.3c-0.2-0.2-0.2-0.4-0.4-0.6c-0.2-0.2-0.5-0.4-0.8-0.3s-0.3,0.4-0.7,0.4h-0.8
			c-0.4,0-0.9-0.1-1.4-0.2c-0.3,0-1-0.2-1.2-0.4c-0.2-0.1-0.6,0-1,0c-1.6,0.3-3.2-0.2-3.3,1.6c-0.1,0.8-0.4,1.5-0.4,2.3
			c0,1.1,0,2.2,0,3.3c0,0.4,0.1,0.8,0.2,1.2c0.2,0.5,0.5,1,0.8,1.5c0.9,1.2,1.6,2.2,2.3,3c0.4,0.3,0.2-0.1,0.7,0.3
			c0-0.2-0.2-0.7-0.4-0.9c-0.1-0.1-0.3-0.4-0.4-0.7c-0.2-0.4-0.5-0.7-0.6-1.1c-0.2-0.7-0.5-1.5-0.9-2.2c0-0.4-0.2-0.9-0.3-1.3
			c0-0.3,0-0.6,0-0.9c0-0.3,0-0.6,0-1V353c0-0.4,0.2-0.7,0.2-1.1c0-0.3,0.5-0.7,0.6-0.9c1.1-0.2,2-0.6,3.2-0.7
			c1.6,0,1.7,0.2,2.4,0.3s1.1,0.6,1.6,1c0.3,0.1-0.1,0.6-0.2,0.9c0,0.2-0.2,0.4-0.3,0.6c-0.3,0.7-0.8,1.2-1,2
			c-0.3,0.6-0.4,0.8-0.7,1.5c-0.1,0.2-0.2,0.6-0.3,0.8c-0.1,0.2,0,1.2,0,1.4c0.1,0.3,0,0.7,0.2,1c0,0.1,0,0.2,0.1,0.3
			c0,0.2,0.1,0.5,0.2,0.7c0.2,0.9,0.5,1.6,0.9,2.2c0.2,0.5,0.5,0.7-0.1,0.5c-0.2,0-0.2-0.1-0.4-0.3c-0.1-0.1-0.3-0.2-0.5-0.4
			c-0.2-0.1-0.3-0.3-0.4-0.5c-0.3-0.3-0.3-0.6-0.7-0.9c-0.2-0.9-0.9-1.9-1.4-2.8c-0.2-0.4-0.4-0.7-0.6-1.1c-0.1-0.3-0.3-0.4-0.4-0.7
			c-0.1-0.4,0-1,0-1.4c-0.1-0.7-0.1-1.2,0.1-1.9c0-1,0.8-0.8,1.4-0.7c0.4,0,0.6,0,0.9,0.2c0.6,0.5,0.3,0.4,0.3,1.1
			c0,0.3,0,0.7-0.2,1c-0.2,0.3-0.3,0.7-0.5,1.1c0,0,0-0.5,0-0.7c0-0.3-0.3-0.6-0.6-0.5c-0.4,0.1-0.4,0.3-0.6,0.7
			c-0.1,0.2,0.1,0.7,0.1,1c0.1,0.7,0.7,1.1,1.3,0.9c0.2-0.2,0.4-0.5,0.4-0.7c0-0.3,0.2-0.7,0.3-1c0.1-0.4,0.3-0.8,0.5-1.1
			c0.2-0.6,0.6-1.2,0.2-1.9c-0.2-0.6-0.5-1-1.1-1.2c-0.2,0-1,0-1.2,0c-0.8,0-1.3,0.2-2.1,0.4c-0.2,0-0.2,0.4-0.3,0.6
			c-0.1,0.3-0.1,0.7-0.2,1.1c-0.1,0.4,0,1-0.1,1.4c-0.1,0.3-0.1,1,0,1.3c0.2,0.4,0.2,0.8,0.5,1.2c0.5,0.6,0.6,1.3,1.1,1.9
			c0.3,0.4,0.4,0.8,0.6,1.2c0,0,0,0.1,0.1,0.2c0.2,0.5,0.8,1.1,1.1,1.6c0.2,0.3,0.5,0.8,0.8,1c0.3,0.2,0.5,0.5,0.8,0.8
			c1.5,1,2.5,1.1,3.1,0.7c0.2-0.2-0.3-0.6-0.4-0.7c-0.4-0.4-0.8-1.1-1-1.7c-0.1-0.5-0.4-1-0.6-1.4c-0.2-0.7-0.5-1.5-0.5-2.2
			c0-0.4,0-0.7,0-1.2c0.1-1,1-1.8,1.1-2.5c0.2-0.3,0.4-0.5,0.5-0.9c0.7-0.6,1.2-1.6,1.5-2.5c0-0.2-0.3-0.6-0.4-0.8
			C601.5,350.7,601.1,350.5,600.9,350.3z"/>
		<path class="st4" d="M606.4,339.2c-0.7,0-3.4,0.3-3.7,0.5c-2,1.5-4,3.1-5.7,4.7c-0.5,0-1.1-0.2-1.6-0.3c-0.5-0.2-1.3-0.4-1.8-0.5
			c-0.3,0.1-0.7,0.2-1,0.5c-0.1,0.1-0.8,0.4-0.6,0.5c0.6-0.1,1.2-0.2,1.8,0.1c0.4,0.1,0.6,0.4,0.9,0.7h-0.1c-0.1,0-0.1,0-0.2,0
			c-0.8,0.2-2.3,0-3,0.5c-1.1,0.6-1.8,1.7-2.6,2.5c-0.2,0.1-0.1,0.7-0.2,1c-0.2,0.5-0.1,1-0.3,1.5s-0.2,1.3-0.2,1.9
			c0,0.9,0,1.7,0,2.6c0,0.6,0.1,1.8,0.3,2.3c0,1.6,3.7,5.4,5.8,9.1c0.3,0.6,0.5,0.6,1.1,0.7c0.1,0,0.2,0,0.3,0
			c0.8,0.1,1.2,0.5,2,0.5c0.4,0,0.8,0.2,1.2,0.3c0.4,0.1,1,0,1.4,0c0.7,0,1.4,0,2.1,0c0.4,0,0.7,0.1,1.1,0c0.3-0.1,0.8,0,1.1,0
			s0.8-0.1,1.2-0.1c0.2,0,0.7-0.6,0.9-0.7c0.5-0.2,0.8-0.8,1.1-1.3c0.2-0.3,0.4-0.7,0.5-1.1c0.1-0.4,0-0.8-0.4-0.9
			c-0.3-0.1-0.4-0.3-0.8-0.3c-0.3-0.1-0.5-0.1-0.8-0.3c-0.4-0.3-1-0.7-1.4-1.1c-0.4-0.3-1-0.7-1.5-1c-0.3-0.2-0.4-0.4-0.7-0.3
			c-0.3,0-0.5-0.8-0.3-1.4c0.1-0.5-0.1-0.6-0.2-0.9c-0.3-0.8-0.7-0.4,0.1-1.1c0.5-0.4,1-1.5,1.3-2.1c0.5-0.8,1.3-1.7,1.3-2.5
			c0.3-0.4,0.6-1.4,0.4-2c0-0.6-0.7-1.7-1.2-2.6c-0.6-0.4-0.8-1.2-1.2-1.8c0.3-0.1,0.5-0.1,0.6-0.2c0.4-0.2,0.4-0.6,0.4-0.7v-0.1
			c-0.1-0.1-0.5,0-0.8,0c-1.3-0.1-1.2,0.1-1.6-0.8c-0.1-0.8,0.4-1.5,0.3-2.2c0.8-0.8,0.9-0.8,1.4-1.3c0.2-0.2,0.6-0.3,0.9-0.5
			c0.9-0.2,2-0.2,2.8-0.2c0.2,0.6,0.6,1.1,0.8,1.6c0,0.1,0.2,0.5,0.1,0.7c-0.4,0.5-0.7,0.8-1.2,1.1c0.1,0,0.2,0.1,0.5,0.1h0.7
			l1.2-0.1c0.2-0.7,0.4-1.4,0.4-2.2c0.2-0.6-1-1.6-1.5-2.3C607.5,339.3,606.9,339.4,606.4,339.2z M603.5,352.2
			c-0.1,1.4-1.1,2.7-1.4,3.3c0,0.1-0.5,0.8-0.6,0.9c-0.2,0.4-0.2,0.3-0.4,0.7c-0.1,0.3-0.4,0.6-0.5,0.9c-0.1,0.3,0,1.1,0,1.4
			c0.1,0.4,0.4,0.3,0.5,0.8c0.1,0.3,0,0.9,0,1.2c0,0.3,0,0.9,0,1.2c0,0.3,0.5,0.1,0.8,0.1c0.4,0.1,0.6,0.7,1.1,0.9
			c0.5,0.2,1.4,1.1,1.8,1.3l0.1,0.1c-0.1,0-0.1,0.1-0.2,0.3c-1.4,1-3.2,1.1-4.9,1c-3.4-0.3-3.6,0-4.9-1.5c-1.8-2.3-3.5-4.6-5.2-7.2
			c0-1.7,0-3.7,0.1-5.4c0-1,0.2-1.2,0.2-2.1c0.2-1.3,1.4-2.2,2.4-2.5c1.3-0.4,2.7-0.5,4-0.5c0.1,0.1,0.4,0.4,0.5,0.5
			c0,0.1,0.1,0.4,0.2,0.5c0.2,0.1,0.3,0.1,0.6,0.1c0.5,0,1.2,0,1.5-0.1c0.4-0.3,0.7-0.8,1.4-0.9c0.7,0.8,1.2,1.6,1.8,2.4
			C603,350.6,603.6,351.1,603.5,352.2z"/>
		<path class="st4" d="M599.1,318.6c19.5,0,35.4,15.9,35.4,35.4s-15.9,35.4-35.4,35.4s-35.4-15.9-35.4-35.4S579.6,318.6,599.1,318.6
			z M599.1,317c-2.5,0-5,0.3-7.5,0.8c-2.4,0.5-4.7,1.2-6.9,2.2c-2.2,0.9-4.3,2.1-6.3,3.4c-2,1.3-3.8,2.8-5.5,4.5
			c-1.7,1.7-3.2,3.5-4.5,5.5c-1.3,2-2.5,4.1-3.4,6.3c-0.9,2.2-1.7,4.6-2.2,6.9c-0.5,2.4-0.8,4.9-0.8,7.5c0,2.5,0.3,5,0.8,7.5
			c0.5,2.4,1.2,4.7,2.2,6.9c0.9,2.2,2.1,4.3,3.4,6.3c1.3,2,2.8,3.8,4.5,5.5c1.7,1.7,3.5,3.2,5.5,4.5c2,1.3,4.1,2.5,6.3,3.4
			c2.2,0.9,4.6,1.7,6.9,2.2c2.4,0.5,4.9,0.8,7.5,0.8c2.5,0,5-0.3,7.5-0.8c2.4-0.5,4.7-1.2,6.9-2.2c2.2-0.9,4.3-2.1,6.3-3.4
			c2-1.3,3.8-2.8,5.5-4.5c1.7-1.7,3.2-3.5,4.5-5.5s2.5-4.1,3.4-6.3c0.9-2.2,1.7-4.6,2.2-6.9c0.5-2.4,0.8-4.9,0.8-7.5
			c0-2.5-0.3-5-0.8-7.5c-0.5-2.4-1.2-4.7-2.2-6.9c-0.9-2.2-2.1-4.3-3.4-6.3s-2.8-3.8-4.5-5.5c-1.7-1.7-3.5-3.2-5.5-4.5
			c-2-1.3-4.1-2.5-6.3-3.4s-4.6-1.7-6.9-2.2C604.1,317.3,601.6,317,599.1,317z"/>
		<path class="st4" d="M597.2,257.7c-0.2-2.3-1.2-4.5-3.2-6c-0.2-0.1-0.5-0.3-0.7-0.3c-0.1,0-0.3,0-0.4,0.2
			c0.9,5.5-2.7,9.4-5.3,13.5c0.9,0.7,2.2,0.6,3.2,0.4c2.7-1.1,5.3-3,8.5-2.3c1-1.6,2.6-3.2,3.9-4.5c0.8-0.7,1.9-1.1,2.5-1.9
			C603.1,255.1,599.7,256.8,597.2,257.7z"/>
		<path class="st4" d="M614.6,261.1c0.8-1.1,2.2-0.2,3.1-0.2v-0.3c-0.5-0.8-1.5-1.1-2.5-1.1c-0.2,0-0.5,0-0.7,0.1
			c-0.3,0.1-0.6,0.4-0.5,0.8C614,260.7,614,261.3,614.6,261.1z"/>
		<path class="st4" d="M622.8,254.4c-0.7-0.1-1.5-0.2-2.2-0.2c-0.1,0-0.3,0-0.4,0c-2.1,0-4.1,0.6-5.4,2.3c-0.2,0.5-1,1.2-0.2,1.6
			c1.6-0.1,3.5-0.3,4.6,1.1c0,1.2,0.8,2.9-0.5,3.5c-1.1-1-2.4,0.4-3.6-0.4c-0.6-0.3-0.9,0-1.2,0.6c-0.3,3.2,1.3,6.7,4.3,8.5
			c1.2,0.4,2.9,0.9,4.1,0.2c3-1.4,4.3-4.6,4.9-7.6c-0.1-0.6,0-1.7-0.9-1.7c-0.9,0.6-2.2,0.2-3.2,0c-0.6,0.2-0.6,1-1.2,1.2l-0.4-0.3
			c-0.3-1.4-0.5-3.4,0.8-4.4c1.5-0.6,3.2-0.9,4.7-0.4c0.3-0.5-0.2-0.9-0.2-1.3C625.9,255.5,624.3,254.8,622.8,254.4z M623.2,267.3
			c-0.6,0.9-1.6,2.1-2.8,2c-1.4,0.1-1.7-1-2.7-1.7l-0.1-0.5C619.4,267.4,621.5,267.1,623.2,267.3z M621.8,265.1
			c0.1,0.1,0.1,0.2,0,0.2c0,0,0,0.1-0.1,0.1c-0.4,0.1-0.6,0.2-0.8,0.3c-0.3,0.1-0.4,0.2-0.8,0.2c-0.3,0-0.5-0.1-0.8-0.3
			c-0.1,0-0.2-0.1-0.3-0.1s-0.2-0.1-0.3-0.1c-0.2-0.1-0.1-0.2,0-0.3c0.3-0.3,0.6-0.3,0.9-0.3c0.2,0,0.5,0.1,0.7,0.1
			C620.6,264.9,621.1,264.4,621.8,265.1z"/>
		<path class="st4" d="M635.1,257.2c2.6,1.4,4.8,3.7,6.4,6.2c1.1-0.2,2.5,0,3.6,0.2c2.6,0.7,5.3,3.6,8,1.7c-2.4-4-6-7.7-5-12.9
			c0.1-0.3-0.1-0.7-0.5-0.8c-1.6,0.6-2.8,2.2-3.4,3.7c-0.3,0.9-0.4,1.8-0.8,2.7c-1.9-1-3.9-1.9-6.2-1.7
			C636.5,256.3,635.3,256.4,635.1,257.2z"/>
		<path class="st4" d="M655,269.5c0-19.1-15.4-34.5-34.5-34.5S586,250.4,586,269.5s15.4,34.5,34.5,34.5S655,288.6,655,269.5z
			 M643.4,294.4l-2.2-0.8c-0.4,0.5-1.1,1.1-0.9,1.6c0.5,0.2,1,0.5,1.4,0.9c-1,1-2.2,1.7-3.3,2.4c-1-3.3-4.3-5.5-4-9.3l-0.2-0.2
			c-0.8,0.9-0.5,2.3-0.5,3.4c0.9,2.4,3.2,4.2,3.5,6.8c-0.4,0.7-1.3,0.8-1.9,1.1c0.1-4.7-7.1-8.2-2.5-12.9c1.5-2.3,4.1-4.5,3.2-7.7
			c-0.9-3.1-4.2-5-4.2-8.4V271c0.7-3.6,3-7.4,1.2-11.2c-0.5-1.5-1.7-3.3-3.2-3.9c2.3,2.7,3.3,7,1.9,10.6c-0.7,1.4-1.6,3.1-1.7,4.8
			c0,0.9,0.1,1.8,0.7,2.6c1.8,2.9,4.9,6,3.1,9.8c-2,3-5.5,6-3.6,10c1.4,2.4,3.6,4.7,3,7.6l-2.3,0.8c1.6-5.4-6-8.6-2.9-14
			c2-2.9,5.5-5.6,3.5-9.5c-1.2-2.4-3.6-3.8-3.6-6.8l0.1-0.5c0.8-4.2,4-8.2,1.8-12.7c-0.6-1.3-1.8-2.7-3.1-3.5l-0.1,0.1
			c2.6,2.5,3.4,6.7,2,10.1c-0.7,2-2.1,3.9-2.4,6c-0.1,1,0,2,0.6,3.1c1.7,2.6,4.6,5.4,2.8,8.9c-1.9,2.8-5.1,5.6-3.9,9.2
			c1.4,3.2,4.4,6.3,2.8,10.2l-2.4,0.5c1.9-3.9-1-7.7-2.6-11.1c-2-4.8,4.4-7.1,4.5-11.6c0-2.8-3.1-4.5-3.7-7.1
			c-1.3-1.1-2.7,0.4-4.3,0.2c-1.2,0.2-2.9-1.6-3.6,0.4c-0.8,2.9-4.6,5-2.9,8.5c1.6,3,5.4,5.3,4.1,9.3c-1.1,3.7-4.9,7.2-2.6,11.5
			c-1-0.3-2.7,0.3-2.7-1.2c-1.5-5.2,4.8-8.2,2.9-13.3c-0.9-3.2-5-4.9-4.1-8.7c0.7-3.1,4.2-5.3,3.7-8.7c0-0.3-0.1-0.6-0.2-0.9
			c-1.3-3.7-4-7.4-2.4-11.7c0.4-1.2,1.3-2.3,2.1-3.4c-2.6,1.4-3.8,4.2-3.8,7.2c-0.1,3.2,2.2,5.9,2.6,8.8c0.1,1.2-0.1,2.4-0.9,3.6
			c-1.7,2.3-3.9,4.6-2.9,7.6s4.7,4.8,4.5,8.3c0,4.1-4.8,6.7-3.5,11.3l-2.4-0.8c-1-4.1,3.4-6.2,3.5-10c0.6-4.4-5-6-4.6-10.2
			c0-3.2,2.8-5.3,4.1-8c0.2-0.7,0.3-1.3,0.3-1.9c-0.2-3-2.9-5.4-2.4-8.7c0.2-2.5,1-4.7,2.6-6.6c-2.2,0.9-3.2,3.5-3.8,5.6
			c-1.1,3.5,1.5,6.6,1.7,9.7c0.1,1.4-0.2,2.7-1.5,4.1c-1.9,2.2-3.7,4.9-2.4,7.9c1.4,3.2,5.9,5.7,3.9,9.8c-1.1,2.5-3.6,4.5-3.5,7.5
			c-0.7-0.3-1.4-0.6-1.9-1.1c0-3.8,5.5-6.2,2.9-10.2c-0.2,0.8-0.3,1.9-0.5,2.8c-0.9,2.3-2.8,4.2-3.6,6.6c-1.2-0.5-2.5-1.4-3.5-2.5
			l1.4-0.9c-0.2-0.5-0.6-0.9-0.9-1.4c-0.9-0.1-1.5,0.5-2.2,0.7c-0.7-0.6-1.3-1.1-1.8-1.8c0.5-1.3,4.1-0.2,2.2-2.4
			c-1.2-0.8-2.5,0.3-3.6,0.9l-1.5-1.8c1.3-0.8,2.5-1.8,4.1-1.5c0.4,0.7,0.4,1.7,1.2,2.1c2.7,0,4.5-2.1,6.6-3.6
			c-1.4-2.1-2.6-5-1.3-7.5c1-2.5,3.6-4.7,3.8-7.5c0-0.6-0.1-1.3-0.3-2c-1.4-3.6-1.9-8.4,0.8-11.6c-1.4,0.4-2.3,2.2-2.8,3.5
			c-1.6,3.5,0.4,6.7,0.5,10.1c0,0.6,0,1.2-0.2,1.8c-1.4,2.7-3.6,5.1-3.9,8.3c-1.6,1-2.9,2.7-5.1,2.1c-0.1,0.6,0.1,1.5,0.3,2.1
			c-1.8-0.1-3,1.2-4.5,1.8c-0.8-0.3-1-1.3-1.3-2c1.8-0.6,3-2.3,5-2.3c0.2-0.6-0.1-1.2-0.2-1.8c-2.5-1.1-6.5,5.5-6.8-0.2
			c2.5-0.1,4.1-2.4,6.6-2.7l0.1-1.8c-2.8-0.3-4.6,2.6-7.4,2.3l-0.6-2.5c3.2,0.2,5.2-2.7,8.3-2.9c0.4-0.5,0.5-1.3,0.5-2.1
			c-3.4-0.4-5.7,3.3-9.3,2.1c0,0-0.1-1.5-0.2-2.4c0-0.3,0-0.6,0-0.6c3.2,1.2,6-1.1,8.7-2.2c0.7-0.2,1.8,0.2,2.1-0.6
			c0-0.6,1-1.3,0.2-1.7c-4-0.5-6.7,4.3-10.8,2.1l-0.3-0.6c0.9-11.6,7.4-22.8,18.3-28.3c4.4-2.5,9.9-3.8,15.4-3.8
			c6.7,0,13.4,1.7,18.5,5.2c4.9,3,9.6,7.9,12.1,12.9c2.4,4.4,3.5,9.3,3.9,14.5c-4.2,3.2-7.1-3-11.4-1.6c0.2,0.7,0.4,1.4,0.9,1.9
			c3.8,0,6.4,3.9,10.4,2.4v0.6c0,0.9,0.1,1.6-0.2,2.5c-3.5,1-5.9-2.7-9.3-2.2l0.4,1.9c3.2,0.1,5.1,3.1,8.4,3
			c-0.5,0.9,0.2,3.4-1.9,2.4c-2.1-0.5-3.7-2.4-6-2.4c-0.3,0.5-0.1,1.2-0.2,1.8c2.5,0.4,4.3,2.5,6.7,2.9c-0.2,0.9-0.5,1.8-1.2,2.3
			c-2-0.5-3.6-2.3-5.7-2.2l-0.4,1.8c2,0,3.4,1.8,5.2,2.4c0,0.7-0.6,1.4-1,2.1c-1.6-0.5-2.9-1.9-4.7-1.8c0-0.7,0.4-1.5,0.2-2.2
			c-2.1,0.6-3.5-1.3-5-2.5c0-3.8-4.1-6.3-4.3-9.8c0-0.7,0.1-1.5,0.4-2.3c1.3-3,0.9-7-0.5-9.8c-0.4-0.7-1.2-1.3-1.9-1.8
			c1.1,2.2,2.3,4.9,1.7,7.6c-0.1,2.1-1.3,4.2-1.3,6.2c0,0.7,0.2,1.5,0.6,2.2c1.7,3,4.7,5.9,3.6,9.6c-0.3,1.2-1.3,2.1-1.5,3.2
			c2,1.6,3.8,3.4,6.4,3.6c0.9-0.6,0.4-3.2,2.3-2l2.8,1.4c-0.2,0.7-0.8,1.4-1.4,1.9c-1.1-0.5-2.1-1.1-3.4-1.1
			c-0.4,0.4-0.7,0.9-0.7,1.5c0.9,0.2,1.8,0.5,2.6,1.1C644.7,293.3,644,293.8,643.4,294.4z"/>
		<path class="st4" d="M625.1,259.6c-0.1,0-0.2,0-0.3,0c-0.5,0.4-2.1,0.1-1.6,1.3c1-0.8,2.3-0.2,3.3,0.2c0.4-0.2,0.3-0.5,0.3-0.9
			C626.5,259.6,625.8,259.6,625.1,259.6z"/>
		<path class="st4" d="M631,250.2c-0.2-1.5,1-3,1.2-4.5c-2.8,0.2-5.1,1.9-7.4,3.2c-0.5-1.3-1.1-2.6-1.6-3.9l3.1-2.9l0.1-0.4
			l-4.2-0.2c-0.7-1.2-1-2.8-1.9-3.9c-0.7,1.3-1.2,2.7-1.9,4l-4.2,0.2v0.3l3.2,2.8c-0.4,1.5-0.7,3-1.7,4.2c-1.9-1.1-3.7-2.3-5.7-3.1
			c-0.5-0.2-1.2-0.4-1.6-0.1c0.6,1.4,1.6,2.9,1.4,4.5c-0.9-0.2-1.5-0.7-2.3-0.9c-1-0.3-2.1-0.8-3-0.5c1.6,2.1,2.8,4.4,3.2,7
			c5.1-2.5,11.1-3.8,17.3-2.8c2.9,0.5,5.6,1.6,8.2,2.6c0.1-2.7,1.8-4.9,3-7.1C634.4,248.6,632.8,249.7,631,250.2z M623.3,250.2
			c-1.9-0.2-4,0-5.8,0.1c-0.2-0.2-0.6-0.5-0.2-0.8l2.9-2.2c1.2,0.7,2.5,1.6,3.5,2.5L623.3,250.2z"/>
		<path class="st4" d="M714.4,313.8l-18-18c-1-1-2.6-1-3.6,0l-41,41c-1,1-1,2.6,0,3.6l18,18c1,1,2.6,1,3.6,0l20.4-20.4l-21.5-21.6
			l1.4-1.4l21.6,21.6l19.1-19.1C715.4,316.4,715.4,314.7,714.4,313.8z M667.4,342c-2,2-5.1,2-7.1,0s-2-5.1,0-7.1s5.1-2,7.1,0
			S669.4,340.1,667.4,342z M676,335c2-2,5.1-2,7.1,0s2,5.1,0,7.1s-5.1,2-7.1,0C674,340.2,674,337,676,335z M698.2,319
			c-2,2-5.1,2-7.1,0s-2-5.1,0-7.1s5.1-2,7.1,0S700.2,317,698.2,319z"/>
	</g>
</g>
<linearGradient id="SVGID_3_" gradientUnits="userSpaceOnUse" x1="48.9847" y1="815.651" x2="48.9847" y2="175.98" gradientTransform="matrix(1 0 0 -1 0 1023.2)">
	<stop  offset="0" style="stop-color:#4186BF"/>
	<stop  offset="1" style="stop-color:#4186BF;stop-opacity:0"/>
</linearGradient>
<path class="st5" d="M47,215.2l-5.6,5.6l-2.8-2.8l9-9l1.4-1.4l1.4,1.4l9,9l-2.8,2.8l-5.5-5.5V987h-4V215.2z"/>
<linearGradient id="SVGID_4_" gradientUnits="userSpaceOnUse" x1="752" y1="36.426" x2="47.0001" y2="36.426" gradientTransform="matrix(1 0 0 -1 0 1023.2)">
	<stop  offset="0" style="stop-color:#D3AD0F"/>
	<stop  offset="1" style="stop-color:#D3AD0F;stop-opacity:0"/>
</linearGradient>
<path class="st6" d="M744.6,985l-5.8-5.8l2.8-2.8l9,9l1.4,1.4l-1.4,1.4l-9,9l-2.8-2.8l5.3-5.3H47v-4H744.6z"/>
<path class="st7" d="M295.7,1011h2.4v-4.9h1.6c2.3,0,4.4-1.2,4.4-3.8c0-2.6-2.1-3.7-4.4-3.7h-4V1011z M299.4,1004.3H298v-3.9h1.3
	c1.2,0,2.3,0.5,2.3,1.9C301.7,1003.7,300.7,1004.3,299.4,1004.3z M313.6,1006.2c0-2.3-1.6-4.1-4.3-4.1c-2.5,0-4.5,1.9-4.5,4.7
	c0,2.8,1.9,4.4,4.6,4.4c2.1,0,3.4-0.9,3.9-1.4l-0.9-1.2c-0.4,0.4-1.5,0.9-2.6,0.9c-1.3,0-2.4-0.7-2.6-2h6.4
	C313.5,1007.4,313.6,1006.7,313.6,1006.2z M309.2,1003.8c1.6,0,2,1.1,2,2h-4.2C307.1,1004.8,307.9,1003.8,309.2,1003.8z M315.3,1011
	h2.3v-4.3c0-0.7,0.1-1.3,0.3-1.7c0.3-0.6,0.8-0.8,1.5-0.8c0.3,0,0.7,0,1,0.1h0.1l0.2-2c0,0-0.3-0.2-0.9-0.2c-0.9,0-1.8,0.6-2.1,1.6
	h-0.1l0-1.4h-2.3V1011z M326.8,1004.6l1-1.5c-0.7-0.5-1.6-0.9-3.1-0.9c-1.7,0-3.1,1-3.1,2.6c0,1.3,0.7,2,2,2.5l1,0.3
	c1.1,0.4,1.5,0.6,1.5,1.1c0,0.5-0.4,0.8-1.3,0.8c-0.7,0-1.6-0.4-2.6-1.2l-0.9,1.6c0.7,0.8,2.2,1.4,3.5,1.4c2.1,0,3.5-1.2,3.5-2.9
	c0-1.3-0.7-2-2.6-2.6l-0.6-0.2c-1-0.3-1.3-0.6-1.3-1c0-0.4,0.4-0.7,1.1-0.7C325.6,1003.8,326.3,1004.2,326.8,1004.6z M334,1011.2
	c2.7,0,4.7-1.8,4.7-4.5s-2.1-4.5-4.7-4.5c-2.7,0-4.7,1.8-4.7,4.5S331.4,1011.2,334,1011.2z M336.4,1006.6c0,1.5-0.9,2.7-2.3,2.7
	c-1.5,0-2.3-1.2-2.3-2.7c0-1.5,0.8-2.7,2.3-2.7C335.5,1004,336.4,1005.1,336.4,1006.6z M346.4,1011h2.3v-5.2c0-2.1-0.6-3.7-3.1-3.7
	c-1.3,0-2.1,0.5-2.6,1.5h-0.1l0-1.3h-2.3v8.7h2.3v-4.3c0-1.5,0.5-2.6,1.9-2.6c1.3,0,1.6,1,1.6,2.3V1011z M356.1,1011h2.2v-5
	c0-2.7-1.4-3.9-4-3.9c-1.5,0-2.7,0.5-3.4,0.9l0.7,1.5c0.4-0.3,1.3-0.7,2.5-0.7c1.2,0,1.9,0.5,1.9,1.6v0.2l-2.1,0.2
	c-1.8,0.1-3.6,0.8-3.6,2.6s1.4,2.7,3.1,2.7c1.3,0,2.3-0.6,2.7-1.2L356.1,1011z M356,1007.1v1.6c-0.3,0.4-1,1-1.9,1
	c-1,0-1.5-0.5-1.5-1.2s0.6-1.2,1.8-1.2L356,1007.1z M360.6,1011h2.3v-12.4h-2.3V1011z M366.6,1000.9c0.8,0,1.4-0.5,1.4-1.3
	c0-0.7-0.6-1.3-1.4-1.3s-1.4,0.5-1.4,1.3C365.2,1000.4,365.8,1000.9,366.6,1000.9z M365.4,1011h2.3v-8.7h-2.3V1011z M369.5,1011h7.8
	v-1.8h-4.9l4.7-5.5v-1.3h-7.4v1.8h4.5l-4.7,5.5V1011z M387.2,1006.2c0-2.3-1.6-4.1-4.3-4.1c-2.5,0-4.5,1.9-4.5,4.7
	c0,2.8,1.9,4.4,4.6,4.4c2.1,0,3.4-0.9,3.9-1.4l-0.9-1.2c-0.4,0.4-1.5,0.9-2.6,0.9c-1.3,0-2.4-0.7-2.6-2h6.4
	C387.2,1007.4,387.2,1006.7,387.2,1006.2z M382.9,1003.8c1.6,0,2,1.1,2,2h-4.2C380.8,1004.8,381.6,1003.8,382.9,1003.8z M395.7,1011
	h2.2v-12.4h-2.3v3.4c0,0.6,0,1.1,0,1.5h0c-0.6-0.9-1.6-1.4-2.8-1.4c-2.6,0-4.3,2-4.3,4.5c0,2.6,1.6,4.6,4.1,4.6c1.2,0,2.3-0.5,3-1.6
	h0.1L395.7,1011z M393.3,1009.3c-1.5,0-2.4-1.2-2.4-2.7c0-1.5,0.9-2.7,2.4-2.7c1.5,0,2.4,1.3,2.4,2.7
	C395.7,1008.3,394.7,1009.3,393.3,1009.3z M412.5,1006.2c0-2.3-1.6-4.1-4.3-4.1c-2.5,0-4.5,1.9-4.5,4.7c0,2.8,1.9,4.4,4.6,4.4
	c2.1,0,3.4-0.9,3.9-1.4l-0.9-1.2c-0.4,0.4-1.5,0.9-2.6,0.9c-1.3,0-2.4-0.7-2.6-2h6.4C412.4,1007.4,412.5,1006.7,412.5,1006.2z
	 M408.1,1003.8c1.6,0,2,1.1,2,2H406C406,1004.8,406.8,1003.8,408.1,1003.8z M420,1011h2.3v-5.2c0-2.1-0.6-3.7-3.1-3.7
	c-1.3,0-2.1,0.5-2.6,1.5h-0.1l0-1.3h-2.3v8.7h2.3v-4.3c0-1.5,0.5-2.6,1.9-2.6c1.3,0,1.6,1,1.6,2.3V1011z M431.2,1009.3v0.4
	c0,1.9-0.8,2.8-2.8,2.8c-1.1,0-2.5-0.6-3.1-1l-1,1.6c0.4,0.3,2,1.3,4,1.3c2.1,0,3.2-0.7,4-1.5c0.7-0.8,1.1-1.9,1.1-3.8v-6.9h-2.3
	l0,1.2h0c-0.6-0.9-1.6-1.4-2.8-1.4c-2.6,0-4.3,2-4.3,4.4c0,2.8,1.9,4.2,4.1,4.2C429.5,1010.7,430.6,1010.2,431.2,1009.3
	L431.2,1009.3z M431.3,1006.5c0,1.3-0.8,2.4-2.5,2.4c-1.5,0-2.4-1.1-2.4-2.4c0-1.4,0.9-2.5,2.4-2.5
	C430.4,1003.9,431.3,1005.2,431.3,1006.5z M441,1011h2.2v-5c0-2.7-1.4-3.9-4-3.9c-1.5,0-2.7,0.5-3.4,0.9l0.7,1.5
	c0.4-0.3,1.3-0.7,2.5-0.7c1.2,0,1.9,0.5,1.9,1.6v0.2l-2.1,0.2c-1.8,0.1-3.6,0.8-3.6,2.6s1.4,2.7,3.1,2.7c1.3,0,2.3-0.6,2.7-1.2
	L441,1011z M440.9,1007.1v1.6c-0.3,0.4-1,1-1.9,1c-1,0-1.5-0.5-1.5-1.2s0.6-1.2,1.8-1.2L440.9,1007.1z M452,1009.3v0.4
	c0,1.9-0.8,2.8-2.8,2.8c-1.1,0-2.5-0.6-3.1-1l-1,1.6c0.4,0.3,2,1.3,4,1.3c2.1,0,3.2-0.7,4-1.5c0.7-0.8,1.1-1.9,1.1-3.8v-6.9H452
	l0,1.2h0c-0.6-0.9-1.6-1.4-2.8-1.4c-2.6,0-4.3,2-4.3,4.4c0,2.8,1.9,4.2,4.1,4.2C450.3,1010.7,451.3,1010.2,452,1009.3L452,1009.3z
	 M452.1,1006.5c0,1.3-0.8,2.4-2.5,2.4c-1.5,0-2.4-1.1-2.4-2.4c0-1.4,0.9-2.5,2.4-2.5C451.1,1003.9,452.1,1005.2,452.1,1006.5z
	 M464.9,1006.2c0-2.3-1.6-4.1-4.3-4.1c-2.5,0-4.5,1.9-4.5,4.7c0,2.8,1.9,4.4,4.6,4.4c2.1,0,3.4-0.9,3.9-1.4l-0.9-1.2
	c-0.4,0.4-1.5,0.9-2.6,0.9c-1.3,0-2.4-0.7-2.6-2h6.4C464.9,1007.4,464.9,1006.7,464.9,1006.2z M460.6,1003.8c1.6,0,2,1.1,2,2h-4.2
	C458.5,1004.8,459.2,1003.8,460.6,1003.8z M476.9,1002.1c-1.3,0-2.2,0.6-2.8,1.7c-0.4-1.2-1.2-1.7-2.4-1.7c-1.1,0-2.2,0.7-2.6,1.5
	H469l0-1.3h-2.3v8.7h2.3v-4.5c0-1.4,0.5-2.5,1.7-2.5c1.1,0,1.4,0.9,1.4,2.1v4.9h2.3v-4.5c0-1.5,0.6-2.5,1.7-2.5c1.1,0,1.4,1,1.4,2.1
	v4.9h2.3v-5.3C479.8,1003.8,479.2,1002.1,476.9,1002.1z M490.4,1006.2c0-2.3-1.6-4.1-4.3-4.1c-2.5,0-4.5,1.9-4.5,4.7
	c0,2.8,1.9,4.4,4.6,4.4c2.1,0,3.4-0.9,3.9-1.4l-0.9-1.2c-0.4,0.4-1.5,0.9-2.6,0.9c-1.3,0-2.4-0.7-2.6-2h6.4
	C490.3,1007.4,490.4,1006.7,490.4,1006.2z M486.1,1003.8c1.6,0,2,1.1,2,2h-4.2C484,1004.8,484.7,1003.8,486.1,1003.8z M497.9,1011
	h2.3v-5.2c0-2.1-0.6-3.7-3.1-3.7c-1.3,0-2.1,0.5-2.6,1.5h-0.1l0-1.3h-2.3v8.7h2.3v-4.3c0-1.5,0.5-2.6,1.9-2.6c1.3,0,1.6,1,1.6,2.3
	V1011z M505.2,1004.1h2v-1.8h-2v-2.5H503v2.5h-1.3v1.8h1.3v4c0,2.3,0.7,3.1,2.5,3.1c1,0,1.7-0.2,1.8-0.3l-0.1-1.8
	c0,0-0.4,0.1-0.8,0.1c-0.8,0-1-0.3-1-1.7V1004.1z"/>
<path class="st7" d="M33,671.5v-4c0-3.8-2.2-6.7-6.2-6.7c-4,0-6.2,2.9-6.2,6.7v4H33z M31,667.5v1.7h-8.5v-1.7c0-2.6,1.6-4.2,4.2-4.2
	C29.4,663.3,31,664.9,31,667.5z M22.9,657.6c0-0.8-0.5-1.4-1.3-1.4c-0.7,0-1.3,0.6-1.3,1.4s0.5,1.4,1.3,1.4
	C22.4,659,22.9,658.4,22.9,657.6z M33,658.7v-2.3h-8.7v2.3H33z M31.3,647.4h0.4c1.9,0,2.8,0.8,2.8,2.8c0,1.1-0.6,2.5-1,3.1l1.6,1
	c0.3-0.4,1.3-2,1.3-4.1c0-2.1-0.7-3.2-1.5-4c-0.8-0.7-1.9-1.1-3.8-1.1h-6.9v2.3l1.2,0v0c-0.9,0.6-1.4,1.6-1.4,2.8
	c0,2.6,2,4.3,4.4,4.3c2.8,0,4.2-1.9,4.2-4.1C32.7,649.1,32.2,648.1,31.3,647.4L31.3,647.4z M28.5,647.3c1.3,0,2.4,0.8,2.4,2.5
	c0,1.5-1.1,2.4-2.4,2.4c-1.4,0-2.5-0.9-2.5-2.4C25.9,648.2,27.2,647.3,28.5,647.3z M22.9,641.5c0-0.8-0.5-1.4-1.3-1.4
	c-0.7,0-1.3,0.6-1.3,1.4s0.5,1.4,1.3,1.4C22.4,642.9,22.9,642.3,22.9,641.5z M33,642.7v-2.3h-8.7v2.3H33z M26.1,635.2v-2h-1.8v2
	h-2.5v2.3h2.5v1.3h1.8v-1.3h4c2.3,0,3.1-0.7,3.1-2.5c0-1-0.3-1.7-0.3-1.8l-1.8,0.1c0,0,0.1,0.4,0.1,0.8c0,0.8-0.3,1-1.7,1H26.1z
	 M33,626.6v-2.2h-5c-2.7,0-3.9,1.4-3.9,4c0,1.5,0.5,2.7,0.9,3.4l1.5-0.7c-0.3-0.4-0.7-1.3-0.7-2.5c0-1.2,0.5-1.9,1.6-1.9h0.2
	l0.1,2.1c0.1,1.8,0.8,3.6,2.6,3.6c1.8,0,2.7-1.4,2.7-3.1c0-1.3-0.6-2.3-1.2-2.7L33,626.6z M29.1,626.6h1.6c0.4,0.3,1,1,1,1.9
	c0,1-0.5,1.5-1.2,1.5c-0.7,0-1.2-0.6-1.2-1.8L29.1,626.6z M33,622v-2.3H20.6v2.3H33z M24.3,611.1v2.3h12v-2.3h-3c-0.6,0-1,0-1.4,0
	l0,0c0.9-0.7,1.3-1.5,1.3-2.8c0-2.6-2-4.3-4.5-4.3c-2.6,0-4.6,1.6-4.6,4.1c0,1.2,0.4,2.2,1.4,2.9l0,0L24.3,611.1z M26,608.8
	c0-1.5,1.2-2.4,2.7-2.4c1.5,0,2.7,0.9,2.7,2.4c0,1.5-1.3,2.4-2.7,2.4C27,611.2,26,610.2,26,608.8z M24.3,600v2.3h5.2
	c2.1,0,3.7-0.6,3.7-3.1c0-1.3-0.5-2.2-1.4-2.7l1.2,0v-2.2h-8.7v2.3h4.4c1.5,0,2.6,0.5,2.6,1.9c0,1.3-1,1.5-2.3,1.5H24.3z M33,591.9
	v-2.3h-4.3c-0.7,0-1.3-0.1-1.7-0.3c-0.6-0.3-0.8-0.8-0.8-1.5c0-0.3,0-0.7,0.1-1v-0.1l-2-0.2c0,0-0.2,0.3-0.2,0.9
	c0,0.9,0.6,1.8,1.6,2.1v0.1l-1.4,0v2.3H33z M30.3,578.5c0,0,0.9,0.8,0.9,2.3c0,1.5-1,2.6-2.6,2.6s-2.6-1.1-2.6-2.5
	c0-1.3,0.7-2.1,0.9-2.4l-1.7-0.6c-0.2,0.2-1.1,1.1-1.1,3.3c0,2.3,1.7,4.6,4.6,4.6c2.8,0,4.5-2.2,4.5-4.6c0-2.3-1-3.2-1.2-3.4
	L30.3,578.5z M24.1,571.4c0,1.3,0.6,2.1,1.5,2.6v0h-5v2.3H33V574h-4.3c-1.5,0-2.6-0.5-2.6-1.9c0-1.3,1-1.6,2.3-1.6H33v-2.3h-5.2
	C25.7,568.3,24.1,568.9,24.1,571.4z M33,560.8v-2.2h-5c-2.7,0-3.9,1.4-3.9,4c0,1.5,0.5,2.7,0.9,3.4l1.5-0.7
	c-0.3-0.4-0.7-1.3-0.7-2.5c0-1.2,0.5-1.9,1.6-1.9h0.2l0.1,2.1c0.1,1.8,0.8,3.6,2.6,3.6c1.8,0,2.7-1.4,2.7-3.1c0-1.3-0.6-2.3-1.2-2.7
	L33,560.8z M29.1,560.9h1.6c0.4,0.3,1,1,1,1.9c0,1-0.5,1.5-1.2,1.5c-0.7,0-1.2-0.6-1.2-1.8L29.1,560.9z M26.6,551.4l-1.5-1
	c-0.5,0.7-0.9,1.6-0.9,3.1c0,1.7,1,3.1,2.6,3.1c1.3,0,2.1-0.7,2.5-2l0.3-1c0.4-1.1,0.6-1.5,1.1-1.5c0.5,0,0.8,0.4,0.8,1.3
	c0,0.7-0.4,1.6-1.2,2.6l1.6,0.9c0.8-0.7,1.4-2.2,1.4-3.5c0-2.1-1.2-3.5-2.9-3.5c-1.3,0-1.9,0.7-2.6,2.6l-0.2,0.6
	c-0.3,1-0.6,1.3-1,1.3c-0.4,0-0.7-0.4-0.7-1.1C25.9,552.6,26.2,551.9,26.6,551.4z M22.9,547.2c0-0.8-0.5-1.4-1.3-1.4
	c-0.7,0-1.3,0.6-1.3,1.4c0,0.8,0.5,1.4,1.3,1.4C22.4,548.5,22.9,548,22.9,547.2z M33,548.3V546h-8.7v2.3H33z M33,537.8v-2.3h-5.2
	c-2.1,0-3.7,0.6-3.7,3.1c0,1.3,0.6,2.1,1.5,2.6v0.1l-1.3,0v2.3H33v-2.3h-4.3c-1.5,0-2.6-0.5-2.6-1.9c0-1.3,1-1.6,2.3-1.6H33z
	 M31.3,526.6h0.4c1.9,0,2.8,0.8,2.8,2.8c0,1.1-0.6,2.5-1,3.1l1.6,1c0.3-0.4,1.3-2,1.3-4.1c0-2.1-0.7-3.2-1.5-4
	c-0.8-0.7-1.9-1.1-3.8-1.1h-6.9v2.3l1.2,0v0c-0.9,0.6-1.4,1.6-1.4,2.8c0,2.6,2,4.3,4.4,4.3c2.8,0,4.2-1.9,4.2-4.1
	C32.7,528.3,32.2,527.2,31.3,526.6L31.3,526.6z M28.5,526.5c1.3,0,2.4,0.8,2.4,2.5c0,1.5-1.1,2.4-2.4,2.4c-1.4,0-2.5-0.9-2.5-2.4
	C25.9,527.4,27.2,526.5,28.5,526.5z"/>
<rect x="50" y="209" class="st1" width="701" height="777"/>
<path class="st8" d="M47,215.2l-5.6,5.6l-2.8-2.8l9-9l1.4-1.4l1.4,1.4l9,9l-2.8,2.8l-5.5-5.5V987h-4V215.2z"/>
<path class="st9" d="M744.6,985l-5.8-5.8l2.8-2.8l9,9l1.4,1.4l-1.4,1.4l-9,9l-2.8-2.8l5.3-5.3H47v-4H744.6z"/>
</svg>
