<?xml version="1.0" encoding="utf-8"?>
<!-- Generator: Adobe Illustrator 25.1.0, SVG Export Plug-In . SVG Version: 6.00 Build 0)  -->
<svg version="1.1" id="Layer_1" xmlns="http://www.w3.org/2000/svg" xmlns:xlink="http://www.w3.org/1999/xlink" x="0px" y="0px"
	 viewBox="0 0 768 1024" style="enable-background:new 0 0 768 1024;" xml:space="preserve">
<style type="text/css">
	.st0{fill:#071520;}
	.st1{fill:none;stroke:#143F63;stroke-width:2;}
	.st2{fill-rule:evenodd;clip-rule:evenodd;fill:url(#SVGID_1_);}
</style>
<rect y="0" class="st0" width="768" height="1024"/>
<path class="st1" d="M134.3,208v779"/>
<path class="st1" d="M223.3,208v779"/>
<path class="st1" d="M312.2,208v779"/>
<path class="st1" d="M401.1,208v779"/>
<path class="st1" d="M490.1,208v779"/>
<path class="st1" d="M579,208v779"/>
<path class="st1" d="M668,208v779"/>
<path class="st1" d="M752,319H50"/>
<path class="st1" d="M752,430.8l-702,0"/>
<path class="st1" d="M752,542.6H50"/>
<path class="st1" d="M752,654.5H50"/>
<path class="st1" d="M752,766.3H50"/>
<path class="st1" d="M752,878.1H50"/>
<rect x="50" y="209" class="st1" width="701" height="777"/>
<linearGradient id="SVGID_1_" gradientUnits="userSpaceOnUse" x1="48.9848" y1="815.651" x2="48.9848" y2="109.757" gradientTransform="matrix(1 0 0 -1 0 1023.2)">
	<stop  offset="0" style="stop-color:#4186BF"/>
	<stop  offset="1" style="stop-color:#4186BF;stop-opacity:0"/>
</linearGradient>
<path class="st2" d="M47,215.2l-5.6,5.6l-2.8-2.8l9-9l1.4-1.4l1.4,1.4l9,9l-2.8,2.8l-5.5-5.5V910h-4V215.2z"/>
</svg>
