<?xml version="1.0" encoding="utf-8"?>
<!-- Generator: Adobe Illustrator 25.1.0, SVG Export Plug-In . SVG Version: 6.00 Build 0)  -->
<svg version="1.1" id="Layer_1" xmlns="http://www.w3.org/2000/svg" xmlns:xlink="http://www.w3.org/1999/xlink" x="0px" y="0px"
	 viewBox="0 0 375 665" style="enable-background:new 0 0 375 665;" xml:space="preserve">
<style type="text/css">
	.st0{fill:#071520;}
	.st1{fill:none;stroke:#143F63;stroke-width:2;}
	.st2{fill-rule:evenodd;clip-rule:evenodd;fill:url(#SVGID_1_);}
	.st3{fill:#676E73;}
	.st4{fill-rule:evenodd;clip-rule:evenodd;fill:#71A4CF;}
	.st5{fill-rule:evenodd;clip-rule:evenodd;fill:url(#SVGID_2_);}
</style>
<rect y="0" class="st0" width="375" height="665"/>
<path class="st1" d="M86.6,208v420"/>
<path class="st1" d="M125.8,208v420"/>
<path class="st1" d="M165.1,208v420"/>
<path class="st1" d="M204.3,208v420"/>
<path class="st1" d="M243.5,208v420"/>
<path class="st1" d="M282.7,208v420"/>
<path class="st1" d="M321.9,208v420"/>
<path class="st1" d="M359,267.8H50"/>
<path class="st1" d="M359,328.1H50"/>
<path class="st1" d="M359,388.4H50"/>
<path class="st1" d="M359,448.7H50"/>
<path class="st1" d="M359,509H50"/>
<path class="st1" d="M359,569.3l-309,0"/>
<linearGradient id="SVGID_1_" gradientUnits="userSpaceOnUse" x1="48.9849" y1="455.651" x2="48.9849" y2="110.6" gradientTransform="matrix(1 0 0 -1 0 663.2)">
	<stop  offset="0" style="stop-color:#4186BF"/>
	<stop  offset="1" style="stop-color:#4186BF;stop-opacity:0"/>
</linearGradient>
<path class="st2" d="M47,215.2l-5.6,5.6l-2.8-2.8l9-9l1.4-1.4l1.4,1.4l9,9l-2.8,2.8l-5.5-5.5L51,628h-4L47,215.2z"/>
<path class="st3" d="M33,491.5v-4c0-3.8-2.2-6.7-6.2-6.7c-4,0-6.2,2.9-6.2,6.7v4H33z M31,487.5v1.7h-8.5v-1.7c0-2.6,1.6-4.2,4.2-4.2
	C29.4,483.3,31,484.9,31,487.5z M22.9,477.6c0-0.8-0.5-1.4-1.3-1.4c-0.7,0-1.3,0.6-1.3,1.4s0.5,1.4,1.3,1.4
	C22.4,479,22.9,478.4,22.9,477.6z M33,478.7v-2.3h-8.7v2.3H33z M31.3,467.4h0.4c1.9,0,2.8,0.8,2.8,2.8c0,1.1-0.6,2.5-1,3.1l1.6,1
	c0.3-0.4,1.3-2,1.3-4c0-2.1-0.7-3.2-1.5-4c-0.8-0.7-1.9-1.1-3.8-1.1h-6.9v2.3l1.2,0v0c-0.9,0.6-1.4,1.6-1.4,2.8c0,2.6,2,4.3,4.4,4.3
	c2.8,0,4.2-1.9,4.2-4.1C32.7,469.1,32.2,468.1,31.3,467.4L31.3,467.4z M28.5,467.3c1.3,0,2.4,0.8,2.4,2.5c0,1.5-1.1,2.4-2.4,2.4
	c-1.4,0-2.5-0.9-2.5-2.4C25.9,468.2,27.2,467.3,28.5,467.3z M22.9,461.5c0-0.8-0.5-1.4-1.3-1.4c-0.7,0-1.3,0.6-1.3,1.4
	s0.5,1.4,1.3,1.4C22.4,462.9,22.9,462.3,22.9,461.5z M33,462.7v-2.3h-8.7v2.3H33z M26.1,455.2v-2h-1.8v2h-2.5v2.3h2.5v1.3h1.8v-1.3
	h4c2.3,0,3.1-0.7,3.1-2.5c0-1-0.3-1.7-0.3-1.8l-1.8,0.1c0,0,0.1,0.4,0.1,0.8c0,0.8-0.3,1-1.7,1H26.1z M33,446.6v-2.2h-5
	c-2.7,0-3.9,1.4-3.9,4c0,1.5,0.5,2.7,0.9,3.4l1.5-0.7c-0.3-0.4-0.7-1.3-0.7-2.5c0-1.2,0.5-1.9,1.6-1.9h0.2l0.1,2.1
	c0.1,1.8,0.8,3.6,2.6,3.6c1.8,0,2.7-1.4,2.7-3.1c0-1.3-0.6-2.3-1.2-2.7L33,446.6z M29.1,446.6h1.6c0.4,0.3,1,1,1,1.9
	c0,1-0.5,1.5-1.2,1.5c-0.7,0-1.2-0.6-1.2-1.8L29.1,446.6z M33,442v-2.3H20.6v2.3H33z M24.3,431.1v2.3h12v-2.3h-3c-0.6,0-1,0-1.4,0
	l0,0c0.9-0.7,1.3-1.5,1.3-2.8c0-2.6-2-4.3-4.5-4.3c-2.6,0-4.6,1.6-4.6,4.1c0,1.2,0.4,2.2,1.4,2.9l0,0L24.3,431.1z M26,428.8
	c0-1.5,1.2-2.4,2.7-2.4c1.5,0,2.7,0.9,2.7,2.4c0,1.5-1.3,2.4-2.7,2.4C27,431.2,26,430.2,26,428.8z M24.3,420v2.3h5.2
	c2.1,0,3.7-0.6,3.7-3.1c0-1.3-0.5-2.2-1.4-2.7l1.2,0v-2.2h-8.7v2.3h4.4c1.5,0,2.6,0.5,2.6,1.9c0,1.3-1,1.5-2.3,1.5H24.3z M33,411.9
	v-2.3h-4.3c-0.7,0-1.3-0.1-1.7-0.3c-0.6-0.3-0.8-0.8-0.8-1.5c0-0.3,0-0.7,0.1-1v-0.1l-2-0.2c0,0-0.2,0.3-0.2,0.9
	c0,0.9,0.6,1.8,1.6,2.1v0.1l-1.4,0v2.3H33z M30.3,398.5c0,0,0.9,0.8,0.9,2.3c0,1.5-1,2.6-2.6,2.6s-2.6-1.1-2.6-2.5
	c0-1.3,0.7-2.1,0.9-2.4l-1.7-0.6c-0.2,0.2-1.1,1.1-1.1,3.3c0,2.3,1.7,4.6,4.6,4.6c2.8,0,4.5-2.2,4.5-4.6c0-2.3-1-3.2-1.2-3.4
	L30.3,398.5z M24.1,391.4c0,1.3,0.6,2.1,1.5,2.6v0h-5v2.3H33V394h-4.3c-1.5,0-2.6-0.5-2.6-1.9c0-1.3,1-1.6,2.3-1.6H33v-2.3h-5.2
	C25.7,388.3,24.1,388.9,24.1,391.4z M33,380.8v-2.2h-5c-2.7,0-3.9,1.4-3.9,4c0,1.5,0.5,2.7,0.9,3.4l1.5-0.7
	c-0.3-0.4-0.7-1.3-0.7-2.5c0-1.2,0.5-1.9,1.6-1.9h0.2l0.1,2.1c0.1,1.8,0.8,3.6,2.6,3.6c1.8,0,2.7-1.4,2.7-3.1c0-1.3-0.6-2.3-1.2-2.7
	L33,380.8z M29.1,380.9h1.6c0.4,0.3,1,1,1,1.9c0,1-0.5,1.5-1.2,1.5c-0.7,0-1.2-0.6-1.2-1.8L29.1,380.9z M26.6,371.4l-1.5-1
	c-0.5,0.7-0.9,1.6-0.9,3.1c0,1.7,1,3.1,2.6,3.1c1.3,0,2.1-0.7,2.5-2l0.3-1c0.4-1.1,0.6-1.5,1.1-1.5c0.5,0,0.8,0.4,0.8,1.3
	c0,0.7-0.4,1.6-1.2,2.6l1.6,0.9c0.8-0.7,1.4-2.2,1.4-3.5c0-2.1-1.2-3.5-2.9-3.5c-1.3,0-1.9,0.7-2.6,2.6l-0.2,0.6
	c-0.3,1-0.6,1.3-1,1.3c-0.4,0-0.7-0.4-0.7-1.1C25.9,372.6,26.2,371.9,26.6,371.4z M22.9,367.2c0-0.8-0.5-1.4-1.3-1.4
	c-0.7,0-1.3,0.6-1.3,1.4s0.5,1.4,1.3,1.4C22.4,368.5,22.9,368,22.9,367.2z M33,368.3V366h-8.7v2.3H33z M33,357.8v-2.3h-5.2
	c-2.1,0-3.7,0.6-3.7,3.1c0,1.3,0.6,2.1,1.5,2.6v0.1l-1.3,0v2.3H33v-2.3h-4.3c-1.5,0-2.6-0.5-2.6-1.9c0-1.3,1-1.6,2.3-1.6H33z
	 M31.3,346.6h0.4c1.9,0,2.8,0.8,2.8,2.8c0,1.1-0.6,2.5-1,3.1l1.6,1c0.3-0.4,1.3-2,1.3-4c0-2.1-0.7-3.2-1.5-4
	c-0.8-0.7-1.9-1.1-3.8-1.1h-6.9v2.3l1.2,0v0c-0.9,0.6-1.4,1.6-1.4,2.8c0,2.6,2,4.3,4.4,4.3c2.8,0,4.2-1.9,4.2-4.1
	C32.7,348.3,32.2,347.2,31.3,346.6L31.3,346.6z M28.5,346.5c1.3,0,2.4,0.8,2.4,2.5c0,1.5-1.1,2.4-2.4,2.4c-1.4,0-2.5-0.9-2.5-2.4
	C25.9,347.4,27.2,346.5,28.5,346.5z"/>
<rect x="50" y="209" class="st1" width="308" height="418"/>
<path class="st4" d="M47,215.2l-5.6,5.6l-2.8-2.8l9-9l1.4-1.4l1.4,1.4l9,9l-2.8,2.8l-5.5-5.5L51,628h-4L47,215.2z"/>
<linearGradient id="SVGID_2_" gradientUnits="userSpaceOnUse" x1="359" y1="35.426" x2="47" y2="35.426" gradientTransform="matrix(1 0 0 -1 0 663.2)">
	<stop  offset="0" style="stop-color:#D3AD0F"/>
	<stop  offset="1" style="stop-color:#D3AD0F;stop-opacity:0"/>
</linearGradient>
<path class="st5" d="M351.6,626l-5.8-5.8l2.8-2.8l9,9l1.4,1.4l-1.4,1.4l-9,9l-2.8-2.8l5.3-5.3H47v-4H351.6z"/>
</svg>
