<?xml version="1.0" encoding="utf-8"?>
<!-- Generator: Adobe Illustrator 25.1.0, SVG Export Plug-In . SVG Version: 6.00 Build 0)  -->
<svg version="1.1" id="Layer_1" xmlns="http://www.w3.org/2000/svg" xmlns:xlink="http://www.w3.org/1999/xlink" x="0px" y="0px"
	 viewBox="0 0 375 665" style="enable-background:new 0 0 375 665;" xml:space="preserve">
<style type="text/css">
	.st0{fill:#071520;}
	.st1{fill:none;stroke:#143F63;stroke-width:2;}
	.st2{fill:url(#SVGID_1_);fill-opacity:0.5;}
	.st3{fill:#FFFFFF;}
	.st4{opacity:0.4;fill:#FFFFFF;enable-background:new    ;}
	.st5{fill-rule:evenodd;clip-rule:evenodd;fill:url(#SVGID_2_);}
	.st6{fill-rule:evenodd;clip-rule:evenodd;fill:url(#SVGID_3_);}
	.st7{fill:#676E73;}
	.st8{fill-rule:evenodd;clip-rule:evenodd;fill:#71A4CF;}
	.st9{fill-rule:evenodd;clip-rule:evenodd;fill:#D3AD0F;}
</style>
<rect y="0" class="st0" width="375" height="665"/>
<path class="st1" d="M86.6,208v420"/>
<path class="st1" d="M125.8,208v420"/>
<path class="st1" d="M165.1,208v420"/>
<path class="st1" d="M204.3,208v420"/>
<path class="st1" d="M243.5,208v420"/>
<path class="st1" d="M282.7,208v420"/>
<path class="st1" d="M321.9,208v420"/>
<path class="st1" d="M359,267.8H50"/>
<path class="st1" d="M359,328.1H50"/>
<path class="st1" d="M359,388.4H50"/>
<path class="st1" d="M359,448.7H50"/>
<path class="st1" d="M359,509H50"/>
<path class="st1" d="M359,569.3l-309,0"/>
<radialGradient id="SVGID_1_" cx="-82.8308" cy="397.7392" r="1" gradientTransform="matrix(-212.6984 193.9006 205.5656 225.4943 -99020.5078 -73419.3281)" gradientUnits="userSpaceOnUse">
	<stop  offset="0" style="stop-color:#13C1BF"/>
	<stop  offset="1" style="stop-color:#13C1BF;stop-opacity:0"/>
</radialGradient>
<path class="st2" d="M359,498.5C145.6,498.5,64.7,304.8,51,208h308V498.5z"/>
<path class="st3" d="M278.6,239.8h4c3.8,0,6.7-2.2,6.7-6.2c0-4-2.9-6.2-6.7-6.2h-4V239.8z M282.7,237.8H281v-8.5h1.7
	c2.6,0,4.2,1.6,4.2,4.2C286.9,236.2,285.3,237.8,282.7,237.8z M292.3,229.7c0.8,0,1.4-0.5,1.4-1.3c0-0.7-0.6-1.3-1.4-1.3
	s-1.4,0.5-1.4,1.3C290.9,229.2,291.5,229.7,292.3,229.7z M291.2,239.8h2.3v-8.7h-2.3V239.8z M302.2,238.2v0.4c0,1.9-0.8,2.8-2.8,2.8
	c-1.1,0-2.5-0.6-3.1-1l-1,1.6c0.4,0.3,2,1.3,4,1.3c2.1,0,3.2-0.7,4-1.5c0.7-0.8,1.1-1.9,1.1-3.8v-6.9h-2.3l0,1.2h0
	c-0.6-0.9-1.6-1.4-2.8-1.4c-2.6,0-4.3,2-4.3,4.4c0,2.8,1.9,4.2,4.1,4.2C300.5,239.5,301.6,239.1,302.2,238.2L302.2,238.2z
	 M302.3,235.3c0,1.3-0.8,2.4-2.5,2.4c-1.5,0-2.4-1.1-2.4-2.4c0-1.4,0.9-2.5,2.4-2.5C301.4,232.8,302.3,234,302.3,235.3z
	 M307.9,229.7c0.8,0,1.4-0.5,1.4-1.3c0-0.7-0.6-1.3-1.4-1.3s-1.4,0.5-1.4,1.3C306.5,229.2,307.1,229.7,307.9,229.7z M306.7,239.8
	h2.3v-8.7h-2.3V239.8z M313.9,232.9h2v-1.8h-2v-2.5h-2.3v2.5h-1.3v1.8h1.3v4c0,2.3,0.7,3.1,2.5,3.1c1,0,1.7-0.3,1.8-0.3l-0.1-1.8
	c0,0-0.4,0.1-0.8,0.1c-0.8,0-1-0.3-1-1.7V232.9z M322.3,239.8h2.2v-5c0-2.7-1.4-3.9-4-3.9c-1.5,0-2.7,0.5-3.4,0.9l0.7,1.5
	c0.4-0.3,1.3-0.7,2.5-0.7c1.2,0,1.9,0.5,1.9,1.6v0.2l-2.1,0.1c-1.8,0.1-3.6,0.8-3.6,2.6c0,1.8,1.4,2.7,3.1,2.7
	c1.3,0,2.3-0.6,2.7-1.2L322.3,239.8z M322.3,235.9v1.6c-0.3,0.4-1,1-1.9,1c-1,0-1.5-0.5-1.5-1.2c0-0.7,0.6-1.2,1.8-1.2L322.3,235.9z
	 M326.6,239.8h2.3v-12.4h-2.3V239.8z M331.2,239.8h2.3v-12.4h-2.3V239.8z M338.2,239.9l-0.4,0.9c-0.2,0.4-0.6,0.6-1,0.6
	c-0.4,0-1-0.2-1-0.2l-0.5,1.8c0,0,0.8,0.4,2.1,0.4c1.2,0,1.9-0.7,2.6-2.3l4-9.9h-2.4l-2.3,6.2l-2.3-6.2h-2.4L338.2,239.9z
	 M305,251.4l1-1.5c-0.7-0.5-1.6-0.9-3.1-0.9c-1.7,0-3.1,1-3.1,2.6c0,1.3,0.7,2.1,2,2.5l1,0.3c1.1,0.4,1.5,0.6,1.5,1.1
	c0,0.5-0.4,0.8-1.3,0.8c-0.7,0-1.6-0.4-2.6-1.2l-0.9,1.6c0.7,0.8,2.2,1.4,3.5,1.4c2.1,0,3.5-1.2,3.5-2.9c0-1.3-0.7-1.9-2.6-2.6
	l-0.6-0.2c-1-0.3-1.3-0.6-1.3-1c0-0.4,0.4-0.7,1.1-0.7C303.8,250.7,304.5,251,305,251.4z M312.9,257.8h2.2v-5c0-2.7-1.4-3.9-4-3.9
	c-1.5,0-2.7,0.5-3.4,0.9l0.7,1.5c0.4-0.3,1.3-0.7,2.5-0.7c1.2,0,1.9,0.5,1.9,1.6v0.2l-2.1,0.1c-1.8,0.1-3.6,0.8-3.6,2.6
	c0,1.8,1.4,2.7,3.1,2.7c1.3,0,2.3-0.6,2.7-1.2L312.9,257.8z M312.9,253.9v1.6c-0.3,0.4-1,1-1.9,1c-1,0-1.5-0.5-1.5-1.2
	c0-0.7,0.6-1.2,1.8-1.2L312.9,253.9z M319.4,257.8h2.2l3.6-8.7h-2.3l-2.4,6.3l-2.4-6.3h-2.4L319.4,257.8z M328.8,257.8h2.2l3.6-8.7
	h-2.3l-2.4,6.3l-2.4-6.3h-2.4L328.8,257.8z M338.2,257.9l-0.4,0.9c-0.2,0.5-0.6,0.6-1,0.6c-0.4,0-1-0.2-1-0.2l-0.5,1.8
	c0,0,0.8,0.4,2.1,0.4c1.2,0,1.9-0.7,2.6-2.3l4-9.9h-2.4l-2.3,6.2l-2.3-6.2h-2.4L338.2,257.9z"/>
<path class="st4" d="M69.3,589.8h4c3.8,0,6.7-2.2,6.7-6.2c0-4-2.9-6.2-6.7-6.2h-4V589.8z M73.4,587.8h-1.7v-8.5h1.7
	c2.6,0,4.2,1.6,4.2,4.2C77.6,586.2,76,587.8,73.4,587.8z M83.1,579.7c0.8,0,1.4-0.5,1.4-1.3c0-0.7-0.6-1.3-1.4-1.3s-1.4,0.5-1.4,1.3
	C81.7,579.2,82.3,579.7,83.1,579.7z M81.9,589.8h2.3v-8.7h-2.3V589.8z M92.9,588.2v0.4c0,1.9-0.8,2.8-2.8,2.8c-1.1,0-2.5-0.6-3.1-1
	l-1,1.6c0.4,0.3,2,1.3,4.1,1.3c2.1,0,3.2-0.7,4-1.5c0.7-0.8,1.1-1.9,1.1-3.8v-6.9h-2.3l0,1.2h0c-0.6-0.9-1.6-1.4-2.8-1.4
	c-2.6,0-4.3,2-4.3,4.4c0,2.8,1.9,4.2,4.1,4.2C91.3,589.5,92.3,589.1,92.9,588.2L92.9,588.2z M93.1,585.3c0,1.3-0.8,2.4-2.5,2.4
	c-1.5,0-2.4-1.1-2.4-2.4c0-1.4,0.9-2.5,2.4-2.5C92.1,582.8,93.1,584,93.1,585.3z M98.6,579.7c0.8,0,1.4-0.5,1.4-1.3
	c0-0.7-0.6-1.3-1.4-1.3c-0.8,0-1.4,0.5-1.4,1.3C97.2,579.2,97.8,579.7,98.6,579.7z M97.5,589.8h2.3v-8.7h-2.3V589.8z M104.7,582.9h2
	v-1.8h-2v-2.5h-2.3v2.5h-1.3v1.8h1.3v4c0,2.3,0.7,3.1,2.5,3.1c1,0,1.7-0.3,1.8-0.3l-0.1-1.8c0,0-0.4,0.1-0.8,0.1c-0.8,0-1-0.3-1-1.7
	V582.9z M113.1,589.8h2.2v-5c0-2.7-1.4-3.9-4-3.9c-1.5,0-2.7,0.5-3.4,0.9l0.7,1.5c0.4-0.3,1.3-0.7,2.5-0.7c1.2,0,1.9,0.5,1.9,1.6
	v0.2l-2.1,0.1c-1.8,0.1-3.6,0.8-3.6,2.6s1.4,2.7,3.1,2.7c1.3,0,2.3-0.6,2.7-1.2L113.1,589.8z M113,585.9v1.6c-0.3,0.4-1,1-1.9,1
	c-1,0-1.5-0.5-1.5-1.2c0-0.7,0.6-1.2,1.8-1.2L113,585.9z M117.4,589.8h2.3v-12.4h-2.3V589.8z M121.9,589.8h2.3v-12.4h-2.3V589.8z
	 M128.9,589.9l-0.4,0.9c-0.2,0.5-0.6,0.6-1,0.6c-0.4,0-1-0.2-1-0.2l-0.5,1.8c0,0,0.8,0.4,2.1,0.4c1.2,0,1.9-0.7,2.6-2.3l4.1-9.9
	h-2.4l-2.3,6.2l-2.3-6.2h-2.4L128.9,589.9z M74.9,607.8h2.3v-5.2c0-2.1-0.6-3.7-3.1-3.7c-1.3,0-2.1,0.6-2.6,1.5h-0.1l0-1.3h-2.3v8.7
	h2.3v-4.3c0-1.5,0.5-2.6,1.9-2.6c1.3,0,1.6,1,1.6,2.3V607.8z M84.4,607.8h2.2v-5c0-2.7-1.4-3.9-4-3.9c-1.5,0-2.7,0.5-3.4,0.9
	l0.7,1.5c0.4-0.3,1.3-0.7,2.5-0.7c1.2,0,1.9,0.5,1.9,1.6v0.2l-2.1,0.1c-1.8,0.1-3.6,0.8-3.6,2.6s1.4,2.7,3.1,2.7
	c1.3,0,2.3-0.6,2.7-1.2L84.4,607.8z M84.3,603.9v1.6c-0.3,0.4-1,1-1.9,1c-1,0-1.5-0.5-1.5-1.2c0-0.7,0.6-1.2,1.8-1.2L84.3,603.9z
	 M89.8,597.7c0.8,0,1.4-0.5,1.4-1.3c0-0.7-0.6-1.3-1.4-1.3s-1.4,0.5-1.4,1.3C88.4,597.2,89,597.7,89.8,597.7z M88.7,607.8H91v-8.7
	h-2.3V607.8z M95.7,607.8h2.2l3.6-8.7h-2.3l-2.4,6.3l-2.4-6.3h-2.4L95.7,607.8z M110.8,603c0-2.3-1.6-4.1-4.3-4.1
	c-2.5,0-4.5,1.9-4.5,4.7c0,2.8,1.9,4.4,4.6,4.4c2.1,0,3.4-0.9,3.9-1.4l-0.9-1.2c-0.4,0.4-1.5,0.9-2.6,0.9c-1.3,0-2.4-0.7-2.6-2.1
	h6.4C110.8,604.2,110.8,603.5,110.8,603z M106.5,600.7c1.6,0,2,1.1,2,2.1h-4.2C104.4,601.6,105.1,600.7,106.5,600.7z"/>
<linearGradient id="SVGID_2_" gradientUnits="userSpaceOnUse" x1="48.9849" y1="455.651" x2="48.9849" y2="110.6" gradientTransform="matrix(1 0 0 -1 0 663.2)">
	<stop  offset="0" style="stop-color:#4186BF"/>
	<stop  offset="1" style="stop-color:#4186BF;stop-opacity:0"/>
</linearGradient>
<path class="st5" d="M47,215.2l-5.6,5.6l-2.8-2.8l9-9l1.4-1.4l1.4,1.4l9,9l-2.8,2.8l-5.5-5.5L51,628h-4L47,215.2z"/>
<linearGradient id="SVGID_3_" gradientUnits="userSpaceOnUse" x1="359" y1="35.426" x2="47" y2="35.426" gradientTransform="matrix(1 0 0 -1 0 663.2)">
	<stop  offset="0" style="stop-color:#D3AD0F"/>
	<stop  offset="1" style="stop-color:#D3AD0F;stop-opacity:0"/>
</linearGradient>
<path class="st6" d="M351.6,626l-5.8-5.8l2.8-2.8l9,9l1.4,1.4l-1.4,1.4l-9,9l-2.8-2.8l5.3-5.3H47v-4H351.6z"/>
<path class="st7" d="M98.7,652h2.4v-4.9h1.6c2.3,0,4.4-1.2,4.4-3.8c0-2.6-2.1-3.7-4.4-3.7h-4V652z M102.4,645.3h-1.4v-3.9h1.3
	c1.2,0,2.3,0.5,2.3,1.9C104.7,644.7,103.7,645.3,102.4,645.3z M116.6,647.2c0-2.3-1.6-4.1-4.3-4.1c-2.5,0-4.5,1.9-4.5,4.7
	c0,2.8,1.9,4.4,4.6,4.4c2.1,0,3.4-0.9,3.9-1.4l-0.9-1.2c-0.4,0.4-1.5,0.9-2.6,0.9c-1.3,0-2.4-0.7-2.6-2.1h6.4
	C116.5,648.4,116.6,647.7,116.6,647.2z M112.2,644.8c1.6,0,2,1.1,2,2.1h-4.2C110.1,645.8,110.9,644.8,112.2,644.8z M118.3,652h2.3
	v-4.3c0-0.7,0.1-1.3,0.3-1.7c0.3-0.6,0.8-0.8,1.5-0.8c0.3,0,0.7,0,1,0.1h0.1l0.2-2c0,0-0.3-0.2-0.9-0.2c-0.9,0-1.8,0.6-2.1,1.6h-0.1
	l0-1.4h-2.3V652z M129.8,645.6l1-1.5c-0.7-0.5-1.6-0.9-3.1-0.9c-1.7,0-3.1,1-3.1,2.6c0,1.3,0.7,2.1,2,2.5l1,0.3
	c1.1,0.4,1.5,0.6,1.5,1.1c0,0.5-0.4,0.8-1.3,0.8c-0.7,0-1.6-0.4-2.6-1.2l-0.9,1.6c0.7,0.8,2.2,1.3,3.5,1.3c2.1,0,3.5-1.2,3.5-2.9
	c0-1.3-0.7-1.9-2.6-2.6l-0.6-0.2c-1-0.3-1.3-0.6-1.3-1c0-0.4,0.4-0.7,1.1-0.7C128.6,644.9,129.3,645.2,129.8,645.6z M137,652.2
	c2.7,0,4.7-1.8,4.7-4.5c0-2.8-2.1-4.6-4.7-4.6c-2.7,0-4.7,1.8-4.7,4.6C132.3,650.4,134.4,652.2,137,652.2z M139.4,647.6
	c0,1.5-0.9,2.7-2.3,2.7c-1.5,0-2.3-1.2-2.3-2.7c0-1.5,0.8-2.6,2.3-2.6C138.5,645,139.4,646.1,139.4,647.6z M149.4,652h2.3v-5.2
	c0-2.1-0.6-3.7-3.1-3.7c-1.3,0-2.1,0.6-2.6,1.5h-0.1l0-1.3h-2.3v8.7h2.3v-4.3c0-1.5,0.5-2.6,1.9-2.6c1.3,0,1.6,1,1.6,2.3V652z
	 M159.1,652h2.2v-5c0-2.7-1.4-3.9-4-3.9c-1.5,0-2.7,0.5-3.4,0.9l0.7,1.5c0.4-0.3,1.3-0.7,2.5-0.7c1.2,0,1.9,0.5,1.9,1.6v0.2
	l-2.1,0.1c-1.8,0.1-3.6,0.8-3.6,2.6c0,1.8,1.4,2.7,3.1,2.7c1.3,0,2.3-0.6,2.7-1.2L159.1,652z M159,648.1v1.6c-0.3,0.4-1,1-1.9,1
	c-1,0-1.5-0.5-1.5-1.2c0-0.7,0.6-1.2,1.8-1.2L159,648.1z M163.6,652h2.3v-12.4h-2.3V652z M169.6,641.9c0.8,0,1.4-0.5,1.4-1.3
	c0-0.7-0.6-1.3-1.4-1.3s-1.4,0.5-1.4,1.3C168.2,641.4,168.8,641.9,169.6,641.9z M168.4,652h2.3v-8.7h-2.3V652z M172.5,652h7.8v-1.8
	h-4.9l4.7-5.5v-1.3h-7.4v1.8h4.5l-4.7,5.5V652z M190.2,647.2c0-2.3-1.6-4.1-4.3-4.1c-2.5,0-4.5,1.9-4.5,4.7c0,2.8,1.9,4.4,4.6,4.4
	c2.1,0,3.4-0.9,3.9-1.4l-0.9-1.2c-0.4,0.4-1.5,0.9-2.6,0.9c-1.3,0-2.4-0.7-2.6-2.1h6.4C190.2,648.4,190.2,647.7,190.2,647.2z
	 M185.9,644.8c1.6,0,2,1.1,2,2.1h-4.2C183.8,645.8,184.6,644.8,185.9,644.8z M198.7,652h2.2v-12.4h-2.3v3.4c0,0.6,0,1.1,0,1.5h0
	c-0.6-0.9-1.6-1.4-2.8-1.4c-2.6,0-4.3,2-4.3,4.5c0,2.6,1.6,4.6,4.1,4.6c1.2,0,2.3-0.5,3-1.6h0.1L198.7,652z M196.3,650.3
	c-1.5,0-2.4-1.2-2.4-2.7c0-1.5,0.9-2.7,2.4-2.7c1.5,0,2.4,1.3,2.4,2.7C198.7,649.3,197.7,650.3,196.3,650.3z M215.5,647.2
	c0-2.3-1.6-4.1-4.3-4.1c-2.5,0-4.5,1.9-4.5,4.7c0,2.8,1.9,4.4,4.6,4.4c2.1,0,3.4-0.9,3.9-1.4l-0.9-1.2c-0.4,0.4-1.5,0.9-2.6,0.9
	c-1.3,0-2.4-0.7-2.6-2.1h6.4C215.4,648.4,215.5,647.7,215.5,647.2z M211.1,644.8c1.6,0,2,1.1,2,2.1H209
	C209.1,645.8,209.8,644.8,211.1,644.8z M223,652h2.3v-5.2c0-2.1-0.6-3.7-3.1-3.7c-1.3,0-2.1,0.6-2.6,1.5h-0.1l0-1.3h-2.3v8.7h2.3
	v-4.3c0-1.5,0.5-2.6,1.9-2.6c1.3,0,1.6,1,1.6,2.3V652z M234.2,650.3v0.4c0,1.9-0.8,2.8-2.8,2.8c-1.1,0-2.5-0.6-3.1-1l-1,1.6
	c0.4,0.3,2,1.3,4,1.3c2.1,0,3.2-0.7,4-1.5c0.7-0.8,1.1-1.9,1.1-3.8v-6.9h-2.3l0,1.2h0c-0.6-0.9-1.6-1.4-2.8-1.4
	c-2.6,0-4.3,2-4.3,4.4c0,2.8,1.9,4.2,4.1,4.2C232.5,651.7,233.6,651.2,234.2,650.3L234.2,650.3z M234.3,647.5c0,1.3-0.8,2.4-2.5,2.4
	c-1.5,0-2.4-1.1-2.4-2.4c0-1.4,0.9-2.5,2.4-2.5S234.3,646.2,234.3,647.5z M244,652h2.2v-5c0-2.7-1.4-3.9-4-3.9
	c-1.5,0-2.7,0.5-3.4,0.9l0.7,1.5c0.4-0.3,1.3-0.7,2.5-0.7c1.2,0,1.9,0.5,1.9,1.6v0.2l-2.1,0.1c-1.8,0.1-3.6,0.8-3.6,2.6
	c0,1.8,1.4,2.7,3.1,2.7c1.3,0,2.3-0.6,2.7-1.2L244,652z M243.9,648.1v1.6c-0.3,0.4-1,1-1.9,1c-1,0-1.5-0.5-1.5-1.2
	c0-0.7,0.6-1.2,1.8-1.2L243.9,648.1z M254.9,650.3v0.4c0,1.9-0.8,2.8-2.8,2.8c-1.1,0-2.5-0.6-3.1-1l-1,1.6c0.4,0.3,2,1.3,4.1,1.3
	c2.1,0,3.2-0.7,4-1.5c0.7-0.8,1.1-1.9,1.1-3.8v-6.9h-2.3l0,1.2h0c-0.6-0.9-1.6-1.4-2.8-1.4c-2.6,0-4.3,2-4.3,4.4
	c0,2.8,1.9,4.2,4.1,4.2C253.3,651.7,254.3,651.2,254.9,650.3L254.9,650.3z M255.1,647.5c0,1.3-0.8,2.4-2.5,2.4
	c-1.5,0-2.4-1.1-2.4-2.4c0-1.4,0.9-2.5,2.4-2.5C254.1,644.9,255.1,646.2,255.1,647.5z M267.9,647.2c0-2.3-1.6-4.1-4.3-4.1
	c-2.5,0-4.5,1.9-4.5,4.7c0,2.8,1.9,4.4,4.6,4.4c2.1,0,3.4-0.9,3.9-1.4l-0.9-1.2c-0.4,0.4-1.5,0.9-2.6,0.9c-1.3,0-2.4-0.7-2.6-2.1
	h6.4C267.9,648.4,267.9,647.7,267.9,647.2z M263.6,644.8c1.6,0,2,1.1,2,2.1h-4.2C261.5,645.8,262.2,644.8,263.6,644.8z M279.9,643.1
	c-1.3,0-2.2,0.6-2.8,1.7c-0.4-1.2-1.2-1.7-2.4-1.7c-1.1,0-2.2,0.7-2.6,1.5H272l0-1.3h-2.3v8.7h2.3v-4.5c0-1.4,0.5-2.5,1.7-2.5
	c1.1,0,1.4,0.9,1.4,2.1v4.9h2.3v-4.5c0-1.5,0.6-2.5,1.7-2.5c1.1,0,1.4,1,1.4,2.1v4.9h2.3v-5.3C282.8,644.7,282.2,643.1,279.9,643.1z
	 M293.4,647.2c0-2.3-1.6-4.1-4.3-4.1c-2.5,0-4.5,1.9-4.5,4.7c0,2.8,1.9,4.4,4.6,4.4c2.1,0,3.4-0.9,3.9-1.4l-0.9-1.2
	c-0.4,0.4-1.5,0.9-2.6,0.9c-1.3,0-2.4-0.7-2.6-2.1h6.4C293.3,648.4,293.4,647.7,293.4,647.2z M289.1,644.8c1.6,0,2,1.1,2,2.1h-4.2
	C287,645.8,287.7,644.8,289.1,644.8z M300.9,652h2.3v-5.2c0-2.1-0.6-3.7-3.1-3.7c-1.3,0-2.1,0.6-2.6,1.5h-0.1l0-1.3h-2.3v8.7h2.3
	v-4.3c0-1.5,0.5-2.6,1.9-2.6c1.3,0,1.6,1,1.6,2.3V652z M308.2,645.1h2v-1.8h-2v-2.5H306v2.5h-1.3v1.8h1.3v4c0,2.3,0.7,3.1,2.5,3.1
	c1,0,1.7-0.3,1.8-0.3l-0.1-1.8c0,0-0.4,0.1-0.8,0.1c-0.8,0-1-0.3-1-1.7V645.1z"/>
<path class="st7" d="M33,491.5v-4c0-3.8-2.2-6.7-6.2-6.7c-4,0-6.2,2.9-6.2,6.7v4H33z M31,487.5v1.7h-8.5v-1.7c0-2.6,1.6-4.2,4.2-4.2
	C29.4,483.3,31,484.9,31,487.5z M22.9,477.6c0-0.8-0.5-1.4-1.3-1.4c-0.7,0-1.3,0.6-1.3,1.4s0.5,1.4,1.3,1.4
	C22.4,479,22.9,478.4,22.9,477.6z M33,478.7v-2.3h-8.7v2.3H33z M31.3,467.4h0.4c1.9,0,2.8,0.8,2.8,2.8c0,1.1-0.6,2.5-1,3.1l1.6,1
	c0.3-0.4,1.3-2,1.3-4c0-2.1-0.7-3.2-1.5-4c-0.8-0.7-1.9-1.1-3.8-1.1h-6.9v2.3l1.2,0v0c-0.9,0.6-1.4,1.6-1.4,2.8c0,2.6,2,4.3,4.4,4.3
	c2.8,0,4.2-1.9,4.2-4.1C32.7,469.1,32.2,468.1,31.3,467.4L31.3,467.4z M28.5,467.3c1.3,0,2.4,0.8,2.4,2.5c0,1.5-1.1,2.4-2.4,2.4
	c-1.4,0-2.5-0.9-2.5-2.4C25.9,468.2,27.2,467.3,28.5,467.3z M22.9,461.5c0-0.8-0.5-1.4-1.3-1.4c-0.7,0-1.3,0.6-1.3,1.4
	s0.5,1.4,1.3,1.4C22.4,462.9,22.9,462.3,22.9,461.5z M33,462.7v-2.3h-8.7v2.3H33z M26.1,455.2v-2h-1.8v2h-2.5v2.3h2.5v1.3h1.8v-1.3
	h4c2.3,0,3.1-0.7,3.1-2.5c0-1-0.3-1.7-0.3-1.8l-1.8,0.1c0,0,0.1,0.4,0.1,0.8c0,0.8-0.3,1-1.7,1H26.1z M33,446.6v-2.2h-5
	c-2.7,0-3.9,1.4-3.9,4c0,1.5,0.5,2.7,0.9,3.4l1.5-0.7c-0.3-0.4-0.7-1.3-0.7-2.5c0-1.2,0.5-1.9,1.6-1.9h0.2l0.1,2.1
	c0.1,1.8,0.8,3.6,2.6,3.6c1.8,0,2.7-1.4,2.7-3.1c0-1.3-0.6-2.3-1.2-2.7L33,446.6z M29.1,446.6h1.6c0.4,0.3,1,1,1,1.9
	c0,1-0.5,1.5-1.2,1.5c-0.7,0-1.2-0.6-1.2-1.8L29.1,446.6z M33,442v-2.3H20.6v2.3H33z M24.3,431.1v2.3h12v-2.3h-3c-0.6,0-1,0-1.4,0
	l0,0c0.9-0.7,1.3-1.5,1.3-2.8c0-2.6-2-4.3-4.5-4.3c-2.6,0-4.6,1.6-4.6,4.1c0,1.2,0.4,2.2,1.4,2.9l0,0L24.3,431.1z M26,428.8
	c0-1.5,1.2-2.4,2.7-2.4c1.5,0,2.7,0.9,2.7,2.4c0,1.5-1.3,2.4-2.7,2.4C27,431.2,26,430.2,26,428.8z M24.3,420v2.3h5.2
	c2.1,0,3.7-0.6,3.7-3.1c0-1.3-0.5-2.2-1.4-2.7l1.2,0v-2.2h-8.7v2.3h4.4c1.5,0,2.6,0.5,2.6,1.9c0,1.3-1,1.5-2.3,1.5H24.3z M33,411.9
	v-2.3h-4.3c-0.7,0-1.3-0.1-1.7-0.3c-0.6-0.3-0.8-0.8-0.8-1.5c0-0.3,0-0.7,0.1-1v-0.1l-2-0.2c0,0-0.2,0.3-0.2,0.9
	c0,0.9,0.6,1.8,1.6,2.1v0.1l-1.4,0v2.3H33z M30.3,398.5c0,0,0.9,0.8,0.9,2.3c0,1.5-1,2.6-2.6,2.6s-2.6-1.1-2.6-2.5
	c0-1.3,0.7-2.1,0.9-2.4l-1.7-0.6c-0.2,0.2-1.1,1.1-1.1,3.3c0,2.3,1.7,4.6,4.6,4.6c2.8,0,4.5-2.2,4.5-4.6c0-2.3-1-3.2-1.2-3.4
	L30.3,398.5z M24.1,391.4c0,1.3,0.6,2.1,1.5,2.6v0h-5v2.3H33V394h-4.3c-1.5,0-2.6-0.5-2.6-1.9c0-1.3,1-1.6,2.3-1.6H33v-2.3h-5.2
	C25.7,388.3,24.1,388.9,24.1,391.4z M33,380.8v-2.2h-5c-2.7,0-3.9,1.4-3.9,4c0,1.5,0.5,2.7,0.9,3.4l1.5-0.7
	c-0.3-0.4-0.7-1.3-0.7-2.5c0-1.2,0.5-1.9,1.6-1.9h0.2l0.1,2.1c0.1,1.8,0.8,3.6,2.6,3.6c1.8,0,2.7-1.4,2.7-3.1c0-1.3-0.6-2.3-1.2-2.7
	L33,380.8z M29.1,380.9h1.6c0.4,0.3,1,1,1,1.9c0,1-0.5,1.5-1.2,1.5c-0.7,0-1.2-0.6-1.2-1.8L29.1,380.9z M26.6,371.4l-1.5-1
	c-0.5,0.7-0.9,1.6-0.9,3.1c0,1.7,1,3.1,2.6,3.1c1.3,0,2.1-0.7,2.5-2l0.3-1c0.4-1.1,0.6-1.5,1.1-1.5c0.5,0,0.8,0.4,0.8,1.3
	c0,0.7-0.4,1.6-1.2,2.6l1.6,0.9c0.8-0.7,1.4-2.2,1.4-3.5c0-2.1-1.2-3.5-2.9-3.5c-1.3,0-1.9,0.7-2.6,2.6l-0.2,0.6
	c-0.3,1-0.6,1.3-1,1.3c-0.4,0-0.7-0.4-0.7-1.1C25.9,372.6,26.2,371.9,26.6,371.4z M22.9,367.2c0-0.8-0.5-1.4-1.3-1.4
	c-0.7,0-1.3,0.6-1.3,1.4s0.5,1.4,1.3,1.4C22.4,368.5,22.9,368,22.9,367.2z M33,368.3V366h-8.7v2.3H33z M33,357.8v-2.3h-5.2
	c-2.1,0-3.7,0.6-3.7,3.1c0,1.3,0.6,2.1,1.5,2.6v0.1l-1.3,0v2.3H33v-2.3h-4.3c-1.5,0-2.6-0.5-2.6-1.9c0-1.3,1-1.6,2.3-1.6H33z
	 M31.3,346.6h0.4c1.9,0,2.8,0.8,2.8,2.8c0,1.1-0.6,2.5-1,3.1l1.6,1c0.3-0.4,1.3-2,1.3-4c0-2.1-0.7-3.2-1.5-4
	c-0.8-0.7-1.9-1.1-3.8-1.1h-6.9v2.3l1.2,0v0c-0.9,0.6-1.4,1.6-1.4,2.8c0,2.6,2,4.3,4.4,4.3c2.8,0,4.2-1.9,4.2-4.1
	C32.7,348.3,32.2,347.2,31.3,346.6L31.3,346.6z M28.5,346.5c1.3,0,2.4,0.8,2.4,2.5c0,1.5-1.1,2.4-2.4,2.4c-1.4,0-2.5-0.9-2.5-2.4
	C25.9,347.4,27.2,346.5,28.5,346.5z"/>
<rect x="50" y="209" class="st1" width="308" height="418"/>
<path class="st8" d="M47,215.2l-5.6,5.6l-2.8-2.8l9-9l1.4-1.4l1.4,1.4l9,9l-2.8,2.8l-5.5-5.5L51,628h-4L47,215.2z"/>
<path class="st9" d="M351.6,626l-5.8-5.8l2.8-2.8l9,9l1.4,1.4l-1.4,1.4l-9,9l-2.8-2.8l5.3-5.3H47v-4H351.6z"/>
</svg>
