<?xml version="1.0" encoding="utf-8"?>
<!-- Generator: Adobe Illustrator 25.1.0, SVG Export Plug-In . SVG Version: 6.00 Build 0)  -->
<svg version="1.1" id="Layer_1" xmlns="http://www.w3.org/2000/svg" xmlns:xlink="http://www.w3.org/1999/xlink" x="0px" y="0px"
	 viewBox="0 0 375 665" style="enable-background:new 0 0 375 665;" xml:space="preserve">
<style type="text/css">
	.st0{fill:#071520;}
	.st1{fill:none;stroke:#143F63;stroke-width:2;}
	.st2{fill-rule:evenodd;clip-rule:evenodd;fill:url(#SVGID_1_);}
</style>
<rect y="0" class="st0" width="375" height="665"/>
<path class="st1" d="M86.6,208v420"/>
<path class="st1" d="M125.8,208v420"/>
<path class="st1" d="M165.1,208v420"/>
<path class="st1" d="M204.3,208v420"/>
<path class="st1" d="M243.5,208v420"/>
<path class="st1" d="M282.7,208v420"/>
<path class="st1" d="M321.9,208v420"/>
<path class="st1" d="M359,267.8H50"/>
<path class="st1" d="M359,328.1H50"/>
<path class="st1" d="M359,388.4H50"/>
<path class="st1" d="M359,448.7H50"/>
<path class="st1" d="M359,509H50"/>
<path class="st1" d="M359,569.3H50"/>
<rect x="50" y="209" class="st1" width="308" height="418"/>
<linearGradient id="SVGID_1_" gradientUnits="userSpaceOnUse" x1="48.9849" y1="455.651" x2="48.9849" y2="110.517" gradientTransform="matrix(1 0 0 -1 0 663.2)">
	<stop  offset="0" style="stop-color:#4186BF"/>
	<stop  offset="1" style="stop-color:#4186BF;stop-opacity:0"/>
</linearGradient>
<path class="st2" d="M47,215.2l-5.6,5.6l-2.8-2.8l9-9l1.4-1.4l1.4,1.4l9,9l-2.8,2.8l-5.5-5.5V551h-4V215.2z"/>
</svg>
