<?xml version="1.0" encoding="utf-8"?>
<!-- Generator: Adobe Illustrator 25.1.0, SVG Export Plug-In . SVG Version: 6.00 Build 0)  -->
<svg version="1.1" id="Layer_1" xmlns="http://www.w3.org/2000/svg" xmlns:xlink="http://www.w3.org/1999/xlink" x="0px" y="0px"
	 viewBox="0 0 375 665" style="enable-background:new 0 0 375 665;" xml:space="preserve">
<style type="text/css">
	.st0{fill:#071520;}
	.st1{fill:none;stroke:#143F63;stroke-width:2;}
	.st2{opacity:0.4;fill:#FFFFFF;enable-background:new    ;}
	.st3{fill:#FFFFFF;}
	.st4{clip-path:url(#SVGID_2_);}
	.st5{fill-rule:evenodd;clip-rule:evenodd;fill:url(#SVGID_3_);}
	.st6{fill-rule:evenodd;clip-rule:evenodd;fill:url(#SVGID_4_);}
	.st7{fill:#676E73;}
	.st8{fill-rule:evenodd;clip-rule:evenodd;fill:#71A4CF;}
	.st9{fill-rule:evenodd;clip-rule:evenodd;fill:#D3AD0F;}
</style>
<rect y="0" class="st0" width="375" height="665"/>
<path class="st1" d="M86.6,208v420"/>
<path class="st1" d="M125.8,208v420"/>
<path class="st1" d="M165.1,208v420"/>
<path class="st1" d="M204.3,208v420"/>
<path class="st1" d="M243.5,208v420"/>
<path class="st1" d="M282.7,208v420"/>
<path class="st1" d="M321.9,208v420"/>
<path class="st1" d="M359,267.8H50"/>
<path class="st1" d="M359,328.1H50"/>
<path class="st1" d="M359,388.4H50"/>
<path class="st1" d="M359,448.7H50"/>
<path class="st1" d="M359,509H50"/>
<path class="st1" d="M359,569.3H50"/>
<path class="st2" d="M278.6,239.8h4c3.8,0,6.7-2.2,6.7-6.2c0-4-2.9-6.2-6.7-6.2h-4V239.8z M282.7,237.8h-1.7v-8.5h1.7
	c2.6,0,4.2,1.6,4.2,4.2C286.9,236.2,285.3,237.8,282.7,237.8z M292.3,229.7c0.8,0,1.4-0.5,1.4-1.3c0-0.7-0.6-1.3-1.4-1.3
	s-1.4,0.5-1.4,1.3C290.9,229.2,291.5,229.7,292.3,229.7z M291.2,239.8h2.3v-8.7h-2.3V239.8z M302.2,238.2v0.4c0,1.9-0.8,2.8-2.8,2.8
	c-1.1,0-2.5-0.6-3.1-1l-1,1.6c0.4,0.3,2,1.3,4,1.3c2.1,0,3.2-0.7,4-1.5c0.7-0.8,1.1-1.9,1.1-3.8v-6.9h-2.3l0,1.2h0
	c-0.6-0.9-1.6-1.4-2.8-1.4c-2.6,0-4.3,2-4.3,4.4c0,2.8,1.9,4.2,4.1,4.2C300.5,239.5,301.6,239.1,302.2,238.2L302.2,238.2z
	 M302.3,235.3c0,1.3-0.8,2.4-2.5,2.4c-1.5,0-2.4-1.1-2.4-2.4c0-1.4,0.9-2.5,2.4-2.5C301.4,232.8,302.3,234,302.3,235.3z
	 M307.9,229.7c0.8,0,1.4-0.5,1.4-1.3c0-0.7-0.6-1.3-1.4-1.3s-1.4,0.5-1.4,1.3C306.5,229.2,307.1,229.7,307.9,229.7z M306.7,239.8
	h2.3v-8.7h-2.3V239.8z M313.9,232.9h2v-1.8h-2v-2.5h-2.3v2.5h-1.3v1.8h1.3v4c0,2.3,0.7,3.1,2.5,3.1c1,0,1.7-0.3,1.8-0.3l-0.1-1.8
	c0,0-0.4,0.1-0.8,0.1c-0.8,0-1-0.3-1-1.7V232.9z M322.3,239.8h2.2v-5c0-2.7-1.4-3.9-4-3.9c-1.5,0-2.7,0.5-3.4,0.9l0.7,1.5
	c0.4-0.3,1.3-0.7,2.5-0.7c1.2,0,1.9,0.5,1.9,1.6v0.2l-2.1,0.1c-1.8,0.1-3.6,0.8-3.6,2.6c0,1.8,1.4,2.7,3.1,2.7
	c1.3,0,2.3-0.6,2.7-1.2L322.3,239.8z M322.3,235.9v1.6c-0.3,0.4-1,1-1.9,1c-1,0-1.5-0.5-1.5-1.2c0-0.7,0.6-1.2,1.8-1.2L322.3,235.9z
	 M326.6,239.8h2.3v-12.4h-2.3V239.8z M331.2,239.8h2.3v-12.4h-2.3V239.8z M338.2,239.9l-0.4,0.9c-0.2,0.4-0.6,0.6-1,0.6
	c-0.4,0-1-0.2-1-0.2l-0.5,1.8c0,0,0.8,0.4,2.1,0.4c1.2,0,1.9-0.7,2.6-2.3l4-9.9h-2.4l-2.3,6.2l-2.3-6.2h-2.4L338.2,239.9z
	 M305,251.4l1-1.5c-0.7-0.5-1.6-0.9-3.1-0.9c-1.7,0-3.1,1-3.1,2.6c0,1.3,0.7,2.1,2,2.5l1,0.3c1.1,0.4,1.5,0.6,1.5,1.1
	c0,0.5-0.4,0.8-1.3,0.8c-0.7,0-1.6-0.4-2.6-1.2l-0.9,1.6c0.7,0.8,2.2,1.4,3.5,1.4c2.1,0,3.5-1.2,3.5-2.9c0-1.3-0.7-1.9-2.6-2.6
	l-0.6-0.2c-1-0.3-1.3-0.6-1.3-1c0-0.4,0.4-0.7,1.1-0.7C303.8,250.7,304.5,251,305,251.4z M312.9,257.8h2.2v-5c0-2.7-1.4-3.9-4-3.9
	c-1.5,0-2.7,0.5-3.4,0.9l0.7,1.5c0.4-0.3,1.3-0.7,2.5-0.7c1.2,0,1.9,0.5,1.9,1.6v0.2l-2.1,0.1c-1.8,0.1-3.6,0.8-3.6,2.6
	c0,1.8,1.4,2.7,3.1,2.7c1.3,0,2.3-0.6,2.7-1.2L312.9,257.8z M312.9,253.9v1.6c-0.3,0.4-1,1-1.9,1c-1,0-1.5-0.5-1.5-1.2
	c0-0.7,0.6-1.2,1.8-1.2L312.9,253.9z M319.4,257.8h2.2l3.6-8.7h-2.3l-2.4,6.3l-2.4-6.3h-2.4L319.4,257.8z M328.8,257.8h2.2l3.6-8.7
	h-2.3l-2.4,6.3l-2.4-6.3h-2.4L328.8,257.8z M338.2,257.9l-0.4,0.9c-0.2,0.5-0.6,0.6-1,0.6c-0.4,0-1-0.2-1-0.2l-0.5,1.8
	c0,0,0.8,0.4,2.1,0.4c1.2,0,1.9-0.7,2.6-2.3l4-9.9h-2.4l-2.3,6.2l-2.3-6.2h-2.4L338.2,257.9z"/>
<path class="st2" d="M69.3,589.8h4c3.8,0,6.7-2.2,6.7-6.2c0-4-2.9-6.2-6.7-6.2h-4V589.8z M73.4,587.8h-1.7v-8.5h1.7
	c2.6,0,4.2,1.6,4.2,4.2C77.6,586.2,76,587.8,73.4,587.8z M83.1,579.7c0.8,0,1.4-0.5,1.4-1.3c0-0.7-0.6-1.3-1.4-1.3s-1.4,0.5-1.4,1.3
	C81.7,579.2,82.3,579.7,83.1,579.7z M81.9,589.8h2.3v-8.7h-2.3V589.8z M92.9,588.2v0.4c0,1.9-0.8,2.8-2.8,2.8c-1.1,0-2.5-0.6-3.1-1
	l-1,1.6c0.4,0.3,2,1.3,4.1,1.3c2.1,0,3.2-0.7,4-1.5c0.7-0.8,1.1-1.9,1.1-3.8v-6.9h-2.3l0,1.2h0c-0.6-0.9-1.6-1.4-2.8-1.4
	c-2.6,0-4.3,2-4.3,4.4c0,2.8,1.9,4.2,4.1,4.2C91.3,589.5,92.3,589.1,92.9,588.2L92.9,588.2z M93.1,585.3c0,1.3-0.8,2.4-2.5,2.4
	c-1.5,0-2.4-1.1-2.4-2.4c0-1.4,0.9-2.5,2.4-2.5C92.1,582.8,93.1,584,93.1,585.3z M98.6,579.7c0.8,0,1.4-0.5,1.4-1.3
	c0-0.7-0.6-1.3-1.4-1.3c-0.8,0-1.4,0.5-1.4,1.3C97.2,579.2,97.8,579.7,98.6,579.7z M97.5,589.8h2.3v-8.7h-2.3V589.8z M104.7,582.9h2
	v-1.8h-2v-2.5h-2.3v2.5h-1.3v1.8h1.3v4c0,2.3,0.7,3.1,2.5,3.1c1,0,1.7-0.3,1.8-0.3l-0.1-1.8c0,0-0.4,0.1-0.8,0.1c-0.8,0-1-0.3-1-1.7
	V582.9z M113.1,589.8h2.2v-5c0-2.7-1.4-3.9-4-3.9c-1.5,0-2.7,0.5-3.4,0.9l0.7,1.5c0.4-0.3,1.3-0.7,2.5-0.7c1.2,0,1.9,0.5,1.9,1.6
	v0.2l-2.1,0.1c-1.8,0.1-3.6,0.8-3.6,2.6s1.4,2.7,3.1,2.7c1.3,0,2.3-0.6,2.7-1.2L113.1,589.8z M113,585.9v1.6c-0.3,0.4-1,1-1.9,1
	c-1,0-1.5-0.5-1.5-1.2c0-0.7,0.6-1.2,1.8-1.2L113,585.9z M117.4,589.8h2.3v-12.4h-2.3V589.8z M121.9,589.8h2.3v-12.4h-2.3V589.8z
	 M128.9,589.9l-0.4,0.9c-0.2,0.5-0.6,0.6-1,0.6c-0.4,0-1-0.2-1-0.2l-0.5,1.8c0,0,0.8,0.4,2.1,0.4c1.2,0,1.9-0.7,2.6-2.3l4.1-9.9
	h-2.4l-2.3,6.2l-2.3-6.2h-2.4L128.9,589.9z M74.9,607.8h2.3v-5.2c0-2.1-0.6-3.7-3.1-3.7c-1.3,0-2.1,0.6-2.6,1.5h-0.1l0-1.3h-2.3v8.7
	h2.3v-4.3c0-1.5,0.5-2.6,1.9-2.6c1.3,0,1.6,1,1.6,2.3V607.8z M84.4,607.8h2.2v-5c0-2.7-1.4-3.9-4-3.9c-1.5,0-2.7,0.5-3.4,0.9
	l0.7,1.5c0.4-0.3,1.3-0.7,2.5-0.7c1.2,0,1.9,0.5,1.9,1.6v0.2l-2.1,0.1c-1.8,0.1-3.6,0.8-3.6,2.6s1.4,2.7,3.1,2.7
	c1.3,0,2.3-0.6,2.7-1.2L84.4,607.8z M84.3,603.9v1.6c-0.3,0.4-1,1-1.9,1c-1,0-1.5-0.5-1.5-1.2c0-0.7,0.6-1.2,1.8-1.2L84.3,603.9z
	 M89.8,597.7c0.8,0,1.4-0.5,1.4-1.3c0-0.7-0.6-1.3-1.4-1.3s-1.4,0.5-1.4,1.3C88.4,597.2,89,597.7,89.8,597.7z M88.7,607.8H91v-8.7
	h-2.3V607.8z M95.7,607.8h2.2l3.6-8.7h-2.3l-2.4,6.3l-2.4-6.3h-2.4L95.7,607.8z M110.8,603c0-2.3-1.6-4.1-4.3-4.1
	c-2.5,0-4.5,1.9-4.5,4.7c0,2.8,1.9,4.4,4.6,4.4c2.1,0,3.4-0.9,3.9-1.4l-0.9-1.2c-0.4,0.4-1.5,0.9-2.6,0.9c-1.3,0-2.4-0.7-2.6-2.1
	h6.4C110.8,604.2,110.8,603.5,110.8,603z M106.5,600.7c1.6,0,2,1.1,2,2.1h-4.2C104.4,601.6,105.1,600.7,106.5,600.7z"/>
<path class="st3" d="M236.7,355c0-12-9.7-21.7-21.7-21.7s-21.7,9.7-21.7,21.7c0,12,9.7,21.7,21.7,21.7S236.7,367,236.7,355z
	 M215,375.1c-11.1,0-20.1-9-20.1-20.1c0-11.1,9-20.1,20.1-20.1s20.1,9,20.1,20.1C235.1,366.1,226.1,375.1,215,375.1z"/>
<path class="st3" d="M187.2,348c0.5,0.3,1.1,0.4,1.6,0.4c0.6,0,1.1,0,1.6-0.2c0.5-0.1,1-0.4,1.4-0.8c0.4-0.4,0.8-0.9,1-1.4
	c0.2-0.4,0.3-0.7,0.4-1c0-0.3,0.1-0.6,0.1-0.9c0-0.3,0-0.6-0.1-0.9l-0.3-0.9l-1.6,0.5c0.1,0.4,0.2,0.8,0.2,1.2
	c0,0.4-0.1,0.8-0.3,1.2c-0.2,0.3-0.4,0.6-0.6,0.8c-0.2,0.2-0.5,0.3-0.8,0.4c-0.3,0.1-0.6,0.1-1,0.1c-0.3,0-0.7-0.1-1-0.2
	c-0.3-0.1-0.6-0.3-0.8-0.6c-0.2-0.2-0.4-0.5-0.5-0.8c-0.1-0.3-0.2-0.6-0.2-0.9s0.1-0.7,0.2-1c0.2-0.4,0.4-0.7,0.7-0.9
	c0.3-0.2,0.7-0.4,1.1-0.6l-0.7-1.6c-0.2,0.1-0.5,0.2-0.7,0.3c-0.2,0.1-0.5,0.3-0.7,0.5c-0.2,0.2-0.4,0.4-0.6,0.7
	c-0.2,0.3-0.4,0.6-0.5,0.9c-0.3,0.6-0.4,1.2-0.4,1.7c0,0.5,0,1.1,0.2,1.6c0.2,0.5,0.5,1,0.9,1.3C186.2,347.4,186.7,347.7,187.2,348z
	"/>
<path class="st3" d="M196.4,339.6l-2.2-2.1l2.7-2.6l2.3,2.1l0.9-1.2l-5.8-5.7l-1.1,1.1l2.7,2.8l-2.6,2.7l-2.7-2.7l-1.2,1.3l6,5.8
	L196.4,339.6z"/>
<path class="st3" d="M204.4,333.2l-3.9-7.3l-1.4,0.8l3.9,7.3L204.4,333.2z"/>
<path class="st3" d="M208.6,331.7l-0.5-2.5l1.7-0.3c0.5-0.1,0.9-0.2,1.3-0.4c0.4-0.2,0.8-0.4,1-0.7c0.2-0.3,0.4-0.6,0.5-1
	c0.1-0.4,0.1-0.8,0-1.2c-0.1-0.4-0.2-0.8-0.5-1.1c-0.2-0.3-0.5-0.6-0.8-0.8c-0.3-0.2-0.7-0.3-1.2-0.4c-0.4,0-0.9,0-1.4,0l-3.4,0.7
	l1.7,8L208.6,331.7z M209,324.9c0.4-0.1,0.9,0,1.2,0.1c0.3,0.1,0.5,0.4,0.6,0.8c0.1,0.3,0,0.6-0.2,0.9c-0.2,0.3-0.6,0.5-1.1,0.6
	l-1.5,0.3l-0.5-2.4L209,324.9z"/>
<path class="st3" d="M216.5,329.4c0.3,0.5,0.7,0.9,1.2,1.2c0.5,0.4,1.1,0.6,1.7,0.8c0.7,0.2,1.3,0.2,1.9,0.1c0.6,0,1.1-0.2,1.6-0.5
	c0.5-0.3,0.9-0.7,1.2-1.1c0.3-0.4,0.6-1,0.7-1.6c0.1-0.6,0.1-1.1,0-1.7c-0.1-0.6-0.3-1.1-0.6-1.6c-0.3-0.5-0.7-0.9-1.2-1.2
	c-0.5-0.4-1.1-0.6-1.7-0.8c-0.7-0.2-1.3-0.2-1.9-0.1c-0.6,0-1.1,0.2-1.6,0.5c-0.5,0.3-0.9,0.7-1.2,1.1c-0.3,0.5-0.6,1-0.7,1.6
	c-0.1,0.6-0.1,1.1,0,1.7C216,328.4,216.2,329,216.5,329.4z M217.9,326.6c0-0.4,0.2-0.7,0.4-1c0.2-0.3,0.4-0.5,0.7-0.7
	c0.3-0.2,0.6-0.3,0.9-0.3c0.3,0,0.7,0,1.1,0c0.4,0.1,0.7,0.3,1,0.5c0.3,0.2,0.5,0.5,0.7,0.8c0.2,0.3,0.3,0.6,0.3,1
	c0,0.3,0,0.7,0,1.1c0,0.4-0.2,0.7-0.4,1c-0.2,0.3-0.4,0.5-0.7,0.7c-0.3,0.1-0.6,0.3-0.9,0.3c-0.3,0-0.7,0-1.1,0
	c-0.4-0.1-0.7-0.2-1-0.5c-0.3-0.2-0.5-0.5-0.7-0.8c-0.2-0.3-0.3-0.6-0.3-1C217.8,327.3,217.8,326.9,217.9,326.6z"/>
<path class="st3" d="M228.5,334.7l3.6-5.8l2.1,1.3l0.8-1.2l-6-3.6l-0.8,1.2l2.5,1.5l-3.5,5.8L228.5,334.7z"/>
<path class="st3" d="M235.8,341.9l1.3-1l-2.9-3.3l5.2-4.4l-1.1-1.3l-6.2,5.5L235.8,341.9z"/>
<path class="st3" d="M244.6,340.7l-7.8,2.9l2.3,5.8l1.4-0.5l-1.8-4.3l1.5-0.6l1.3,3.3l1.4-0.5l-1.3-3.3l2.2-0.9l1.7,4.1l1.3-0.5
	L244.6,340.7z"/>
<path class="st3" d="M186.1,356.1c0.3,0.1,0.6,0.1,0.9,0c0.3-0.1,0.4-0.4,0.4-0.7s-0.1-0.6-0.4-0.7c-0.3-0.1-0.6-0.1-0.9,0
	c-0.3,0.1-0.4,0.4-0.4,0.7C185.6,355.7,185.8,356,186.1,356.1z"/>
<path class="st3" d="M244.2,356.1c0.3-0.1,0.4-0.4,0.4-0.7s-0.1-0.6-0.4-0.7c-0.3-0.1-0.6-0.1-0.9,0c-0.3,0.1-0.4,0.4-0.4,0.7
	s0.1,0.6,0.4,0.7C243.6,356.3,243.9,356.3,244.2,356.1z"/>
<path class="st3" d="M191.3,365.3l-2.3-0.4l1.4-1.8l-0.4-1l-4.2,1.6l0.3,0.9l2.8-1.1l-1.4,1.9v0l2.3,0.5L187,367l0.3,1l4.3-1.6
	L191.3,365.3z"/>
<path class="st3" d="M192.4,372.7l0.8-0.5l-1.2-1.8l0.8-0.5l1.4,2.1l0.8-0.5l-2-2.9L189,371l2,2.9l0.8-0.5l-1.4-2.1l0.8-0.5
	L192.4,372.7z"/>
<path class="st3" d="M198.4,375l-1.7,0.4l0.3-1.8l-0.9-0.8l-0.4,2.7l-2.7,0.7l0.9,0.8l1.8-0.5l-0.3,1.9l0.9,0.8l0.4-2.8l2.6-0.6
	L198.4,375z"/>
<path class="st3" d="M198.7,381.1l0.9,0.5l2.4-3.9l-0.9-0.5L198.7,381.1z"/>
<path class="st3" d="M207.3,380.1l-0.4-0.3c-0.1-0.1-0.3-0.2-0.5-0.2c-0.4-0.1-0.7-0.1-1-0.1c-0.3,0-0.6,0.1-0.9,0.2
	c-0.3,0.1-0.5,0.3-0.7,0.6c-0.2,0.2-0.4,0.5-0.5,0.8c-0.1,0.3-0.1,0.6-0.1,1c0,0.3,0.1,0.6,0.2,0.9c0.1,0.3,0.3,0.5,0.5,0.7
	c0.2,0.2,0.5,0.4,0.8,0.5c0.2,0.1,0.4,0.1,0.5,0.1h0.5c0.1,0,0.3,0,0.5-0.1c0.2,0,0.3-0.1,0.5-0.2l-0.4-0.8
	c-0.2,0.1-0.4,0.1-0.6,0.2c-0.2,0-0.4,0-0.7-0.1c-0.2,0-0.3-0.1-0.5-0.3c-0.1-0.1-0.2-0.3-0.3-0.4c0-0.1-0.1-0.3-0.1-0.5
	c0-0.2,0-0.4,0.1-0.6c0.1-0.2,0.1-0.3,0.3-0.5c0.1-0.1,0.3-0.2,0.4-0.3c0.2-0.1,0.3-0.1,0.5-0.1c0.1,0,0.3,0,0.5,0
	c0.2,0.1,0.4,0.2,0.5,0.3c0.1,0.1,0.3,0.3,0.4,0.5l0.9-0.5c-0.1-0.1-0.1-0.2-0.2-0.4C207.5,380.3,207.4,380.2,207.3,380.1z"/>
<path class="st3" d="M211.7,380.9l-2.5,4.3l1,0.1l0.5-1l1.9,0.2l0.3,1.1l1.1,0.1l-1.4-4.8L211.7,380.9z M212.5,383.7l-1.2-0.1
	l0.8-1.4L212.5,383.7z"/>
<path class="st3" d="M219.7,380.9l0.3,2.8l-2.4-2.6l-0.9,0.1l0.5,4.6l1-0.1l-0.3-2.9l2.5,2.7l0.9-0.1l-0.5-4.6L219.7,380.9z"/>
<path class="st3" d="M227.3,380.6l0.3,0.7l0.9-0.4l0.3,0.6c-0.2,0.2-0.4,0.5-0.8,0.6c-0.2,0.1-0.4,0.1-0.6,0.1c-0.2,0-0.3,0-0.5-0.1
	c-0.1,0-0.3-0.1-0.4-0.3c-0.1-0.1-0.2-0.3-0.3-0.5c-0.1-0.1-0.1-0.3-0.1-0.5c0-0.2,0-0.4,0.1-0.5c0-0.1,0.1-0.3,0.2-0.4
	c0.1-0.1,0.2-0.2,0.4-0.3c0.1,0,0.2,0,0.3-0.1c0.1,0,0.2,0,0.3,0h0.3c0.1,0,0.2,0,0.3,0.1l0.3-1c-0.1,0-0.3-0.1-0.4-0.1h-0.4
	c-0.1,0-0.3,0-0.5,0.1c-0.1,0-0.3,0.1-0.5,0.2c-0.3,0.1-0.6,0.3-0.8,0.6c-0.2,0.2-0.4,0.5-0.5,0.8c-0.1,0.3-0.1,0.6-0.1,0.9
	c0,0.3,0,0.6,0.2,0.9c0.1,0.3,0.3,0.6,0.5,0.8c0.2,0.2,0.5,0.4,0.8,0.5c0.3,0.1,0.6,0.1,0.9,0.1c0.3,0,0.6-0.1,1-0.2
	c0.4-0.2,0.7-0.4,1-0.7c0.2-0.2,0.4-0.5,0.6-0.8l-0.8-1.8L227.3,380.6z"/>
<path class="st3" d="M234.5,376.5c0-0.3-0.1-0.6-0.3-0.9c-0.3-0.3-0.6-0.5-1-0.6c-0.4,0-0.9,0.1-1.3,0.5l-1.7,1.3l2.8,3.6l0.8-0.7
	l-0.9-1.2l0.6-0.5l1.7,0.6l1-0.7l-1.9-0.6C234.4,377,234.5,376.7,234.5,376.5z M233.2,377.3l-0.8,0.6l-0.8-1.1l0.8-0.5
	c0.2-0.1,0.4-0.2,0.6-0.2c0.2,0,0.3,0,0.5,0.2c0.1,0.1,0.1,0.3,0.1,0.5S233.4,377.1,233.2,377.3z"/>
<path class="st3" d="M234.9,372.7l3.5,3l0.7-0.8l-3.5-3L234.9,372.7z"/>
<path class="st3" d="M240.9,370.8l-3.2-1.9l-0.5,0.9l4,2.4l1.7-2.9l-0.8-0.5L240.9,370.8z"/>
<path class="st3" d="M243.5,365.2L240,364l-0.3,1l4.4,1.4l1.1-3.2l-0.9-0.3L243.5,365.2z"/>
<path class="st3" d="M216.8,351.3c-0.2-0.2-0.2-0.4-0.4-0.6c-0.2-0.2-0.5-0.4-0.8-0.3c-0.3,0.1-0.3,0.4-0.7,0.4h-0.8
	c-0.4,0-0.9-0.1-1.4-0.2c-0.3,0-1-0.2-1.2-0.4c-0.2-0.1-0.6,0-1,0c-1.6,0.3-3.2-0.2-3.3,1.6c-0.1,0.8-0.4,1.5-0.4,2.3
	c0,1.1,0,2.2,0,3.3c0,0.4,0.1,0.8,0.2,1.2c0.2,0.5,0.5,1,0.8,1.5c0.9,1.2,1.6,2.2,2.3,3c0.4,0.3,0.2-0.1,0.7,0.3
	c0-0.2-0.2-0.7-0.4-0.9c-0.1-0.1-0.3-0.4-0.4-0.7c-0.2-0.4-0.5-0.7-0.6-1.1c-0.2-0.7-0.5-1.5-0.9-2.2c0-0.4-0.2-0.9-0.3-1.3
	c0-0.3,0-0.6,0-0.9c0-0.3,0-0.6,0-1V354c0-0.4,0.2-0.7,0.2-1.1c0-0.3,0.5-0.7,0.6-0.9c1.1-0.2,2-0.6,3.2-0.7c1.6,0,1.7,0.2,2.4,0.3
	c0.7,0.1,1.1,0.6,1.6,1c0.3,0.1-0.1,0.6-0.2,0.9c0,0.2-0.2,0.4-0.3,0.6c-0.3,0.7-0.8,1.2-1,2c-0.3,0.6-0.4,0.8-0.7,1.5
	c-0.1,0.2-0.2,0.6-0.3,0.8c-0.1,0.2,0,1.2,0,1.4c0.1,0.3,0,0.7,0.2,1c0,0.1,0,0.2,0.1,0.3c0,0.2,0.1,0.5,0.2,0.7
	c0.2,0.9,0.5,1.6,0.9,2.2c0.2,0.5,0.5,0.7-0.1,0.5c-0.2,0-0.2-0.1-0.4-0.3c-0.1-0.1-0.3-0.2-0.5-0.4c-0.2-0.1-0.3-0.3-0.4-0.5
	c-0.3-0.3-0.3-0.6-0.7-0.9c-0.2-0.9-0.9-1.9-1.4-2.8c-0.2-0.4-0.4-0.7-0.6-1.1c-0.1-0.3-0.3-0.4-0.4-0.7c-0.1-0.4,0-1,0-1.4
	c-0.1-0.7-0.1-1.2,0.1-1.9c0-1,0.8-0.8,1.4-0.7c0.4,0,0.6,0,0.9,0.2c0.6,0.5,0.3,0.4,0.3,1.1c0,0.3,0,0.7-0.2,1
	c-0.2,0.3-0.3,0.7-0.5,1.1c0,0,0-0.5,0-0.7c0-0.3-0.3-0.6-0.6-0.5c-0.4,0.1-0.4,0.3-0.6,0.7c-0.1,0.2,0.1,0.7,0.1,1
	c0.1,0.7,0.7,1.1,1.3,0.9c0.2-0.2,0.4-0.5,0.4-0.7c0-0.3,0.2-0.7,0.3-1c0.1-0.4,0.3-0.8,0.5-1.1c0.2-0.6,0.6-1.2,0.2-1.9
	c-0.2-0.6-0.5-1-1.1-1.2c-0.2,0-1,0-1.2,0c-0.8,0-1.3,0.2-2.1,0.4c-0.2,0-0.2,0.4-0.3,0.6c-0.1,0.3-0.1,0.7-0.2,1.1
	c-0.1,0.4,0,1-0.1,1.4c-0.1,0.3-0.1,1,0,1.3c0.2,0.4,0.2,0.8,0.5,1.2c0.5,0.6,0.6,1.3,1.1,1.9c0.3,0.4,0.4,0.8,0.6,1.2
	c0,0,0,0.1,0.1,0.2c0.2,0.5,0.8,1.1,1.1,1.6c0.2,0.3,0.5,0.8,0.8,1c0.3,0.2,0.5,0.5,0.8,0.8c1.5,1,2.5,1.1,3.1,0.7
	c0.2-0.2-0.3-0.6-0.4-0.7c-0.4-0.4-0.8-1.1-1-1.7c-0.1-0.5-0.4-1-0.6-1.4c-0.2-0.7-0.5-1.5-0.5-2.2c0-0.4,0-0.7,0-1.2
	c0.1-1,1-1.8,1.1-2.5c0.2-0.3,0.4-0.5,0.5-0.9c0.7-0.6,1.2-1.6,1.5-2.5c0-0.2-0.3-0.6-0.4-0.8C217.4,351.7,217,351.5,216.8,351.3z"
	/>
<path class="st3" d="M222.3,340.2c-0.7,0-3.4,0.3-3.7,0.5c-2,1.5-4,3.1-5.7,4.7c-0.5,0-1.1-0.2-1.6-0.3c-0.5-0.2-1.3-0.4-1.8-0.5
	c-0.3,0.1-0.7,0.2-1,0.5c-0.1,0.1-0.8,0.4-0.6,0.5c0.6-0.1,1.2-0.2,1.8,0.1c0.4,0.1,0.6,0.4,0.9,0.7l-0.1,0c-0.1,0-0.1,0-0.2,0
	c-0.8,0.2-2.3,0-3,0.5c-1.1,0.6-1.8,1.7-2.6,2.5c-0.2,0.1-0.1,0.7-0.2,1c-0.2,0.5-0.1,1-0.3,1.5c-0.2,0.5-0.2,1.3-0.2,1.9
	c0,0.9,0,1.7,0,2.6c0,0.6,0.1,1.8,0.3,2.3c0,1.6,3.7,5.4,5.8,9.1c0.3,0.6,0.5,0.6,1.1,0.7c0.1,0,0.2,0,0.3,0c0.8,0.1,1.2,0.5,2,0.5
	c0.4,0,0.8,0.2,1.2,0.3c0.4,0.1,1,0,1.4,0c0.7,0,1.4,0,2.1,0c0.4,0,0.7,0.1,1.1,0c0.3-0.1,0.8,0,1.1,0c0.3,0,0.8-0.1,1.2-0.1
	c0.2,0,0.7-0.6,0.9-0.7c0.5-0.2,0.8-0.8,1.1-1.3c0.2-0.3,0.4-0.7,0.5-1.1c0.1-0.4,0-0.8-0.4-0.9c-0.3-0.1-0.4-0.3-0.8-0.3
	c-0.3-0.1-0.5-0.1-0.8-0.3c-0.4-0.3-1-0.7-1.4-1.1c-0.4-0.3-1-0.7-1.5-1c-0.3-0.2-0.4-0.4-0.7-0.3c-0.3,0-0.5-0.8-0.3-1.4
	c0.1-0.5-0.1-0.6-0.2-0.9c-0.3-0.8-0.7-0.4,0.1-1.1c0.5-0.4,1-1.5,1.3-2.1c0.5-0.8,1.3-1.7,1.3-2.5c0.3-0.4,0.6-1.4,0.4-2
	c0-0.6-0.7-1.7-1.2-2.6c-0.6-0.4-0.8-1.2-1.2-1.8c0.3-0.1,0.5-0.1,0.6-0.2c0.4-0.2,0.4-0.6,0.4-0.7c0,0,0-0.1,0-0.1
	c-0.1-0.1-0.5,0-0.8,0c-1.3-0.1-1.2,0.1-1.6-0.8c-0.1-0.8,0.4-1.5,0.3-2.2c0.8-0.8,0.9-0.8,1.4-1.3c0.2-0.2,0.6-0.3,0.9-0.5
	c0.9-0.2,2-0.2,2.8-0.2c0.2,0.6,0.6,1.1,0.8,1.6c0,0.1,0.2,0.5,0.1,0.7c-0.4,0.5-0.7,0.8-1.2,1.1c0.1,0,0.2,0.1,0.5,0.1h0.7
	c0,0,1.2-0.1,1.2-0.1c0.2-0.7,0.4-1.4,0.4-2.2c0.2-0.6-1-1.6-1.5-2.3C223.4,340.3,222.8,340.4,222.3,340.2z M219.4,353.2
	c-0.1,1.4-1.1,2.7-1.4,3.3c0,0.1-0.5,0.8-0.6,0.9c-0.2,0.4-0.2,0.3-0.4,0.7c-0.1,0.3-0.4,0.6-0.5,0.9c-0.1,0.3,0,1.1,0,1.4
	c0.1,0.4,0.4,0.3,0.5,0.8c0.1,0.3,0,0.9,0,1.2c0,0.3,0,0.9,0,1.2c0,0.3,0.5,0.1,0.8,0.1c0.4,0.1,0.6,0.7,1.1,0.9
	c0.5,0.2,1.4,1.1,1.8,1.3c0,0,0.1,0.1,0.1,0.1c-0.1,0-0.1,0.1-0.2,0.3c-1.4,1-3.2,1.1-4.9,1c-3.4-0.3-3.6,0-4.9-1.5
	c-1.8-2.3-3.5-4.6-5.2-7.2c0-1.7,0-3.7,0.1-5.4c0-1,0.2-1.2,0.2-2.1c0.2-1.3,1.4-2.2,2.4-2.5c1.3-0.4,2.7-0.5,4-0.5c0,0,0,0,0,0
	c0.1,0.1,0.4,0.4,0.5,0.5c0,0.1,0.1,0.4,0.2,0.5c0.2,0.1,0.3,0.1,0.6,0.1c0.5,0,1.2,0,1.5-0.1c0.4-0.3,0.7-0.8,1.4-0.9
	c0.7,0.8,1.2,1.6,1.8,2.4C218.9,351.6,219.5,352.1,219.4,353.2z"/>
<path class="st3" d="M215,319.6c19.5,0,35.4,15.9,35.4,35.4c0,19.5-15.9,35.4-35.4,35.4c-19.5,0-35.4-15.9-35.4-35.4
	C179.6,335.5,195.5,319.6,215,319.6z M215,318c-2.5,0-5,0.3-7.5,0.8c-2.4,0.5-4.7,1.2-6.9,2.2c-2.2,0.9-4.3,2.1-6.3,3.4
	c-2,1.3-3.8,2.8-5.5,4.5c-1.7,1.7-3.2,3.5-4.5,5.5c-1.3,2-2.5,4.1-3.4,6.3c-0.9,2.2-1.7,4.6-2.2,6.9c-0.5,2.4-0.8,4.9-0.8,7.5
	c0,2.5,0.3,5,0.8,7.5c0.5,2.4,1.2,4.7,2.2,6.9c0.9,2.2,2.1,4.3,3.4,6.3c1.3,2,2.8,3.8,4.5,5.5c1.7,1.7,3.5,3.2,5.5,4.5
	c2,1.3,4.1,2.5,6.3,3.4c2.2,0.9,4.6,1.7,6.9,2.2c2.4,0.5,4.9,0.8,7.5,0.8c2.5,0,5-0.3,7.5-0.8c2.4-0.5,4.7-1.2,6.9-2.2
	c2.2-0.9,4.3-2.1,6.3-3.4c2-1.3,3.8-2.8,5.5-4.5c1.7-1.7,3.2-3.5,4.5-5.5c1.3-2,2.5-4.1,3.4-6.3c0.9-2.2,1.7-4.6,2.2-6.9
	c0.5-2.4,0.8-4.9,0.8-7.5c0-2.5-0.3-5-0.8-7.5c-0.5-2.4-1.2-4.7-2.2-6.9c-0.9-2.2-2.1-4.3-3.4-6.3c-1.3-2-2.8-3.8-4.5-5.5
	c-1.7-1.7-3.5-3.2-5.5-4.5c-2-1.3-4.1-2.5-6.3-3.4c-2.2-0.9-4.6-1.7-6.9-2.2C220,318.3,217.5,318,215,318z"/>
<path class="st3" d="M214.2,258.7c-0.2-2.3-1.2-4.5-3.2-6c-0.2-0.1-0.5-0.3-0.7-0.3c-0.1,0-0.3,0-0.4,0.2c0.9,5.5-2.7,9.4-5.3,13.5
	c0.9,0.7,2.2,0.6,3.2,0.4c2.7-1.1,5.3-3,8.5-2.3c1-1.6,2.6-3.2,3.9-4.5c0.8-0.7,1.9-1.1,2.5-1.9
	C220.1,256.1,216.7,257.8,214.2,258.7z"/>
<path class="st3" d="M231.6,262.1c0.8-1.1,2.2-0.2,3.1-0.2v-0.3c-0.5-0.8-1.5-1.1-2.5-1.1c-0.2,0-0.5,0-0.7,0.1
	c-0.3,0.1-0.6,0.4-0.5,0.8C231,261.7,231,262.3,231.6,262.1z"/>
<path class="st3" d="M239.8,255.4c-0.7-0.1-1.5-0.2-2.2-0.2c-0.1,0-0.3,0-0.4,0c-2.1,0-4.1,0.6-5.4,2.3c-0.2,0.5-1,1.2-0.2,1.6
	c1.6-0.1,3.5-0.3,4.6,1.1c0,1.2,0.8,2.9-0.5,3.5c-1.1-1-2.4,0.4-3.6-0.4c-0.6-0.3-0.9,0-1.2,0.6c-0.3,3.2,1.3,6.7,4.3,8.5
	c1.2,0.4,2.9,0.9,4.1,0.2c3-1.4,4.3-4.6,4.9-7.6c-0.1-0.6,0-1.7-0.9-1.7c-0.9,0.6-2.2,0.2-3.2,0c-0.6,0.2-0.6,1-1.2,1.2l-0.4-0.3
	c-0.3-1.4-0.5-3.4,0.8-4.4c1.5-0.6,3.2-0.9,4.7-0.4c0.3-0.5-0.2-0.9-0.2-1.3C242.9,256.5,241.3,255.8,239.8,255.4z M240.2,268.3
	c-0.6,0.9-1.6,2.1-2.8,2c-1.4,0.1-1.7-1-2.7-1.7l-0.1-0.5C236.4,268.4,238.5,268.1,240.2,268.3z M238.8,266.1c0.1,0.1,0.1,0.2,0,0.2
	c0,0,0,0.1-0.1,0.1c0,0,0,0,0,0c-0.4,0.1-0.6,0.2-0.8,0.3c-0.3,0.1-0.4,0.2-0.8,0.2c-0.3,0-0.5-0.1-0.8-0.3c-0.1,0-0.2-0.1-0.3-0.1
	c-0.1,0-0.2-0.1-0.3-0.1c-0.2-0.1-0.1-0.2,0-0.3c0.3-0.3,0.6-0.3,0.9-0.3c0.2,0,0.5,0.1,0.7,0.1
	C237.6,265.9,238.1,265.4,238.8,266.1z"/>
<path class="st3" d="M252.1,258.2c2.6,1.4,4.8,3.7,6.4,6.2c1.1-0.2,2.5,0,3.6,0.2c2.6,0.7,5.3,3.6,8,1.7c-2.4-4-6-7.7-5-12.9
	c0.1-0.3-0.1-0.7-0.5-0.8c-1.6,0.6-2.8,2.2-3.4,3.7c-0.3,0.9-0.4,1.8-0.8,2.7c-1.9-1-3.9-1.9-6.2-1.7
	C253.5,257.3,252.3,257.4,252.1,258.2z"/>
<path class="st3" d="M272,270.5c0-19.1-15.4-34.5-34.5-34.5c-19.1,0-34.5,15.4-34.5,34.5s15.4,34.5,34.5,34.5
	C256.6,305,272,289.6,272,270.5z M260.4,295.4l-2.2-0.8c-0.4,0.5-1.1,1.1-0.9,1.6c0.5,0.2,1,0.5,1.4,0.9c-1,1-2.2,1.7-3.3,2.4
	c-1-3.3-4.3-5.5-4-9.3l-0.2-0.2c-0.8,0.9-0.5,2.3-0.5,3.4c0.9,2.4,3.2,4.2,3.5,6.8c-0.4,0.7-1.3,0.8-1.9,1.1
	c0.1-4.7-7.1-8.2-2.5-12.9c1.5-2.3,4.1-4.5,3.2-7.7c-0.9-3.1-4.2-5-4.2-8.4v-0.3c0.7-3.6,3-7.4,1.2-11.2c-0.5-1.5-1.7-3.3-3.2-3.9
	c2.3,2.7,3.3,7,1.9,10.6c-0.7,1.4-1.6,3.1-1.7,4.8c0,0.9,0.1,1.8,0.7,2.6c1.8,2.9,4.9,6,3.1,9.8c-2,3-5.5,6-3.6,10
	c1.4,2.4,3.6,4.7,3,7.6l-2.3,0.8c1.6-5.4-6-8.6-2.9-14c2-2.9,5.5-5.6,3.5-9.5c-1.2-2.4-3.6-3.8-3.6-6.8l0.1-0.5
	c0.8-4.2,4-8.2,1.8-12.7c-0.6-1.3-1.8-2.7-3.1-3.5l-0.1,0.1c2.6,2.5,3.4,6.7,2,10.1c-0.7,2-2.1,3.9-2.4,6c-0.1,1,0,2,0.6,3.1
	c1.7,2.6,4.6,5.4,2.8,8.9c-1.9,2.8-5.1,5.6-3.9,9.2c1.4,3.2,4.4,6.3,2.8,10.2l-2.4,0.5c1.9-3.9-1-7.7-2.6-11.1
	c-2-4.8,4.4-7.1,4.5-11.6c0-2.8-3.1-4.5-3.7-7.1c-1.3-1.1-2.7,0.4-4.3,0.2c-1.2,0.2-2.9-1.6-3.6,0.4c-0.8,2.9-4.6,5-2.9,8.5
	c1.6,3,5.4,5.3,4.1,9.3c-1.1,3.7-4.9,7.2-2.6,11.5c-1-0.3-2.7,0.3-2.7-1.2c-1.5-5.2,4.8-8.2,2.9-13.3c-0.9-3.2-5-4.9-4.1-8.7
	c0.7-3.1,4.2-5.3,3.7-8.7c0-0.3-0.1-0.6-0.2-0.9c-1.3-3.7-4-7.4-2.4-11.7c0.4-1.2,1.3-2.3,2.1-3.4c-2.6,1.4-3.8,4.2-3.8,7.2
	c-0.1,3.2,2.2,5.9,2.6,8.8c0.1,1.2-0.1,2.4-0.9,3.6c-1.7,2.3-3.9,4.6-2.9,7.6c1,3,4.7,4.8,4.5,8.3c0,4.1-4.8,6.7-3.5,11.3l-2.4-0.8
	c-1-4.1,3.4-6.2,3.5-10c0.6-4.4-5-6-4.6-10.2c0-3.2,2.8-5.3,4.1-8c0.2-0.7,0.3-1.3,0.3-1.9c-0.2-3-2.9-5.4-2.4-8.7
	c0.2-2.5,1-4.7,2.6-6.6c-2.2,0.9-3.2,3.5-3.8,5.6c-1.1,3.5,1.5,6.6,1.7,9.7c0.1,1.4-0.2,2.7-1.5,4.1c-1.9,2.2-3.7,4.9-2.4,7.9
	c1.4,3.2,5.9,5.7,3.9,9.8c-1.1,2.5-3.6,4.5-3.5,7.5c-0.7-0.3-1.4-0.6-1.9-1.1c0-3.8,5.5-6.2,2.9-10.2c-0.2,0.8-0.3,1.9-0.5,2.8
	c-0.9,2.3-2.8,4.2-3.6,6.6c-1.2-0.5-2.5-1.4-3.5-2.5l1.4-0.9c-0.2-0.5-0.6-0.9-0.9-1.4c-0.9-0.1-1.5,0.5-2.2,0.7
	c-0.7-0.6-1.3-1.1-1.8-1.8c0.5-1.3,4.1-0.2,2.2-2.4c-1.2-0.8-2.5,0.3-3.6,0.9l-1.5-1.8c1.3-0.8,2.5-1.8,4.1-1.5
	c0.4,0.7,0.4,1.7,1.2,2.1c2.7,0,4.5-2.1,6.6-3.6c-1.4-2.1-2.6-5-1.3-7.5c1-2.5,3.6-4.7,3.8-7.5c0-0.6-0.1-1.3-0.3-2
	c-1.4-3.6-1.9-8.4,0.8-11.6c-1.4,0.4-2.3,2.2-2.8,3.5c-1.6,3.5,0.4,6.7,0.5,10.1c0,0.6,0,1.2-0.2,1.8c-1.4,2.7-3.6,5.1-3.9,8.3
	c-1.6,1-2.9,2.7-5.1,2.1c-0.1,0.6,0.1,1.5,0.3,2.1c-1.8-0.1-3,1.2-4.5,1.8c-0.8-0.3-1-1.3-1.3-2c1.8-0.6,3-2.3,5-2.3
	c0.2-0.6-0.1-1.2-0.2-1.8c-2.5-1.1-6.5,5.5-6.8-0.2c2.5-0.1,4.1-2.4,6.6-2.7l0.1-1.8c-2.8-0.3-4.6,2.6-7.4,2.3l-0.6-2.5
	c3.2,0.2,5.2-2.7,8.3-2.9c0.4-0.5,0.5-1.3,0.5-2.1c-3.4-0.4-5.7,3.3-9.3,2.1c0,0-0.1-1.5-0.2-2.4c0-0.3,0-0.6,0-0.6
	c3.2,1.2,6-1.1,8.7-2.2c0.7-0.2,1.8,0.2,2.1-0.6c0-0.6,1-1.3,0.2-1.7c-4-0.5-6.7,4.3-10.8,2.1l-0.3-0.6c0.9-11.6,7.4-22.8,18.3-28.3
	c4.4-2.5,9.9-3.8,15.4-3.8c6.7,0,13.4,1.7,18.5,5.2c4.9,3,9.6,7.9,12.1,12.9c2.4,4.4,3.5,9.3,3.9,14.5c-4.2,3.2-7.1-3-11.4-1.6
	c0.2,0.7,0.4,1.4,0.9,1.9c3.8,0,6.4,3.9,10.4,2.4v0.6c0,0.9,0.1,1.6-0.2,2.5c-3.5,1-5.9-2.7-9.3-2.2l0.4,1.9c3.2,0.1,5.1,3.1,8.4,3
	c-0.5,0.9,0.2,3.4-1.9,2.4c-2.1-0.5-3.7-2.4-6-2.4c-0.3,0.5-0.1,1.2-0.2,1.8c2.5,0.4,4.3,2.5,6.7,2.9c-0.2,0.9-0.5,1.8-1.2,2.3
	c-2-0.5-3.6-2.3-5.7-2.2l-0.4,1.8c2,0,3.4,1.8,5.2,2.4c0,0.7-0.6,1.4-1,2.1c-1.6-0.5-2.9-1.9-4.7-1.8c0-0.7,0.4-1.5,0.2-2.2
	c-2.1,0.6-3.5-1.3-5-2.5c0-3.8-4.1-6.3-4.3-9.8c0-0.7,0.1-1.5,0.4-2.3c1.3-3,0.9-7-0.5-9.8c-0.4-0.7-1.2-1.3-1.9-1.8
	c1.1,2.2,2.3,4.9,1.7,7.6c-0.1,2.1-1.3,4.2-1.3,6.2c0,0.7,0.2,1.5,0.6,2.2c1.7,3,4.7,5.9,3.6,9.6c-0.3,1.2-1.3,2.1-1.5,3.2
	c2,1.6,3.8,3.4,6.4,3.6c0.9-0.6,0.4-3.2,2.3-2l2.8,1.4c-0.2,0.7-0.8,1.4-1.4,1.9c-1.1-0.5-2.1-1.1-3.4-1.1c-0.4,0.4-0.7,0.9-0.7,1.5
	c0.9,0.2,1.8,0.5,2.6,1.1C261.7,294.3,261,294.8,260.4,295.4z"/>
<path class="st3" d="M242.1,260.6c-0.1,0-0.2,0-0.3,0c-0.5,0.4-2.1,0.1-1.6,1.3c1-0.8,2.3-0.2,3.3,0.2c0.4-0.2,0.3-0.5,0.3-0.9
	C243.5,260.6,242.8,260.6,242.1,260.6z"/>
<path class="st3" d="M248,251.2c-0.2-1.5,1-3,1.2-4.5c-2.8,0.2-5.1,1.9-7.4,3.2c-0.5-1.3-1.1-2.6-1.6-3.9l3.1-2.9l0.1-0.4l-4.2-0.2
	c-0.7-1.2-1-2.8-1.9-3.9c-0.7,1.3-1.2,2.7-1.9,4l-4.2,0.2v0.3l3.2,2.8c-0.4,1.5-0.7,3-1.7,4.2c-1.9-1.1-3.7-2.3-5.7-3.1
	c-0.5-0.2-1.2-0.4-1.6-0.1c0.6,1.4,1.6,2.9,1.4,4.5c-0.9-0.2-1.5-0.7-2.3-0.9c-1-0.3-2.1-0.8-3-0.5c1.6,2.1,2.8,4.4,3.2,7
	c5.1-2.5,11.1-3.8,17.3-2.8c2.9,0.5,5.6,1.6,8.2,2.6c0.1-2.7,1.8-4.9,3-7.1C251.4,249.6,249.8,250.7,248,251.2z M240.3,251.2
	c-1.9-0.2-4,0-5.8,0.1c-0.2-0.2-0.6-0.5-0.2-0.8l2.9-2.2c1.2,0.7,2.5,1.6,3.5,2.5L240.3,251.2z"/>
<g>
	<defs>
		<rect id="SVGID_1_" x="267" y="296" width="64" height="64"/>
	</defs>
	<clipPath id="SVGID_2_">
		<use xlink:href="#SVGID_1_"  style="overflow:visible;"/>
	</clipPath>
	<g class="st4">
		<path class="st3" d="M330.3,314.8l-18-18c-1-1-2.6-1-3.6,0l-41,41c-1,1-1,2.6,0,3.6l18,18c1,1,2.6,1,3.6,0l20.4-20.4l-21.5-21.6
			l1.4-1.4l21.6,21.6l19.1-19.1C331.3,317.4,331.3,315.7,330.3,314.8z M283.3,343c-2,2-5.1,2-7.1,0c-2-2-2-5.1,0-7.1s5.1-2,7.1,0
			C285.3,337.9,285.3,341.1,283.3,343z M291.9,336c2-2,5.1-2,7.1,0s2,5.1,0,7.1s-5.1,2-7.1,0C289.9,341.2,289.9,338,291.9,336z
			 M314.1,320c-2,2-5.1,2-7.1,0c-2-2-2-5.1,0-7.1c2-2,5.1-2,7.1,0C316.1,314.9,316.1,318,314.1,320z"/>
	</g>
</g>
<linearGradient id="SVGID_3_" gradientUnits="userSpaceOnUse" x1="48.9849" y1="455.651" x2="48.9849" y2="110.6" gradientTransform="matrix(1 0 0 -1 0 663.2)">
	<stop  offset="0" style="stop-color:#4186BF"/>
	<stop  offset="1" style="stop-color:#4186BF;stop-opacity:0"/>
</linearGradient>
<path class="st5" d="M47,215.2l-5.6,5.6l-2.8-2.8l9-9l1.4-1.4l1.4,1.4l9,9l-2.8,2.8l-5.5-5.5L51,628h-4L47,215.2z"/>
<linearGradient id="SVGID_4_" gradientUnits="userSpaceOnUse" x1="359" y1="35.426" x2="47" y2="35.426" gradientTransform="matrix(1 0 0 -1 0 663.2)">
	<stop  offset="0" style="stop-color:#D3AD0F"/>
	<stop  offset="1" style="stop-color:#D3AD0F;stop-opacity:0"/>
</linearGradient>
<path class="st6" d="M351.6,626l-5.8-5.8l2.8-2.8l9,9l1.4,1.4l-1.4,1.4l-9,9l-2.8-2.8l5.3-5.3H47v-4H351.6z"/>
<path class="st7" d="M98.7,652h2.4v-4.9h1.6c2.3,0,4.4-1.2,4.4-3.8c0-2.6-2.1-3.7-4.4-3.7h-4V652z M102.4,645.3h-1.4v-3.9h1.3
	c1.2,0,2.3,0.5,2.3,1.9C104.7,644.7,103.7,645.3,102.4,645.3z M116.6,647.2c0-2.3-1.6-4.1-4.3-4.1c-2.5,0-4.5,1.9-4.5,4.7
	c0,2.8,1.9,4.4,4.6,4.4c2.1,0,3.4-0.9,3.9-1.4l-0.9-1.2c-0.4,0.4-1.5,0.9-2.6,0.9c-1.3,0-2.4-0.7-2.6-2.1h6.4
	C116.5,648.4,116.6,647.7,116.6,647.2z M112.2,644.8c1.6,0,2,1.1,2,2.1h-4.2C110.1,645.8,110.9,644.8,112.2,644.8z M118.3,652h2.3
	v-4.3c0-0.7,0.1-1.3,0.3-1.7c0.3-0.6,0.8-0.8,1.5-0.8c0.3,0,0.7,0,1,0.1h0.1l0.2-2c0,0-0.3-0.2-0.9-0.2c-0.9,0-1.8,0.6-2.1,1.6h-0.1
	l0-1.4h-2.3V652z M129.8,645.6l1-1.5c-0.7-0.5-1.6-0.9-3.1-0.9c-1.7,0-3.1,1-3.1,2.6c0,1.3,0.7,2.1,2,2.5l1,0.3
	c1.1,0.4,1.5,0.6,1.5,1.1c0,0.5-0.4,0.8-1.3,0.8c-0.7,0-1.6-0.4-2.6-1.2l-0.9,1.6c0.7,0.8,2.2,1.3,3.5,1.3c2.1,0,3.5-1.2,3.5-2.9
	c0-1.3-0.7-1.9-2.6-2.6l-0.6-0.2c-1-0.3-1.3-0.6-1.3-1c0-0.4,0.4-0.7,1.1-0.7C128.6,644.9,129.3,645.2,129.8,645.6z M137,652.2
	c2.7,0,4.7-1.8,4.7-4.5c0-2.8-2.1-4.6-4.7-4.6c-2.7,0-4.7,1.8-4.7,4.6C132.3,650.4,134.4,652.2,137,652.2z M139.4,647.6
	c0,1.5-0.9,2.7-2.3,2.7c-1.5,0-2.3-1.2-2.3-2.7c0-1.5,0.8-2.6,2.3-2.6C138.5,645,139.4,646.1,139.4,647.6z M149.4,652h2.3v-5.2
	c0-2.1-0.6-3.7-3.1-3.7c-1.3,0-2.1,0.6-2.6,1.5h-0.1l0-1.3h-2.3v8.7h2.3v-4.3c0-1.5,0.5-2.6,1.9-2.6c1.3,0,1.6,1,1.6,2.3V652z
	 M159.1,652h2.2v-5c0-2.7-1.4-3.9-4-3.9c-1.5,0-2.7,0.5-3.4,0.9l0.7,1.5c0.4-0.3,1.3-0.7,2.5-0.7c1.2,0,1.9,0.5,1.9,1.6v0.2
	l-2.1,0.1c-1.8,0.1-3.6,0.8-3.6,2.6c0,1.8,1.4,2.7,3.1,2.7c1.3,0,2.3-0.6,2.7-1.2L159.1,652z M159,648.1v1.6c-0.3,0.4-1,1-1.9,1
	c-1,0-1.5-0.5-1.5-1.2c0-0.7,0.6-1.2,1.8-1.2L159,648.1z M163.6,652h2.3v-12.4h-2.3V652z M169.6,641.9c0.8,0,1.4-0.5,1.4-1.3
	c0-0.7-0.6-1.3-1.4-1.3s-1.4,0.5-1.4,1.3C168.2,641.4,168.8,641.9,169.6,641.9z M168.4,652h2.3v-8.7h-2.3V652z M172.5,652h7.8v-1.8
	h-4.9l4.7-5.5v-1.3h-7.4v1.8h4.5l-4.7,5.5V652z M190.2,647.2c0-2.3-1.6-4.1-4.3-4.1c-2.5,0-4.5,1.9-4.5,4.7c0,2.8,1.9,4.4,4.6,4.4
	c2.1,0,3.4-0.9,3.9-1.4l-0.9-1.2c-0.4,0.4-1.5,0.9-2.6,0.9c-1.3,0-2.4-0.7-2.6-2.1h6.4C190.2,648.4,190.2,647.7,190.2,647.2z
	 M185.9,644.8c1.6,0,2,1.1,2,2.1h-4.2C183.8,645.8,184.6,644.8,185.9,644.8z M198.7,652h2.2v-12.4h-2.3v3.4c0,0.6,0,1.1,0,1.5h0
	c-0.6-0.9-1.6-1.4-2.8-1.4c-2.6,0-4.3,2-4.3,4.5c0,2.6,1.6,4.6,4.1,4.6c1.2,0,2.3-0.5,3-1.6h0.1L198.7,652z M196.3,650.3
	c-1.5,0-2.4-1.2-2.4-2.7c0-1.5,0.9-2.7,2.4-2.7c1.5,0,2.4,1.3,2.4,2.7C198.7,649.3,197.7,650.3,196.3,650.3z M215.5,647.2
	c0-2.3-1.6-4.1-4.3-4.1c-2.5,0-4.5,1.9-4.5,4.7c0,2.8,1.9,4.4,4.6,4.4c2.1,0,3.4-0.9,3.9-1.4l-0.9-1.2c-0.4,0.4-1.5,0.9-2.6,0.9
	c-1.3,0-2.4-0.7-2.6-2.1h6.4C215.4,648.4,215.5,647.7,215.5,647.2z M211.1,644.8c1.6,0,2,1.1,2,2.1H209
	C209.1,645.8,209.8,644.8,211.1,644.8z M223,652h2.3v-5.2c0-2.1-0.6-3.7-3.1-3.7c-1.3,0-2.1,0.6-2.6,1.5h-0.1l0-1.3h-2.3v8.7h2.3
	v-4.3c0-1.5,0.5-2.6,1.9-2.6c1.3,0,1.6,1,1.6,2.3V652z M234.2,650.3v0.4c0,1.9-0.8,2.8-2.8,2.8c-1.1,0-2.5-0.6-3.1-1l-1,1.6
	c0.4,0.3,2,1.3,4,1.3c2.1,0,3.2-0.7,4-1.5c0.7-0.8,1.1-1.9,1.1-3.8v-6.9h-2.3l0,1.2h0c-0.6-0.9-1.6-1.4-2.8-1.4
	c-2.6,0-4.3,2-4.3,4.4c0,2.8,1.9,4.2,4.1,4.2C232.5,651.7,233.6,651.2,234.2,650.3L234.2,650.3z M234.3,647.5c0,1.3-0.8,2.4-2.5,2.4
	c-1.5,0-2.4-1.1-2.4-2.4c0-1.4,0.9-2.5,2.4-2.5S234.3,646.2,234.3,647.5z M244,652h2.2v-5c0-2.7-1.4-3.9-4-3.9
	c-1.5,0-2.7,0.5-3.4,0.9l0.7,1.5c0.4-0.3,1.3-0.7,2.5-0.7c1.2,0,1.9,0.5,1.9,1.6v0.2l-2.1,0.1c-1.8,0.1-3.6,0.8-3.6,2.6
	c0,1.8,1.4,2.7,3.1,2.7c1.3,0,2.3-0.6,2.7-1.2L244,652z M243.9,648.1v1.6c-0.3,0.4-1,1-1.9,1c-1,0-1.5-0.5-1.5-1.2
	c0-0.7,0.6-1.2,1.8-1.2L243.9,648.1z M254.9,650.3v0.4c0,1.9-0.8,2.8-2.8,2.8c-1.1,0-2.5-0.6-3.1-1l-1,1.6c0.4,0.3,2,1.3,4.1,1.3
	c2.1,0,3.2-0.7,4-1.5c0.7-0.8,1.1-1.9,1.1-3.8v-6.9h-2.3l0,1.2h0c-0.6-0.9-1.6-1.4-2.8-1.4c-2.6,0-4.3,2-4.3,4.4
	c0,2.8,1.9,4.2,4.1,4.2C253.3,651.7,254.3,651.2,254.9,650.3L254.9,650.3z M255.1,647.5c0,1.3-0.8,2.4-2.5,2.4
	c-1.5,0-2.4-1.1-2.4-2.4c0-1.4,0.9-2.5,2.4-2.5C254.1,644.9,255.1,646.2,255.1,647.5z M267.9,647.2c0-2.3-1.6-4.1-4.3-4.1
	c-2.5,0-4.5,1.9-4.5,4.7c0,2.8,1.9,4.4,4.6,4.4c2.1,0,3.4-0.9,3.9-1.4l-0.9-1.2c-0.4,0.4-1.5,0.9-2.6,0.9c-1.3,0-2.4-0.7-2.6-2.1
	h6.4C267.9,648.4,267.9,647.7,267.9,647.2z M263.6,644.8c1.6,0,2,1.1,2,2.1h-4.2C261.5,645.8,262.2,644.8,263.6,644.8z M279.9,643.1
	c-1.3,0-2.2,0.6-2.8,1.7c-0.4-1.2-1.2-1.7-2.4-1.7c-1.1,0-2.2,0.7-2.6,1.5H272l0-1.3h-2.3v8.7h2.3v-4.5c0-1.4,0.5-2.5,1.7-2.5
	c1.1,0,1.4,0.9,1.4,2.1v4.9h2.3v-4.5c0-1.5,0.6-2.5,1.7-2.5c1.1,0,1.4,1,1.4,2.1v4.9h2.3v-5.3C282.8,644.7,282.2,643.1,279.9,643.1z
	 M293.4,647.2c0-2.3-1.6-4.1-4.3-4.1c-2.5,0-4.5,1.9-4.5,4.7c0,2.8,1.9,4.4,4.6,4.4c2.1,0,3.4-0.9,3.9-1.4l-0.9-1.2
	c-0.4,0.4-1.5,0.9-2.6,0.9c-1.3,0-2.4-0.7-2.6-2.1h6.4C293.3,648.4,293.4,647.7,293.4,647.2z M289.1,644.8c1.6,0,2,1.1,2,2.1h-4.2
	C287,645.8,287.7,644.8,289.1,644.8z M300.9,652h2.3v-5.2c0-2.1-0.6-3.7-3.1-3.7c-1.3,0-2.1,0.6-2.6,1.5h-0.1l0-1.3h-2.3v8.7h2.3
	v-4.3c0-1.5,0.5-2.6,1.9-2.6c1.3,0,1.6,1,1.6,2.3V652z M308.2,645.1h2v-1.8h-2v-2.5H306v2.5h-1.3v1.8h1.3v4c0,2.3,0.7,3.1,2.5,3.1
	c1,0,1.7-0.3,1.8-0.3l-0.1-1.8c0,0-0.4,0.1-0.8,0.1c-0.8,0-1-0.3-1-1.7V645.1z"/>
<path class="st7" d="M33,491.5v-4c0-3.8-2.2-6.7-6.2-6.7c-4,0-6.2,2.9-6.2,6.7v4H33z M31,487.5v1.7h-8.5v-1.7c0-2.6,1.6-4.2,4.2-4.2
	C29.4,483.3,31,484.9,31,487.5z M22.9,477.6c0-0.8-0.5-1.4-1.3-1.4c-0.7,0-1.3,0.6-1.3,1.4s0.5,1.4,1.3,1.4
	C22.4,479,22.9,478.4,22.9,477.6z M33,478.7v-2.3h-8.7v2.3H33z M31.3,467.4h0.4c1.9,0,2.8,0.8,2.8,2.8c0,1.1-0.6,2.5-1,3.1l1.6,1
	c0.3-0.4,1.3-2,1.3-4c0-2.1-0.7-3.2-1.5-4c-0.8-0.7-1.9-1.1-3.8-1.1h-6.9v2.3l1.2,0v0c-0.9,0.6-1.4,1.6-1.4,2.8c0,2.6,2,4.3,4.4,4.3
	c2.8,0,4.2-1.9,4.2-4.1C32.7,469.1,32.2,468.1,31.3,467.4L31.3,467.4z M28.5,467.3c1.3,0,2.4,0.8,2.4,2.5c0,1.5-1.1,2.4-2.4,2.4
	c-1.4,0-2.5-0.9-2.5-2.4C25.9,468.2,27.2,467.3,28.5,467.3z M22.9,461.5c0-0.8-0.5-1.4-1.3-1.4c-0.7,0-1.3,0.6-1.3,1.4
	s0.5,1.4,1.3,1.4C22.4,462.9,22.9,462.3,22.9,461.5z M33,462.7v-2.3h-8.7v2.3H33z M26.1,455.2v-2h-1.8v2h-2.5v2.3h2.5v1.3h1.8v-1.3
	h4c2.3,0,3.1-0.7,3.1-2.5c0-1-0.3-1.7-0.3-1.8l-1.8,0.1c0,0,0.1,0.4,0.1,0.8c0,0.8-0.3,1-1.7,1H26.1z M33,446.6v-2.2h-5
	c-2.7,0-3.9,1.4-3.9,4c0,1.5,0.5,2.7,0.9,3.4l1.5-0.7c-0.3-0.4-0.7-1.3-0.7-2.5c0-1.2,0.5-1.9,1.6-1.9h0.2l0.1,2.1
	c0.1,1.8,0.8,3.6,2.6,3.6c1.8,0,2.7-1.4,2.7-3.1c0-1.3-0.6-2.3-1.2-2.7L33,446.6z M29.1,446.6h1.6c0.4,0.3,1,1,1,1.9
	c0,1-0.5,1.5-1.2,1.5c-0.7,0-1.2-0.6-1.2-1.8L29.1,446.6z M33,442v-2.3H20.6v2.3H33z M24.3,431.1v2.3h12v-2.3h-3c-0.6,0-1,0-1.4,0
	l0,0c0.9-0.7,1.3-1.5,1.3-2.8c0-2.6-2-4.3-4.5-4.3c-2.6,0-4.6,1.6-4.6,4.1c0,1.2,0.4,2.2,1.4,2.9l0,0L24.3,431.1z M26,428.8
	c0-1.5,1.2-2.4,2.7-2.4c1.5,0,2.7,0.9,2.7,2.4c0,1.5-1.3,2.4-2.7,2.4C27,431.2,26,430.2,26,428.8z M24.3,420v2.3h5.2
	c2.1,0,3.7-0.6,3.7-3.1c0-1.3-0.5-2.2-1.4-2.7l1.2,0v-2.2h-8.7v2.3h4.4c1.5,0,2.6,0.5,2.6,1.9c0,1.3-1,1.5-2.3,1.5H24.3z M33,411.9
	v-2.3h-4.3c-0.7,0-1.3-0.1-1.7-0.3c-0.6-0.3-0.8-0.8-0.8-1.5c0-0.3,0-0.7,0.1-1v-0.1l-2-0.2c0,0-0.2,0.3-0.2,0.9
	c0,0.9,0.6,1.8,1.6,2.1v0.1l-1.4,0v2.3H33z M30.3,398.5c0,0,0.9,0.8,0.9,2.3c0,1.5-1,2.6-2.6,2.6s-2.6-1.1-2.6-2.5
	c0-1.3,0.7-2.1,0.9-2.4l-1.7-0.6c-0.2,0.2-1.1,1.1-1.1,3.3c0,2.3,1.7,4.6,4.6,4.6c2.8,0,4.5-2.2,4.5-4.6c0-2.3-1-3.2-1.2-3.4
	L30.3,398.5z M24.1,391.4c0,1.3,0.6,2.1,1.5,2.6v0h-5v2.3H33V394h-4.3c-1.5,0-2.6-0.5-2.6-1.9c0-1.3,1-1.6,2.3-1.6H33v-2.3h-5.2
	C25.7,388.3,24.1,388.9,24.1,391.4z M33,380.8v-2.2h-5c-2.7,0-3.9,1.4-3.9,4c0,1.5,0.5,2.7,0.9,3.4l1.5-0.7
	c-0.3-0.4-0.7-1.3-0.7-2.5c0-1.2,0.5-1.9,1.6-1.9h0.2l0.1,2.1c0.1,1.8,0.8,3.6,2.6,3.6c1.8,0,2.7-1.4,2.7-3.1c0-1.3-0.6-2.3-1.2-2.7
	L33,380.8z M29.1,380.9h1.6c0.4,0.3,1,1,1,1.9c0,1-0.5,1.5-1.2,1.5c-0.7,0-1.2-0.6-1.2-1.8L29.1,380.9z M26.6,371.4l-1.5-1
	c-0.5,0.7-0.9,1.6-0.9,3.1c0,1.7,1,3.1,2.6,3.1c1.3,0,2.1-0.7,2.5-2l0.3-1c0.4-1.1,0.6-1.5,1.1-1.5c0.5,0,0.8,0.4,0.8,1.3
	c0,0.7-0.4,1.6-1.2,2.6l1.6,0.9c0.8-0.7,1.4-2.2,1.4-3.5c0-2.1-1.2-3.5-2.9-3.5c-1.3,0-1.9,0.7-2.6,2.6l-0.2,0.6
	c-0.3,1-0.6,1.3-1,1.3c-0.4,0-0.7-0.4-0.7-1.1C25.9,372.6,26.2,371.9,26.6,371.4z M22.9,367.2c0-0.8-0.5-1.4-1.3-1.4
	c-0.7,0-1.3,0.6-1.3,1.4s0.5,1.4,1.3,1.4C22.4,368.5,22.9,368,22.9,367.2z M33,368.3V366h-8.7v2.3H33z M33,357.8v-2.3h-5.2
	c-2.1,0-3.7,0.6-3.7,3.1c0,1.3,0.6,2.1,1.5,2.6v0.1l-1.3,0v2.3H33v-2.3h-4.3c-1.5,0-2.6-0.5-2.6-1.9c0-1.3,1-1.6,2.3-1.6H33z
	 M31.3,346.6h0.4c1.9,0,2.8,0.8,2.8,2.8c0,1.1-0.6,2.5-1,3.1l1.6,1c0.3-0.4,1.3-2,1.3-4c0-2.1-0.7-3.2-1.5-4
	c-0.8-0.7-1.9-1.1-3.8-1.1h-6.9v2.3l1.2,0v0c-0.9,0.6-1.4,1.6-1.4,2.8c0,2.6,2,4.3,4.4,4.3c2.8,0,4.2-1.9,4.2-4.1
	C32.7,348.3,32.2,347.2,31.3,346.6L31.3,346.6z M28.5,346.5c1.3,0,2.4,0.8,2.4,2.5c0,1.5-1.1,2.4-2.4,2.4c-1.4,0-2.5-0.9-2.5-2.4
	C25.9,347.4,27.2,346.5,28.5,346.5z"/>
<rect x="50" y="209" class="st1" width="308" height="418"/>
<path class="st8" d="M47,215.2l-5.6,5.6l-2.8-2.8l9-9l1.4-1.4l1.4,1.4l9,9l-2.8,2.8l-5.5-5.5L51,628h-4L47,215.2z"/>
<path class="st9" d="M351.6,626l-5.8-5.8l2.8-2.8l9,9l1.4,1.4l-1.4,1.4l-9,9l-2.8-2.8l5.3-5.3H47v-4H351.6z"/>
</svg>
