<svg width="344" height="144" viewBox="0 0 344 144" fill="none" xmlns="http://www.w3.org/2000/svg">
<g clip-path="url(#clip0)">
<path d="M172.065 142.243C266.183 142.243 342.481 111.229 342.481 72.9711C342.481 34.7134 266.183 3.69946 172.065 3.69946C77.9464 3.69946 1.64844 34.7134 1.64844 72.9711C1.64844 111.229 77.9464 142.243 172.065 142.243Z" fill="#13C1BF"/>
<path fill-rule="evenodd" clip-rule="evenodd" d="M16.132 47.1611C7.70585 55.259 3.23009 63.981 3.23009 72.9712C3.23009 81.9615 7.70585 90.6835 16.132 98.7813C24.562 106.883 36.8447 114.252 52.153 120.475C82.7611 132.917 125.155 140.648 172.062 140.648C218.97 140.648 261.364 132.917 291.972 120.475C307.28 114.252 319.563 106.883 327.993 98.7813C336.419 90.6835 340.895 81.9615 340.895 72.9712C340.895 63.981 336.419 55.259 327.993 47.1611C319.563 39.0595 307.28 31.6901 291.972 25.4675C261.364 13.0258 218.97 5.29428 172.062 5.29428C125.155 5.29428 82.7611 13.0258 52.153 25.4675C36.8447 31.6901 24.562 39.0595 16.132 47.1611ZM50.9671 22.5101C82.0375 9.88049 124.852 2.10498 172.062 2.10498C219.273 2.10498 262.087 9.88049 293.158 22.5101C308.689 28.8232 321.363 36.3806 330.18 44.8541C339.001 53.3313 344.062 62.8326 344.062 72.9712C344.062 83.1098 339.001 92.6112 330.18 101.088C321.363 109.562 308.689 117.119 293.158 123.432C262.087 136.062 219.273 143.837 172.062 143.837C124.852 143.837 82.0375 136.062 50.9671 123.432C35.4361 117.119 22.7619 109.562 13.9449 101.088C5.12398 92.6112 0.0625 83.1098 0.0625 72.9712C0.0625 62.8326 5.12398 53.3313 13.9449 44.8541C22.7619 36.3806 35.4361 28.8232 50.9671 22.5101Z" fill="#071520"/>
<path d="M172.065 142.243C266.183 142.243 342.481 113.685 342.481 78.4567C342.481 43.2286 266.183 14.6707 172.065 14.6707C77.9464 14.6707 1.64844 43.2286 1.64844 78.4567C1.64844 113.685 77.9464 142.243 172.065 142.243Z" fill="#071520"/>
<path fill-rule="evenodd" clip-rule="evenodd" d="M287.448 0.625176C292.353 2.5041 294.817 8.03101 292.951 12.9699L270.778 71.653C268.912 76.5919 263.422 79.0725 258.517 77.1936C253.612 75.3146 251.148 69.7877 253.014 64.8488L275.187 6.16572C277.053 1.22684 282.543 -1.25374 287.448 0.625176Z" fill="#071520"/>
<path fill-rule="evenodd" clip-rule="evenodd" d="M331.804 15.9378C336.707 17.8225 339.164 23.3523 337.292 28.289L314.992 87.0997C313.121 92.0363 307.628 94.5104 302.725 92.6257C297.822 90.741 295.365 85.2112 297.237 80.2745L319.537 21.4638C321.409 16.5271 326.901 14.0531 331.804 15.9378Z" fill="#071520"/>
<path fill-rule="evenodd" clip-rule="evenodd" d="M286.324 3.6071C289.594 4.8612 291.235 8.54656 289.989 11.8386L239.308 145.789C238.062 149.081 234.402 150.733 231.132 149.479C227.863 148.225 226.222 144.54 227.468 141.248L278.149 7.29707C279.394 4.00506 283.055 2.353 286.324 3.6071Z" fill="white"/>
<path fill-rule="evenodd" clip-rule="evenodd" d="M330.674 18.9167C333.943 20.1722 335.583 23.8582 334.336 27.1497L287.455 150.895C286.208 154.186 282.547 155.837 279.278 154.581C276.009 153.326 274.37 149.639 275.617 146.348L322.497 22.6031C323.744 19.3116 327.405 17.6612 330.674 18.9167Z" fill="white"/>
<path fill-rule="evenodd" clip-rule="evenodd" d="M307.329 74.2763L265.391 59.6055L269.549 47.5549L311.488 62.2257L307.329 74.2763Z" fill="white"/>
<path fill-rule="evenodd" clip-rule="evenodd" d="M277.818 50.3037C275.577 50.0854 273.087 50.4077 271.219 52.1872C270.584 52.7924 269.581 52.7643 268.98 52.1245C268.379 51.4847 268.407 50.4755 269.042 49.8702C271.862 47.1847 275.454 46.8692 278.123 47.1292C279.475 47.261 280.657 47.545 281.5 47.7946C281.923 47.9199 282.266 48.038 282.507 48.1267C282.628 48.1711 282.724 48.2082 282.792 48.2355C282.826 48.2491 282.853 48.2602 282.873 48.2685L282.898 48.2788L282.907 48.2823L282.91 48.2837L282.911 48.2842C282.912 48.2845 282.912 48.2847 282.3 49.7404L282.912 48.2847C283.718 48.6283 284.094 49.5642 283.753 50.3751C283.412 51.1851 282.484 51.5639 281.679 51.2225C281.678 51.2221 281.677 51.2217 281.676 51.2213L282.294 49.753C281.676 51.2213 281.677 51.2215 281.677 51.2217L281.672 51.2194L281.626 51.201C281.583 51.1837 281.514 51.1567 281.421 51.1226C281.235 51.0544 280.957 50.9582 280.606 50.8543C279.9 50.6453 278.921 50.4111 277.818 50.3037Z" fill="#071520"/>
<path fill-rule="evenodd" clip-rule="evenodd" d="M303.007 68.8031C303.823 69.1183 304.232 70.0405 303.919 70.8629L301.004 78.5172C300.691 79.3396 299.775 79.7507 298.959 79.4354C298.142 79.1202 297.734 78.198 298.047 77.3756L300.961 69.7213C301.274 68.899 302.19 68.4879 303.007 68.8031Z" fill="#071520"/>
<path fill-rule="evenodd" clip-rule="evenodd" d="M295.025 107.057L253.086 92.2583L257.276 80.219L299.215 95.0173L295.025 107.057Z" fill="white"/>
<path fill-rule="evenodd" clip-rule="evenodd" d="M265.445 83.0242C263.166 82.7757 260.658 83.0768 258.801 84.8457C258.166 85.4509 257.163 85.4229 256.562 84.7831C255.961 84.1433 255.989 83.134 256.624 82.5288C259.455 79.8327 263.092 79.5597 265.786 79.8534C267.154 80.0025 268.35 80.3034 269.204 80.5652C269.632 80.6968 269.979 80.82 270.223 80.9123C270.346 80.9585 270.443 80.997 270.512 81.0252C270.546 81.0393 270.574 81.0508 270.594 81.0594L270.619 81.07L270.627 81.0735L270.63 81.0749L270.632 81.0754C270.632 81.0757 270.633 81.0759 270.003 82.5391L270.633 81.0759C271.435 81.4261 271.804 82.3651 271.456 83.1732C271.109 83.9803 270.178 84.3516 269.376 84.0035C269.375 84.0032 269.375 84.0029 269.374 84.0027L269.368 84.0001L269.321 83.9807C269.277 83.9625 269.206 83.9341 269.111 83.8984C268.921 83.8267 268.638 83.7257 268.28 83.616C267.561 83.3954 266.565 83.1462 265.445 83.0242Z" fill="#071520"/>
<path fill-rule="evenodd" clip-rule="evenodd" d="M290.737 101.598C291.549 101.925 291.944 102.853 291.619 103.67L288.578 111.325C288.253 112.143 287.332 112.54 286.519 112.213C285.707 111.886 285.312 110.958 285.637 110.14L288.678 102.486C289.003 101.668 289.925 101.271 290.737 101.598Z" fill="#071520"/>
<path fill-rule="evenodd" clip-rule="evenodd" d="M282.737 140.1L240.672 125.302L244.851 113.258L286.917 128.057L282.737 140.1Z" fill="white"/>
<path fill-rule="evenodd" clip-rule="evenodd" d="M253.111 116.003C250.87 115.785 248.38 116.107 246.512 117.887C245.877 118.492 244.874 118.464 244.273 117.824C243.672 117.184 243.7 116.175 244.335 115.57C247.155 112.884 250.747 112.569 253.416 112.829C254.768 112.961 255.95 113.245 256.793 113.494C257.216 113.62 257.558 113.738 257.8 113.826C257.921 113.871 258.016 113.908 258.085 113.935C258.119 113.949 258.146 113.96 258.166 113.968L258.191 113.979L258.2 113.982L258.203 113.983L258.204 113.984C258.205 113.984 258.205 113.984 257.592 115.44L258.205 113.984C259.01 114.328 259.387 115.264 259.045 116.075C258.705 116.885 257.777 117.264 256.972 116.922C256.971 116.922 256.97 116.921 256.969 116.921L257.587 115.453C256.969 116.921 256.97 116.921 256.97 116.921L256.965 116.919L256.919 116.901C256.876 116.883 256.807 116.856 256.714 116.822C256.528 116.754 256.25 116.658 255.899 116.554C255.193 116.345 254.214 116.111 253.111 116.003Z" fill="#071520"/>
<path d="M331.328 46.1812V60.9795L324.359 56.5145L331.328 46.1812Z" fill="#071520"/>
<path d="M290.276 20.5391V37.3786H282.547L290.276 20.5391Z" fill="#071520"/>
<path fill-rule="evenodd" clip-rule="evenodd" d="M52.0195 120.48C82.6248 132.92 125.018 140.648 171.938 140.648C218.857 140.648 261.25 132.92 291.855 120.48C307.162 114.258 319.443 106.889 327.871 98.7873C336.295 90.689 340.77 81.9652 340.77 72.9712H343.938C343.938 83.113 338.878 92.616 330.058 101.094C321.243 109.568 308.571 117.125 293.041 123.438C261.974 136.065 219.159 143.837 171.938 143.837C124.716 143.837 81.9014 136.065 50.8337 123.438C35.3041 117.125 22.6319 109.568 13.8166 101.094C4.99728 92.616 -0.0625 83.113 -0.0625 72.9712H3.10509C3.10509 81.9652 7.57975 90.689 16.004 98.7873C24.4322 106.889 36.7127 114.258 52.0195 120.48Z" fill="#071520"/>
</g>
<defs>
<clipPath id="clip0">
<rect width="344" height="144" fill="white"/>
</clipPath>
</defs>
</svg>
