<svg width="600" height="130" viewBox="0 0 600 130" fill="none" xmlns="http://www.w3.org/2000/svg">
<g clip-path="url(#clip0)">
<rect x="35.9375" y="-117.942" width="574.97" height="291.058" transform="rotate(8 35.9375 -117.942)" fill="white"/>
<g clip-path="url(#clip1)">
<path d="M397.94 90.0453C396.433 87.6783 395.289 85.4387 394.399 83.0535C386.481 61.8598 398.957 38.736 421.077 33.9474C433.735 31.2162 444.94 34.4572 454.583 43.1059C455.982 44.3622 455.927 44.3622 454.565 45.6913C454.075 46.1648 453.857 46.1101 453.385 45.6367C445.63 37.9713 436.332 34.3115 425.454 35.2037C409.345 36.5147 396.505 48.0766 393.4 63.9901C391.693 72.7116 393.128 80.9778 397.486 88.7343C397.613 88.971 397.74 89.2077 397.849 89.4444C397.886 89.5537 397.886 89.6629 397.94 90.0453Z" fill="#071520"/>
<path d="M450.262 72.7473C451.097 72.9294 451.606 73.0204 452.096 73.1479C454.021 73.6759 455.419 74.7684 455.728 76.844C456.055 78.9743 455.565 80.8861 453.767 82.2517C451.424 84.0543 446.648 84.0907 444.251 82.3792C443.96 82.1789 443.797 81.9968 444.014 81.6509C444.069 81.578 444.577 80.1942 444.977 79.648C445.159 79.5388 445.994 80.1578 446.575 80.3217C447.774 80.6859 448.972 80.9226 450.207 80.5584C451.569 80.1578 452.405 79.0472 452.368 77.6816C452.332 76.4799 451.587 75.7334 450.098 75.3874C449.208 75.1871 448.3 75.1871 447.41 75.4056C446.866 75.5513 446.666 75.4056 446.412 74.8958C445.903 73.8944 446.012 73.2025 446.902 72.4196C448.3 71.1632 451.043 68.25 451.043 68.25H445.14C445.14 68.25 444.414 68.159 444.414 67.5581C444.396 65.3004 444.378 65.3004 446.611 65.3004C449.317 65.3004 452.041 65.3186 454.747 65.2822C455.347 65.2822 455.565 65.3732 455.583 66.0469C455.619 67.0847 455.383 67.8859 454.584 68.596C453.149 69.8887 451.824 71.2543 450.262 72.7473Z" fill="#071520"/>
<path d="M414.683 96.1084C414.066 96.4362 413.43 96.6546 412.777 96.8003C412.105 96.946 411.433 97.0188 410.743 97.0188C410.016 97.0188 409.326 96.9096 408.709 96.6729C408.091 96.4362 407.546 96.1084 407.11 95.6896C406.656 95.2527 406.311 94.7428 406.057 94.1238C405.803 93.5047 405.676 92.831 405.676 92.0663C405.676 91.3198 405.803 90.6279 406.057 90.0088C406.311 89.3898 406.656 88.88 407.11 88.443C407.564 88.006 408.091 87.6783 408.709 87.4598C409.326 87.2231 409.998 87.1138 410.743 87.1138C411.487 87.1138 412.195 87.2049 412.813 87.3869C413.449 87.569 413.993 87.8785 414.484 88.3337L413.031 89.936C412.74 89.6447 412.432 89.4262 412.068 89.2623C411.723 89.1167 411.269 89.0438 410.743 89.0438C410.307 89.0438 409.907 89.1167 409.544 89.2623C409.181 89.408 408.872 89.6265 408.618 89.8996C408.364 90.1727 408.164 90.5005 408.019 90.8646C407.873 91.2288 407.819 91.6475 407.819 92.0845C407.819 92.5215 407.891 92.9403 408.019 93.3044C408.164 93.6686 408.345 93.9963 408.618 94.2694C408.872 94.5426 409.181 94.7428 409.544 94.9067C409.907 95.0524 410.307 95.1252 410.743 95.1252C411.197 95.1252 411.578 95.0706 411.905 94.9795C412.232 94.8703 412.486 94.7793 412.686 94.67V93.0859H410.997V91.1741H414.665V96.1084H414.683Z" fill="#071520"/>
<path d="M417.406 87.3502H421.038C421.511 87.3502 421.965 87.4048 422.4 87.4958C422.836 87.5869 423.199 87.7507 423.526 87.9692C423.853 88.1877 424.108 88.479 424.289 88.8432C424.471 89.2073 424.58 89.6625 424.58 90.227C424.58 90.9007 424.398 91.4651 424.053 91.9203C423.708 92.3937 423.199 92.685 422.546 92.8125L424.943 96.7999H422.455L420.512 92.9945H419.495V96.7635H417.424V87.3502H417.406ZM419.477 91.2466H420.693C420.875 91.2466 421.075 91.2466 421.293 91.2284C421.492 91.2102 421.692 91.1738 421.856 91.1009C422.019 91.0281 422.164 90.9371 422.273 90.7914C422.382 90.6457 422.437 90.4455 422.437 90.1906C422.437 89.9539 422.382 89.7536 422.291 89.6261C422.201 89.4805 422.074 89.3712 421.928 89.2984C421.783 89.2256 421.601 89.1709 421.402 89.1527C421.202 89.1345 421.02 89.1163 420.839 89.1163H419.477V91.2466Z" fill="#071520"/>
<path d="M426.434 92.0476C426.434 91.3011 426.561 90.6092 426.815 89.9902C427.069 89.3711 427.414 88.8613 427.868 88.4243C428.322 87.9873 428.849 87.6596 429.466 87.4411C430.084 87.2044 430.756 87.0952 431.5 87.0952C432.227 87.0952 432.917 87.2044 433.534 87.4411C434.152 87.6778 434.697 88.0055 435.133 88.4243C435.568 88.8431 435.932 89.3711 436.186 89.9902C436.44 90.6092 436.567 91.2829 436.567 92.0476C436.567 92.7942 436.44 93.4861 436.186 94.1051C435.932 94.7242 435.587 95.234 435.133 95.671C434.679 96.108 434.152 96.4357 433.534 96.6542C432.917 96.8909 432.245 97.0001 431.5 97.0001C430.774 97.0001 430.084 96.8909 429.466 96.6542C428.849 96.4175 428.304 96.0898 427.868 95.671C427.414 95.234 427.069 94.7242 426.815 94.1051C426.543 93.4861 426.434 92.8124 426.434 92.0476ZM428.577 92.0476C428.577 92.4846 428.649 92.9034 428.776 93.2676C428.922 93.6317 429.103 93.9595 429.376 94.2326C429.63 94.5057 429.939 94.706 430.302 94.8698C430.665 95.0155 431.065 95.0883 431.5 95.0883C431.936 95.0883 432.336 95.0155 432.699 94.8698C433.062 94.7242 433.371 94.5057 433.625 94.2326C433.879 93.9595 434.079 93.6499 434.225 93.2676C434.37 92.9034 434.424 92.5028 434.424 92.0476C434.424 91.6107 434.352 91.2101 434.225 90.8277C434.079 90.4636 433.898 90.1358 433.625 89.8627C433.371 89.5896 433.062 89.3893 432.699 89.2255C432.336 89.0798 431.936 89.007 431.5 89.007C431.065 89.007 430.665 89.0798 430.302 89.2255C429.939 89.3711 429.63 89.5896 429.376 89.8627C429.121 90.1358 428.922 90.4636 428.776 90.8277C428.649 91.2101 428.577 91.6289 428.577 92.0476Z" fill="#071520"/>
<path d="M437.91 87.3502H440.162L441.669 93.3951H441.688L443.649 87.3502H445.574L447.517 93.559H447.535L449.115 87.3502H451.204L448.48 96.7635H446.627L444.557 90.2452H444.539L442.468 96.7635H440.689L437.91 87.3502Z" fill="#071520"/>
<path d="M454.891 89.1891H452.203V87.3502H459.631V89.1891H456.943V96.7817H454.873V89.1891H454.891Z" fill="#071520"/>
<path d="M461.609 87.3502H463.68V90.8642H467.693V87.3502H469.764V96.7635H467.693V92.685H463.68V96.7635H461.609V87.3502Z" fill="#071520"/>
<path d="M464.172 72.7473C465.007 72.9294 465.516 73.0204 466.006 73.1479C467.931 73.6759 469.33 74.7684 469.638 76.844C469.965 78.9743 469.475 80.8861 467.677 82.2517C465.334 84.0543 460.558 84.0907 458.161 82.3792C457.87 82.1789 457.707 81.9968 457.925 81.6509C457.979 81.578 458.488 80.1942 458.887 79.648C459.069 79.5388 459.904 80.1578 460.485 80.3217C461.684 80.6859 462.882 80.9226 464.117 80.5584C465.479 80.1578 466.315 79.0472 466.279 77.6816C466.242 76.4799 465.498 75.7334 464.008 75.3874C463.119 75.1871 462.211 75.1871 461.321 75.4056C460.776 75.5513 460.576 75.4056 460.322 74.8958C459.813 73.8944 459.922 73.2025 460.812 72.4196C462.211 71.1632 464.953 68.25 464.953 68.25H459.051C459.051 68.25 458.324 68.159 458.324 67.5581C458.306 65.3004 458.288 65.3004 460.522 65.3004C463.228 65.3004 465.952 65.3186 468.658 65.2822C469.257 65.2822 469.475 65.3732 469.493 66.0469C469.529 67.0847 469.293 67.8859 468.494 68.596C467.059 69.8887 465.734 71.2543 464.172 72.7473Z" fill="#071520"/>
<path d="M470.001 44.6529C464.281 47.1656 458.814 49.5872 453.094 52.118C455.564 52.7553 457.779 53.338 459.995 53.866C460.267 53.9206 460.467 54.0299 460.594 54.1573L470.001 44.6529Z" fill="#071520"/>
<path d="M460.958 54.831C461.503 57.0523 462.121 59.2555 462.756 61.6589C465.19 55.9599 467.551 50.4247 470.002 44.6529L460.613 54.1391C460.777 54.303 460.886 54.5215 460.958 54.831Z" fill="#071520"/>
<path d="M437.894 49.7693L424.165 74.2404L410.435 49.7693H406.73V83.6356L412.615 83.6902V65.1002L422.603 83.9451H424.165H425.727L435.697 65.1002V83.6902L441.581 83.6356V49.7693H437.894Z" fill="#071520"/>
</g>
<g clip-path="url(#clip2)">
<path d="M144.084 52.8868C144.084 53.6137 144.084 54.2905 144.084 54.9673C144.084 56.3208 144.084 57.6744 144.084 59.028C144.084 59.6296 143.785 59.9304 143.186 59.9304C142.114 59.9304 141.016 59.9304 139.944 59.9304C139.245 59.9304 138.996 59.6547 138.996 58.9528C138.996 52.9619 138.996 46.9711 138.996 40.9552C138.996 40.9301 138.996 40.88 138.996 40.8549C138.996 40.2533 139.221 40.0027 139.819 40.0027C142.563 40.0027 145.281 39.9776 148.025 40.0277C149.721 40.0528 151.342 40.4288 152.763 41.3813C154.709 42.7098 155.382 44.6399 155.257 46.921C155.133 49.1017 154.085 50.6809 152.215 51.7588C151.791 52.0094 151.791 52.0094 152.015 52.4356C153.187 54.5662 154.36 56.6968 155.582 58.8275C155.931 59.4291 155.557 59.9555 154.933 59.9304C153.836 59.8803 152.738 59.8803 151.641 59.9304C150.918 59.9555 150.469 59.6547 150.145 59.028C149.172 57.0979 148.149 55.1678 147.177 53.2126C147.052 52.962 146.902 52.8868 146.628 52.8868C145.78 52.8868 144.957 52.8868 144.084 52.8868ZM144.084 48.826C145.281 48.826 146.453 48.8511 147.601 48.826C149.172 48.8009 150.045 47.8234 149.97 46.2442C149.92 44.8655 149.097 44.0133 147.725 43.9631C146.628 43.913 145.506 43.9381 144.408 43.9381C144.159 43.9381 144.084 44.0383 144.084 44.2639C144.084 45.0911 144.084 45.8932 144.084 46.7204C144.084 47.4223 144.084 48.0991 144.084 48.826Z" fill="#071520"/>
<path d="M171.195 46.4196C171.719 46.0687 172.168 45.7428 172.667 45.4671C173.889 44.7652 175.211 44.7151 176.558 44.9407C179.152 45.3919 180.598 47.1214 181.122 49.603C181.596 51.8088 181.596 54.0397 180.922 56.1954C180.149 58.7522 178.204 60.1309 175.535 60.181C173.839 60.2061 172.343 59.7549 171.146 58.5015C171.121 58.4765 171.071 58.4514 170.971 58.3762C170.971 58.6519 170.971 58.8525 170.971 59.053C170.946 59.6295 170.647 59.9053 170.073 59.9053C169.125 59.9053 168.178 59.9053 167.255 59.9053C166.631 59.9053 166.332 59.6295 166.332 59.0029C166.332 52.8867 166.332 46.7454 166.332 40.6293C166.332 39.9525 166.606 39.7018 167.255 39.7018C168.277 39.7018 169.275 39.7018 170.298 39.7018C170.946 39.7018 171.195 39.9525 171.195 40.6293C171.195 42.434 171.195 44.2639 171.195 46.0687C171.195 46.194 171.195 46.2943 171.195 46.4196ZM176.458 52.5358C176.408 52.5358 176.383 52.5358 176.333 52.5107C176.333 52.1096 176.358 51.7336 176.333 51.3326C176.258 50.6307 176.109 49.9539 175.66 49.3774C174.986 48.5753 174.089 48.5252 173.166 48.7006C172.118 48.9011 171.47 49.6281 171.32 50.6558C171.171 51.7086 171.22 52.7864 171.245 53.8392C171.245 54.2152 171.395 54.6413 171.57 54.9923C172.043 55.9949 172.842 56.396 173.939 56.3458C175.061 56.2957 175.859 55.7443 176.109 54.6413C176.308 53.9645 176.358 53.2627 176.458 52.5358Z" fill="#071520"/>
<path d="M189.077 46.3695C189.726 45.9935 190.299 45.5172 190.948 45.2666C193.691 44.1887 197.682 44.9156 198.854 49.0766C199.228 50.4052 199.303 51.7587 199.253 53.1123C199.228 54.115 199.128 55.0926 198.829 56.0451C198.006 58.8024 195.811 60.3063 192.893 60.1559C191.397 60.0807 190.1 59.5794 189.027 58.5016C188.978 58.4514 188.928 58.4264 188.803 58.3261C188.803 58.6018 188.803 58.8274 188.803 59.053C188.803 59.5794 188.504 59.8802 187.955 59.8802C186.982 59.8802 186.01 59.8802 185.012 59.8802C184.463 59.8802 184.189 59.6045 184.164 59.053C184.164 58.9778 184.164 58.9026 184.164 58.8274C184.164 52.7865 184.164 46.7705 184.164 40.7296C184.164 40.6293 184.164 40.504 184.164 40.4037C184.214 39.9274 184.438 39.6768 184.912 39.6517C186.035 39.6266 187.182 39.6266 188.304 39.6517C188.803 39.6517 189.052 39.9776 189.052 40.529C189.052 41.9077 189.052 43.3114 189.052 44.69C189.077 45.3167 189.077 45.8431 189.077 46.3695ZM194.29 52.5358C194.24 51.9342 194.19 51.3326 194.09 50.731C193.966 50.0041 193.691 49.2772 192.968 48.9262C191.522 48.2494 189.576 48.6254 189.177 50.6809C188.978 51.7086 189.077 52.7865 189.102 53.8142C189.127 54.4408 189.352 55.0675 189.776 55.5688C190.474 56.396 191.422 56.4712 192.394 56.2957C193.043 56.1704 193.492 55.7944 193.766 55.1928C194.215 54.3656 194.265 53.4632 194.29 52.5358Z" fill="#071520"/>
<path d="M211.823 45.0911C211.823 44.8905 211.823 44.7652 211.823 44.6148C211.823 43.2863 211.823 41.9578 211.823 40.6293C211.823 39.9525 212.073 39.7018 212.721 39.7018C213.694 39.7018 214.667 39.7018 215.614 39.7018C216.263 39.7018 216.512 39.9525 216.512 40.6042C216.512 41.9578 216.512 43.3364 216.512 44.69C216.512 44.8153 216.512 44.9156 216.512 45.066C216.637 45.066 216.712 45.0911 216.812 45.0911C217.809 45.0911 218.807 45.0911 219.829 45.0911C220.503 45.0911 220.777 45.3668 220.777 46.0436C220.777 46.6702 220.777 47.2969 220.777 47.9236C220.777 48.6004 220.578 48.826 219.904 48.826C218.907 48.826 217.934 48.826 216.936 48.826C216.637 48.826 216.512 48.9011 216.537 49.227C216.562 50.731 216.537 52.26 216.537 53.7891C216.537 54.0147 216.537 54.2403 216.562 54.4659C216.762 55.6941 217.236 56.045 218.258 56.045C218.907 56.045 219.53 56.045 220.179 56.045C220.802 56.045 221.027 56.2706 221.027 56.9224C221.027 57.6493 221.027 58.3762 221.027 59.1031C221.027 59.6797 220.752 59.9554 220.179 59.9554C219.156 59.9554 218.158 60.0055 217.136 59.9303C215.964 59.8551 214.816 59.6295 213.819 58.9277C212.497 58.0002 211.948 56.6466 211.873 55.1176C211.799 53.1875 211.823 51.2574 211.823 49.3273C211.823 48.851 211.823 48.851 211.375 48.851C210.776 48.851 210.202 48.851 209.604 48.851C209.18 48.851 208.93 48.6505 208.905 48.2494C208.88 47.4222 208.88 46.595 208.905 45.7679C208.93 45.3668 209.255 45.1412 209.753 45.1412C210.302 45.1412 210.826 45.1412 211.375 45.1412C211.499 45.0911 211.624 45.0911 211.823 45.0911Z" fill="#071520"/>
<path d="M162.99 52.5107C162.99 54.6664 162.99 56.8221 162.99 58.9778C162.99 59.6797 162.741 59.9053 162.042 59.9053C161.07 59.9053 160.097 59.9053 159.099 59.9053C158.501 59.9053 158.227 59.6296 158.227 59.053C158.227 54.7166 158.227 50.355 158.227 46.0185C158.227 45.417 158.426 45.1663 159.025 45.1663C160.072 45.1412 161.145 45.1412 162.217 45.1663C162.816 45.1914 162.99 45.417 162.99 46.0436C162.99 48.1742 162.99 50.355 162.99 52.5107Z" fill="#071520"/>
<path d="M206.809 52.5358C206.809 54.6665 206.809 56.7971 206.809 58.9277C206.809 59.6797 206.585 59.9053 205.836 59.9053C204.864 59.9053 203.891 59.9053 202.943 59.9053C202.32 59.9053 202.07 59.6296 202.07 59.0029C202.07 54.6665 202.07 50.33 202.07 45.9935C202.07 45.3919 202.27 45.1413 202.868 45.1162C203.916 45.0911 204.988 45.0911 206.061 45.1162C206.659 45.1413 206.834 45.3669 206.834 45.9685C206.809 48.1743 206.809 50.3551 206.809 52.5358Z" fill="#071520"/>
<path d="M204.416 42.9855C203.892 42.9855 203.369 42.9855 202.87 42.9855C202.321 42.9855 202.072 42.7349 202.047 42.1834C202.047 41.3813 202.047 40.5792 202.047 39.7771C202.047 39.3259 202.321 39.0251 202.77 39.0251C203.868 39 204.99 39 206.087 39C206.511 39 206.811 39.3008 206.811 39.7269C206.835 40.5792 206.835 41.4064 206.811 42.2586C206.811 42.7349 206.511 42.9855 206.037 42.9855C205.489 42.9855 204.965 42.9855 204.416 42.9855Z" fill="#071520"/>
<path d="M160.621 42.9856C160.097 42.9856 159.548 42.9856 159.025 42.9856C158.501 42.9856 158.252 42.7349 158.227 42.2085C158.227 41.4064 158.227 40.6043 158.227 39.8021C158.227 39.3259 158.501 39.0251 159 39.0251C160.072 39.0251 161.145 39.0251 162.217 39.0251C162.691 39.0251 162.99 39.3259 162.99 39.8021C162.99 40.6043 163.015 41.4064 162.99 42.2085C162.99 42.7349 162.716 42.9856 162.192 42.9856C161.668 42.9856 161.145 42.9856 160.621 42.9856Z" fill="#071520"/>
<path d="M173.891 72.7142C174.016 72.639 174.066 72.6139 174.116 72.5638C175.438 71.0347 177.133 70.5084 179.079 70.6086C180.376 70.6838 181.523 71.0347 182.521 71.887C183.568 72.7894 184.142 73.9675 184.441 75.296C184.815 77.0256 184.84 78.7552 184.591 80.4847C184.341 82.2645 183.668 83.8436 182.171 84.9215C181.049 85.7487 179.752 85.9492 178.381 85.9241C176.66 85.8991 175.263 85.2223 174.116 83.969C174.066 83.9188 174.016 83.8938 173.891 83.7935C173.891 83.994 173.891 84.1194 173.891 84.2698C173.891 86.2249 173.891 88.2052 173.891 90.1603C173.891 90.9625 173.168 91.3635 172.47 90.9374C172.345 90.8622 172.245 90.6867 172.195 90.5113C172.145 90.3609 172.17 90.2105 172.17 90.0601C172.17 83.969 172.17 77.8528 172.17 71.7617C172.17 71.5361 172.195 71.2353 172.32 71.0598C172.619 70.7089 173.068 70.8091 173.442 70.8843C173.791 70.9595 173.866 71.2603 173.866 71.5862C173.891 71.9371 173.891 72.2881 173.891 72.7142ZM173.841 78.4293C173.891 79.0309 173.891 79.6325 173.991 80.2341C174.24 81.7381 174.914 82.9663 176.261 83.7434C177.258 84.345 178.356 84.37 179.478 84.1946C180.176 84.0943 180.775 83.8186 181.324 83.3674C182.221 82.6154 182.595 81.5877 182.795 80.4847C183.119 78.8053 183.094 77.1259 182.67 75.4464C182.371 74.3184 181.822 73.3659 180.8 72.7643C179.977 72.263 179.054 72.1878 178.106 72.2379C176.36 72.3131 174.939 73.416 174.365 75.0704C173.991 76.1733 173.841 77.2763 173.841 78.4293Z" fill="#071520"/>
<path d="M138 75.6719C138.125 74.1429 138.15 72.6138 138.399 71.1099C138.723 69.2048 139.621 67.6256 141.267 66.5227C142.14 65.9462 143.113 65.6705 144.11 65.5451C145.557 65.3446 146.979 65.3697 148.375 65.7958C150.321 66.3723 151.817 67.5254 152.615 69.4304C152.89 70.0821 152.989 70.784 153.139 71.4859C153.214 71.912 152.989 72.1376 152.565 72.1376C152.54 72.1376 152.515 72.1376 152.49 72.1376C151.543 72.1626 151.568 72.1376 151.293 71.2101C151.119 70.6085 150.894 70.0069 150.62 69.4555C149.971 68.2022 148.824 67.6256 147.502 67.3249C146.38 67.0742 145.258 67.0491 144.135 67.2747C142.015 67.6758 140.494 69.2048 140.12 71.3355C139.721 73.6165 139.846 75.9226 139.92 78.2036C139.945 79.106 140.12 80.0335 140.394 80.8857C140.968 82.7156 142.34 83.7182 144.185 84.0691C145.682 84.3699 147.153 84.1945 148.6 83.643C149.922 83.1417 150.695 82.139 151.119 80.8607C151.243 80.4596 151.343 80.0585 151.468 79.6575C151.543 79.3817 151.742 79.2564 151.992 79.2063C152.042 79.2063 152.091 79.2063 152.141 79.2063C153.014 79.1561 153.289 79.3817 153.139 80.234C152.74 82.49 151.593 84.1443 149.523 85.1219C147.602 86.0243 145.607 86.0744 143.562 85.6734C140.818 85.1219 139.247 83.3673 138.499 80.7103C138.025 79.0308 138.125 77.3263 138.1 75.6218C138.075 75.6719 138.025 75.6719 138 75.6719Z" fill="#071520"/>
<path d="M214.044 83.7935C213.62 84.1695 213.321 84.5204 212.947 84.8212C211.575 85.8489 210.004 86.0745 208.382 85.899C206.786 85.7236 205.464 85.0217 204.566 83.618C203.469 81.9386 203.993 79.6575 205.639 78.5295C206.961 77.6272 208.432 77.2512 209.979 77.0256C211.251 76.8501 212.498 76.6746 213.77 76.4992C214.019 76.4741 214.119 76.3738 214.094 76.1232C214.044 75.5717 214.069 74.9952 213.944 74.4688C213.72 73.4662 213.096 72.7643 212.074 72.4635C210.901 72.1126 209.704 72.0875 208.532 72.4635C207.684 72.7392 207.085 73.2656 206.711 74.0928C206.437 74.6944 206.337 74.7696 205.689 74.7195C205.19 74.6944 204.866 74.3435 205.04 73.8672C205.215 73.3659 205.464 72.8395 205.789 72.4134C206.836 71.1099 208.283 70.6086 209.904 70.5585C211.201 70.5083 212.473 70.6587 213.62 71.3355C214.967 72.1126 215.665 73.3408 215.715 74.8197C215.815 78.1536 215.79 81.5124 215.815 84.8463C215.815 85.147 215.765 85.4729 215.416 85.5732C215.042 85.6734 214.593 85.7486 214.268 85.4478C214.144 85.3225 214.094 85.0719 214.069 84.8713C214.019 84.5455 214.044 84.1945 214.044 83.7935ZM213.994 78.0784C213.894 78.0784 213.819 78.0784 213.72 78.0784C212.398 78.2789 211.076 78.4293 209.779 78.6549C208.806 78.8053 207.834 79.081 206.986 79.5823C205.315 80.585 205.265 82.7156 206.911 83.6431C208.532 84.5705 210.253 84.5455 211.874 83.618C213.794 82.465 214.194 80.209 213.994 78.0784Z" fill="#071520"/>
<path d="M165.959 83.7434C165.685 84.0442 165.486 84.2447 165.286 84.4452C163.964 85.6735 162.368 85.9994 160.647 85.9242C159.101 85.849 157.779 85.2474 156.756 84.0191C155.335 82.3146 155.734 79.7578 157.554 78.5045C158.876 77.6272 160.323 77.2261 161.844 77.0256C163.116 76.8501 164.363 76.6747 165.635 76.4992C165.91 76.4742 165.984 76.3488 165.959 76.0982C165.91 75.6219 165.959 75.1456 165.86 74.6944C165.61 73.391 164.787 72.5889 163.465 72.3633C162.443 72.1878 161.42 72.1627 160.423 72.4886C159.55 72.7643 158.901 73.3409 158.552 74.1931C158.303 74.7446 157.854 74.9451 157.28 74.7446C156.956 74.6443 156.781 74.3184 156.881 73.9425C157.106 72.9649 157.729 72.2379 158.502 71.6614C159.55 70.9094 160.747 70.6337 161.994 70.6337C163.216 70.6337 164.388 70.7841 165.461 71.4108C166.783 72.1878 167.431 73.391 167.581 74.8699C167.655 75.7222 167.655 76.5744 167.655 77.4267C167.655 79.8832 167.655 82.3397 167.655 84.7962C167.655 85.7487 167.157 85.849 166.284 85.6735C166.134 85.6484 165.959 85.3727 165.935 85.1722C165.885 84.8714 165.91 84.5706 165.91 84.2447C165.959 84.0442 165.959 83.9439 165.959 83.7434ZM165.91 78.0784C165.835 78.0784 165.735 78.0784 165.635 78.0784C164.313 78.2789 162.967 78.4544 161.645 78.6549C160.597 78.8304 159.55 79.081 158.677 79.7077C157.13 80.8106 157.255 82.8159 158.926 83.7183C159.924 84.2447 160.971 84.3951 162.069 84.2196C163.141 84.0442 164.089 83.593 164.787 82.7157C165.461 81.9135 165.785 80.961 165.86 79.9584C165.935 79.3317 165.91 78.7051 165.91 78.0784Z" fill="#071520"/>
<path d="M195.988 77.0506C195.988 75.6971 195.988 74.3184 195.988 72.9648C195.988 72.6139 195.938 72.4886 195.539 72.5136C195.015 72.5387 194.466 72.5387 193.943 72.5136C193.294 72.4886 193.145 72.3131 193.145 71.6363C193.169 71.0598 193.369 70.8593 193.968 70.8593C194.516 70.8593 195.065 70.8342 195.639 70.8593C195.913 70.8593 195.988 70.7841 195.988 70.5334C195.988 69.1297 195.963 67.726 195.988 66.3473C195.988 66.1217 196.038 65.7959 196.187 65.6705C196.512 65.3697 196.96 65.4449 197.359 65.5452C197.684 65.6455 197.709 65.9463 197.709 66.2471C197.709 67.6508 197.709 69.0796 197.709 70.4833C197.709 70.8091 197.808 70.8843 198.108 70.8843C199.08 70.8593 200.053 70.8843 201.051 70.8843C201.375 70.8843 201.649 70.9345 201.774 71.2603C201.924 71.6113 201.924 72.0123 201.699 72.3131C201.599 72.4635 201.325 72.5387 201.15 72.5387C200.128 72.5638 199.13 72.5638 198.108 72.5387C197.783 72.5387 197.709 72.639 197.709 72.9398C197.709 75.5717 197.709 78.2037 197.709 80.8357C197.709 81.5375 197.783 82.2394 198.083 82.9162C198.382 83.618 198.931 83.969 199.679 84.0191C200.278 84.0692 200.851 84.0441 201.45 84.0441C201.949 84.0441 202.148 84.2697 202.148 84.8463C202.148 85.4228 201.974 85.6735 201.475 85.6735C200.577 85.6484 199.679 85.6735 198.806 85.5481C197.484 85.3727 196.661 84.4953 196.362 83.242C196.137 82.4148 196.063 81.5375 196.013 80.6853C195.963 79.4821 195.988 78.2538 195.988 77.0506Z" fill="#071520"/>
<path d="M222.001 75.5717C222.001 78.6298 222.001 81.713 222.001 84.771C222.001 85.0718 222.05 85.4729 221.701 85.5732C221.352 85.6734 220.953 85.6233 220.579 85.5732C220.454 85.5481 220.354 85.2974 220.305 85.122C220.255 85.0217 220.28 84.8964 220.28 84.771C220.28 78.6549 220.28 72.5136 220.28 66.3974C220.28 65.5703 220.978 65.1692 221.701 65.5703C221.976 65.7206 222.001 65.9713 222.001 66.247C222.001 67.2998 222.001 68.3275 222.001 69.3803C222.001 71.4107 222.001 73.4912 222.001 75.5717Z" fill="#071520"/>
<path d="M190.301 78.2538C190.301 80.4346 190.301 82.6153 190.301 84.7961C190.301 85.0969 190.35 85.4729 190.001 85.5481C189.627 85.6233 189.228 85.5732 188.829 85.523C188.754 85.523 188.654 85.3225 188.605 85.1972C188.555 85.0217 188.555 84.8212 188.555 84.6457C188.555 80.3844 188.555 76.1482 188.555 71.887C188.555 71.7115 188.555 71.5611 188.58 71.3856C188.605 71.2603 188.654 71.135 188.729 71.0347C189.054 70.7088 189.477 70.784 189.877 70.8843C190.226 70.9846 190.276 71.2854 190.276 71.6363C190.301 73.8421 190.301 76.048 190.301 78.2538Z" fill="#071520"/>
<path d="M189.453 65.47C190.526 65.3948 190.651 65.6705 190.651 66.6481C190.626 67.7259 190.551 67.8262 189.478 67.8262C188.356 67.8262 188.281 67.751 188.281 66.623C188.281 66.5478 188.281 66.4476 188.281 66.3724C188.281 65.6454 188.481 65.47 189.179 65.47C189.254 65.47 189.354 65.47 189.453 65.47Z" fill="#071520"/>
</g>
</g>
<defs>
<clipPath id="clip0">
<rect width="600" height="130" fill="white"/>
</clipPath>
<clipPath id="clip1">
<rect width="78" height="64" fill="white" transform="translate(392 33)"/>
</clipPath>
<clipPath id="clip2">
<rect width="84" height="52.1379" fill="white" transform="translate(138 39)"/>
</clipPath>
</defs>
</svg>
