<svg width="162" height="48" viewBox="0 0 162 48" fill="none" xmlns="http://www.w3.org/2000/svg">
<g clip-path="url(#clip0)">
<path d="M156.242 0H5.67236C2.53832 0 0 2.53927 0 5.67449V42.3255C0 45.4607 2.53832 48 5.67236 48H156.242C159.376 48 161.915 45.4607 161.915 42.3255V5.67449C161.915 2.53927 159.376 0 156.242 0ZM160.853 42.3255C160.853 44.8648 158.807 46.9117 156.268 46.9117H5.69826C3.15994 46.9117 1.08785 44.8648 1.08785 42.3255V5.67449C1.08785 3.13522 3.15994 1.06235 5.69826 1.06235H156.268C158.807 1.06235 160.879 3.10931 160.879 5.67449L160.853 42.3255Z" fill="#071520"/>
<path d="M36.1534 23.7408C36.1275 19.8801 39.3134 17.9886 39.4688 17.9109C37.6557 15.2679 34.8584 14.9052 33.8482 14.8793C31.4912 14.6202 29.2119 16.3044 27.9945 16.3044C26.7772 16.3044 24.9123 14.9052 22.9179 14.957C20.3537 15.0088 17.9449 16.4858 16.6174 18.7918C13.8978 23.5076 15.9181 30.4259 18.5341 34.2153C19.8292 36.0809 21.3574 38.1538 23.3518 38.0761C25.2943 37.9983 26.0196 36.8323 28.3766 36.8323C30.7077 36.8323 31.3811 38.0761 33.4273 38.0242C35.5253 37.9983 36.8463 36.1587 38.0895 34.2672C39.5918 32.1425 40.1875 30.0178 40.2134 29.9141C40.2199 29.9076 36.2052 28.3789 36.1534 23.7408Z" fill="#071520"/>
<path d="M32.3192 12.366C33.3552 11.0445 34.0805 9.28257 33.8733 7.46881C32.3451 7.54654 30.4543 8.53116 29.3664 9.80079C28.4081 10.9409 27.5274 12.7805 27.7605 14.5166C29.4636 14.6461 31.2313 13.6615 32.3192 12.366Z" fill="#071520"/>
<path d="M86.0879 26.0211C84.3525 26.0211 83.0575 26.7207 82.2028 28.094H82.151L81.9956 26.2802H79.7422C79.8199 27.5758 79.8458 28.8454 79.8458 30.0632V42.481H82.41V36.4438C83.0834 37.532 84.1712 38.0762 85.6994 38.0762C87.1239 38.0762 88.2895 37.558 89.2478 36.5474C90.3098 35.4074 90.8537 33.8786 90.8537 31.9094C90.8537 30.1733 90.3875 28.7482 89.4809 27.6341C88.5744 26.5652 87.4348 26.0211 86.0879 26.0211ZM87.4348 34.9345C86.8908 35.6859 86.1397 36.0486 85.1814 36.0486C84.3785 36.0486 83.705 35.7636 83.187 35.1936C82.669 34.6235 82.41 33.898 82.41 33.0689V31.1515C82.41 30.9442 82.4618 30.6851 82.5395 30.3742C82.6949 29.6746 83.0316 29.1304 83.5496 28.7159C84.0676 28.3013 84.6375 28.094 85.2591 28.094C86.1915 28.094 86.9426 28.4827 87.4866 29.2341C87.9787 29.9596 88.2377 30.8924 88.2377 32.0065C88.2377 33.2244 87.9787 34.209 87.4348 34.9345Z" fill="#071520"/>
<path d="M72.8458 26.0211C71.1104 26.0211 69.8154 26.7207 68.9606 28.094H68.9088L68.7534 26.2802H66.5C66.5777 27.5758 66.6036 28.8454 66.6036 30.0632V42.481H69.1419V36.4438C69.8154 37.532 70.9032 38.0762 72.4314 38.0762C73.8559 38.0762 75.0215 37.558 75.9798 36.5474C77.0418 35.4074 77.5857 33.8786 77.5857 31.9094C77.5857 30.1733 77.1454 28.7482 76.2388 27.6341C75.3323 26.5652 74.1926 26.0211 72.8458 26.0211ZM74.1927 34.9345C73.6487 35.6859 72.8976 36.0486 71.9392 36.0486C71.1363 36.0486 70.4629 35.7636 69.9449 35.1936C69.4268 34.6235 69.1678 33.898 69.1678 33.0689V31.1515C69.1937 30.8924 69.2196 30.6333 69.2973 30.3742C69.4527 29.6746 69.7895 29.1304 70.3075 28.7159C70.8255 28.3013 71.3953 28.094 72.0169 28.094C72.9494 28.094 73.7005 28.4827 74.2445 29.2341C74.7366 29.9596 74.9956 30.8924 74.9956 32.0065C74.9956 33.2244 74.7366 34.209 74.1927 34.9345Z" fill="#071520"/>
<path d="M56.0581 21.8494L50.9297 37.817H53.5716L54.9962 33.1271H60.1764L61.6787 37.817H64.3983L59.244 21.8494H56.0581ZM55.4624 31.1514L56.7834 26.9797C57.1201 25.6583 57.3791 24.6477 57.5345 23.9741H57.5863C57.9748 25.5546 58.2338 26.5652 58.3892 26.9797L59.7361 31.1514H55.4624Z" fill="#071520"/>
<path d="M111.329 23.43L108.816 24.1814V26.2802H107.133V28.1976H108.816V34.0017C108.816 35.4527 109.101 36.4891 109.671 37.111C110.241 37.7328 111.018 38.0438 112.028 38.0438C112.857 38.0438 113.53 37.9401 114.023 37.7587L113.945 35.8154C113.634 35.9191 113.271 35.945 112.805 35.945C111.795 35.945 111.303 35.2454 111.303 33.8203V28.2235H114.126L114.152 26.3061H111.329V23.43Z" fill="#071520"/>
<path d="M101.61 28.6381C100.47 28.1717 99.6933 27.7831 99.2789 27.3944C98.7868 27.0057 98.5537 26.4616 98.5537 25.8398C98.5537 25.2697 98.7868 24.7774 99.2012 24.3887C99.7192 23.9483 100.419 23.7151 101.325 23.7151C102.465 23.7151 103.475 23.9483 104.381 24.4406L105.029 22.3677C104.071 21.8754 102.853 21.6163 101.403 21.6163C99.797 21.6163 98.476 22.0308 97.4917 22.86C96.5075 23.6891 96.0154 24.7515 96.0154 26.073C96.0154 28.094 97.414 29.6227 100.211 30.6592C101.247 31.0478 101.973 31.4624 102.413 31.9029C102.853 32.3434 103.086 32.8875 103.086 33.5353C103.086 34.2608 102.827 34.8308 102.283 35.2713C101.74 35.7118 100.988 35.9191 100.03 35.9191C98.6832 35.9191 97.4399 35.6082 96.3262 34.9345L95.7305 37.0592C96.7924 37.707 98.1652 38.0438 99.8747 38.0438C101.74 38.0438 103.19 37.5774 104.226 36.6446C105.184 35.7895 105.651 34.6754 105.651 33.328C105.651 32.2398 105.34 31.307 104.64 30.5815C103.999 29.83 102.989 29.1823 101.61 28.6381Z" fill="#071520"/>
<path d="M121.255 26.0469C119.52 26.0469 118.121 26.6169 117.085 27.757C116.049 28.8971 115.531 30.3481 115.531 32.136C115.531 33.8461 116.023 35.2712 117.034 36.3854C118.044 37.4995 119.391 38.0696 121.074 38.0696C122.835 38.0696 124.234 37.4736 125.296 36.3076C126.306 35.1675 126.824 33.7165 126.824 31.9546C126.824 30.2445 126.332 28.8194 125.322 27.7311C124.312 26.6169 122.939 26.0469 121.255 26.0469ZM123.483 34.753C122.913 35.6858 122.162 36.1522 121.178 36.1522C120.168 36.1522 119.391 35.6858 118.847 34.7789C118.406 34.0275 118.173 33.1206 118.173 32.0582C118.173 30.97 118.38 30.0372 118.847 29.2857C119.391 28.3789 120.168 27.9125 121.204 27.9125C122.214 27.9125 122.965 28.3789 123.509 29.2857C123.949 30.0372 124.182 30.9441 124.182 32.0064C124.182 33.0688 123.949 33.9756 123.483 34.753Z" fill="#071520"/>
<path d="M132.658 26.6687C132.089 27.1092 131.648 27.7311 131.389 28.4825H131.312L131.208 26.2801H128.98C129.032 27.4979 129.058 28.6898 129.058 29.9076V37.7846H131.622V31.7473C131.622 30.8145 131.855 30.0631 132.27 29.4671C132.736 28.7934 133.435 28.4566 134.342 28.4566C134.601 28.4566 134.886 28.4825 135.145 28.5343V26.0987C134.938 26.0728 134.73 26.0469 134.497 26.0469C133.85 26.0469 133.202 26.2801 132.658 26.6687Z" fill="#071520"/>
<path d="M141.81 26.0469C140.127 26.0469 138.78 26.6428 137.796 27.8865C136.837 29.0266 136.371 30.4776 136.371 32.2137C136.371 33.9756 136.889 35.3748 137.899 36.4371C138.909 37.4995 140.308 38.0177 142.095 38.0177C143.572 38.0177 144.867 37.7845 145.955 37.3181L145.566 35.5562C144.634 35.9189 143.598 36.1003 142.458 36.1003C141.422 36.1003 140.593 35.8412 139.945 35.2971C139.22 34.7011 138.858 33.8201 138.832 32.6801H146.505C146.583 32.2914 146.609 31.9027 146.609 31.5141C146.609 30.0631 146.272 28.8712 145.572 27.8865C144.737 26.6687 143.468 26.0469 141.81 26.0469ZM144.167 30.8404H138.832C138.909 30.0631 139.168 29.3894 139.583 28.8452C140.101 28.1457 140.8 27.8088 141.629 27.8088C142.561 27.8088 143.235 28.1457 143.675 28.8712C144.012 29.4153 144.193 30.089 144.167 30.8404Z" fill="#071520"/>
<path d="M69.9443 16.1231L70.7214 13.6615C70.9286 13.0656 71.084 12.4437 71.1876 11.8219H71.2135C71.343 12.4437 71.4984 13.0656 71.6797 13.6615L72.4049 16.1231H73.5705L75.3318 10.4745H74.1403L73.441 13.1174C73.2597 13.7911 73.1302 14.4129 73.0525 14.983H73.0266C72.8971 14.387 72.7417 13.7652 72.5603 13.1174L71.7833 10.4745H70.7473L69.9443 13.1692C69.7112 13.9206 69.5817 14.5166 69.4781 14.983H69.4522C69.3486 14.4129 69.2191 13.817 69.0637 13.1692L68.4162 10.4745H67.1211L68.7788 16.1231H69.9443Z" fill="#071520"/>
<path d="M85.3121 7.87683H84.043V16.1165H85.3121V7.87683Z" fill="#071520"/>
<path d="M137.347 12.9101V16.1231H138.591V12.7547C138.591 11.2778 137.865 10.345 136.674 10.345C135.923 10.345 135.353 10.6559 134.964 11.2778H134.939V7.88342H133.695V16.149H134.939V12.7288C134.939 11.8219 135.56 11.3814 136.208 11.3814C136.959 11.3749 137.347 11.8996 137.347 12.9101Z" fill="#071520"/>
<path d="M118.564 16.123H119.833V12.7546C119.833 12.0291 120.325 11.3813 121.076 11.3813C121.827 11.3813 122.216 11.8736 122.216 12.8841V16.123H123.459V12.7546C123.459 11.2777 122.682 10.3708 121.49 10.3708C120.739 10.3708 120.04 10.7595 119.703 11.3554H119.677L119.625 10.4744H118.512C118.564 11.0445 118.564 11.5886 118.564 12.0809V16.123Z" fill="#071520"/>
<path d="M90.0068 10.3644C88.2714 10.3644 87.1836 11.6081 87.1836 13.3441C87.1836 15.0024 88.2455 16.2462 89.9032 16.2462C91.5867 16.2462 92.7263 15.0024 92.7263 13.2664C92.7263 11.5304 91.6385 10.3644 90.0068 10.3644ZM89.9226 15.3458C89.042 15.3458 88.4463 14.4907 88.4463 13.3247C88.4463 12.1328 89.042 11.2777 89.9485 11.2777C90.8291 11.2777 91.3989 12.1328 91.3989 13.2988C91.4054 14.4389 90.8097 15.3458 89.9226 15.3458Z" fill="#071520"/>
<path d="M113.895 16.2525C115.579 16.2525 116.719 15.0088 116.719 13.2728C116.719 11.5367 115.631 10.3707 113.999 10.3707C112.264 10.3707 111.176 11.6145 111.176 13.3505C111.176 15.0088 112.238 16.2525 113.895 16.2525ZM113.947 11.2711C114.828 11.2711 115.398 12.1262 115.424 13.2922C115.424 14.4323 114.828 15.3391 113.947 15.3391C113.067 15.3391 112.471 14.4841 112.471 13.3181C112.471 12.1327 113.041 11.2711 113.947 11.2711Z" fill="#071520"/>
<path d="M143.261 16.2526C143.986 16.2526 144.608 16.1489 145.152 15.9157L144.944 15.0348C144.478 15.1902 143.986 15.2939 143.416 15.2939C142.354 15.2939 141.655 14.672 141.629 13.6097H145.411C145.462 13.4024 145.462 13.221 145.462 13.0655C145.462 11.4331 144.556 10.3708 143.105 10.3708C141.499 10.3708 140.438 11.6663 140.438 13.4024C140.438 15.1384 141.499 16.2526 143.261 16.2526ZM143.028 11.1935C143.831 11.1935 144.271 11.8153 144.271 12.6963H141.655C141.733 11.8218 142.302 11.1935 143.028 11.1935Z" fill="#071520"/>
<path d="M58.8791 12.0292C58.8791 9.67135 57.5322 8.22034 54.6054 8.22034C53.8802 8.22034 53.1549 8.27216 52.4297 8.3758V16.0973C52.9477 16.175 53.5693 16.2009 54.2687 16.2009C57.2732 16.2009 58.8791 14.724 58.8791 12.0292ZM53.6665 9.27621C53.9514 9.22438 54.2881 9.19847 54.6766 9.19847C56.5415 9.19847 57.5257 10.209 57.5257 12.0228C57.5257 14.0697 56.4379 15.158 54.5212 15.158C54.1068 15.158 53.8219 15.158 53.6665 15.1321V9.27621Z" fill="#071520"/>
<path d="M97.5454 15.4753H97.5713L97.6749 16.1231L98.8146 16.0972C98.7628 15.7603 98.7369 15.3199 98.7369 14.7498V12.6769C98.7369 11.1223 97.9857 10.345 96.5094 10.345C95.7323 10.345 95.0848 10.5004 94.5668 10.8373L94.8258 11.6664C95.2661 11.3814 95.7323 11.2519 96.3021 11.2519C97.0792 11.2519 97.4677 11.6146 97.4677 12.366V12.4697C95.3697 12.4697 94.1523 13.1952 94.1523 14.5944C94.1523 15.5531 94.8776 16.2526 95.8877 16.2526C96.613 16.2526 97.1569 15.9935 97.5454 15.4753ZM95.3956 14.4389C95.3956 13.6357 96.0949 13.2988 97.4936 13.2988V14.1798C97.4936 14.8275 96.8979 15.3199 96.2503 15.3199C95.7582 15.3199 95.3956 15.0348 95.3956 14.4389Z" fill="#071520"/>
<path d="M80.5996 12.8841V16.1229H81.8429L81.817 12.7545C81.817 11.2776 81.0399 10.3707 79.8485 10.3707C79.0973 10.3707 78.398 10.7594 78.0612 11.3553H78.0353L77.9835 10.4744H76.8633C76.9151 11.0444 76.9151 11.5885 76.9151 12.0808V16.1229H78.1843V12.7545C78.1843 12.029 78.7023 11.3813 79.4535 11.3813C80.2046 11.3813 80.5996 11.8736 80.5996 12.8841Z" fill="#071520"/>
<path d="M63.1787 10.3644C61.4433 10.3644 60.3555 11.6081 60.3555 13.3441C60.3555 15.0024 61.4174 16.2462 63.0751 16.2462C64.7587 16.2462 65.8983 15.0024 65.8983 13.2664C65.8983 11.5304 64.8105 10.3644 63.1787 10.3644ZM64.5774 13.2988C64.5774 14.4389 63.9816 15.3458 63.101 15.3458C62.2204 15.3458 61.6246 14.4907 61.6246 13.3247C61.6246 12.1328 62.2204 11.2777 63.1269 11.2777C64.0075 11.2713 64.6033 12.1328 64.5774 13.2988Z" fill="#071520"/>
<path d="M129.317 14.2575C129.317 15.6826 129.913 16.2267 130.897 16.2267C131.311 16.2267 131.648 16.2008 131.881 16.0972L131.855 15.1385C131.7 15.1644 131.519 15.1903 131.286 15.1903C130.793 15.1903 130.56 14.8535 130.56 14.1539V11.4008H131.933V10.468H130.56V9.06885L129.317 9.4316V10.468H128.488V11.4008H129.317V14.2575Z" fill="#071520"/>
<path d="M105.942 7.87683H104.673V11.1416H104.647C104.336 10.6234 103.792 10.3643 103.041 10.3643C101.591 10.3643 100.555 11.608 100.555 13.3699C100.555 15.0542 101.565 16.2461 102.938 16.2461C103.792 16.2461 104.388 15.8833 104.751 15.2096H104.777L104.828 16.1165L105.994 16.1424C105.968 15.676 105.942 15.1578 105.942 14.6137V7.87683ZM103.3 15.242C102.42 15.242 101.824 14.4647 101.824 13.3246C101.824 12.1586 102.394 11.3295 103.326 11.3295C104.129 11.3295 104.647 12.0031 104.647 12.8064V13.7392C104.647 14.5424 104.103 15.242 103.3 15.242Z" fill="#071520"/>
</g>
<defs>
<clipPath id="clip0">
<rect width="161.882" height="48" fill="white"/>
</clipPath>
</defs>
</svg>
