<svg width="668" height="120" viewBox="0 0 668 120" fill="none" xmlns="http://www.w3.org/2000/svg">
<g clip-path="url(#clip0)">
<path d="M187.473 56.4655H208.412C226.846 56.4655 239.822 48.6803 239.822 28.6355C239.822 8.68025 226.846 0.89502 208.412 0.89502H187.473V56.4655ZM209.755 15.8391C218.256 15.8391 221.477 20.6713 221.477 28.725C221.477 36.5997 217.898 41.253 209.755 41.253H205.549V15.8391H209.755Z" fill="white"/>
<path d="M9.03803 56.4655H27.1141V38.2105H46.5324V23.8033H27.1141V15.2127H47.6957V0.89502H0L9.03803 15.2127V56.4655Z" fill="white"/>
<path d="M51.6328 56.3756L68.3666 53.2437C72.8409 55.7492 78.031 57.181 83.2212 57.36C99.2391 57.6284 113.378 45.1005 113.378 28.7246C113.378 12.3488 99.2391 -0.268646 83.2212 -0.000189526C67.6507 0.268267 53.0646 12.6173 53.0646 28.7246C53.0646 34.3622 54.8543 39.4629 57.8073 43.8477L51.6328 56.3756ZM83.3107 15.7493C90.559 15.7493 95.1227 21.0289 95.1227 28.7246C95.1227 36.4204 90.559 41.7 83.3107 41.7C76.0623 41.7 71.4091 36.4204 71.4091 28.7246C71.4091 21.0289 76.0623 15.7493 83.3107 15.7493Z" fill="white"/>
<path d="M180.044 28.6353C180.044 22.9977 178.254 17.8971 175.301 13.5123L181.475 0.894824L164.742 4.02682C160.267 1.52122 155.077 0.0894553 149.887 -0.0895157C133.869 -0.357972 119.73 12.17 119.73 28.5458C119.73 44.9217 133.869 57.5391 149.887 57.2707C165.368 57.0917 179.954 44.7427 180.044 28.6353ZM149.798 41.6107C142.549 41.6107 137.985 36.3311 137.985 28.6353C137.985 20.9396 142.549 15.6599 149.798 15.6599C157.046 15.6599 161.699 20.9396 161.699 28.6353C161.699 36.3311 157.046 41.6107 149.798 41.6107Z" fill="white"/>
<path d="M337.001 0.805176H318.746V56.3756H337.001V0.805176Z" fill="white"/>
<path d="M373.513 36.3311H382.014V40.3579C382.014 40.3579 380.761 42.4161 374.318 42.4161C367.875 42.4161 362.775 37.5839 362.775 28.7248C362.775 19.8658 367.875 15.0336 374.318 15.0336C380.761 15.0336 384.43 18.7025 385.593 19.8658L397.674 9.75391C396.063 8.05369 389.62 0 374.318 0C359.016 0 344.52 8.85906 344.52 28.6353C344.52 48.4116 359.016 57.3602 373.96 57.3602C388.904 57.3602 395.347 51.2752 399.732 47.2483V22.8188H373.513V36.3311Z" fill="white"/>
<path d="M441.253 21.0289H426.041V0.805176H407.875V56.4651H426.041V35.8835H441.253V56.4651H459.419V0.805176H441.253V21.0289Z" fill="white"/>
<path d="M466.934 15.0334H479.998V56.4651H498.253V15.0334H511.408V0.805176H466.934V15.0334Z" fill="white"/>
<path d="M537.002 35.5255H557.226V21.2079H537.002V15.2123H558.389V0.805176H518.926V56.4651H559.194V41.9685H537.002V35.5255Z" fill="white"/>
<path d="M613.87 18.6131C613.87 12.5281 611.006 7.69591 606.979 4.92186C602.953 2.05833 597.673 0.89502 590.872 0.89502H566.711V56.4655H584.966V37.942H587.293L596.152 56.4655H617.091L604.563 35.3469C607.069 33.9152 613.87 29.8883 613.87 18.6131ZM589.44 24.2507H584.876V14.5863H589.44C591.498 14.5863 592.662 14.9442 593.467 15.6601C594.272 16.197 595.525 17.0024 595.525 19.4185C595.525 22.9979 592.572 24.2507 589.44 24.2507Z" fill="white"/>
<path d="M641.789 14.9442C644.652 14.9442 650.737 16.555 654.854 20.2239L667.113 0.89502H642.057C634.72 0.89502 629.171 2.8637 625.86 5.72723C622.55 8.4118 619.507 13.065 619.507 19.0606C619.507 28.2776 624.429 31.857 632.124 34.8995C633.735 35.4364 638.12 36.8682 640.089 37.4946C642.057 38.121 644.116 38.7474 644.116 40.3581C644.116 41.9688 642.415 42.6847 640.089 42.6847C637.673 42.6847 630.514 40.9845 625.413 36.6892L617.359 50.112C624.876 55.6601 632.214 57.4498 638.567 57.4498C644.921 57.4498 650.469 56.1075 654.854 52.7071C659.239 49.3066 662.013 44.1165 662.013 38.2999C662.013 28.6355 655.928 24.5192 647.605 21.7451C645.726 21.1187 642.326 20.1344 641.073 19.7764C639.82 19.4185 637.225 18.7921 637.225 17.1814C637.315 15.5706 638.925 14.9442 641.789 14.9442Z" fill="white"/>
<path d="M272.573 56.4651H290.649V38.1206H309.978V23.8029H290.649V15.2123H311.231V0.805176H263.535L272.573 15.2123V56.4651Z" fill="white"/>
<path d="M236.065 109.978H232.843V119.374H222.91V89.1274H236.065C242.955 89.1274 247.877 92.17 247.877 99.5972C247.966 106.935 242.865 109.978 236.065 109.978ZM234.454 96.6442H232.843V102.55H234.454C236.512 102.55 237.944 101.924 237.944 99.5972C237.944 97.2706 236.422 96.6442 234.454 96.6442Z" fill="#FF5A2E"/>
<path d="M269.262 120C259.866 120 252.797 114.273 252.797 104.34C252.797 94.4072 259.777 88.6802 269.262 88.6802C278.658 88.6802 285.728 94.4967 285.728 104.34C285.728 114.184 278.658 120 269.262 120ZM269.262 97.0023C265.325 97.0023 262.73 99.8659 262.73 104.072C262.73 108.277 265.235 111.141 269.262 111.141C273.2 111.141 275.705 108.277 275.705 104.072C275.705 99.9553 273.2 97.0023 269.262 97.0023Z" fill="#FF5A2E"/>
<path d="M303.536 119.463H292.082V89.1274H303.536C313.559 89.1274 320.628 93.4227 320.628 104.25C320.628 115.168 313.559 119.463 303.536 119.463ZM304.252 97.2706H301.925V111.141H304.252C308.726 111.141 310.606 108.635 310.606 104.34C310.606 99.8657 308.816 97.2706 304.252 97.2706Z" fill="#FF5A2E"/>
<path d="M341.927 120C332.889 120 325.641 114.452 325.641 104.34C325.641 94.2283 332.889 88.6802 341.927 88.6802C348.728 88.6802 352.039 91.5437 352.039 91.5437L349.444 99.8659C349.444 99.8659 346.401 97.2708 342.643 97.2708C338.884 97.2708 335.663 99.5079 335.663 104.251C335.663 108.993 339.063 111.052 342.643 111.052C346.222 111.052 348.549 109.62 349.891 108.277L352.755 116.152C351.591 117.226 348.459 120 341.927 120Z" fill="#FF5A2E"/>
<path d="M377.719 119.463L376.556 115.168H367.876L366.713 119.463H356.422L366.892 89.1274H377.898L388.458 119.463H377.719ZM372.171 99.4183L369.934 107.561H374.408L372.171 99.4183Z" fill="#FF5A2E"/>
<path d="M411.902 117.405C409.485 119.284 406.443 120 402.953 120C399.463 120 395.436 119.016 391.23 115.973L395.615 108.546C398.389 110.873 402.416 111.857 403.669 111.857C405.011 111.857 405.906 111.499 405.906 110.604C405.906 109.709 404.832 109.351 403.669 108.993C402.595 108.725 400.179 107.92 399.284 107.562C395.078 105.861 392.304 103.893 392.304 98.8816C392.304 95.5707 394.004 93.0651 395.794 91.5438C397.673 90.0226 400.626 88.9487 404.743 88.9487C408.77 88.9487 412.886 90.3805 415.571 92.6176L411.812 99.687C409.486 97.6288 406.175 96.8234 404.653 96.8234C403.043 96.8234 402.237 97.0919 402.237 98.0762C402.237 98.9711 403.669 99.2396 404.385 99.508C405.101 99.687 406.89 100.224 407.964 100.582C412.528 102.103 415.839 104.43 415.839 109.709C415.928 112.662 414.318 115.526 411.902 117.405Z" fill="#FF5A2E"/>
<path d="M436.69 96.913V119.463H426.757V96.913H419.688V89.2173H443.849V96.913H436.69Z" fill="#FF5A2E"/>
</g>
<defs>
<clipPath id="clip0">
<rect width="667.114" height="120" fill="white"/>
</clipPath>
</defs>
</svg>
