<svg width="337" height="109" viewBox="0 0 337 109" fill="none" xmlns="http://www.w3.org/2000/svg">
<path d="M224.955 47.1115H242.426C257.806 47.1115 268.632 40.6159 268.632 23.8917C268.632 7.24215 257.806 0.746582 242.426 0.746582H224.955V47.1115ZM243.546 13.2151C250.639 13.2151 253.327 17.2468 253.327 23.9664C253.327 30.5366 250.34 34.419 243.546 34.419H240.037V13.2151H243.546Z" fill="white"/>
<path d="M76.0799 47.1115H91.2362V31.8805H107.363V19.86H91.2362V12.6925H108.334V0.746582H68.5391L76.0799 12.6925V47.1115Z" fill="white"/>
<path d="M111.619 47.037L125.581 44.4238C129.314 46.5143 133.644 47.7089 137.975 47.8582C151.339 48.0822 163.136 37.6296 163.136 23.9665C163.136 10.3034 151.339 -0.223895 137.975 9.0454e-05C124.984 0.224076 112.814 10.5274 112.814 23.9665C112.814 28.6702 114.307 32.9259 116.771 36.5843L111.619 47.037ZM138.049 13.1405C144.097 13.1405 147.905 17.5456 147.905 23.9665C147.905 30.3874 144.097 34.7924 138.049 34.7924C132.002 34.7924 128.119 30.3874 128.119 23.9665C128.119 17.5456 132.002 13.1405 138.049 13.1405Z" fill="white"/>
<path d="M218.758 23.8918C218.758 19.1881 217.265 14.9324 214.801 11.274L219.953 0.746687L205.991 3.35985C202.258 1.26932 197.928 0.0747313 193.597 -0.0745921C180.233 -0.298577 168.437 10.1541 168.437 23.8171C168.437 37.4802 180.233 48.0075 193.597 47.7836C206.514 47.6342 218.758 37.3309 218.758 23.8918ZM193.523 34.7178C187.475 34.7178 183.667 30.3127 183.667 23.8918C183.667 17.4709 187.475 13.0659 193.523 13.0659C199.57 13.0659 203.453 17.4709 203.453 23.8918C203.453 30.3127 199.57 34.7178 193.523 34.7178Z" fill="white"/>
<path d="M61.2974 60.7744H46.0664V107.139H61.2974V60.7744Z" fill="white"/>
<path d="M91.7587 90.3405H98.8516V93.7003C98.8516 93.7003 97.8063 95.4175 92.4307 95.4175C87.0551 95.4175 82.7993 91.3858 82.7993 83.9943C82.7993 76.6028 87.0551 72.571 92.4307 72.571C97.8063 72.571 100.867 75.6322 101.838 76.6028L111.917 68.166C110.573 66.8221 105.198 60.1025 92.4307 60.1025C79.6636 60.1025 67.5684 67.494 67.5684 83.9943C67.5684 100.495 79.6636 107.961 92.1321 107.961C104.601 107.961 109.976 102.884 113.635 99.5239V79.1413H91.7587V90.3405Z" fill="white"/>
<path d="M148.278 77.5733H135.66V60.7744H120.429V107.139H135.66V90.0418H148.278V107.139H163.434V60.7744H148.278V77.5733Z" fill="white"/>
<path d="M169.78 72.571H180.681V107.139H195.837V72.571H206.812V60.7744H169.78V72.571Z" fill="white"/>
<path d="M228.24 89.6685H245.039V77.7973H228.24V72.7203H246.01V60.7744H213.084V107.139H246.682V95.0441H228.24V89.6685Z" fill="white"/>
<path d="M292.3 75.5574C292.3 70.4804 289.911 66.4487 286.551 64.1342C283.191 61.745 278.786 60.7744 273.112 60.7744H252.953V107.139H268.184V91.6843H270.125L277.517 107.139H294.988L284.535 89.5192C286.626 88.3246 292.3 84.9648 292.3 75.5574ZM271.992 80.2611H268.184V72.1976H271.992C273.709 72.1976 274.68 72.4963 275.352 73.0936C276.024 73.5416 277.069 74.2135 277.069 76.2294C276.994 79.2158 274.605 80.2611 271.992 80.2611Z" fill="white"/>
<path d="M315.669 72.5715C318.058 72.5715 323.135 73.9154 326.57 76.9765L336.799 60.8496H315.893C309.771 60.8496 305.142 62.4922 302.38 64.8813C299.617 67.1212 297.079 71.0036 297.079 76.0059C297.079 83.6961 301.185 86.6826 307.606 89.2211C308.95 89.669 312.608 90.8636 314.251 91.3862C315.893 91.9089 317.61 92.4315 317.61 93.7754C317.61 95.1193 316.192 95.7166 314.251 95.7166C312.235 95.7166 306.262 94.2981 302.006 90.7143L295.361 102.063C301.633 106.692 307.755 108.185 313.056 108.185C318.357 108.185 322.986 107.065 326.645 104.228C330.303 101.391 332.617 97.0605 332.617 92.2075C332.617 84.1441 327.54 80.7096 320.597 78.3951C319.029 77.8725 316.192 77.0512 315.147 76.7526C314.101 76.4539 311.936 75.9313 311.936 74.5874C311.936 73.0195 313.205 72.5715 315.669 72.5715Z" fill="white"/>
<path d="M7.54083 107.139H22.6225V91.9083H38.8241V79.8878H22.6225V72.7203H39.7947V60.7744H0L7.54083 72.7203V107.139Z" fill="white"/>
</svg>
