<svg width="163" height="48" viewBox="0 0 163 48" fill="none" xmlns="http://www.w3.org/2000/svg">
<g clip-path="url(#clip0)">
<path d="M156.275 0.00506592H6.01106C2.64201 0.00506592 0 2.76458 0 6.00345V41.9937C0 45.3557 2.64201 47.9921 6.01106 47.9921H156.275C159.644 47.9921 162.286 45.3557 162.286 41.9937V6.00345C162.286 2.76458 159.644 0.00506592 156.275 0.00506592ZM161.325 41.9937C161.325 44.7532 159.04 47.0334 156.275 47.0334H6.01106C3.24571 47.0334 0.960731 44.7532 0.960731 41.9937V6.00345C0.960731 3.24393 3.24571 0.96377 6.01106 0.96377H156.275C159.04 0.96377 161.325 3.24393 161.325 6.00345V41.9937Z" fill="#071520"/>
<path d="M91.7228 9.723L95.4489 15.6048H96.4096V8.40802H95.4489V14.0437L91.963 8.40802H90.8789V15.6048H91.7228V9.723Z" fill="#071520"/>
<path d="M76.9356 15.6048V9.24365H78.9804V8.40802H74.0469V9.24365H76.0917V15.6048H76.9356Z" fill="#071520"/>
<path d="M85.8315 15.7216C86.9155 15.7216 87.7529 15.3588 88.4735 14.6398C89.194 13.9208 89.5575 13.0787 89.5575 12.0034C89.5575 10.9216 89.194 10.086 88.4735 9.36694C87.7529 8.64791 86.909 8.28516 85.8315 8.28516C84.7474 8.28516 83.9101 8.64791 83.1895 9.36694C82.469 10.086 82.1055 10.9281 82.1055 12.0034C82.1055 13.0852 82.469 13.9208 83.1895 14.6398C83.9101 15.3653 84.7539 15.7216 85.8315 15.7216ZM83.9101 9.96289C84.3904 9.36046 85.1109 9.12078 85.8315 9.12078C86.552 9.12078 87.2726 9.48354 87.7529 9.96289C88.3566 10.4422 88.5968 11.1613 88.5968 12.0034C88.5968 12.8455 88.2333 13.5645 87.7529 14.0439C87.2726 14.6463 86.552 14.886 85.8315 14.886C85.1109 14.886 84.3904 14.5232 83.9101 14.0439C83.3064 13.5645 83.0662 12.8455 83.0662 12.0034C83.0662 11.1613 83.4297 10.4422 83.9101 9.96289Z" fill="#071520"/>
<path d="M53.4943 15.7215C54.5784 15.7215 55.4158 15.3587 56.1363 14.6397C56.74 14.0373 56.9802 13.2016 56.9802 12.2429V11.7636H53.4943V12.7223H56.1363C56.1363 13.3247 55.8961 13.8041 55.5326 14.1603C54.9289 14.7628 54.3317 15.0025 53.4878 15.0025C52.7673 15.0025 52.1636 14.6397 51.5663 14.1603C50.9626 13.681 50.7225 12.962 50.7225 12.1199C50.7225 11.2778 50.9626 10.5587 51.5663 10.0794C52.0467 9.47695 52.7673 9.23728 53.4878 9.23728C54.3317 9.23728 54.9289 9.47695 55.4093 10.0794L56.013 9.47695C55.7728 9.1142 55.4093 8.87452 54.9289 8.63485C54.4485 8.39517 53.9682 8.27209 53.4878 8.27209C52.4037 8.27209 51.5663 8.63485 50.8458 9.35387C50.1252 10.0729 49.7617 10.915 49.7617 11.9903C49.7617 13.0721 50.1252 13.9077 50.8458 14.6267C51.5663 15.3652 52.4102 15.7215 53.4943 15.7215Z" fill="#071520"/>
<path d="M62.5136 14.6461H59.268V12.3659H62.2735V11.5238H59.268V9.24365H62.5136V8.40802H58.3008V15.6048H62.5136V14.6461Z" fill="#071520"/>
<path d="M72.9685 8.40802H72.0078V15.6048H72.9685V8.40802Z" fill="#071520"/>
<path d="M66.4781 15.6048V9.24365H68.5229V8.40802H63.4727V9.24365H65.5174V15.6048H66.4781Z" fill="#071520"/>
<path d="M57.3401 27.7182V29.8753H62.5138C62.3904 31.0737 61.9101 32.0324 61.3128 32.6348C60.5923 33.3538 59.3914 34.1959 57.3466 34.1959C54.1009 34.1959 51.699 31.6761 51.699 28.4372C51.699 25.1983 54.2242 22.6785 57.3466 22.6785C59.0279 22.6785 60.3521 23.3975 61.3128 24.2396L62.8773 22.6785C61.553 21.4801 59.8718 20.5214 57.4699 20.5214C53.1401 20.5214 49.4141 24.123 49.4141 28.4372C49.4141 32.7514 53.1401 36.353 57.4699 36.353C59.8718 36.353 61.5595 35.634 63.0006 34.0728C64.4417 32.6348 64.9221 30.5943 64.9221 29.0332C64.9221 28.5538 64.9221 28.0745 64.7987 27.7117L57.3401 27.7182Z" fill="#071520"/>
<path d="M122.376 21.0009H116.969V35.9968H119.254V30.3612H122.376C124.901 30.3612 127.303 28.5604 127.303 25.6843C127.303 22.8017 124.901 21.0009 122.376 21.0009ZM122.493 28.1976H119.247V23.0413H122.493C124.174 23.0413 125.135 24.4794 125.135 25.5612C125.018 26.8762 124.057 28.1976 122.493 28.1976Z" fill="#071520"/>
<path d="M146.181 32.8745H146.058L143.416 26.3968H141.008L144.974 35.5174L142.689 40.5571H144.974L151.109 26.3968H148.7L146.181 32.8745Z" fill="#071520"/>
<path d="M136.32 26.0405C134.639 26.0405 132.951 26.7596 132.354 28.3207L134.399 29.1628C134.879 28.3207 135.599 28.081 136.443 28.081C137.644 28.081 138.728 28.8 138.845 29.9984V30.1215C138.482 29.8818 137.521 29.5191 136.56 29.5191C134.399 29.5191 132.23 30.7174 132.23 32.881C132.23 34.9215 134.035 36.2429 135.957 36.2429C137.521 36.2429 138.242 35.5239 138.839 34.8049H138.962V36.0032H141.124V30.2446C140.89 27.6017 138.845 26.0405 136.32 26.0405ZM136.08 34.319C135.359 34.319 134.275 33.9563 134.275 32.9976C134.275 31.7992 135.6 31.4365 136.677 31.4365C137.638 31.4365 138.118 31.6761 138.722 31.9158C138.482 33.3539 137.281 34.319 136.08 34.319Z" fill="#071520"/>
<path d="M95.6884 27.2389C95.0847 26.6365 94.124 26.0405 92.9231 26.0405C90.3979 26.0405 87.9961 28.3207 87.9961 31.1968C87.9961 34.0729 90.2811 36.2365 92.9231 36.2365C94.124 36.2365 95.0847 35.634 95.5651 35.0381H95.6884V35.7571C95.6884 37.6745 94.6044 38.7563 92.9231 38.7563C91.5988 38.7563 90.6381 37.7976 90.3979 36.9555L88.4765 37.7976C89.0802 39.119 90.5213 40.7968 93.0464 40.7968C95.6884 40.7968 97.8566 39.2356 97.8566 35.5174V26.3968H95.6949L95.6884 27.2389ZM93.0399 34.319C91.4755 34.319 90.1577 32.9976 90.1577 31.2033C90.1577 29.4025 91.482 28.0875 93.0399 28.0875C94.5979 28.0875 95.8053 29.4089 95.8053 31.2033C95.8053 32.9976 94.6044 34.319 93.0399 34.319Z" fill="#071520"/>
<path d="M130.789 21.0009H128.504V35.9968H130.789V21.0009Z" fill="#071520"/>
<path d="M101.578 21.0009H99.293V35.9968H101.578V21.0009Z" fill="#071520"/>
<path d="M111.917 29.3959C111.437 28.1975 110.236 26.157 107.587 26.157C104.945 26.157 102.777 28.1975 102.777 31.3133C102.777 34.1894 104.939 36.4696 107.828 36.4696C110.113 36.4696 111.554 35.0315 112.034 34.1894L110.353 32.991C109.749 33.8332 109.029 34.4291 107.828 34.4291C106.627 34.4291 105.906 33.9498 105.303 32.868L112.157 29.9919L111.917 29.3959ZM104.945 31.0801C104.945 29.1627 106.51 28.0809 107.587 28.0809C108.431 28.0809 109.269 28.5603 109.509 29.1627L104.945 31.0801Z" fill="#071520"/>
<path d="M70.6867 26.157C67.8045 26.157 65.5195 28.3141 65.5195 31.3133C65.5195 34.1894 67.8045 36.4696 70.6867 36.4696C73.569 36.4696 75.854 34.3125 75.854 31.3133C75.854 28.1975 73.569 26.157 70.6867 26.157ZM70.6867 34.319C69.1223 34.319 67.8045 32.9975 67.8045 31.2032C67.8045 29.4089 69.1288 28.0874 70.6867 28.0874C72.2512 28.0874 73.569 29.2858 73.569 31.2032C73.569 32.9975 72.2512 34.319 70.6867 34.319Z" fill="#071520"/>
<path d="M81.8625 26.157C78.9803 26.157 76.6953 28.3141 76.6953 31.3133C76.6953 34.1894 78.9803 36.4696 81.8625 36.4696C84.7447 36.4696 87.0297 34.3125 87.0297 31.3133C87.0297 28.1975 84.7512 26.157 81.8625 26.157ZM81.8625 34.319C80.2981 34.319 78.9803 32.9975 78.9803 31.2032C78.9803 29.4089 80.3045 28.0874 81.8625 28.0874C83.4269 28.0874 84.7447 29.2858 84.7447 31.2032C84.7512 32.9975 83.4269 34.319 81.8625 34.319Z" fill="#071520"/>
<path d="M39.6639 23.8706C39.6055 23.3199 39.1446 22.8859 38.4695 22.439L32.4974 19.0446L27.6548 23.877V24.1167L32.4585 28.9102L38.4695 25.5483C39.1901 25.0689 39.6704 24.5896 39.6704 23.9936V24.0001C39.6704 24.6025 39.1901 25.0819 38.4695 25.5612L32.4585 28.9167L32.5818 29.0398L32.4585 28.9167L27.6483 24.1232V23.877L32.4909 19.0446L32.4195 19.0058L15.029 9.12723C14.0423 8.56367 13.1789 8.62197 12.6336 9.13371L12.6271 9.12723C12.6077 9.14667 12.5882 9.1661 12.5687 9.18553L27.5315 23.9936V24.0001V24.2398L12.8349 38.9054C12.7829 38.873 12.7375 38.8406 12.6921 38.8082L27.5315 24.0001L12.5687 9.19201C12.2247 9.55476 12.0234 10.1054 12.0234 10.805V37.0722V37.0786V37.1952C12.0234 37.3118 12.0299 37.4284 12.0429 37.5386C12.0429 37.545 12.0429 37.558 12.0429 37.5645C12.1013 38.0503 12.2701 38.4649 12.5168 38.7629H12.5233C12.5363 38.7758 12.5492 38.7952 12.5622 38.8082C12.5817 38.8341 12.6012 38.8535 12.6206 38.873L12.5622 38.9313L12.5687 38.9378L12.5103 38.9961L12.6336 39.0025L12.6271 38.9961L12.6206 38.9896C12.6271 38.9961 12.6336 38.9961 12.6401 39.0025C13.1984 39.443 13.9644 39.5791 14.8407 39.1127C14.9056 39.0803 14.9705 39.0414 15.0355 39.0025L32.3156 29.0139L32.3221 29.0203L15.029 38.9961C14.9641 39.0349 14.8991 39.0738 14.8342 39.1062L15.0355 39.1191L32.426 29.1305L32.4585 29.1629L38.4695 25.924C39.5536 25.3086 39.9366 24.4406 39.625 23.6503C39.6445 23.7216 39.6574 23.7993 39.6639 23.8706ZM27.5315 23.877L27.5899 23.8187L27.5315 23.877ZM32.4325 29.1305L32.5818 29.0398L32.4325 29.1305Z" fill="#071520"/>
<path d="M12.8342 38.9053L27.5308 24.2397V24L12.6914 38.8081C12.7368 38.8405 12.7888 38.8729 12.8342 38.9053Z" fill="#071520"/>
</g>
<defs>
<clipPath id="clip0">
<rect width="162.286" height="48" fill="white"/>
</clipPath>
</defs>
</svg>
