<svg width="135" height="40" viewBox="0 0 135 40" fill="none" xmlns="http://www.w3.org/2000/svg">
<path d="M130 0H5C2.3 0 0 2.2 0 5V35C0 37.8 2.2 40 5 40H130C132.8 40 135 37.8 135 35V5C135 2.2 132.8 0 130 0Z" fill="black"/>
<path d="M130 0.8C132.3 0.8 134.2 2.7 134.2 5V35C134.2 37.3 132.3 39.2 130 39.2H5C2.7 39.2 0.8 37.3 0.8 35V5C0.8 2.7 2.7 0.8 5 0.8H130ZM130 0H5C2.2 0 0 2.3 0 5V35C0 37.8 2.2 40 5 40H130C132.8 40 135 37.8 135 35V5C135 2.3 132.8 0 130 0Z" fill="white"/>
<path d="M47.3984 10.1999C47.3984 10.9999 47.1984 11.6999 46.6984 12.1999C46.0984 12.7999 45.3984 13.0999 44.4984 13.0999C43.5984 13.0999 42.8984 12.7999 42.2984 12.1999C41.6984 11.5999 41.3984 10.8999 41.3984 9.9999C41.3984 9.0999 41.6984 8.3999 42.2984 7.7999C42.8984 7.1999 43.5984 6.8999 44.4984 6.8999C44.8984 6.8999 45.2984 6.9999 45.6984 7.1999C46.0984 7.3999 46.3984 7.5999 46.5984 7.8999L46.0984 8.3999C45.6984 7.8999 45.1984 7.6999 44.4984 7.6999C43.8984 7.6999 43.2984 7.8999 42.8984 8.3999C42.3984 8.7999 42.1984 9.3999 42.1984 10.0999C42.1984 10.7999 42.3984 11.3999 42.8984 11.7999C43.3984 12.1999 43.8984 12.4999 44.4984 12.4999C45.1984 12.4999 45.6984 12.2999 46.1984 11.7999C46.4984 11.4999 46.6984 11.0999 46.6984 10.5999H44.4984V9.7999H47.3984C47.3984 9.8999 47.3984 10.0999 47.3984 10.1999Z" fill="white" stroke="white" stroke-width="0.2" stroke-miterlimit="10"/>
<path d="M52 7.7H49.3V9.6H51.8V10.3H49.3V12.2H52V13H48.5V7H52V7.7Z" fill="white" stroke="white" stroke-width="0.2" stroke-miterlimit="10"/>
<path d="M55.2969 13H54.4969V7.7H52.7969V7H56.9969V7.7H55.2969V13Z" fill="white" stroke="white" stroke-width="0.2" stroke-miterlimit="10"/>
<path d="M59.8984 13V7H60.6984V13H59.8984Z" fill="white" stroke="white" stroke-width="0.2" stroke-miterlimit="10"/>
<path d="M64.0977 13H63.2977V7.7H61.5977V7H65.6977V7.7H63.9977V13H64.0977Z" fill="white" stroke="white" stroke-width="0.2" stroke-miterlimit="10"/>
<path d="M73.5969 12.1999C72.9969 12.7999 72.2969 13.0999 71.3969 13.0999C70.4969 13.0999 69.7969 12.7999 69.1969 12.1999C68.5969 11.5999 68.2969 10.8999 68.2969 9.9999C68.2969 9.0999 68.5969 8.3999 69.1969 7.7999C69.7969 7.1999 70.4969 6.8999 71.3969 6.8999C72.2969 6.8999 72.9969 7.1999 73.5969 7.7999C74.1969 8.3999 74.4969 9.0999 74.4969 9.9999C74.4969 10.8999 74.1969 11.5999 73.5969 12.1999ZM69.7969 11.6999C70.1969 12.0999 70.7969 12.3999 71.3969 12.3999C71.9969 12.3999 72.5969 12.1999 72.9969 11.6999C73.3969 11.2999 73.6969 10.6999 73.6969 9.9999C73.6969 9.2999 73.4969 8.6999 72.9969 8.2999C72.5969 7.8999 71.9969 7.5999 71.3969 7.5999C70.7969 7.5999 70.1969 7.7999 69.7969 8.2999C69.3969 8.6999 69.0969 9.2999 69.0969 9.9999C69.0969 10.6999 69.2969 11.2999 69.7969 11.6999Z" fill="white" stroke="white" stroke-width="0.2" stroke-miterlimit="10"/>
<path d="M75.5977 13V7H76.4977L79.3977 11.7V10.5V7H80.1977V13H79.3977L76.2977 8.1V9.3V13H75.5977Z" fill="white" stroke="white" stroke-width="0.2" stroke-miterlimit="10"/>
<path d="M68.1016 21.8001C65.7016 21.8001 63.8016 23.6001 63.8016 26.1001C63.8016 28.5001 65.7016 30.4001 68.1016 30.4001C70.5016 30.4001 72.4016 28.6001 72.4016 26.1001C72.4016 23.5001 70.5016 21.8001 68.1016 21.8001ZM68.1016 28.6001C66.8016 28.6001 65.7016 27.5001 65.7016 26.0001C65.7016 24.5001 66.8016 23.4001 68.1016 23.4001C69.4016 23.4001 70.5016 24.4001 70.5016 26.0001C70.5016 27.5001 69.4016 28.6001 68.1016 28.6001ZM58.8016 21.8001C56.4016 21.8001 54.5016 23.6001 54.5016 26.1001C54.5016 28.5001 56.4016 30.4001 58.8016 30.4001C61.2016 30.4001 63.1016 28.6001 63.1016 26.1001C63.1016 23.5001 61.2016 21.8001 58.8016 21.8001ZM58.8016 28.6001C57.5016 28.6001 56.4016 27.5001 56.4016 26.0001C56.4016 24.5001 57.5016 23.4001 58.8016 23.4001C60.1016 23.4001 61.2016 24.4001 61.2016 26.0001C61.2016 27.5001 60.1016 28.6001 58.8016 28.6001ZM47.7016 23.1001V24.9001H52.0016C51.9016 25.9001 51.5016 26.7001 51.0016 27.2001C50.4016 27.8001 49.4016 28.5001 47.7016 28.5001C45.0016 28.5001 43.0016 26.4001 43.0016 23.7001C43.0016 21.0001 45.1016 18.9001 47.7016 18.9001C49.1016 18.9001 50.2016 19.5001 51.0016 20.2001L52.3016 18.9001C51.2016 17.9001 49.8016 17.1001 47.8016 17.1001C44.2016 17.1001 41.1016 20.1001 41.1016 23.7001C41.1016 27.3001 44.2016 30.3001 47.8016 30.3001C49.8016 30.3001 51.2016 29.7001 52.4016 28.4001C53.6016 27.2001 54.0016 25.5001 54.0016 24.2001C54.0016 23.8001 54.0016 23.4001 53.9016 23.1001H47.7016ZM93.1016 24.5001C92.7016 23.5001 91.7016 21.8001 89.5016 21.8001C87.3016 21.8001 85.5016 23.5001 85.5016 26.1001C85.5016 28.5001 87.3016 30.4001 89.7016 30.4001C91.6016 30.4001 92.8016 29.2001 93.2016 28.5001L91.8016 27.5001C91.3016 28.2001 90.7016 28.7001 89.7016 28.7001C88.7016 28.7001 88.1016 28.3001 87.6016 27.4001L93.3016 25.0001L93.1016 24.5001ZM87.3016 25.9001C87.3016 24.3001 88.6016 23.4001 89.5016 23.4001C90.2016 23.4001 90.9016 23.8001 91.1016 24.3001L87.3016 25.9001ZM82.6016 30.0001H84.5016V17.5001H82.6016V30.0001ZM79.6016 22.7001C79.1016 22.2001 78.3016 21.7001 77.3016 21.7001C75.2016 21.7001 73.2016 23.6001 73.2016 26.0001C73.2016 28.4001 75.1016 30.2001 77.3016 30.2001C78.3016 30.2001 79.1016 29.7001 79.5016 29.2001H79.6016V29.8001C79.6016 31.4001 78.7016 32.3001 77.3016 32.3001C76.2016 32.3001 75.4016 31.5001 75.2016 30.8001L73.6016 31.5001C74.1016 32.6001 75.3016 34.0001 77.4016 34.0001C79.6016 34.0001 81.4016 32.7001 81.4016 29.6001V22.0001H79.6016V22.7001ZM77.4016 28.6001C76.1016 28.6001 75.0016 27.5001 75.0016 26.0001C75.0016 24.5001 76.1016 23.4001 77.4016 23.4001C78.7016 23.4001 79.7016 24.5001 79.7016 26.0001C79.7016 27.5001 78.7016 28.6001 77.4016 28.6001ZM101.802 17.5001H97.3016V30.0001H99.2016V25.3001H101.802C103.902 25.3001 105.902 23.8001 105.902 21.4001C105.902 19.0001 103.902 17.5001 101.802 17.5001ZM101.902 23.5001H99.2016V19.2001H101.902C103.302 19.2001 104.102 20.4001 104.102 21.3001C104.002 22.4001 103.202 23.5001 101.902 23.5001ZM113.402 21.7001C112.002 21.7001 110.602 22.3001 110.102 23.6001L111.802 24.3001C112.202 23.6001 112.802 23.4001 113.502 23.4001C114.502 23.4001 115.402 24.0001 115.502 25.0001V25.1001C115.202 24.9001 114.402 24.6001 113.602 24.6001C111.802 24.6001 110.002 25.6001 110.002 27.4001C110.002 29.1001 111.502 30.2001 113.102 30.2001C114.402 30.2001 115.002 29.6001 115.502 29.0001H115.602V30.0001H117.402V25.2001C117.202 23.0001 115.502 21.7001 113.402 21.7001ZM113.202 28.6001C112.602 28.6001 111.702 28.3001 111.702 27.5001C111.702 26.5001 112.802 26.2001 113.702 26.2001C114.502 26.2001 114.902 26.4001 115.402 26.6001C115.202 27.8001 114.202 28.6001 113.202 28.6001ZM123.702 22.0001L121.602 27.4001H121.502L119.302 22.0001H117.302L120.602 29.6001L118.702 33.8001H120.602L125.702 22.0001H123.702ZM106.902 30.0001H108.802V17.5001H106.902V30.0001Z" fill="white"/>
<path d="M10.4 7.5C10.1 7.8 10 8.3 10 8.9V31C10 31.6 10.2 32.1 10.5 32.4L10.6 32.5L23 20.1V20V19.9L10.4 7.5Z" fill="white"/>
<path d="M26.9984 24.3L22.8984 20.2V20V19.9L26.9984 15.8L27.0984 15.9L31.9984 18.7C33.3984 19.5 33.3984 20.8 31.9984 21.6L26.9984 24.3Z" fill="white"/>
<path d="M27.0984 24.2L22.8984 20L10.3984 32.5C10.8984 33 11.5984 33 12.4984 32.6L27.0984 24.2Z" fill="white"/>
<path d="M27.0984 15.8001L12.4984 7.50011C11.5984 7.00011 10.8984 7.10011 10.3984 7.60011L22.8984 20.0001L27.0984 15.8001Z" fill="white"/>
<path opacity="0.2" d="M26.9984 24.1001L12.4984 32.3001C11.6984 32.8001 10.9984 32.7001 10.4984 32.3001L10.3984 32.4001L10.4984 32.5001C10.9984 32.9001 11.6984 33.0001 12.4984 32.5001L26.9984 24.1001Z" fill="black"/>
<path opacity="0.12" d="M10.4 32.3001C10.1 32.0001 10 31.5001 10 30.9001V31.0001C10 31.6001 10.2 32.1001 10.5 32.4001V32.3001H10.4Z" fill="black"/>
<path opacity="0.12" d="M32 21.3L27 24.1L27.1 24.2L32 21.4C32.7 21 33 20.5 33 20C33 20.5 32.6 20.9 32 21.3Z" fill="black"/>
<path opacity="0.25" d="M12.5 7.60003L32 18.7C32.6 19.1 33 19.5 33 20C33 19.5 32.7 19 32 18.6L12.5 7.50003C11.1 6.70003 10 7.30003 10 8.90003V9.00003C10 7.50003 11.1 6.80003 12.5 7.60003Z" fill="white"/>
</svg>
