<svg width="1134" height="616" viewBox="0 0 1134 616" fill="none" xmlns="http://www.w3.org/2000/svg">
<path d="M76 4V616" stroke="#143F63" stroke-width="2"/>
<path d="M134.941 4V616" stroke="#143F63" stroke-width="2"/>
<path d="M193.883 4V616" stroke="#143F63" stroke-width="2"/>
<path d="M252.824 4V616" stroke="#143F63" stroke-width="2"/>
<path d="M311.766 4V616" stroke="#143F63" stroke-width="2"/>
<path d="M370.705 4V616" stroke="#143F63" stroke-width="2"/>
<path d="M429.646 4V616" stroke="#143F63" stroke-width="2"/>
<path d="M488.588 4V616" stroke="#143F63" stroke-width="2"/>
<path d="M547.529 4V616" stroke="#143F63" stroke-width="2"/>
<path d="M606.471 4V616" stroke="#143F63" stroke-width="2"/>
<path d="M665.412 4V616" stroke="#143F63" stroke-width="2"/>
<path d="M724.354 4V616" stroke="#143F63" stroke-width="2"/>
<path d="M783.295 4V616" stroke="#143F63" stroke-width="2"/>
<path d="M842.234 4V616" stroke="#143F63" stroke-width="2"/>
<path d="M901.176 4V616" stroke="#143F63" stroke-width="2"/>
<path d="M960.117 4V616" stroke="#143F63" stroke-width="2"/>
<path d="M1019.06 4V616" stroke="#143F63" stroke-width="2"/>
<path d="M1078 4V616" stroke="#143F63" stroke-width="2"/>
<path d="M1134 57L20 57" stroke="#143F63" stroke-width="2"/>
<path d="M1134 393L20 393" stroke="#143F63" stroke-width="2"/>
<path d="M1134 113L20 113" stroke="#143F63" stroke-width="2"/>
<path d="M1134 449L20 449" stroke="#143F63" stroke-width="2"/>
<path d="M1134 169L20 169" stroke="#143F63" stroke-width="2"/>
<path d="M1134 505L20 505" stroke="#143F63" stroke-width="2"/>
<path d="M1134 225L20 225" stroke="#143F63" stroke-width="2"/>
<path d="M1134 561L20 561" stroke="#143F63" stroke-width="2"/>
<path d="M1134 281L20 281" stroke="#143F63" stroke-width="2"/>
<path d="M1134 337L20 337" stroke="#143F63" stroke-width="2"/>
<path d="M19 4V2H17V4H19ZM1134 4H1136V2H1134V4ZM1134 616V618H1136V616H1134ZM19 616H17V618H19V616ZM19 6H1134V2H19V6ZM1132 4V616H1136V4H1132ZM1134 614H19V618H1134V614ZM21 616V4H17V616H21Z" fill="#143F63"/>
<defs>
<linearGradient id="paint0_linear" x1="18.9836" y1="0.757568" x2="18.9836" y2="616" gradientUnits="userSpaceOnUse">
<stop stop-color="#4186BF"/>
<stop offset="1" stop-color="#4186BF" stop-opacity="0"/>
</linearGradient>
</defs>
</svg>
