<?xml version="1.0" encoding="utf-8"?>
<!-- Generator: Adobe Illustrator 25.1.0, SVG Export Plug-In . SVG Version: 6.00 Build 0)  -->
<svg version="1.1" id="Layer_1" xmlns="http://www.w3.org/2000/svg" xmlns:xlink="http://www.w3.org/1999/xlink" x="0px" y="0px"
	 viewBox="0 0 1180 497" style="enable-background:new 0 0 1180 497;" xml:space="preserve">
<style type="text/css">
	.st0{fill:none;stroke:#143F63;stroke-width:2;}
	.st1{fill-rule:evenodd;clip-rule:evenodd;fill:url(#SVGID_1_);}
	.st2{fill-rule:evenodd;clip-rule:evenodd;fill:url(#SVGID_2_);}
	.st3{fill:#676E73;}
	.st4{fill:url(#SVGID_3_);fill-opacity:0.65;}
	.st5{fill:#FFFFFF;}
	.st6{fill:url(#SVGID_4_);fill-opacity:0.5;}
	.st7{clip-path:url(#SVGID_6_);}
	.st8{fill-rule:evenodd;clip-rule:evenodd;fill:#71A4CF;}
	.st9{fill-rule:evenodd;clip-rule:evenodd;fill:#DCBD3F;}
</style>
<path class="st0" d="M117,4v447"/>
<path class="st0" d="M175.9,4v447"/>
<path class="st0" d="M234.9,4v447"/>
<path class="st0" d="M293.8,4v447"/>
<path class="st0" d="M352.8,4v447"/>
<path class="st0" d="M411.7,4v447"/>
<path class="st0" d="M470.6,4v447"/>
<path class="st0" d="M529.6,4v447"/>
<path class="st0" d="M588.5,4v447"/>
<path class="st0" d="M647.5,4v447"/>
<path class="st0" d="M706.4,4v447"/>
<path class="st0" d="M765.4,4v447"/>
<path class="st0" d="M824.3,4v447"/>
<path class="st0" d="M883.2,4v447"/>
<path class="st0" d="M942.2,4v447"/>
<path class="st0" d="M1001.1,4v447"/>
<path class="st0" d="M1060.1,4v447"/>
<path class="st0" d="M1119,4v447"/>
<path class="st0" d="M1175,57H61"/>
<path class="st0" d="M1175,393H61"/>
<path class="st0" d="M1175,113H61"/>
<path class="st0" d="M1175,449H61"/>
<path class="st0" d="M1175,169H61"/>
<path class="st0" d="M1175,225H61"/>
<path class="st0" d="M1175,281H61"/>
<path class="st0" d="M1175,337H61"/>
<linearGradient id="SVGID_1_" gradientUnits="userSpaceOnUse" x1="59.9844" y1="494.4424" x2="59.9844" y2="-120.8" gradientTransform="matrix(1 0 0 -1 0 495.2)">
	<stop  offset="0" style="stop-color:#4186BF"/>
	<stop  offset="1" style="stop-color:#4186BF;stop-opacity:0"/>
</linearGradient>
<path class="st1" d="M57,12.2L46.1,23.1l-4.2-4.2l16-16L60,0.8l2.1,2.1l16,16l-4.2,4.2L63,12.3V451h-6V12.2z"/>
<linearGradient id="SVGID_2_" gradientUnits="userSpaceOnUse" x1="1179.24" y1="44.0935" x2="56.9999" y2="44.0935" gradientTransform="matrix(1 0 0 -1 0 495.2)">
	<stop  offset="0" style="stop-color:#D3AD0F"/>
	<stop  offset="1" style="stop-color:#D3AD0F;stop-opacity:0"/>
</linearGradient>
<path class="st2" d="M1167.7,448l-10.8-10.8l4.2-4.2l16,16l2.1,2.1l-2.1,2.1l-16,16l-4.2-4.2l11-11H57v-6H1167.7z"/>
<path class="st3" d="M478,492h3.1v-6.5h2.2c3.1,0,5.9-1.7,5.9-5.1c0-3.5-2.7-5-5.9-5H478V492z M483,483h-1.8v-5.1h1.8
	c1.6,0,3.1,0.7,3.1,2.5C486,482.2,484.6,483,483,483z M501.7,485.6c0-3.1-2.2-5.4-5.7-5.4c-3.3,0-6,2.5-6,6.2c0,3.7,2.6,5.9,6.1,5.9
	c2.8,0,4.6-1.2,5.2-1.9l-1.2-1.7c-0.6,0.5-1.9,1.2-3.5,1.2c-1.7,0-3.2-0.9-3.5-2.7h8.5C501.7,487.2,501.7,486.2,501.7,485.6z
	 M496,482.4c2.2,0,2.6,1.5,2.7,2.7h-5.6C493.2,483.7,494.2,482.4,496,482.4z M504,492h3v-5.7c0-0.9,0.1-1.7,0.4-2.3
	c0.4-0.7,1.1-1.1,2-1.1c0.4,0,0.9,0,1.3,0.1h0.1l0.2-2.7c0,0-0.4-0.2-1.2-0.2c-1.2,0-2.4,0.8-2.9,2.1H507l0-1.9h-3V492z
	 M519.3,483.5l1.3-2c-1-0.7-2.1-1.2-4.2-1.2c-2.2,0-4.2,1.4-4.2,3.5c0,1.7,0.9,2.7,2.6,3.3l1.3,0.5c1.5,0.5,1.9,0.8,1.9,1.4
	c0,0.7-0.5,1.1-1.7,1.1c-1,0-2.2-0.5-3.5-1.6l-1.2,2.1c0.9,1.1,2.9,1.8,4.7,1.8c2.9,0,4.6-1.6,4.6-3.8c0-1.7-0.9-2.6-3.5-3.4
	l-0.8-0.3c-1.3-0.4-1.7-0.8-1.7-1.3c0-0.6,0.5-0.9,1.5-0.9C517.6,482.5,518.6,483,519.3,483.5z M528.8,492.3c3.6,0,6.3-2.4,6.3-6
	s-2.7-6.1-6.3-6.1c-3.6,0-6.3,2.4-6.3,6.1S525.2,492.3,528.8,492.3z M531.9,486.2c0,2-1.2,3.6-3.1,3.6c-2,0-3.1-1.6-3.1-3.6
	s1.1-3.5,3.1-3.5C530.8,482.6,531.9,484.2,531.9,486.2z M545.2,492h3.1v-6.9c0-2.8-0.8-4.9-4.2-4.9c-1.7,0-2.9,0.7-3.5,2h-0.1l0-1.8
	h-3.1V492h3.1v-5.8c0-1.9,0.6-3.5,2.5-3.5c1.8,0,2.1,1.4,2.1,3.1V492z M558,492h3v-6.6c0-3.6-1.8-5.2-5.4-5.2c-2,0-3.6,0.7-4.5,1.2
	l0.9,2c0.5-0.4,1.8-1,3.3-1c1.6,0,2.6,0.7,2.6,2.2v0.3l-2.8,0.2c-2.4,0.2-4.8,1.1-4.8,3.5s1.8,3.6,4.1,3.6c1.7,0,3.1-0.8,3.6-1.6
	L558,492z M557.9,486.8v2.1c-0.4,0.6-1.3,1.3-2.5,1.3c-1.3,0-2-0.7-2-1.7c0-1,0.8-1.5,2.4-1.6L557.9,486.8z M564,492h3v-16.6h-3V492
	z M571.9,478.5c1.1,0,1.8-0.7,1.8-1.7c0-1-0.8-1.7-1.8-1.7c-1.1,0-1.8,0.7-1.8,1.7C570,477.8,570.8,478.5,571.9,478.5z M570.3,492
	h3.1v-11.6h-3.1V492z M575.6,492h10.4v-2.4h-6.5l6.2-7.4v-1.8H576v2.4h6l-6.3,7.4V492z M599.2,485.6c0-3.1-2.2-5.4-5.7-5.4
	c-3.3,0-6,2.5-6,6.2c0,3.7,2.6,5.9,6.1,5.9c2.8,0,4.6-1.2,5.2-1.9l-1.2-1.7c-0.6,0.5-1.9,1.2-3.5,1.2c-1.7,0-3.2-0.9-3.5-2.7h8.5
	C599.2,487.2,599.2,486.2,599.2,485.6z M593.5,482.4c2.2,0,2.6,1.5,2.7,2.7h-5.6C590.7,483.7,591.7,482.4,593.5,482.4z M610.5,492
	h2.9v-16.6h-3v4.6c0,0.8,0,1.4,0,2h0c-0.8-1.2-2.1-1.8-3.7-1.8c-3.5,0-5.7,2.7-5.7,6c0,3.5,2.1,6.1,5.5,6.1c1.6,0,3-0.6,4-2.1h0.1
	L610.5,492z M607.3,489.8c-2,0-3.2-1.6-3.2-3.6c0-1.9,1.2-3.6,3.1-3.6c2,0,3.2,1.7,3.2,3.6C610.4,488.4,609.1,489.8,607.3,489.8z
	 M632.6,485.6c0-3.1-2.2-5.4-5.7-5.4c-3.3,0-6,2.5-6,6.2c0,3.7,2.6,5.9,6.1,5.9c2.8,0,4.6-1.2,5.2-1.9l-1.2-1.7
	c-0.6,0.5-1.9,1.2-3.5,1.2c-1.7,0-3.2-0.9-3.5-2.7h8.5C632.6,487.2,632.6,486.2,632.6,485.6z M626.9,482.4c2.2,0,2.6,1.5,2.7,2.7
	H624C624.1,483.7,625,482.4,626.9,482.4z M642.6,492h3.1v-6.9c0-2.8-0.8-4.9-4.2-4.9c-1.7,0-2.9,0.7-3.5,2h-0.1l0-1.8h-3.1V492h3.1
	v-5.8c0-1.9,0.6-3.5,2.5-3.5c1.8,0,2.1,1.4,2.1,3.1V492z M657.4,489.8v0.6c0,2.6-1.1,3.8-3.7,3.8c-1.5,0-3.4-0.8-4.1-1.4l-1.3,2.1
	c0.6,0.4,2.6,1.7,5.4,1.7c2.8,0,4.3-1,5.3-2c1-1,1.5-2.5,1.5-5v-9.2h-3l0,1.6h0c-0.8-1.2-2.1-1.8-3.7-1.8c-3.5,0-5.7,2.7-5.7,5.9
	c0,3.7,2.5,5.6,5.4,5.6C655.2,491.6,656.6,491,657.4,489.8L657.4,489.8z M657.6,486c0,1.8-1.1,3.2-3.3,3.2c-2,0-3.2-1.5-3.2-3.2
	c0-1.9,1.2-3.4,3.2-3.4S657.6,484.3,657.6,486z M670.4,492h3v-6.6c0-3.6-1.8-5.2-5.4-5.2c-2,0-3.6,0.7-4.5,1.2l0.9,2
	c0.5-0.4,1.8-1,3.3-1c1.6,0,2.6,0.7,2.6,2.2v0.3l-2.8,0.2c-2.4,0.2-4.8,1.1-4.8,3.5s1.8,3.6,4.1,3.6c1.7,0,3.1-0.8,3.6-1.6
	L670.4,492z M670.3,486.8v2.1c-0.4,0.6-1.3,1.3-2.5,1.3c-1.3,0-2-0.7-2-1.7c0-1,0.8-1.5,2.4-1.6L670.3,486.8z M684.9,489.8v0.6
	c0,2.6-1.1,3.8-3.7,3.8c-1.5,0-3.4-0.8-4.1-1.4l-1.3,2.1c0.6,0.4,2.6,1.7,5.4,1.7c2.8,0,4.3-1,5.3-2c1-1,1.5-2.5,1.5-5v-9.2h-3
	l0,1.6h0c-0.8-1.2-2.1-1.8-3.7-1.8c-3.5,0-5.7,2.7-5.7,5.9c0,3.7,2.5,5.6,5.4,5.6C682.7,491.6,684.1,491,684.9,489.8L684.9,489.8z
	 M685.1,486c0,1.8-1.1,3.2-3.3,3.2c-2,0-3.2-1.5-3.2-3.2c0-1.9,1.2-3.4,3.2-3.4C683.9,482.6,685.1,484.3,685.1,486z M702.1,485.6
	c0-3.1-2.2-5.4-5.7-5.4c-3.3,0-6,2.5-6,6.2c0,3.7,2.6,5.9,6.1,5.9c2.8,0,4.6-1.2,5.2-1.9l-1.2-1.7c-0.6,0.5-1.9,1.2-3.5,1.2
	c-1.7,0-3.2-0.9-3.5-2.7h8.5C702.1,487.2,702.1,486.2,702.1,485.6z M696.4,482.4c2.2,0,2.6,1.5,2.7,2.7h-5.6
	C693.6,483.7,694.5,482.4,696.4,482.4z M718,480.2c-1.7,0-3,0.8-3.8,2.2c-0.6-1.5-1.6-2.2-3.3-2.2c-1.5,0-2.9,0.9-3.5,2h-0.1l0-1.8
	h-3.1V492h3.1v-6c0-1.8,0.7-3.3,2.3-3.3c1.5,0,1.9,1.2,1.9,2.8v6.5h3.1v-6c0-2,0.8-3.3,2.3-3.3c1.5,0,1.8,1.4,1.8,2.8v6.5h3.1v-7
	C721.9,482.3,721.1,480.2,718,480.2z M735.9,485.6c0-3.1-2.2-5.4-5.7-5.4c-3.3,0-6,2.5-6,6.2c0,3.7,2.6,5.9,6.1,5.9
	c2.8,0,4.6-1.2,5.2-1.9l-1.2-1.7c-0.6,0.5-1.9,1.2-3.5,1.2c-1.7,0-3.2-0.9-3.5-2.7h8.5C735.9,487.2,735.9,486.2,735.9,485.6z
	 M730.2,482.4c2.2,0,2.6,1.5,2.7,2.7h-5.6C727.4,483.7,728.3,482.4,730.2,482.4z M745.9,492h3.1v-6.9c0-2.8-0.8-4.9-4.2-4.9
	c-1.7,0-2.9,0.7-3.5,2h-0.1l0-1.8h-3.1V492h3.1v-5.8c0-1.9,0.6-3.5,2.5-3.5c1.8,0,2.1,1.4,2.1,3.1V492z M755.6,482.8h2.7v-2.4h-2.7
	v-3.3h-3v3.3h-1.7v2.4h1.7v5.4c0,3,1,4.1,3.4,4.1c1.3,0,2.2-0.3,2.4-0.4l-0.2-2.4c0,0-0.5,0.2-1.1,0.2c-1.1,0-1.4-0.4-1.4-2.2V482.8
	z"/>
<path class="st3" d="M17,325.3V320c0-5.1-3-8.9-8.3-8.9c-5.3,0-8.3,3.9-8.3,8.9l0,5.3H17z M14.4,319.9v2.3H3.1v-2.3
	c0-3.5,2.2-5.6,5.7-5.6C12.2,314.3,14.4,316.5,14.4,319.9z M3.5,306.8c0-1.1-0.7-1.8-1.7-1.8c-1,0-1.7,0.8-1.7,1.8
	c0,1.1,0.7,1.8,1.7,1.8C2.8,308.6,3.5,307.9,3.5,306.8z M17,308.3v-3.1H5.4v3.1H17z M14.8,293.4h0.6c2.6,0,3.8,1.1,3.8,3.7
	c0,1.5-0.8,3.4-1.4,4.1l2.1,1.3c0.4-0.6,1.7-2.6,1.7-5.4c0-2.8-1-4.3-2-5.3c-1-1-2.5-1.5-5-1.5H5.4v3l1.6,0v0
	c-1.2,0.8-1.8,2.1-1.8,3.7c0,3.5,2.7,5.7,5.9,5.7c3.7,0,5.6-2.5,5.6-5.4C16.6,295.6,16,294.2,14.8,293.4L14.8,293.4z M11,293.2
	c1.8,0,3.2,1.1,3.2,3.3c0,2-1.5,3.2-3.2,3.2c-1.9,0-3.4-1.2-3.4-3.2C7.6,294.5,9.3,293.2,11,293.2z M3.5,285.6
	c0-1.1-0.7-1.8-1.7-1.8c-1,0-1.7,0.8-1.7,1.8c0,1.1,0.7,1.8,1.7,1.8C2.8,287.4,3.5,286.6,3.5,285.6z M17,287.1V284H5.4v3.1H17z
	 M7.8,277.3v-2.7H5.4v2.7H2.1v3h3.3v1.7h2.4v-1.7h5.4c3,0,4.1-1,4.1-3.4c0-1.3-0.3-2.2-0.4-2.4l-2.4,0.2c0,0,0.2,0.5,0.2,1.1
	c0,1.1-0.4,1.4-2.2,1.4H7.8z M17,265.8v-3h-6.6c-3.6,0-5.2,1.8-5.2,5.4c0,2,0.7,3.6,1.2,4.5l2-0.9c-0.4-0.5-1-1.8-1-3.3
	c0-1.6,0.7-2.6,2.2-2.6h0.3l0.2,2.8c0.2,2.4,1.1,4.8,3.5,4.8s3.6-1.8,3.6-4.1c0-1.7-0.8-3.1-1.6-3.6L17,265.8z M11.8,265.9h2.1
	c0.6,0.4,1.3,1.3,1.3,2.5c0,1.3-0.7,2-1.7,2s-1.5-0.8-1.6-2.4L11.8,265.9z M17,259.8v-3H0.4v3H17z M5.4,245.4v3.1h16v-3h-4
	c-0.8,0-1.3,0-1.9,0l0,0c1.2-1,1.8-1.9,1.8-3.7c0-3.5-2.7-5.7-6-5.7c-3.5,0-6.1,2.1-6.1,5.5c0,1.5,0.5,2.9,1.9,3.9l0,0L5.4,245.4z
	 M7.6,242.4c0-2,1.6-3.2,3.6-3.2c1.9,0,3.6,1.2,3.6,3.1c0,2-1.7,3.2-3.6,3.2C9,245.5,7.6,244.2,7.6,242.4z M5.4,230.8v3.1h6.9
	c2.8,0,4.9-0.8,4.9-4.2c0-1.7-0.7-2.9-1.8-3.6l1.6,0v-3H5.4v3.1h5.9c1.9,0,3.4,0.7,3.4,2.5c0,1.8-1.4,2.1-3.1,2.1H5.4z M17,220v-3
	h-5.7c-0.9,0-1.7-0.1-2.3-0.4c-0.7-0.4-1.1-1.1-1.1-2c0-0.4,0-0.9,0.1-1.3v-0.1l-2.7-0.2c0,0-0.2,0.4-0.2,1.2c0,1.2,0.8,2.4,2.1,2.9
	v0.1l-1.9,0v3H17z M13.4,202.3c0,0,1.2,1.1,1.2,3.1c0,2-1.4,3.5-3.5,3.5c-2.1,0-3.4-1.5-3.4-3.3c0-1.8,0.9-2.8,1.2-3.2l-2.3-0.8
	c-0.3,0.3-1.5,1.5-1.5,4.4c0,3.1,2.3,6.1,6.1,6.1c3.8,0,6-2.9,6-6.1c0-3.1-1.3-4.3-1.6-4.5L13.4,202.3z M5.2,192.8
	c0,1.7,0.7,2.9,2,3.5v0H0.4v3H17v-3h-5.8c-1.9,0-3.5-0.6-3.5-2.5c0-1.8,1.4-2.1,3.1-2.1H17v-3.1h-6.9C7.3,188.6,5.2,189.5,5.2,192.8
	z M17,178.8v-3h-6.6c-3.6,0-5.2,1.8-5.2,5.4c0,2,0.7,3.6,1.2,4.5l2-0.9c-0.4-0.5-1-1.8-1-3.3c0-1.6,0.7-2.6,2.2-2.6h0.3l0.2,2.8
	c0.2,2.4,1.1,4.8,3.5,4.8s3.6-1.8,3.6-4.1c0-1.7-0.8-3.1-1.6-3.6L17,178.8z M11.8,178.9h2.1c0.6,0.4,1.3,1.3,1.3,2.5
	c0,1.3-0.7,2-1.7,2s-1.5-0.8-1.6-2.4L11.8,178.9z M8.5,166.3l-2-1.3c-0.7,1-1.2,2.1-1.2,4.2c0,2.2,1.4,4.2,3.5,4.2
	c1.7,0,2.7-0.9,3.3-2.6l0.5-1.3c0.5-1.5,0.8-1.9,1.4-1.9c0.7,0,1.1,0.5,1.1,1.7c0,1-0.5,2.2-1.6,3.5l2.1,1.2
	c1.1-0.9,1.8-2.9,1.8-4.7c0-2.9-1.6-4.6-3.8-4.6c-1.7,0-2.6,0.9-3.4,3.5l-0.3,0.8c-0.4,1.3-0.8,1.7-1.3,1.7c-0.6,0-0.9-0.5-0.9-1.5
	C7.5,167.9,8,167,8.5,166.3z M3.5,160.7c0-1.1-0.7-1.8-1.7-1.8c-1,0-1.7,0.8-1.7,1.8c0,1.1,0.7,1.8,1.7,1.8
	C2.8,162.6,3.5,161.8,3.5,160.7z M17,162.3v-3.1H5.4v3.1H17z M17,148.3v-3.1h-6.9c-2.8,0-4.9,0.8-4.9,4.2c0,1.7,0.7,2.9,2,3.5v0.1
	l-1.8,0v3.1H17V153h-5.8c-1.9,0-3.5-0.6-3.5-2.5c0-1.8,1.4-2.1,3.1-2.1H17z M14.8,133.5h0.6c2.6,0,3.8,1.1,3.8,3.7
	c0,1.5-0.8,3.4-1.4,4.1l2.1,1.3c0.4-0.6,1.7-2.6,1.7-5.4c0-2.8-1-4.3-2-5.3c-1-1-2.5-1.5-5-1.5H5.4v3l1.6,0v0
	c-1.2,0.8-1.8,2.1-1.8,3.7c0,3.5,2.7,5.7,5.9,5.7c3.7,0,5.6-2.5,5.6-5.4C16.6,135.8,16,134.4,14.8,133.5L14.8,133.5z M11,133.4
	c1.8,0,3.2,1.1,3.2,3.3c0,2-1.5,3.2-3.2,3.2c-1.9,0-3.4-1.2-3.4-3.2C7.6,134.6,9.3,133.4,11,133.4z"/>
<radialGradient id="SVGID_3_" cx="319.7394" cy="314.9634" r="1" gradientTransform="matrix(318 -293.0004 -310.627 -337.1306 -3785.9824 200322.5469)" gradientUnits="userSpaceOnUse">
	<stop  offset="0" style="stop-color:#5F3A9B"/>
	<stop  offset="1" style="stop-color:#5F3A9B;stop-opacity:0"/>
</radialGradient>
<path class="st4" d="M62,7.5c323.6,0,446.2,293.7,467,440.5H62V7.5z"/>
<path class="st5" d="M96.2,387h6.2c6,0,10.4-3.4,10.4-9.7c0-6.2-4.5-9.6-10.4-9.6h-6.2V387z M102.6,383.9h-2.7v-13.2h2.7
	c4.1,0,6.5,2.5,6.5,6.6C109.1,381.4,106.6,383.9,102.6,383.9z M117.8,371.3c1.3,0,2.2-0.8,2.2-2c0-1.1-0.9-2-2.2-2
	c-1.3,0-2.2,0.8-2.2,2C115.7,370.5,116.6,371.3,117.8,371.3z M116,387h3.6v-13.6H116V387z M133.4,384.4v0.7c0,3-1.3,4.4-4.4,4.4
	c-1.7,0-3.9-1-4.8-1.6l-1.5,2.5c0.7,0.5,3.1,2,6.3,2c3.2,0,5-1.1,6.2-2.4c1.1-1.2,1.8-2.9,1.8-5.9v-10.8h-3.6l0,1.9h-0.1
	c-1-1.5-2.5-2.1-4.3-2.1c-4,0-6.7,3.1-6.7,6.9c0,4.3,2.9,6.5,6.3,6.5C130.8,386.6,132.5,385.8,133.4,384.4L133.4,384.4z M133.6,380
	c0,2.1-1.3,3.8-3.9,3.8c-2.4,0-3.7-1.7-3.7-3.8c0-2.2,1.4-3.9,3.8-3.9C132.2,376,133.6,378,133.6,380z M142.5,371.3
	c1.3,0,2.2-0.8,2.2-2c0-1.1-0.9-2-2.2-2c-1.3,0-2.2,0.8-2.2,2C140.4,370.5,141.3,371.3,142.5,371.3z M140.7,387h3.6v-13.6h-3.6V387z
	 M152.2,376.2h3.1v-2.8h-3.1v-3.9h-3.6v3.9h-2v2.8h2v6.3c0,3.5,1.1,4.8,3.9,4.8c1.5,0,2.6-0.4,2.7-0.4l-0.2-2.8c0,0-0.6,0.2-1.3,0.2
	c-1.3,0-1.6-0.5-1.6-2.6V376.2z M165.5,387h3.4v-7.8c0-4.2-2.1-6-6.3-6c-2.4,0-4.3,0.8-5.3,1.4l1.1,2.3c0.6-0.4,2.1-1.1,3.9-1.1
	c1.9,0,3,0.8,3,2.5v0.4l-3.2,0.2c-2.8,0.2-5.6,1.3-5.6,4.1s2.1,4.3,4.8,4.3c2,0,3.6-0.9,4.1-1.9L165.5,387z M165.4,380.9v2.5
	c-0.5,0.7-1.5,1.5-2.9,1.5c-1.5,0-2.4-0.8-2.4-1.9s0.9-1.8,2.8-1.9L165.4,380.9z M172.4,387h3.6v-19.3h-3.6V387z M179.8,387h3.6
	v-19.3h-3.6V387z M190.9,387.1l-0.6,1.4c-0.3,0.7-0.9,0.9-1.6,0.9c-0.7,0-1.6-0.3-1.6-0.3l-0.7,2.7c0,0,1.3,0.6,3.2,0.6
	c1.9,0,3-1.1,4-3.5l6.3-15.4h-3.7l-3.5,9.6l-3.6-9.6h-3.8L190.9,387.1z M123.6,419h3.6v-8c0-3.2-1-5.8-4.9-5.8c-2,0-3.3,0.9-4.1,2.3
	h-0.1l0-2h-3.6V419h3.6v-6.7c0-2.3,0.8-4.1,3-4.1c2.1,0,2.4,1.6,2.4,3.6V419z M138.6,419h3.4v-7.8c0-4.2-2.1-6-6.3-6
	c-2.4,0-4.3,0.8-5.3,1.4l1.1,2.3c0.6-0.4,2.1-1.1,3.9-1.1c1.9,0,3,0.8,3,2.5v0.4l-3.2,0.2c-2.8,0.2-5.6,1.3-5.6,4.1s2.1,4.3,4.8,4.3
	c2,0,3.6-0.9,4.1-1.9L138.6,419z M138.5,412.9v2.5c-0.5,0.7-1.5,1.5-2.9,1.5c-1.5,0-2.4-0.8-2.4-1.9s0.9-1.8,2.8-1.9L138.5,412.9z
	 M147.2,403.3c1.3,0,2.2-0.8,2.2-2c0-1.1-0.9-2-2.2-2c-1.3,0-2.2,0.8-2.2,2C145.1,402.5,146,403.3,147.2,403.3z M145.4,419h3.6
	v-13.6h-3.6V419z M156.6,419h3.5l5.6-13.6h-3.6l-3.7,9.8l-3.7-9.8H151L156.6,419z M180.3,411.6c0-3.6-2.5-6.4-6.7-6.4
	c-3.9,0-7,2.9-7,7.3c0,4.4,3,6.9,7.1,6.9c3.3,0,5.3-1.4,6.1-2.2l-1.4-1.9c-0.6,0.6-2.3,1.4-4.1,1.4c-2,0-3.7-1.1-4-3.2h10
	C180.3,413.4,180.3,412.3,180.3,411.6z M173.6,407.9c2.5,0,3.1,1.7,3.1,3.2h-6.5C170.4,409.3,171.5,407.9,173.6,407.9z"/>
<radialGradient id="SVGID_4_" cx="320.2625" cy="313.4449" r="1" gradientTransform="matrix(-322.501 293.9991 311.6856 341.9022 6762.6943 -201319.8594)" gradientUnits="userSpaceOnUse">
	<stop  offset="0" style="stop-color:#13C1BF"/>
	<stop  offset="1" style="stop-color:#13C1BF;stop-opacity:0"/>
</radialGradient>
<path class="st6" d="M1174,445.5C850.4,445.5,727.8,151.8,707,5h467V445.5z"/>
<path class="st5" d="M1047.2,56h6.2c6,0,10.4-3.4,10.4-9.7c0-6.2-4.5-9.6-10.4-9.6h-6.2V56z M1053.6,52.9h-2.7V39.7h2.7
	c4.1,0,6.5,2.5,6.5,6.6C1060.1,50.4,1057.6,52.9,1053.6,52.9z M1068.8,40.3c1.3,0,2.2-0.8,2.2-2c0-1.1-0.9-2-2.2-2s-2.2,0.8-2.2,2
	C1066.7,39.5,1067.6,40.3,1068.8,40.3z M1067,56h3.6V42.4h-3.6V56z M1084.4,53.4v0.7c0,3-1.3,4.4-4.4,4.4c-1.7,0-3.9-1-4.8-1.6
	l-1.5,2.5c0.7,0.5,3.1,2,6.3,2c3.2,0,5-1.1,6.2-2.4c1.2-1.2,1.8-2.9,1.8-5.9V42.4h-3.6l0,1.9h0c-1-1.5-2.5-2.1-4.3-2.1
	c-4,0-6.7,3.1-6.7,6.9c0,4.3,2.9,6.5,6.3,6.5C1081.8,55.6,1083.5,54.8,1084.4,53.4L1084.4,53.4z M1084.6,49c0,2.1-1.3,3.8-3.9,3.8
	c-2.3,0-3.7-1.7-3.7-3.8c0-2.2,1.4-3.9,3.8-3.9C1083.2,45,1084.6,47,1084.6,49z M1093.5,40.3c1.3,0,2.2-0.8,2.2-2c0-1.1-0.9-2-2.2-2
	s-2.2,0.8-2.2,2C1091.4,39.5,1092.3,40.3,1093.5,40.3z M1091.7,56h3.6V42.4h-3.6V56z M1103.2,45.2h3.1v-2.8h-3.1v-3.9h-3.6v3.9h-2
	v2.8h2v6.3c0,3.5,1.2,4.8,3.9,4.8c1.5,0,2.6-0.4,2.7-0.4l-0.2-2.8c0,0-0.6,0.2-1.3,0.2c-1.3,0-1.6-0.5-1.6-2.6V45.2z M1116.5,56h3.4
	v-7.8c0-4.2-2.1-6-6.3-6c-2.4,0-4.3,0.8-5.3,1.4l1.1,2.3c0.6-0.4,2.1-1.1,3.9-1.1c1.9,0,3,0.8,3,2.5v0.4l-3.2,0.2
	c-2.8,0.2-5.6,1.3-5.6,4.1c0,2.8,2.1,4.3,4.8,4.3c2,0,3.6-0.9,4.1-1.9L1116.5,56z M1116.4,49.9v2.5c-0.5,0.7-1.5,1.5-2.9,1.5
	c-1.5,0-2.3-0.8-2.3-1.9c0-1.1,0.9-1.8,2.8-1.9L1116.4,49.9z M1123.4,56h3.6V36.7h-3.6V56z M1130.8,56h3.5V36.7h-3.5V56z
	 M1141.9,56.1l-0.6,1.4c-0.3,0.7-0.9,0.9-1.6,0.9c-0.7,0-1.6-0.3-1.6-0.3l-0.7,2.7c0,0,1.3,0.6,3.2,0.6c1.9,0,3-1.1,4-3.5l6.3-15.4
	h-3.7l-3.5,9.6l-3.6-9.6h-3.8L1141.9,56.1z M1072,78l1.5-2.4c-1.1-0.8-2.5-1.5-4.9-1.5c-2.6,0-4.8,1.6-4.8,4.1c0,2,1,3.2,3.1,3.9
	l1.6,0.5c1.7,0.6,2.3,1,2.3,1.7c0,0.8-0.6,1.3-2,1.3c-1.1,0-2.5-0.6-4.1-1.8l-1.5,2.4c1.1,1.3,3.4,2.1,5.5,2.1
	c3.3,0,5.4-1.9,5.4-4.5c0-2-1.1-3-4.1-4l-1-0.3c-1.5-0.5-2-1-2-1.5c0-0.6,0.6-1.1,1.8-1.1C1070.1,76.9,1071.2,77.4,1072,78z
	 M1084.6,88h3.4v-7.8c0-4.2-2.1-6-6.3-6c-2.4,0-4.3,0.8-5.3,1.4l1.1,2.3c0.6-0.4,2.1-1.1,3.9-1.1c1.9,0,3,0.8,3,2.5v0.4l-3.2,0.2
	c-2.8,0.2-5.6,1.3-5.6,4.1c0,2.8,2.1,4.3,4.8,4.3c2,0,3.6-0.9,4.1-1.9L1084.6,88z M1084.5,81.9v2.5c-0.5,0.7-1.5,1.5-2.9,1.5
	c-1.5,0-2.3-0.8-2.3-1.9c0-1.1,0.9-1.8,2.8-1.9L1084.5,81.9z M1094.9,88h3.5l5.6-13.6h-3.6l-3.7,9.8l-3.7-9.8h-3.7L1094.9,88z
	 M1109.8,88h3.5l5.6-13.6h-3.6l-3.7,9.8l-3.7-9.8h-3.7L1109.8,88z M1124.6,88.1l-0.6,1.4c-0.3,0.7-0.9,0.9-1.6,0.9
	c-0.7,0-1.6-0.3-1.6-0.3l-0.7,2.7c0,0,1.3,0.6,3.2,0.6c1.9,0,3-1.1,4-3.5l6.3-15.4h-3.7l-3.5,9.6l-3.6-9.6h-3.8L1124.6,88.1z"/>
<path class="st5" d="M918.5,207.3c0-18.3-14.8-33-33-33c-18.3,0-33,14.8-33,33c0,18.3,14.8,33,33,33
	C903.8,240.3,918.5,225.6,918.5,207.3z M885.5,237.9c-16.9,0-30.6-13.7-30.6-30.6c0-16.9,13.7-30.6,30.6-30.6
	c16.9,0,30.6,13.7,30.6,30.6C916.1,224.2,902.4,237.9,885.5,237.9z"/>
<path class="st5" d="M843.2,196.7c0.8,0.5,1.7,0.6,2.4,0.6c0.9,0,1.7,0,2.4-0.3c0.8-0.2,1.5-0.6,2.1-1.2c0.6-0.6,1.2-1.4,1.5-2.1
	c0.3-0.6,0.5-1.1,0.6-1.5c0-0.5,0.2-0.9,0.2-1.4c0-0.5,0-0.9-0.2-1.4l-0.5-1.4l-2.4,0.8c0.2,0.6,0.3,1.2,0.3,1.8
	c0,0.6-0.2,1.2-0.5,1.8c-0.3,0.5-0.6,0.9-0.9,1.2c-0.3,0.3-0.8,0.5-1.2,0.6c-0.5,0.2-0.9,0.2-1.5,0.2c-0.5,0-1.1-0.2-1.5-0.3
	c-0.5-0.2-0.9-0.5-1.2-0.9c-0.3-0.3-0.6-0.8-0.8-1.2c-0.2-0.5-0.3-0.9-0.3-1.4c0-0.5,0.2-1.1,0.3-1.5c0.3-0.6,0.6-1.1,1.1-1.4
	c0.5-0.3,1.1-0.6,1.7-0.9l-1.1-2.4c-0.3,0.2-0.8,0.3-1.1,0.5c-0.3,0.2-0.8,0.5-1.1,0.8c-0.3,0.3-0.6,0.6-0.9,1.1
	c-0.3,0.5-0.6,0.9-0.8,1.4c-0.5,0.9-0.6,1.8-0.6,2.6c0,0.8,0,1.7,0.3,2.4c0.3,0.8,0.8,1.5,1.4,2
	C841.7,195.8,842.5,196.2,843.2,196.7z"/>
<path class="st5" d="M857.2,183.9l-3.3-3.2l4.1-4l3.5,3.2l1.4-1.8l-8.8-8.7l-1.7,1.7l4.1,4.3l-4,4.1l-4.1-4.1l-1.8,2l9.1,8.8
	L857.2,183.9z"/>
<path class="st5" d="M869.4,174.2l-5.9-11.1l-2.1,1.2l5.9,11.1L869.4,174.2z"/>
<path class="st5" d="M875.8,171.9l-0.8-3.8l2.6-0.5c0.8-0.2,1.4-0.3,2-0.6c0.6-0.3,1.2-0.6,1.5-1.1c0.3-0.5,0.6-0.9,0.8-1.5
	c0.2-0.6,0.2-1.2,0-1.8c-0.2-0.6-0.3-1.2-0.8-1.7c-0.3-0.5-0.8-0.9-1.2-1.2c-0.5-0.3-1.1-0.5-1.8-0.6c-0.6,0-1.4,0-2.1,0l-5.2,1.1
	l2.6,12.2L875.8,171.9z M876.4,161.5c0.6-0.2,1.4,0,1.8,0.2c0.5,0.2,0.8,0.6,0.9,1.2c0.2,0.5,0,0.9-0.3,1.4
	c-0.3,0.5-0.9,0.8-1.7,0.9l-2.3,0.5l-0.8-3.7L876.4,161.5z"/>
<path class="st5" d="M887.8,168.4c0.5,0.8,1.1,1.4,1.8,1.8c0.8,0.6,1.7,0.9,2.6,1.2c1.1,0.3,2,0.3,2.9,0.2c0.9,0,1.7-0.3,2.4-0.8
	c0.8-0.5,1.4-1.1,1.8-1.7c0.5-0.6,0.9-1.5,1.1-2.4c0.2-0.9,0.2-1.7,0-2.6c-0.2-0.9-0.5-1.7-0.9-2.4c-0.5-0.8-1.1-1.4-1.8-1.8
	c-0.8-0.6-1.7-0.9-2.6-1.2c-1.1-0.3-2-0.3-2.9-0.2c-0.9,0-1.7,0.3-2.4,0.8c-0.8,0.5-1.4,1.1-1.8,1.7c-0.5,0.8-0.9,1.5-1.1,2.4
	c-0.2,0.9-0.2,1.7,0,2.6C887.1,166.9,887.4,167.8,887.8,168.4z M889.9,164.1c0-0.6,0.3-1.1,0.6-1.5c0.3-0.5,0.6-0.8,1.1-1.1
	c0.5-0.3,0.9-0.5,1.4-0.5c0.5,0,1.1,0,1.7,0c0.6,0.2,1.1,0.5,1.5,0.8c0.5,0.3,0.8,0.8,1.1,1.2c0.3,0.5,0.5,0.9,0.5,1.5
	c0,0.5,0,1.1,0,1.7c0,0.6-0.3,1.1-0.6,1.5c-0.3,0.5-0.6,0.8-1.1,1.1c-0.5,0.2-0.9,0.5-1.4,0.5s-1.1,0-1.7,0
	c-0.6-0.2-1.1-0.3-1.5-0.8c-0.5-0.3-0.8-0.8-1.1-1.2c-0.3-0.5-0.5-0.9-0.5-1.5C889.8,165.2,889.8,164.6,889.9,164.1z"/>
<path class="st5" d="M906.1,176.4l5.5-8.8l3.2,2l1.2-1.8l-9.1-5.5l-1.2,1.8l3.8,2.3l-5.3,8.8L906.1,176.4z"/>
<path class="st5" d="M917.2,187.4l2-1.5l-4.4-5l7.9-6.7l-1.7-2l-9.4,8.4L917.2,187.4z"/>
<path class="st5" d="M930.6,185.6l-11.9,4.4l3.5,8.8l2.1-0.8l-2.7-6.5l2.3-0.9l2,5l2.1-0.8l-2-5l3.3-1.4l2.6,6.2l2-0.8L930.6,185.6z
	"/>
<path class="st5" d="M841.6,209c0.5,0.2,0.9,0.2,1.4,0c0.5-0.2,0.6-0.6,0.6-1.1c0-0.5-0.2-0.9-0.6-1.1c-0.5-0.2-0.9-0.2-1.4,0
	c-0.5,0.2-0.6,0.6-0.6,1.1C840.8,208.4,841.1,208.8,841.6,209z"/>
<path class="st5" d="M930,209c0.5-0.2,0.6-0.6,0.6-1.1c0-0.5-0.2-0.9-0.6-1.1c-0.5-0.2-0.9-0.2-1.4,0c-0.5,0.2-0.6,0.6-0.6,1.1
	c0,0.5,0.2,0.9,0.6,1.1C929,209.3,929.5,209.3,930,209z"/>
<path class="st5" d="M849.5,223l-3.5-0.6l2.1-2.7l-0.6-1.5l-6.4,2.4l0.5,1.4l4.3-1.7l-2.1,2.9l3.5,0.8l-4.3,1.7l0.5,1.5l6.5-2.4
	L849.5,223z"/>
<path class="st5" d="M851.2,234.2l1.2-0.8l-1.8-2.7l1.2-0.8l2.1,3.2l1.2-0.8l-3-4.4l-6.1,3.7l3,4.4l1.2-0.8l-2.1-3.2l1.2-0.8
	L851.2,234.2z"/>
<path class="st5" d="M860.3,237.7l-2.6,0.6l0.5-2.7l-1.4-1.2l-0.6,4.1l-4.1,1.1l1.4,1.2l2.7-0.8l-0.5,2.9l1.4,1.2l0.6-4.3l4-0.9
	L860.3,237.7z"/>
<path class="st5" d="M860.7,247l1.4,0.8l3.7-5.9l-1.4-0.8L860.7,247z"/>
<path class="st5" d="M873.8,245.5l-0.6-0.5c-0.2-0.2-0.5-0.3-0.8-0.3c-0.6-0.2-1.1-0.2-1.5-0.2c-0.5,0-0.9,0.2-1.4,0.3
	c-0.5,0.2-0.8,0.5-1.1,0.9c-0.3,0.3-0.6,0.8-0.8,1.2c-0.2,0.5-0.2,0.9-0.2,1.5c0,0.5,0.2,0.9,0.3,1.4c0.2,0.5,0.5,0.8,0.8,1.1
	c0.3,0.3,0.8,0.6,1.2,0.8c0.3,0.2,0.6,0.2,0.8,0.2h0.8c0.2,0,0.5,0,0.8-0.2c0.3,0,0.5-0.2,0.8-0.3l-0.6-1.2
	c-0.3,0.2-0.6,0.2-0.9,0.3c-0.3,0-0.6,0-1.1-0.2c-0.3,0-0.5-0.2-0.8-0.5c-0.2-0.2-0.3-0.5-0.5-0.6c0-0.2-0.2-0.5-0.2-0.8
	c0-0.3,0-0.6,0.2-0.9c0.2-0.3,0.2-0.5,0.5-0.8c0.2-0.2,0.5-0.3,0.6-0.5c0.3-0.2,0.5-0.2,0.8-0.2c0.2,0,0.5,0,0.8,0
	c0.3,0.2,0.6,0.3,0.8,0.5c0.2,0.2,0.5,0.5,0.6,0.8l1.4-0.8c-0.2-0.2-0.2-0.3-0.3-0.6C874.1,245.8,874,245.7,873.8,245.5z"/>
<path class="st5" d="M880.5,246.7l-3.8,6.5l1.5,0.2l0.8-1.5l2.9,0.3l0.5,1.7l1.7,0.2l-2.1-7.3H880.5z M881.7,251l-1.8-0.2l1.2-2.1
	L881.7,251z"/>
<path class="st5" d="M892.7,246.7l0.5,4.3l-3.7-4l-1.4,0.2l0.8,7l1.5-0.2l-0.5-4.4l3.8,4.1l1.4-0.2l-0.8-7L892.7,246.7z"/>
<path class="st5" d="M904.2,246.3l0.5,1.1l1.4-0.6l0.5,0.9c-0.3,0.3-0.6,0.8-1.2,0.9c-0.3,0.2-0.6,0.2-0.9,0.2c-0.3,0-0.5,0-0.8-0.2
	c-0.2,0-0.5-0.2-0.6-0.5c-0.2-0.2-0.3-0.5-0.5-0.8c-0.2-0.2-0.2-0.5-0.2-0.8c0-0.3,0-0.6,0.2-0.8c0-0.2,0.2-0.5,0.3-0.6
	c0.2-0.2,0.3-0.3,0.6-0.5c0.2,0,0.3,0,0.5-0.2c0.2,0,0.3,0,0.5,0h0.5c0.2,0,0.3,0,0.5,0.2l0.5-1.5c-0.2,0-0.5-0.2-0.6-0.2h-0.6
	c-0.2,0-0.5,0-0.8,0.2c-0.2,0-0.5,0.2-0.8,0.3c-0.5,0.2-0.9,0.5-1.2,0.9c-0.3,0.3-0.6,0.8-0.8,1.2c-0.2,0.5-0.2,0.9-0.2,1.4
	c0,0.5,0,0.9,0.3,1.4c0.2,0.5,0.5,0.9,0.8,1.2c0.3,0.3,0.8,0.6,1.2,0.8c0.5,0.2,0.9,0.2,1.4,0.2c0.5,0,0.9-0.2,1.5-0.3
	c0.6-0.3,1.1-0.6,1.5-1.1c0.3-0.3,0.6-0.8,0.9-1.2l-1.2-2.7L904.2,246.3z"/>
<path class="st5" d="M915.2,240c0-0.5-0.2-0.9-0.5-1.4c-0.5-0.5-0.9-0.8-1.5-0.9c-0.6,0-1.4,0.2-2,0.8l-2.6,2l4.3,5.5l1.2-1.1
	l-1.4-1.8l0.9-0.8l2.6,0.9l1.5-1.1l-2.9-0.9C915,240.8,915.2,240.3,915.2,240z M913.2,241.2l-1.2,0.9l-1.2-1.7l1.2-0.8
	c0.3-0.2,0.6-0.3,0.9-0.3c0.3,0,0.5,0,0.8,0.3c0.2,0.2,0.2,0.5,0.2,0.8S913.5,240.9,913.2,241.2z"/>
<path class="st5" d="M915.8,234.2l5.3,4.6l1.1-1.2l-5.3-4.6L915.8,234.2z"/>
<path class="st5" d="M924.9,231.4l-4.9-2.9l-0.8,1.4l6.1,3.7l2.6-4.4l-1.2-0.8L924.9,231.4z"/>
<path class="st5" d="M928.9,222.8l-5.3-1.8l-0.5,1.5l6.7,2.1l1.7-4.9l-1.4-0.5L928.9,222.8z"/>
<path class="st5" d="M888.3,201.7c-0.3-0.3-0.3-0.6-0.6-0.9c-0.3-0.3-0.8-0.6-1.2-0.5c-0.5,0.2-0.5,0.6-1.1,0.6h-1.2
	c-0.6,0-1.4-0.2-2.1-0.3c-0.5,0-1.5-0.3-1.8-0.6c-0.3-0.2-0.9,0-1.5,0c-2.4,0.5-4.9-0.3-5,2.4c-0.2,1.2-0.6,2.3-0.6,3.5
	c0,1.7,0,3.3,0,5c0,0.6,0.2,1.2,0.3,1.8c0.3,0.8,0.8,1.5,1.2,2.3c1.4,1.8,2.4,3.3,3.5,4.6c0.6,0.5,0.3-0.2,1.1,0.5
	c0-0.3-0.3-1.1-0.6-1.4c-0.2-0.2-0.5-0.6-0.6-1.1c-0.3-0.6-0.8-1.1-0.9-1.7c-0.3-1.1-0.8-2.3-1.4-3.3c0-0.6-0.3-1.4-0.5-2
	c0-0.5,0-0.9,0-1.4c0-0.5,0-0.9,0-1.5v-2c0-0.6,0.3-1.1,0.3-1.7c0-0.5,0.8-1.1,0.9-1.4c1.7-0.3,3-0.9,4.9-1.1c2.4,0,2.6,0.3,3.7,0.5
	c1.1,0.2,1.7,0.9,2.4,1.5c0.5,0.2-0.2,0.9-0.3,1.4c0,0.3-0.3,0.6-0.5,0.9c-0.5,1.1-1.2,1.8-1.5,3c-0.5,0.9-0.6,1.2-1.1,2.3
	c-0.2,0.3-0.3,0.9-0.5,1.2c-0.2,0.3,0,1.8,0,2.1c0.2,0.5,0,1.1,0.3,1.5c0,0.2,0,0.3,0.2,0.5c0,0.3,0.2,0.8,0.3,1.1
	c0.3,1.4,0.8,2.4,1.4,3.3c0.3,0.8,0.8,1.1-0.2,0.8c-0.3,0-0.3-0.2-0.6-0.5c-0.2-0.2-0.5-0.3-0.8-0.6c-0.3-0.2-0.5-0.5-0.6-0.8
	c-0.5-0.5-0.5-0.9-1.1-1.4c-0.3-1.4-1.4-2.9-2.1-4.3c-0.3-0.6-0.6-1.1-0.9-1.7c-0.2-0.5-0.5-0.6-0.6-1.1c-0.2-0.6,0-1.5,0-2.1
	c-0.2-1.1-0.2-1.8,0.2-2.9c0-1.5,1.2-1.2,2.1-1.1c0.6,0,0.9,0,1.4,0.3c0.9,0.8,0.5,0.6,0.5,1.7c0,0.5,0,1.1-0.3,1.5
	c-0.3,0.5-0.5,1.1-0.8,1.7c0,0,0-0.8,0-1.1c0-0.5-0.5-0.9-0.9-0.8c-0.6,0.2-0.6,0.5-0.9,1.1c-0.2,0.3,0.2,1.1,0.2,1.5
	c0.2,1.1,1.1,1.7,2,1.4c0.3-0.3,0.6-0.8,0.6-1.1c0-0.5,0.3-1.1,0.5-1.5c0.2-0.6,0.5-1.2,0.8-1.7c0.3-0.9,0.9-1.8,0.3-2.9
	c-0.3-0.9-0.8-1.5-1.7-1.8c-0.3,0-1.5,0-1.8,0c-1.2,0-2,0.3-3.2,0.6c-0.3,0-0.3,0.6-0.5,0.9c-0.2,0.5-0.2,1.1-0.3,1.7
	c-0.2,0.6,0,1.5-0.2,2.1c-0.2,0.5-0.2,1.5,0,2c0.3,0.6,0.3,1.2,0.8,1.8c0.8,0.9,0.9,2,1.7,2.9c0.5,0.6,0.6,1.2,0.9,1.8
	c0,0,0,0.2,0.2,0.3c0.3,0.8,1.2,1.7,1.7,2.4c0.3,0.5,0.8,1.2,1.2,1.5c0.5,0.3,0.8,0.8,1.2,1.2c2.3,1.5,3.8,1.7,4.7,1.1
	c0.3-0.3-0.5-0.9-0.6-1.1c-0.6-0.6-1.2-1.7-1.5-2.6c-0.2-0.8-0.6-1.5-0.9-2.1c-0.3-1.1-0.8-2.3-0.8-3.3c0-0.6,0-1.1,0-1.8
	c0.2-1.5,1.5-2.7,1.7-3.8c0.3-0.5,0.6-0.8,0.8-1.4c1.1-0.9,1.8-2.4,2.3-3.8c0-0.3-0.5-0.9-0.6-1.2
	C889.2,202.3,888.6,202,888.3,201.7z"/>
<path class="st5" d="M896.6,184.8c-1.1,0-5.2,0.5-5.6,0.8c-3,2.3-6.1,4.7-8.7,7.1c-0.8,0-1.7-0.3-2.4-0.5c-0.8-0.3-2-0.6-2.7-0.8
	c-0.5,0.2-1.1,0.3-1.5,0.8c-0.2,0.2-1.2,0.6-0.9,0.8c0.9-0.2,1.8-0.3,2.7,0.2c0.6,0.2,0.9,0.6,1.4,1.1h-0.2c-0.2,0-0.2,0-0.3,0
	c-1.2,0.3-3.5,0-4.6,0.8c-1.7,0.9-2.7,2.6-4,3.8c-0.3,0.2-0.2,1.1-0.3,1.5c-0.3,0.8-0.2,1.5-0.5,2.3c-0.3,0.8-0.3,2-0.3,2.9
	c0,1.4,0,2.6,0,4c0,0.9,0.2,2.7,0.5,3.5c0,2.4,5.6,8.2,8.8,13.8c0.5,0.9,0.8,0.9,1.7,1.1c0.2,0,0.3,0,0.5,0c1.2,0.2,1.8,0.8,3,0.8
	c0.6,0,1.2,0.3,1.8,0.5c0.6,0.2,1.5,0,2.1,0c1.1,0,2.1,0,3.2,0c0.6,0,1.1,0.2,1.7,0c0.5-0.2,1.2,0,1.7,0c0.5,0,1.2-0.2,1.8-0.2
	c0.3,0,1.1-0.9,1.4-1.1c0.8-0.3,1.2-1.2,1.7-2c0.3-0.5,0.6-1.1,0.8-1.7c0.2-0.6,0-1.2-0.6-1.4c-0.5-0.2-0.6-0.5-1.2-0.5
	c-0.5-0.2-0.8-0.2-1.2-0.5c-0.6-0.5-1.5-1.1-2.1-1.7c-0.6-0.5-1.5-1.1-2.3-1.5c-0.5-0.3-0.6-0.6-1.1-0.5c-0.5,0-0.8-1.2-0.5-2.1
	c0.2-0.8-0.2-0.9-0.3-1.4c-0.5-1.2-1.1-0.6,0.2-1.7c0.8-0.6,1.5-2.3,2-3.2c0.8-1.2,2-2.6,2-3.8c0.5-0.6,0.9-2.1,0.6-3
	c0-0.9-1.1-2.6-1.8-4c-0.9-0.6-1.2-1.8-1.8-2.7c0.5-0.2,0.8-0.2,0.9-0.3c0.6-0.3,0.6-0.9,0.6-1.1v-0.2c-0.2-0.2-0.8,0-1.2,0
	c-2-0.2-1.8,0.2-2.4-1.2c-0.2-1.2,0.6-2.3,0.5-3.3c1.2-1.2,1.4-1.2,2.1-2c0.3-0.3,0.9-0.5,1.4-0.8c1.4-0.3,3-0.3,4.3-0.3
	c0.3,0.9,0.9,1.7,1.2,2.4c0,0.2,0.3,0.8,0.2,1.1c-0.6,0.8-1.1,1.2-1.8,1.7c0.2,0,0.3,0.2,0.8,0.2h1.1l1.8-0.2
	c0.3-1.1,0.6-2.1,0.6-3.3c0.3-0.9-1.5-2.4-2.3-3.5C898.3,185,897.4,185.1,896.6,184.8z M892.2,204.6c-0.2,2.1-1.7,4.1-2.1,5
	c0,0.2-0.8,1.2-0.9,1.4c-0.3,0.6-0.3,0.5-0.6,1.1c-0.2,0.5-0.6,0.9-0.8,1.4c-0.2,0.5,0,1.7,0,2.1c0.2,0.6,0.6,0.5,0.8,1.2
	c0.2,0.5,0,1.4,0,1.8c0,0.5,0,1.4,0,1.8c0,0.5,0.8,0.2,1.2,0.2c0.6,0.2,0.9,1.1,1.7,1.4c0.8,0.3,2.1,1.7,2.7,2l0.2,0.2
	c-0.2,0-0.2,0.2-0.3,0.5c-2.1,1.5-4.9,1.7-7.5,1.5c-5.2-0.5-5.5,0-7.5-2.3c-2.7-3.5-5.3-7-7.9-11c0-2.6,0-5.6,0.2-8.2
	c0-1.5,0.3-1.8,0.3-3.2c0.3-2,2.1-3.3,3.6-3.8c2-0.6,4.1-0.8,6.1-0.8c0.2,0.2,0.6,0.6,0.8,0.8c0,0.2,0.2,0.6,0.3,0.8
	c0.3,0.2,0.5,0.2,0.9,0.2c0.8,0,1.8,0,2.3-0.2c0.6-0.5,1.1-1.2,2.1-1.4c1.1,1.2,1.8,2.4,2.7,3.7
	C891.5,202.1,892.4,202.9,892.2,204.6z"/>
<path class="st5" d="M885.5,153.5c29.7,0,53.9,24.2,53.9,53.9s-24.2,53.9-53.9,53.9s-53.9-24.2-53.9-53.9S855.9,153.5,885.5,153.5z
	 M885.5,151c-3.8,0-7.6,0.5-11.4,1.2c-3.7,0.8-7.1,1.8-10.5,3.3c-3.3,1.4-6.5,3.2-9.6,5.2c-3,2-5.8,4.3-8.4,6.8
	c-2.6,2.6-4.9,5.3-6.8,8.4c-2,3-3.8,6.2-5.2,9.6c-1.4,3.3-2.6,7-3.3,10.5c-0.8,3.7-1.2,7.5-1.2,11.4c0,3.8,0.5,7.6,1.2,11.4
	c0.8,3.7,1.8,7.2,3.3,10.5c1.4,3.3,3.2,6.5,5.2,9.6c2,3,4.3,5.8,6.8,8.4c2.6,2.6,5.3,4.9,8.4,6.8c3,2,6.2,3.8,9.6,5.2
	c3.3,1.4,7,2.6,10.5,3.3c3.7,0.8,7.5,1.2,11.4,1.2c3.8,0,7.6-0.5,11.4-1.2c3.7-0.8,7.1-1.8,10.5-3.3c3.3-1.4,6.5-3.2,9.6-5.2
	c3-2,5.8-4.3,8.4-6.8c2.6-2.6,4.9-5.3,6.8-8.4c2-3,3.8-6.2,5.2-9.6c1.4-3.3,2.6-7,3.3-10.5c0.8-3.6,1.2-7.5,1.2-11.4
	c0-3.8-0.5-7.6-1.2-11.4c-0.8-3.7-1.8-7.2-3.3-10.5c-1.4-3.3-3.2-6.5-5.2-9.6c-2-3-4.3-5.8-6.8-8.4s-5.3-4.9-8.4-6.8
	c-3-2-6.2-3.8-9.6-5.2c-3.3-1.4-7-2.6-10.5-3.3C893.1,151.5,889.3,151,885.5,151z"/>
<g>
	<defs>
		<rect id="SVGID_5_" x="915.6" y="39.3" width="105" height="105"/>
	</defs>
	<clipPath id="SVGID_6_">
		<use xlink:href="#SVGID_5_"  style="overflow:visible;"/>
	</clipPath>
	<g class="st7">
		<path class="st5" d="M932.6,73.8c-0.3-3.5-1.8-6.8-4.9-9.1c-0.3-0.2-0.8-0.5-1.1-0.5c-0.2,0-0.5,0-0.6,0.3
			c1.4,8.4-4.1,14.3-8.1,20.5c1.4,1.1,3.3,0.9,4.9,0.6c4.1-1.7,8.1-4.6,12.9-3.5c1.5-2.4,4-4.9,5.9-6.8c1.2-1.1,2.9-1.7,3.8-2.9
			C941.6,69.9,936.5,72.5,932.6,73.8z"/>
		<path class="st5" d="M959.1,79c1.2-1.7,3.3-0.3,4.7-0.3v-0.5c-0.8-1.2-2.3-1.7-3.8-1.7c-0.3,0-0.8,0-1.1,0.2
			c-0.5,0.2-0.9,0.6-0.8,1.2C958.2,78.4,958.2,79.3,959.1,79z"/>
		<path class="st5" d="M971.6,68.8c-1.1-0.2-2.3-0.3-3.3-0.3c-0.2,0-0.5,0-0.6,0c-3.2,0-6.2,0.9-8.2,3.5c-0.3,0.8-1.5,1.8-0.3,2.4
			c2.4-0.2,5.3-0.5,7,1.7c0,1.8,1.2,4.4-0.8,5.3c-1.7-1.5-3.7,0.6-5.5-0.6c-0.9-0.5-1.4,0-1.8,0.9c-0.5,4.9,2,10.2,6.5,12.9
			c1.8,0.6,4.4,1.4,6.2,0.3c4.6-2.1,6.5-7,7.5-11.6c-0.2-0.9,0-2.6-1.4-2.6c-1.4,0.9-3.3,0.3-4.9,0c-0.9,0.3-0.9,1.5-1.8,1.8
			l-0.6-0.5c-0.5-2.1-0.8-5.2,1.2-6.7c2.3-0.9,4.9-1.4,7.1-0.6c0.5-0.8-0.3-1.4-0.3-2C976.3,70.5,973.9,69.4,971.6,68.8z
			 M972.2,88.4c-0.9,1.4-2.4,3.2-4.3,3c-2.1,0.2-2.6-1.5-4.1-2.6l-0.2-0.8C966.4,88.6,969.6,88.1,972.2,88.4z M970.1,85.1
			c0.2,0.2,0.2,0.3,0,0.3c0,0,0,0.2-0.2,0.2c-0.6,0.2-0.9,0.3-1.2,0.5c-0.5,0.2-0.6,0.3-1.2,0.3c-0.5,0-0.8-0.2-1.2-0.5
			c-0.2,0-0.3-0.2-0.5-0.2s-0.3-0.2-0.5-0.2c-0.3-0.2-0.2-0.3,0-0.5c0.5-0.5,0.9-0.5,1.4-0.5c0.3,0,0.8,0.2,1.1,0.2
			C968.2,84.8,969,84,970.1,85.1z"/>
		<path class="st5" d="M990.3,73.1c4,2.1,7.3,5.6,9.7,9.4c1.7-0.3,3.8,0,5.5,0.3c4,1.1,8.1,5.5,12.2,2.6c-3.6-6.1-9.1-11.7-7.6-19.6
			c0.1-0.5-0.2-1.1-0.8-1.2c-2.4,0.9-4.3,3.3-5.2,5.6c-0.5,1.4-0.6,2.7-1.2,4.1c-2.9-1.5-5.9-2.9-9.4-2.6
			C992.4,71.7,990.6,71.8,990.3,73.1z"/>
		<path class="st5" d="M1020.6,91.8c0-29.1-23.4-52.5-52.5-52.5c-29.1,0-52.5,23.4-52.5,52.5c0,29.1,23.4,52.5,52.5,52.5
			C997.1,144.3,1020.6,120.8,1020.6,91.8z M1002.9,129.7l-3.3-1.2c-0.6,0.8-1.7,1.7-1.4,2.4c0.8,0.3,1.5,0.8,2.1,1.4
			c-1.5,1.5-3.3,2.6-5,3.7c-1.5-5-6.5-8.4-6.1-14.1l-0.3-0.3c-1.2,1.4-0.8,3.5-0.8,5.2c1.4,3.7,4.9,6.4,5.3,10.3
			c-0.6,1.1-2,1.2-2.9,1.7c0.2-7.2-10.8-12.5-3.8-19.6c2.3-3.5,6.2-6.8,4.9-11.7c-1.4-4.7-6.4-7.6-6.4-12.8v-0.5
			c1.1-5.5,4.6-11.3,1.8-17c-0.8-2.3-2.6-5-4.9-5.9c3.5,4.1,5,10.6,2.9,16.1c-1.1,2.1-2.4,4.7-2.6,7.3c0,1.4,0.2,2.7,1.1,4
			c2.7,4.4,7.5,9.1,4.7,14.9c-3,4.6-8.4,9.1-5.5,15.2c2.1,3.7,5.5,7.2,4.6,11.6l-3.5,1.2c2.4-8.2-9.1-13.1-4.4-21.3
			c3-4.4,8.4-8.5,5.3-14.5c-1.8-3.7-5.5-5.8-5.5-10.3l0.2-0.8c1.2-6.4,6.1-12.5,2.7-19.3c-0.9-2-2.7-4.1-4.7-5.3l-0.2,0.2
			c4,3.8,5.2,10.2,3,15.4c-1.1,3-3.2,5.9-3.7,9.1c-0.2,1.5,0,3,0.9,4.7c2.6,4,7,8.2,4.3,13.5c-2.9,4.3-7.8,8.5-5.9,14
			c2.1,4.9,6.7,9.6,4.3,15.5l-3.7,0.8c2.9-5.9-1.5-11.7-4-16.9c-3-7.3,6.7-10.8,6.8-17.6c0-4.3-4.7-6.8-5.6-10.8
			c-2-1.7-4.1,0.6-6.5,0.3c-1.8,0.3-4.4-2.4-5.5,0.6c-1.2,4.4-7,7.6-4.4,12.9c2.4,4.6,8.2,8.1,6.2,14.1c-1.7,5.6-7.5,11-4,17.5
			c-1.5-0.5-4.1,0.5-4.1-1.8c-2.3-7.9,7.3-12.5,4.4-20.2c-1.4-4.9-7.6-7.5-6.2-13.2c1.1-4.7,6.4-8.1,5.6-13.2c0-0.5-0.2-0.9-0.3-1.4
			c-2-5.6-6.1-11.3-3.7-17.8c0.6-1.8,2-3.5,3.2-5.2c-4,2.1-5.8,6.4-5.8,11c-0.2,4.9,3.3,9,4,13.4c0.2,1.8-0.2,3.7-1.4,5.5
			c-2.6,3.5-5.9,7-4.4,11.6c1.5,4.6,7.1,7.3,6.8,12.6c0,6.2-7.3,10.2-5.3,17.2l-3.7-1.2c-1.5-6.2,5.2-9.4,5.3-15.2
			c0.9-6.7-7.6-9.1-7-15.5c0-4.9,4.3-8.1,6.2-12.2c0.3-1.1,0.5-2,0.5-2.9c-0.3-4.6-4.4-8.2-3.7-13.2c0.3-3.8,1.5-7.1,4-10
			c-3.3,1.4-4.9,5.3-5.8,8.5c-1.7,5.3,2.3,10,2.6,14.8c0.2,2.1-0.3,4.1-2.3,6.2c-2.9,3.3-5.6,7.5-3.7,12c2.1,4.9,9,8.7,5.9,14.9
			c-1.7,3.8-5.5,6.8-5.3,11.4c-1.1-0.5-2.1-0.9-2.9-1.7c0-5.8,8.4-9.4,4.4-15.5c-0.3,1.2-0.5,2.9-0.8,4.3c-1.4,3.5-4.3,6.4-5.5,10
			c-1.8-0.8-3.8-2.1-5.3-3.8l2.1-1.4c-0.3-0.8-0.9-1.4-1.4-2.1c-1.4-0.2-2.3,0.8-3.3,1.1c-1.1-0.9-2-1.7-2.7-2.7
			c0.8-2,6.2-0.3,3.3-3.7c-1.8-1.2-3.8,0.5-5.5,1.4l-2.3-2.7c2-1.2,3.8-2.7,6.2-2.3c0.6,1.1,0.6,2.6,1.8,3.2c4.1,0,6.8-3.2,10-5.5
			c-2.1-3.2-4-7.6-2-11.4c1.5-3.8,5.5-7.1,5.8-11.4c0-0.9-0.2-2-0.5-3c-2.1-5.5-2.9-12.8,1.2-17.6c-2.1,0.6-3.5,3.3-4.3,5.3
			c-2.4,5.3,0.6,10.2,0.8,15.4c0,0.9,0,1.8-0.3,2.7c-2.1,4.1-5.5,7.8-5.9,12.6c-2.4,1.5-4.4,4.1-7.8,3.2c-0.2,0.9,0.2,2.3,0.5,3.2
			c-2.7-0.2-4.6,1.8-6.8,2.7c-1.2-0.5-1.5-2-2-3c2.7-0.9,4.6-3.5,7.6-3.5c0.3-0.9-0.2-1.8-0.3-2.7c-3.8-1.7-9.9,8.4-10.3-0.3
			c3.8-0.2,6.2-3.7,10-4.1l0.2-2.7c-4.3-0.5-7,4-11.3,3.5l-0.9-3.8c4.9,0.3,7.9-4.1,12.6-4.4c0.6-0.8,0.8-2,0.8-3.2
			c-5.2-0.6-8.7,5-14.1,3.2c0,0-0.2-2.3-0.3-3.7c0-0.5,0-0.9,0-0.9c4.9,1.8,9.1-1.7,13.2-3.3c1.1-0.3,2.7,0.3,3.2-0.9
			c0-0.9,1.5-2,0.3-2.6c-6.1-0.8-10.2,6.5-16.4,3.2l-0.5-0.9c1.4-17.6,11.3-34.7,27.8-43.1c6.7-3.8,15.1-5.8,23.4-5.8
			c10.2,0,20.4,2.6,28.1,7.9c7.5,4.6,14.6,12,18.4,19.6c3.6,6.7,5.3,14.1,5.9,22.1c-6.4,4.9-10.8-4.6-17.3-2.4
			c0.3,1.1,0.6,2.1,1.4,2.9c5.8,0,9.7,5.9,15.8,3.7v0.9c0,1.4,0.2,2.4-0.3,3.8c-5.3,1.5-9-4.1-14.1-3.3l0.6,2.9
			c4.9,0.2,7.8,4.7,12.8,4.6c-0.8,1.4,0.3,5.2-2.9,3.7c-3.2-0.8-5.6-3.7-9.1-3.7c-0.5,0.8-0.2,1.8-0.3,2.7c3.8,0.6,6.5,3.8,10.2,4.4
			c-0.3,1.4-0.8,2.7-1.8,3.5c-3-0.8-5.5-3.5-8.7-3.3l-0.6,2.7c3,0,5.2,2.7,7.9,3.7c0,1.1-0.9,2.1-1.5,3.2c-2.4-0.8-4.4-2.9-7.2-2.7
			c0-1.1,0.6-2.3,0.3-3.3c-3.2,0.9-5.3-2-7.6-3.8c0-5.8-6.2-9.6-6.5-14.9c0-1.1,0.2-2.3,0.6-3.5c2-4.6,1.4-10.6-0.8-14.9
			c-0.6-1.1-1.8-2-2.9-2.7c1.7,3.3,3.5,7.5,2.6,11.6c-0.2,3.2-2,6.4-2,9.4c0,1.1,0.3,2.3,0.9,3.3c2.6,4.6,7.2,9,5.5,14.6
			c-0.5,1.8-2,3.2-2.3,4.9c3,2.4,5.8,5.2,9.7,5.5c1.4-0.9,0.6-4.9,3.5-3l4.3,2.1c-0.3,1.1-1.2,2.1-2.1,2.9c-1.7-0.8-3.2-1.7-5.2-1.7
			c-0.6,0.6-1.1,1.4-1.1,2.3c1.4,0.3,2.7,0.8,3.9,1.7C1004.9,128,1003.8,128.7,1002.9,129.7z"/>
		<path class="st5" d="M975.1,76.7c-0.2,0-0.3,0-0.5,0c-0.8,0.6-3.2,0.2-2.4,2c1.5-1.2,3.5-0.3,5,0.3c0.6-0.3,0.5-0.8,0.5-1.4
			C977.2,76.7,976.2,76.7,975.1,76.7z"/>
		<path class="st5" d="M984.1,62.4c-0.3-2.3,1.5-4.6,1.8-6.8c-4.3,0.3-7.8,2.9-11.3,4.9c-0.8-2-1.7-4-2.4-5.9l4.7-4.4l0.2-0.6
			l-6.4-0.3c-1.1-1.8-1.5-4.3-2.9-5.9c-1.1,2-1.8,4.1-2.9,6.1l-6.4,0.3v0.5l4.9,4.3c-0.6,2.3-1.1,4.6-2.6,6.4
			c-2.9-1.7-5.6-3.5-8.7-4.7c-0.8-0.3-1.8-0.6-2.4-0.2c0.9,2.1,2.4,4.4,2.1,6.8c-1.4-0.3-2.3-1.1-3.5-1.4c-1.5-0.5-3.2-1.2-4.6-0.8
			c2.4,3.2,4.3,6.7,4.9,10.6c7.8-3.8,16.9-5.8,26.3-4.3c4.4,0.8,8.5,2.4,12.5,4c0.2-4.1,2.7-7.5,4.6-10.8
			C989.2,60,986.8,61.7,984.1,62.4z M972.4,62.4c-2.9-0.3-6.1,0-8.8,0.2c-0.3-0.3-0.9-0.8-0.3-1.2l4.4-3.3c1.8,1.1,3.8,2.4,5.3,3.8
			L972.4,62.4z"/>
	</g>
</g>
<path class="st5" d="M1110.9,159.2l-27.4-27.4c-1.5-1.5-4-1.5-5.5,0l-62.4,62.4c-1.5,1.5-1.5,4,0,5.5l27.4,27.4c1.5,1.5,4,1.5,5.5,0
	l31-31l-32.7-32.9l2.1-2.1l32.9,32.9l29.1-29.1C1112.5,163.1,1112.5,160.5,1110.9,159.2z M1039.4,202.1c-3,3-7.8,3-10.8,0
	c-3.1-3-3.1-7.8,0-10.8c3-3,7.8-3,10.8,0C1042.5,194.3,1042.5,199.2,1039.4,202.1z M1052.5,191.4c3-3,7.8-3,10.8,0c3,3,3,7.8,0,10.8
	c-3,3-7.8,3-10.8,0C1049.5,199.3,1049.5,194.5,1052.5,191.4z M1086.3,167.1c-3,3-7.8,3-10.8,0c-3-3-3-7.8,0-10.8c3-3,7.8-3,10.8,0
	C1089.3,159.3,1089.3,164,1086.3,167.1z"/>
<rect x="61" y="5" class="st0" width="1113" height="445"/>
<path class="st8" d="M57,12.2L46.1,23.1l-4.2-4.2l16-16L60,0.8l2.1,2.1l16,16l-4.2,4.2L63,12.3V451h-6V12.2z"/>
<path class="st9" d="M1167.7,448l-10.8-10.8l4.2-4.2l16,16l2.1,2.1l-2.1,2.1l-16,16l-4.2-4.2l11-11H57v-6H1167.7z"/>
</svg>
