<?xml version="1.0" encoding="utf-8"?>
<!-- Generator: Adobe Illustrator 25.1.0, SVG Export Plug-In . SVG Version: 6.00 Build 0)  -->
<svg version="1.1" id="Layer_1" xmlns="http://www.w3.org/2000/svg" xmlns:xlink="http://www.w3.org/1999/xlink" x="0px" y="0px"
	 viewBox="0 0 339 338" style="enable-background:new 0 0 339 338;" xml:space="preserve">
<style type="text/css">
	.st0{fill:none;stroke:#143F63;stroke-width:2;}
	.st1{fill:url(#SVGID_1_);fill-opacity:0.5;}
	.st2{fill:#FFFFFF;}
	.st3{fill:url(#SVGID_2_);fill-opacity:0.65;}
	.st4{clip-path:url(#SVGID_4_);}
	.st5{fill-rule:evenodd;clip-rule:evenodd;fill:url(#SVGID_5_);}
	.st6{fill-rule:evenodd;clip-rule:evenodd;fill:url(#SVGID_6_);}
	.st7{fill:#676E73;}
	.st8{fill-rule:evenodd;clip-rule:evenodd;fill:#71A4CF;}
	.st9{fill-rule:evenodd;clip-rule:evenodd;fill:#D3AD0F;}
</style>
<path class="st0" d="M66.6,1v309"/>
<path class="st0" d="M105.8,1v309"/>
<path class="st0" d="M145.1,1v309"/>
<path class="st0" d="M184.3,1v309"/>
<path class="st0" d="M223.5,1v309"/>
<path class="st0" d="M262.7,1v309"/>
<path class="st0" d="M301.9,1v309"/>
<path class="st0" d="M339,45L30,45"/>
<path class="st0" d="M339,89.4H30"/>
<path class="st0" d="M339,133.7H30"/>
<path class="st0" d="M339,178.1l-309,0"/>
<path class="st0" d="M339,222.4H30"/>
<path class="st0" d="M339,266.8H30"/>
<radialGradient id="SVGID_1_" cx="-100.562" cy="235.021" r="1" gradientTransform="matrix(-212.6967 119.8191 109.1052 193.6779 -46692.207 -33468.3359)" gradientUnits="userSpaceOnUse">
	<stop  offset="0" style="stop-color:#13C1BF"/>
	<stop  offset="1" style="stop-color:#13C1BF;stop-opacity:0"/>
</radialGradient>
<path class="st1" d="M339,180.5C125.6,180.5,44.7,60.8,31,1h308V180.5z"/>
<path class="st2" d="M258.6,32.8h4c3.8,0,6.7-2.2,6.7-6.2c0-4-2.9-6.2-6.7-6.2h-4V32.8z M262.7,30.8H261v-8.5h1.7
	c2.6,0,4.2,1.6,4.2,4.2C266.9,29.2,265.3,30.8,262.7,30.8z M272.3,22.7c0.8,0,1.4-0.5,1.4-1.3c0-0.7-0.6-1.3-1.4-1.3
	s-1.4,0.5-1.4,1.3C270.9,22.2,271.5,22.7,272.3,22.7z M271.2,32.8h2.3v-8.7h-2.3V32.8z M282.2,31.2v0.4c0,1.9-0.8,2.8-2.8,2.8
	c-1.1,0-2.5-0.6-3.1-1l-1,1.6c0.4,0.3,2,1.3,4,1.3c2.1,0,3.2-0.7,4-1.5c0.7-0.8,1.1-1.9,1.1-3.8v-6.9h-2.3l0,1.2h0
	c-0.6-0.9-1.6-1.4-2.8-1.4c-2.6,0-4.3,2-4.3,4.4c0,2.8,1.9,4.2,4.1,4.2C280.5,32.5,281.6,32.1,282.2,31.2L282.2,31.2z M282.3,28.3
	c0,1.3-0.8,2.4-2.5,2.4c-1.5,0-2.4-1.1-2.4-2.4c0-1.4,0.9-2.5,2.4-2.5C281.4,25.8,282.3,27,282.3,28.3z M287.9,22.7
	c0.8,0,1.4-0.5,1.4-1.3c0-0.7-0.6-1.3-1.4-1.3s-1.4,0.5-1.4,1.3C286.5,22.2,287.1,22.7,287.9,22.7z M286.7,32.8h2.3v-8.7h-2.3V32.8z
	 M293.9,25.9h2v-1.8h-2v-2.5h-2.3v2.5h-1.3v1.8h1.3v4c0,2.3,0.7,3.1,2.5,3.1c1,0,1.7-0.3,1.8-0.3l-0.1-1.8c0,0-0.4,0.1-0.8,0.1
	c-0.8,0-1-0.3-1-1.7V25.9z M302.3,32.8h2.2v-5c0-2.7-1.4-3.9-4-3.9c-1.5,0-2.7,0.5-3.4,0.9l0.7,1.5c0.4-0.3,1.3-0.7,2.5-0.7
	c1.2,0,1.9,0.5,1.9,1.6v0.2l-2.1,0.1c-1.8,0.1-3.6,0.8-3.6,2.6s1.4,2.7,3.1,2.7c1.3,0,2.3-0.6,2.7-1.2L302.3,32.8z M302.3,28.9v1.6
	c-0.3,0.4-1,1-1.9,1c-1,0-1.5-0.5-1.5-1.2c0-0.7,0.6-1.2,1.8-1.2L302.3,28.9z M306.6,32.8h2.3V20.4h-2.3V32.8z M311.2,32.8h2.3V20.4
	h-2.3V32.8z M318.2,32.9l-0.4,0.9c-0.2,0.5-0.6,0.6-1,0.6c-0.4,0-1-0.2-1-0.2l-0.5,1.8c0,0,0.8,0.4,2.1,0.4c1.2,0,1.9-0.7,2.6-2.3
	l4-9.9h-2.4l-2.3,6.2l-2.3-6.2h-2.4L318.2,32.9z M285,44.4l1-1.5c-0.7-0.5-1.6-0.9-3.1-0.9c-1.7,0-3.1,1-3.1,2.6
	c0,1.3,0.7,2.1,2,2.5l1,0.3c1.1,0.4,1.5,0.6,1.5,1.1c0,0.5-0.4,0.8-1.3,0.8c-0.7,0-1.6-0.4-2.6-1.2l-0.9,1.6
	c0.7,0.8,2.2,1.4,3.5,1.4c2.1,0,3.5-1.2,3.5-2.9c0-1.3-0.7-1.9-2.6-2.6l-0.6-0.2c-1-0.3-1.3-0.6-1.3-1c0-0.4,0.4-0.7,1.1-0.7
	C283.8,43.7,284.5,44,285,44.4z M292.9,50.8h2.2v-5c0-2.7-1.4-3.9-4-3.9c-1.5,0-2.7,0.5-3.4,0.9l0.7,1.5c0.4-0.3,1.3-0.7,2.5-0.7
	c1.2,0,1.9,0.5,1.9,1.6v0.2l-2.1,0.1c-1.8,0.1-3.6,0.8-3.6,2.6c0,1.8,1.4,2.7,3.1,2.7c1.3,0,2.3-0.6,2.7-1.2L292.9,50.8z
	 M292.9,46.9v1.6c-0.3,0.4-1,1-1.9,1c-1,0-1.5-0.5-1.5-1.2s0.6-1.2,1.8-1.2L292.9,46.9z M299.4,50.8h2.2l3.6-8.7h-2.3l-2.4,6.3
	l-2.4-6.3h-2.4L299.4,50.8z M308.8,50.8h2.2l3.6-8.7h-2.3l-2.4,6.3l-2.4-6.3h-2.4L308.8,50.8z M318.2,50.9l-0.4,0.9
	c-0.2,0.5-0.6,0.6-1,0.6c-0.4,0-1-0.2-1-0.2l-0.5,1.8c0,0,0.8,0.4,2.1,0.4c1.2,0,1.9-0.7,2.6-2.3l4-9.9h-2.4l-2.3,6.2l-2.3-6.2h-2.4
	L318.2,50.9z"/>
<radialGradient id="SVGID_2_" cx="-99.4308" cy="235.3774" r="1" gradientTransform="matrix(209.7303 -119.4098 -109.2283 -191.8475 46589.9062 33595.9375)" gradientUnits="userSpaceOnUse">
	<stop  offset="0" style="stop-color:#5F3A9B"/>
	<stop  offset="1" style="stop-color:#5F3A9B;stop-opacity:0"/>
</radialGradient>
<path class="st3" d="M31,130c213.4,0,294.3,119.7,308,179.5H31V130z"/>
<path class="st2" d="M49.3,271.8h4c3.8,0,6.7-2.2,6.7-6.2c0-4-2.9-6.2-6.7-6.2h-4V271.8z M53.4,269.8h-1.7v-8.5h1.7
	c2.6,0,4.2,1.6,4.2,4.2C57.6,268.2,56,269.8,53.4,269.8z M63.1,261.7c0.8,0,1.4-0.5,1.4-1.3c0-0.7-0.6-1.3-1.4-1.3s-1.4,0.5-1.4,1.3
	C61.7,261.2,62.3,261.7,63.1,261.7z M61.9,271.8h2.3v-8.7h-2.3V271.8z M72.9,270.2v0.4c0,1.9-0.8,2.8-2.8,2.8c-1.1,0-2.5-0.6-3.1-1
	l-1,1.6c0.4,0.3,2,1.3,4.1,1.3c2.1,0,3.2-0.7,4-1.5c0.7-0.8,1.1-1.9,1.1-3.8v-6.9h-2.3l0,1.2h0c-0.6-0.9-1.6-1.4-2.8-1.4
	c-2.6,0-4.3,2-4.3,4.4c0,2.8,1.9,4.2,4.1,4.2C71.3,271.5,72.3,271.1,72.9,270.2L72.9,270.2z M73.1,267.3c0,1.3-0.8,2.4-2.5,2.4
	c-1.5,0-2.4-1.1-2.4-2.4c0-1.4,0.9-2.5,2.4-2.5C72.1,264.8,73.1,266,73.1,267.3z M78.6,261.7c0.8,0,1.4-0.5,1.4-1.3
	c0-0.7-0.6-1.3-1.4-1.3c-0.8,0-1.4,0.5-1.4,1.3C77.2,261.2,77.8,261.7,78.6,261.7z M77.5,271.8h2.3v-8.7h-2.3V271.8z M84.7,264.9h2
	v-1.8h-2v-2.5h-2.3v2.5h-1.3v1.8h1.3v4c0,2.3,0.7,3.1,2.5,3.1c1,0,1.7-0.3,1.8-0.3l-0.1-1.8c0,0-0.4,0.1-0.8,0.1c-0.8,0-1-0.3-1-1.7
	V264.9z M93.1,271.8h2.2v-5c0-2.7-1.4-3.9-4-3.9c-1.5,0-2.7,0.5-3.4,0.9l0.7,1.5c0.4-0.3,1.3-0.7,2.5-0.7c1.2,0,1.9,0.5,1.9,1.6v0.2
	l-2.1,0.1c-1.8,0.1-3.6,0.8-3.6,2.6c0,1.8,1.4,2.7,3.1,2.7c1.3,0,2.3-0.6,2.7-1.2L93.1,271.8z M93,267.9v1.6c-0.3,0.4-1,1-1.9,1
	c-1,0-1.5-0.5-1.5-1.2c0-0.7,0.6-1.2,1.8-1.2L93,267.9z M97.4,271.8h2.3v-12.4h-2.3V271.8z M101.9,271.8h2.3v-12.4h-2.3V271.8z
	 M108.9,271.9l-0.4,0.9c-0.2,0.4-0.6,0.6-1,0.6c-0.4,0-1-0.2-1-0.2l-0.5,1.8c0,0,0.8,0.4,2.1,0.4c1.2,0,1.9-0.7,2.6-2.3l4.1-9.9
	h-2.4l-2.3,6.2l-2.3-6.2h-2.4L108.9,271.9z M54.9,289.8h2.3v-5.2c0-2.1-0.6-3.7-3.1-3.7c-1.3,0-2.1,0.6-2.6,1.5h-0.1l0-1.3h-2.3v8.7
	h2.3v-4.3c0-1.5,0.5-2.6,1.9-2.6c1.3,0,1.6,1,1.6,2.3V289.8z M64.4,289.8h2.2v-5c0-2.7-1.4-3.9-4-3.9c-1.5,0-2.7,0.5-3.4,0.9
	l0.7,1.5c0.4-0.3,1.3-0.7,2.5-0.7c1.2,0,1.9,0.5,1.9,1.6v0.2l-2.1,0.1c-1.8,0.1-3.6,0.8-3.6,2.6c0,1.8,1.4,2.7,3.1,2.7
	c1.3,0,2.3-0.6,2.7-1.2L64.4,289.8z M64.3,285.9v1.6c-0.3,0.4-1,1-1.9,1c-1,0-1.5-0.5-1.5-1.2c0-0.7,0.6-1.2,1.8-1.2L64.3,285.9z
	 M69.8,279.7c0.8,0,1.4-0.5,1.4-1.3c0-0.7-0.6-1.3-1.4-1.3s-1.4,0.5-1.4,1.3C68.4,279.2,69,279.7,69.8,279.7z M68.7,289.8H71v-8.7
	h-2.3V289.8z M75.7,289.8h2.2l3.6-8.7h-2.3l-2.4,6.3l-2.4-6.3h-2.4L75.7,289.8z M90.8,285c0-2.3-1.6-4.1-4.3-4.1
	c-2.5,0-4.5,1.9-4.5,4.7c0,2.8,1.9,4.4,4.6,4.4c2.1,0,3.4-0.9,3.9-1.4l-0.9-1.2c-0.4,0.4-1.5,0.9-2.6,0.9c-1.3,0-2.4-0.7-2.6-2.1
	h6.4C90.8,286.2,90.8,285.5,90.8,285z M86.5,282.7c1.6,0,2,1.1,2,2.1h-4.2C84.4,283.6,85.1,282.7,86.5,282.7z"/>
<path class="st2" d="M230.4,132.1c0-9.6-7.8-17.4-17.4-17.4c-9.6,0-17.4,7.8-17.4,17.4c0,9.6,7.8,17.4,17.4,17.4
	C222.7,149.5,230.4,141.7,230.4,132.1z M213,148.2c-8.9,0-16.1-7.2-16.1-16.1c0-8.9,7.2-16.1,16.1-16.1c8.9,0,16.1,7.2,16.1,16.1
	C229.2,141,221.9,148.2,213,148.2z"/>
<path class="st2" d="M190.7,126.5c0.4,0.2,0.9,0.3,1.3,0.3c0.5,0,0.9,0,1.3-0.2c0.4-0.1,0.8-0.3,1.1-0.6c0.3-0.3,0.6-0.7,0.8-1.1
	c0.2-0.3,0.2-0.6,0.3-0.8c0-0.2,0.1-0.5,0.1-0.7c0-0.2,0-0.5-0.1-0.7l-0.2-0.7l-1.3,0.4c0.1,0.3,0.2,0.6,0.2,1s-0.1,0.6-0.2,1
	c-0.2,0.2-0.3,0.5-0.5,0.6c-0.2,0.2-0.4,0.2-0.6,0.3c-0.2,0.1-0.5,0.1-0.8,0.1c-0.2,0-0.6-0.1-0.8-0.2c-0.2-0.1-0.5-0.2-0.6-0.5
	c-0.2-0.2-0.3-0.4-0.4-0.6c-0.1-0.2-0.2-0.5-0.2-0.7s0.1-0.6,0.2-0.8c0.2-0.3,0.3-0.6,0.6-0.7c0.2-0.2,0.6-0.3,0.9-0.5L191,120
	c-0.2,0.1-0.4,0.2-0.6,0.2c-0.2,0.1-0.4,0.2-0.6,0.4c-0.2,0.2-0.3,0.3-0.5,0.6c-0.2,0.2-0.3,0.5-0.4,0.7c-0.2,0.5-0.3,1-0.3,1.4
	s0,0.9,0.2,1.3c0.2,0.4,0.4,0.8,0.7,1C189.9,126,190.3,126.2,190.7,126.5z"/>
<path class="st2" d="M198.1,119.7l-1.8-1.7l2.2-2.1l1.8,1.7l0.7-1l-4.7-4.6l-0.9,0.9l2.2,2.2l-2.1,2.2l-2.2-2.2l-1,1l4.8,4.7
	L198.1,119.7z"/>
<path class="st2" d="M204.5,114.6l-3.1-5.9l-1.1,0.6l3.1,5.9L204.5,114.6z"/>
<path class="st2" d="M207.9,113.4l-0.4-2l1.4-0.2c0.4-0.1,0.7-0.2,1-0.3c0.3-0.2,0.6-0.3,0.8-0.6c0.2-0.2,0.3-0.5,0.4-0.8
	c0.1-0.3,0.1-0.6,0-1s-0.2-0.6-0.4-0.9c-0.2-0.2-0.4-0.5-0.6-0.6c-0.2-0.2-0.6-0.2-1-0.3c-0.3,0-0.7,0-1.1,0l-2.7,0.6l1.4,6.4
	L207.9,113.4z M208.2,108c0.3-0.1,0.7,0,1,0.1c0.2,0.1,0.4,0.3,0.5,0.6c0.1,0.2,0,0.5-0.2,0.7c-0.2,0.2-0.5,0.4-0.9,0.5l-1.2,0.2
	l-0.4-1.9L208.2,108z"/>
<path class="st2" d="M214.2,111.6c0.2,0.4,0.6,0.7,1,1c0.4,0.3,0.9,0.5,1.4,0.6c0.6,0.2,1,0.2,1.5,0.1c0.5,0,0.9-0.2,1.3-0.4
	s0.7-0.6,1-0.9c0.2-0.3,0.5-0.8,0.6-1.3c0.1-0.5,0.1-0.9,0-1.4c-0.1-0.5-0.2-0.9-0.5-1.3c-0.2-0.4-0.6-0.7-1-1
	c-0.4-0.3-0.9-0.5-1.4-0.6c-0.6-0.2-1-0.2-1.5-0.1c-0.5,0-0.9,0.2-1.3,0.4s-0.7,0.6-1,0.9c-0.2,0.4-0.5,0.8-0.6,1.3
	c-0.1,0.5-0.1,0.9,0,1.4C213.8,110.8,214,111.2,214.2,111.6z M215.4,109.3c0-0.3,0.2-0.6,0.3-0.8c0.2-0.2,0.3-0.4,0.6-0.6
	c0.2-0.2,0.5-0.2,0.7-0.2c0.2,0,0.6,0,0.9,0c0.3,0.1,0.6,0.2,0.8,0.4c0.2,0.2,0.4,0.4,0.6,0.6c0.2,0.2,0.2,0.5,0.2,0.8
	c0,0.2,0,0.6,0,0.9s-0.2,0.6-0.3,0.8c-0.2,0.2-0.3,0.4-0.6,0.6c-0.2,0.1-0.5,0.2-0.7,0.2s-0.6,0-0.9,0c-0.3-0.1-0.6-0.2-0.8-0.4
	c-0.2-0.2-0.4-0.4-0.6-0.6c-0.2-0.2-0.2-0.5-0.2-0.8C215.3,109.9,215.3,109.6,215.4,109.3z"/>
<path class="st2" d="M223.9,115.8l2.9-4.7l1.7,1l0.6-1l-4.8-2.9l-0.6,1l2,1.2l-2.8,4.7L223.9,115.8z"/>
<path class="st2" d="M229.7,121.6l1-0.8l-2.3-2.6l4.2-3.5l-0.9-1l-5,4.4L229.7,121.6z"/>
<path class="st2" d="M236.8,120.6l-6.3,2.3l1.8,4.7l1.1-0.4l-1.4-3.4l1.2-0.5l1,2.6l1.1-0.4l-1-2.6l1.8-0.7l1.4,3.3l1-0.4
	L236.8,120.6z"/>
<path class="st2" d="M189.8,133c0.2,0.1,0.5,0.1,0.7,0c0.2-0.1,0.3-0.3,0.3-0.6s-0.1-0.5-0.3-0.6c-0.2-0.1-0.5-0.1-0.7,0
	c-0.2,0.1-0.3,0.3-0.3,0.6C189.4,132.7,189.6,132.9,189.8,133z"/>
<path class="st2" d="M236.5,133c0.2-0.1,0.3-0.3,0.3-0.6s-0.1-0.5-0.3-0.6c-0.2-0.1-0.5-0.1-0.7,0c-0.2,0.1-0.3,0.3-0.3,0.6
	s0.1,0.5,0.3,0.6C236,133.1,236.2,133.1,236.5,133z"/>
<path class="st2" d="M194,140.4l-1.8-0.3l1.1-1.4l-0.3-0.8l-3.4,1.3l0.2,0.7l2.2-0.9l-1.1,1.5l1.8,0.4l-2.2,0.9l0.2,0.8l3.4-1.3
	L194,140.4z"/>
<path class="st2" d="M194.9,146.3l0.6-0.4l-1-1.4l0.6-0.4l1.1,1.7l0.6-0.4l-1.6-2.3l-3.2,1.9l1.6,2.3l0.6-0.4l-1.1-1.7l0.6-0.4
	L194.9,146.3z"/>
<path class="st2" d="M199.7,148.2l-1.4,0.3l0.2-1.4l-0.7-0.6l-0.3,2.2l-2.2,0.6l0.7,0.6l1.4-0.4l-0.2,1.5l0.7,0.6l0.3-2.2l2.1-0.5
	L199.7,148.2z"/>
<path class="st2" d="M199.9,153l0.7,0.4l1.9-3.1l-0.7-0.4L199.9,153z"/>
<path class="st2" d="M206.9,152.2l-0.3-0.2c-0.1-0.1-0.2-0.2-0.4-0.2c-0.3-0.1-0.6-0.1-0.8-0.1s-0.5,0.1-0.7,0.2s-0.4,0.2-0.6,0.5
	c-0.2,0.2-0.3,0.4-0.4,0.6c-0.1,0.2-0.1,0.5-0.1,0.8c0,0.2,0.1,0.5,0.2,0.7c0.1,0.2,0.2,0.4,0.4,0.6c0.2,0.2,0.4,0.3,0.6,0.4
	c0.2,0.1,0.3,0.1,0.4,0.1h0.4c0.1,0,0.2,0,0.4-0.1c0.2,0,0.2-0.1,0.4-0.2l-0.3-0.6c-0.2,0.1-0.3,0.1-0.5,0.2c-0.2,0-0.3,0-0.6-0.1
	c-0.2,0-0.2-0.1-0.4-0.2c-0.1-0.1-0.2-0.2-0.2-0.3c0-0.1-0.1-0.2-0.1-0.4c0-0.2,0-0.3,0.1-0.5c0.1-0.2,0.1-0.2,0.2-0.4
	c0.1-0.1,0.2-0.2,0.3-0.2c0.2-0.1,0.2-0.1,0.4-0.1c0.1,0,0.2,0,0.4,0c0.2,0.1,0.3,0.2,0.4,0.2c0.1,0.1,0.2,0.2,0.3,0.4l0.7-0.4
	c-0.1-0.1-0.1-0.2-0.2-0.3C207,152.4,206.9,152.3,206.9,152.2z"/>
<path class="st2" d="M210.4,152.9l-2,3.5l0.8,0.1l0.4-0.8l1.5,0.2l0.2,0.9l0.9,0.1l-1.1-3.9H210.4z M211,155.1l-1-0.1l0.6-1.1
	L211,155.1z"/>
<path class="st2" d="M216.8,152.9l0.2,2.2l-1.9-2.1l-0.7,0.1l0.4,3.7l0.8-0.1l-0.2-2.3l2,2.2l0.7-0.1l-0.4-3.7L216.8,152.9z"/>
<path class="st2" d="M222.9,152.6l0.2,0.6l0.7-0.3l0.2,0.5c-0.2,0.2-0.3,0.4-0.6,0.5c-0.2,0.1-0.3,0.1-0.5,0.1c-0.2,0-0.2,0-0.4-0.1
	c-0.1,0-0.2-0.1-0.3-0.2c-0.1-0.1-0.2-0.2-0.2-0.4c-0.1-0.1-0.1-0.2-0.1-0.4c0-0.2,0-0.3,0.1-0.4c0-0.1,0.1-0.2,0.2-0.3
	c0.1-0.1,0.2-0.2,0.3-0.2c0.1,0,0.2,0,0.2-0.1c0.1,0,0.2,0,0.2,0h0.2c0.1,0,0.2,0,0.2,0.1l0.2-0.8c-0.1,0-0.2-0.1-0.3-0.1h-0.3
	c-0.1,0-0.2,0-0.4,0.1c-0.1,0-0.2,0.1-0.4,0.2c-0.2,0.1-0.5,0.2-0.6,0.5c-0.2,0.2-0.3,0.4-0.4,0.6c-0.1,0.2-0.1,0.5-0.1,0.7
	c0,0.2,0,0.5,0.2,0.7c0.1,0.2,0.2,0.5,0.4,0.6c0.2,0.2,0.4,0.3,0.6,0.4c0.2,0.1,0.5,0.1,0.7,0.1s0.5-0.1,0.8-0.2
	c0.3-0.2,0.6-0.3,0.8-0.6c0.2-0.2,0.3-0.4,0.5-0.6l-0.6-1.4L222.9,152.6z"/>
<path class="st2" d="M228.7,149.4c0-0.2-0.1-0.5-0.2-0.7c-0.2-0.2-0.5-0.4-0.8-0.5c-0.3,0-0.7,0.1-1,0.4l-1.4,1l2.2,2.9l0.6-0.6
	l-0.7-1l0.5-0.4l1.4,0.5l0.8-0.6l-1.5-0.5C228.6,149.8,228.7,149.5,228.7,149.4z M227.6,150l-0.6,0.5l-0.6-0.9l0.6-0.4
	c0.2-0.1,0.3-0.2,0.5-0.2c0.2,0,0.2,0,0.4,0.2c0.1,0.1,0.1,0.2,0.1,0.4C228,149.8,227.8,149.8,227.6,150z"/>
<path class="st2" d="M229,146.3l2.8,2.4l0.6-0.6l-2.8-2.4L229,146.3z"/>
<path class="st2" d="M233.8,144.8l-2.6-1.5l-0.4,0.7l3.2,1.9l1.4-2.3l-0.6-0.4L233.8,144.8z"/>
<path class="st2" d="M235.9,140.3l-2.8-1l-0.2,0.8l3.5,1.1l0.9-2.6l-0.7-0.2L235.9,140.3z"/>
<path class="st2" d="M214.5,129.1c-0.2-0.2-0.2-0.3-0.3-0.5c-0.2-0.2-0.4-0.3-0.6-0.2c-0.2,0.1-0.2,0.3-0.6,0.3h-0.6
	c-0.3,0-0.7-0.1-1.1-0.2c-0.2,0-0.8-0.2-1-0.3c-0.2-0.1-0.5,0-0.8,0c-1.3,0.2-2.6-0.2-2.6,1.3c-0.1,0.6-0.3,1.2-0.3,1.8
	c0,0.9,0,1.8,0,2.6c0,0.3,0.1,0.6,0.2,1c0.2,0.4,0.4,0.8,0.6,1.2c0.7,1,1.3,1.8,1.8,2.4c0.3,0.2,0.2-0.1,0.6,0.2
	c0-0.2-0.2-0.6-0.3-0.7c-0.1-0.1-0.2-0.3-0.3-0.6c-0.2-0.3-0.4-0.6-0.5-0.9c-0.2-0.6-0.4-1.2-0.7-1.8c0-0.3-0.2-0.7-0.2-1
	c0-0.2,0-0.5,0-0.7s0-0.5,0-0.8v-1c0-0.3,0.2-0.6,0.2-0.9c0-0.2,0.4-0.6,0.5-0.7c0.9-0.2,1.6-0.5,2.6-0.6c1.3,0,1.4,0.2,1.9,0.2
	c0.6,0.1,0.9,0.5,1.3,0.8c0.2,0.1-0.1,0.5-0.2,0.7c0,0.2-0.2,0.3-0.2,0.5c-0.2,0.6-0.6,1-0.8,1.6c-0.2,0.5-0.3,0.6-0.6,1.2
	c-0.1,0.2-0.2,0.5-0.2,0.6c-0.1,0.2,0,1,0,1.1c0.1,0.2,0,0.6,0.2,0.8c0,0.1,0,0.2,0.1,0.2c0,0.2,0.1,0.4,0.2,0.6
	c0.2,0.7,0.4,1.3,0.7,1.8c0.2,0.4,0.4,0.6-0.1,0.4c-0.2,0-0.2-0.1-0.3-0.2c-0.1-0.1-0.2-0.2-0.4-0.3c-0.2-0.1-0.2-0.2-0.3-0.4
	c-0.2-0.2-0.2-0.5-0.6-0.7c-0.2-0.7-0.7-1.5-1.1-2.2c-0.2-0.3-0.3-0.6-0.5-0.9c-0.1-0.2-0.2-0.3-0.3-0.6c-0.1-0.3,0-0.8,0-1.1
	c-0.1-0.6-0.1-1,0.1-1.5c0-0.8,0.6-0.6,1.1-0.6c0.3,0,0.5,0,0.7,0.2c0.5,0.4,0.2,0.3,0.2,0.9c0,0.2,0,0.6-0.2,0.8
	c-0.2,0.2-0.2,0.6-0.4,0.9c0,0,0-0.4,0-0.6c0-0.2-0.2-0.5-0.5-0.4c-0.3,0.1-0.3,0.2-0.5,0.6c-0.1,0.2,0.1,0.6,0.1,0.8
	c0.1,0.6,0.6,0.9,1,0.7c0.2-0.2,0.3-0.4,0.3-0.6c0-0.2,0.2-0.6,0.2-0.8c0.1-0.3,0.2-0.6,0.4-0.9c0.2-0.5,0.5-1,0.2-1.5
	c-0.2-0.5-0.4-0.8-0.9-1c-0.2,0-0.8,0-1,0c-0.6,0-1,0.2-1.7,0.3c-0.2,0-0.2,0.3-0.2,0.5c-0.1,0.2-0.1,0.6-0.2,0.9
	c-0.1,0.3,0,0.8-0.1,1.1c-0.1,0.2-0.1,0.8,0,1c0.2,0.3,0.2,0.6,0.4,1c0.4,0.5,0.5,1,0.9,1.5c0.2,0.3,0.3,0.6,0.5,1
	c0,0,0,0.1,0.1,0.2c0.2,0.4,0.6,0.9,0.9,1.3c0.2,0.2,0.4,0.6,0.6,0.8c0.2,0.2,0.4,0.4,0.6,0.6c1.2,0.8,2,0.9,2.5,0.6
	c0.2-0.2-0.2-0.5-0.3-0.6c-0.3-0.3-0.6-0.9-0.8-1.4c-0.1-0.4-0.3-0.8-0.5-1.1c-0.2-0.6-0.4-1.2-0.4-1.8c0-0.3,0-0.6,0-1
	c0.1-0.8,0.8-1.4,0.9-2c0.2-0.2,0.3-0.4,0.4-0.7c0.6-0.5,1-1.3,1.2-2c0-0.2-0.2-0.5-0.3-0.6C215,129.5,214.6,129.3,214.5,129.1z"/>
<path class="st2" d="M218.9,120.2c-0.6,0-2.7,0.2-3,0.4c-1.6,1.2-3.2,2.5-4.6,3.8c-0.4,0-0.9-0.2-1.3-0.2c-0.4-0.2-1-0.3-1.4-0.4
	c-0.2,0.1-0.6,0.2-0.8,0.4c-0.1,0.1-0.6,0.3-0.5,0.4c0.5-0.1,1-0.2,1.4,0.1c0.3,0.1,0.5,0.3,0.7,0.6h-0.1c-0.1,0-0.1,0-0.2,0
	c-0.6,0.2-1.8,0-2.4,0.4c-0.9,0.5-1.4,1.4-2.1,2c-0.2,0.1-0.1,0.6-0.2,0.8c-0.2,0.4-0.1,0.8-0.2,1.2c-0.2,0.4-0.2,1-0.2,1.5
	c0,0.7,0,1.4,0,2.1c0,0.5,0.1,1.4,0.2,1.8c0,1.3,3,4.3,4.7,7.3c0.2,0.5,0.4,0.5,0.9,0.6c0.1,0,0.2,0,0.2,0c0.6,0.1,1,0.4,1.6,0.4
	c0.3,0,0.6,0.2,1,0.2s0.8,0,1.1,0c0.6,0,1.1,0,1.7,0c0.3,0,0.6,0.1,0.9,0c0.2-0.1,0.6,0,0.9,0c0.2,0,0.6-0.1,1-0.1
	c0.2,0,0.6-0.5,0.7-0.6c0.4-0.2,0.6-0.6,0.9-1c0.2-0.2,0.3-0.6,0.4-0.9c0.1-0.3,0-0.6-0.3-0.7c-0.2-0.1-0.3-0.2-0.6-0.2
	c-0.2-0.1-0.4-0.1-0.6-0.2c-0.3-0.2-0.8-0.6-1.1-0.9c-0.3-0.2-0.8-0.6-1.2-0.8c-0.2-0.2-0.3-0.3-0.6-0.2c-0.2,0-0.4-0.6-0.2-1.1
	c0.1-0.4-0.1-0.5-0.2-0.7c-0.2-0.6-0.6-0.3,0.1-0.9c0.4-0.3,0.8-1.2,1-1.7c0.4-0.6,1-1.4,1-2c0.2-0.3,0.5-1.1,0.3-1.6
	c0-0.5-0.6-1.4-1-2.1c-0.5-0.3-0.6-1-1-1.4c0.2-0.1,0.4-0.1,0.5-0.2c0.3-0.2,0.3-0.5,0.3-0.6v-0.1c-0.1-0.1-0.4,0-0.6,0
	c-1-0.1-1,0.1-1.3-0.6c-0.1-0.6,0.3-1.2,0.2-1.8c0.6-0.6,0.7-0.6,1.1-1c0.2-0.2,0.5-0.2,0.7-0.4c0.7-0.2,1.6-0.2,2.2-0.2
	c0.2,0.5,0.5,0.9,0.6,1.3c0,0.1,0.2,0.4,0.1,0.6c-0.3,0.4-0.6,0.6-1,0.9c0.1,0,0.2,0.1,0.4,0.1h0.6l1-0.1c0.2-0.6,0.3-1.1,0.3-1.8
	c0.2-0.5-0.8-1.3-1.2-1.8C219.8,120.3,219.3,120.4,218.9,120.2z M216.6,130.7c-0.1,1.1-0.9,2.2-1.1,2.6c0,0.1-0.4,0.6-0.5,0.7
	c-0.2,0.3-0.2,0.2-0.3,0.6c-0.1,0.2-0.3,0.5-0.4,0.7c-0.1,0.2,0,0.9,0,1.1c0.1,0.3,0.3,0.2,0.4,0.6c0.1,0.2,0,0.7,0,1
	c0,0.2,0,0.7,0,1c0,0.2,0.4,0.1,0.6,0.1c0.3,0.1,0.5,0.6,0.9,0.7c0.4,0.2,1.1,0.9,1.4,1l0.1,0.1c-0.1,0-0.1,0.1-0.2,0.2
	c-1.1,0.8-2.6,0.9-3.9,0.8c-2.7-0.2-2.9,0-3.9-1.2c-1.4-1.8-2.8-3.7-4.2-5.8c0-1.4,0-3,0.1-4.3c0-0.8,0.2-1,0.2-1.7
	c0.2-1,1.1-1.8,1.9-2c1-0.3,2.2-0.4,3.2-0.4c0.1,0.1,0.3,0.3,0.4,0.4c0,0.1,0.1,0.3,0.2,0.4c0.2,0.1,0.2,0.1,0.5,0.1
	c0.4,0,1,0,1.2-0.1c0.3-0.2,0.6-0.6,1.1-0.7c0.6,0.6,1,1.3,1.4,1.9C216.2,129.4,216.6,129.8,216.6,130.7z"/>
<path class="st2" d="M213,103.7c15.6,0,28.4,12.8,28.4,28.4s-12.8,28.4-28.4,28.4s-28.4-12.8-28.4-28.4S197.4,103.7,213,103.7z
	 M213,102.4c-2,0-4,0.2-6,0.6c-1.9,0.4-3.8,1-5.5,1.8c-1.8,0.7-3.5,1.7-5.1,2.7c-1.6,1-3,2.2-4.4,3.6s-2.6,2.8-3.6,4.4
	c-1,1.6-2,3.3-2.7,5.1c-0.7,1.8-1.4,3.7-1.8,5.5c-0.4,1.9-0.6,3.9-0.6,6c0,2,0.2,4,0.6,6c0.4,1.9,1,3.8,1.8,5.5
	c0.7,1.8,1.7,3.4,2.7,5.1s2.2,3,3.6,4.4c1.4,1.4,2.8,2.6,4.4,3.6c1.6,1,3.3,2,5.1,2.7s3.7,1.4,5.5,1.8c1.9,0.4,3.9,0.6,6,0.6
	c2,0,4-0.2,6-0.6c1.9-0.4,3.8-1,5.5-1.8c1.8-0.7,3.5-1.7,5.1-2.7c1.6-1,3-2.2,4.4-3.6c1.4-1.4,2.6-2.8,3.6-4.4s2-3.3,2.7-5.1
	c0.7-1.8,1.4-3.7,1.8-5.5c0.4-1.9,0.6-3.9,0.6-6c0-2-0.2-4-0.6-6c-0.4-1.9-1-3.8-1.8-5.5c-0.7-1.8-1.7-3.4-2.7-5.1
	c-1-1.6-2.2-3-3.6-4.4s-2.8-2.6-4.4-3.6c-1.6-1-3.3-2-5.1-2.7c-1.8-0.7-3.7-1.4-5.5-1.8C217,102.7,215,102.4,213,102.4z"/>
<g>
	<defs>
		<rect id="SVGID_3_" x="204.9" y="37.5" width="55.4" height="55.4"/>
	</defs>
	<clipPath id="SVGID_4_">
		<use xlink:href="#SVGID_3_"  style="overflow:visible;"/>
	</clipPath>
	<g class="st4">
		<path class="st2" d="M213.9,55.7c-0.2-1.8-1-3.6-2.6-4.8c-0.2-0.1-0.4-0.2-0.6-0.2c-0.1,0-0.2,0-0.3,0.2c0.7,4.4-2.2,7.5-4.3,10.8
			c0.7,0.6,1.8,0.5,2.6,0.3c2.2-0.9,4.3-2.4,6.8-1.8c0.8-1.3,2.1-2.6,3.1-3.6c0.6-0.6,1.5-0.9,2-1.5C218.6,53.6,215.9,55,213.9,55.7
			z"/>
		<path class="st2" d="M227.8,58.4c0.6-0.9,1.8-0.2,2.5-0.2V58c-0.4-0.6-1.2-0.9-2-0.9c-0.2,0-0.4,0-0.6,0.1
			c-0.2,0.1-0.5,0.3-0.4,0.6C227.4,58.1,227.4,58.6,227.8,58.4z"/>
		<path class="st2" d="M234.4,53c-0.6-0.1-1.2-0.2-1.8-0.2c-0.1,0-0.2,0-0.3,0c-1.7,0-3.3,0.5-4.3,1.8c-0.2,0.4-0.8,1-0.2,1.3
			c1.3-0.1,2.8-0.2,3.7,0.9c0,1,0.6,2.3-0.4,2.8c-0.9-0.8-1.9,0.3-2.9-0.3c-0.5-0.2-0.7,0-1,0.5c-0.2,2.6,1,5.4,3.5,6.8
			c1,0.3,2.3,0.7,3.3,0.2c2.4-1.1,3.4-3.7,3.9-6.1c-0.1-0.5,0-1.4-0.7-1.4c-0.7,0.5-1.8,0.2-2.6,0c-0.5,0.2-0.5,0.8-1,1l-0.3-0.2
			c-0.2-1.1-0.4-2.7,0.6-3.5c1.2-0.5,2.6-0.7,3.8-0.3c0.2-0.4-0.2-0.7-0.2-1C236.9,53.9,235.6,53.4,234.4,53z M234.7,63.4
			c-0.5,0.7-1.3,1.7-2.2,1.6c-1.1,0.1-1.4-0.8-2.2-1.4l-0.1-0.4C231.7,63.5,233.4,63.2,234.7,63.4z M233.6,61.6
			c0.1,0.1,0.1,0.2,0,0.2c0,0,0,0.1-0.1,0.1c-0.3,0.1-0.5,0.2-0.6,0.2c-0.2,0.1-0.3,0.2-0.6,0.2c-0.2,0-0.4-0.1-0.6-0.2
			c-0.1,0-0.2-0.1-0.2-0.1s-0.2-0.1-0.2-0.1c-0.2-0.1-0.1-0.2,0-0.2c0.2-0.2,0.5-0.2,0.7-0.2c0.2,0,0.4,0.1,0.6,0.1
			C232.7,61.5,233.1,61.1,233.6,61.6z"/>
		<path class="st2" d="M244.3,55.3c2.1,1.1,3.9,3,5.1,5c0.9-0.2,2,0,2.9,0.2c2.1,0.6,4.3,2.9,6.4,1.4c-1.9-3.2-4.8-6.2-4-10.4
			c0.1-0.2-0.1-0.6-0.4-0.6c-1.3,0.5-2.2,1.8-2.7,3c-0.2,0.7-0.3,1.4-0.6,2.2c-1.5-0.8-3.1-1.5-5-1.4
			C245.4,54.6,244.4,54.7,244.3,55.3z"/>
		<path class="st2" d="M260.3,65.2c0-15.3-12.4-27.7-27.7-27.7c-15.3,0-27.7,12.4-27.7,27.7s12.4,27.7,27.7,27.7
			C247.9,92.8,260.3,80.5,260.3,65.2z M250.9,85.1l-1.8-0.6c-0.3,0.4-0.9,0.9-0.7,1.3c0.4,0.2,0.8,0.4,1.1,0.7
			c-0.8,0.8-1.8,1.4-2.6,1.9c-0.8-2.6-3.4-4.4-3.2-7.5l-0.2-0.2c-0.6,0.7-0.4,1.8-0.4,2.7c0.7,1.9,2.6,3.4,2.8,5.5
			c-0.3,0.6-1,0.6-1.5,0.9c0.1-3.8-5.7-6.6-2-10.4c1.2-1.8,3.3-3.6,2.6-6.2c-0.7-2.5-3.4-4-3.4-6.7v-0.2c0.6-2.9,2.4-5.9,1-9
			c-0.4-1.2-1.4-2.6-2.6-3.1c1.8,2.2,2.6,5.6,1.5,8.5c-0.6,1.1-1.3,2.5-1.4,3.9c0,0.7,0.1,1.4,0.6,2.1c1.4,2.3,3.9,4.8,2.5,7.9
			c-1.6,2.4-4.4,4.8-2.9,8c1.1,1.9,2.9,3.8,2.4,6.1l-1.8,0.6c1.3-4.3-4.8-6.9-2.3-11.2c1.6-2.3,4.4-4.5,2.8-7.6
			c-1-1.9-2.9-3-2.9-5.5l0.1-0.4c0.6-3.4,3.2-6.6,1.4-10.2c-0.5-1-1.4-2.2-2.5-2.8l-0.1,0.1c2.1,2,2.7,5.4,1.6,8.1
			c-0.6,1.6-1.7,3.1-1.9,4.8c-0.1,0.8,0,1.6,0.5,2.5c1.4,2.1,3.7,4.3,2.2,7.1c-1.5,2.2-4.1,4.5-3.1,7.4c1.1,2.6,3.5,5.1,2.2,8.2
			l-1.9,0.4c1.5-3.1-0.8-6.2-2.1-8.9c-1.6-3.9,3.5-5.7,3.6-9.3c0-2.2-2.5-3.6-3-5.7c-1-0.9-2.2,0.3-3.5,0.2c-1,0.2-2.3-1.3-2.9,0.3
			c-0.6,2.3-3.7,4-2.3,6.8c1.3,2.4,4.3,4.3,3.3,7.5c-0.9,3-3.9,5.8-2.1,9.2c-0.8-0.2-2.2,0.2-2.2-1c-1.2-4.2,3.9-6.6,2.3-10.7
			c-0.7-2.6-4-3.9-3.3-7c0.6-2.5,3.4-4.3,3-7c0-0.2-0.1-0.5-0.2-0.7c-1-3-3.2-5.9-1.9-9.4c0.3-1,1-1.8,1.7-2.7c-2.1,1.1-3,3.4-3,5.8
			c-0.1,2.6,1.8,4.7,2.1,7.1c0.1,1-0.1,1.9-0.7,2.9c-1.4,1.8-3.1,3.7-2.3,6.1c0.8,2.4,3.8,3.9,3.6,6.7c0,3.3-3.9,5.4-2.8,9.1
			l-1.9-0.6c-0.8-3.3,2.7-5,2.8-8c0.5-3.5-4-4.8-3.7-8.2c0-2.6,2.2-4.3,3.3-6.4c0.2-0.6,0.2-1,0.2-1.5c-0.2-2.4-2.3-4.3-1.9-7
			c0.2-2,0.8-3.8,2.1-5.3c-1.8,0.7-2.6,2.8-3,4.5c-0.9,2.8,1.2,5.3,1.4,7.8c0.1,1.1-0.2,2.2-1.2,3.3c-1.5,1.8-3,3.9-1.9,6.3
			c1.1,2.6,4.7,4.6,3.1,7.9c-0.9,2-2.9,3.6-2.8,6c-0.6-0.2-1.1-0.5-1.5-0.9c0-3,4.4-5,2.3-8.2c-0.2,0.6-0.2,1.5-0.4,2.2
			c-0.7,1.8-2.2,3.4-2.9,5.3c-1-0.4-2-1.1-2.8-2l1.1-0.7c-0.2-0.4-0.5-0.7-0.7-1.1c-0.7-0.1-1.2,0.4-1.8,0.6c-0.6-0.5-1-0.9-1.4-1.4
			c0.4-1,3.3-0.2,1.8-1.9c-1-0.6-2,0.2-2.9,0.7l-1.2-1.4c1-0.6,2-1.4,3.3-1.2c0.3,0.6,0.3,1.4,1,1.7c2.2,0,3.6-1.7,5.3-2.9
			c-1.1-1.7-2.1-4-1-6c0.8-2,2.9-3.8,3-6c0-0.5-0.1-1-0.2-1.6c-1.1-2.9-1.5-6.7,0.6-9.3c-1.1,0.3-1.8,1.8-2.2,2.8
			c-1.3,2.8,0.3,5.4,0.4,8.1c0,0.5,0,1-0.2,1.4c-1.1,2.2-2.9,4.1-3.1,6.7c-1.3,0.8-2.3,2.2-4.1,1.7c-0.1,0.5,0.1,1.2,0.2,1.7
			c-1.4-0.1-2.4,1-3.6,1.4c-0.6-0.2-0.8-1-1-1.6c1.4-0.5,2.4-1.8,4-1.8c0.2-0.5-0.1-1-0.2-1.4c-2-0.9-5.2,4.4-5.5-0.2
			c2-0.1,3.3-1.9,5.3-2.2l0.1-1.4c-2.2-0.2-3.7,2.1-5.9,1.8l-0.5-2c2.6,0.2,4.2-2.2,6.7-2.3c0.3-0.4,0.4-1,0.4-1.7
			c-2.7-0.3-4.6,2.6-7.5,1.7c0,0-0.1-1.2-0.2-1.9c0-0.2,0-0.5,0-0.5c2.6,1,4.8-0.9,7-1.8c0.6-0.2,1.4,0.2,1.7-0.5
			c0-0.5,0.8-1,0.2-1.4c-3.2-0.4-5.4,3.5-8.7,1.7l-0.2-0.5c0.7-9.3,5.9-18.3,14.7-22.7c3.5-2,7.9-3,12.4-3c5.4,0,10.8,1.4,14.8,4.2
			c3.9,2.4,7.7,6.3,9.7,10.4c1.9,3.5,2.8,7.5,3.1,11.6c-3.4,2.6-5.7-2.4-9.1-1.3c0.2,0.6,0.3,1.1,0.7,1.5c3,0,5.1,3.1,8.3,1.9v0.5
			c0,0.7,0.1,1.3-0.2,2c-2.8,0.8-4.7-2.2-7.5-1.8l0.3,1.5c2.6,0.1,4.1,2.5,6.7,2.4c-0.4,0.7,0.2,2.7-1.5,1.9c-1.7-0.4-3-1.9-4.8-1.9
			c-0.2,0.4-0.1,1-0.2,1.4c2,0.3,3.4,2,5.4,2.3c-0.2,0.7-0.4,1.4-1,1.8c-1.6-0.4-2.9-1.8-4.6-1.8l-0.3,1.4c1.6,0,2.7,1.4,4.2,1.9
			c0,0.6-0.5,1.1-0.8,1.7c-1.3-0.4-2.3-1.5-3.8-1.4c0-0.6,0.3-1.2,0.2-1.8c-1.7,0.5-2.8-1-4-2c0-3-3.3-5.1-3.4-7.9
			c0-0.6,0.1-1.2,0.3-1.8c1-2.4,0.7-5.6-0.4-7.9c-0.3-0.6-1-1-1.5-1.4c0.9,1.8,1.8,3.9,1.4,6.1c-0.1,1.7-1,3.4-1,5
			c0,0.6,0.2,1.2,0.5,1.8c1.4,2.4,3.8,4.7,2.9,7.7c-0.2,1-1,1.7-1.2,2.6c1.6,1.3,3,2.7,5.1,2.9c0.7-0.5,0.3-2.6,1.8-1.6l2.2,1.1
			c-0.2,0.6-0.6,1.1-1.1,1.5c-0.9-0.4-1.7-0.9-2.7-0.9c-0.3,0.3-0.6,0.7-0.6,1.2c0.7,0.2,1.4,0.4,2.1,0.9
			C252,84.3,251.4,84.7,250.9,85.1z"/>
		<path class="st2" d="M236.3,57.2c-0.1,0-0.2,0-0.2,0c-0.4,0.3-1.7,0.1-1.3,1c0.8-0.6,1.8-0.2,2.6,0.2c0.3-0.2,0.2-0.4,0.2-0.7
			C237.4,57.2,236.8,57.2,236.3,57.2z"/>
		<path class="st2" d="M241,49.7c-0.2-1.2,0.8-2.4,1-3.6c-2.2,0.2-4.1,1.5-5.9,2.6c-0.4-1-0.9-2.1-1.3-3.1l2.5-2.3l0.1-0.3l-3.4-0.2
			c-0.6-1-0.8-2.2-1.5-3.1c-0.6,1-1,2.2-1.5,3.2l-3.4,0.2v0.2l2.6,2.2c-0.3,1.2-0.6,2.4-1.4,3.4c-1.5-0.9-3-1.8-4.6-2.5
			c-0.4-0.2-1-0.3-1.3-0.1c0.5,1.1,1.3,2.3,1.1,3.6c-0.7-0.2-1.2-0.6-1.8-0.7c-0.8-0.2-1.7-0.6-2.4-0.4c1.3,1.7,2.2,3.5,2.6,5.6
			c4.1-2,8.9-3,13.9-2.2c2.3,0.4,4.5,1.3,6.6,2.1c0.1-2.2,1.4-3.9,2.4-5.7C243.7,48.4,242.4,49.3,241,49.7z M234.8,49.7
			c-1.5-0.2-3.2,0-4.7,0.1c-0.2-0.2-0.5-0.4-0.2-0.6l2.3-1.8c1,0.6,2,1.3,2.8,2L234.8,49.7z"/>
	</g>
</g>
<path class="st2" d="M307.9,100.7l-14.4-14.4c-0.8-0.8-2.1-0.8-2.9,0l-32.9,32.9c-0.8,0.8-0.8,2.1,0,2.9l14.4,14.4
	c0.8,0.8,2.1,0.8,2.9,0l16.4-16.4l-17.3-17.3l1.1-1.1l17.3,17.3l15.3-15.3C308.7,102.8,308.7,101.4,307.9,100.7z M270.2,123.3
	c-1.6,1.6-4.1,1.6-5.7,0c-1.6-1.6-1.6-4.1,0-5.7c1.6-1.6,4.1-1.6,5.7,0C271.8,119.2,271.8,121.8,270.2,123.3z M277.1,117.7
	c1.6-1.6,4.1-1.6,5.7,0c1.6,1.6,1.6,4.1,0,5.7c-1.6,1.6-4.1,1.6-5.7,0C275.5,121.9,275.5,119.3,277.1,117.7z M294.9,104.9
	c-1.6,1.6-4.1,1.6-5.7,0c-1.6-1.6-1.6-4.1,0-5.7c1.6-1.6,4.1-1.6,5.7,0C296.5,100.8,296.5,103.3,294.9,104.9z"/>
<linearGradient id="SVGID_5_" gradientUnits="userSpaceOnUse" x1="28.9847" y1="336.6514" x2="28.9847" y2="82.694" gradientTransform="matrix(1 0 0 -1 0 337.2)">
	<stop  offset="0" style="stop-color:#4186BF"/>
	<stop  offset="1" style="stop-color:#4186BF;stop-opacity:0"/>
</linearGradient>
<path class="st5" d="M27,8.2l-5.6,5.6l-2.8-2.8l9-9L29,0.5L30.4,2l9,9l-2.8,2.8L31,8.2V310h-4V8.2z"/>
<linearGradient id="SVGID_6_" gradientUnits="userSpaceOnUse" x1="339" y1="27.426" x2="27" y2="27.426" gradientTransform="matrix(1 0 0 -1 0 337.2)">
	<stop  offset="0" style="stop-color:#D3AD0F"/>
	<stop  offset="1" style="stop-color:#D3AD0F;stop-opacity:0"/>
</linearGradient>
<path class="st6" d="M331.6,308l-5.8-5.8l2.8-2.8l9,9l1.4,1.4l-1.4,1.4l-9,9l-2.8-2.8l5.3-5.3H27v-4H331.6z"/>
<path class="st7" d="M78.7,334h2.4v-4.9h1.6c2.3,0,4.4-1.2,4.4-3.8c0-2.6-2.1-3.7-4.4-3.7h-4V334z M82.4,327.3h-1.4v-3.9h1.3
	c1.2,0,2.3,0.5,2.3,1.9C84.7,326.7,83.7,327.3,82.4,327.3z M96.6,329.2c0-2.3-1.6-4.1-4.3-4.1c-2.5,0-4.5,1.9-4.5,4.7
	c0,2.8,1.9,4.4,4.6,4.4c2.1,0,3.4-0.9,3.9-1.4l-0.9-1.2c-0.4,0.4-1.5,0.9-2.6,0.9c-1.3,0-2.4-0.7-2.6-2.1h6.4
	C96.5,330.4,96.6,329.7,96.6,329.2z M92.2,326.8c1.6,0,2,1.1,2,2.1h-4.2C90.1,327.8,90.9,326.8,92.2,326.8z M98.3,334h2.3v-4.3
	c0-0.7,0.1-1.3,0.3-1.7c0.3-0.6,0.8-0.8,1.5-0.8c0.3,0,0.7,0,1,0.1h0.1l0.2-2c0,0-0.3-0.2-0.9-0.2c-0.9,0-1.8,0.6-2.1,1.6h-0.1
	l0-1.4h-2.3V334z M109.8,327.6l1-1.5c-0.7-0.5-1.6-0.9-3.1-0.9c-1.7,0-3.1,1-3.1,2.6c0,1.3,0.7,2.1,2,2.5l1,0.3
	c1.1,0.4,1.5,0.6,1.5,1.1c0,0.5-0.4,0.8-1.3,0.8c-0.7,0-1.6-0.4-2.6-1.2l-0.9,1.6c0.7,0.8,2.2,1.4,3.5,1.4c2.1,0,3.5-1.2,3.5-2.9
	c0-1.3-0.7-1.9-2.6-2.6l-0.6-0.2c-1-0.3-1.3-0.6-1.3-1c0-0.4,0.4-0.7,1.1-0.7C108.6,326.9,109.3,327.2,109.8,327.6z M117,334.2
	c2.7,0,4.7-1.8,4.7-4.5s-2.1-4.6-4.7-4.6c-2.7,0-4.7,1.8-4.7,4.6S114.4,334.2,117,334.2z M119.4,329.6c0,1.5-0.9,2.7-2.3,2.7
	c-1.5,0-2.3-1.2-2.3-2.7c0-1.5,0.8-2.6,2.3-2.6C118.5,327,119.4,328.1,119.4,329.6z M129.4,334h2.3v-5.2c0-2.1-0.6-3.7-3.1-3.7
	c-1.3,0-2.1,0.6-2.6,1.5h-0.1l0-1.3h-2.3v8.7h2.3v-4.3c0-1.5,0.5-2.6,1.9-2.6c1.3,0,1.6,1,1.6,2.3V334z M139.1,334h2.2v-5
	c0-2.7-1.4-3.9-4-3.9c-1.5,0-2.7,0.5-3.4,0.9l0.7,1.5c0.4-0.3,1.3-0.7,2.5-0.7c1.2,0,1.9,0.5,1.9,1.6v0.2l-2.1,0.1
	c-1.8,0.1-3.6,0.8-3.6,2.6s1.4,2.7,3.1,2.7c1.3,0,2.3-0.6,2.7-1.2L139.1,334z M139,330.1v1.6c-0.3,0.4-1,1-1.9,1
	c-1,0-1.5-0.5-1.5-1.2c0-0.7,0.6-1.2,1.8-1.2L139,330.1z M143.6,334h2.3v-12.4h-2.3V334z M149.6,323.9c0.8,0,1.4-0.5,1.4-1.3
	c0-0.7-0.6-1.3-1.4-1.3s-1.4,0.5-1.4,1.3C148.2,323.4,148.8,323.9,149.6,323.9z M148.4,334h2.3v-8.7h-2.3V334z M152.5,334h7.8v-1.8
	h-4.9l4.7-5.5v-1.3h-7.4v1.8h4.5l-4.7,5.5V334z M170.2,329.2c0-2.3-1.6-4.1-4.3-4.1c-2.5,0-4.5,1.9-4.5,4.7c0,2.8,1.9,4.4,4.6,4.4
	c2.1,0,3.4-0.9,3.9-1.4l-0.9-1.2c-0.4,0.4-1.5,0.9-2.6,0.9c-1.3,0-2.4-0.7-2.6-2.1h6.4C170.2,330.4,170.2,329.7,170.2,329.2z
	 M165.9,326.8c1.6,0,2,1.1,2,2.1h-4.2C163.8,327.8,164.6,326.8,165.9,326.8z M178.7,334h2.2v-12.4h-2.3v3.4c0,0.6,0,1.1,0,1.5h0
	c-0.6-0.9-1.6-1.4-2.8-1.4c-2.6,0-4.3,2-4.3,4.5c0,2.6,1.6,4.6,4.1,4.6c1.2,0,2.3-0.5,3-1.6h0.1L178.7,334z M176.3,332.3
	c-1.5,0-2.4-1.2-2.4-2.7c0-1.5,0.9-2.7,2.4-2.7c1.5,0,2.4,1.3,2.4,2.7C178.7,331.3,177.7,332.3,176.3,332.3z M195.5,329.2
	c0-2.3-1.6-4.1-4.3-4.1c-2.5,0-4.5,1.9-4.5,4.7c0,2.8,1.9,4.4,4.6,4.4c2.1,0,3.4-0.9,3.9-1.4l-0.9-1.2c-0.4,0.4-1.5,0.9-2.6,0.9
	c-1.3,0-2.4-0.7-2.6-2.1h6.4C195.4,330.4,195.5,329.7,195.5,329.2z M191.1,326.8c1.6,0,2,1.1,2,2.1H189
	C189.1,327.8,189.8,326.8,191.1,326.8z M203,334h2.3v-5.2c0-2.1-0.6-3.7-3.1-3.7c-1.3,0-2.1,0.6-2.6,1.5h-0.1l0-1.3h-2.3v8.7h2.3
	v-4.3c0-1.5,0.5-2.6,1.9-2.6c1.3,0,1.6,1,1.6,2.3V334z M214.2,332.3v0.4c0,1.9-0.8,2.8-2.8,2.8c-1.1,0-2.5-0.6-3.1-1l-1,1.6
	c0.4,0.3,2,1.3,4,1.3c2.1,0,3.2-0.7,4-1.5c0.7-0.8,1.1-1.9,1.1-3.8v-6.9h-2.3l0,1.2h0c-0.6-0.9-1.6-1.4-2.8-1.4
	c-2.6,0-4.3,2-4.3,4.4c0,2.8,1.9,4.2,4.1,4.2C212.5,333.7,213.6,333.2,214.2,332.3L214.2,332.3z M214.3,329.5c0,1.3-0.8,2.4-2.5,2.4
	c-1.5,0-2.4-1.1-2.4-2.4c0-1.4,0.9-2.5,2.4-2.5S214.3,328.2,214.3,329.5z M224,334h2.2v-5c0-2.7-1.4-3.9-4-3.9
	c-1.5,0-2.7,0.5-3.4,0.9l0.7,1.5c0.4-0.3,1.3-0.7,2.5-0.7c1.2,0,1.9,0.5,1.9,1.6v0.2l-2.1,0.1c-1.8,0.1-3.6,0.8-3.6,2.6
	s1.4,2.7,3.1,2.7c1.3,0,2.3-0.6,2.7-1.2L224,334z M223.9,330.1v1.6c-0.3,0.4-1,1-1.9,1c-1,0-1.5-0.5-1.5-1.2c0-0.7,0.6-1.2,1.8-1.2
	L223.9,330.1z M234.9,332.3v0.4c0,1.9-0.8,2.8-2.8,2.8c-1.1,0-2.5-0.6-3.1-1l-1,1.6c0.4,0.3,2,1.3,4.1,1.3c2.1,0,3.2-0.7,4-1.5
	c0.7-0.8,1.1-1.9,1.1-3.8v-6.9h-2.3l0,1.2h0c-0.6-0.9-1.6-1.4-2.8-1.4c-2.6,0-4.3,2-4.3,4.4c0,2.8,1.9,4.2,4.1,4.2
	C233.3,333.7,234.3,333.2,234.9,332.3L234.9,332.3z M235.1,329.5c0,1.3-0.8,2.4-2.5,2.4c-1.5,0-2.4-1.1-2.4-2.4
	c0-1.4,0.9-2.5,2.4-2.5C234.1,326.9,235.1,328.2,235.1,329.5z M247.9,329.2c0-2.3-1.6-4.1-4.3-4.1c-2.5,0-4.5,1.9-4.5,4.7
	c0,2.8,1.9,4.4,4.6,4.4c2.1,0,3.4-0.9,3.9-1.4l-0.9-1.2c-0.4,0.4-1.5,0.9-2.6,0.9c-1.3,0-2.4-0.7-2.6-2.1h6.4
	C247.9,330.4,247.9,329.7,247.9,329.2z M243.6,326.8c1.6,0,2,1.1,2,2.1h-4.2C241.5,327.8,242.2,326.8,243.6,326.8z M259.9,325.1
	c-1.3,0-2.2,0.6-2.8,1.7c-0.4-1.2-1.2-1.7-2.4-1.7c-1.1,0-2.2,0.7-2.6,1.5H252l0-1.3h-2.3v8.7h2.3v-4.5c0-1.4,0.5-2.5,1.7-2.5
	c1.1,0,1.4,0.9,1.4,2.1v4.9h2.3v-4.5c0-1.5,0.6-2.5,1.7-2.5c1.1,0,1.4,1,1.4,2.1v4.9h2.3v-5.3C262.8,326.7,262.2,325.1,259.9,325.1z
	 M273.4,329.2c0-2.3-1.6-4.1-4.3-4.1c-2.5,0-4.5,1.9-4.5,4.7c0,2.8,1.9,4.4,4.6,4.4c2.1,0,3.4-0.9,3.9-1.4l-0.9-1.2
	c-0.4,0.4-1.5,0.9-2.6,0.9c-1.3,0-2.4-0.7-2.6-2.1h6.4C273.3,330.4,273.4,329.7,273.4,329.2z M269.1,326.8c1.6,0,2,1.1,2,2.1h-4.2
	C267,327.8,267.7,326.8,269.1,326.8z M280.9,334h2.3v-5.2c0-2.1-0.6-3.7-3.1-3.7c-1.3,0-2.1,0.6-2.6,1.5h-0.1l0-1.3h-2.3v8.7h2.3
	v-4.3c0-1.5,0.5-2.6,1.9-2.6c1.3,0,1.6,1,1.6,2.3V334z M288.2,327.1h2v-1.8h-2v-2.5H286v2.5h-1.3v1.8h1.3v4c0,2.3,0.7,3.1,2.5,3.1
	c1,0,1.7-0.3,1.8-0.3l-0.1-1.8c0,0-0.4,0.1-0.8,0.1c-0.8,0-1-0.3-1-1.7V327.1z"/>
<path class="st7" d="M13,229.5v-4c0-3.8-2.2-6.7-6.2-6.7c-4,0-6.2,2.9-6.2,6.7v4H13z M11,225.5v1.7H2.5v-1.7c0-2.6,1.6-4.2,4.2-4.2
	C9.4,221.3,11,222.9,11,225.5z M2.9,215.6c0-0.8-0.5-1.4-1.3-1.4c-0.7,0-1.3,0.6-1.3,1.4c0,0.8,0.5,1.4,1.3,1.4
	C2.4,217,2.9,216.4,2.9,215.6z M13,216.7v-2.3H4.3v2.3H13z M11.3,205.4h0.4c1.9,0,2.8,0.8,2.8,2.8c0,1.1-0.6,2.5-1,3.1l1.6,1
	c0.3-0.4,1.3-2,1.3-4.1c0-2.1-0.7-3.2-1.5-4c-0.8-0.7-1.9-1.1-3.8-1.1H4.3v2.3l1.2,0v0c-0.9,0.6-1.4,1.6-1.4,2.8
	c0,2.6,2,4.3,4.4,4.3c2.8,0,4.2-1.9,4.2-4.1C12.7,207.1,12.2,206.1,11.3,205.4L11.3,205.4z M8.5,205.3c1.3,0,2.4,0.8,2.4,2.5
	c0,1.5-1.1,2.4-2.4,2.4c-1.4,0-2.5-0.9-2.5-2.4C5.9,206.2,7.2,205.3,8.5,205.3z M2.9,199.5c0-0.8-0.5-1.4-1.3-1.4
	c-0.7,0-1.3,0.6-1.3,1.4s0.5,1.4,1.3,1.4C2.4,200.9,2.9,200.3,2.9,199.5z M13,200.7v-2.3H4.3v2.3H13z M6.1,193.2v-2H4.3v2H1.8v2.3
	h2.5v1.3h1.8v-1.3h4c2.3,0,3.1-0.7,3.1-2.5c0-1-0.3-1.7-0.3-1.8l-1.8,0.1c0,0,0.1,0.4,0.1,0.8c0,0.8-0.3,1-1.7,1H6.1z M13,184.6
	v-2.2H8c-2.7,0-3.9,1.4-3.9,4c0,1.5,0.5,2.7,0.9,3.4l1.5-0.7c-0.3-0.4-0.7-1.3-0.7-2.5c0-1.2,0.5-1.9,1.6-1.9h0.2l0.1,2.1
	c0.1,1.8,0.8,3.6,2.6,3.6s2.7-1.4,2.7-3.1c0-1.3-0.6-2.3-1.2-2.7L13,184.6z M9.1,184.6h1.6c0.4,0.3,1,1,1,1.9c0,1-0.5,1.5-1.2,1.5
	s-1.2-0.6-1.2-1.8L9.1,184.6z M13,180v-2.3H0.6v2.3H13z M4.3,169.1v2.3h12v-2.3h-3c-0.6,0-1,0-1.4,0l0,0c0.9-0.7,1.3-1.5,1.3-2.8
	c0-2.6-2-4.3-4.5-4.3c-2.6,0-4.6,1.6-4.6,4.1c0,1.2,0.4,2.2,1.4,2.9l0,0L4.3,169.1z M6,166.8c0-1.5,1.2-2.4,2.7-2.4
	c1.5,0,2.7,0.9,2.7,2.4c0,1.5-1.3,2.4-2.7,2.4C7,169.2,6,168.2,6,166.8z M4.3,158.1v2.3h5.2c2.1,0,3.7-0.6,3.7-3.1
	c0-1.3-0.5-2.2-1.4-2.7l1.2,0v-2.2H4.3v2.3h4.4c1.5,0,2.6,0.5,2.6,1.9c0,1.3-1,1.5-2.3,1.5H4.3z M13,149.9v-2.3H8.7
	c-0.7,0-1.3-0.1-1.7-0.3c-0.6-0.3-0.8-0.8-0.8-1.5c0-0.3,0-0.7,0.1-1v-0.1l-2-0.2c0,0-0.2,0.3-0.2,0.9c0,0.9,0.6,1.8,1.6,2.1v0.1
	l-1.4,0v2.3H13z M10.3,136.5c0,0,0.9,0.8,0.9,2.3s-1,2.6-2.6,2.6s-2.6-1.1-2.6-2.5c0-1.4,0.7-2.1,0.9-2.4L5.2,136
	c-0.2,0.2-1.1,1.1-1.1,3.3c0,2.3,1.7,4.6,4.6,4.6c2.8,0,4.5-2.2,4.5-4.6c0-2.3-1-3.2-1.2-3.4L10.3,136.5z M4.1,129.4
	c0,1.3,0.6,2.1,1.5,2.6v0h-5v2.3H13V132H8.7c-1.5,0-2.6-0.5-2.6-1.9c0-1.3,1-1.6,2.3-1.6H13v-2.3H7.8C5.7,126.3,4.1,126.9,4.1,129.4
	z M13,118.8v-2.2H8c-2.7,0-3.9,1.4-3.9,4c0,1.5,0.5,2.7,0.9,3.4l1.5-0.7c-0.3-0.4-0.7-1.3-0.7-2.5c0-1.2,0.5-1.9,1.6-1.9h0.2
	l0.1,2.1c0.1,1.8,0.8,3.6,2.6,3.6s2.7-1.4,2.7-3.1c0-1.3-0.6-2.3-1.2-2.7L13,118.8z M9.1,118.9h1.6c0.4,0.3,1,1,1,1.9
	c0,1-0.5,1.5-1.2,1.5s-1.2-0.6-1.2-1.8L9.1,118.9z M6.6,109.4l-1.5-1c-0.5,0.7-0.9,1.6-0.9,3.1c0,1.7,1,3.1,2.6,3.1
	c1.3,0,2.1-0.7,2.5-2l0.3-1c0.4-1.1,0.6-1.5,1.1-1.5c0.5,0,0.8,0.4,0.8,1.3c0,0.7-0.4,1.6-1.2,2.6l1.6,0.9c0.8-0.7,1.4-2.2,1.4-3.5
	c0-2.1-1.2-3.5-2.9-3.5c-1.3,0-1.9,0.7-2.6,2.6l-0.2,0.6c-0.3,1-0.6,1.3-1,1.3c-0.4,0-0.7-0.4-0.7-1.1
	C5.9,110.6,6.2,109.9,6.6,109.4z M2.9,105.2c0-0.8-0.5-1.4-1.3-1.4c-0.7,0-1.3,0.6-1.3,1.4s0.5,1.4,1.3,1.4
	C2.4,106.5,2.9,106,2.9,105.2z M13,106.3V104H4.3v2.3H13z M13,95.8v-2.3H7.8c-2.1,0-3.7,0.6-3.7,3.1c0,1.3,0.6,2.1,1.5,2.6v0.1
	l-1.3,0v2.3H13v-2.3H8.7c-1.5,0-2.6-0.5-2.6-1.9c0-1.3,1-1.6,2.3-1.6H13z M11.3,84.6h0.4c1.9,0,2.8,0.8,2.8,2.8c0,1.1-0.6,2.5-1,3.1
	l1.6,1c0.3-0.4,1.3-2,1.3-4.1c0-2.1-0.7-3.2-1.5-4c-0.8-0.7-1.9-1.1-3.8-1.1H4.3v2.3l1.2,0v0c-0.9,0.6-1.4,1.6-1.4,2.8
	c0,2.6,2,4.3,4.4,4.3c2.8,0,4.2-1.9,4.2-4.1C12.7,86.3,12.2,85.2,11.3,84.6L11.3,84.6z M8.5,84.5c1.3,0,2.4,0.8,2.4,2.5
	c0,1.5-1.1,2.4-2.4,2.4c-1.4,0-2.5-0.9-2.5-2.4S7.2,84.5,8.5,84.5z"/>
<rect x="30" y="2" class="st0" width="308" height="307"/>
<path class="st8" d="M27,8.2l-5.6,5.6l-2.8-2.8l9-9L29,0.5L30.4,2l9,9l-2.8,2.8L31,8.2V310h-4V8.2z"/>
<path class="st9" d="M331.6,308l-5.8-5.8l2.8-2.8l9,9l1.4,1.4l-1.4,1.4l-9,9l-2.8-2.8l5.3-5.3H27v-4H331.6z"/>
</svg>
