<svg width="108" height="32" viewBox="0 0 108 32" fill="none" xmlns="http://www.w3.org/2000/svg">
<path d="M52.3954 16.5789L52.1667 16.5278C50.2099 16.144 48.2022 16.0161 46.1946 16.1184C43.272 16.2975 41.3152 17.3465 39.6887 18.9839C37.1474 21.6191 36.3342 25.4824 37.5794 28.9108C38.0369 30.0365 39.1297 31.3158 40.2733 31.6484C42.7384 32.3903 44.7206 31.9554 46.3471 30.3691L46.7028 30.0365L46.7791 30.3691C46.8807 30.8552 47.0586 31.3158 47.2619 31.7507H51.2518C51.0994 31.3669 50.9723 30.9832 50.8961 30.5994C50.769 29.6016 50.769 28.6038 50.9215 27.6316L52.3954 16.5789ZM46.1692 25.7639C45.788 26.9408 44.4919 28.1177 42.9925 27.8107C41.8997 27.5804 41.7981 26.1988 41.7981 26.1988C41.671 24.894 41.9251 23.5636 42.535 22.3867C43.0179 21.3377 43.9074 20.5446 45.0001 20.1608C45.7117 19.9305 46.4487 19.8282 47.1857 19.9305C46.8807 22.4379 46.6012 24.4846 46.1692 25.7639Z" fill="#071520"/>
<path d="M81.875 16.3231L79.2574 20.0841L77.326 16.3231H71.913L76.2841 23.6403L69.9053 31.7251H75.725L78.6729 27.8107L80.7568 31.7251H86.3478L81.5701 24.0753L87.8472 16.3231H81.875Z" fill="#071520"/>
<path d="M70.0324 21.0051C70.0578 19.6235 69.5241 18.2164 68.533 17.3209C67.5418 16.4254 66.3474 16.0928 64.6955 16.0672C63.0691 16.0417 61.5189 16.7069 60.4261 17.9349C60.3499 17.193 60.0957 16.4766 59.6891 15.8626L54.8351 16.7325C54.9622 17.0139 55.1401 17.3977 55.2418 17.6535C55.5975 18.4978 55.7246 19.3933 55.623 20.3143L53.9965 31.7507H59.1808L60.604 21.6447C61.2902 20.8516 62.2559 20.3911 63.2978 20.3655C63.9586 20.3655 64.4414 20.6213 64.6701 21.0563C64.8988 21.4912 64.848 22.1053 64.7718 22.5658L63.4757 31.7763H68.6346L69.9053 22.6681C69.9815 22.1053 70.0324 21.5424 70.0324 21.0051Z" fill="#071520"/>
<path d="M29.8538 16.0672C28.6086 16.0417 27.4141 16.3743 26.3468 17.0395L27.4395 9.21052H7.56625C1.08583 9.21052 0.14553 13.739 0.0947036 14.1228C-0.0577768 14.9415 -0.235671 17.1162 1.39079 20.0841L5.63483 18.549C4.97408 17.3977 4.41498 15.8114 5.02491 14.8392C5.53317 14.046 6.29558 13.6367 8.227 13.6367H10.5396L8.02369 31.7251H13.208L15.724 13.6367H21.6453L19.1039 31.7251H24.2883L25.7114 21.6191C26.3976 20.826 27.3633 20.3655 28.4052 20.3399C29.066 20.3399 29.5488 20.5957 29.7776 21.0051C30.0063 21.4145 29.9555 22.0541 29.8792 22.5146L28.5831 31.7251H33.7421L35.0127 22.6169C35.089 22.0797 35.1144 21.5424 35.1398 21.0051C35.1652 19.6235 34.6315 18.2164 33.6404 17.3209C32.6493 16.4254 31.5057 16.0672 29.8538 16.0672Z" fill="#071520"/>
<path d="M99.5119 5.60307L95.6491 7.41959C95.4458 7.52193 95.1917 7.52193 94.9883 7.41959L91.6846 5.57749L93.0061 9.15935C93.0823 9.38962 93.0569 9.64546 92.9044 9.82456L90.5664 13.4576L94.4038 11.5899C94.6071 11.4876 94.8613 11.4876 95.0646 11.5899L98.3683 13.4576L97.0722 9.85014C96.996 9.61988 97.0214 9.36403 97.1739 9.18494L99.5119 5.60307Z" fill="#071520"/>
<path d="M106.399 16.0672L103.527 17.4488C103.375 17.5256 103.171 17.5256 103.019 17.4488L100.554 16.0672L101.545 18.7537C101.596 18.9327 101.57 19.1118 101.469 19.2653L99.7152 21.9773L102.587 20.5958C102.739 20.519 102.943 20.519 103.095 20.5958L105.56 21.9773L104.569 19.2653C104.518 19.0863 104.544 18.9072 104.645 18.7537L106.399 16.0672Z" fill="#071520"/>
<path d="M84.7467 4.34941L82.2816 2.96783L83.2728 5.65423C83.3236 5.83333 83.2982 6.01242 83.1965 6.16593L81.443 8.87791L84.3147 7.49634C84.4672 7.41958 84.6705 7.41958 84.823 7.49634L87.2881 8.9035L86.297 6.19151C86.2461 6.01242 86.2715 5.83333 86.3732 5.67982L88.1013 2.99342L85.255 4.34941C85.0771 4.42616 84.8992 4.42616 84.7467 4.34941Z" fill="#071520"/>
<path d="M106.983 1.58626L108 0L106.297 0.818713C106.196 0.869883 106.094 0.869883 105.992 0.818713L104.569 0L105.154 1.58626C105.179 1.6886 105.179 1.79093 105.103 1.89327L104.061 3.47953L105.764 2.66082C105.865 2.60965 105.967 2.60965 106.069 2.66082L107.517 3.47953L106.933 1.89327C106.907 1.76535 106.907 1.66301 106.983 1.58626Z" fill="#071520"/>
<path d="M92.752 20.0329L91.0493 20.8516C90.9476 20.9028 90.8459 20.9028 90.7443 20.8516L89.2957 20.0329L89.8802 21.6191C89.9057 21.7215 89.9057 21.8238 89.8294 21.9262L88.7875 23.5124L90.4902 22.6937C90.5918 22.6425 90.6935 22.6425 90.7951 22.6937L92.2437 23.5124L91.6592 21.9262C91.6338 21.8238 91.6338 21.7215 91.71 21.6191L92.752 20.0329Z" fill="#071520"/>
</svg>
