<svg width="1451" height="517" viewBox="0 0 1451 517" fill="none" xmlns="http://www.w3.org/2000/svg">
<path d="M13.7249 511.5L0 517H1451V0L1425.2 93.5L1417.51 100L1399.94 109.5L1389.51 158.5L1375.79 174L1365.36 148.5L1352.73 158.5L1340.65 216.5L1328.02 143.5L1316.5 109.5L1306.06 93.5L1292.34 105.5L1282.46 115.5L1269.28 93.5L1258.3 46.5L1246.22 57.5L1234.15 122.5L1219.32 161.5L1210.54 158.5L1195.17 176.5L1188.03 197L1171.56 209L1162.23 233L1148.5 216.5L1137.52 266.5L1122.15 277.5L1112.27 293.5L1100.74 299L1089.21 320L1082.62 277.5L1055.17 274L1028.82 280L1006.31 277.5L993.685 293.5L984.352 303.5L970.078 293.5L959.098 299L942.628 277.5L933.844 247L919.571 269L909.689 274L899.258 283L881.141 296L869.063 293.5L860.828 280L852.044 308.5L836.672 303.5L825.692 291L815.81 280L798.242 288L788.909 299L776.282 293.5L765.302 274L752.675 285.5L743.891 269L729.617 274L706.011 260L689.541 291L681.306 303.5L664.287 285.5L657.15 308.5L646.719 317.5L630.249 331.5L628.053 342L611.583 344.5L596.76 360.5L586.878 376.5L570.957 380.5L559.977 392.5L548.448 395L536.37 387.5L507.274 390.5L504.529 401L483.667 406L477.628 399L451.825 406L441.394 390.5L431.512 380.5H416.689L407.356 390.5L395.278 408L381.004 406L370.573 421L340.927 436L334.888 441L321.712 448L303.047 446L299.753 455.5H281.087L275.597 475.5L258.578 461L243.755 463L235.52 475.5L223.991 455.5L192.698 448L175.13 467L129.563 488L119.681 496.5L92.7805 488L78.5066 496.5H70.8207H43.9198L36.7828 506L19.7639 511.5H13.7249Z" fill="url(#paint0_linear)" fill-opacity="0.5"/>
<defs>
<linearGradient id="paint0_linear" x1="840.5" y1="179.5" x2="856" y2="535" gradientUnits="userSpaceOnUse">
<stop stop-color="#28BC5D"/>
<stop offset="1" stop-color="white" stop-opacity="0"/>
</linearGradient>
</defs>
</svg>
