<svg width="1185" height="231" viewBox="0 0 1185 231" fill="none" xmlns="http://www.w3.org/2000/svg">
<g opacity="0.5">
<path d="M103.5 36L91 42.0448C90.2857 42.409 89.4643 42.409 88.8214 42.0448L78.0714 36L82.3929 47.7983C82.6429 48.4902 82.5357 49.3277 82.0714 50.0196L74.5 62L87 55.8459C87.7143 55.4818 88.5357 55.4818 89.1786 55.8459L99.9286 62L95.6429 50.0196C95.3929 49.3277 95.5 48.4902 95.9643 47.7983L103.5 36Z" fill="#FF9C82"/>
<path d="M1109.5 159L1097 165.045C1096.29 165.409 1095.46 165.409 1094.82 165.045L1084.07 159L1088.39 170.798C1088.64 171.49 1088.54 172.328 1088.07 173.02L1080.5 185L1093 178.846C1093.71 178.482 1094.54 178.482 1095.18 178.846L1105.93 185L1101.64 173.02C1101.39 172.328 1101.5 171.49 1101.96 170.798L1109.5 159Z" fill="#FF9C82"/>
<path d="M1184.5 216L1177.17 219.487C1176.75 219.697 1176.27 219.697 1175.9 219.487L1169.59 216L1172.13 222.807C1172.27 223.206 1172.21 223.689 1171.94 224.088L1167.5 231L1174.83 227.45C1175.25 227.239 1175.73 227.239 1176.1 227.45L1182.41 231L1179.89 224.088C1179.75 223.689 1179.81 223.206 1180.08 222.807L1184.5 216Z" fill="#FF9C82"/>
<path d="M16.5 0L9.60345 3.2549C9.20936 3.45098 8.75616 3.45098 8.40148 3.2549L2.47044 0L4.85468 6.35294C4.99261 6.72549 4.9335 7.17647 4.67734 7.54902L0.5 14L7.39655 10.6863C7.79064 10.4902 8.24384 10.4902 8.59852 10.6863L14.5296 14L12.165 7.54902C12.0271 7.17647 12.0862 6.72549 12.3424 6.35294L16.5 0Z" fill="#FF9C82"/>
</g>
</svg>
