<svg width="88" height="24" viewBox="0 0 88 24" fill="none" xmlns="http://www.w3.org/2000/svg">
<g clip-path="url(#clip0)">
<path d="M18.2312 22.6005C18.2184 22.5752 18.2074 22.5491 18.1983 22.5224C18.1684 22.2737 18.1983 22.2332 18.4468 22.2332H19.5662C19.7398 22.2332 19.7638 22.2506 19.7428 22.4096C19.7196 22.6268 19.6765 22.8417 19.6141 23.0516C19.513 23.3749 19.2917 23.6507 18.9927 23.8258C18.6938 24.0009 18.3383 24.063 17.9948 24C17.5961 23.9516 17.2292 23.7647 16.9626 23.4742C16.6961 23.1837 16.548 22.8094 16.5461 22.4212C16.5277 22.13 16.5909 21.8394 16.7289 21.58C16.8669 21.3205 17.0746 21.1017 17.3303 20.9465C17.6643 20.7363 18.0699 20.6602 18.4611 20.7341C18.8522 20.8081 19.1982 21.0264 19.4255 21.3426C19.4644 21.3947 19.4974 21.4554 19.5303 21.5104C19.4689 21.5632 19.3895 21.5924 19.3073 21.5924C19.2251 21.5924 19.1457 21.5632 19.0843 21.5104C18.9483 21.3366 18.7617 21.206 18.5484 21.1354C18.335 21.0649 18.1047 21.0575 17.887 21.1142C17.6651 21.1619 17.4614 21.2683 17.2986 21.4215C17.1357 21.5747 17.0203 21.7687 16.9651 21.9817C16.8542 22.3069 16.8799 22.6612 17.0367 22.9684C17.1934 23.2755 17.4686 23.511 17.8032 23.6241C17.9558 23.675 18.1178 23.6939 18.2785 23.6794C18.4392 23.665 18.5949 23.6176 18.7351 23.5405C18.8754 23.4633 18.997 23.3581 19.0918 23.2319C19.1866 23.1057 19.2524 22.9614 19.2848 22.8087C19.3118 22.6583 19.2848 22.6178 19.1232 22.6178C18.8897 22.6178 18.6563 22.6178 18.4228 22.6178L18.2312 22.6005Z" fill="#4B4F54"/>
<path d="M10.3895 22.7134V23.9481H10.0273V20.8021C10.0782 20.7994 10.1292 20.7994 10.18 20.8021C10.5961 20.8021 11.0151 20.8021 11.4312 20.8021C11.5896 20.8045 11.7468 20.8288 11.8981 20.8744C12.0485 20.9296 12.1823 21.02 12.2875 21.1376C12.3926 21.2551 12.4659 21.3961 12.5006 21.5479C12.5354 21.6996 12.5305 21.8573 12.4864 22.0067C12.4424 22.1562 12.3606 22.2927 12.2483 22.404L12.1076 22.5226C12.1076 22.5399 12.1076 22.5573 12.1076 22.563C12.2125 22.643 12.2949 22.7471 12.3472 22.8658C12.3995 22.9846 12.4201 23.1141 12.4069 23.2426C12.4069 23.4739 12.4069 23.7052 12.4069 23.9539H12.0567C12.0486 23.909 12.0436 23.8636 12.0418 23.818C12.0418 23.604 12.0418 23.39 12.0418 23.1789C12.0481 23.1216 12.0418 23.0637 12.0233 23.0089C12.0047 22.9541 11.9744 22.9037 11.9342 22.8611C11.8941 22.8185 11.845 22.7846 11.7903 22.7616C11.7355 22.7386 11.6764 22.7271 11.6167 22.7279C11.2216 22.7105 10.8235 22.7279 10.3925 22.7279L10.3895 22.7134ZM10.3925 22.352C10.4434 22.352 10.4763 22.352 10.5063 22.352H11.4701C11.5389 22.3511 11.6074 22.3414 11.6736 22.323C11.8153 22.2983 11.9423 22.2231 12.0293 22.1122C12.1163 22.0014 12.1571 21.863 12.1435 21.7245C12.1534 21.5858 12.1061 21.4489 12.0119 21.3438C11.9177 21.2387 11.7842 21.1739 11.6407 21.1635C11.5724 21.1525 11.5034 21.1457 11.4341 21.1433H10.5931C10.5302 21.1433 10.4703 21.1433 10.4015 21.1433L10.3925 22.352Z" fill="#4B4F54"/>
<path d="M2.56152 22.3691C2.56108 22.0385 2.66167 21.715 2.85069 21.4393C3.03971 21.1636 3.30875 20.9479 3.62411 20.8193C3.84455 20.7352 4.08147 20.6993 4.31796 20.7139C4.55445 20.7285 4.78469 20.7933 4.99225 20.9038C5.19981 21.0143 5.37957 21.1677 5.5187 21.353C5.65784 21.5383 5.75292 21.751 5.79717 21.9759C5.86547 22.2948 5.8427 22.6256 5.73132 22.933C5.62616 23.2464 5.42017 23.5192 5.14335 23.7117C4.86653 23.9041 4.53333 24.0061 4.1923 24.0029C3.85127 23.9997 3.52021 23.8914 3.24734 23.6937C2.97447 23.4961 2.77405 23.2194 2.67527 22.9041C2.6253 22.7225 2.58731 22.538 2.56152 22.3518V22.3691ZM2.95663 22.3981C2.96248 22.707 3.08123 23.004 3.29187 23.2366C3.39418 23.357 3.52059 23.4561 3.66354 23.5281C3.80648 23.6002 3.96301 23.6435 4.12373 23.6557C4.28445 23.6678 4.44606 23.6485 4.59886 23.5989C4.75166 23.5492 4.89251 23.4703 5.01295 23.3667C5.15664 23.2363 5.27061 23.0784 5.34759 22.903C5.42457 22.7277 5.46288 22.5388 5.46006 22.3483C5.45724 22.1579 5.41337 21.9701 5.33123 21.7969C5.2491 21.6238 5.13051 21.469 4.98302 21.3426C4.85708 21.2393 4.70945 21.1636 4.5503 21.1206C4.39115 21.0777 4.22426 21.0686 4.06112 21.094C3.74153 21.1493 3.45395 21.3157 3.25267 21.5618C3.0514 21.8079 2.95035 22.1167 2.9686 22.4299" fill="#4B4F54"/>
<path d="M26.5464 23.951H26.1184C26.0017 23.6618 25.8879 23.3437 25.7742 23.0459H24.4213C24.3045 23.3351 24.1908 23.6242 24.0741 23.9452H23.667L23.7418 23.7312C24.101 22.8117 24.4612 21.8931 24.8224 20.9755C24.9032 20.7645 24.8822 20.7905 25.1007 20.7876H25.3312C25.7353 21.8372 26.1394 22.8869 26.5464 23.951ZM25.1426 21.2994H25.0947C24.9241 21.7534 24.7535 22.2045 24.5739 22.6758H25.6545C25.4809 22.2045 25.3103 21.7505 25.1426 21.2994Z" fill="#4B4F54"/>
<path d="M51.9203 23.9511H51.5012C51.3875 23.6619 51.2708 23.3554 51.154 23.046H49.7981L49.4539 23.9482H49.0498C49.0642 23.8922 49.0822 23.8372 49.1037 23.7834L50.2082 20.9612C50.274 20.7877 50.277 20.7877 50.4626 20.7877C50.7469 20.7877 50.6991 20.753 50.7978 21.0075L51.8574 23.7689C51.8784 23.8239 51.8963 23.8817 51.9203 23.9511ZM50.5105 21.3082H50.4596C50.286 21.7622 50.1154 22.2162 49.9388 22.6817H51.0193L50.5105 21.314" fill="#4B4F54"/>
<path d="M45.2749 21.7503H44.8977C44.8738 21.7127 44.8469 21.6751 44.8229 21.6318C44.7347 21.4846 44.6135 21.3584 44.4682 21.2624C44.3229 21.1665 44.1572 21.1031 43.9832 21.077C43.8093 21.051 43.6315 21.0629 43.4629 21.1118C43.2944 21.1608 43.1393 21.2456 43.009 21.36C42.865 21.4865 42.7499 21.6408 42.6711 21.8128C42.5923 21.9849 42.5517 22.1709 42.5517 22.359C42.5517 22.5471 42.5923 22.7332 42.6711 22.9052C42.7499 23.0772 42.865 23.2315 43.009 23.358C43.1378 23.4681 43.2896 23.5501 43.4542 23.5984C43.6187 23.6467 43.7921 23.6602 43.9625 23.6379C44.1329 23.6157 44.2963 23.5583 44.4417 23.4696C44.5871 23.3809 44.711 23.2629 44.805 23.1238C44.8379 23.0776 44.8648 23.0313 44.8948 22.985H45.2899C45.215 23.2119 45.0844 23.418 44.9093 23.5857C44.7342 23.7533 44.5197 23.8776 44.2841 23.9479C44.0579 24.015 43.8192 24.0337 43.5847 24.0028C43.3502 23.9718 43.1255 23.892 42.9261 23.7687C42.7268 23.6455 42.5576 23.4818 42.4303 23.289C42.303 23.0963 42.2206 22.8791 42.1889 22.6525C42.1356 22.3748 42.1566 22.0886 42.2499 21.8209C42.3431 21.5532 42.5055 21.313 42.7217 21.1229C42.8978 20.9616 43.1103 20.842 43.3424 20.7736C43.5745 20.7051 43.8199 20.6896 44.0592 20.7283C44.2986 20.767 44.5254 20.8588 44.7218 20.9965C44.9182 21.1342 45.0788 21.314 45.1911 21.5219C45.227 21.5913 45.2539 21.6636 45.2899 21.7503" fill="#4B4F54"/>
<path d="M37.9261 23.948H37.5879V20.802H37.9171C37.956 20.935 37.965 23.7283 37.9171 23.948" fill="#4B4F54"/>
<path d="M85.1504 9.91527C85.1504 11.2888 85.1504 12.6623 85.1504 14.0357C85.1397 14.1512 85.1673 14.2669 85.2292 14.3661C85.2911 14.4654 85.384 14.5431 85.4946 14.588C85.862 14.754 86.2624 14.8408 86.6679 14.8425C87.0151 14.8425 87.3624 14.8425 87.7126 14.8425C87.7564 14.8396 87.8004 14.8396 87.8443 14.8425C87.8734 14.8404 87.9025 14.8463 87.9282 14.8597C87.9539 14.8731 87.9751 14.8933 87.9893 14.9179C88.0034 14.9426 88.01 14.9706 88.0082 14.9988C88.0063 15.0269 87.9962 15.054 87.9789 15.0767C87.9688 15.0994 87.9558 15.1208 87.94 15.1403C87.4837 15.8254 86.7775 16.3198 85.9615 16.5254C85.6586 16.6077 85.3406 16.6245 85.0302 16.5745C84.7197 16.5245 84.4246 16.409 84.1656 16.2362C83.7364 15.9732 83.3791 15.6142 83.124 15.1895C83.1028 15.1448 83.072 15.105 83.0336 15.0727C82.9952 15.0405 82.9501 15.0166 82.9013 15.0026C82.8525 14.9887 82.8012 14.9849 82.7508 14.9917C82.7004 14.9985 82.6521 15.0157 82.6092 15.042C82.5502 15.0763 82.4942 15.1149 82.4415 15.1577C81.4389 15.9121 80.2449 16.3924 78.9844 16.5485C78.3332 16.6522 77.6661 16.6127 77.0328 16.4329C76.4708 16.2904 75.9674 15.9852 75.5901 15.5582C75.2129 15.1313 74.98 14.603 74.9226 14.0444C74.8082 13.4298 74.8749 12.7964 75.1152 12.2166C75.3555 11.6368 75.7596 11.1339 76.2816 10.7654C76.8934 10.321 77.5757 9.97534 78.302 9.74177C79.0382 9.50455 79.7889 9.31141 80.5498 9.16346C81.1485 9.03334 81.7292 8.89165 82.3218 8.7702C82.4338 8.75255 82.5352 8.69558 82.6065 8.61021C82.6777 8.52484 82.7138 8.41707 82.7079 8.30755C82.7079 7.76394 82.7079 7.22032 82.7079 6.67671C82.6977 6.0378 82.4533 5.42309 82.0181 4.94184C81.583 4.46059 80.9853 4.14398 80.3313 4.04828C79.9616 3.99605 79.585 4.01075 79.2209 4.09165C78.9163 4.14611 78.6343 4.28414 78.4087 4.48924C78.1832 4.69434 78.0235 4.95785 77.9488 5.24828C77.8596 5.54211 77.8162 5.84715 77.82 6.15334C77.82 6.36731 77.82 6.5784 77.82 6.79237C77.82 7.10177 77.6704 7.24057 77.3501 7.24057H76.0421C75.9419 7.23936 75.8419 7.23163 75.7428 7.21743C75.6241 7.21458 75.5109 7.16813 75.4264 7.08756C75.3419 7.00698 75.2923 6.89833 75.2878 6.7837C75.245 6.51078 75.2531 6.23266 75.3118 5.96249C75.4519 5.33174 75.7994 4.76168 76.3025 4.33743C76.7445 3.96216 77.2368 3.64607 77.7662 3.39767C78.4564 3.03568 79.2071 2.79392 79.9841 2.68346C80.4168 2.62897 80.8543 2.61928 81.2892 2.65454C81.7815 2.68272 82.2692 2.76222 82.7439 2.89165C83.2822 3.03365 83.7811 3.28945 84.2045 3.64057C84.7185 4.08962 85.039 4.70886 85.1025 5.37551C85.128 5.58761 85.14 5.80102 85.1384 6.01454C85.1384 7.31286 85.1384 8.61695 85.1384 9.91527H85.1504ZM82.693 12.0348V10.1668C82.6962 10.1081 82.6854 10.0495 82.6613 9.99556C82.6373 9.94158 82.6007 9.8937 82.5543 9.85564C82.508 9.81758 82.4531 9.79037 82.3941 9.77614C82.3351 9.76191 82.2735 9.76103 82.2141 9.77358C82.0165 9.7996 81.819 9.84587 81.6154 9.88924C80.7928 10.0533 79.9858 10.2835 79.2029 10.5774C78.7953 10.7281 78.4106 10.9314 78.0595 11.1818C77.662 11.4525 77.3893 11.8622 77.2992 12.3239C77.2515 12.5941 77.2364 12.8687 77.2543 13.1423C77.2621 13.4785 77.3806 13.8036 77.5927 14.0704C77.8048 14.3371 78.0994 14.5316 78.4337 14.6256C78.5235 14.6545 78.6162 14.6806 78.706 14.7008C79.3098 14.8101 79.9287 14.8169 80.5349 14.721C81.1791 14.6264 81.8085 14.4545 82.4086 14.2092C82.6391 14.1196 82.687 14.0502 82.687 13.8102V12.0348" fill="#4B4F54"/>
<path d="M54.3861 9.83139V14.1254C54.3863 14.2052 54.4079 14.2837 54.4488 14.3531C54.4897 14.4226 54.5486 14.4806 54.6196 14.5215C54.8884 14.6904 55.1975 14.79 55.5175 14.8107C55.9904 14.8396 56.4664 14.8396 56.9393 14.854C56.9961 14.8497 57.0531 14.8497 57.1099 14.854C57.1355 14.8555 57.1603 14.8631 57.182 14.8762C57.2038 14.8894 57.2217 14.9076 57.2343 14.9292C57.2468 14.9508 57.2535 14.9751 57.2537 14.9999C57.2539 15.0247 57.2477 15.0491 57.2356 15.0709C57.2236 15.0993 57.2086 15.1265 57.1907 15.1519C56.7352 15.8308 56.0358 16.3231 55.2272 16.534C54.9197 16.6194 54.5964 16.6378 54.2806 16.5878C53.9648 16.5378 53.6645 16.4206 53.4013 16.2449C52.9804 15.9798 52.6306 15.6221 52.3806 15.201C52.3586 15.1553 52.3264 15.1147 52.2864 15.0822C52.2464 15.0497 52.1996 15.026 52.1491 15.0128C52.0987 14.9995 52.0458 14.9971 51.9943 15.0057C51.9428 15.0142 51.8938 15.0335 51.8508 15.0622C51.8031 15.0914 51.7571 15.1233 51.7132 15.1577C50.7434 15.8927 49.5921 16.3711 48.3728 16.5456C47.6753 16.6665 46.9584 16.6309 46.2775 16.4415C45.6957 16.2795 45.1798 15.9478 44.8005 15.4918C44.4212 15.0358 44.1969 14.4778 44.1583 13.894C44.0836 13.2997 44.1737 12.6968 44.4193 12.1471C44.6649 11.5974 45.0572 11.1205 45.5562 10.7654C46.1656 10.3269 46.8436 9.9853 47.5646 9.75332C48.3012 9.51706 49.0518 9.32394 49.8125 9.175L51.6084 8.77597C51.7145 8.7664 51.8127 8.71727 51.8819 8.639C51.9512 8.56073 51.9862 8.45947 51.9796 8.35669C51.9796 7.72922 51.9975 7.09886 51.9556 6.47139C51.9054 5.91558 51.6764 5.38889 51.3006 4.96521C50.9248 4.54154 50.4212 4.24212 49.8604 4.10898C49.4517 4.01657 49.0276 4.00771 48.6152 4.08296C48.2509 4.12902 47.9125 4.29007 47.6527 4.54107C47.3929 4.79207 47.2262 5.11895 47.1785 5.47091C47.1361 5.71773 47.1101 5.96691 47.1006 6.21693C47.0857 6.43669 47.1006 6.65645 47.1006 6.87621C47.1003 6.92316 47.0902 6.96958 47.0712 7.01277C47.0521 7.05597 47.0244 7.0951 46.9896 7.12789C46.9549 7.16069 46.9137 7.18651 46.8685 7.20386C46.8234 7.22121 46.7751 7.22974 46.7265 7.22898C46.6827 7.23339 46.6386 7.23339 46.5948 7.22898H45.2658C45.1655 7.22483 45.0656 7.21517 44.9665 7.20006C44.8677 7.19388 44.774 7.15524 44.701 7.09054C44.6281 7.02585 44.5802 6.93899 44.5654 6.8444C44.4906 6.47112 44.5122 6.08578 44.6283 5.72247C44.8208 5.09598 45.2189 4.54693 45.7627 4.15814C46.7087 3.43563 47.8186 2.94014 49.0013 2.71235C49.557 2.62132 50.1229 2.60381 50.6835 2.66031C51.2064 2.69718 51.7229 2.79425 52.222 2.94946C52.564 3.06137 52.8875 3.22009 53.1828 3.42079C53.534 3.65814 53.8245 3.96987 54.032 4.33219C54.2395 4.69451 54.3586 5.09784 54.3801 5.51139C54.3801 5.63862 54.3801 5.76585 54.3801 5.89597V9.83139H54.3861ZM51.9496 12.0463C51.9496 11.468 51.9496 10.8897 51.9496 10.3114C51.9527 10.2329 51.9467 10.1544 51.9317 10.0772C51.9161 9.98225 51.8632 9.89678 51.784 9.8386C51.7049 9.78042 51.6055 9.75401 51.5066 9.76488C51.4501 9.76908 51.3941 9.77779 51.339 9.79091C51.1395 9.83139 50.9299 9.87476 50.7104 9.92103C49.907 10.0864 49.1198 10.3185 48.3578 10.615C47.9273 10.7764 47.5277 11.0061 47.1755 11.2945C46.8762 11.542 46.6664 11.8752 46.5768 12.2458C46.4932 12.5918 46.478 12.9499 46.5319 13.3013C46.5669 13.5824 46.6804 13.849 46.8602 14.0726C47.04 14.2962 47.2793 14.4684 47.5526 14.5707C47.8334 14.6836 48.1319 14.7501 48.4356 14.7673C49.5651 14.8295 50.6936 14.6313 51.7281 14.189C51.7915 14.1677 51.8472 14.129 51.8881 14.0777C51.929 14.0263 51.9536 13.9645 51.9586 13.8998C51.9616 13.8449 51.9616 13.7899 51.9586 13.735V12.0377" fill="#4B4F54"/>
<path d="M61.0759 2.94359H64.3205C64.3773 2.94068 64.4343 2.94068 64.4911 2.94359C64.5515 2.94943 64.6084 2.97398 64.6532 3.01359C64.6979 3.0532 64.7282 3.10573 64.7396 3.16335C64.7512 3.22041 64.7432 3.27958 64.7167 3.3318C64.6902 3.38403 64.6467 3.42642 64.5929 3.45251C64.5475 3.47429 64.5005 3.49266 64.4522 3.50745L62.8598 4.08576L62.7371 4.13203C62.6653 4.16327 62.6006 4.20789 62.5467 4.26334C62.4927 4.31879 62.4507 4.38397 62.4229 4.45516C62.3951 4.52634 62.3821 4.60212 62.3846 4.67816C62.3872 4.7542 62.4053 4.82901 62.4378 4.89829C62.5605 5.18745 62.6982 5.45347 62.8299 5.73106C63.8676 7.92094 64.9082 10.1108 65.9518 12.3007C65.9997 12.4132 66.0642 12.5184 66.1434 12.613C66.1673 12.65 66.2006 12.6806 66.2402 12.7018C66.2797 12.723 66.3241 12.7341 66.3694 12.7341C66.4146 12.7341 66.459 12.723 66.4986 12.7018C66.5381 12.6806 66.5714 12.65 66.5953 12.613C66.6682 12.5138 66.7276 12.4059 66.7719 12.292C67.4185 10.7152 68.064 9.13829 68.7085 7.56143C69.0737 6.67082 69.4329 5.77733 69.804 4.89251C69.9537 4.54263 69.84 4.42986 69.5586 4.3142C68.96 4.05685 68.3943 3.78215 67.8106 3.51323C67.7348 3.48895 67.6703 3.43977 67.6281 3.37426C67.586 3.30875 67.569 3.23105 67.5801 3.15468C67.5788 3.12701 67.5835 3.09939 67.5939 3.07357C67.6043 3.04776 67.6201 3.02431 67.6404 3.00473C67.6607 2.98514 67.6849 2.96985 67.7117 2.95982C67.7384 2.9498 67.767 2.94525 67.7956 2.94649H73.2791C73.5036 2.94649 73.5785 2.97829 73.5934 3.10263C73.6174 3.29637 73.5934 3.41492 73.3899 3.50456L71.8693 4.16962C71.7915 4.20844 71.7116 4.24319 71.6299 4.27371C71.5199 4.31202 71.4203 4.37376 71.3384 4.45436C71.2566 4.53495 71.1945 4.63233 71.157 4.73926C70.8576 5.49396 70.5194 6.24287 70.1991 6.99179L65.2125 18.665C65.0299 19.0988 64.8593 19.5325 64.6617 19.9691C64.2534 20.899 63.6721 21.7487 62.9466 22.4761C62.4841 22.9435 61.8916 23.2718 61.2405 23.4217C60.8697 23.5016 60.4861 23.5095 60.1121 23.4448C59.9905 23.4354 59.8765 23.384 59.7908 23.3002C59.705 23.2163 59.6534 23.1055 59.6452 22.9879C59.6316 22.9028 59.6256 22.8167 59.6272 22.7306C59.6272 22.2795 59.6272 21.8284 59.6272 21.3773C59.6211 21.3304 59.6263 21.2826 59.6425 21.238C59.6587 21.1933 59.6854 21.1528 59.7205 21.1198C59.7556 21.0867 59.7981 21.062 59.8448 21.0474C59.8914 21.0329 59.9409 21.0291 59.9894 21.0361C60.4114 21.0361 60.8364 21.0361 61.2615 21.0361C61.474 21.0361 61.6895 21.0188 61.902 21.0043C62.0899 20.9931 62.273 20.9419 62.438 20.8545C62.6031 20.767 62.7461 20.6454 62.8568 20.4983C63.0094 20.3122 63.1437 20.1128 63.2579 19.9026C63.5932 19.252 63.9164 18.5956 64.2337 17.9393C64.4522 17.4853 64.6528 17.0226 64.8743 16.5715C64.9524 16.4218 64.9931 16.2564 64.9931 16.0887C64.9931 15.9209 64.9524 15.7555 64.8743 15.6058C63.1741 12.0761 61.478 8.54456 59.7858 5.01106C59.5763 4.56082 59.2007 4.2021 58.7322 4.0048C58.3641 3.84576 57.9989 3.68094 57.6337 3.51323C57.5588 3.48193 57.493 3.43326 57.4422 3.37155C57.4142 3.33224 57.3974 3.28651 57.3935 3.23895C57.3896 3.19138 57.3987 3.14366 57.4199 3.10058C57.4411 3.0575 57.4737 3.02058 57.5144 2.99354C57.5551 2.96649 57.6025 2.95026 57.6517 2.94649C57.7085 2.94215 57.7655 2.94215 57.8223 2.94649H61.0669" fill="#4B4F54"/>
<path d="M35.349 16.6064C34.2902 16.6288 33.24 16.4182 32.278 15.9905C31.5893 15.6777 30.974 15.2321 30.4701 14.6811C29.9662 14.1302 29.5842 13.4855 29.3476 12.7867C29.1303 12.18 28.9984 11.5478 28.9555 10.9072C28.8387 9.58329 29.0362 8.25111 29.5332 7.01221C30.0803 5.60469 31.0923 4.41058 32.4127 3.61462C33.2152 3.13379 34.1157 2.82605 35.0527 2.71245C36.4067 2.52816 37.787 2.72913 39.0246 3.29077C39.5675 3.51687 40.0385 3.87808 40.3895 4.33751C40.4595 4.42941 40.5225 4.52604 40.5781 4.62667C40.6681 4.77954 40.7 4.95796 40.6683 5.13112C40.6366 5.30428 40.5433 5.46132 40.4045 5.57511C40.3536 5.62137 40.2998 5.66474 40.2459 5.70523C39.8927 5.99438 39.5395 6.28354 39.1863 6.5727C39.0276 6.69992 38.9468 6.69125 38.8241 6.53221C38.4949 6.10715 38.1716 5.66474 37.8423 5.25125C37.4492 4.72001 36.8916 4.3231 36.25 4.11776C35.5146 3.87774 34.7209 3.86059 33.9751 4.0686C33.5258 4.20261 33.112 4.4292 32.7621 4.73272C32.4123 5.03624 32.1348 5.40948 31.9487 5.82667C31.6776 6.39475 31.5018 7.00088 31.4279 7.62233C31.3551 8.15516 31.3301 8.69306 31.3531 9.23004C31.3739 10.0362 31.54 10.8327 31.844 11.5838C32.1036 12.2441 32.5302 12.8311 33.085 13.2912C33.6397 13.7513 34.3048 14.0699 35.0197 14.218C35.6067 14.3589 36.2112 14.4202 36.8157 14.4002C37.4099 14.374 37.9978 14.271 38.5637 14.0937C39.0995 13.9317 39.6263 13.7409 40.1561 13.5616C40.2698 13.524 40.3806 13.4517 40.4823 13.5616C40.5841 13.6715 40.5003 13.7814 40.4404 13.8768C40.0632 14.5192 39.5513 15.0784 38.9374 15.5185C38.3235 15.9587 37.6212 16.2702 36.8755 16.4329C36.3767 16.5485 35.8649 16.6029 35.352 16.5949" fill="#4B4F54"/>
<path d="M1.95093 4.33746H0.155015C0.120025 4.33642 0.0863727 4.32423 0.0593027 4.30278C0.0322327 4.28134 0.0132652 4.25185 0.00535561 4.2189C-0.00806219 4.18429 -0.00947961 4.1464 0.00131664 4.11094C0.0121129 4.07548 0.0345388 4.04436 0.0652196 4.02228C0.107376 3.99447 0.15137 3.96936 0.19692 3.9471C0.747669 3.65794 1.30141 3.35433 1.85515 3.06228C1.97513 2.99876 2.07773 2.90856 2.15447 2.79915C2.77107 1.94131 3.38667 1.09023 4.00127 0.245893C4.03981 0.19047 4.08179 0.13736 4.12699 0.0868569C4.17189 0.0348087 4.23474 -0.0259142 4.30059 0.0116762C4.34911 0.056298 4.38073 0.115352 4.39039 0.179387C4.39939 0.239798 4.39939 0.301144 4.39039 0.361556V2.52156C4.3874 2.57646 4.3874 2.63147 4.39039 2.68637C4.39875 2.75401 4.43156 2.81662 4.48303 2.86317C4.53451 2.90972 4.60134 2.93723 4.67175 2.94083C4.72858 2.94372 4.78553 2.94372 4.84236 2.94083H8.09597C8.1528 2.93792 8.20975 2.93792 8.26658 2.94083C8.3182 2.94307 8.36693 2.96446 8.40262 3.00055C8.4383 3.03665 8.4582 3.08465 8.45814 3.13457C8.45814 3.46421 8.45814 3.79384 8.45814 4.12348C8.45814 4.24493 8.37733 4.30565 8.25161 4.31433H4.87529C4.81846 4.31144 4.76151 4.31144 4.70468 4.31433C4.62669 4.31848 4.55303 4.35028 4.4978 4.40364C4.44257 4.45699 4.40966 4.52815 4.40536 4.60348C4.40536 4.64975 4.40536 4.6989 4.40536 4.74806C4.40536 7.52204 4.40536 10.2931 4.40536 13.0613C4.39185 13.3251 4.46049 13.5868 4.60241 13.8125C4.74432 14.0383 4.95301 14.2178 5.20155 14.3278C5.61014 14.5252 6.05886 14.6328 6.51556 14.643C7.03875 14.6645 7.56288 14.6384 8.081 14.5649C8.23066 14.5447 8.38032 14.5216 8.53297 14.5129C8.73352 14.5129 8.81433 14.6054 8.7425 14.802C8.58572 15.2046 8.32257 15.5605 7.97923 15.8343C7.54766 16.1659 7.03745 16.3885 6.49461 16.482C5.79601 16.6351 5.07183 16.644 4.36944 16.5081C3.72837 16.3941 3.14137 16.0863 2.69325 15.629C2.27205 15.1922 2.01577 14.6308 1.9659 14.0358C1.94794 13.8391 1.94195 13.6454 1.94195 13.4575C1.94195 10.5042 1.94195 7.55095 1.94195 4.5977L1.95093 4.33746Z" fill="#4B4F54"/>
<path d="M22.5713 11.5896C22.6758 11.5582 22.7852 11.5445 22.8946 11.5491C22.9484 11.5491 23.0023 11.5491 23.0263 11.4912C23.0502 11.4334 23.0113 11.4016 22.9784 11.364L22.7629 11.1153C23.163 10.9463 23.5392 10.7286 23.8823 10.4676C24.002 10.3896 24.038 10.3925 24.1487 10.485C24.2638 10.5864 24.3644 10.7021 24.448 10.8291C24.8252 11.3322 25.1424 11.8556 25.5346 12.3529C25.6244 12.4657 25.5884 12.5467 25.4388 12.5727C25.0796 12.6363 24.7174 12.6884 24.3582 12.7578C23.999 12.8272 23.6848 12.9081 23.3375 12.9428H23.2448C22.9454 12.9573 22.8766 12.9168 22.8287 12.6305C22.7817 12.2728 22.6954 11.921 22.5713 11.5809" fill="#64BBA8"/>
<path d="M20.1291 13.712C20.2275 13.7717 20.3197 13.8405 20.4045 13.9173C20.5093 13.9925 20.5572 13.9751 20.5721 13.845C20.5721 13.7611 20.5721 13.6744 20.5901 13.5905C20.608 13.5067 20.623 13.4749 20.7248 13.5125C21.0793 13.6205 21.4428 13.6989 21.8113 13.7467C21.9849 13.7785 21.9849 13.7756 22.0089 13.9317C22.0299 14.1754 22.0086 14.4207 21.946 14.6575C21.8442 15.1693 21.6976 15.6754 21.6167 16.1929C21.5928 16.3491 21.509 16.3838 21.3773 16.2913C20.9193 15.9674 20.4225 15.6956 19.9555 15.3862C19.7777 15.2794 19.6148 15.1512 19.4706 15.0045C19.3659 14.8917 19.3659 14.8773 19.4527 14.7529C19.6173 14.5216 19.7939 14.299 19.9376 14.0561C20.0034 13.9462 20.0633 13.8305 20.1291 13.712Z" fill="#64BBA8"/>
<path d="M22.0355 5.3958C22.0329 5.43557 22.0279 5.47516 22.0205 5.51435C21.9936 5.67339 21.9906 5.67628 21.82 5.70231C21.4507 5.74643 21.0874 5.82884 20.7364 5.94809C20.6436 5.98279 20.6257 5.94809 20.6197 5.86713C20.6137 5.78616 20.6526 5.71966 20.5688 5.68785C20.485 5.65604 20.4491 5.73701 20.3922 5.7717C20.3353 5.8064 20.2785 5.89893 20.2066 5.87869C20.1348 5.85845 20.1438 5.75436 20.1168 5.68785C20.0178 5.47771 19.8964 5.27808 19.7547 5.09219L19.5032 4.74809C19.3985 4.60062 19.4015 4.56592 19.5392 4.43869C19.6472 4.33609 19.7655 4.24408 19.8923 4.16399C20.3952 3.83725 20.913 3.53074 21.3889 3.17797C21.5177 3.08544 21.6045 3.11436 21.6194 3.25026C21.6943 3.84592 21.8798 4.40689 21.9786 5.00544C21.9996 5.13267 22.0145 5.2599 22.0325 5.3958" fill="#64BBA8"/>
<path d="M15.4115 5.33796C15.4628 4.90868 15.5458 4.48349 15.6599 4.06567C15.7108 3.82856 15.7677 3.59145 15.8036 3.35145C15.8076 3.31479 15.8167 3.27881 15.8306 3.24446C15.8343 3.22791 15.842 3.21244 15.8531 3.19933C15.8642 3.18623 15.8784 3.17586 15.8945 3.16909C15.9106 3.16231 15.9281 3.15932 15.9456 3.16036C15.9631 3.1614 15.9801 3.16644 15.9952 3.17507C16.0124 3.18257 16.0285 3.1923 16.0431 3.20398C16.522 3.5423 17.0398 3.82278 17.5397 4.14952C17.6856 4.2461 17.8227 4.35444 17.9497 4.47338C18.0874 4.60639 18.0904 4.63242 17.9827 4.78278C17.7622 5.06541 17.5698 5.36747 17.408 5.68495C17.372 5.76591 17.3421 5.7688 17.2673 5.70808C17.1925 5.64736 17.1745 5.62422 17.1296 5.58374C17.0847 5.54326 17.0488 5.4941 16.9859 5.52013C16.9231 5.54615 16.935 5.5982 16.9291 5.64736L16.8931 5.90181C16.8931 5.98278 16.8482 6.00591 16.7674 5.97121C16.4223 5.83724 16.0597 5.74968 15.6899 5.71097C15.4205 5.6676 15.3906 5.64447 15.4205 5.37555C15.4221 5.36307 15.4221 5.35044 15.4205 5.33796" fill="#64BBA8"/>
<path d="M23.2452 6.56104C23.6395 6.59363 24.0301 6.65942 24.4126 6.75766C24.7119 6.82417 25.0381 6.89646 25.3584 6.94272C25.553 6.97164 25.5889 7.04682 25.4751 7.19718C25.1758 7.602 24.9094 8.03573 24.6251 8.45212C24.5005 8.64328 24.3571 8.82242 24.197 8.98706C24.0504 9.13164 24.0264 9.13453 23.8618 9.02176C23.5568 8.79721 23.2289 8.60343 22.883 8.44345C22.7962 8.40586 22.7992 8.35959 22.8501 8.30176C22.901 8.24393 22.9429 8.20345 22.9848 8.14851C23.0267 8.09357 23.1075 8.05308 23.0776 7.98079C23.0477 7.90851 22.9459 7.92585 22.874 7.92007C22.8232 7.91719 22.7722 7.91719 22.7214 7.92007C22.6585 7.92007 22.6346 7.88248 22.6585 7.81887C22.7786 7.48513 22.8619 7.14009 22.907 6.78947C22.9429 6.58417 22.9609 6.57549 23.1823 6.57838H23.2452" fill="#64BBA8"/>
<path d="M14.2292 6.54956C14.4537 6.54956 14.4896 6.56691 14.5285 6.75486C14.5711 7.10563 14.6534 7.45082 14.7739 7.78426C14.8039 7.85655 14.7739 7.88836 14.7081 7.89703C14.6422 7.90571 14.5434 7.89703 14.4626 7.91149C14.3249 7.92595 14.301 7.98667 14.3848 8.09077C14.4686 8.19486 14.5135 8.24402 14.5764 8.3192C14.6392 8.39438 14.6063 8.39727 14.5524 8.41751C14.1754 8.58937 13.8191 8.80077 13.4898 9.04788C13.3731 9.12595 13.3701 9.12306 13.2743 9.01896C13.0846 8.82293 12.9134 8.61102 12.7625 8.38571C12.4931 7.98089 12.2357 7.56739 11.9454 7.17703C11.8496 7.0498 11.8795 6.96595 12.0352 6.94571C12.5829 6.86474 13.1187 6.72595 13.6635 6.62185C13.8499 6.58488 14.039 6.56168 14.2292 6.55245" fill="#64BBA8"/>
<path d="M16.7617 13.6745C16.8395 13.6745 16.8425 13.7121 16.8485 13.7554C16.8545 13.7988 16.8305 13.9261 16.9084 13.955C16.9862 13.9839 17.0431 13.8856 17.1089 13.8451C17.1748 13.8046 17.2406 13.6803 17.3334 13.7005C17.4262 13.7207 17.4202 13.8393 17.4621 13.9116C17.5975 14.1386 17.7464 14.3577 17.9081 14.568C17.95 14.6229 17.9859 14.6808 18.0308 14.7328C18.047 14.7447 18.06 14.76 18.069 14.7775C18.078 14.7951 18.0827 14.8144 18.0827 14.834C18.0827 14.8536 18.078 14.8729 18.069 14.8905C18.06 14.908 18.047 14.9233 18.0308 14.9352C17.8784 15.0757 17.7164 15.2061 17.5459 15.3256C17.0491 15.6581 16.5193 15.9473 16.0284 16.2885C15.9086 16.3723 15.8278 16.3347 15.8039 16.1902C15.7171 15.6118 15.5405 15.0335 15.4417 14.4552C15.4237 14.3453 15.4118 14.2383 15.4028 14.1285C15.3938 14.0186 15.4028 13.9636 15.5584 13.9347L16.0433 13.8567C16.2554 13.8234 16.4639 13.7711 16.6659 13.7005L16.7587 13.6687" fill="#64BBA8"/>
<path d="M14.6156 11.1096C14.5534 11.2011 14.4844 11.2881 14.4091 11.3699C14.3343 11.4682 14.3582 11.5231 14.4809 11.5463H14.5767C14.6071 11.5509 14.6371 11.5577 14.6665 11.5665C14.5954 11.7556 14.5365 11.9487 14.4899 12.1448L14.3672 12.7752C14.3343 12.9487 14.3253 12.9545 14.1457 12.9429C13.742 12.8951 13.3421 12.8217 12.9484 12.7231C12.6491 12.6595 12.3707 12.5988 12.0744 12.5554C11.8768 12.5265 11.8469 12.4571 11.9606 12.301C12.26 11.899 12.5204 11.474 12.8047 11.0634C12.9403 10.8531 13.1011 10.659 13.2836 10.4851C13.3884 10.3925 13.3944 10.3925 13.5081 10.4677L14.1068 10.861C14.2703 10.9654 14.4449 11.0527 14.6276 11.1212" fill="#64BBA8"/>
<path d="M23.1975 13.3273C23.4808 13.3167 23.7625 13.2799 24.0386 13.2175C24.2271 13.177 24.2331 13.1828 24.281 13.3649C24.3798 13.7984 24.4548 14.2366 24.5055 14.6777C24.5354 14.8888 24.5833 15.097 24.6342 15.3052C24.6342 15.3341 24.6552 15.363 24.6612 15.3919C24.6821 15.5249 24.6282 15.577 24.4935 15.5567L24.3469 15.522C23.7482 15.3775 23.1197 15.2329 22.5001 15.1288C22.2816 15.0883 22.2666 15.0594 22.3115 14.8396C22.3847 14.5561 22.4179 14.2643 22.4103 13.9722C22.4103 13.8825 22.4462 13.8652 22.524 13.8883C22.6707 13.9317 22.8233 13.9722 22.958 14.0184C22.9832 14.0314 23.0118 14.0367 23.0401 14.0336C23.0685 14.0305 23.0952 14.0192 23.1167 14.0011C23.1359 13.9812 23.1481 13.9558 23.1513 13.9288C23.1545 13.9017 23.1487 13.8743 23.1346 13.8507C23.0887 13.7235 23.0468 13.5963 23.0089 13.469C22.97 13.3273 22.976 13.3216 23.1227 13.3244H23.1975" fill="#64BBA8"/>
<path d="M19.1558 15.2386C19.4138 15.4764 19.6967 15.6877 19.9999 15.8689C20.1017 15.9296 20.1017 15.9557 20.0328 16.0627C19.9101 16.2477 19.7844 16.4299 19.6527 16.6121C19.3863 16.9793 19.1229 17.3552 18.8864 17.7456C18.8752 17.7668 18.8622 17.7871 18.8475 17.8063C18.7817 17.8872 18.7098 17.893 18.644 17.8063C18.5781 17.7195 18.5362 17.6415 18.4794 17.5605C18.1531 17.0892 17.7909 16.641 17.4736 16.161C17.4437 16.1147 17.4138 16.0684 17.3809 16.0222C17.3479 15.9759 17.3539 15.9094 17.4198 15.8689C17.7256 15.6927 18.0071 15.4799 18.2579 15.2357C18.3147 15.1749 18.3566 15.201 18.3896 15.2588L18.6051 15.6434C18.6256 15.6879 18.6486 15.7313 18.6739 15.7735C18.7278 15.8516 18.7847 15.8516 18.8356 15.7735C18.8864 15.6954 18.9283 15.5884 18.9792 15.4843C19.0233 15.3934 19.083 15.3103 19.1558 15.2386Z" fill="#64BBA8"/>
<path d="M25.179 11.0544C25.1011 11.0544 25.0652 11.0053 25.0293 10.9561C24.9455 10.8376 24.8647 10.7219 24.7809 10.6091C24.6902 10.4846 24.5901 10.3667 24.4815 10.2564C24.3828 10.1552 24.3828 10.1465 24.5145 10.0742C24.6462 10.0019 24.7479 9.95274 24.8647 9.89491C24.9036 9.87467 24.9455 9.85732 24.9814 9.83419C25.0712 9.77636 25.0712 9.72142 24.9814 9.66937C24.8916 9.61732 24.724 9.54214 24.5953 9.47563C24.3349 9.34262 24.3917 9.34551 24.5414 9.18648C24.7137 9.00033 24.869 8.80006 25.0054 8.58792C25.1251 8.41732 25.161 8.40575 25.3406 8.52142C25.6788 8.74407 26.0141 8.97539 26.3523 9.19804C26.5708 9.34262 26.7983 9.4872 27.0198 9.61732C27.1694 9.71274 27.1784 9.78792 27.0198 9.87178C26.4481 10.2014 25.9243 10.5947 25.3705 10.9474C25.3122 10.9934 25.2451 11.0278 25.173 11.0486" fill="#64BBA8"/>
<path d="M12.3017 8.3855C12.4916 8.69383 12.7111 8.98426 12.9572 9.25297C13.032 9.33104 13.026 9.3455 12.9242 9.40333C12.8225 9.46116 12.6698 9.53345 12.5411 9.59995C12.4947 9.61946 12.4505 9.64369 12.4094 9.67224C12.3466 9.7214 12.3466 9.77345 12.4094 9.82261C12.4573 9.85202 12.5073 9.87811 12.5591 9.90068L12.9422 10.1002C13.0051 10.1349 13.014 10.1812 12.9602 10.2332C12.7354 10.4662 12.5349 10.72 12.3615 10.9908C12.2927 11.0862 12.2777 11.0891 12.164 11.0139C11.8367 10.7942 11.5015 10.5715 11.1583 10.346C10.9248 10.1898 10.6883 10.0366 10.4459 9.89489C10.4179 9.88022 10.3909 9.86379 10.3651 9.84574C10.2753 9.77634 10.2783 9.70983 10.3651 9.64044L10.395 9.6202C10.9427 9.3108 11.4396 8.93489 11.9664 8.59658C12.0682 8.53008 12.1759 8.46935 12.2957 8.39417" fill="#64BBA8"/>
<path d="M13.3312 6.29501C13.2174 6.29501 13.1785 6.2632 13.1516 6.13597C13.1097 5.94513 13.0678 5.75429 13.0349 5.55766C12.9481 5.08923 12.8672 4.62079 12.7505 4.15814C12.7116 4.00778 12.7744 3.94417 12.9271 3.98176C13.5946 4.14658 14.28 4.22465 14.9505 4.36923L15.0613 4.39525C15.1391 4.39525 15.16 4.45308 15.1451 4.52826C15.1121 4.68152 15.0852 4.83766 15.0553 4.99381C15.0254 5.14438 15.0103 5.29735 15.0104 5.45067C15.0104 5.56344 14.9894 5.5779 14.8727 5.55188C14.7559 5.52585 14.6302 5.48248 14.5105 5.44778C14.4695 5.4317 14.4275 5.41818 14.3848 5.4073C14.2441 5.38128 14.1902 5.43043 14.2232 5.56344C14.2561 5.69646 14.3189 5.8526 14.3608 6.00296C14.4027 6.15332 14.3908 6.15911 14.2381 6.16489C13.9599 6.17932 13.6835 6.21705 13.412 6.27766L13.3312 6.29212" fill="#64BBA8"/>
<path d="M24.0891 6.29511L23.6461 6.21703C23.5097 6.1934 23.3716 6.17986 23.233 6.17655C23.0445 6.17655 23.0415 6.16209 23.0924 5.97993C23.1283 5.85559 23.1702 5.73414 23.2091 5.6127C23.2237 5.57891 23.2357 5.54412 23.245 5.5086C23.266 5.41029 23.2211 5.36691 23.1223 5.39294C23.0235 5.41896 22.8948 5.46523 22.7781 5.49993C22.7195 5.52123 22.6595 5.53862 22.5985 5.55197C22.4638 5.58378 22.4428 5.56932 22.4368 5.43631C22.42 5.15642 22.3819 4.87809 22.3231 4.60354C22.2902 4.45029 22.3231 4.40402 22.4787 4.37511C22.9606 4.28547 23.4455 4.2045 23.9304 4.11776C24.128 4.08017 24.3255 4.03679 24.5291 3.99342C24.7326 3.95005 24.7536 3.99342 24.7117 4.14956C24.547 4.76547 24.4632 5.39294 24.3345 6.01462C24.3345 6.07535 24.3106 6.13607 24.2956 6.1939C24.2806 6.25173 24.2238 6.30667 24.11 6.29511" fill="#64BBA8"/>
<path d="M18.2822 4.24499C18.2532 4.23848 18.2277 4.22204 18.2104 4.19872C17.9951 4.00985 17.7615 3.84137 17.5129 3.69559C17.3363 3.58282 17.3274 3.55101 17.4531 3.37462C17.6895 3.05077 17.932 2.72981 18.1655 2.40306C18.3091 2.20354 18.4438 1.99824 18.5845 1.79583C18.6803 1.65414 18.7641 1.65125 18.8539 1.79583C19.1831 2.32499 19.5842 2.80499 19.9344 3.31968C19.9644 3.36017 19.9943 3.39776 20.0212 3.44113C20.0871 3.5539 20.0811 3.59728 19.9704 3.66956C19.7104 3.82173 19.465 3.99591 19.237 4.19005C19.1742 4.24788 19.1293 4.22185 19.0874 4.15535C19.0455 4.08884 18.9587 3.94716 18.8928 3.84306C18.8727 3.80484 18.8497 3.76811 18.824 3.73318C18.7461 3.63487 18.6683 3.63776 18.6055 3.73318C18.5426 3.8286 18.4738 3.98185 18.4079 4.10908C18.3899 4.14089 18.375 4.1727 18.354 4.2045C18.346 4.21523 18.335 4.22359 18.3223 4.22869C18.3096 4.23379 18.2958 4.23543 18.2822 4.23342" fill="#64BBA8"/>
<path d="M12.8704 15.5222C12.7627 15.5222 12.7148 15.4614 12.7417 15.3458C12.7866 15.1434 12.8375 14.9409 12.8794 14.7385C12.9722 14.2903 13.056 13.8422 13.1428 13.394C13.144 13.3757 13.144 13.3573 13.1428 13.339C13.1787 13.1858 13.1997 13.1742 13.3643 13.206C13.4511 13.206 13.5379 13.2465 13.6247 13.2581C13.7713 13.2817 13.9192 13.2962 14.0677 13.3014C14.2383 13.3014 14.2563 13.3332 14.2144 13.4894C14.1594 13.6865 14.0904 13.8797 14.0079 14.0677C13.9847 14.1177 13.9676 14.1701 13.957 14.2238C13.957 14.3106 13.9839 14.3482 14.0767 14.3395C14.152 14.3278 14.2247 14.3044 14.2922 14.2701C14.4773 14.1928 14.6685 14.13 14.8639 14.0822C14.9806 14.0561 15.0136 14.0822 15.0196 14.1978C15.041 14.452 15.082 14.7042 15.1423 14.9525C15.1692 15.0768 15.1692 15.0855 15.0375 15.1087C14.6185 15.1867 14.1934 15.259 13.7714 15.3342C13.505 15.3834 13.2416 15.4383 12.9752 15.4903L12.8734 15.5193" fill="#64BBA8"/>
<path d="M14.7087 13.7292C14.6039 13.7292 14.571 13.6887 14.5919 13.5846C14.6248 13.4343 14.6697 13.2955 14.6997 13.1393C14.7625 12.8155 14.8224 12.4945 14.8853 12.1707C14.9149 12.021 14.9632 11.8754 15.0289 11.7369C15.0888 11.6184 15.1008 11.6126 15.2355 11.6386C15.3702 11.6646 15.4689 11.6878 15.5857 11.7167C15.8873 11.808 16.2089 11.819 16.5165 11.7485C16.6153 11.7225 16.6482 11.7485 16.6303 11.8324C16.5725 12.2439 16.6103 12.6627 16.741 13.0584C16.7889 13.2521 16.7829 13.255 16.5974 13.3244C16.3672 13.4084 16.1284 13.4685 15.885 13.5037C15.5108 13.5615 15.1397 13.6338 14.7715 13.7148H14.7087" fill="#64BBA8"/>
<path d="M17.3428 9.75344C17.509 9.64042 17.6944 9.55626 17.8905 9.50477C18.0222 9.47585 18.0312 9.4614 17.9534 9.35441C17.8561 9.19007 17.7845 9.01273 17.7409 8.82814C17.9063 8.84439 18.0669 8.89152 18.2138 8.96694L18.3275 9.03344C18.3994 9.07682 18.4443 9.07103 18.4592 8.9814C18.4944 8.81337 18.5624 8.65339 18.6598 8.51007C18.6598 8.48983 18.6867 8.47248 18.7107 8.44067C18.8322 8.59616 18.9188 8.77441 18.9651 8.96405C18.992 9.07393 19.001 9.07682 19.0998 9.01899C19.2779 8.91734 19.4736 8.84778 19.6775 8.81369C19.6437 9.00376 19.5736 9.18613 19.4709 9.35152C19.3961 9.4614 19.4021 9.47007 19.5398 9.49899C19.7286 9.54803 19.9077 9.62719 20.0696 9.7332C19.944 9.83495 19.7969 9.90897 19.6386 9.95007C19.6026 9.95007 19.5637 9.95007 19.5278 9.9732C19.4111 10.0021 19.4051 10.0108 19.465 10.1033C19.5664 10.2784 19.6391 10.4677 19.6805 10.6643C19.5105 10.6474 19.3458 10.5983 19.1956 10.5197C19.1626 10.5024 19.1327 10.4792 19.0968 10.4619C19.01 10.4156 18.989 10.4185 18.9711 10.5139C18.9307 10.6817 18.8619 10.842 18.7675 10.9881C18.7675 11.0084 18.7406 11.0257 18.7167 11.0575C18.6012 10.9104 18.5177 10.7422 18.4712 10.5631C18.4353 10.4098 18.4293 10.4069 18.2976 10.4879C18.129 10.5818 17.9446 10.6464 17.7528 10.6787C17.7842 10.4889 17.8544 10.3071 17.9594 10.1438C18.0342 10.0339 18.0252 10.0195 17.8935 9.99055C17.6999 9.94036 17.5159 9.8603 17.3488 9.75344" fill="#64BBA8"/>
<path d="M22.6796 10.777C22.6197 10.777 22.5808 10.777 22.5569 10.7221C22.5329 10.6671 22.512 10.6614 22.494 10.6295C22.3156 10.3264 22.0703 10.0648 21.7756 9.86328C21.6559 9.77654 21.6499 9.74762 21.7756 9.68111C22.0458 9.50917 22.2597 9.26645 22.3922 8.98135C22.5539 8.6922 22.5838 8.67196 22.9011 8.81653C23.1616 8.94184 23.4109 9.08789 23.6464 9.25316C23.8499 9.38907 24.0445 9.54232 24.245 9.67244C24.3558 9.7534 24.3588 9.80545 24.245 9.87485C23.8679 10.0888 23.5177 10.3404 23.1615 10.5804C23.0449 10.6541 22.9192 10.7133 22.7873 10.7568C22.7544 10.7712 22.7155 10.7799 22.6916 10.7886" fill="#64BBA8"/>
<path d="M18.7526 4.44458C18.7752 4.44503 18.7971 4.45147 18.8162 4.4632C18.8352 4.47494 18.8505 4.4915 18.8604 4.51109C19.1208 4.86964 19.4171 5.20506 19.6506 5.58386C19.7337 5.7136 19.7981 5.85369 19.8421 6.00024C19.8504 6.01842 19.8548 6.03802 19.855 6.05788C19.8553 6.07773 19.8514 6.09743 19.8436 6.11579C19.8357 6.13416 19.8241 6.1508 19.8095 6.16473C19.7948 6.17867 19.7774 6.1896 19.7583 6.19687C19.6835 6.23157 19.6146 6.27205 19.5428 6.30964C19.2717 6.4391 19.0366 6.62949 18.8574 6.86482C18.7616 6.98916 18.7376 6.98916 18.6598 6.86482C18.467 6.57622 18.2065 6.33551 17.8995 6.16217C17.717 6.0494 17.714 6.03783 17.7948 5.84121C17.8737 5.64909 17.9741 5.46585 18.0941 5.2947C18.2677 5.04024 18.4473 4.79157 18.6239 4.53711C18.6568 4.49085 18.6867 4.44458 18.7526 4.44458Z" fill="#64BBA8"/>
<path d="M18.7163 12.5061C18.7699 12.5407 18.8141 12.5873 18.845 12.642C19.0119 12.8666 19.2314 13.0499 19.4855 13.1769L19.6681 13.2724C19.8716 13.388 19.8776 13.3996 19.7968 13.6222C19.735 13.7754 19.6546 13.921 19.5574 14.056C19.3418 14.3798 19.0844 14.6748 18.854 14.9871C18.7731 15.0941 18.6833 15.0941 18.6175 14.9871C18.399 14.6141 18.1296 14.2757 17.9021 13.9085C17.8393 13.8028 17.7872 13.6914 17.7465 13.576C17.7375 13.5596 17.7322 13.5416 17.7308 13.5232C17.7295 13.5047 17.7321 13.4862 17.7386 13.4688C17.7451 13.4513 17.7552 13.4354 17.7684 13.422C17.7817 13.4086 17.7976 13.398 17.8153 13.3909C18.1978 13.1952 18.5106 12.893 18.7133 12.5235" fill="#64BBA8"/>
<path d="M20.8681 11.7371C20.931 11.7371 21.0028 11.7602 21.0807 11.766C21.2948 11.7805 21.5099 11.757 21.7152 11.6966C21.823 11.6677 21.9337 11.6417 22.0415 11.6041C22.0616 11.5953 22.0834 11.5908 22.1054 11.5908C22.1274 11.5908 22.1492 11.5954 22.1693 11.6041C22.1894 11.6128 22.2073 11.6256 22.2219 11.6416C22.2365 11.6575 22.2475 11.6763 22.254 11.6966C22.3554 11.8765 22.4233 12.0723 22.4545 12.2749C22.5204 12.6508 22.5803 13.0296 22.6401 13.4084C22.6581 13.5327 22.6042 13.579 22.4785 13.5645L22.4037 13.5501C22.0684 13.4576 21.7272 13.4026 21.389 13.3361C21.2016 13.3045 21.0195 13.2491 20.8472 13.1713C20.7215 13.1135 20.7005 13.0903 20.7364 12.9602C20.8208 12.5972 20.8279 12.2214 20.7574 11.8556C20.7574 11.7747 20.7574 11.74 20.8681 11.7486" fill="#64BBA8"/>
<path d="M22.7246 6.07252C22.7146 6.12808 22.7017 6.18309 22.6857 6.23734C22.6049 6.52649 22.557 6.833 22.4971 7.13083C22.4626 7.31092 22.4094 7.48722 22.3385 7.6571C22.2757 7.80746 22.2577 7.81902 22.0991 7.77854C21.736 7.66736 21.3477 7.65833 20.9796 7.75252C20.8778 7.78143 20.8359 7.75252 20.8569 7.63686C20.9098 7.30448 20.8717 6.9645 20.7461 6.65083C20.6563 6.37902 20.6683 6.36167 20.9467 6.24312C21.1705 6.16027 21.4035 6.10301 21.6411 6.07252C21.9404 6.01758 22.2397 5.9771 22.557 5.93083C22.6767 5.91348 22.7276 5.95396 22.7246 6.07541" fill="#64BBA8"/>
<path d="M15.8065 9.74472V9.76207C15.4713 9.99215 15.1899 10.2877 14.9804 10.6295C14.8667 10.7886 14.8637 10.7886 14.6811 10.7134C14.5061 10.641 14.3396 10.5508 14.1842 10.4445C13.8849 10.2536 13.6125 10.0657 13.3282 9.86617C13.1905 9.77653 13.1845 9.70424 13.3282 9.61749C13.6514 9.40062 13.9717 9.18665 14.298 8.97557C14.4479 8.87307 14.6135 8.79403 14.7889 8.74135C14.8016 8.73546 14.8155 8.73206 14.8296 8.73134C14.8438 8.73063 14.8579 8.73261 14.8712 8.73717C14.8846 8.74174 14.8969 8.7488 14.9074 8.75795C14.9179 8.7671 14.9264 8.77816 14.9325 8.7905L15.0133 8.91484C15.1995 9.20726 15.4473 9.4585 15.7407 9.65219C15.7766 9.67243 15.8215 9.68978 15.8305 9.73605" fill="#64BBA8"/>
<path d="M16.5645 7.72936L16.2173 7.68888C15.9644 7.68181 15.7119 7.71303 15.469 7.78141C15.2116 7.83924 15.2056 7.83635 15.1158 7.59635C15.0153 7.26972 14.9402 6.93625 14.8914 6.59876L14.7926 6.09852C14.7716 5.98575 14.8105 5.93081 14.9153 5.95394C15.4032 6.0696 15.909 6.10719 16.3939 6.2431C16.4722 6.2669 16.5483 6.29688 16.6214 6.33273C16.7621 6.40502 16.7681 6.4137 16.7232 6.56117C16.6349 6.82805 16.5994 7.10859 16.6184 7.38815C16.6184 7.46334 16.6364 7.53562 16.6424 7.60791C16.6484 7.6802 16.6424 7.73514 16.5645 7.72936Z" fill="#64BBA8"/>
<path d="M20.5632 7.30709C20.5213 7.84782 20.3267 8.25264 19.8179 8.46372C19.6619 8.5294 19.4994 8.57977 19.333 8.61408C19.3007 8.62716 19.2644 8.62786 19.2316 8.61604C19.1988 8.60422 19.1719 8.58078 19.1564 8.55047C18.8391 7.97215 18.7373 7.22324 19.4557 6.74613C19.6981 6.5842 19.9735 6.45697 20.216 6.30083C20.2758 6.26035 20.3417 6.2777 20.3477 6.34131C20.3896 6.67962 20.5273 7.00059 20.5572 7.3042" fill="#64BBA8"/>
<path d="M18.5961 7.61946C18.5889 7.94632 18.485 8.26436 18.2968 8.53609C18.2801 8.56898 18.2505 8.59414 18.2146 8.60606C18.1787 8.61798 18.1394 8.61569 18.1053 8.5997C17.5425 8.42042 16.9858 8.02139 16.9798 7.26958C16.9771 7.12969 16.9912 6.98997 17.0217 6.85319C17.0636 6.66813 17.1175 6.48596 17.1684 6.3038C17.1983 6.20259 17.2402 6.18524 17.333 6.24018C17.5575 6.37608 17.782 6.51199 18.0005 6.65368C18.2095 6.79348 18.3767 6.98396 18.4854 7.20596C18.5574 7.33273 18.5955 7.47487 18.5961 7.61946Z" fill="#64BBA8"/>
<path d="M16.1627 8.0301C16.4158 8.01246 16.6681 8.07298 16.8833 8.20291C17.0985 8.33284 17.2654 8.52547 17.3599 8.75299C17.4222 8.88604 17.4713 9.02449 17.5066 9.16649C17.5132 9.18375 17.5163 9.20212 17.5155 9.22053C17.5147 9.23894 17.5102 9.25701 17.5021 9.2737C17.494 9.29038 17.4826 9.30535 17.4684 9.31772C17.4543 9.33009 17.4378 9.33963 17.4198 9.34576C16.8212 9.63492 16.1267 9.67829 15.585 9.12022C15.3815 8.88417 15.2039 8.62834 15.0552 8.35684C15.0163 8.29901 15.0193 8.24407 15.1061 8.21516C15.4531 8.12848 15.8062 8.06662 16.1627 8.0301Z" fill="#64BBA8"/>
<path d="M20.8832 9.9268C21.0545 9.92537 21.2244 9.95713 21.3827 10.0202C21.5411 10.0833 21.6847 10.1764 21.8052 10.294C22.048 10.553 22.2497 10.8453 22.4038 11.1615C22.4427 11.2222 22.4038 11.2656 22.3409 11.283C22.3107 11.2918 22.2796 11.2976 22.2481 11.3003C22.0167 11.3287 21.7876 11.3732 21.5627 11.4333C21.2858 11.5038 20.992 11.4785 20.7324 11.3618C20.4727 11.2451 20.2635 11.0443 20.1409 10.7943C20.0747 10.6719 20.0225 10.543 19.9853 10.4097C19.9284 10.2073 19.9404 10.1842 20.1499 10.0945C20.3813 9.99649 20.6306 9.94438 20.8832 9.94126" fill="#64BBA8"/>
<path d="M16.9385 12.2834C16.9385 11.6848 17.133 11.3494 17.5371 11.1267C17.6969 11.039 17.868 10.9719 18.046 10.9272C18.1866 10.8925 18.2166 10.8983 18.2764 11.0169C18.6296 11.6964 18.5937 12.347 17.9532 12.8646C17.7361 13.0248 17.5081 13.1707 17.2707 13.3012C17.1989 13.3446 17.142 13.3214 17.133 13.2405C17.0881 12.8704 16.9445 12.5176 16.9385 12.292" fill="#64BBA8"/>
<path d="M21.4277 8.03003C21.7336 8.04345 22.0359 8.09895 22.3256 8.19485C22.4214 8.21509 22.4453 8.26714 22.3885 8.34232C22.2268 8.56208 22.1161 8.81075 21.9664 9.0363C21.8204 9.26412 21.5994 9.4379 21.3388 9.52968C21.0782 9.62146 20.7932 9.62591 20.5297 9.54232C20.3615 9.49415 20.2012 9.42308 20.0538 9.33124C19.9281 9.25895 19.9131 9.23871 19.967 9.09124C20.1795 8.48979 20.6195 8.00111 21.4157 8.03003" fill="#64BBA8"/>
<path d="M16.1333 11.4567C15.9304 11.457 15.7286 11.4277 15.5347 11.3699L15.2354 11.2889C15.0438 11.2398 15.0288 11.208 15.1545 11.0489C15.2803 10.8899 15.388 10.728 15.4958 10.5632C15.5884 10.4179 15.7023 10.2864 15.834 10.1728C15.9746 10.0486 16.146 9.96147 16.3316 9.91993C16.5172 9.87839 16.7108 9.88382 16.8936 9.93569C17.0895 9.98577 17.277 10.0627 17.4503 10.1641C17.4706 10.1714 17.489 10.1826 17.5046 10.1971C17.5202 10.2115 17.5326 10.2289 17.541 10.2481C17.5494 10.2673 17.5537 10.288 17.5535 10.3088C17.5534 10.3297 17.5488 10.3503 17.5401 10.3694C17.3276 11.0056 16.8637 11.4653 16.1423 11.4567" fill="#64BBA8"/>
<path d="M20.4644 12.3876C20.4326 12.6524 20.3755 12.9138 20.2938 13.1684C20.2729 13.258 20.228 13.2753 20.1442 13.2233C19.8658 13.0527 19.5844 12.8908 19.321 12.697C19.1102 12.5578 18.9543 12.3537 18.8787 12.1179C18.8032 11.8822 18.8124 11.6287 18.905 11.3987C18.9493 11.2588 19.0096 11.124 19.0846 10.9968C19.1624 10.8667 19.1804 10.8493 19.327 10.8956C19.6699 10.972 19.973 11.1645 20.1817 11.4382C20.3903 11.7119 20.4906 12.0487 20.4644 12.3876Z" fill="#64BBA8"/>
</g>
<defs>
<clipPath id="clip0">
<rect width="88" height="24" fill="white"/>
</clipPath>
</defs>
</svg>
