<svg width="24" height="24" viewBox="0 0 24 24" fill="none" xmlns="http://www.w3.org/2000/svg">
<path d="M6.48594 11.1501H3.11094C2.52031 11.1501 2.09844 11.6142 2.09844 12.1626V22.2876C2.09844 22.8782 2.52031 23.3001 3.11094 23.3001H6.48594C7.03437 23.3001 7.49844 22.8782 7.49844 22.2876V12.1626C7.49844 11.6142 7.03437 11.1501 6.48594 11.1501ZM4.79844 21.6126C4.20781 21.6126 3.78594 21.1907 3.78594 20.6001C3.78594 20.0517 4.20781 19.5876 4.79844 19.5876C5.34687 19.5876 5.81094 20.0517 5.81094 20.6001C5.81094 21.1907 5.34687 21.6126 4.79844 21.6126ZM18.2984 5.15947C18.2984 2.0376 16.2734 1.7001 15.2609 1.7001C14.375 1.7001 13.9953 3.3876 13.8266 4.14697C13.5734 5.0751 13.3625 6.00322 12.7297 6.63603C11.3797 8.02822 10.6625 9.75791 8.975 11.4032C8.89062 11.5298 8.84844 11.6563 8.84844 11.7829V20.811C8.84844 21.0642 9.05937 21.2751 9.3125 21.3173C9.9875 21.3173 10.8734 21.697 11.5484 21.9923C12.8984 22.5829 14.5438 23.3001 16.5688 23.3001H16.6953C18.5094 23.3001 20.6609 23.3001 21.5047 22.0767C21.8844 21.5704 21.9688 20.9376 21.7578 20.1782C22.475 19.461 22.8125 18.111 22.475 17.0142C23.1922 16.0438 23.2766 14.6517 22.8547 13.6813C23.3609 13.1751 23.6984 12.3735 23.6563 11.6142C23.6563 10.3063 22.5594 9.1251 21.1672 9.1251H16.8641C17.2016 7.94385 18.2984 6.93135 18.2984 5.15947Z" fill="#13C1BF"/>
<path d="M20.5586 12.6077C20.9383 11.9749 21.1492 11.2999 21.1492 10.4983C21.1492 8.64209 19.5461 6.9124 17.5211 6.9124H15.9602C16.1711 6.36396 16.3398 5.73115 16.3398 4.92959C16.3398 1.8499 14.7367 0.499902 12.332 0.499902C9.71641 0.499902 9.88516 4.50771 9.29453 5.09834C8.32422 6.06865 7.18516 7.9249 6.38359 8.5999H2.24922C1.48984 8.5999 0.899219 9.23271 0.899219 9.9499V20.0749C0.899219 20.8343 1.48984 21.4249 2.24922 21.4249H4.94922C5.53984 21.4249 6.08828 21.003 6.21484 20.4546C8.11328 20.4968 9.42109 22.0999 13.7242 22.0999C14.0617 22.0999 14.3992 22.0999 14.6945 22.0999C17.943 22.0999 19.3773 20.4546 19.4195 18.0921C20.0102 17.3327 20.3055 16.278 20.1789 15.2655C20.6008 14.5062 20.7273 13.578 20.5586 12.6077ZM17.943 14.8858C18.4914 15.7718 17.9852 16.953 17.3523 17.3327C17.6898 19.3577 16.593 20.0749 15.1164 20.0749H13.5133C10.518 20.0749 8.53516 18.514 6.29922 18.514V10.6249H6.72109C7.94453 10.6249 9.58984 7.67178 10.7289 6.53271C11.9102 5.35146 11.5305 3.32646 12.332 2.5249C14.3148 2.5249 14.3148 3.91709 14.3148 4.92959C14.3148 6.5749 13.1336 7.33428 13.1336 8.9374H17.5211C18.407 8.9374 19.082 9.73896 19.1242 10.5405C19.1242 11.2999 18.5758 12.1015 18.1539 12.1015C18.7445 12.7343 18.8711 14.0421 17.943 14.8858ZM4.61172 18.7249C4.61172 19.3155 4.14766 19.7374 3.59922 19.7374C3.00859 19.7374 2.58672 19.3155 2.58672 18.7249C2.58672 18.1765 3.00859 17.7124 3.59922 17.7124C4.14766 17.7124 4.61172 18.1765 4.61172 18.7249Z" fill="#071520"/>
</svg>
