<svg width="24" height="24" viewBox="0 0 24 24" fill="none" xmlns="http://www.w3.org/2000/svg">
<path d="M2.09844 4.0626V14.1876C2.09844 14.7782 2.52031 15.2001 3.11094 15.2001H6.48594C7.03437 15.2001 7.49844 14.7782 7.49844 14.1876V4.0626C7.49844 3.51416 7.03437 3.0501 6.48594 3.0501H3.11094C2.52031 3.0501 2.09844 3.51416 2.09844 4.0626ZM3.78594 12.5001C3.78594 11.9517 4.20781 11.4876 4.79844 11.4876C5.34687 11.4876 5.81094 11.9517 5.81094 12.5001C5.81094 13.0907 5.34687 13.5126 4.79844 13.5126C4.20781 13.5126 3.78594 13.0907 3.78594 12.5001ZM15.2609 23.3001C16.2734 23.3001 18.2984 22.9626 18.2984 19.8829C18.2984 18.111 17.2016 17.0985 16.8641 15.8751H21.1672C22.5594 15.8751 23.6563 14.736 23.6984 13.4282C23.6984 12.6688 23.3609 11.8673 22.8547 11.361C23.2766 10.3907 23.1922 8.99853 22.475 8.02822C22.8125 6.93135 22.475 5.58135 21.7578 4.86416C21.9688 4.10478 21.8844 3.47197 21.5047 2.96572C20.6609 1.74228 18.5094 1.7001 16.6953 1.7001H16.5688C14.5438 1.74228 12.8984 2.45947 11.5484 3.0501C10.8734 3.34541 9.9875 3.7251 9.3125 3.7251C9.05937 3.76728 8.84844 3.97822 8.84844 4.23135V13.2595C8.84844 13.386 8.89062 13.5548 8.975 13.6392C10.6625 15.2845 11.3797 17.0142 12.7297 18.4063C13.3625 19.0392 13.5734 19.9673 13.8266 20.8954C13.9953 21.6548 14.375 23.3001 15.2609 23.3001Z" fill="#FF5A2E"/>
<path d="M20.5586 10.0343C20.7273 9.06396 20.6008 8.13584 20.1789 7.37646C20.3055 6.36396 20.0102 5.30928 19.4195 4.5499C19.3773 2.1874 17.943 0.499902 14.6945 0.499902C14.3992 0.499902 14.0617 0.54209 13.7242 0.54209C9.37891 0.54209 7.98672 2.1874 6.29922 2.1874H5.83516C5.58203 2.01865 5.28672 1.8499 4.94922 1.8499H2.24922C1.48984 1.8499 0.899219 2.48271 0.899219 3.1999V13.3249C0.899219 14.0843 1.48984 14.6749 2.24922 14.6749H4.94922C5.41328 14.6749 5.87734 14.4218 6.08828 13.9999H6.38359C7.18516 14.7171 8.32422 16.5733 9.29453 17.5437C9.88516 18.1343 9.71641 22.0999 12.332 22.0999C14.7367 22.0999 16.3398 20.7921 16.3398 17.7124C16.3398 16.9108 16.1711 16.278 15.9602 15.7296H17.5211C19.5461 15.7296 21.1492 13.9999 21.1492 12.1437C21.1492 11.2999 20.9383 10.6671 20.5586 10.0343ZM3.59922 12.9874C3.00859 12.9874 2.58672 12.5655 2.58672 11.9749C2.58672 11.4265 3.00859 10.9624 3.59922 10.9624C4.14766 10.9624 4.61172 11.4265 4.61172 11.9749C4.61172 12.5655 4.14766 12.9874 3.59922 12.9874ZM17.5211 13.7046H13.1336C13.1336 15.3077 14.3148 16.0671 14.3148 17.7124C14.3148 18.7249 14.3148 20.0749 12.332 20.0749C11.5305 19.3155 11.9102 17.2905 10.7289 16.1093C9.58984 14.9702 7.94453 11.9749 6.72109 11.9749H6.29922V4.12803C8.53516 4.12803 10.518 2.56709 13.5133 2.56709H15.1164C16.593 2.56709 17.6898 3.28428 17.3523 5.30928C17.9852 5.68896 18.4914 6.87021 17.943 7.75615C18.8711 8.5999 18.7445 9.90771 18.1539 10.5405C18.5758 10.5405 19.1242 11.3421 19.1242 12.1015C19.082 12.903 18.407 13.7046 17.5211 13.7046Z" fill="#071520"/>
</svg>
